<svg id="Layer_1" data-name="Layer 1" xmlns="http://www.w3.org/2000/svg" viewBox="0 0 150 150"><defs><style>.cls-1{fill:none;stroke:#000;stroke-miterlimit:10;stroke-width:10px;}</style></defs><title>Artboard 1</title><path d="M70,110H17.39v-9.64H69.82c6.43,0,6.44-10,0-10H13.21l-.43,0c-2.62-.18-5.39,1.42-5.39,4.81v45.38c0,6.44,10,6.45,10,0V120H70C76.41,120,76.43,110,70,110Z"/><path d="M133.35,134.89H113.59V100.83h18.77c6.43,0,6.44-10,0-10H87c-6.44,0-6.45,10,0,10h16.61v34.06H87.8c-6.43,0-6.44,10,0,10h45.55C139.78,144.89,139.79,134.89,133.35,134.89Z"/><path d="M68.83,71.86H17.72V7.39c0-6.44-10-6.45-10,0v69.8c0,3.8,3.49,5.36,6.34,4.67H68.83C75.26,81.86,75.27,71.86,68.83,71.86Z"/><circle class="cls-1" cx="110.16" cy="42.29" r="30.45"/></svg>