<?xml version="1.0" encoding="utf-8"?>
<!-- Generator: Adobe Illustrator 22.1.0, SVG Export Plug-In . SVG Version: 6.00 Build 0)  -->
<svg version="1.1" id="Layer_1" xmlns="http://www.w3.org/2000/svg" xmlns:xlink="http://www.w3.org/1999/xlink" x="0px" y="0px"
	 viewBox="0 0 612 792" style="enable-background:new 0 0 612 792;" xml:space="preserve">
<g>
	<path d="M256.2,453.4c0-38.4,0-76.8,0-115.2c33.6,0,67.1,0,100.8,0c0,38.4,0,76.8,0,115.2C323.4,453.4,289.8,453.4,256.2,453.4z
		 M297.8,434.3c-0.9-1-0.9-1.1-0.2-2.7c0.7-1.4,1-2.8,1-4.4c-0.1-1.9,0.2-3.9,0.3-5.8c0-0.7,0.1-1.4,0.3-2c0.1-0.4,0.4-0.8,0.6-1.1
		c0.4,0.2,0.8,0.4,1.1,0.7c1.1,1.4,2,2.8,3.1,4.2c0.3,0.4,0.6,0.7,0.9,1.1c0.8,1.1,1.6,2.2,2.5,3.3c0.8,0.9,1.7,1.7,2.4,2.7
		c0.6,0.8,1.1,1.6,1.6,2.4c0.3,0.4,0.7,0.7,1.1,1.1c1.8,2.3,3.6,4.7,5.4,7c0.1,0.2,0.4,0.3,0.5,0.5c1.4,1.4,2.9,2.6,4.1,4.2
		c1.1,1.5,2.6,2.5,4.2,2.8c2.6,0.6,5.3,0.6,8,0.7c2.1,0.1,4.1-0.1,6.2,0.1c2,0.2,3.3-0.4,4.3-2.1c0.7-1.2-0.1-3.5-1.3-3.6
		c-1-0.1-2.1,0-3.1,0.2c-1.8,0.4-3.5,0.7-5.3,0.4c-1.6-0.2-3.3,0.1-4.9,0s-3.2-0.5-4.8-0.7c-0.1,0-0.1-0.1-0.2-0.1
		c-1-0.6-2.1-1.2-3.1-1.7c-0.6-0.3-1-0.6-0.8-1.4c0-0.2-0.3-0.7-0.5-0.7c-1.3-0.4-2.2-1.3-2.8-2.4c-0.5-0.8-1-1.6-1.6-2.4
		c-1.7-2.1-3.3-4.3-5-6.4c-1.7-2-3.4-4-5-6c-1.3-1.6-2.4-3.2-3.7-4.8c-0.3-0.4-0.6-0.9-1-1.3c-1.3-1.1-2.4-2.3-2.1-4.3
		c0.1-0.4,0.1-0.8,0-1.2c-0.3-2-0.5-4-2.3-5.4c-0.2-0.2-0.3-0.9-0.1-1.1c0.5-0.7,1-1.4,1.7-1.9c1-0.9,2.1-1.7,3.1-2.5
		c0.5-0.4,1-1,1.5-1.3c1.4-0.9,2.8-1.6,4.2-2.5c1.6-1.1,2.5-0.9,3.6,0.6c0.8,1.2,1.7,2.3,2.6,3.4c0.6,0.8,1.1,1.6,1.5,2.5
		c0.7,1.4,1.3,2.9,2.1,4.2c1,1.6,2.2,3.1,3.3,4.7c0.3,0.4,0.8,0.9,0.8,1.3c0,1.6,0.9,2.6,2.1,3.3c1.1,0.7,2.2,1.5,3.4,1.9
		c1.2,0.3,2.5,0.1,3.8,0.2c0.6,0,1.2,0.2,1.9,0.2c2.1,0.1,4.2,1.2,6.4,0.3c1.1-0.4,1.8,0.2,1.8,1.4c0,1.1,0.8,1.8,2.1,1.6
		c0.4-0.1,0.7-0.2,1-0.3c1.1-0.3,1.7,0.3,1.3,1.4c-0.2,0.6-0.7,1.1-1.2,1.8c0.5,0,0.9-0.1,1.3,0c0.3,0,0.7,0.1,0.8,0.3
		c0.4,1.1,0.9,2.1,1.1,3.3c0.2,1.2,0.9,1.7,2,1.8c0.5,0.1,1,0.1,1.6,0.1c1,0.1,1.6-0.3,1.7-1.3c0.1-1.5,0.1-3,0.4-4.5
		c0.2-1.6-0.6-3.3,0.7-4.7c0.1-0.1,0.1-0.4,0-0.6c-0.9-1.4-1.1-3-1.2-4.6c0-0.3-0.5-0.6-0.8-0.7c-1.5-0.5-2.7-1.7-4.4-1.4
		c-0.1,0-0.2-0.1-0.3-0.1c-1.4-0.5-2.9-1.1-4.4-1.6c-0.2-0.1-0.4-0.1-0.5-0.2c-1.5-0.7-3-1.4-4.5-2c-0.8-0.3-1.7-0.6-2.4-1
		c-0.3-0.2-0.5-0.7-0.6-1.1c-0.4-1-0.7-2.1-1-3.1c-0.2-0.5-0.4-0.9-0.5-1.4s-0.1-1-0.3-1.5c-0.9-2.4-1.8-4.8-2.8-7.2
		c-0.8-2-1.4-4.2-2.5-6c-0.9-1.5-0.8-2.9-0.7-4.5c0-0.7-0.1-1.5-0.2-2.2c0-0.7-0.2-1.4-0.1-2.1c0.2-1.1-0.3-2.7-1-3.2
		c-1.2-0.8-1.7-2.1-2.3-3.3c-0.6-1.3-1.1-2.7-2.8-2.9c-0.3,0-0.6-0.5-0.9-0.8c-0.2-0.2-0.2-0.8-0.4-0.8c-1.2-0.4-1.4-1.4-1.9-2.3
		c-1.6-2.5-3.7-4.6-6.1-6.3c-1.2-0.8-1.3-1.2-0.1-2c1.1-0.8,1.3-1.7,1.1-2.9c-0.1-0.7,0-1.5-0.3-2.1c-0.9-1.6-1.7-3.2-2.9-4.5
		c-1.3-1.3-2.9-2.3-4.5-3.4c-1.4-1-2.5-0.9-3.6,0.1c-1.4,1.2-3,1.5-4.8,1.3c-0.4-0.1-1.1,0.1-1.2,0.4c-0.8,1.6-1.5,3.2-1.4,5.1
		c0.1,2.1-0.7,2.4-2.6,1.3c-0.6-0.4-1.4-0.7-2.1-0.8c-1.9-0.2-3.9-0.3-5.9-0.5c-0.4,0-0.7-0.3-1.1-0.4c-0.5-0.1-1.1-0.4-1.6-0.3
		c-0.9,0.3-1.5,0-2.2-0.4c-0.5-0.2-1.3-0.3-1.9-0.1c-0.9,0.3-1.7,0.9-2.5,1.4c-0.9,0.6-1.9,1.2-2.5,2c-1,1.4-1.8,2.9-2.7,4.4
		c-1.1,1.8-2.2,3.6-3.4,5.5c-0.5,0.8-1.2,1.6-1.7,2.4c-0.3,0.5-0.4,1.2-0.8,1.7c-0.5,0.8-0.6,1.3,0.3,1.9c0.8,0.5,1,1.2,0.3,2.1
		c-0.5,0.6-0.9,1.3-1.3,2c-0.1,0.3-0.2,0.7,0,1c0.5,0.7,1.1,1.4,1.6,2.1c0.2,0.3,0.6,0.6,0.7,0.9c0.1,0.9,0.7,1.2,1.5,1.3
		c1.1,0.2,1.4,0.7,1,1.7c-0.1,0.2-0.1,0.8,0.1,0.9c0.2,0.2,0.7,0.2,1,0.1c1.6-0.5,2.7-0.1,3.7,1.3c1.2,1.7,2.5,3.4,3.7,5.1
		c1.4,1.9,2.8,3.8,4.2,5.6c0.8,1,1.7,1.9,2.6,2.7c0.7,0.6,0.8,1.4,0.1,2.1c-1.5,1.4-1.6,2.3-0.5,4.1c0.4,0.6,0.9,1.3,1.1,2
		c0.5,1.4,1.5,2.4,2.8,3.1s1.9,1.6,2,3c0,0.7,0.2,1.4,0.4,2.1c0.2,0.9,0.5,1.9,0.8,2.8c0.6,1.7,0.4,3.6,1.6,5.2
		c0.5,0.7-0.1,1.4-1,1.5c-0.5,0.1-1.1,0.3-1.4,0.6c-0.2,0.2,0.2,1,0.5,1.3c0.4,0.4,1,0.6,1.4,1c0.3,0.3,0.7,1,0.6,1.2
		c-1.3,1.5-2.5,3-4.5,3.6c-1.5,0.4-2.6,1.4-3.3,2.5c-0.4,0.5-0.5,1.8-0.1,2.2c0.8,0.9,0.6,1.4-0.1,2.1c-0.6,0.6-0.5,1.2,0.4,1.4
		c0.4,0.1,0.9,0.2,1.3,0.2c1.2,0,2.3-0.2,3.5-0.1c2.2,0.3,4.3,0.1,6.3-0.6C295.1,435.9,297,436.2,297.8,434.3z"/>
	<path d="M292.7,375.9c-0.9,1.8,0.4,3.7-1,5.2c0.4,2.5-1.6,4-2.4,5.9c-0.1,0.2-0.3,0.5-0.5,0.7c-1.7,1.8-2.9,3.8-3.3,6.3
		c0,0.3-0.3,0.7-0.4,0.7c-0.3,0-0.7-0.1-0.9-0.4c-1.2-1.3-2.4-2.7-3.5-4.1c-1.3-1.6-2.4-3.3-3.6-4.9c-1.7-2.1-3.6-4.2-5.4-6.3
		c-1.2-1.4-1.2-1.7-0.1-3.1c0.5-0.7,1.1-1.5,1.5-2.3c0.2-0.5,0.1-1.2-0.1-1.8c-0.3-0.8-0.3-1.3,0.2-2c1.3-1.6,2-3.5,1.3-5.6
		c-0.5-1.5-0.1-2.3,1.3-3.1c0.1-0.1,0.3-0.2,0.4-0.3c1.3-1.3,1.4-1.3,2.9-0.1c1.5,1.3,2.9,2.6,4.4,3.8c1.4,1.2,2.8,2.4,4.2,3.7
		c0.3,0.2,0.5,0.5,0.6,0.9c0.8,1.9,1.9,3.5,3.6,4.9C292.2,374.6,292.4,375.4,292.7,375.9z"/>
	<path d="M289.7,435.4c-0.5-0.3-0.9-0.6-1.2-0.9c0.4-0.2,0.7-0.5,1.1-0.7c0.7-0.4,1.3-0.8,2-1.1c0.5-0.2,1.1-1,1.6-0.1
		c0.4,0.8-0.1,1.2-0.8,1.5C291.5,434.4,290.6,434.9,289.7,435.4z"/>
	<path d="M312.7,387.1c-0.4-1.4,0.2-2.1,1.7-2.1C313.8,385.7,313.3,386.3,312.7,387.1z"/>
</g>
</svg>
