<?xml version="1.0" encoding="utf-8"?>
<!-- Generator: Adobe Illustrator 22.1.0, SVG Export Plug-In . SVG Version: 6.00 Build 0)  -->
<svg version="1.1" id="Layer_1" xmlns="http://www.w3.org/2000/svg" xmlns:xlink="http://www.w3.org/1999/xlink" x="0px" y="0px"
	 viewBox="0 0 612 792" style="enable-background:new 0 0 612 792;" xml:space="preserve">
<g>
	<path d="M336.6,386.4c5.4,0,10.7,0,16.1,0c2.1,0,2.1,0,2.1,2c0,5.3,0,10.6,0,16c0,1.2-0.4,1.6-1.6,1.6c-3.2,0-6.4,0-9.6,0
		c-3,0-3,0-4.9,1.1c0.2-1.3-0.7-1.2-1.5-1.2c-9.2,0-18.4,0.1-27.6,0.1c-7.3,0-14.6,0-21.8,0c-1.1,0-2.2,0-3.2,0.1
		c6.3,0,12.6,0,18.9,0c1.2,0,2.4,0.1,3.5,0.2c0.4,0,0.7,0.3,1.1,0.4c0,0.1,0,0.3,0,0.4c-1,0.1-1.9,0.3-2.9,0.3
		c-0.7,0-1.4-0.3-2.1-0.3c-0.8,0-1.7,0.3-2.5,0.3c-5.8,0-11.6,0-17.4,0c-5,0-10,0-15,0c-3.6,0-7.2,0-11,0c0-7.8,0-15.3,0-23
		c11.8-0.1,23.6-0.2,35.3,0.1c0,0-0.1,0.2-0.1,0.3c0.6-0.1,1.1-0.2,1.7-0.3c1.7-0.1,3.5-0.2,5.2-0.2c0.9,0,1.8,0.4,2.7,0.5
		c0.9,0,1.7-0.1,2.6-0.2c0.6-0.1,1.2-0.3,1.9-0.4c0,0.7-0.2,1.4,0.1,1.7c0.2,0.3,0.9,0.2,1.5,0.2c8.1,0,16.2,0,24.2,0
		c2.3,0,4.6-0.4,6.9-0.6c0-0.1,0-0.2,0-0.3c-1.2,0-2.5,0-3.7,0c-0.7,0-1.4,0.3-2.1,0.3c-0.2,0-0.5-0.2-0.7-0.4
		c0.2-0.2,0.5-0.4,0.7-0.4c2.7,0,5.5-0.2,8.2,0.3c1.8,0.3,3.3-0.1,5-0.3c1.6-0.1,3.2,0.2,4.8,0.1c1.4,0,2.8-0.3,4.2-0.4
		c0.4,0,0.8,0,1.1,0c-0.5,0.4-1,0.8-1.6,1c-0.4,0.2-1,0.3-1.5,0.3c-1,0-2.1,0-3.1,0c-2.6,0-5.3,0.1-7.9,0.1c-2,0-3.9,0-5.9,0
		C336.6,386.1,336.6,386.3,336.6,386.4z M345.2,394.7c0.1,0,0.1-0.1,0.2-0.1c0.1,0.2,0.3,0.4,0.4,0.6c0.9,1.6,1.7,3.2,2.5,4.9
		c0.5,1,1.4,1,2.1,0.8c0.3-0.1,0.6-0.9,0.6-1.4c0.1-2.3,0-4.5,0-6.8c0-0.8-0.2-1.2-1.1-1.2s-1,0.6-1,1.3c0,1.6,0,3.1,0,4.9
		c-0.2-0.3-0.3-0.5-0.4-0.7c-0.8-1.6-1.7-3.2-2.5-4.7c-0.5-1-1.5-0.9-2.3-0.7c-0.3,0.1-0.6,0.9-0.6,1.4c-0.1,2.2,0,4.5,0,6.7
		c0,0.7,0.1,1.3,1,1.3s1-0.5,1-1.3C345.1,398,345.2,396.3,345.2,394.7z M341.8,396.2c0-2.9-1.7-4.9-4.4-4.9c-2.8,0-4.6,2-4.7,5.3
		c0,2.5,1.9,4.4,4.4,4.5C340,401,341.8,399.1,341.8,396.2z M262.5,397.1L262.5,397.1c0,0.9,0,1.8,0,2.8c0,0.7,0.3,1.1,1,1.1
		c1,0,1.9,0.1,2.9-0.1c1.4-0.2,2.7-0.6,3.6-1.8c2.2-3.1,0.5-7-3.2-7.5c-1.1-0.1-2.2,0-3.2,0c-0.7,0-1,0.3-1,1.1
		C262.5,394,262.5,395.5,262.5,397.1z M317.1,398.5c1-0.2,1.6,0.2,1.7,1.3c0,0.2,0.1,0.6,0.2,0.6c0.6,0.2,1.2,0.3,1.8,0.5
		c0.1-0.5,0.3-0.9,0.2-1.3c-0.7-2.4-1.5-4.7-2.2-7.1c-0.3-0.9-0.8-1.1-1.7-1.1c-0.8,0-1.5,0-1.8,1.1c-0.7,2.5-1.5,4.9-2.2,7.3
		c-0.3,0.8,0,1.1,0.8,1.1s1.3-0.3,1.4-1.1C315.5,398.7,316,398.3,317.1,398.5z M306.8,394.9c0-0.8,0-1.6,0-2.4c0-0.7-0.3-1-1-1
		s-1.1,0.2-1.1,1c0,2.4,0,4.9,0,7.3c0,0.7,0.2,1.1,1,1.1s1.1-0.4,1.1-1.2c0-0.5-0.1-1.1,0-1.5c0.1-0.3,0.4-0.6,0.6-0.9
		c0.2,0.2,0.6,0.4,0.7,0.7c0.5,0.8,0.9,1.6,1.4,2.4c0.3,0.5,1.9,1,2.2,0.5c0.2-0.3-0.1-1-0.3-1.4c-0.5-1-1.1-2-1.7-2.9
		c-0.6-0.8-0.5-1.3,0.1-2c0.8-0.9,1.4-1.8,2.2-2.9C308.8,390.6,308.6,393.7,306.8,394.9z M291.6,391.5c0-0.1-0.1-0.2-0.1-0.3
		c-0.5,0.3-1.3,0.5-1.5,1c-0.9,2.6-1.7,5.2-2.5,7.7c-0.2,0.6,0.1,0.9,0.7,0.9c0.8,0.1,1.4-0.2,1.5-1.1c0.1-1.1,0.7-1.4,1.8-1.4
		c1.3-0.1,1.5,0.7,1.7,1.6c0.2,1.1,1.1,0.9,1.8,0.8c0.9-0.1,0.5-0.8,0.3-1.3c-0.7-2.2-1.4-4.5-2.1-6.7
		C293.1,391.8,292.7,391.3,291.6,391.5z M272.3,396.1L272.3,396.1c0,1.2,0,2.5,0,3.7c0,0.6,0.2,1,0.9,1c1.4,0,2.9,0.1,4.3,0
		c0.3,0,0.6-0.6,0.9-0.9c-0.3-0.3-0.6-0.7-0.9-0.8c-0.6-0.1-1.2-0.1-1.8,0c-0.9,0.1-1.2-0.3-1.2-1.2c0-0.8,0.4-1.1,1.2-1.1
		c0.5,0,1,0.1,1.4,0c0.3-0.1,0.9-0.6,0.8-0.8c-0.1-0.4-0.4-0.8-0.8-0.9c-0.5-0.2-1-0.1-1.5,0c-0.8,0-1.1-0.3-1.1-1.1
		c0-0.7,0.4-1,1.1-0.9c0.5,0,1.1,0.1,1.5,0s0.7-0.5,1-0.8c-0.3-0.3-0.7-0.8-1-0.8c-1.2-0.1-2.5,0-3.7,0c-0.8,0-1.1,0.3-1,1.1
		C272.3,393.7,272.3,394.9,272.3,396.1z M283.5,398.2c-0.1,0-0.2,0-0.2,0c-0.1-0.3-0.2-0.6-0.3-0.9c-0.5-1.6-1-3.3-1.4-5
		c-0.3-1.1-1.1-0.9-1.8-0.8c-0.9,0.2-0.4,0.9-0.2,1.4c0.7,2.4,1.5,4.7,2.3,7.1c0.1,0.4,0.7,0.8,1.2,0.9c0.7,0.1,1.5,0.3,1.8-0.7
		c0.9-2.6,1.8-5.2,2.6-7.8c0.1-0.2-0.4-0.7-0.6-0.8c-0.8-0.2-1.4,0.1-1.6,1C284.6,394.4,284.1,396.3,283.5,398.2z M299.4,401
		L299.4,401c0.2-0.1,0.5,0,0.7-0.1c1.7-0.2,2.8-1.1,3-2.4c0.2-1.4-0.5-2.4-2.1-3.1c-0.5-0.2-1-0.4-1.4-0.7c-0.3-0.2-0.5-0.7-0.5-1
		c0.1-0.3,0.5-0.6,0.9-0.6c0.5-0.1,1,0.1,1.4,0.1c0.4-0.1,0.7-0.4,1.1-0.6c-0.2-0.4-0.4-1-0.7-1.1c-0.8-0.2-1.7-0.2-2.5-0.1
		c-1.5,0.3-2.4,1.2-2.5,2.4c-0.1,1.3,0.5,2.2,2,2.9c0.4,0.2,1,0.3,1.3,0.6c0.3,0.3,0.7,0.8,0.6,1.1c-0.1,0.3-0.6,0.7-1,0.8
		c-0.6,0.1-1.2,0-1.8-0.2c-0.7-0.2-1.2,0.1-1.2,0.7c0,0.4,0.5,0.8,0.8,1C298.3,401,298.9,401,299.4,401z M323.3,397.1L323.3,397.1
		c0,0.9,0,1.8-0.1,2.6c-0.1,0.9,0.3,1.1,1.1,1.1c0.8,0,1.1-0.3,1.1-1.1c0-1.6,0-3.3-0.1-4.9c-0.1-1.2,0.3-1.7,1.5-1.6
		c0.6,0.1,1.1-0.1,1.1-0.9c0-0.7-0.4-1-1.1-1c-1.8,0-3.6,0-5.4,0c-0.8,0-1.1,0.5-0.9,1.2c0.2,0.4,0.8,0.7,1.2,0.7
		c1,0,1.4,0.3,1.3,1.3C323.3,395.4,323.3,396.3,323.3,397.1z M329.2,396.1c0,1.2,0,2.5,0,3.7c0,0.8,0.3,1.1,1.1,1.1
		c0.8,0,1.1-0.4,1.1-1.2c0-2.4,0-4.8,0-7.2c0-0.8-0.3-1.1-1.1-1.2c-0.9,0-1.2,0.3-1.2,1.2C329.2,393.8,329.2,394.9,329.2,396.1z
		 M298,386.3c0-0.1,0-0.2,0-0.3c-5.1,0-10.1,0-15.2,0c0,0.1,0,0.2,0,0.3C287.9,386.3,293,386.3,298,386.3z M276.4,406.2L276.4,406.2
		c-3.3-0.1-6.6-0.1-9.9-0.1v0.1C269.8,406.2,273.1,406.2,276.4,406.2z"/>
	<path d="M285.5,362.3c0.2,0.1,0.3,0.1,0.5,0.1c0,0.1,0,0.2,0,0.3c-2.1-0.1-4.2-0.1-6.2-0.3c-2.5-0.2-4.9-0.6-7.4-1
		c-0.6-0.1-1.2-0.5-1.8-0.9c-0.2,0.5,0.1,1.6-1,1.8c0.1,0.3,0.2,0.6,0.4,0.8c0.2,0.3,0.6,0.5,0.6,0.8c0,5.8,0,11.6-0.1,17.4
		c0,0.1-0.1,0.1-0.1,0.3c-1.1,0-2.2,0-3.5,0c0-9,0-18,0-27c2.8,0.8,5.6,1.9,8.4,2.5c7.4,1.6,14.5,1,21.1-2.9c2.8-1.7,4.9-3.8,5.7-7
		c1.6,0,3.2,0,4.8,0v0.1c-0.6,0.1-1.3,0.2-1.9,0.4c0.4,0.8,2.2,0.4,1.5,2c-1.3-1.5-2.6-1.3-3.6,0.3c-0.5,0.8,0,1.2,0.7,1.4
		c0.5,0.1,1,0.1,1.7,0.2c-0.4,0.7-0.6,1-1.5,0.8s-1.9,0.2-2.9,0.3c0,0.2,0,0.3,0,0.5c0.5,0,1.1,0,1.6,0c0.3,0,0.8,0,0.8,0
		c0.1,0.4,0.2,0.9,0,1.1c-0.8,0.7-1.7,1.3-2.6,1.7c-0.7,0.3-1.6,0.4-2.3,0.6c-0.4,0.2-1,0.5-1.1,0.8c-0.6,1.6-1.8,1.4-3.1,1.4
		c-0.6,0-1.1,0-1.7,0.2c0.5,0.2,1.1,0.3,1.6,0.5c0,0.1,0,0.2,0,0.3c-0.5,0.1-1,0.1-1.7,0.2c0.5,0.3,0.8,0.6,1.3,0.9
		c-1.7,0.3-3.2,1.3-4.8,0c-0.2-0.2-0.8-0.2-1,0C286.9,362,286.9,362,285.5,362.3z"/>
	<path d="M305.5,439.9c1.4,1.3,2.6,0.9,3.9-0.3c0.8-0.7,1.9-0.9,2.8-1.5c0.3-0.2,0.4-0.7,0.7-1c2.2-1.7,4.4-3.5,6.6-5.1
		c1-0.7,2.1-0.9,3.3-0.5c0.3,0.1,0.8-0.1,1.1-0.2c0.5-0.2,0.9-0.5,1.6-1c-1-0.2-1.8-0.4-2.7-0.5c0-0.1,0-0.3,0-0.4
		c0.7,0,1.4-0.1,2.1-0.1c0.6-0.1,1.3,0.3,1.8-0.5c0.1-0.2,0.8,0,1.5,0.1c-6.4,6.5-13.5,11.6-20.8,16.6c-14-8.7-25.5-19.9-33.6-34.6
		c1.4,0,2.5-0.1,3.6,0c0.4,0,0.9,0.5,1.1,0.8c3.1,5.4,6.7,10.3,11.1,14.7c3.7,3.7,7.9,7,11.9,10.4c0.9,0.8,1.9,1.4,2.9,2.2
		c-1,0-1.9-0.1-2.9-0.1c1.1,0.5,2.3,0.9,3.4,1.2C305,440.1,305.3,440,305.5,439.9z M307.3,441.7c0-0.1,0-0.1,0-0.2c-1,0-1.9,0-2.9,0
		c0,0.1,0,0.1,0,0.2C305.4,441.7,306.4,441.7,307.3,441.7z"/>
	<path d="M347.8,354.6c0,3,0,5.7,0,8.5c0,5.7,0,11.4-0.1,17c0,0.5,0.3,1.4-0.7,1.4c-0.8,0-1.6-0.3-1.9-1.5c0.6,0.3,1,0.4,1.5,0.6
		c0.1-0.1,0.1-0.2,0.2-0.3c-0.4-0.2-0.7-0.5-1.1-0.7c-0.7-0.4-1-0.7-0.8-1.7s-0.1-2.1-0.2-3.1c0-0.3,0-0.7,0.2-0.9
		c0.4-0.5,0.7-1,0.2-1.7c-0.1-0.2,0-0.6,0.1-0.9c0.4-0.8,0.8-1.6-1.2-1.5c0.2-0.2,0.3-0.3,0.5-0.5c0.7-0.2,1.5-0.5,2.2-0.7
		c0-0.1,0-0.2-0.1-0.3c-0.5,0.1-1.1,0.2-1.6,0.3c-0.1-0.1-0.1-0.2-0.2-0.3c0.8-0.6,1.6-1.1,2.3-1.7c-0.2-0.7-0.3-1.5-0.6-2.2
		c-0.1-0.2-0.4-0.5-0.7-0.6c-2-1-2.2-3-0.4-4.2c0.1-0.1,0.3-0.2,0.5-0.3c-3.2,1.1-6.2,2.1-9.3,3.2c-0.1-0.7-0.2-1-0.2-1.1
		c-1.3-0.4-2.3-0.8-3.6-1.2c0,0.5,0.1,0.9,0.1,1.2c0,0.2-0.1,0.5-0.3,0.6c-0.1,0.1-0.5,0-0.6-0.2c-0.5-0.7-1-0.5-1.7-0.4
		c-1.5,0.3-3.1,0.1-4.6,0c-0.2,0-0.4-0.5-0.7-0.8c-4.1-0.2-7.9-1.5-11.5-4.5c0.9-0.2,1.5-0.3,2.1-0.4c-1.6,0.4-2.7-0.8-3.8-1.5
		c-1.2-0.7-1.9-2.1-2.8-3.1c-0.1-0.9-0.1-1.8-0.2-2.8c-0.3,0.3-0.5,0.5-0.7,0.7c-0.1-0.6-0.1-1.3-0.2-2c1.7,0,3.2,0,4.8,0
		c0.8,3.7,3.4,6,6.7,7.6c6.9,3.5,14,4.1,21.4,2C342.9,356,345.2,355.3,347.8,354.6z M346.5,358.4c-3.3,0.1-6.5,0.3-9.6,0.4
		C340,361.2,343.2,359.4,346.5,358.4z M324.5,358.8c-1-0.4-2-0.9-3-1.3c0,0.1-0.1,0.1-0.1,0.2c0.2,0.1,0.5,0.2,0.7,0.3
		c0,0.1,0,0.2,0,0.3c-0.8,0-1.5,0.1-2.3,0.1c0,0.1,0,0.2,0,0.3C321.3,358.8,322.9,358.8,324.5,358.8z M312.7,353.6
		c0.7,0.5,1.3,1,2.2,1.7C314.7,353.8,313.7,353.7,312.7,353.6z"/>
	<path d="M335,416.1c0.9-0.2,1.6-0.3,2.5-0.5c-0.4-0.4-0.6-0.5-0.7-0.7s-0.3-0.5-0.2-0.7c0.1-0.2,0.4-0.3,0.7-0.3
		c0.4,0,1.2,0.2,1.3,0.1c0.3-0.6,0.3-1.3,0.4-1.7c-1,0.5-2,1.1-3.1,1.6c0.5-0.9,0.8-1.6,1.2-2.2c0.2-0.3,0.7-0.7,1.1-0.7
		c1.1-0.1,2.1,0,3.2,0c0,0.1,0.1,0.2,0.1,0.3c-0.2,0.1-0.4,0.2-0.7,0.3c-0.4,0.2-0.9,0.3-1.3,0.4c0.2,0.4,0.4,0.8,0.7,1.3
		c-0.5,0.5-0.4,1.6-1.7,2.1c-0.8,0.3-1.2,1.7-1.7,2.7c-0.3,0.6-0.4,1.2-0.8,1.7c-1.7,2.1-3.4,4.2-5.2,6.3c-0.2,0.3-0.7,0.5-1.1,0.5
		c-1,0.1-2.1,0-3.1-0.1c1.2-0.9,3-0.7,3.7-2.4c-0.3,0.2-0.5,0.3-0.8,0.5c-0.1-2.3,1.8-4.8,3.7-4.9c-0.8-0.8-0.6-1.2,0.7-1.9
		c0,0.4,0,0.7,0,1.1c0.3,0.1,0.6,0.1,0.9,0.2c0.2,0,0.5,0,0.8,0c-0.1-0.4-0.3-0.7-0.4-0.9C336,416.6,336,416.6,335,416.1z"/>
	<path d="M318.9,406.8c-1,1.3-1.8-0.9-2.8,0c0.4,0.2,0.7,0.4,1.1,0.7c0,0.1,0,0.2-0.1,0.3c-1-0.1-1.9-0.2-2.9-0.3c0,0,0-0.1,0.1-0.1
		c-1.8,0.1-3.7,0.3-5.6,0.4c-0.1-0.5-0.1-0.8-0.1-1.1C308.9,406.1,318,406.3,318.9,406.8z"/>
	<path d="M309.7,385.1c0.4-0.1,0.9-0.3,1.3-0.4c2.9,0,5.9,0,8.8,0c-0.6,1-0.7,0.9-2.3,0.9c-2.1,0-4.1,0.1-6.2,0.2
		c-0.5,0-1-0.1-1.6-0.2C309.8,385.5,309.7,385.3,309.7,385.1z"/>
	<path d="M341.7,407c1.1-0.8,5.3-0.9,6.4-0.1c-0.8,0.7-1.6,0.6-2.4,0.2c-0.7-0.3-1.3-0.4-2,0.1C343.1,407.7,342.3,407.7,341.7,407z"
		/>
	<path d="M337.2,407.1c-2.3,0-4.5,0-7.1,0c0.4-0.4,0.5-0.7,0.6-0.7c2.2,0,4.3,0.1,6.5,0.2C337.2,406.7,337.2,406.9,337.2,407.1z"/>
	<path d="M355.5,393.5c0-0.8-0.1-1.6-0.1-2.4c0-0.6-0.1-1.2-0.1-1.8c0-0.3,0-0.6,0.1-0.9c0.1-0.2,0.4-0.4,0.5-0.3
		c0.1,0,0.3,0.3,0.3,0.5c0,0.9-0.1,1.7-0.2,2.6c-0.1,0.8-0.1,1.5-0.2,2.3C355.8,393.5,355.6,393.5,355.5,393.5z"/>
	<path d="M325.5,428.1c0.3-0.1,0.6-0.2,0.9-0.3c-0.3-0.1-0.6-0.2-0.8-0.3c0-0.1,0-0.2,0-0.3c1.3-0.1,2.6-0.2,4-0.4
		C329,428.2,327.6,428.6,325.5,428.1z"/>
	<path d="M355.5,397.2c1.1,0.6,1.3,3.4,0,4.3C355.5,400,355.5,398.6,355.5,397.2z"/>
	<path d="M329.4,406.6c-1.8,0.2-3.7,0.5-5.7,0.7c-0.3,0-0.6-0.1-0.8-0.2c0.2-0.2,0.4-0.6,0.7-0.6c1.9,0,3.8,0,5.7,0
		C329.4,406.5,329.5,406.6,329.4,406.6z"/>
	<path d="M303.2,350.4c0.4-0.4,0.7-1,1.2-1.2c0.3-0.2,0.8,0.1,1.3,0.2c-0.2,0.5-0.3,1.1-0.7,1.3c-0.4,0.2-1.1,0.1-1.6,0.1
		C303.3,350.7,303.2,350.6,303.2,350.4z"/>
	<path d="M297.5,358.3c0.7-1.2,1.9-1.8,3.2-1.4C299.7,357.3,298.6,357.8,297.5,358.3z"/>
	<path d="M325.1,385.3c1.3,0,2.6,0,4,0c0,0.1,0,0.2,0,0.3c-1.3,0-2.6,0-3.9,0C325.1,385.5,325.1,385.4,325.1,385.3z"/>
	<path d="M356.2,397c-0.3-0.3-0.6-0.7-1-1c0.4-0.3,0.8-0.6,1.3-0.9c0,0.7,0,1.2,0,1.7C356.4,396.9,356.3,397,356.2,397z"/>
	<path d="M346.3,366.3c-0.7,0.5-1.5,1.1-2.2,1.6c0,0-0.1,0-0.1-0.1c0.6-0.7,1.1-1.4,1.7-2.1C345.9,365.9,346.1,366.1,346.3,366.3z"
		/>
	<path d="M308.1,385.7c-0.4,0-0.9,0.1-1.3,0.1c0-0.2,0-0.6,0-0.6c0.4-0.1,0.8-0.1,1.3-0.2C308,385.2,308.1,385.5,308.1,385.7z"/>
	<path d="M339.6,396.2c-0.1,0.5-0.1,1-0.3,1.4c-0.3,0.9-0.9,1.6-2,1.6s-1.9-0.6-2.1-1.7c-0.2-1-0.2-2,0-2.9c0.2-1,0.9-1.7,2.1-1.6
		c1.1,0,1.6,0.7,2,1.6C339.5,395.2,339.5,395.7,339.6,396.2z"/>
	<path d="M264.6,396.1c0-0.7,0-1.4,0-2c0-0.9,0.4-1.1,1.2-1.1c1.8,0.1,2.8,1.2,2.8,3.1s-1.2,3.2-3,3.2c-0.7,0-1-0.3-1-1
		S264.6,396.9,264.6,396.1L264.6,396.1z"/>
	<path d="M317.2,393.8c0.2,0.8,0.5,1.6,0.6,2.4c0,0.2-0.5,0.6-0.7,0.6c-0.3,0-0.8-0.4-0.8-0.6c0.1-0.8,0.3-1.6,0.5-2.4
		C317,393.8,317.1,393.8,317.2,393.8z"/>
	<path d="M291.5,392.8c0.3,1.3,0.6,2.3,0.8,3.3c0,0.2-0.5,0.8-0.7,0.7c-0.3-0.1-0.9-0.5-0.9-0.7C290.8,395,291.2,394,291.5,392.8z"
		/>
</g>
</svg>
