<?xml version="1.0" encoding="utf-8"?>
<!-- Generator: Adobe Illustrator 22.1.0, SVG Export Plug-In . SVG Version: 6.00 Build 0)  -->
<svg version="1.1" id="Layer_1" xmlns="http://www.w3.org/2000/svg" xmlns:xlink="http://www.w3.org/1999/xlink" x="0px" y="0px"
	 viewBox="0 0 612 792" style="enable-background:new 0 0 612 792;" xml:space="preserve">
<g>
	<path d="M256.2,420.7c0-16.5,0-33,0-49.4c33.6,0,67.2,0,100.8,0c0,16.5,0,33,0,49.4C323.4,420.7,289.8,420.7,256.2,420.7z
		 M261.1,379.5c-1,0.3-2.2,0.5-3.3,1c-0.3,0.2-0.4,1-0.5,1.6c-0.2,1-0.1,1.9,1,2.5c0.5,0.2,0.9,0.5,1.3,0.8
		c3.7,2.7,7.9,4.5,12.1,6.4c2.7,1.2,5.3,2.6,7.3,4.6c2.5,2.6,5.3,4.7,8.1,7c0.4,0.3,1,0.7,1,0.9c-0.3,0.9,0.5,1.2,0.9,1.6
		c1.1,1,2.2,1.9,3.3,2.9c0.3,0.3,0.7,0.4,1,0.6c1.6,1.1,3.2,2.2,4.9,3.2c1.3,0.8,2.6,1.6,4,2.3c1.8,0.8,4,1.2,4,3.8
		c0,0.1,0.1,0.1,0,0c0.8,0.1,1.5,0.3,2.1,0.3c1.2-0.1,2.5-0.1,3.3-1.2c0.6-0.7,1.1-0.9,1.8-0.6c2.6,1,4.7-0.3,6.7-1.4
		c2.1-1.1,2.7-3.2,3.2-5.4c0.1-0.4,0.4-1.1,0.7-1.2c1.7-0.5,2.9-1.6,3.9-2.9c0.5-0.7,1.2-0.7,1.7-0.2c0.8,0.8,1.6,1.6,2.3,2.4
		c-0.4,0.6-0.9,1.3-1.2,2c-0.2,0.6-0.1,1.3-0.2,2c0.7,0,1.5,0.3,2.1,0c2-1,3.7-2.4,5.1-4.2c0.6-0.7,1.3-1.4,2-2.1
		c1,1.5,2,2.1,2.9,1.7s1.1-1.2,1-2.1c-0.2-1-1-1.4-2.9-1.2c0-0.6-0.2-1.2,0-1.7c0.8-1.8,1.7-3.5,2.6-5.2c1.2-2.3,2.5-4.7,3.7-7
		c1-1.8,1.9-3.6,2.9-5.4c0.5-0.9,1.6-1,2.3-0.3c0.7,0.7,1.6,1.1,2.5,0.5c0.8-0.5,1.1-1.4,0.7-2.3c-0.5-1-1.4-1.3-2.5-0.9
		c-0.3,0.1-0.6,0-0.8,0c0-0.3,0-0.6,0-0.9c0.4-1.4,0.9-2.7,1.2-4.1c0.3-1.4,0.7-2.9-0.3-4.3c-0.6-0.9-1.7-1-2.3-0.1
		c-0.4,0.6-0.7,1.2-1,1.9c-1.3-0.5-1.8-0.5-3.1,0.3c-1.7,1.1-3.1,1.1-4.3-0.1c-0.1,0.5-0.3,0.9-0.2,1.2c0.1,0.7-0.5,2.6-1.2,2.9
		c-1.6,0.6-3.1,1.2-4.7,1.7c-2.5,0.7-5,1.4-7.4,2.1c-0.7,0.2-1.5,0.5-1.9-0.5c-0.1-0.2-0.5-0.2-0.7-0.2c-2.2-0.2-4,1-5.9,1.9
		c-1.2,0.5-2.4,1.1-2.6,2.5c-0.2,1.2-0.6,2.1-1.5,2.9c-0.7,0.7-1.2,0.8-2,0.3c-1.4-0.8-2.9-0.8-4.3,0.3c-0.9,0.7-1.8,1.5-2.6,2.2
		c-1.2,1-1.7,2.2-1.1,4c-1,0.2-1.9,0.6-2.7,0.4c-1.6-0.4-3.1-1-4.7-1.6c0-0.9-0.1-1.9,0-2.7c0.4-1.9-0.3-3.4-1.8-4.5
		c-1.6-1.1-3.5-1.8-5.3-0.8c-2.3,1.2-4.4,2.7-4.7,5.7c0,0.2-0.2,0.3-0.3,0.5c-1.8-0.7-3.6-1.3-5.3-2c-2.2-0.8-4.5-1.3-6.4-2.4
		c-2-1.2-4.2-1.9-6.3-2.7c-2.5-0.9-5.4-1.3-6.9-4C261.6,381.4,261.5,380.5,261.1,379.5z"/>
	<path d="M327.5,400.1c0.5-0.8,0.9-1.6,1.3-2.3c0.6-1,0-2.3-1.1-2.3c-1,0-1.7-0.2-1.9-1.1c-0.2-1,0.2-2.1,1.1-2.6
		c1.3-0.7,2.4-1.6,3.8-2.2c2.8-1.2,5.3-3,8-4.4c2-1.1,4-2,6.1-2.9c0.5-0.2,1.3,0.1,2.1,0.2c-0.8,1.4-1.4,2.7-2.1,3.9
		c-0.9,1.7-1.9,3.4-2.9,5.1c-0.6,1-1,2.1-1.6,3.1c-0.5,0.8-1,1.4-2.1,1.6c-2,0.5-3.8,1.4-5.7,2.2c-1.5,0.6-2.9,1.2-4.4,1.8
		C327.9,400.2,327.8,400.2,327.5,400.1z"/>
</g>
</svg>
