<?xml version="1.0" encoding="utf-8"?>
<!-- Generator: Adobe Illustrator 18.0.0, SVG Export Plug-In . SVG Version: 6.00 Build 0)  -->
<!DOCTYPE svg PUBLIC "-//W3C//DTD SVG 1.1//EN" "http://www.w3.org/Graphics/SVG/1.1/DTD/svg11.dtd">
<svg version="1.1" id="Layer_1" xmlns="http://www.w3.org/2000/svg" xmlns:xlink="http://www.w3.org/1999/xlink" x="0px" y="0px"
	 viewBox="0 0 306 265" enable-background="new 0 0 306 265" xml:space="preserve">
<polygon fill="#FFFFFF" stroke="#000000" stroke-miterlimit="10" points="165.8,22.1 153,44.2 127.5,44.2 140.2,22.1 140.2,22.1 
	140.2,22.1 153,0 "/>
<polygon fill="#FFFFFF" stroke="#000000" stroke-miterlimit="10" points="89.2,22.1 76.5,44.2 51,44.2 63.8,22.1 76.5,0 "/>
<polygon fill="#FFFFFF" stroke="#000000" stroke-miterlimit="10" points="204,44.2 191.2,66.2 165.8,22.1 191.2,22.1 "/>
<polygon fill="#FFFFFF" stroke="#000000" stroke-miterlimit="10" points="204,88.3 204,88.3 191.2,110.4 165.8,110.4 178.5,88.3 
	178.5,88.3 191.2,66.2 "/>
<polygon fill="#FFFFFF" stroke="#000000" stroke-miterlimit="10" points="89.2,66.2 38.2,66.2 51,44.2 76.5,44.2 "/>
<polygon fill="#FFFFFF" stroke="#000000" stroke-miterlimit="10" points="229.5,132.5 204,132.5 191.2,110.4 204,88.3 "/>
<polygon fill="#FFFFFF" stroke="#000000" stroke-miterlimit="10" points="204,132.5 153,132.5 165.8,110.4 191.2,110.4 "/>
<polygon fill="#FFFFFF" stroke="#000000" stroke-miterlimit="10" points="153,132.5 127.5,132.5 114.8,110.4 127.5,88.3 "/>
<polygon fill="#FFFFFF" stroke="#000000" stroke-miterlimit="10" points="127.5,132.5 127.5,132.5 114.8,154.6 89.2,154.6 
	76.5,132.5 "/>
<polygon fill="#FFFFFF" stroke="#000000" stroke-miterlimit="10" points="89.2,198.8 38.2,198.8 51,176.7 76.5,176.7 "/>
<polygon fill="#FFFFFF" stroke="#000000" stroke-miterlimit="10" points="89.2,198.8 76.5,220.8 51,220.8 38.2,198.8 "/>
<polygon fill="#FFFFFF" stroke="#000000" stroke-miterlimit="10" points="165.8,242.9 153,265 153,265 153,265 140.2,242.9 
	127.5,220.8 153,220.8 153,220.8 "/>
<polygon fill="#FFFFFF" stroke="#000000" stroke-miterlimit="10" points="191.2,198.8 178.5,220.8 178.5,220.8 178.5,220.8 
	165.8,242.9 153,220.8 153,220.8 165.8,198.8 "/>
<polygon fill="#FFFFFF" stroke="#000000" stroke-miterlimit="10" points="191.2,198.8 165.8,198.8 153,176.7 165.8,154.6 
	178.5,176.7 "/>
<polygon fill="#FFFFFF" stroke="#000000" stroke-miterlimit="10" points="306,132.5 293.2,154.6 280.5,176.7 267.8,154.6 
	267.8,154.6 267.8,154.6 280.5,132.5 "/>
<polygon fill="#FFFFFF" stroke="#000000" stroke-miterlimit="10" points="204,220.8 204,220.8 191.2,242.9 165.8,242.9 178.5,220.8 
	178.5,220.8 178.5,220.8 191.2,198.8 "/>
<polygon fill="#FFFFFF" stroke="#000000" stroke-miterlimit="10" points="127.5,265 76.5,265 89.2,242.9 114.8,242.9 "/>
<polygon fill="#FFFFFF" stroke="#000000" stroke-miterlimit="10" points="204,265 153,265 165.8,242.9 191.2,242.9 "/>
<polygon fill="#FFFFFF" stroke="#000000" stroke-miterlimit="10" points="242.2,22.1 229.5,44.2 204,44.2 216.8,22.1 229.5,0 "/>
<polygon fill="#FFFFFF" stroke="#000000" stroke-miterlimit="10" points="267.8,66.2 242.2,66.2 229.5,44.2 242.2,22.1 "/>
<polygon fill="#FFFFFF" stroke="#000000" stroke-miterlimit="10" points="280.5,88.3 280.5,88.3 267.8,110.4 242.2,110.4 255,88.3 
	255,88.3 267.8,66.2 "/>
<polygon fill="#FFFFFF" stroke="#000000" stroke-miterlimit="10" points="280.5,132.5 229.5,132.5 242.2,110.4 267.8,110.4 "/>
<polygon fill="#FFFFFF" stroke="#000000" stroke-miterlimit="10" points="127.5,0 114.8,22.1 89.2,22.1 76.5,0 "/>
<polygon fill="#FFFFFF" stroke="#000000" stroke-miterlimit="10" points="242.2,198.8 229.5,220.8 204,220.8 191.2,198.8 "/>
<polygon fill="#FFFFFF" stroke="#000000" stroke-miterlimit="10" points="204,176.7 191.2,198.8 178.5,176.7 165.8,154.6 
	191.2,154.6 191.2,154.6 "/>
<polygon fill="#FFFFFF" stroke="#000000" stroke-miterlimit="10" points="114.8,66.2 102,88.3 102,88.3 89.2,110.4 76.5,88.3 
	89.2,66.2 "/>
<polygon fill="#FFFFFF" stroke="#000000" stroke-miterlimit="10" points="51,132.5 38.2,154.6 12.8,154.6 0,132.5 "/>
<polygon fill="#FFFFFF" stroke="#000000" stroke-miterlimit="10" points="51,176.7 51,176.7 38.2,198.8 25.5,176.7 12.8,154.6 
	38.2,154.6 "/>
<polygon fill="#FFFFFF" stroke="#000000" stroke-miterlimit="10" points="89.2,242.9 76.5,265 51,220.8 51,220.8 76.5,220.8 "/>
<polygon fill="#FFFFFF" stroke="#000000" stroke-miterlimit="10" points="242.2,154.6 242.2,154.6 229.5,176.7 204,176.7 
	216.8,154.6 216.8,154.6 216.8,154.6 229.5,132.5 242.2,154.6 "/>
<polygon fill="#FFFFFF" stroke="#000000" stroke-miterlimit="10" points="242.2,242.9 229.5,265 204,220.8 204,220.8 229.5,220.8 
	229.5,220.8 "/>
<polygon fill="#FFFFFF" stroke="#000000" stroke-miterlimit="10" points="267.8,198.8 255,220.8 255,220.8 242.2,242.9 229.5,220.8 
	229.5,220.8 229.5,220.8 242.2,198.8 "/>
<polygon fill="#FFFFFF" stroke="#000000" stroke-miterlimit="10" points="280.5,176.7 267.8,198.8 242.2,154.6 242.2,154.6 
	267.8,154.6 267.8,154.6 "/>
<polygon fill="#FFFFFF" stroke="#000000" stroke-miterlimit="10" points="51,88.3 51,88.3 38.2,110.4 12.8,110.4 25.5,88.3 
	25.5,88.3 38.2,66.2 51,88.3 "/>
<polygon fill="#FFFFFF" stroke="#000000" stroke-miterlimit="10" points="165.8,66.2 114.8,66.2 127.5,44.2 153,44.2 "/>
<polygon fill="#FFFFFF" stroke="#000000" stroke-miterlimit="10" points="127.5,132.5 76.5,132.5 89.2,110.4 114.8,110.4 "/>
<polygon fill="#FFFFFF" stroke="#000000" stroke-miterlimit="10" points="127.5,176.7 114.8,198.8 89.2,154.6 89.2,154.6 
	114.8,154.6 "/>
<polygon fill="#FFFFFF" stroke="#000000" stroke-miterlimit="10" points="114.8,198.8 102,220.8 102,220.8 89.2,242.9 76.5,220.8 
	89.2,198.8 "/>
<polygon fill="#FFFFFF" stroke="#000000" stroke-miterlimit="10" points="191.2,66.2 178.5,88.3 178.5,88.3 165.8,110.4 153,88.3 
	153,88.3 165.8,66.2 "/>
<polygon fill="#FFFFFF" stroke="#000000" stroke-miterlimit="10" points="306,132.5 280.5,132.5 267.8,110.4 280.5,88.3 "/>
<polygon fill="#FFFFFF" stroke="#000000" stroke-miterlimit="10" points="280.5,132.5 267.8,154.6 242.2,154.6 229.5,132.5 "/>
<polygon fill="#FFFFFF" stroke="#000000" stroke-miterlimit="10" points="229.5,265 204,265 191.2,242.9 204,220.8 "/>
<polygon fill="#FFFFFF" stroke="#000000" stroke-miterlimit="10" points="242.2,66.2 191.2,66.2 204,44.2 229.5,44.2 "/>
<polygon fill="#FFFFFF" stroke="#000000" stroke-miterlimit="10" points="204,132.5 191.2,154.6 165.8,154.6 153,132.5 "/>
<polygon fill="#FFFFFF" stroke="#000000" stroke-miterlimit="10" points="165.8,198.8 114.8,198.8 127.5,176.7 153,176.7 "/>
<polygon fill="#FFFFFF" stroke="#000000" stroke-miterlimit="10" points="127.5,44.2 114.8,66.2 89.2,22.1 114.8,22.1 "/>
<polygon fill="#FFFFFF" stroke="#000000" stroke-miterlimit="10" points="76.5,132.5 63.8,154.6 51,176.7 38.2,154.6 51,132.5 "/>
<polygon fill="#FFFFFF" stroke="#000000" stroke-miterlimit="10" points="76.5,132.5 51,132.5 38.2,110.4 51,88.3 "/>
<polygon fill="#FFFFFF" stroke="#000000" stroke-miterlimit="10" points="229.5,0 216.8,22.1 204,44.2 191.2,22.1 204,0 204,0 "/>
<polygon fill="#FFFFFF" stroke="#000000" stroke-miterlimit="10" points="267.8,66.2 255,88.3 255,88.3 242.2,110.4 229.5,88.3 
	242.2,66.2 "/>
<polygon fill="#FFFFFF" stroke="#000000" stroke-miterlimit="10" points="204,0 204,0 191.2,22.1 165.8,22.1 153,0 "/>
<polygon fill="#FFFFFF" stroke="#000000" stroke-miterlimit="10" points="191.2,66.2 165.8,66.2 153,44.2 165.8,22.1 "/>
<polygon fill="#FFFFFF" stroke="#000000" stroke-miterlimit="10" points="242.2,66.2 229.5,88.3 204,88.3 191.2,66.2 "/>
<polygon fill="#FFFFFF" stroke="#000000" stroke-miterlimit="10" points="242.2,110.4 229.5,132.5 204,88.3 204,88.3 229.5,88.3 "/>
<polygon fill="#FFFFFF" stroke="#000000" stroke-miterlimit="10" points="267.8,198.8 242.2,198.8 229.5,176.7 242.2,154.6 "/>
<polygon fill="#FFFFFF" stroke="#000000" stroke-miterlimit="10" points="153,0 140.2,22.1 140.2,22.1 140.2,22.1 127.5,44.2 
	114.8,22.1 127.5,0 "/>
<polygon fill="#FFFFFF" stroke="#000000" stroke-miterlimit="10" points="165.8,66.2 153,88.3 127.5,88.3 114.8,66.2 "/>
<polygon fill="#FFFFFF" stroke="#000000" stroke-miterlimit="10" points="229.5,132.5 216.8,154.6 216.8,154.6 216.8,154.6 
	204,176.7 191.2,154.6 191.2,154.6 204,132.5 "/>
<polygon fill="#FFFFFF" stroke="#000000" stroke-miterlimit="10" points="114.8,66.2 89.2,66.2 76.5,44.2 89.2,22.1 "/>
<polygon fill="#FFFFFF" stroke="#000000" stroke-miterlimit="10" points="127.5,88.3 127.5,88.3 114.8,110.4 89.2,110.4 102,88.3 
	102,88.3 114.8,66.2 "/>
<polygon fill="#FFFFFF" stroke="#000000" stroke-miterlimit="10" points="89.2,66.2 76.5,88.3 51,88.3 38.2,66.2 "/>
<polygon fill="#FFFFFF" stroke="#000000" stroke-miterlimit="10" points="153,132.5 140.2,154.6 140.2,154.6 127.5,176.7 
	114.8,154.6 127.5,132.5 127.5,132.5 "/>
<polygon fill="#FFFFFF" stroke="#000000" stroke-miterlimit="10" points="89.2,154.6 89.2,154.6 76.5,176.7 51,176.7 51,176.7 
	63.8,154.6 76.5,132.5 89.2,154.6 "/>
<polygon fill="#FFFFFF" stroke="#000000" stroke-miterlimit="10" points="114.8,198.8 89.2,198.8 76.5,176.7 89.2,154.6 "/>
<polygon fill="#FFFFFF" stroke="#000000" stroke-miterlimit="10" points="51,132.5 0,132.5 12.8,110.4 38.2,110.4 "/>
<polygon fill="#FFFFFF" stroke="#000000" stroke-miterlimit="10" points="89.2,110.4 76.5,132.5 51,88.3 51,88.3 76.5,88.3 "/>
<polygon fill="#FFFFFF" stroke="#000000" stroke-miterlimit="10" points="165.8,110.4 153,132.5 127.5,88.3 127.5,88.3 153,88.3 
	153,88.3 "/>
<polygon fill="#FFFFFF" stroke="#000000" stroke-miterlimit="10" points="242.2,198.8 191.2,198.8 204,176.7 229.5,176.7 "/>
<polygon fill="#FFFFFF" stroke="#000000" stroke-miterlimit="10" points="165.8,154.6 153,176.7 127.5,176.7 140.2,154.6 
	140.2,154.6 153,132.5 "/>
<polygon fill="#FFFFFF" stroke="#000000" stroke-miterlimit="10" points="165.8,198.8 153,220.8 127.5,220.8 114.8,198.8 "/>
<polygon fill="#FFFFFF" stroke="#000000" stroke-miterlimit="10" points="127.5,220.8 114.8,242.9 89.2,242.9 102,220.8 102,220.8 
	114.8,198.8 "/>
<polygon fill="#FFFFFF" stroke="#000000" stroke-miterlimit="10" points="153,265 153,265 127.5,265 114.8,242.9 127.5,220.8 
	140.2,242.9 "/>
</svg>
