<?xml version="1.0" encoding="UTF-8" standalone="no"?>
<!-- Created with Inkscape (http://www.inkscape.org/) -->

<svg
   xmlns:dc="http://purl.org/dc/elements/1.1/"
   xmlns:cc="http://creativecommons.org/ns#"
   xmlns:rdf="http://www.w3.org/1999/02/22-rdf-syntax-ns#"
   xmlns:svg="http://www.w3.org/2000/svg"
   xmlns="http://www.w3.org/2000/svg"
   xmlns:sodipodi="http://sodipodi.sourceforge.net/DTD/sodipodi-0.dtd"
   xmlns:inkscape="http://www.inkscape.org/namespaces/inkscape"
   id="svg2"
   version="1.1"
   inkscape:version="0.48+devel r10524 custom"
   width="100"
   height="100.00001"
   sodipodi:docname="200px-AnarchySymbolInk.svg.svg">
  <metadata
     id="metadata8">
    <rdf:RDF>
      <cc:Work
         rdf:about="">
        <dc:format>image/svg+xml</dc:format>
        <dc:type
           rdf:resource="http://purl.org/dc/dcmitype/StillImage" />
        <dc:title></dc:title>
      </cc:Work>
    </rdf:RDF>
  </metadata>
  <defs
     id="defs6" />
  <sodipodi:namedview
     pagecolor="#ffffff"
     bordercolor="#666666"
     borderopacity="1"
     objecttolerance="10"
     gridtolerance="10"
     guidetolerance="10"
     inkscape:pageopacity="0"
     inkscape:pageshadow="2"
     inkscape:window-width="1362"
     inkscape:window-height="921"
     id="namedview4"
     showgrid="false"
     inkscape:zoom="3.2246802"
     inkscape:cx="31.040251"
     inkscape:cy="53.500012"
     inkscape:window-x="374"
     inkscape:window-y="144"
     inkscape:window-maximized="0"
     inkscape:current-layer="svg2"
     inkscape:showpageshadow="false"
     showborder="true"
     fit-margin-top="0"
     fit-margin-left="0"
     fit-margin-right="0"
     fit-margin-bottom="0" />
  <path
     style="fill:#808080;fill-opacity:1;stroke-width:0;stroke-miterlimit:4;stroke-dasharray:none"
     d="m 53.837061,5e-6 c -0.38771,0 -1.39376,0.262706 -2.23125,0.592105 -0.83748,0.3294 -2.070873,0.579295 -2.738333,0.542763 L 47.65044,1.069083 46.331982,3.02632 C 45.60082,4.108449 44.469455,6.342041 43.830291,7.976977 l -1.149425,2.960526 -2.45098,0.674342 -2.45098,0.674342 -2.772144,1.809211 c -1.523376,1.002512 -3.380663,2.377186 -4.124408,3.042762 l -1.352265,1.200658 -1.538202,0.378289 -1.521298,0.361842 -0.321163,0.822369 c -0.177277,0.449517 -1.819736,2.256504 -3.651115,4.013157 l -3.329952,3.190789 -1.994592,3.470394 c -1.091048,1.909397 -1.977688,3.825973 -1.977688,4.259868 l 0,0.789474 -1.048005,0.921053 c -0.575698,0.506946 -1.554029,1.992608 -2.180529,3.289472 l -1.149425,2.351974 0.35497,3.026315 0.35497,3.026316 -1.115619,2.138154 -1.115619,2.12171 0.15213,2.91119 0.169033,2.89474 -2.214334,0.64144 c -1.218379,0.34982 -3.015097,1.09867 -3.989182,1.67764 l -1.774848,1.05263 -0.811359,1.5625 L 0,64.786184 l 0.338066,1.05263 c 0.187321,0.57427 0.85964,1.50321 1.487492,2.07237 l 1.132522,1.03618 3.313049,0 3.296146,0 1.149425,2.28619 1.132522,2.28619 3.566601,3.96381 3.566599,3.9638 0,1.13488 0,1.15132 -0.929682,1.69407 -0.946586,1.67764 -0.608519,3.68421 -0.625422,3.68421 0.828262,0.92105 0.828262,0.92105 2.856659,0 2.85666,0 1.453685,-1.20065 1.436782,-1.21711 1.166329,-2.33553 1.149425,-2.35197 2.163624,0.14802 c 1.189993,0.0789 5.850828,0.19728 10.36173,0.26316 l 8.198107,0.11513 1.605813,-1.15131 1.60582,-1.15132 1.09872,0.27961 1.09871,0.2796 1.75794,-1.62829 1.74104,-1.62829 0.70994,0 c 0.38457,0 0.84724,0.23685 1.0311,0.52632 l 0.33807,0.52631 1.09871,0 1.11563,0 1.60581,-1.31578 1.60582,-1.31579 0.92968,0 c 0.51531,0 1.4171,-0.34802 1.99459,-0.77303 0.57748,-0.425 1.21858,-0.78027 1.41987,-0.78947 0.2013,-0.009 1.15687,1.34539 2.12983,3.00987 0.97294,1.66447 2.44537,3.95327 3.27923,5.08223 l 1.52131,2.05592 0,0.92105 0,0.93751 1.35225,1.5625 1.35227,1.56249 0,1.0033 0,1.00329 0.64233,0.64144 0.65923,0.625 1.09871,0 c 0.60988,0.003 2.69777,-0.51014 4.63152,-1.15131 1.93373,-0.64118 3.61879,-1.23729 3.73562,-1.31579 0.11684,-0.0785 -0.35421,-1.62136 -1.03109,-3.4375 -0.6769,-1.81614 -3.01442,-6.80297 -5.20622,-11.06908 -2.19182,-4.26612 -3.98919,-8.0716 -3.98919,-8.47039 0,-0.39879 0.44515,-1.29978 0.99729,-1.99014 0.55215,-0.69035 2.59748,-4.0921 4.54699,-7.56578 1.94951,-3.47369 3.93541,-6.72731 4.41177,-7.23685 l 0.87898,-0.9375 2.14671,0.3454 2.14672,0.32895 1.63963,-0.6579 1.63962,-0.65789 0.28736,-1.38158 c 0.15743,-0.75941 0.49221,-2.13632 0.74374,-3.05921 L 100,50.065784 l -0.828259,-1.151312 -0.82827,-1.151316 -2.63691,0.3125 c -1.44511,0.166532 -2.62002,0.206927 -2.62002,0.09868 0,-0.108242 0.50232,-2.257048 1.11563,-4.769737 l 1.11561,-4.555919 -0.59161,-4.819079 -0.60852,-4.819079 -1.41988,-4.194077 -1.41988,-4.194079 -2.18053,-2.286184 -2.18053,-2.302631 -1.48749,-0.740132 -1.48749,-0.756579 -1.572,0 -1.57201,0 -3.58351,-1.578947 -3.60041,-1.578947 -5.81473,-1.546053 C 64.599001,9.187505 60.801871,8.344987 59.364441,8.157894 L 56.761331,7.812499 55.916161,5.888157 C 55.457441,4.823917 54.968571,3.05921 54.817451,1.973684 L 54.546991,0 53.837061,0 z m 7.96145,20.509866 3.60041,0.608553 c 1.98562,0.327614 4.40291,0.92471 5.35835,1.332236 l 1.74104,0.740131 1.33536,-0.328946 1.35227,-0.328948 2.0453,0.641447 2.0622,0.625 2.78905,2.631579 2.78905,2.631578 0.98039,2.976974 0.98039,2.960526 -0.0169,4.210525 -0.0169,4.210526 -1.31846,2.828947 -1.33536,2.845397 -8.23192,0.08224 -8.24881,0.09868 -0.33807,-1.08553 c -0.18917,-0.595721 -1.39489,-3.217105 -2.68762,-5.822368 l -2.34957,-4.736841 -2.18053,-6.743421 c -1.19749,-3.704799 -2.18052,-7.042602 -2.18052,-7.434209 l 0,-0.723685 1.92698,-1.101973 1.94388,-1.118421 z m -23.32657,7.74671 0.30426,0.296052 0.287356,0.296053 -1.098715,2.105263 c -0.608487,1.160559 -1.676623,3.609481 -2.383367,5.444078 -0.706745,1.834598 -2.074223,5.944078 -3.025693,9.128288 -0.951471,3.184211 -1.973894,6.416879 -2.281947,7.187499 l -0.55781,1.39803 -3.617309,0.60855 c -1.982848,0.33184 -4.176522,0.73585 -4.885057,0.90461 l -1.284652,0.31249 0.371873,-3.61842 c 0.211173,-1.99489 0.659304,-4.700654 0.980393,-6.003285 l 0.574712,-2.368421 1.538201,-2.203947 1.538202,-2.203948 0,-1.266447 0,-1.266446 1.605814,-2.171053 c 0.88316,-1.18628 2.08595,-2.392848 2.670724,-2.697368 0.584774,-0.30452 1.673637,-0.55921 2.417173,-0.55921 l 1.352266,0 2.738336,-1.661184 2.75524,-1.661184 z m 11.17309,10.641446 0.54091,0.674342 c 0.30304,0.375721 1.52635,2.348683 2.72143,4.374999 1.19508,2.026316 2.3418,4.190378 2.5355,4.802632 l 0.35497,1.101975 -3.12712,0.575659 c -1.71792,0.31359 -4.526704,0.72802 -6.237319,0.92105 l -3.11021,0.3454 0.0169,-0.70724 c 0.007,-0.39519 1.43122,-3.288755 3.160919,-6.414476 l 3.144016,-5.674341 z m 23.25896,18.947367 3.65112,0.14803 3.63421,0.16447 -1.58891,2.13816 c -0.87633,1.17508 -1.97178,2.83297 -2.43408,3.68421 l -0.84517,1.54605 -1.60581,-3.42105 -1.58892,-3.42106 0.38878,-0.42762 0.38878,-0.41119 z m -15.53414,1.44737 1.41987,0.625 1.40298,0.64145 0.30426,1.10197 c 0.16418,0.6109 1.36237,3.25607 2.67072,5.87171 l 2.38337,4.75329 0.11832,1.875 0.10142,1.89145 -2.43407,1.15131 -2.43408,1.15132 -3.61731,0.82237 -3.63421,0.82236 -3.12712,-0.0658 c -1.72626,-0.0394 -3.752533,-0.16705 -4.496279,-0.2796 -0.743746,-0.11256 -2.385866,-0.43708 -3.651116,-0.72368 -1.265249,-0.28662 -3.638475,-1.01649 -5.273833,-1.61185 l -2.974983,-1.08552 0,-0.87171 c 0.0015,-0.48579 0.743835,-2.90132 1.639621,-5.36185 0.895787,-2.46052 1.890859,-5.12113 2.214334,-5.9046 l 0.591616,-1.41447 1.690332,-0.50987 c 0.936131,-0.27976 5.165159,-1.04359 9.398241,-1.69408 l 7.707917,-1.18421 z m -30.966875,4.12829 c 0.09614,-0.005 0.15213,0.006 0.15213,0.0329 0,0.10782 -0.411432,1.03294 -0.912779,2.05592 -0.501348,1.02298 -1.046203,1.85856 -1.217038,1.85856 -0.170836,0 -0.611332,-0.47762 -0.980393,-1.05263 -0.369061,-0.57502 -0.676132,-1.23543 -0.676132,-1.48027 l 0,-0.44408 1.89317,-0.57566 c 0.780934,-0.23321 1.452629,-0.3789 1.741042,-0.39474 z"
     id="path2365"
     inkscape:connector-curvature="0" />
</svg>
