<?xml version="1.0" encoding="utf-8"?>
<!-- Generator: Adobe Illustrator 22.1.0, SVG Export Plug-In . SVG Version: 6.00 Build 0)  -->
<svg version="1.1" id="Layer_1" xmlns="http://www.w3.org/2000/svg" xmlns:xlink="http://www.w3.org/1999/xlink" x="0px" y="0px"
	 viewBox="0 0 100.8 169.9" style="enable-background:new 0 0 100.8 169.9;" xml:space="preserve">
<style type="text/css">
	.st0{fill:#FFFFFF;}
</style>
<g>
	<path d="M0,169.9C0,113.3,0,56.7,0,0c33.6,0,67.1,0,100.8,0c0,56.6,0,113.3,0,169.9C67.2,169.9,33.6,169.9,0,169.9z M38.2,19.7
		c0,0.1-0.1,0.3-0.1,0.4c-1.3-0.2-2.6-0.5-3.9-0.6c-1.7-0.2-2.8-1.5-2.6-3.2c0.1-0.6-0.1-1.2-0.2-1.7c-0.1-0.7-0.4-1.5-0.5-2.2
		c-0.1-2.1-1.3-3.6-2.8-4.9c-0.6-0.5-1.2-1-1.6-1.5c-0.8-1.1-1.8-1.6-3.2-1.3c-0.9,0.2-2,0.3-2.7-0.1c-1.5-0.9-2.8-0.8-4.2-0.2
		c-0.7,0.3-1.3,1-2,1.3c-3,1.6-5.1,4.2-6.7,7.1c-0.3,0.6-0.4,1.4-0.5,2.2c-0.1,0.8,0,1.7,0.1,2.5c0.1,0.6,0.5,1.2,0.7,1.8
		c0.3,0.7,0.6,1.4,0.8,2.1c0.3,1,0.5,2,0.7,3.1c0.1,0.7,0.1,1.4-0.2,2c-0.7,1.7-0.6,2.2,1.2,2.6c1.4,0.4,1.7,1.2,1,2.5
		c-0.2,0.5-0.3,1.2-0.1,1.6c0.2,0.6,0.8,1.1,1.2,1.6c0.4,0.7,0.7,1.5,1.1,2.2s0.6,1.5,1.1,2.1c0.7,0.9,1.9,1.6,2.3,2.5
		c0.7,1.9,2.2,2.7,3.7,3.8c1.3,0.9,2.7,2,2.9,3.8c0.2,1.5,1.8,2.6,1.4,4.3c0,0.1,0.2,0.3,0.3,0.4c1.3,1,1.2,2.1,0.5,3.4
		c-0.4,0.7-0.7,1.5,0.1,2.2c0.9,0.9,0.7,1.6,0,2.5c-0.8,1.1-1.4,2.4-1,3.9c0.2,0.6,0.3,1.4,0.2,2c-0.2,1.5,0,2.1,1.4,2.8
		c1.2,0.6,2.5,1.2,3.8,1.8c1.4,0.6,2.9-0.3,3.2-1.7c0.3-1.4,0.6-2.7,1.8-3.7c0.3-0.2,0.4-1.1,0.2-1.4c-1.1-1.3-0.8-2.9-0.9-4.3
		c-0.1-1.1,0.5-2,1.5-2.4s1.2,0.7,1.6,1.2c0.1,0.1,0.1,0.2,0.2,0.3c1.1,1.1,1.9,2.3,2.4,3.9c0.6,1.9,0.6,2.5-1,3.7
		c-1.2,0.9-2.3,1.9-2.2,3.7c0,0.5-0.6,1.1-0.9,1.7c-0.2,0.5-0.5,1.1-0.5,1.7c0.1,1.2,0.1,2.2-1.1,2.9c-0.3,0.2-0.5,0.9-0.4,1.2
		c0.5,0.9,0.1,1.5-0.5,2.3c-0.5,0.6-0.9,1.4-0.9,2.1c0,1.1-0.2,1.7-1.2,2.2c-0.4,0.2-0.7,0.7-0.9,1.1c-1.1,1.7-2,3.5-3.3,5.1
		c-0.8,1-1.1,2.1-1.1,3.3c0,0.8-0.3,1.6-0.4,2.5c-0.1,0.6-0.2,1.5,0.2,1.9c0.8,1.1,0.8,2.2,0.6,3.5c-0.5,3.2-0.1,6.3,2.7,8.5
		c0.8,0.6,1,1.6,0.6,2.6c-0.2,0.5-0.2,1.2-0.1,1.7c0.1,1.1,0.3,2.3,0.4,3.4s0,2.1,0.1,3.2c0.2,2,0,3.8-1.8,5.1
		c-0.9,0.7-0.8,1.9-0.2,2.9c0.3,0.6,0.6,1.4,0.4,2c-0.6,2.2-1.2,4.4-0.9,6.7c0.1,0.5-0.3,1.2-0.7,1.5c-0.8,0.7-1,1.5-0.9,2.4
		c0.2,1.6-0.7,3.1-2,3.9c-1,0.6-2,1.3-2.9,2.1c-1.5,1.4-1.4,2.3-0.2,4c0.2,0.3,0.4,0.8,0.3,1.2c-0.4,1.2-0.9,2.3-1.3,3.5
		c-0.3,1,0.4,2.6,1.3,3.3c1.1,0.9,1.9,0.4,2.7-0.4c1-0.9,2-1.5,3.4-0.8c0.6,0.3,1.3,0.2,2,0.2c1.3-0.1,2.3,0.2,3.1,1.4
		c1.4,2,2.3,2.2,4.2,1c0.1-0.1,0.3-0.2,0.4-0.2c1.1-0.4,1.6-1.2,1.5-2.4c-0.1-1.1,0.3-1.8,1.6-1.8c1,0,1.3-0.7,1-1.6
		c-0.1-0.4-0.3-0.7-0.5-1.1c-0.8-1.4-0.8-2.7-0.4-4.3c0.6-2.3,0.9-4.7,1.3-7c0.1-0.9,0.5-1.3,1.4-1.3c1.5-0.1,1.9-0.4,1.8-2
		c-0.1-1.8-0.3-3.5-0.4-5.3c0-0.5-0.1-1.2,0.2-1.6c1.4-1.9-0.1-3.8,0.3-5.7c-1.4-1.5-1.1-3-0.2-4.6c0.1-0.1,0-0.2,0.1-0.4
		c0.3-2.2,1.7-3.1,3.8-2.2c0.5,0.2,1.1,0.3,1.6,0.5c0.4,0.1,0.8,0.2,1.1,0.5c1.7,1.6,3.6,2.5,6,2.6c1.4,0,1.7,0.5,1.9,1.9
		c0.3,1.8,0.6,3.6,1.2,5.3c0.5,1.6,1.1,1.7,2.6,0.7c0.9-0.6,2.1-0.4,2.4,0.6c0.6,2.3,0.7,4.6-0.5,6.8c-0.3,0.5-0.5,1.2-0.5,1.8
		c0,1.2-0.3,2.2-1,3.1c-0.3,0.4-0.4,1.2-0.2,1.5c0.7,0.9,1.5,1.8,2.4,2.3c1,0.5,1.4,1,1.1,2.1c-0.3,1.4,0.3,2.2,1.6,2.7
		c0.6,0.2,1.1,0.4,1.7,0.5c0.4,0.1,0.9,0,1.2-0.2c0.8-0.6,1.7-1.2,1.7-2.5c0-0.5,0.4-1.1,0.8-1.6c0.8-1,1.7-1.9,2.4-3
		c0.6-0.9,0.9-2,1.4-3c0.1-0.3,0.2-0.7,0.4-1c0.8-1,1.5-1.9,2.4-2.8c1.7-1.8,3.3-3.5,5.1-5.2c0.9-0.8,1.9-1.6,3-1.9
		c1.5-0.5,1.7-1.9,2.6-2.8c0.1-0.1-0.1-0.6-0.2-0.8c-0.4-0.7-0.8-1.3-1.2-2c-0.5-0.9-1.3-2-2.3-1.5c-2.1,0.9-3.3,0-4.5-1.5
		c-0.3-0.4-0.9-0.7-1.3-1.1c-0.3-0.3-0.7-0.6-0.9-1c-0.4-1.2-1.3-1.3-2.4-1.2c-0.6,0-1.3-0.1-1.8-0.4c-0.8-0.4-1.5-0.9-2.2-1.4
		c-0.6-0.4-1.4-0.7-1.9-1.2c-1.7-1.7-3.8-2.9-6-3.8c-1.6-0.7-3.1-1.4-4.3-2.7c-0.6-0.7-1.5-1.2-2.4-1.6c-1.8-0.7-3.1-1.8-4.5-3
		c-0.8-0.7-1.8-1.1-2.8-1.4c-0.9-0.3-2-0.2-2.9-0.4c-0.4-0.1-0.7-0.6-1.1-0.9c0.4-0.3,0.7-0.6,1.2-0.8c1.6-0.6,3.6-0.8,4.9-1.8
		c2.3-1.7,4.5-3.6,5.8-6.2c0.2-0.4,0.7-0.7,1.1-0.7c2.6-0.5,4.6-1.8,6.3-3.7c0.3-0.4,0.8-0.7,1.2-0.9c1.4-0.5,1.8-1.5,2-2.9
		c0.1-0.6,0.3-1.2,0.5-1.8c0.6-1.6,1.2-3.1,0.5-4.9c-0.3-0.6-0.3-1.8,0.1-2.2c1.6-1.4,2.1-3.3,2.7-5.1c0.6-1.7,0.5-1.7,2.3-1.5
		c1.2,0.1,2.3-0.9,1.9-2c-0.5-1.1-0.5-2.3-0.7-3.4c-0.6-2.6-0.8-5.1,0.1-7.7c0.5-1.5,0.9-3,1.3-4.5c0.2-0.7,0.2-1.4,0.3-2.2
		c0-0.5-0.3-1.1-0.2-1.6c0.2-2.1-1.1-3.2-2.7-4.1c-0.7-0.4-0.9-0.8-0.3-1.5c0.9-1,1.7-2,2.5-3s0.3-2.5-0.8-3
		c-1.3-0.6-2.5-1.1-3.7-1.8c-0.8-0.5-1.6-1.1-2.2-1.8c-1.8-1.9-3.6-3.6-6.2-4.3c-2.7-0.7-4.8-1.9-6.1-4.5c-0.2-0.5-1.1-0.9-1.7-1.1
		c-1.5-0.5-3.1-1-4.7-1.4c-0.6-0.2-1.2-0.4-1.7-0.4c-1.6,0-2.8-0.8-4.2-1.3c-1.3-0.5-2.8-0.6-4.2-0.9c-0.6-0.1-1.2-0.2-1.8-0.4
		C40.7,20.7,39.4,20.2,38.2,19.7z M5.9,137c-0.3,0-0.6,0-0.9,0c-0.1,0.3-0.3,0.6-0.2,0.9c0,0.2,0.4,0.5,0.7,0.5
		c0.2,0,0.6-0.3,0.7-0.5C6.2,137.7,6,137.3,5.9,137z"/>
	<path class="st0" d="M38.2,19.7c1.3,0.5,2.5,1,3.8,1.4c0.6,0.2,1.2,0.3,1.8,0.4c1.4,0.3,2.8,0.4,4.2,0.9c1.4,0.5,2.6,1.3,4.2,1.3
		c0.6,0,1.2,0.2,1.7,0.4c1.6,0.5,3.1,0.9,4.7,1.4c0.6,0.2,1.5,0.6,1.7,1.1c1.2,2.6,3.4,3.8,6.1,4.5c2.5,0.7,4.4,2.4,6.2,4.3
		c0.7,0.7,1.4,1.3,2.2,1.8c1.2,0.7,2.5,1.3,3.7,1.8c1.1,0.5,1.5,2,0.8,3c-0.8,1-1.7,2-2.5,3c-0.6,0.7-0.4,1.1,0.3,1.5
		c1.6,0.9,2.9,2,2.7,4.1c-0.1,0.5,0.2,1.1,0.2,1.6c0,0.7-0.1,1.5-0.3,2.2c-0.4,1.5-0.8,3-1.3,4.5c-0.9,2.6-0.7,5.1-0.1,7.7
		c0.3,1.1,0.2,2.3,0.7,3.4c0.5,1-0.7,2.1-1.9,2c-1.8-0.2-1.8-0.2-2.3,1.5c-0.6,1.8-1,3.7-2.7,5.1c-0.4,0.3-0.4,1.5-0.1,2.2
		c0.7,1.8,0.1,3.3-0.5,4.9c-0.2,0.6-0.5,1.2-0.5,1.8c-0.2,1.3-0.6,2.4-2,2.9c-0.5,0.2-0.9,0.5-1.2,0.9c-1.7,1.9-3.7,3.2-6.3,3.7
		c-0.4,0.1-1,0.4-1.1,0.7c-1.4,2.6-3.6,4.5-5.8,6.2c-1.3,1-3.2,1.2-4.9,1.8c-0.4,0.2-0.8,0.5-1.2,0.8c0.4,0.3,0.7,0.8,1.1,0.9
		c1,0.2,2,0.1,2.9,0.4c1,0.3,2,0.7,2.8,1.4c1.4,1.2,2.7,2.4,4.5,3c0.9,0.3,1.7,0.9,2.4,1.6c1.2,1.3,2.7,2,4.3,2.7
		c2.2,0.9,4.3,2.1,6,3.8c0.5,0.5,1.3,0.8,1.9,1.2c0.7,0.5,1.4,1,2.2,1.4c0.5,0.3,1.2,0.4,1.8,0.4c1.1,0,2,0,2.4,1.2
		c0.1,0.4,0.6,0.7,0.9,1c0.4,0.4,1,0.6,1.3,1.1c1.2,1.5,2.4,2.4,4.5,1.5c1-0.5,1.8,0.6,2.3,1.5c0.4,0.7,0.8,1.3,1.2,2
		c0.1,0.3,0.3,0.7,0.2,0.8c-0.9,0.9-1.2,2.3-2.6,2.8c-1.1,0.4-2.1,1.1-3,1.9c-1.8,1.7-3.4,3.4-5.1,5.2c-0.8,0.9-1.6,1.9-2.4,2.8
		c-0.2,0.3-0.3,0.6-0.4,1c-0.4,1-0.8,2.1-1.4,3c-0.7,1.1-1.6,2-2.4,3c-0.3,0.5-0.7,1.1-0.8,1.6c0,1.2-0.9,1.8-1.7,2.5
		c-0.3,0.2-0.8,0.2-1.2,0.2c-0.6-0.1-1.1-0.3-1.7-0.5c-1.3-0.5-1.9-1.3-1.6-2.7c0.2-1.1-0.2-1.6-1.1-2.1s-1.7-1.4-2.4-2.3
		c-0.2-0.3-0.1-1.1,0.2-1.5c0.7-0.9,1-2,1-3.1c0-0.6,0.2-1.2,0.5-1.8c1.2-2.2,1.1-4.5,0.5-6.8c-0.3-1-1.5-1.2-2.4-0.6
		c-1.4,1-2,0.9-2.6-0.7c-0.6-1.7-0.9-3.6-1.2-5.3c-0.2-1.4-0.5-1.9-1.9-1.9c-2.4-0.1-4.3-1-6-2.6c-0.3-0.3-0.7-0.4-1.1-0.5
		c-0.5-0.2-1.1-0.2-1.6-0.5c-2-0.8-3.5,0-3.8,2.2c0,0.1,0,0.3-0.1,0.4c-0.9,1.6-1.2,3.1,0.2,4.6c-0.5,1.9,1.1,3.8-0.3,5.7
		c-0.3,0.4-0.2,1.1-0.2,1.6c0.1,1.8,0.3,3.5,0.4,5.3c0.1,1.5-0.3,1.9-1.8,2c-0.9,0-1.2,0.4-1.4,1.3c-0.4,2.4-0.7,4.7-1.3,7
		c-0.4,1.5-0.4,2.9,0.4,4.3c0.2,0.3,0.4,0.7,0.5,1.1c0.3,0.9,0,1.6-1,1.6c-1.3,0-1.7,0.7-1.6,1.8c0.1,1.2-0.4,2-1.5,2.4
		c-0.1,0.1-0.3,0.1-0.4,0.2c-2,1.2-2.9,1.1-4.2-1c-0.8-1.2-1.8-1.5-3.1-1.4c-0.7,0-1.4,0.1-2-0.2c-1.4-0.7-2.5-0.2-3.4,0.8
		c-0.8,0.8-1.6,1.3-2.7,0.4c-0.8-0.7-1.6-2.3-1.3-3.3c0.4-1.2,0.9-2.3,1.3-3.5c0.1-0.3-0.1-0.9-0.3-1.2c-1.2-1.7-1.2-2.6,0.2-4
		c0.9-0.8,1.8-1.5,2.9-2.1c1.3-0.8,2.2-2.4,2-3.9c-0.1-1,0-1.8,0.9-2.4c0.4-0.3,0.8-1,0.7-1.5c-0.3-2.3,0.3-4.5,0.9-6.7
		c0.2-0.6-0.1-1.4-0.4-2c-0.6-1.1-0.7-2.3,0.2-2.9c1.8-1.3,2-3.1,1.8-5.1c-0.1-1,0-2.1-0.1-3.2c-0.1-1.2-0.3-2.3-0.4-3.4
		c-0.1-0.6-0.1-1.2,0.1-1.7c0.4-1.1,0.2-2-0.6-2.6c-2.9-2.3-3.2-5.3-2.7-8.5c0.2-1.3,0.2-2.4-0.6-3.5c-0.3-0.5-0.2-1.3-0.2-1.9
		c0.1-0.8,0.4-1.6,0.4-2.5c0-1.2,0.3-2.3,1.1-3.3c1.2-1.6,2.2-3.4,3.3-5.1c0.3-0.4,0.5-0.9,0.9-1.1c1-0.5,1.2-1.1,1.2-2.2
		c0-0.7,0.4-1.5,0.9-2.1c0.6-0.7,0.9-1.3,0.5-2.3c-0.1-0.3,0.1-1.1,0.4-1.2c1.2-0.7,1.2-1.7,1.1-2.9c0-0.5,0.3-1.1,0.5-1.7
		c0.3-0.6,0.9-1.2,0.9-1.7c-0.1-1.8,1-2.8,2.2-3.7c1.6-1.2,1.5-1.8,1-3.7c-0.5-1.6-1.2-2.8-2.4-3.9c-0.1-0.1-0.1-0.2-0.2-0.3
		c-0.4-0.6-0.6-1.7-1.6-1.2c-0.9,0.4-1.5,1.3-1.5,2.4c0.1,1.5-0.2,3,0.9,4.3c0.2,0.3,0.1,1.1-0.2,1.4c-1.2,1-1.5,2.3-1.8,3.7
		c-0.3,1.5-1.8,2.3-3.2,1.7c-1.3-0.6-2.5-1.2-3.8-1.8c-1.4-0.7-1.6-1.2-1.4-2.8c0.1-0.7,0-1.4-0.2-2c-0.5-1.5,0.2-2.8,1-3.9
		c0.7-1,1-1.7,0-2.5c-0.7-0.7-0.4-1.5-0.1-2.2c0.7-1.3,0.8-2.4-0.5-3.4c-0.1-0.1-0.3-0.3-0.3-0.4c0.4-1.7-1.2-2.7-1.4-4.3
		c-0.2-1.8-1.6-2.8-2.9-3.8c-1.5-1-2.9-1.9-3.7-3.8c-0.4-1-1.6-1.6-2.3-2.5c-0.5-0.6-0.8-1.4-1.1-2.1c-0.4-0.7-0.7-1.5-1.1-2.2
		c-0.3-0.6-0.9-1-1.2-1.6c-0.2-0.5-0.1-1.2,0.1-1.6c0.7-1.3,0.4-2.1-1-2.5c-1.7-0.4-1.9-1-1.2-2.6c0.3-0.6,0.2-1.4,0.2-2
		c-0.1-1-0.4-2.1-0.7-3.1c-0.2-0.7-0.5-1.4-0.8-2.1c-0.2-0.6-0.6-1.2-0.7-1.8C7,17,7,16.1,7.1,15.3c0.1-0.7,0.2-1.5,0.5-2.2
		c1.6-3,3.7-5.5,6.7-7.1c0.7-0.4,1.2-1,2-1.3c1.4-0.6,2.8-0.7,4.2,0.2c0.7,0.4,1.8,0.3,2.7,0.1c1.4-0.3,2.4,0.3,3.2,1.3
		c0.5,0.6,1.1,1,1.6,1.5c1.5,1.3,2.7,2.8,2.8,4.9c0,0.7,0.3,1.5,0.5,2.2c0.1,0.6,0.3,1.2,0.2,1.7c-0.2,1.7,0.9,3,2.6,3.2
		c1.3,0.1,2.6,0.4,3.9,0.6C38.1,20,38.1,19.9,38.2,19.7z"/>
	<path class="st0" d="M5.9,137c0.1,0.3,0.3,0.6,0.2,0.9c0,0.2-0.4,0.5-0.7,0.5c-0.2,0-0.6-0.2-0.7-0.5s0.1-0.6,0.2-0.9
		C5.3,137,5.6,137,5.9,137z"/>
</g>
</svg>
