<?xml version="1.0" encoding="utf-8"?>
<!-- Generator: Adobe Illustrator 22.1.0, SVG Export Plug-In . SVG Version: 6.00 Build 0)  -->
<svg version="1.1" id="Layer_1" xmlns="http://www.w3.org/2000/svg" xmlns:xlink="http://www.w3.org/1999/xlink" x="0px" y="0px"
	 viewBox="0 0 100 99.8" style="enable-background:new 0 0 100 99.8;" xml:space="preserve">
<style type="text/css">
	.st0{fill:#FFFFFF;}
</style>
<g>
	<path class="st0" d="M-1,0c33.7,0,67.3,0,101,0c0,33.3,0,66.5,0,99.8c-33.7,0-67.3,0-101,0C-1,66.5-1,33.3-1,0z M47.2,92.8
		c-1-0.7-2-1.4-2.9-2.2c-4-3.4-8.2-6.6-11.9-10.4c-4.3-4.4-8-9.4-11.1-14.7c-0.2-0.4-0.7-0.8-1.1-0.8c-1.1-0.1-2.2,0-3.6,0
		c8.1,14.8,19.6,25.9,33.6,34.6c7.3-5,14.4-10.1,20.8-16.6c-0.7-0.1-1.4-0.2-1.5-0.1c-0.5,0.8-1.2,0.5-1.8,0.5
		c-0.7,0.1-1.4,0.1-2.1,0.1c0,0.1,0,0.3,0,0.4c0.8,0.2,1.7,0.3,2.7,0.5c-0.7,0.5-1.2,0.8-1.6,1c-0.3,0.2-0.8,0.3-1.1,0.2
		c-1.2-0.4-2.3-0.2-3.3,0.5c-2.2,1.7-4.4,3.4-6.6,5.1c-0.3,0.2-0.4,0.8-0.7,1c-0.9,0.5-2,0.8-2.8,1.5c-1.3,1.2-2.5,1.5-3.9,0.3
		C48,93.5,47.6,93.2,47.2,92.8z M79.5,40.3c0-0.1,0-0.2,0-0.4c2,0,3.9,0,5.9,0c2.6,0,5.3-0.1,7.9-0.1c1,0,2.1,0,3.1,0
		c0.5,0,1-0.1,1.5-0.3c0.6-0.3,1-0.7,1.6-1c-0.3,0-0.7,0-1.1,0c-1.4,0.1-2.8,0.4-4.2,0.4c-1.6,0-3.2-0.3-4.8-0.1
		c-1.7,0.2-3.2,0.6-5,0.3c-2.7-0.5-5.5-0.3-8.2-0.3c-0.2,0-0.5,0.3-0.7,0.4c0.2,0.1,0.5,0.4,0.7,0.4c0.7-0.1,1.4-0.3,2.1-0.3
		c1.2-0.1,2.5,0,3.7,0c0,0.1,0,0.2,0,0.3c-2.3,0.2-4.6,0.6-6.9,0.6c-8.1,0.1-16.2,0-24.2,0c-0.5,0-1.2,0.1-1.5-0.2
		c-0.3-0.3-0.1-1-0.1-1.7c-0.7,0.1-1.3,0.3-1.9,0.4c-0.9,0.1-1.7,0.3-2.6,0.2c-0.9,0-1.8-0.4-2.7-0.5c-1.7,0-3.5,0.1-5.2,0.2
		c-0.6,0-1.2,0.2-1.7,0.3c0-0.1,0.1-0.3,0.1-0.3C23.6,38.4,11.8,38.5,0,38.5c0,7.6,0,15.2,0,23c3.7,0,7.4,0,11,0c5,0,10,0,15,0
		c5.8,0,11.6,0,17.4,0c0.8,0,1.7-0.3,2.5-0.3c0.7,0,1.4,0.3,2.1,0.3c1,0,1.9-0.2,2.9-0.3c0-0.1,0-0.3,0-0.4
		c-0.4-0.2-0.7-0.4-1.1-0.4c-1.2-0.1-2.4-0.1-3.5-0.2c-6.3,0-12.6,0-18.9,0c1.1-0.1,2.2-0.1,3.2-0.1c7.3,0,14.6,0,21.8,0
		c9.2,0,18.4-0.1,27.6-0.1c0.8,0,1.7-0.2,1.5,1.2c2-1.2,2-1.2,4.9-1.1c3.2,0,6.4-0.1,9.6,0c1.2,0,1.6-0.4,1.6-1.6c0-5.3,0-10.6,0-16
		c0-2.1,0-2-2.1-2C90.2,40.3,84.9,40.3,79.5,40.3z M28.4,16.2c1.4-0.2,1.3-0.3,2.4-1.4c0.2-0.2,0.8-0.2,1,0c1.6,1.3,3.1,0.3,4.8,0
		c-0.5-0.3-0.8-0.6-1.3-0.9c0.7-0.1,1.2-0.2,1.7-0.2c0-0.1,0-0.2,0-0.3c-0.5-0.2-1.1-0.3-1.6-0.5c0.6-0.2,1.2-0.2,1.7-0.2
		c1.2,0,2.5,0.2,3.1-1.4c0.1-0.4,0.7-0.7,1.1-0.8c0.7-0.3,1.6-0.3,2.3-0.6c0.9-0.5,1.8-1.1,2.6-1.7c0.2-0.1,0.1-0.7,0-1.1
		c0-0.1-0.5,0-0.8,0c-0.5,0-1.1,0-1.6,0c0-0.2,0-0.3,0-0.5c1-0.1,2-0.5,2.9-0.3s1.1,0,1.5-0.8c-0.7-0.1-1.2-0.1-1.7-0.2
		c-0.7-0.2-1.2-0.6-0.7-1.4c1-1.6,2.3-1.8,3.6-0.3c0.8-1.6-1.1-1.3-1.5-2c0.6-0.1,1.3-0.2,1.9-0.4V1.1c-1.6,0-3.2,0-4.8,0
		c-0.8,3.2-2.8,5.3-5.7,7C32.6,12,25.5,12.6,18.2,11c-2.9-0.6-5.7-1.6-8.4-2.5c0,9.1,0,18.1,0,27c1.3,0,2.4,0,3.5,0
		c0.1-0.2,0.1-0.3,0.1-0.3c0-5.8,0.1-11.6,0.1-17.4c0-0.3-0.4-0.5-0.6-0.8s-0.2-0.6-0.4-0.8c1.1-0.2,0.8-1.2,1-1.8
		c0.7,0.3,1.2,0.8,1.8,0.9c2.5,0.4,4.9,0.8,7.4,1c2.1,0.2,4.1,0.2,6.2,0.3c0-0.1,0-0.2,0-0.3C28.8,16.3,28.6,16.2,28.4,16.2z
		 M90.7,8.5c-2.5,0.7-4.8,1.5-7.1,2.1c-7.4,2.1-14.5,1.5-21.4-2C59,7,56.4,4.7,55.5,1c-1.6,0-3.2,0-4.8,0c0.1,0.7,0.2,1.3,0.2,2
		c0.2-0.2,0.4-0.4,0.7-0.7c0.1,1,0.1,1.9,0.2,2.8c0.9,1,1.7,2.3,2.8,3.1c1.1,0.7,2.2,1.9,3.8,1.5c-0.6,0.1-1.3,0.2-2.1,0.4
		c3.5,3,7.3,4.4,11.5,4.5c0.3,0.4,0.5,0.8,0.7,0.8c1.5,0.1,3.1,0.2,4.6,0c0.8-0.1,1.2-0.3,1.7,0.4c0.1,0.1,0.5,0.2,0.6,0.2
		c0.1-0.1,0.2-0.4,0.3-0.6c0-0.4,0-0.7-0.1-1.2c1.2,0.4,2.3,0.7,3.6,1.2c0,0,0.1,0.4,0.2,1.1c3.1-1.1,6.2-2.1,9.3-3.2
		c-0.2,0.2-0.4,0.3-0.5,0.3c-1.8,1.2-1.6,3.2,0.4,4.2c0.3,0.1,0.6,0.3,0.7,0.6c0.3,0.8,0.4,1.6,0.6,2.2c-0.8,0.6-1.6,1.1-2.3,1.7
		c0.1,0.1,0.1,0.2,0.2,0.3c0.5-0.1,1.1-0.2,1.6-0.3c0,0.1,0,0.2,0.1,0.3c-0.7,0.2-1.5,0.5-2.2,0.7c-0.2,0.2-0.3,0.3-0.5,0.5
		c2-0.1,1.6,0.7,1.2,1.5c-0.1,0.3-0.2,0.7-0.1,0.9c0.5,0.7,0.2,1.1-0.2,1.7c-0.2,0.2-0.2,0.6-0.2,0.9c0.1,1.1,0.4,2.1,0.2,3.1
		c-0.2,0.9,0.1,1.3,0.8,1.7c0.4,0.2,0.8,0.5,1.1,0.7c-0.1,0.1-0.1,0.2-0.2,0.3c-0.4-0.2-0.9-0.4-1.5-0.6c0.3,1.2,1.1,1.4,1.9,1.5
		c1,0,0.7-0.8,0.7-1.4c0-5.7,0-11.4,0.1-17C90.7,14.2,90.7,11.5,90.7,8.5z M77.9,70c1,0.5,1,0.5,0.3,2c0.1,0.3,0.2,0.5,0.4,0.9
		c-0.3,0-0.6,0-0.8,0c-0.3,0-0.5-0.1-0.9-0.2c0-0.4,0-0.7,0-1.1c-1.3,0.6-1.5,1.1-0.7,1.9c-1.9,0.1-3.7,2.5-3.7,4.9
		c0.3-0.2,0.6-0.4,0.8-0.5c-0.7,1.6-2.5,1.5-3.7,2.4c1.1,0.2,2.1,0.2,3.1,0.1c0.4,0,0.9-0.2,1.1-0.5c1.8-2.1,3.5-4.2,5.2-6.3
		c0.4-0.5,0.5-1.2,0.8-1.7c0.5-1,0.9-2.4,1.7-2.7c1.3-0.5,1.2-1.5,1.7-2.1c-0.3-0.5-0.5-0.9-0.7-1.3c0.4-0.1,0.9-0.3,1.3-0.4
		c0.2-0.1,0.4-0.2,0.7-0.3c0-0.1-0.1-0.2-0.1-0.3c-1.1,0-2.1-0.1-3.2,0c-0.4,0-0.9,0.4-1.1,0.7c-0.4,0.6-0.7,1.4-1.2,2.2
		c1.1-0.6,2.1-1.1,3.1-1.6c-0.1,0.4-0.2,1.1-0.4,1.7c-0.1,0.2-0.8-0.1-1.3-0.1c-0.2,0-0.6,0.2-0.7,0.3c-0.1,0.2,0.1,0.5,0.2,0.7
		s0.3,0.3,0.7,0.7C79.4,69.7,78.7,69.9,77.9,70z M61.8,60.7c-0.8-0.5-10-0.7-10.3-0.2c0,0.3,0.1,0.6,0.1,1.1
		c1.9-0.1,3.7-0.3,5.6-0.4c0,0,0,0.1-0.1,0.1c1,0.1,1.9,0.2,2.9,0.3c0-0.1,0-0.2,0.1-0.3c-0.4-0.2-0.7-0.4-1.1-0.7
		C60,59.8,60.8,62,61.8,60.7z M52.6,39c0,0.2,0,0.3,0.1,0.5c0.5,0.1,1,0.2,1.6,0.2c2.1,0,4.1-0.2,6.2-0.2c1.6,0,1.7,0.1,2.3-0.9
		c-2.9,0-5.8,0-8.8,0C53.5,38.7,53.1,38.9,52.6,39z M84.6,60.9c0.6,0.7,1.4,0.7,2,0.3c0.7-0.5,1.3-0.4,2-0.1
		c0.8,0.3,1.6,0.5,2.4-0.2C89.9,60,85.7,60.1,84.6,60.9z M80.1,61c0-0.2,0-0.4,0-0.6c-2.2-0.1-4.3-0.1-6.5-0.2
		c-0.1,0-0.3,0.3-0.6,0.7C75.6,61,77.9,61,80.1,61z M98.4,47.4c0.2,0,0.3,0,0.5-0.1c0.1-0.8,0.2-1.5,0.2-2.3
		c0.1-0.9,0.1-1.7,0.2-2.6c0-0.2-0.2-0.5-0.3-0.5c-0.2,0-0.5,0.2-0.5,0.3c-0.1,0.3-0.1,0.6-0.1,0.9c0,0.6,0,1.2,0.1,1.8
		C98.3,45.8,98.3,46.6,98.4,47.4z M68.4,82c2,0.5,3.4,0.2,4-1.2c-1.4,0.1-2.7,0.3-4,0.4c0,0.1,0,0.2,0,0.3c0.3,0.1,0.6,0.2,0.8,0.3
		C69,81.8,68.7,81.9,68.4,82z M98.4,51.1c0,1.4,0,2.8,0,4.3C99.7,54.5,99.6,51.7,98.4,51.1z M72.3,60.5c0.1,0.1,0-0.1-0.1-0.1
		c-1.9,0-3.8-0.1-5.7,0c-0.2,0-0.4,0.4-0.7,0.6c0.3,0.1,0.6,0.2,0.8,0.2C68.6,61,70.5,60.7,72.3,60.5z M46.1,4.3
		c0.1,0.1,0.1,0.2,0.2,0.3c0.6,0,1.2,0.2,1.6-0.1c0.4-0.2,0.5-0.9,0.7-1.3c-0.4-0.1-1-0.4-1.3-0.2C46.8,3.4,46.5,3.9,46.1,4.3z
		 M40.4,12.2c1.2-0.5,2.2-0.9,3.2-1.4C42.2,10.4,41,11,40.4,12.2z M68,39.2c0,0.1,0,0.2,0,0.3c1.3,0,2.6,0,3.9,0c0-0.1,0-0.2,0-0.3
		C70.7,39.2,69.3,39.2,68,39.2z M99.1,50.9c0.1-0.1,0.2-0.1,0.3-0.2c0-0.5,0-1,0-1.7c-0.5,0.4-0.9,0.7-1.3,0.9
		C98.5,50.3,98.8,50.6,99.1,50.9z M89.2,20.2c-0.2-0.2-0.4-0.4-0.6-0.6c-0.6,0.7-1.1,1.4-1.7,2.1c0,0,0.1,0,0.1,0.1
		C87.7,21.2,88.4,20.7,89.2,20.2z M51,39.6c0-0.2,0-0.4,0-0.7c-0.4,0-0.9,0.1-1.3,0.2c0,0,0,0.4,0,0.6C50.1,39.6,50.5,39.6,51,39.6z
		"/>
	<path d="M79.5,40.3c5.4,0,10.7,0,16.1,0c2.1,0,2.1,0,2.1,2c0,5.3,0,10.6,0,16c0,1.2-0.4,1.6-1.6,1.6c-3.2,0-6.4,0-9.6,0
		c-3,0-3,0-4.9,1.1c0.2-1.3-0.7-1.2-1.5-1.2c-9.2,0-18.4,0.1-27.6,0.1c-7.3,0-14.6,0-21.8,0c-1.1,0-2.2,0-3.2,0.1
		c6.3,0,12.6,0,18.9,0c1.2,0,2.4,0.1,3.5,0.2c0.4,0,0.7,0.3,1.1,0.4c0,0.1,0,0.3,0,0.4c-1,0.1-1.9,0.3-2.9,0.3
		c-0.7,0-1.4-0.3-2.1-0.3c-0.8,0-1.7,0.3-2.5,0.3c-5.8,0-11.6,0-17.4,0c-5,0-10,0-15,0c-3.6,0-7.2,0-11,0c0-7.8,0-15.3,0-23
		c11.8-0.1,23.6-0.2,35.3,0.1c0,0-0.1,0.2-0.1,0.3c0.6-0.1,1.1-0.2,1.7-0.3c1.7-0.1,3.5-0.2,5.2-0.2c0.9,0,1.8,0.4,2.7,0.5
		c0.9,0,1.7-0.1,2.6-0.2c0.6-0.1,1.2-0.3,1.9-0.4c0,0.7-0.2,1.4,0.1,1.7c0.2,0.3,0.9,0.2,1.5,0.2c8.1,0,16.2,0,24.2,0
		c2.3,0,4.6-0.4,6.9-0.6c0-0.1,0-0.2,0-0.3c-1.2,0-2.5,0-3.7,0c-0.7,0-1.4,0.3-2.1,0.3c-0.2,0-0.5-0.2-0.7-0.4
		c0.2-0.2,0.5-0.4,0.7-0.4c2.7,0,5.5-0.2,8.2,0.3c1.8,0.3,3.3-0.1,5-0.3c1.6-0.1,3.2,0.2,4.8,0.1c1.4,0,2.8-0.3,4.2-0.4
		c0.4,0,0.8,0,1.1,0c-0.5,0.4-1,0.8-1.6,1c-0.4,0.2-1,0.3-1.5,0.3c-1,0-2.1,0-3.1,0c-2.6,0-5.3,0.1-7.9,0.1c-2,0-3.9,0-5.9,0
		C79.5,40,79.5,40.2,79.5,40.3z M88.1,48.6c0.1,0,0.1-0.1,0.2-0.1c0.1,0.2,0.3,0.4,0.4,0.6c0.9,1.6,1.7,3.2,2.5,4.9
		c0.5,1,1.4,1,2.1,0.8c0.3-0.1,0.6-0.9,0.6-1.4c0.1-2.3,0-4.5,0-6.8c0-0.8-0.2-1.2-1.1-1.2s-1,0.6-1,1.3c0,1.6,0,3.1,0,4.9
		c-0.2-0.3-0.3-0.5-0.4-0.7c-0.8-1.6-1.7-3.2-2.5-4.7c-0.5-1-1.5-0.9-2.3-0.7c-0.3,0.1-0.6,0.9-0.6,1.4c-0.1,2.2,0,4.5,0,6.7
		c0,0.7,0.1,1.3,1,1.3s1-0.5,1-1.3C88,51.9,88.1,50.2,88.1,48.6z M84.7,50.1c0-2.9-1.7-4.9-4.4-4.9c-2.8,0-4.6,2-4.7,5.3
		c0,2.5,1.9,4.4,4.4,4.5C82.9,54.9,84.7,53,84.7,50.1z M5.4,51L5.4,51c0,0.9,0,1.8,0,2.8c0,0.7,0.3,1.1,1,1.1c1,0,1.9,0.1,2.9-0.1
		c1.4-0.2,2.7-0.6,3.6-1.8c2.2-3.1,0.5-7-3.2-7.5c-1.1-0.1-2.2,0-3.2,0c-0.7,0-1,0.3-1,1.1C5.4,47.9,5.4,49.4,5.4,51z M60,52.4
		c1-0.2,1.6,0.2,1.7,1.3c0,0.2,0.1,0.6,0.2,0.6c0.6,0.2,1.2,0.3,1.8,0.5c0.1-0.5,0.3-0.9,0.2-1.3c-0.7-2.4-1.5-4.7-2.2-7.1
		c-0.3-0.9-0.8-1.1-1.7-1.1c-0.8,0-1.5,0-1.8,1.1c-0.7,2.5-1.5,4.9-2.2,7.3c-0.3,0.8,0,1.1,0.8,1.1s1.3-0.3,1.4-1.1
		C58.4,52.6,58.9,52.2,60,52.4z M49.7,48.8c0-0.8,0-1.6,0-2.4c0-0.7-0.3-1-1-1s-1.1,0.2-1.1,1c0,2.4,0,4.9,0,7.3
		c0,0.7,0.2,1.1,1,1.1s1.1-0.4,1.1-1.2c0-0.5-0.1-1.1,0-1.5c0.1-0.3,0.4-0.6,0.6-0.9c0.2,0.2,0.6,0.4,0.7,0.7
		c0.5,0.8,0.9,1.6,1.4,2.4c0.3,0.5,1.9,1,2.2,0.5c0.2-0.3-0.1-1-0.3-1.4c-0.5-1-1.1-2-1.7-2.9c-0.6-0.8-0.5-1.3,0.1-2
		c0.8-0.9,1.4-1.8,2.2-2.9C51.7,44.5,51.5,47.6,49.7,48.8z M34.5,45.4c0-0.1-0.1-0.2-0.1-0.3c-0.5,0.3-1.3,0.5-1.5,1
		c-0.9,2.6-1.7,5.2-2.5,7.7c-0.2,0.6,0.1,0.9,0.7,0.9c0.8,0.1,1.4-0.2,1.5-1.1c0.1-1.1,0.7-1.4,1.8-1.4c1.3-0.1,1.5,0.7,1.7,1.6
		c0.2,1.1,1.1,0.9,1.8,0.8c0.9-0.1,0.5-0.8,0.3-1.3c-0.7-2.2-1.4-4.5-2.1-6.7C36,45.7,35.6,45.2,34.5,45.4z M15.2,50L15.2,50
		c0,1.2,0,2.5,0,3.7c0,0.6,0.2,1,0.9,1c1.4,0,2.9,0.1,4.3,0c0.3,0,0.6-0.6,0.9-0.9c-0.3-0.3-0.6-0.7-0.9-0.8c-0.6-0.1-1.2-0.1-1.8,0
		c-0.9,0.1-1.2-0.3-1.2-1.2c0-0.8,0.4-1.1,1.2-1.1c0.5,0,1,0.1,1.4,0c0.3-0.1,0.9-0.6,0.8-0.8c-0.1-0.4-0.4-0.8-0.8-0.9
		c-0.5-0.2-1-0.1-1.5,0c-0.8,0-1.1-0.3-1.1-1.1c0-0.7,0.4-1,1.1-0.9c0.5,0,1.1,0.1,1.5,0s0.7-0.5,1-0.8c-0.3-0.3-0.7-0.8-1-0.8
		c-1.2-0.1-2.5,0-3.7,0c-0.8,0-1.1,0.3-1,1.1C15.2,47.6,15.2,48.8,15.2,50z M26.4,52.1c-0.1,0-0.2,0-0.2,0c-0.1-0.3-0.2-0.6-0.3-0.9
		c-0.5-1.6-1-3.3-1.4-5c-0.3-1.1-1.1-0.9-1.8-0.8c-0.9,0.2-0.4,0.9-0.2,1.4c0.7,2.4,1.5,4.7,2.3,7.1c0.1,0.4,0.7,0.8,1.2,0.9
		c0.7,0.1,1.5,0.3,1.8-0.7c0.9-2.6,1.8-5.2,2.6-7.8c0.1-0.2-0.4-0.7-0.6-0.8c-0.8-0.2-1.4,0.1-1.6,1C27.5,48.3,27,50.2,26.4,52.1z
		 M42.3,54.9L42.3,54.9c0.2-0.1,0.5,0,0.7-0.1c1.7-0.2,2.8-1.1,3-2.4c0.2-1.4-0.5-2.4-2.1-3.1c-0.5-0.2-1-0.4-1.4-0.7
		c-0.3-0.2-0.5-0.7-0.5-1c0.1-0.3,0.5-0.6,0.9-0.6c0.5-0.1,1,0.1,1.4,0.1c0.4-0.1,0.7-0.4,1.1-0.6c-0.2-0.4-0.4-1-0.7-1.1
		c-0.8-0.2-1.7-0.2-2.5-0.1c-1.5,0.3-2.4,1.2-2.5,2.4c-0.1,1.3,0.5,2.2,2,2.9c0.4,0.2,1,0.3,1.3,0.6c0.3,0.3,0.7,0.8,0.6,1.1
		c-0.1,0.3-0.6,0.7-1,0.8c-0.6,0.1-1.2,0-1.8-0.2c-0.7-0.2-1.2,0.1-1.2,0.7c0,0.4,0.5,0.8,0.8,1C41.2,54.9,41.8,54.9,42.3,54.9z
		 M66.2,51L66.2,51c0,0.9,0,1.8-0.1,2.6c-0.1,0.9,0.3,1.1,1.1,1.1c0.8,0,1.1-0.3,1.1-1.1c0-1.6,0-3.3-0.1-4.9
		c-0.1-1.2,0.3-1.7,1.5-1.6c0.6,0.1,1.1-0.1,1.1-0.9c0-0.7-0.4-1-1.1-1c-1.8,0-3.6,0-5.4,0c-0.8,0-1.1,0.5-0.9,1.2
		c0.2,0.4,0.8,0.7,1.2,0.7c1,0,1.4,0.3,1.3,1.3C66.2,49.3,66.2,50.2,66.2,51z M72.1,50c0,1.2,0,2.5,0,3.7c0,0.8,0.3,1.1,1.1,1.1
		c0.8,0,1.1-0.4,1.1-1.2c0-2.4,0-4.8,0-7.2c0-0.8-0.3-1.1-1.1-1.2c-0.9,0-1.2,0.3-1.2,1.2C72.1,47.7,72.1,48.8,72.1,50z M40.9,40.2
		c0-0.1,0-0.2,0-0.3c-5.1,0-10.1,0-15.2,0c0,0.1,0,0.2,0,0.3C30.8,40.2,35.9,40.2,40.9,40.2z M19.3,60.1L19.3,60.1
		C16,60,12.7,60,9.4,60v0.1C12.7,60.1,16,60.1,19.3,60.1z"/>
	<path d="M28.4,16.2c0.2,0.1,0.3,0.1,0.5,0.1c0,0.1,0,0.2,0,0.3c-2.1-0.1-4.2-0.1-6.2-0.3c-2.5-0.2-4.9-0.6-7.4-1
		c-0.6-0.1-1.2-0.5-1.8-0.9c-0.2,0.5,0.1,1.6-1,1.8c0.1,0.3,0.2,0.6,0.4,0.8c0.2,0.3,0.6,0.5,0.6,0.8c0,5.8,0,11.6-0.1,17.4
		c0,0.1-0.1,0.1-0.1,0.3c-1.1,0-2.2,0-3.5,0c0-9,0-18,0-27c2.8,0.8,5.6,1.9,8.4,2.5c7.4,1.6,14.5,1,21.1-2.9c2.8-1.7,4.9-3.8,5.7-7
		c1.6,0,3.2,0,4.8,0v0.1c-0.6,0.1-1.3,0.2-1.9,0.4c0.4,0.8,2.2,0.4,1.5,2c-1.3-1.5-2.6-1.3-3.6,0.3c-0.5,0.8,0,1.2,0.7,1.4
		c0.5,0.1,1,0.1,1.7,0.2c-0.4,0.7-0.6,1-1.5,0.8s-1.9,0.2-2.9,0.3c0,0.2,0,0.3,0,0.5c0.5,0,1.1,0,1.6,0c0.3,0,0.8,0,0.8,0
		c0.1,0.4,0.2,0.9,0,1.1c-0.8,0.7-1.7,1.3-2.6,1.7c-0.7,0.3-1.6,0.4-2.3,0.6c-0.4,0.2-1,0.5-1.1,0.8c-0.6,1.6-1.8,1.4-3.1,1.4
		c-0.6,0-1.1,0-1.7,0.2c0.5,0.2,1.1,0.3,1.6,0.5c0,0.1,0,0.2,0,0.3c-0.5,0.1-1,0.1-1.7,0.2c0.5,0.3,0.8,0.6,1.3,0.9
		c-1.7,0.3-3.2,1.3-4.8,0c-0.2-0.2-0.8-0.2-1,0C29.8,15.9,29.8,15.9,28.4,16.2z"/>
	<path d="M48.4,93.8c1.4,1.3,2.6,0.9,3.9-0.3c0.8-0.7,1.9-0.9,2.8-1.5c0.3-0.2,0.4-0.7,0.7-1c2.2-1.7,4.4-3.5,6.6-5.1
		c1-0.7,2.1-0.9,3.3-0.5c0.3,0.1,0.8-0.1,1.1-0.2c0.5-0.2,0.9-0.5,1.6-1c-1-0.2-1.8-0.4-2.7-0.5c0-0.1,0-0.3,0-0.4
		c0.7,0,1.4-0.1,2.1-0.1c0.6-0.1,1.3,0.3,1.8-0.5c0.1-0.2,0.8,0,1.5,0.1c-6.4,6.5-13.5,11.6-20.8,16.6c-14-8.7-25.5-19.9-33.6-34.6
		c1.4,0,2.5-0.1,3.6,0c0.4,0,0.9,0.5,1.1,0.8c3.1,5.4,6.7,10.3,11.1,14.7c3.7,3.7,7.9,7,11.9,10.4c0.9,0.8,1.9,1.4,2.9,2.2
		c-1,0-1.9-0.1-2.9-0.1c1.1,0.5,2.3,0.9,3.4,1.2C47.9,94,48.2,93.9,48.4,93.8z M50.2,95.6c0-0.1,0-0.1,0-0.2c-1,0-1.9,0-2.9,0
		c0,0.1,0,0.1,0,0.2C48.3,95.6,49.3,95.6,50.2,95.6z"/>
	<path d="M90.7,8.5c0,3,0,5.7,0,8.5c0,5.7,0,11.4-0.1,17c0,0.5,0.3,1.4-0.7,1.4c-0.8,0-1.6-0.3-1.9-1.5c0.6,0.3,1,0.4,1.5,0.6
		c0.1-0.1,0.1-0.2,0.2-0.3c-0.4-0.2-0.7-0.5-1.1-0.7c-0.7-0.4-1-0.7-0.8-1.7s-0.1-2.1-0.2-3.1c0-0.3,0-0.7,0.2-0.9
		c0.4-0.5,0.7-1,0.2-1.7c-0.1-0.2,0-0.6,0.1-0.9c0.4-0.8,0.8-1.6-1.2-1.5c0.2-0.2,0.3-0.3,0.5-0.5c0.7-0.2,1.5-0.5,2.2-0.7
		c0-0.1,0-0.2-0.1-0.3c-0.5,0.1-1.1,0.2-1.6,0.3c-0.1-0.1-0.1-0.2-0.2-0.3c0.8-0.6,1.6-1.1,2.3-1.7c-0.2-0.7-0.3-1.5-0.6-2.2
		c-0.1-0.2-0.4-0.5-0.7-0.6c-2-1-2.2-3-0.4-4.2c0.1-0.1,0.3-0.2,0.5-0.3c-3.2,1.1-6.2,2.1-9.3,3.2c-0.1-0.7-0.2-1-0.2-1.1
		c-1.3-0.4-2.3-0.8-3.6-1.2c0,0.5,0.1,0.9,0.1,1.2c0,0.2-0.1,0.5-0.3,0.6c-0.1,0.1-0.5,0-0.6-0.2c-0.5-0.7-1-0.5-1.7-0.4
		c-1.5,0.3-3.1,0.1-4.6,0c-0.2,0-0.4-0.5-0.7-0.8C63.8,14.3,60,13,56.4,10c0.9-0.2,1.5-0.3,2.1-0.4c-1.6,0.4-2.7-0.8-3.8-1.5
		C53.5,7.4,52.8,6,51.9,5c-0.1-0.9-0.1-1.8-0.2-2.8c-0.3,0.3-0.5,0.5-0.7,0.7c-0.1-0.6-0.1-1.3-0.2-2c1.7,0,3.2,0,4.8,0
		c0.8,3.7,3.4,6,6.7,7.6c6.9,3.5,14,4.1,21.4,2C85.8,9.9,88.1,9.2,90.7,8.5z M89.4,12.3c-3.3,0.1-6.5,0.3-9.6,0.4
		C82.9,15.1,86.1,13.3,89.4,12.3z M67.4,12.7c-1-0.4-2-0.9-3-1.3c0,0.1-0.1,0.1-0.1,0.2c0.2,0.1,0.5,0.2,0.7,0.3c0,0.1,0,0.2,0,0.3
		c-0.8,0-1.5,0.1-2.3,0.1c0,0.1,0,0.2,0,0.3C64.2,12.7,65.8,12.7,67.4,12.7z M55.6,7.5c0.7,0.5,1.3,1,2.2,1.7
		C57.6,7.7,56.6,7.6,55.6,7.5z"/>
	<path d="M77.9,70c0.9-0.2,1.6-0.3,2.5-0.5c-0.4-0.4-0.6-0.5-0.7-0.7s-0.3-0.5-0.2-0.7c0.1-0.2,0.4-0.3,0.7-0.3
		c0.4,0,1.2,0.2,1.3,0.1c0.3-0.6,0.3-1.3,0.4-1.7c-1,0.5-2,1.1-3.1,1.6c0.5-0.9,0.8-1.6,1.2-2.2c0.2-0.3,0.7-0.7,1.1-0.7
		c1.1-0.1,2.1,0,3.2,0c0,0.1,0.1,0.2,0.1,0.3c-0.2,0.1-0.4,0.2-0.7,0.3c-0.4,0.2-0.9,0.3-1.3,0.4c0.2,0.4,0.4,0.8,0.7,1.3
		c-0.5,0.5-0.4,1.6-1.7,2.1c-0.8,0.3-1.2,1.7-1.7,2.7c-0.3,0.6-0.4,1.2-0.8,1.7c-1.7,2.1-3.4,4.2-5.2,6.3c-0.2,0.3-0.7,0.5-1.1,0.5
		c-1,0.1-2.1,0-3.1-0.1c1.2-0.9,3-0.7,3.7-2.4c-0.3,0.2-0.5,0.3-0.8,0.5c-0.1-2.3,1.8-4.8,3.7-4.9c-0.8-0.8-0.6-1.2,0.7-1.9
		c0,0.4,0,0.7,0,1.1c0.3,0.1,0.6,0.1,0.9,0.2c0.2,0,0.5,0,0.8,0c-0.1-0.4-0.3-0.7-0.4-0.9C78.9,70.5,78.9,70.5,77.9,70z"/>
	<path d="M61.8,60.7c-1,1.3-1.8-0.9-2.8,0c0.4,0.2,0.7,0.4,1.1,0.7c0,0.1,0,0.2-0.1,0.3c-1-0.1-1.9-0.2-2.9-0.3c0,0,0-0.1,0.1-0.1
		c-1.8,0.1-3.7,0.3-5.6,0.4c-0.1-0.5-0.1-0.8-0.1-1.1C51.8,60,60.9,60.2,61.8,60.7z"/>
	<path d="M52.6,39c0.4-0.1,0.9-0.3,1.3-0.4c2.9,0,5.9,0,8.8,0c-0.6,1-0.7,0.9-2.3,0.9c-2.1,0-4.1,0.1-6.2,0.2c-0.5,0-1-0.1-1.6-0.2
		C52.7,39.4,52.6,39.2,52.6,39z"/>
	<path d="M84.6,60.9c1.1-0.8,5.3-0.9,6.4-0.1c-0.8,0.7-1.6,0.6-2.4,0.2c-0.7-0.3-1.3-0.4-2,0.1C86,61.6,85.2,61.6,84.6,60.9z"/>
	<path d="M80.1,61c-2.3,0-4.5,0-7.1,0c0.4-0.4,0.5-0.7,0.6-0.7c2.2,0,4.3,0.1,6.5,0.2C80.1,60.6,80.1,60.8,80.1,61z"/>
	<path d="M98.4,47.4c0-0.8-0.1-1.6-0.1-2.4c0-0.6-0.1-1.2-0.1-1.8c0-0.3,0-0.6,0.1-0.9c0.1-0.2,0.4-0.4,0.5-0.3
		c0.1,0,0.3,0.3,0.3,0.5c0,0.9-0.1,1.7-0.2,2.6c-0.1,0.8-0.1,1.5-0.2,2.3C98.7,47.4,98.5,47.4,98.4,47.4z"/>
	<path d="M68.4,82c0.3-0.1,0.6-0.2,0.9-0.3c-0.3-0.1-0.6-0.2-0.8-0.3c0-0.1,0-0.2,0-0.3c1.3-0.1,2.6-0.2,4-0.4
		C71.9,82.1,70.5,82.5,68.4,82z"/>
	<path d="M98.4,51.1c1.1,0.6,1.3,3.4,0,4.3C98.4,53.9,98.4,52.5,98.4,51.1z"/>
	<path d="M72.3,60.5c-1.8,0.2-3.7,0.5-5.7,0.7c-0.3,0-0.6-0.1-0.8-0.2c0.2-0.2,0.4-0.6,0.7-0.6c1.9,0,3.8,0,5.7,0
		C72.3,60.4,72.4,60.5,72.3,60.5z"/>
	<path d="M46.1,4.3c0.4-0.4,0.7-1,1.2-1.2c0.3-0.2,0.8,0.1,1.3,0.2c-0.2,0.5-0.3,1.1-0.7,1.3c-0.4,0.2-1.1,0.1-1.6,0.1
		C46.2,4.6,46.1,4.5,46.1,4.3z"/>
	<path d="M40.4,12.2c0.7-1.2,1.9-1.8,3.2-1.4C42.6,11.2,41.5,11.7,40.4,12.2z"/>
	<path class="st0" d="M48.4,93.8c-0.2,0.1-0.5,0.2-0.7,0.2c-1.1-0.3-2.3-0.7-3.4-1.2c1,0,1.9,0.1,2.9,0.1
		C47.6,93.2,48,93.5,48.4,93.8z"/>
	<path d="M68,39.2c1.3,0,2.6,0,4,0c0,0.1,0,0.2,0,0.3c-1.3,0-2.6,0-3.9,0C68,39.4,68,39.3,68,39.2z"/>
	<path d="M99.1,50.9c-0.3-0.3-0.6-0.7-1-1c0.4-0.3,0.8-0.6,1.3-0.9c0,0.7,0,1.2,0,1.7C99.3,50.8,99.2,50.9,99.1,50.9z"/>
	<path d="M89.2,20.2c-0.7,0.5-1.5,1.1-2.2,1.6c0,0-0.1,0-0.1-0.1c0.6-0.7,1.1-1.4,1.7-2.1C88.8,19.8,89,20,89.2,20.2z"/>
	<path d="M51,39.6c-0.4,0-0.9,0.1-1.3,0.1c0-0.2,0-0.6,0-0.6c0.4-0.1,0.8-0.1,1.3-0.2C50.9,39.1,51,39.4,51,39.6z"/>
	<path class="st0" d="M88.1,48.6c0,1.7,0,3.3,0,5c0,0.7-0.1,1.3-1,1.3s-1-0.6-1-1.3c0-2.2,0-4.5,0-6.7c0-0.5,0.3-1.4,0.6-1.4
		c0.8-0.2,1.8-0.3,2.3,0.7c0.8,1.6,1.7,3.2,2.5,4.7c0.1,0.2,0.2,0.3,0.4,0.7c0-1.8,0-3.3,0-4.9c0-0.7,0-1.3,1-1.3
		c0.8,0,1.1,0.4,1.1,1.2c0,2.3,0,4.6,0,6.8c0,0.5-0.3,1.3-0.6,1.4C92.6,55,91.8,55,91.3,54c-0.8-1.6-1.7-3.3-2.5-4.9
		c-0.1-0.2-0.2-0.4-0.4-0.6C88.2,48.5,88.1,48.5,88.1,48.6z"/>
	<path class="st0" d="M84.7,50.1c0,3-1.9,4.9-4.7,4.8c-2.5,0-4.4-2-4.4-4.5c0.1-3.3,1.9-5.3,4.7-5.3C83,45.2,84.8,47.1,84.7,50.1z
		 M82.5,50.1c-0.1-0.5-0.1-1.1-0.3-1.5c-0.3-0.9-0.9-1.6-2-1.6c-1.2,0-1.9,0.6-2.1,1.6s-0.2,2,0,2.9c0.2,1,1,1.7,2.1,1.7
		s1.7-0.7,2-1.6C82.4,51.1,82.4,50.6,82.5,50.1z"/>
	<path class="st0" d="M5.4,51c0-1.5,0-3,0-4.5c0-0.7,0.3-1,1-1.1c1.1,0,2.2-0.1,3.2,0c3.7,0.5,5.4,4.4,3.2,7.5
		c-0.9,1.3-2.2,1.7-3.6,1.8c-0.9,0.1-1.9,0-2.9,0.1c-0.7,0-1-0.4-1-1.1C5.4,52.8,5.4,51.9,5.4,51L5.4,51z M7.5,50L7.5,50
		c0,0.7,0,1.4,0,2.2c0,0.7,0.3,1,1,1c1.7,0,2.9-1.3,3-3.2c0-1.9-1-3-2.8-3.1c-0.8,0-1.2,0.2-1.2,1.1C7.5,48.7,7.5,49.4,7.5,50z"/>
	<path class="st0" d="M60,52.4c-1.1-0.2-1.6,0.2-1.7,1.3c-0.1,0.8-0.6,1.1-1.4,1.1s-1.1-0.3-0.8-1.1c0.8-2.4,1.5-4.9,2.2-7.3
		c0.3-1,1-1.1,1.8-1.1c0.9,0,1.4,0.2,1.7,1.1c0.7,2.4,1.5,4.7,2.2,7.1c0.1,0.4-0.1,0.9-0.2,1.3c-0.6-0.2-1.3-0.3-1.8-0.5
		c-0.1-0.1-0.2-0.4-0.2-0.6C61.6,52.6,61,52.2,60,52.4z M60.1,47.7c-0.1,0-0.3,0-0.4,0c-0.2,0.8-0.4,1.6-0.5,2.4
		c0,0.2,0.5,0.6,0.8,0.6s0.8-0.4,0.7-0.6C60.6,49.3,60.3,48.5,60.1,47.7z"/>
	<path class="st0" d="M49.7,48.8c1.8-1.2,2-4.3,5.3-3.2c-0.8,1-1.5,2-2.2,2.9c-0.6,0.7-0.7,1.2-0.1,2c0.7,0.9,1.2,1.9,1.7,2.9
		c0.2,0.4,0.5,1.1,0.3,1.4c-0.3,0.5-1.9,0.1-2.2-0.5c-0.5-0.8-0.9-1.6-1.4-2.4c-0.2-0.3-0.5-0.5-0.7-0.7c-0.2,0.3-0.5,0.6-0.6,0.9
		c-0.1,0.5-0.1,1,0,1.5c0,0.8-0.2,1.2-1.1,1.2c-0.8,0-1-0.4-1-1.1c0-2.4,0-4.9,0-7.3c0-0.8,0.4-1,1.1-1s1,0.3,1,1
		C49.7,47.1,49.7,48,49.7,48.8z"/>
	<path class="st0" d="M34.5,45.4c1.1-0.2,1.5,0.3,1.8,1.3c0.6,2.3,1.4,4.5,2.1,6.7c0.1,0.5,0.6,1.2-0.3,1.3
		c-0.7,0.1-1.6,0.3-1.8-0.8c-0.2-1-0.4-1.7-1.7-1.6c-1.1,0-1.7,0.4-1.8,1.4c-0.1,0.9-0.7,1.2-1.5,1.1c-0.6,0-0.9-0.3-0.7-0.9
		c0.8-2.6,1.5-5.2,2.5-7.7c0.2-0.4,1-0.7,1.5-1C34.4,45.2,34.5,45.3,34.5,45.4z M34.4,46.7C34.1,48,33.8,49,33.6,50
		c0,0.2,0.5,0.7,0.9,0.7c0.2,0,0.7-0.5,0.7-0.7C35,48.9,34.7,47.9,34.4,46.7z"/>
	<path class="st0" d="M15.2,50c0-1.2,0-2.4,0-3.6c0-0.8,0.3-1.1,1-1.1c1.2,0,2.5-0.1,3.7,0c0.4,0,0.7,0.5,1,0.8
		c-0.3,0.3-0.7,0.7-1,0.8c-0.5,0.1-1,0-1.5,0c-0.7,0-1.1,0.2-1.1,0.9c0,0.8,0.3,1.1,1.1,1.1c0.5,0,1.1-0.1,1.5,0
		c0.3,0.1,0.7,0.6,0.8,0.9c0,0.2-0.5,0.7-0.8,0.8c-0.4,0.1-1,0-1.4,0c-0.8-0.1-1.2,0.2-1.2,1.1s0.4,1.2,1.2,1.2c0.6,0,1.2-0.1,1.8,0
		c0.4,0.1,0.6,0.5,0.9,0.8c-0.3,0.3-0.6,0.8-0.9,0.9c-1.4,0.1-2.9,0-4.3,0c-0.7,0-0.9-0.4-0.9-1C15.2,52.5,15.1,51.3,15.2,50
		L15.2,50z"/>
	<path class="st0" d="M26.4,52.1c0.5-1.9,1.1-3.8,1.6-5.7c0.2-0.9,0.8-1.2,1.6-1c0.3,0.1,0.7,0.6,0.6,0.8c-0.8,2.6-1.7,5.2-2.6,7.8
		c-0.3,0.9-1.2,0.8-1.8,0.7c-0.4-0.1-1-0.5-1.2-0.9c-0.8-2.3-1.6-4.7-2.3-7.1c-0.1-0.5-0.7-1.2,0.2-1.4c0.7-0.2,1.5-0.3,1.8,0.8
		c0.4,1.7,0.9,3.3,1.4,5c0.1,0.3,0.2,0.6,0.3,0.9C26.3,52.1,26.3,52.1,26.4,52.1z"/>
	<path class="st0" d="M42.3,54.9c-0.6-0.1-1.2-0.1-1.6-0.3c-0.4-0.2-0.8-0.7-0.8-1c0-0.7,0.5-0.9,1.2-0.7c0.6,0.1,1.2,0.3,1.8,0.2
		c0.4-0.1,0.9-0.5,1-0.8s-0.3-0.9-0.6-1.1c-0.4-0.3-0.9-0.4-1.3-0.6c-1.5-0.6-2.2-1.6-2-2.9c0.1-1.2,1-2.1,2.5-2.4
		c0.8-0.1,1.7-0.1,2.5,0.1c0.3,0.1,0.5,0.7,0.7,1.1c-0.4,0.2-0.7,0.5-1.1,0.6c-0.5,0.1-1-0.1-1.4-0.1c-0.3,0.1-0.8,0.4-0.9,0.6
		c-0.1,0.3,0.2,0.7,0.5,1c0.4,0.3,0.9,0.5,1.4,0.7c1.6,0.7,2.3,1.7,2.1,3.1c-0.2,1.3-1.4,2.3-3,2.4C42.8,54.9,42.6,54.9,42.3,54.9
		L42.3,54.9z"/>
	<path class="st0" d="M66.2,51c0-0.8,0-1.7,0-2.5c0.1-1-0.3-1.3-1.3-1.3c-0.4,0-1.1-0.4-1.2-0.7c-0.3-0.6,0-1.2,0.9-1.2
		c1.8,0,3.6,0,5.4,0c0.7,0,1.1,0.3,1.1,1c0,0.8-0.4,1-1.1,0.9c-1.3-0.2-1.6,0.4-1.5,1.6c0.1,1.6,0,3.3,0.1,4.9
		c0,0.8-0.3,1.1-1.1,1.1c-0.8,0-1.2-0.3-1.1-1.1C66.2,52.8,66.2,51.9,66.2,51L66.2,51z"/>
	<path class="st0" d="M72.1,50c0-1.2,0-2.3,0-3.5c0-0.9,0.3-1.2,1.2-1.2c0.8,0,1.1,0.3,1.1,1.2c0,2.4,0,4.8,0,7.2
		c0,0.8-0.3,1.2-1.1,1.2c-0.8,0-1.2-0.3-1.1-1.1C72.1,52.4,72.1,51.2,72.1,50z"/>
	<ellipse class="st0" cx="33.3" cy="40.1" rx="10.8" ry="0.2"/>
	<ellipse class="st0" cx="14.3" cy="60.1" rx="7" ry="0.1"/>
	<ellipse class="st0" cx="48.8" cy="95.5" rx="2" ry="0.2"/>
	<path class="st0" d="M89.4,12.3c-3.3,1-6.5,2.8-9.6,0.4C82.9,12.6,86.1,12.4,89.4,12.3z"/>
	<path class="st0" d="M67.4,12.7c-1.5,0-3.1,0-4.7,0c0-0.1,0-0.2,0-0.3c0.8,0,1.5-0.1,2.3-0.1c0-0.1,0-0.2,0-0.3
		c-0.2-0.1-0.5-0.2-0.7-0.3c0-0.1,0.1-0.1,0.1-0.2C65.4,11.8,66.4,12.3,67.4,12.7z"/>
	<path class="st0" d="M55.6,7.5c1,0.1,2,0.1,2.2,1.7C56.9,8.6,56.2,8,55.6,7.5z"/>
	<path d="M82.5,50.1c-0.1,0.5-0.1,1-0.3,1.4c-0.3,0.9-0.9,1.6-2,1.6s-1.9-0.6-2.1-1.7c-0.2-1-0.2-2,0-2.9c0.2-1,0.9-1.7,2.1-1.6
		c1.1,0,1.6,0.7,2,1.6C82.4,49.1,82.4,49.6,82.5,50.1z"/>
	<path d="M7.5,50c0-0.7,0-1.4,0-2c0-0.9,0.4-1.1,1.2-1.1c1.8,0.1,2.8,1.2,2.8,3.1s-1.2,3.2-3,3.2c-0.7,0-1-0.3-1-1S7.5,50.8,7.5,50
		L7.5,50z"/>
	<path d="M60.1,47.7c0.2,0.8,0.5,1.6,0.6,2.4c0,0.2-0.5,0.6-0.7,0.6c-0.3,0-0.8-0.4-0.8-0.6c0.1-0.8,0.3-1.6,0.5-2.4
		C59.9,47.7,60,47.7,60.1,47.7z"/>
	<path d="M34.4,46.7C34.7,48,35,49,35.2,50c0,0.2-0.5,0.8-0.7,0.7c-0.3-0.1-0.9-0.5-0.9-0.7C33.7,48.9,34.1,47.9,34.4,46.7z"/>
</g>
</svg>
