<?xml version="1.0" encoding="iso-8859-1"?>
<!-- Generator: Adobe Illustrator 24.3.0, SVG Export Plug-In . SVG Version: 6.00 Build 0)  -->
<svg version="1.1" id="Layer_1" xmlns="http://www.w3.org/2000/svg" xmlns:xlink="http://www.w3.org/1999/xlink" x="0px" y="0px"
	 viewBox="0 0 666 666" style="enable-background:new 0 0 666 666;" xml:space="preserve">
<rect x="10.5" y="81.5" style="fill:none;stroke:#000000;stroke-miterlimit:10;" width="639" height="360"/>
<rect x="10.5" y="441.5" style="stroke:#FF0000;stroke-miterlimit:10;" width="639" height="125"/>
<g>
	<path style="fill:#FFFFFF;stroke:#FF0000;stroke-width:4;stroke-miterlimit:10;" d="M97,523H86.786
		c-7.951,0-9.786-2.333-9.786-8.361v-18.148c0-6.157,1.957-8.491,9.786-8.491H97v1H86.464c-7.445,0-9.464,2.03-9.464,7.679v17.77
		c0,5.521,1.893,7.552,9.464,7.552H97V523z"/>
	<path style="fill:#FFFFFF;stroke:#FF0000;stroke-width:4;stroke-miterlimit:10;" d="M118,488v26.687
		c0,4.8,2.582,7.999,11.968,7.999c9.386,0,12.032-3.199,12.032-7.999V488h1v26.687c0,5.184-2.853,8.64-13.033,8.64
		c-10.179,0-12.967-3.456-12.967-8.64V488H118z"/>
	<path style="fill:#FFFFFF;stroke:#FF0000;stroke-width:4;stroke-miterlimit:10;" d="M165,523v-35h14.667
		c5.018,0,7.333,3.112,7.333,7.389v5.39c0,3.797-0.833,6.287-4.166,7.22h0.763c5.694,0,8.403,2.303,8.403,6.66V523h-1v-8.664
		c0-4.267-2.221-6.336-7.043-6.336H166v15H165z M166,489v18h14.217c5.413,0,6.783-2.553,6.783-7.163v-4.36
		c0-3.862-2.152-6.477-6.783-6.477H166z"/>
	<path style="fill:#FFFFFF;stroke:#FF0000;stroke-width:4;stroke-miterlimit:10;" d="M213,488h15.652
		c8.796,0,10.348,4.019,10.348,9.009v17.176c0,4.991-1.423,8.815-10.348,8.815H213V488z M214,489v33h14.576
		c8.042,0,9.424-3.364,9.424-7.996v-16.818c0-4.632-1.508-8.186-9.424-8.186H214z"/>
	<path style="fill:#FFFFFF;stroke:#FF0000;stroke-width:4;stroke-miterlimit:10;" d="M299,512h-25v11l0,0v-13.805
		c0-2.398,0.38-4.407,1.078-6.287l4.059-10.628c0.951-2.399,1.712-4.279,4.629-4.279h6.215c2.79,0,3.551,1.815,4.566,4.343
		l4.376,10.564c0.697,1.88,1.078,3.889,1.078,6.287V523h-1V512z M274,511h25v-1.959c0-2.276-0.384-4.173-1.026-5.88l-4.423-10.304
		c-0.962-2.212-1.667-3.856-4.039-3.856h-6.282c-2.564,0-3.27,1.644-4.103,3.793l-4.103,10.367c-0.641,1.708-1.026,3.604-1.026,5.88
		V511z"/>
	<path style="fill:#FFFFFF;stroke:#FF0000;stroke-width:4;stroke-miterlimit:10;" d="M346,515.448V488h1v35l0,0v-6.591
		l-24.546-27.135c-0.13-0.128-0.195-0.191-0.325-0.191c-0.13,0-0.13,0.127-0.13,0.191V523h-1v-33.854c0-0.512,0.38-0.768,0.76-0.768
		c0.38,0,0.506,0.128,0.949,0.575L346,515.448z"/>
	<path style="fill:#FFFFFF;stroke:#FF0000;stroke-width:4;stroke-miterlimit:10;" d="M370,488h15.652
		c8.796,0,10.348,4.019,10.348,9.009v17.176c0,4.991-1.422,8.815-10.348,8.815H370V488z M371,489v33h14.576
		c8.042,0,9.424-3.364,9.424-7.996v-16.818c0-4.632-1.508-8.186-9.424-8.186H371z"/>
	<path style="fill:#FFFFFF;stroke:#FF0000;stroke-width:4;stroke-miterlimit:10;" d="M432,523v-35h13.061
		c6.727,0,7.939,3.072,7.939,6.783v4.096c0,2.561-0.424,4.864-3.879,5.824c6.727,0,7.879,3.136,7.879,7.359v4.456
		c0,3.824-1.187,6.481-8.188,6.481H432z M433,489v16h12.293c7.006,0,7.707-2.741,7.707-5.802v-4.08c0-3.442-1.274-6.119-7.707-6.119
		H433z M433,505v17h16.357c6.317,0,7.643-2.298,7.643-5.908v-4.201c0-3.939-1.201-6.891-7.579-6.891H433z"/>
	<path style="fill:#FFFFFF;stroke:#FF0000;stroke-width:4;stroke-miterlimit:10;" d="M478,523v-35h14.667
		c5.018,0,7.333,3.112,7.333,7.389v5.39c0,3.797-0.833,6.287-4.165,7.22h0.764c5.693,0,8.401,2.303,8.401,6.66V523h-1v-8.664
		c0-4.267-2.221-6.336-7.043-6.336H479v15H478z M479,489v18h14.217c5.413,0,6.783-2.553,6.783-7.163v-4.36
		c0-3.862-2.153-6.477-6.783-6.477H479z"/>
	<path style="fill:#FFFFFF;stroke:#FF0000;stroke-width:4;stroke-miterlimit:10;" d="M550,512h-25v11l0,0v-13.805
		c0-2.398,0.38-4.407,1.078-6.287l4.059-10.628c0.951-2.399,1.713-4.279,4.629-4.279h6.214c2.79,0,3.551,1.815,4.566,4.343
		l4.376,10.564c0.698,1.88,1.078,3.889,1.078,6.287V523h-1V512z M525,511h25v-1.959c0-2.276-0.384-4.173-1.025-5.88l-4.424-10.304
		c-0.961-2.212-1.667-3.856-4.038-3.856h-6.282c-2.565,0-3.269,1.644-4.103,3.793l-4.103,10.367
		c-0.642,1.708-1.025,3.604-1.025,5.88V511z"/>
	<path style="fill:#FFFFFF;stroke:#FF0000;stroke-width:4;stroke-miterlimit:10;" d="M579,489h-13v-1h27v1h-13v34h-1V489z"/>
</g>
<g>
	<path d="M181.368,205l53,53h-106l-53-53H181.368z M128,364h51l52,52H127l-52-52V258h53V364z"/>
	<path d="M308,284v-53h53v53h53v53h-53v53h-53v-53h-53v-53H308z"/>
	<path d="M434,417V258h53v106h53V258h-52l-53-53v-53l53-53v106h105v159l-53,53H434z"/>
</g>
<g>
</g>
<g>
</g>
<g>
</g>
<g>
</g>
<g>
</g>
<g>
</g>
<g>
</g>
<g>
</g>
<g>
</g>
<g>
</g>
<g>
</g>
</svg>
