<?xml version="1.0" encoding="utf-8"?>
<!-- Generator: Adobe Illustrator 18.0.0, SVG Export Plug-In . SVG Version: 6.00 Build 0)  -->
<!DOCTYPE svg PUBLIC "-//W3C//DTD SVG 1.1//EN" "http://www.w3.org/Graphics/SVG/1.1/DTD/svg11.dtd">
<svg version="1.1" id="Layer_1" xmlns="http://www.w3.org/2000/svg" xmlns:xlink="http://www.w3.org/1999/xlink" x="0px" y="0px"
	 viewBox="0 0 306 265" enable-background="new 0 0 306 265" xml:space="preserve">
<polygon fill="#FFFFFF" stroke="#000000" stroke-miterlimit="10" points="306,132.5 280.5,176.7 255,220.8 255,220.8 229.5,265 
	76.5,265 51,220.8 51,220.8 25.5,176.7 0,132.5 25.5,88.3 25.5,88.3 51,44.2 76.5,0 229.5,0 255,44.2 280.5,88.3 280.5,88.3 "/>
<line fill="none" stroke="#000000" stroke-miterlimit="10" x1="0" y1="132.5" x2="306" y2="132.5"/>
<polyline fill="none" stroke="#000000" stroke-miterlimit="10" points="25.5,176.7 76.5,176.7 127.5,176.7 178.5,176.7 229.5,176.7 
	280.5,176.7 "/>
<polyline fill="none" stroke="#000000" stroke-miterlimit="10" points="51,220.8 102,220.8 153,220.8 204,220.8 255,220.8 "/>
<polyline fill="none" stroke="#000000" stroke-miterlimit="10" points="229.5,265 178.5,265 127.5,265 76.5,265 "/>
<polyline fill="none" stroke="#000000" stroke-miterlimit="10" points="25.5,88.3 76.5,88.3 127.5,88.3 178.5,88.3 229.5,88.3 
	280.5,88.3 "/>
<polyline fill="none" stroke="#000000" stroke-miterlimit="10" points="51,44.2 102,44.2 153,44.2 204,44.2 255,44.2 "/>
<polyline fill="none" stroke="#000000" stroke-miterlimit="10" points="229.5,0 178.5,0 127.5,0 76.5,0 "/>
<polyline fill="none" stroke="#000000" stroke-miterlimit="10" points="306,132.5 280.5,88.3 280.5,88.3 255,44.2 229.5,0 "/>
<polyline fill="none" stroke="#000000" stroke-miterlimit="10" points="178.5,0 204,44.2 229.5,88.3 255,132.5 280.5,176.7 "/>
<polyline fill="none" stroke="#000000" stroke-miterlimit="10" points="127.5,0 153,44.2 178.5,88.3 178.5,88.3 204,132.5 
	229.5,176.7 255,220.8 255,220.8 "/>
<polyline fill="none" stroke="#000000" stroke-miterlimit="10" points="76.5,0 102,44.2 127.5,88.3 127.5,88.3 153,132.5 
	178.5,176.7 204,220.8 204,220.8 229.5,265 "/>
<polyline fill="none" stroke="#000000" stroke-miterlimit="10" points="178.5,265 153,220.8 153,220.8 127.5,176.7 102,132.5 
	76.5,88.3 51,44.2 "/>
<polyline fill="none" stroke="#000000" stroke-miterlimit="10" points="25.5,88.3 25.5,88.3 51,132.5 76.5,176.7 102,220.8 
	102,220.8 127.5,265 "/>
<polyline fill="none" stroke="#000000" stroke-miterlimit="10" points="76.5,265 51,220.8 51,220.8 25.5,176.7 0,132.5 "/>
<polyline fill="none" stroke="#000000" stroke-miterlimit="10" points="229.5,265 255,220.8 255,220.8 280.5,176.7 306,132.5 "/>
<polyline fill="none" stroke="#000000" stroke-miterlimit="10" points="0,132.5 25.5,88.3 25.5,88.3 51,44.2 76.5,0 "/>
<polyline fill="none" stroke="#000000" stroke-miterlimit="10" points="25.5,176.7 51,132.5 76.5,88.3 102,44.2 127.5,0 "/>
<polyline fill="none" stroke="#000000" stroke-miterlimit="10" points="51,220.8 51,220.8 76.5,176.7 102,132.5 127.5,88.3 
	127.5,88.3 153,44.2 178.5,0 "/>
<polyline fill="none" stroke="#000000" stroke-miterlimit="10" points="229.5,0 204,44.2 178.5,88.3 178.5,88.3 153,132.5 
	127.5,176.7 102,220.8 102,220.8 76.5,265 "/>
<polyline fill="none" stroke="#000000" stroke-miterlimit="10" points="127.5,265 153,220.8 153,220.8 178.5,176.7 204,132.5 
	229.5,88.3 255,44.2 "/>
<polyline fill="none" stroke="#000000" stroke-miterlimit="10" points="280.5,88.3 280.5,88.3 255,132.5 229.5,176.7 204,220.8 
	204,220.8 178.5,265 "/>
<line fill="none" stroke="#000000" stroke-miterlimit="10" x1="76.5" y1="0" x2="76.5" y2="265"/>
<polyline fill="none" stroke="#000000" stroke-miterlimit="10" points="102,265 102,220.8 102,220.8 102,176.7 102,132.5 102,88.3 
	102,44.2 102,0 "/>
<line fill="none" stroke="#000000" stroke-miterlimit="10" x1="127.5" y1="0" x2="127.5" y2="265"/>
<polyline fill="none" stroke="#000000" stroke-miterlimit="10" points="153,0 153,44.2 153,88.3 153,132.5 153,176.7 153,220.8 
	153,220.8 153,265 "/>
<line fill="none" stroke="#000000" stroke-miterlimit="10" x1="178.5" y1="0" x2="178.5" y2="265"/>
<polyline fill="none" stroke="#000000" stroke-miterlimit="10" points="204,0 204,44.2 204,88.3 204,132.5 204,176.7 204,220.8 
	204,220.8 204,265 "/>
<line fill="none" stroke="#000000" stroke-miterlimit="10" x1="229.5" y1="0" x2="229.5" y2="265"/>
<line fill="none" stroke="#000000" stroke-miterlimit="10" x1="255" y1="44.2" x2="255" y2="220.8"/>
<line fill="none" stroke="#000000" stroke-miterlimit="10" x1="280.5" y1="88.3" x2="280.5" y2="176.7"/>
<line fill="none" stroke="#000000" stroke-miterlimit="10" x1="51" y1="44.2" x2="51" y2="220.8"/>
<line fill="none" stroke="#000000" stroke-miterlimit="10" x1="25.5" y1="88.3" x2="25.5" y2="176.7"/>
<polyline fill="none" stroke="#000000" stroke-miterlimit="10" points="293.2,110.4 280.5,132.5 267.8,154.6 255,176.7 242.2,198.8 
	229.5,220.8 229.5,220.8 229.5,220.8 216.8,242.9 204,265 204,265 "/>
<polyline fill="none" stroke="#000000" stroke-miterlimit="10" points="267.8,66.2 255,88.3 242.2,110.4 229.5,132.5 216.8,154.6 
	204,176.7 191.2,198.8 178.5,220.8 178.5,220.8 178.5,220.8 165.8,242.9 153,265 153,265 "/>
<polyline fill="none" stroke="#000000" stroke-miterlimit="10" points="242.2,22.1 229.5,44.2 216.8,66.2 204,88.3 204,88.3 
	191.2,110.4 178.5,132.5 165.8,154.6 153,176.7 140.2,198.8 127.5,220.8 114.8,242.9 102,265 "/>
<polyline fill="none" stroke="#000000" stroke-miterlimit="10" points="204,0 204,0 191.2,22.1 178.5,44.2 165.8,66.2 153,88.3 
	153,88.3 140.2,110.4 127.5,132.5 114.8,154.6 102,176.7 89.2,198.8 76.5,220.8 63.8,242.9 "/>
<polyline fill="none" stroke="#000000" stroke-miterlimit="10" points="153,0 140.2,22.1 127.5,44.2 114.8,66.2 102,88.3 
	89.2,110.4 76.5,132.5 63.8,154.6 51,176.7 51,176.7 38.2,198.8 "/>
<polyline fill="none" stroke="#000000" stroke-miterlimit="10" points="102,0 102,0 89.2,22.1 76.5,44.2 63.8,66.2 51,88.3 51,88.3 
	38.2,110.4 25.5,132.5 12.8,154.6 "/>
<polyline fill="none" stroke="#000000" stroke-miterlimit="10" points="204,0 204,0 216.8,22.1 229.5,44.2 242.2,66.2 255,88.3 
	255,88.3 267.8,110.4 280.5,132.5 293.2,154.6 "/>
<polyline fill="none" stroke="#000000" stroke-miterlimit="10" points="153,0 165.8,22.1 178.5,44.2 191.2,66.2 204,88.3 204,88.3 
	216.8,110.4 229.5,132.5 242.2,154.6 255,176.7 267.8,198.8 "/>
<polyline fill="none" stroke="#000000" stroke-miterlimit="10" points="102,0 102,0 114.8,22.1 127.5,44.2 140.2,66.2 153,88.3 
	153,88.3 165.8,110.4 178.5,132.5 178.5,132.5 191.2,154.6 204,176.7 216.8,198.8 229.5,220.8 229.5,220.8 229.5,220.8 242.2,242.9 
	"/>
<polyline fill="none" stroke="#000000" stroke-miterlimit="10" points="63.8,22.1 76.5,44.2 89.2,66.2 102,88.3 102,88.3 
	114.8,110.4 127.5,132.5 127.5,132.5 140.2,154.6 153,176.7 165.8,198.8 178.5,220.8 178.5,220.8 178.5,220.8 191.2,242.9 204,265 
	"/>
<polyline fill="none" stroke="#000000" stroke-miterlimit="10" points="38.2,66.2 51,88.3 51,88.3 51,88.3 63.8,110.4 76.5,132.5 
	89.2,154.6 102,176.7 114.8,198.8 127.5,220.8 140.2,242.9 153,265 153,265 153,265 "/>
<polyline fill="none" stroke="#000000" stroke-miterlimit="10" points="12.8,110.4 25.5,132.5 38.2,154.6 51,176.7 51,176.7 
	63.8,198.8 76.5,220.8 89.2,242.9 102,265 "/>
</svg>
