<?xml version="1.0" encoding="utf-8"?>
<!-- Generator: Adobe Illustrator 18.0.0, SVG Export Plug-In . SVG Version: 6.00 Build 0)  -->
<!DOCTYPE svg PUBLIC "-//W3C//DTD SVG 1.1//EN" "http://www.w3.org/Graphics/SVG/1.1/DTD/svg11.dtd">
<svg version="1.1" xmlns="http://www.w3.org/2000/svg" xmlns:xlink="http://www.w3.org/1999/xlink" x="0px" y="0px"
	 viewBox="0 0 306 265" enable-background="new 0 0 306 265" xml:space="preserve">
<g id="Layer_3">
	<polygon fill="#FFFFFF" stroke="#000000" stroke-miterlimit="10" points="76.5,265 0,132.5 76.5,0 229.5,0 306,132.5 229.5,265 	
		"/>
</g>
<g id="Layer_1">
	<line fill="none" stroke="#000000" stroke-miterlimit="10" x1="153" y1="0" x2="153" y2="265"/>
	<line fill="none" stroke="#000000" stroke-miterlimit="10" x1="0" y1="132.5" x2="306" y2="132.5"/>
	<line fill="none" stroke="#000000" stroke-miterlimit="10" x1="229.5" y1="0" x2="76.5" y2="265"/>
	<line fill="none" stroke="#000000" stroke-miterlimit="10" x1="76.5" y1="0" x2="229.5" y2="265"/>
	<line fill="none" stroke="#000000" stroke-miterlimit="10" x1="229.5" y1="0" x2="229.5" y2="265"/>
	<line fill="none" stroke="#000000" stroke-miterlimit="10" x1="76.5" y1="0" x2="76.5" y2="265"/>
	<line fill="none" stroke="#000000" stroke-miterlimit="10" x1="38.2" y1="198.8" x2="267.8" y2="198.8"/>
	<line fill="none" stroke="#000000" stroke-miterlimit="10" x1="38.2" y1="66.2" x2="267.7" y2="66.2"/>
	<line fill="none" stroke="#000000" stroke-miterlimit="10" x1="153" y1="265" x2="38.2" y2="66.2"/>
	<line fill="none" stroke="#000000" stroke-miterlimit="10" x1="153" y1="265" x2="267.7" y2="66.2"/>
	<line fill="none" stroke="#000000" stroke-miterlimit="10" x1="153" y1="0" x2="267.8" y2="198.8"/>
	<line fill="none" stroke="#000000" stroke-miterlimit="10" x1="153" y1="0" x2="38.2" y2="198.8"/>
	<line fill="none" stroke="#000000" stroke-miterlimit="10" x1="267.7" y1="66.2" x2="267.7" y2="198.8"/>
	<line fill="none" stroke="#000000" stroke-miterlimit="10" x1="38.2" y1="66.2" x2="38.2" y2="198.8"/>
	<line fill="none" stroke="#000000" stroke-miterlimit="10" x1="191.3" y1="0" x2="191.3" y2="265"/>
	<line fill="none" stroke="#000000" stroke-miterlimit="10" x1="114.7" y1="0" x2="114.7" y2="265"/>
</g>
</svg>
