<?xml version="1.0" encoding="utf-8"?>
<!-- Generator: Adobe Illustrator 18.0.0, SVG Export Plug-In . SVG Version: 6.00 Build 0)  -->
<!DOCTYPE svg PUBLIC "-//W3C//DTD SVG 1.1//EN" "http://www.w3.org/Graphics/SVG/1.1/DTD/svg11.dtd">
<svg version="1.1" xmlns="http://www.w3.org/2000/svg" xmlns:xlink="http://www.w3.org/1999/xlink" x="0px" y="0px"
	 viewBox="0 0 306 265" enable-background="new 0 0 306 265" xml:space="preserve">
<g id="Layer_3">
	<polygon fill="#FFFFFF" stroke="#000000" stroke-miterlimit="10" points="306,132.5 280.5,176.7 255,220.8 255,220.8 229.5,265 
		76.5,265 51,220.8 51,220.8 25.5,176.7 0,132.5 25.5,88.3 25.5,88.3 51,44.2 76.5,0 229.5,0 255,44.2 280.5,88.3 280.5,88.3 	"/>
	<line fill="none" stroke="#000000" stroke-miterlimit="10" x1="0" y1="132.5" x2="306" y2="132.5"/>
	<polyline fill="none" stroke="#000000" stroke-miterlimit="10" points="25.5,176.7 76.5,176.7 127.5,176.7 178.5,176.7 
		229.5,176.7 280.5,176.7 	"/>
	<polyline fill="none" stroke="#000000" stroke-miterlimit="10" points="51,220.8 102,220.8 153,220.8 204,220.8 255,220.8 	"/>
	<polyline fill="none" stroke="#000000" stroke-miterlimit="10" points="229.5,265 178.5,265 127.5,265 76.5,265 	"/>
	<polyline fill="none" stroke="#000000" stroke-miterlimit="10" points="25.5,88.3 76.5,88.3 127.5,88.3 178.5,88.3 229.5,88.3 
		280.5,88.3 	"/>
	<polyline fill="none" stroke="#000000" stroke-miterlimit="10" points="51,44.2 102,44.2 153,44.2 204,44.2 255,44.2 	"/>
	<polyline fill="none" stroke="#000000" stroke-miterlimit="10" points="229.5,0 178.5,0 127.5,0 76.5,0 	"/>
	<polyline fill="none" stroke="#000000" stroke-miterlimit="10" points="306,132.5 280.5,88.3 280.5,88.3 255,44.2 229.5,0 	"/>
	<polyline fill="none" stroke="#000000" stroke-miterlimit="10" points="178.5,0 204,44.2 229.5,88.3 255,132.5 280.5,176.7 	"/>
	<polyline fill="none" stroke="#000000" stroke-miterlimit="10" points="127.5,0 153,44.2 178.5,88.3 178.5,88.3 204,132.5 
		229.5,176.7 255,220.8 255,220.8 	"/>
	<polyline fill="none" stroke="#000000" stroke-miterlimit="10" points="76.5,0 102,44.2 127.5,88.3 127.5,88.3 153,132.5 
		178.5,176.7 204,220.8 204,220.8 229.5,265 	"/>
	<polyline fill="none" stroke="#000000" stroke-miterlimit="10" points="178.5,265 153,220.8 153,220.8 127.5,176.7 102,132.5 
		76.5,88.3 51,44.2 	"/>
	<polyline fill="none" stroke="#000000" stroke-miterlimit="10" points="25.5,88.3 25.5,88.3 51,132.5 76.5,176.7 102,220.8 
		102,220.8 127.5,265 	"/>
	<polyline fill="none" stroke="#000000" stroke-miterlimit="10" points="76.5,265 51,220.8 51,220.8 25.5,176.7 0,132.5 	"/>
	<polyline fill="none" stroke="#000000" stroke-miterlimit="10" points="229.5,265 255,220.8 255,220.8 280.5,176.7 306,132.5 	"/>
	<polyline fill="none" stroke="#000000" stroke-miterlimit="10" points="0,132.5 25.5,88.3 25.5,88.3 51,44.2 76.5,0 	"/>
	<polyline fill="none" stroke="#000000" stroke-miterlimit="10" points="25.5,176.7 51,132.5 76.5,88.3 102,44.2 127.5,0 	"/>
	<polyline fill="none" stroke="#000000" stroke-miterlimit="10" points="51,220.8 51,220.8 76.5,176.7 102,132.5 127.5,88.3 
		127.5,88.3 153,44.2 178.5,0 	"/>
	<polyline fill="none" stroke="#000000" stroke-miterlimit="10" points="229.5,0 204,44.2 178.5,88.3 178.5,88.3 153,132.5 
		127.5,176.7 102,220.8 102,220.8 76.5,265 	"/>
	<polyline fill="none" stroke="#000000" stroke-miterlimit="10" points="127.5,265 153,220.8 153,220.8 178.5,176.7 204,132.5 
		229.5,88.3 255,44.2 	"/>
	<polyline fill="none" stroke="#000000" stroke-miterlimit="10" points="280.5,88.3 280.5,88.3 255,132.5 229.5,176.7 204,220.8 
		204,220.8 178.5,265 	"/>
</g>
<g id="Layer_1">
</g>
<g id="Layer_4">
</g>
<g id="Layer_4_copy">
</g>
<g id="Layer_5">
</g>
</svg>
