<?xml version="1.0" standalone="no"?>
<!DOCTYPE svg PUBLIC "-//W3C//DTD SVG 1.1//EN" "http://www.w3.org/Graphics/SVG/1.1/DTD/svg11.dtd">
<svg width="265" height="306" viewBox="0 0 265 306" version="1.1" xmlns="http://www.w3.org/2000/svg" xmlns:xlink="http://www.w3.org/1999/xlink" xml:space="preserve" style="fill-rule:evenodd;clip-rule:evenodd;stroke-linecap:round;stroke-linejoin:round;stroke-miterlimit:1.41421;">
    <g id="Layer10">
        <path d="M132.502,153L132.502,0L0,76.5L132.502,153ZM99.376,57.375L66.251,76.5L99.376,95.625L99.376,57.375Z" style="fill:white;stroke-width:2.08px;stroke:black;"/>
        <g transform="matrix(1,0,0,1,132.502,76.5)">
            <path d="M132.502,153L132.502,0L0,76.5L132.502,153ZM99.376,57.375L66.251,76.5L99.376,95.625L99.376,57.375Z" style="fill:white;stroke-width:2.08px;stroke:black;"/>
        </g>
        <g transform="matrix(1,0,0,1,-5.63993e-14,153)">
            <path d="M132.502,153L132.502,0L0,76.5L132.502,153ZM99.376,57.375L66.251,76.5L99.376,95.625L99.376,57.375Z" style="fill:white;stroke-width:2.08px;stroke:black;"/>
        </g>
        <path d="M132.502,0L132.502,153L265.004,76.5L132.502,0ZM165.627,57.375L165.627,95.625L198.753,76.5L165.627,57.375Z" style="fill:white;stroke-width:2.08px;stroke:black;"/>
        <g transform="matrix(1,0,0,1,-5.63993e-14,153)">
            <path d="M132.502,0L132.502,153L265.004,76.5L132.502,0ZM165.627,57.375L165.627,95.625L198.753,76.5L165.627,57.375Z" style="fill:white;stroke-width:2.08px;stroke:black;"/>
        </g>
        <g transform="matrix(1,0,0,1,-132.502,76.5)">
            <path d="M132.502,0L132.502,153L265.004,76.5L132.502,0ZM165.627,57.375L165.627,95.625L198.753,76.5L165.627,57.375Z" style="fill:white;stroke-width:2.08px;stroke:black;"/>
        </g>
        <path d="M99.376,57.375L66.251,76.5L99.376,95.625L99.376,57.375Z" style="fill:white;stroke-width:2.08px;stroke:black;"/>
        <path d="M165.627,57.375L165.627,95.625L198.753,76.5L165.627,57.375Z" style="fill:white;stroke-width:2.08px;stroke:black;"/>
        <path d="M231.878,133.875L198.753,153L231.878,172.125L231.878,133.875Z" style="fill:white;stroke-width:2.08px;stroke:black;"/>
        <path d="M165.627,210.375L165.627,248.625L198.753,229.5L165.627,210.375" style="fill:white;stroke-width:2.08px;stroke:black;"/>
        <path d="M99.376,210.375L99.376,248.625L66.251,229.5L99.376,210.375" style="fill:white;stroke-width:2.08px;stroke:black;"/>
        <path d="M66.251,153L33.125,133.875L33.125,172.125L66.251,153Z" style="fill:white;stroke-width:2.08px;stroke:black;"/>
    </g>
</svg>
