<?xml version="1.0" encoding="utf-8"?>
<!-- Generator: Adobe Illustrator 18.0.0, SVG Export Plug-In . SVG Version: 6.00 Build 0)  -->
<!DOCTYPE svg PUBLIC "-//W3C//DTD SVG 1.1//EN" "http://www.w3.org/Graphics/SVG/1.1/DTD/svg11.dtd">
<svg version="1.1" id="Layer_1" xmlns="http://www.w3.org/2000/svg" xmlns:xlink="http://www.w3.org/1999/xlink" x="0px" y="0px"
	 viewBox="0 0 1000 900" enable-background="new 0 0 1000 900" xml:space="preserve">
<polygon fill="none" stroke="#000000" stroke-width="6.28" stroke-linecap="round" stroke-miterlimit="10" points="175.4,250.8 
	282.1,-0.4 388.9,250.8 "/>
<polygon fill="none" stroke="#000000" stroke-width="6.28" stroke-linecap="round" stroke-miterlimit="10" points="297.4,250.8 
	404.2,-0.4 510.9,250.8 "/>
<polygon fill="none" stroke="#000000" stroke-width="6.28" stroke-linecap="round" stroke-miterlimit="10" points="419.4,250.8 
	526.2,-0.4 632.9,250.8 "/>
<polygon fill="none" stroke="#000000" stroke-width="6.28" stroke-linecap="round" stroke-miterlimit="10" points="541.4,250.8 
	648.2,-0.4 755,250.8 "/>
<polygon fill="none" stroke="#000000" stroke-width="6.28" stroke-linecap="round" stroke-miterlimit="10" points="663.5,250.8 
	770.2,-0.4 877,250.8 "/>
<polygon fill="none" stroke="#000000" stroke-width="6.28" stroke-linecap="round" stroke-miterlimit="10" points="785.5,250.8 
	892.2,-0.4 999,250.8 "/>
<polygon fill="none" stroke="#000000" stroke-width="6.28" stroke-linecap="round" stroke-miterlimit="10" points="53.4,466 
	160.1,214.9 266.9,466 "/>
<polygon fill="none" stroke="#000000" stroke-width="6.28" stroke-linecap="round" stroke-miterlimit="10" points="175.4,466 
	282.1,214.9 388.9,466 "/>
<polygon fill="none" stroke="#000000" stroke-width="6.28" stroke-linecap="round" stroke-miterlimit="10" points="297.4,466 
	404.2,214.9 510.9,466 "/>
<polygon fill="none" stroke="#000000" stroke-width="6.28" stroke-linecap="round" stroke-miterlimit="10" points="419.4,466 
	526.2,214.9 632.9,466 "/>
<polygon fill="none" stroke="#000000" stroke-width="6.28" stroke-linecap="round" stroke-miterlimit="10" points="541.4,466 
	648.2,214.9 755,466 "/>
<polygon fill="none" stroke="#000000" stroke-width="6.28" stroke-linecap="round" stroke-miterlimit="10" points="663.5,466 
	770.2,214.9 877,466 "/>
<polygon fill="none" stroke="#000000" stroke-width="6.28" stroke-linecap="round" stroke-miterlimit="10" points="785.5,466 
	892.2,214.9 999,466 "/>
<polygon fill="none" stroke="#000000" stroke-width="6.28" stroke-linecap="round" stroke-miterlimit="10" points="53.4,681.3 
	194.7,511.5 301.5,762.6 "/>
<polygon fill="none" stroke="#000000" stroke-width="6.28" stroke-linecap="round" stroke-miterlimit="10" points="175.4,681.3 
	282.1,430.2 388.9,681.3 "/>
<polygon fill="none" stroke="#000000" stroke-width="6.28" stroke-linecap="round" stroke-miterlimit="10" points="297.4,681.3 
	404.2,430.2 510.9,681.3 "/>
<polygon fill="none" stroke="#000000" stroke-width="6.28" stroke-linecap="round" stroke-miterlimit="10" points="419.4,681.3 
	526.2,430.2 632.9,681.3 "/>
<polygon fill="none" stroke="#000000" stroke-width="6.28" stroke-linecap="round" stroke-miterlimit="10" points="541.4,681.3 
	648.2,430.2 755,681.3 "/>
<polygon fill="none" stroke="#000000" stroke-width="6.28" stroke-linecap="round" stroke-miterlimit="10" points="663.5,681.3 
	770.2,430.2 877,681.3 "/>
<polygon fill="none" stroke="#000000" stroke-width="6.28" stroke-linecap="round" stroke-miterlimit="10" points="785.5,681.3 
	892.2,430.2 999,681.3 "/>
<polygon fill="none" stroke="#000000" stroke-width="6.28" stroke-linecap="round" stroke-miterlimit="10" points="53.4,896.6 
	160.1,645.4 266.9,896.6 "/>
<polygon fill="none" stroke="#000000" stroke-width="6.28" stroke-linecap="round" stroke-miterlimit="10" points="175.4,896.6 
	282.1,645.4 388.9,896.6 "/>
<polygon fill="none" stroke="#000000" stroke-width="6.28" stroke-linecap="round" stroke-miterlimit="10" points="419.4,896.6 
	526.2,645.4 632.9,896.6 "/>
<polygon fill="none" stroke="#000000" stroke-width="6.28" stroke-linecap="round" stroke-miterlimit="10" points="541.4,896.6 
	648.2,645.4 755,896.6 "/>
<polygon fill="none" stroke="#000000" stroke-width="6.28" stroke-linecap="round" stroke-miterlimit="10" points="663.5,896.6 
	770.2,645.4 877,896.6 "/>
<polygon fill="none" stroke="#000000" stroke-width="6.28" stroke-linecap="round" stroke-miterlimit="10" points="53.4,250.8 
	114.4,107.2 175.4,250.8 "/>
<polygon fill="none" stroke="#000000" stroke-width="6.28" stroke-linecap="round" stroke-miterlimit="10" points="175.4,250.8 
	236.4,107.2 297.4,250.8 "/>
<polygon fill="none" stroke="#000000" stroke-width="6.28" stroke-linecap="round" stroke-miterlimit="10" points="297.4,250.8 
	358.4,107.2 419.4,250.8 "/>
<polygon fill="none" stroke="#000000" stroke-width="6.28" stroke-linecap="round" stroke-miterlimit="10" points="419.4,250.8 
	480.4,107.2 541.4,250.8 "/>
<polygon fill="none" stroke="#000000" stroke-width="6.28" stroke-linecap="round" stroke-miterlimit="10" points="541.4,250.8 
	602.4,107.2 663.5,250.8 "/>
<polygon fill="none" stroke="#000000" stroke-width="6.28" stroke-linecap="round" stroke-miterlimit="10" points="663.5,250.8 
	724.5,107.2 785.5,250.8 "/>
<polygon fill="none" stroke="#000000" stroke-width="6.28" stroke-linecap="round" stroke-miterlimit="10" points="785.5,250.8 
	846.5,107.2 907.5,250.8 "/>
<polygon fill="none" stroke="#000000" stroke-width="6.28" stroke-linecap="round" stroke-miterlimit="10" points="53.4,536.1 
	114.4,392.6 175.4,534.7 "/>
<polygon fill="none" stroke="#000000" stroke-width="6.28" stroke-linecap="round" stroke-miterlimit="10" points="176.6,466 
	236.4,466.9 298.6,610.4 "/>
<polygon fill="none" stroke="#000000" stroke-width="6.28" stroke-linecap="round" stroke-miterlimit="10" points="297.4,536.1 
	358.4,392.6 419.4,466 "/>
<polygon fill="none" stroke="#000000" stroke-width="6.28" stroke-linecap="round" stroke-miterlimit="10" points="434.9,645.4 
	480.4,322.5 556.9,645.4 "/>
<polygon fill="none" stroke="#000000" stroke-width="6.28" stroke-linecap="round" stroke-miterlimit="10" points="541.4,571.2 
	602.4,322.5 663.5,571.2 "/>
<polygon fill="none" stroke="#000000" stroke-width="6.28" stroke-linecap="round" stroke-miterlimit="10" points="663.5,466 
	724.5,322.5 785.5,466 "/>
<polygon fill="none" stroke="#000000" stroke-width="6.28" stroke-linecap="round" stroke-miterlimit="10" points="785.5,466 
	846.5,322.5 907.5,466 "/>
<polygon fill="none" stroke="#000000" stroke-width="6.28" stroke-linecap="round" stroke-miterlimit="10" points="53.4,681.3 
	114.4,537.8 175.4,681.3 "/>
<polygon fill="none" stroke="#000000" stroke-width="6.28" stroke-linecap="round" stroke-miterlimit="10" points="175.4,681.3 
	236.4,537.8 297.4,681.3 "/>
<polygon fill="none" stroke="#000000" stroke-width="6.28" stroke-linecap="round" stroke-miterlimit="10" points="297.4,681.3 
	358.4,537.8 419.4,681.3 "/>
<polygon fill="none" stroke="#000000" stroke-width="6.28" stroke-linecap="round" stroke-miterlimit="10" points="419.4,681.3 
	480.4,537.8 541.4,681.3 "/>
<polygon fill="none" stroke="#000000" stroke-width="6.28" stroke-linecap="round" stroke-miterlimit="10" points="541.4,681.3 
	602.4,537.8 663.5,681.3 "/>
<polygon fill="none" stroke="#000000" stroke-width="6.28" stroke-linecap="round" stroke-miterlimit="10" points="663.5,681.3 
	724.5,537.8 785.5,681.3 "/>
<polygon fill="none" stroke="#000000" stroke-width="6.28" stroke-linecap="round" stroke-miterlimit="10" points="785.5,681.3 
	846.5,537.8 907.5,681.3 "/>
<polygon fill="none" stroke="#000000" stroke-width="6.28" stroke-linecap="round" stroke-miterlimit="10" points="53.4,896.6 
	114.4,753.1 175.4,896.6 "/>
<polygon fill="none" stroke="#000000" stroke-width="6.28" stroke-linecap="round" stroke-miterlimit="10" points="175.4,896.6 
	236.4,753.1 297.4,896.6 "/>
<polygon fill="none" stroke="#000000" stroke-width="6.28" stroke-linecap="round" stroke-miterlimit="10" points="297.4,896.6 
	358.4,753.1 419.4,896.6 "/>
<polygon fill="none" stroke="#000000" stroke-width="6.28" stroke-linecap="round" stroke-miterlimit="10" points="419.4,896.6 
	480.4,753.1 541.4,896.6 "/>
<polygon fill="none" stroke="#000000" stroke-width="6.28" stroke-linecap="round" stroke-miterlimit="10" points="541.4,896.6 
	602.4,753.1 663.5,896.6 "/>
<polygon fill="none" stroke="#000000" stroke-width="6.28" stroke-linecap="round" stroke-miterlimit="10" points="663.5,896.6 
	724.5,753.1 785.5,896.6 "/>
<polygon fill="none" stroke="#000000" stroke-width="6.28" stroke-linecap="round" stroke-miterlimit="10" points="53.4,250.8 
	68.6,214.9 83.9,250.8 "/>
<polygon fill="none" stroke="#000000" stroke-width="6.28" stroke-linecap="round" stroke-miterlimit="10" points="175.4,250.8 
	190.6,214.9 205.9,250.8 "/>
<polygon fill="none" stroke="#000000" stroke-width="6.28" stroke-linecap="round" stroke-miterlimit="10" points="297.4,250.8 
	312.7,214.9 327.9,250.8 "/>
<polygon fill="none" stroke="#000000" stroke-width="6.28" stroke-linecap="round" stroke-miterlimit="10" points="419.4,250.8 
	434.7,214.9 449.9,250.8 "/>
<polygon fill="none" stroke="#000000" stroke-width="6.28" stroke-linecap="round" stroke-miterlimit="10" points="541.4,250.8 
	556.7,214.9 571.9,250.8 "/>
<polygon fill="none" stroke="#000000" stroke-width="6.28" stroke-linecap="round" stroke-miterlimit="10" points="663.5,250.8 
	678.7,214.9 694,250.8 "/>
<polygon fill="none" stroke="#000000" stroke-width="6.28" stroke-linecap="round" stroke-miterlimit="10" points="785.5,250.8 
	800.7,214.9 816,250.8 "/>
<polygon fill="none" stroke="#000000" stroke-width="6.28" stroke-linecap="round" stroke-miterlimit="10" points="53.4,466 
	68.6,430.2 83.9,466 "/>
<polygon fill="none" stroke="#000000" stroke-width="6.28" stroke-linecap="round" stroke-miterlimit="10" points="175.4,466 
	190.6,430.2 205.9,466 "/>
<polygon fill="none" stroke="#000000" stroke-width="6.28" stroke-linecap="round" stroke-miterlimit="10" points="297.4,466 
	312.7,430.2 327.9,466 "/>
<polygon fill="none" stroke="#000000" stroke-width="6.28" stroke-linecap="round" stroke-miterlimit="10" points="419.4,466 
	434.7,430.2 449.9,466 "/>
<polygon fill="none" stroke="#000000" stroke-width="6.28" stroke-linecap="round" stroke-miterlimit="10" points="541.4,466 
	556.7,430.2 571.9,466 "/>
<polygon fill="none" stroke="#000000" stroke-width="6.28" stroke-linecap="round" stroke-miterlimit="10" points="663.5,466 
	678.7,430.2 694,466 "/>
<polygon fill="none" stroke="#000000" stroke-width="6.28" stroke-linecap="round" stroke-miterlimit="10" points="785.5,466 
	800.7,430.2 816,466 "/>
<polygon fill="none" stroke="#000000" stroke-width="6.28" stroke-linecap="round" stroke-miterlimit="10" points="53.4,681.3 
	68.6,645.4 83.9,681.3 "/>
<polygon fill="none" stroke="#000000" stroke-width="6.28" stroke-linecap="round" stroke-miterlimit="10" points="175.4,681.3 
	190.6,645.4 205.9,681.3 "/>
<polygon fill="none" stroke="#000000" stroke-width="6.28" stroke-linecap="round" stroke-miterlimit="10" points="297.4,681.3 
	312.7,645.4 327.9,681.3 "/>
<polygon fill="none" stroke="#000000" stroke-width="6.28" stroke-linecap="round" stroke-miterlimit="10" points="419.4,681.3 
	434.7,645.4 449.9,681.3 "/>
<polygon fill="none" stroke="#000000" stroke-width="6.28" stroke-linecap="round" stroke-miterlimit="10" points="541.4,681.3 
	556.7,645.4 571.9,681.3 "/>
<polygon fill="none" stroke="#000000" stroke-width="6.28" stroke-linecap="round" stroke-miterlimit="10" points="663.5,681.3 
	678.7,645.4 694,681.3 "/>
<polygon fill="none" stroke="#000000" stroke-width="6.28" stroke-linecap="round" stroke-miterlimit="10" points="785.5,681.3 
	800.7,645.4 816,681.3 "/>
<polygon fill="none" stroke="#000000" stroke-width="6.28" stroke-linecap="round" stroke-miterlimit="10" points="53.4,896.6 
	68.6,860.7 83.9,896.6 "/>
<polygon fill="none" stroke="#000000" stroke-width="6.28" stroke-linecap="round" stroke-miterlimit="10" points="175.4,896.6 
	190.6,860.7 205.9,896.6 "/>
<polygon fill="none" stroke="#000000" stroke-width="6.28" stroke-linecap="round" stroke-miterlimit="10" points="297.4,896.6 
	312.7,860.7 327.9,896.6 "/>
<polygon fill="none" stroke="#000000" stroke-width="6.28" stroke-linecap="round" stroke-miterlimit="10" points="419.4,896.6 
	434.7,860.7 449.9,896.6 "/>
<polygon fill="none" stroke="#000000" stroke-width="6.28" stroke-linecap="round" stroke-miterlimit="10" points="541.4,896.6 
	556.7,860.7 571.9,896.6 "/>
<polygon fill="none" stroke="#000000" stroke-width="6.28" stroke-linecap="round" stroke-miterlimit="10" points="663.5,896.6 
	678.7,860.7 694,896.6 "/>
<polygon fill="none" stroke="#000000" stroke-width="6.28" stroke-linecap="round" stroke-miterlimit="10" points="53.4,250.8 
	22.9,322.5 -7.6,250.8 "/>
</svg>
