<?xml version="1.0" encoding="utf-8"?>
<!-- Generator: Adobe Illustrator 18.0.0, SVG Export Plug-In . SVG Version: 6.00 Build 0)  -->
<!DOCTYPE svg PUBLIC "-//W3C//DTD SVG 1.1//EN" "http://www.w3.org/Graphics/SVG/1.1/DTD/svg11.dtd">
<svg version="1.1" id="Layer_1" xmlns="http://www.w3.org/2000/svg" xmlns:xlink="http://www.w3.org/1999/xlink" x="0px" y="0px"
	 viewBox="0 0 1000 900" enable-background="new 0 0 1000 900" xml:space="preserve">
<polygon fill="#EE3D23" points="38.6,278 174.2,43.2 309.7,278 "/>
<polygon fill="#EE3D23" points="270,684.2 348.3,300.2 426.7,684.2 "/>
<polygon fill="#EE3D23" points="407.1,469.2 485.4,336.7 563.8,469.2 "/>
<polygon fill="#EE3D23" points="485.4,647.7 563.8,469.2 642.1,647.7 "/>
<polygon fill="#EE3D23" points="563.8,469.2 667.9,351.1 772,469.2 "/>
<polygon fill="#EE3D23" points="974.4,507.7 829.1,275.3 974.9,43.2 "/>
<polygon fill="#EE3D23" points="867.9,128.5 717.9,357.9 446,323 "/>
<polygon fill="#EE3D23" points="875.5,702.3 930.1,669.5 983.5,704.3 "/>
<polygon fill="#EE3D23" points="810.6,748.6 865.2,715.8 918.5,750.7 "/>
<polygon fill="#EE3D23" points="738.4,796.1 793,763.3 846.3,798.1 "/>
<polygon fill="#EE3D23" points="656.9,838.3 711.6,805.5 764.9,840.4 "/>
<polygon fill="#EE3D23" points="436.6,793 573,711.1 706.1,798.1 "/>
<polygon fill="#EE3D23" points="11.5,836.5 54.7,663.1 91.2,838 "/>
<polygon fill="#EE3D23" points="637.2,677.9 839.6,399.6 764,735.3 "/>
<polygon fill="#EE3D23" points="147.5,605.7 125.7,706.2 99.4,606.7 "/>
<polygon fill="#EE3D23" points="178.5,711.4 155.4,755.2 130.3,712.4 "/>
<polygon fill="#EE3D23" points="208.4,761.7 185.3,805.5 160.2,762.8 "/>
<polygon fill="#EE3D23" points="237.3,711.4 214.1,755.2 189.1,712.4 "/>
<polygon fill="#EE3D23" points="208.2,665 185.1,708.8 160.1,666 "/>
<polygon fill="#EE3D23" points="267.4,664 244.3,707.8 219.2,665 "/>
<polygon fill="#EE3D23" points="597.1,215.3 309.7,267.7 436.3,4.4 "/>
<polygon fill="#EE3D23" points="146.9,596.2 111.8,379.9 314.5,296.6 "/>
</svg>
