<?xml version="1.0" encoding="utf-8"?>
<!-- Generator: Adobe Illustrator 18.0.0, SVG Export Plug-In . SVG Version: 6.00 Build 0)  -->
<!DOCTYPE svg PUBLIC "-//W3C//DTD SVG 1.1//EN" "http://www.w3.org/Graphics/SVG/1.1/DTD/svg11.dtd">
<svg version="1.1" id="Layer_1" xmlns="http://www.w3.org/2000/svg" xmlns:xlink="http://www.w3.org/1999/xlink" x="0px" y="0px"
	 viewBox="0 0 1000 900" enable-background="new 0 0 1000 900" xml:space="preserve">
<polygon fill="none" stroke="#010101" stroke-width="6.28" stroke-linecap="round" stroke-miterlimit="10" points="481.7,756.5 
	85.1,900 191.9,864.1 207.1,900 176.6,900 115.6,756.5 85.1,684.7 69.9,648.8 237.6,756.5 298.7,900 329.2,900 313.9,864.1 
	268.1,900 161.4,648.8 191.9,648.8 207.1,684.7 176.6,684.7 115.6,541.2 85.1,469.4 69.9,433.6 24.1,325.9 0,256 69.9,218.3 
	85.1,254.2 115.6,325.9 176.6,469.4 207.1,469.4 191.9,433.6 161.4,433.6 268.1,684.7 329.2,684.7 313.9,648.8 283.4,648.8 
	390.2,900 435.9,864.1 451.2,900 420.7,900 359.7,756.5 390.2,684.7 283.4,433.6 313.9,433.6 329.2,469.4 298.7,469.4 237.6,325.9 
	0,3 69.9,218.3 237.6,325.9 187.2,153.7 283.4,218.3 217.1,493.4 237.6,541.2 298.7,684.7 302.5,689.3 658.8,753.7 467.6,648.1 
	481.7,541.2 542.7,684.7 481.9,721.8 405.4,433.6 435.9,433.6 451.2,469.4 420.7,469.4 359.7,325.9 390.2,254.2 283.4,3 
	237.6,110.6 298.7,254.2 329.2,254.2 313.9,218.3 283.4,218.3 390.2,469.4 359.7,541.2 420.7,684.7 451.2,684.7 435.9,648.8 
	405.4,648.8 512.2,900 542.7,900 481.7,756.5 573.2,900 557.9,864.1 658.8,753.7 664.7,900 695.2,900 680,864.1 634.2,900 
	527.4,648.8 557.9,648.8 573.2,684.7 634.2,684.7 527.4,433.6 557.9,433.6 573.2,469.4 634.2,469.4 527.4,218.3 557.9,218.3 
	573.2,254.2 634.2,254.2 527.4,3 481.7,110.6 542.7,254.2 512.2,254.2 405.4,3 359.7,110.6 420.7,254.2 451.2,254.2 435.9,218.3 
	405.4,218.3 512.2,469.4 542.7,469.4 481.7,325.9 603.7,325.9 664.7,469.4 695.2,469.4 680,433.6 649.5,433.6 756.2,684.7 
	1000.3,794.2 786.7,900 756.2,900 649.5,648.8 680,648.8 695.2,684.7 664.7,684.7 603.7,541.2 847.7,325.9 908.7,469.4 878.2,469.4 
	771.5,218.3 802,218.3 817.2,254.2 786.7,254.2 725.7,110.6 771.5,3 878.2,254.2 908.7,254.2 847.7,110.6 893.5,3 1000.3,254.2 
	893.5,218.3 1000.3,469.4 893.5,433.6 1000.3,684.7 847.7,541.2 908.7,684.7 878.2,684.7 771.5,433.6 802,433.6 817.2,469.4 
	786.7,469.4 725.7,325.9 756.2,254.2 649.5,3 603.7,110.6 664.7,254.2 695.2,254.2 680,218.3 649.5,218.3 756.2,469.4 725.7,541.2 
	786.7,684.7 817.2,684.7 802,648.8 771.5,648.8 878.2,900 "/>
</svg>
