<?xml version="1.0" encoding="utf-8"?>
<!-- Generator: Adobe Illustrator 21.1.0, SVG Export Plug-In . SVG Version: 6.00 Build 0)  -->
<svg version="1.0" id="Layer_1" xmlns="http://www.w3.org/2000/svg" xmlns:xlink="http://www.w3.org/1999/xlink" x="0px" y="0px"
	 viewBox="0 0 666 666" style="enable-background:new 0 0 666 666;" xml:space="preserve">
<path d="M389,329.6c3.3,2.8,7.2,3.3,3.5,11.8c-4.3,10.2-11.7,16.7-17.6,24.8c-8.8,12.2-22,12.1-34.9,8.7
	c-13-3.5-19.7-13.2-21.8-26.3c-0.3-2.1-0.9-4.1-1.6-6.9c-10.7,13.9,7,34.1,33.9,41.6c-3.9,1.1-7.9,2-11.8,3.4
	c-1.8,0.7-4.6,2-4.8,3.2c-0.2,1.7,1.8,3.6,3,5.3c0.6,0.8,1.9,1.1,2.3,1.9c0.9,2,1.5,4.2,2.2,6.4c-2.1-0.3-4.7,0.1-6.2-1
	c-5.4-4-10.4-4.1-15.9-0.2c-1.6,1.2-4.2,1-6.3,1.4c0.8-2.3,1-5.2,2.6-6.7c2-2,5.2-2.9,7.8-4.4c1.3-0.7,2.5-1.6,5.7-3.7
	c-4.4-1.1-6.6-1.7-8.8-2.3c-5-1.5-10.3-2.6-15-4.7c-20.7-9.1-28.9-25.5-24.5-47.7c1.3-6.4,2.7-12.8,2.9-19.3
	c0.1-5.3-2.8-8.8-8.8-5.5c-6.4,3.4-7.6-0.8-6.4-5.2c1.5-5.7,4.8-10.8,6.9-16.4c0.9-2.3,0.6-5,0.7-7.5c0.1-2-0.5-4.1,0.1-5.9
	c2.3-7.2,17.3-12.7,23.8-8.9c1.9,1.1,4.8,1.3,5.9,2.9c2.5,3.3,6.4,8.1,5.5,10.8c-1.7,4.8-0.3,7.7,1.5,11.5c3.2,6.8,5.6,14,8.4,21
	c3.3,8.1,9.2,12,18.2,11.6c18.8-0.9,36.3-4.9,49.9-19.3c1.3-1.4,3.8-1.7,5.7-2.5c1,2.6,3.6,5.8,2.9,7.8
	C395.8,316.1,392.3,322.5,389,329.6z"/>
</svg>
