<?xml version="1.0" encoding="utf-8"?>
<!-- Generator: Adobe Illustrator 21.1.0, SVG Export Plug-In . SVG Version: 6.00 Build 0)  -->
<svg version="1.0" id="Layer_1" xmlns="http://www.w3.org/2000/svg" xmlns:xlink="http://www.w3.org/1999/xlink" x="0px" y="0px"
	 viewBox="0 0 666 666" style="enable-background:new 0 0 666 666;" xml:space="preserve">
<g>
	<path d="M193,352.6c3.3,2.8,7.2,3.3,3.5,11.8c-4.3,10.2-11.7,16.7-17.6,24.8c-8.8,12.2-22,12.1-34.9,8.7
		c-13-3.5-19.7-13.2-21.8-26.3c-0.3-2.1-0.9-4.1-1.6-6.9c-10.7,13.9,7,34.1,33.9,41.6c-3.9,1.1-7.9,2-11.8,3.4
		c-1.8,0.7-4.6,2-4.8,3.2c-0.2,1.7,1.8,3.6,3,5.3c0.6,0.8,1.9,1.1,2.3,1.9c0.9,2,1.5,4.2,2.2,6.4c-2.1-0.3-4.7,0.1-6.2-1
		c-5.4-4-10.4-4.1-15.9-0.2c-1.6,1.2-4.2,1-6.3,1.4c0.8-2.3,1-5.2,2.6-6.7c2-2,5.2-2.9,7.8-4.4c1.3-0.7,2.5-1.6,5.7-3.7
		c-4.4-1.1-6.6-1.7-8.8-2.3c-5-1.5-10.3-2.6-15-4.7c-20.7-9.1-28.9-25.5-24.5-47.7c1.3-6.4,2.7-12.8,2.9-19.3
		c0.1-5.3-2.8-8.8-8.8-5.5c-6.4,3.4-7.6-0.8-6.4-5.2c1.5-5.7,4.8-10.8,6.9-16.4c0.9-2.3,0.6-5,0.7-7.5c0.1-2-0.5-4.1,0.1-5.9
		c2.3-7.2,17.3-12.7,23.8-8.9c1.9,1.1,4.8,1.3,5.9,2.9c2.5,3.3,6.4,8.1,5.5,10.8c-1.7,4.8-0.3,7.7,1.5,11.5c3.2,6.8,5.6,14,8.4,21
		c3.3,8.1,9.2,12,18.2,11.6c18.8-0.9,36.3-4.9,49.9-19.3c1.3-1.4,3.8-1.7,5.7-2.5c1,2.6,3.6,5.8,2.9,7.8
		C199.8,339.1,196.3,345.5,193,352.6z"/>
	<path d="M578.3,384.9c-2.7,4-4.8,7.1-7.2,10.5c2.4,2.9,4.7,5.7,7.5,8.9c-14.4,13.1-30.8,20.9-49.9,22.9c-23.7,2.4-44.7-5-63.7-18.3
		c-4.4-3.1-7.6-3.2-12.1-0.8c-6.5,3.6-13.4,6.4-21.5,8.5c3.2-5.8,6.1-11.7,9.5-17.3c2.4-3.9,2.5-7.2,0.1-11.1
		c-3-5-5.5-10.4-7.1-16.8c5.9,3.4,12.1,6.5,17.8,10.3c5,3.3,8.5,3.4,13.6-0.8c19.8-16.2,42.2-25.4,68.4-20.3
		C550.8,364,565.5,372.2,578.3,384.9z M566.6,386.1c-3.8-2.7-5.9-5.4-8.1-5.3c-1.8,0-3.6,3.2-5.4,5c1.9,1.9,3.5,4.8,5.7,5.3
		C560.5,391.5,562.8,388.7,566.6,386.1z"/>
	<path d="M317.6,271.6c0-3.4-0.6-7,0.2-10.3c0.6-3,2.7-5.6,4.1-8.4c1.5,2.7,3.8,5.2,4.4,8c0.8,3.9-0.2,8.1,0.3,12
		c0.3,2,2.1,3.8,3.2,5.7c1-2,2.7-3.9,3-6c0.5-4.5-0.3-9.1,0.3-13.5c0.3-2.2,2.7-4.1,4.1-6.2c1.5,2.2,3.9,4.1,4.4,6.5
		c0.7,3.8,0.2,7.9,0.2,11.9c0.7,0.3,1.5,0.6,2.2,1c1.4-2.3,3.6-4.5,3.9-7c0.6-4.4-0.4-9.1,0.4-13.5c0.4-2.4,3-4.5,4.5-6.7
		c1.4,2.1,3.9,4.2,4,6.3c0.2,35,0.2,69.9,0.1,104.9c0,7-4.4,11.4-10.5,13.3c-10.3,3.2-13.6,9.5-12.5,20.1
		c1.1,11.2,0.4,22.6,0.1,33.9c-0.1,1.9-2.2,5-3.9,5.4c-4.1,1.1-4.8-2-4.8-5.4c0.1-13.3-0.3-26.7,0.2-40c0.2-6.1-1.7-9.4-7.3-11.2
		c-2.6-0.9-4.9-2.4-7.4-3.7c-5.7-3-8.4-7.6-8.4-14c0-34-0.1-67.9,0.2-101.9c0-2.6,2.7-5.1,4.1-7.6c1.5,2.5,3.8,4.8,4.3,7.5
		c0.7,3.9-0.3,8.1,0.3,12c0.5,2.8,2.4,5.3,3.7,7.9C315.9,272.2,316.7,271.9,317.6,271.6z M334.6,365.4c14.8-5.6,16.2-8.6,12.5-25.9
		C331.5,346.3,333.8,341.4,334.6,365.4z M311.7,339.2c-2.1,19.7-0.9,22.1,12.7,25.8C327.8,347.1,327,345.5,311.7,339.2z
		 M311.6,309.5c-1.8,19.3-0.8,21,13,25C327.2,316.2,327.1,315.9,311.6,309.5z M324.8,305.2c1.5-19.3,0-22-13.3-24.6
		C310,299.7,310.3,300.2,324.8,305.2z M347.3,309.8c-15.1,5.6-15.9,7.3-12.3,24.8C349.5,329.1,350.2,327.8,347.3,309.8z M334.5,305
		c15.2-5.5,14.6-4.2,12.7-24.8C333.2,285.2,333.1,285.5,334.5,305z"/>
	<path d="M268.8,305.9c3.5-3.4,5.6-6.9,7.4-6.7c2.1,0.2,4.1,3.4,7.6,6.8c1.2-2.9,2-5.6,3.3-8.1c1.2-2.4,2.9-4.5,4.3-6.7
		c1.5,2.2,4.3,4.5,4.3,6.7c0.3,23.4,0.2,46.8,0.2,70.1c0,6.5-3.3,11.2-9.6,12.8c-5,1.2-6,4-5.9,8.7c0.3,11.1,0.1,22.1,0.1,33.2
		c0,6.8-0.1,6.8-8.6,6.1c0-12.1-0.2-24.3,0.1-36.5c0.2-6-0.1-10.4-7.5-12.1c-5.6-1.3-8-6.3-8-12.3c0-23.1-0.1-46.3,0.2-69.4
		c0-2.4,2.9-4.8,4.4-7.2c1.4,2.3,2.9,4.6,4.1,7C266.6,300.7,267.6,303.3,268.8,305.9z M263.8,335.1c3.5,5.8-2.5,13.5,8.9,15.3
		C270.1,345,275.9,337.7,263.8,335.1z M266.1,358.2c-2.2,11.9-1.5,13.7,6.4,14C269.9,367.5,276.3,359.6,266.1,358.2z M265,313.2
		c1.4,5.8-2.9,13,7.3,14.9C270.4,322.3,275.6,315.1,265,313.2z M286.5,358.1c-6.9,2.5-7.2,3.3-5.1,14.3
		C287.8,371,287.8,371,286.5,358.1z M286.9,335.9c-7.1,1.9-8.1,4.9-4.9,14.3C290.4,347.5,286,341,286.9,335.9z M281.4,327.5
		c6.6-2.5,6.9-3.4,4.8-13.7C279.8,315.6,279.7,316.2,281.4,327.5z"/>
	<path d="M391.5,305.6c0.9-2.8,1.5-5.7,2.8-8.4c1-2.2,2.8-4.1,4.2-6.1c1.5,2,4.2,4,4.2,6c0.3,24.2,0.5,48.3-0.3,72.5
		c-0.1,3.8-4.8,9-8.6,10.7c-5.3,2.3-6.4,4.9-6.3,10.1c0.4,10.8,0.2,21.6,0.1,32.5c0,6.7-0.1,6.7-8.7,5.8c0-12.1-0.3-24.3,0.1-36.5
		c0.2-6.1-0.3-10.4-7.6-12.1c-5.3-1.2-7.7-5.9-7.7-11.6c0.1-23.4-0.1-46.8,0.2-70.2c0-2.3,2.5-4.7,3.9-7c1.5,2.2,3.1,4.4,4.3,6.7
		c1.3,2.5,2.3,5.2,4,9.3c6.3-10.7,7.9-10.7,12.8-2.4C389.8,305,390.7,305.3,391.5,305.6z M371.9,357.8c1.4,5.9-3,13.2,7.4,15.7
		C377.5,367.3,382.9,360,371.9,357.8z M379.1,350.4c-1.5-5.5,3.5-12.8-7-14.8C373.2,341.5,368.8,348.5,379.1,350.4z M379,327.9
		c-1.1-5.7,3-12.6-6.7-14.9C373.1,319.2,369.1,326,379,327.9z M388.6,373.2c9.3-2.6,4.3-9.7,5.6-15
		C386.6,360.4,386.4,361,388.6,373.2z M394,335.6c-10.2,2-5,9.2-6.7,15.3C396.9,347.8,393.6,341.4,394,335.6z M394.2,312.7
		c-9.3,3.3-5.9,9.6-6.2,15.4C397.3,325.5,393.3,319,394.2,312.7z"/>
	<path d="M565,348.8c-1.9-10.1,4.7-21.1-4.8-30.6c-1.6-1.6-1.8-7.6-0.3-8.8c6.9-5.6,5.1-12.9,5.3-19.9c0-1-0.3-2.2,0.1-3
		c0.8-1.3,2-2.3,3.1-3.4c1.1,1.1,2.8,2.1,3,3.4c0.4,3.2,0.3,6.5,0.2,9.8c-0.2,4.3,0.2,7.9,4.1,11.2c4.2,3.6,3.2,8.2-0.1,12.7
		c-2,2.7-3.4,6.3-3.8,9.7c-0.6,5.7,0.6,11.7-0.5,17.2c-0.6,3.3-3.7,6.7-6.7,8.6c-1.2,0.8-5.7-1.6-7.1-3.6c-2.5-3.5-3-7.7,2-12.1
		c1.3,3.6,2.4,6.3,3.4,9.1C563.5,349,564.2,348.9,565,348.8z"/>
</g>
</svg>
