<?xml version="1.0" encoding="utf-8"?>
<!-- Generator: Adobe Illustrator 21.1.0, SVG Export Plug-In . SVG Version: 6.00 Build 0)  -->
<svg version="1.0" id="Layer_1" xmlns="http://www.w3.org/2000/svg" xmlns:xlink="http://www.w3.org/1999/xlink" x="0px" y="0px"
	 viewBox="0 0 666 666" style="enable-background:new 0 0 666 666;" xml:space="preserve">
<style type="text/css">
	.st0{fill:#010101;}
	.st1{fill:#F7F8F8;}
</style>
<path class="st0" d="M181.1,380.8c6.4-11.8,12.1-24,19.4-35.2c5.6-8.6,5.8-15.7,0.5-24.3c-6.3-10.4-11.5-21.5-15.1-34.5
	c14.1,8.1,28.6,15.6,42.2,24.4c8.1,5.2,12.8,4,20.1-2c41.8-34.3,88.3-55,144.1-44.7c32,5.9,59.5,20.9,84.5,41.4
	c8.3,6.8,9.7,12.4,1.8,20c-7.9,7.5-8.6,14.6,1.2,21.3c9.9,6.8,3.7,11.3-2.4,16.3c-58.8,48.4-138.9,55.1-208.1,11.9
	c-24.8-15.5-43.7-17.1-66.4-1.3c-5.7,4-12.8,6.1-19.3,9.1C182.7,382.4,181.9,381.6,181.1,380.8z"/>
<path class="st1" d="M456.8,317.2c-0.9,7-4.6,11.8-11.9,11.6c-6.3-0.1-10.8-4-11.2-10.5c-0.5-7.3,4.1-11.9,11-12.4
	C451.8,305.4,455.7,310.2,456.8,317.2z"/>
</svg>
