<svg id="Layer_1" data-name="Layer 1" xmlns="http://www.w3.org/2000/svg" viewBox="0 0 80.32 29.27"><defs><style>.cls-1{fill:#010101;}.cls-2{fill:#e4e4e4;}.cls-3{fill:#f7f7f7;}.cls-4{fill:#fcfcfc;}.cls-5{fill:#fdfdfd;}.cls-6{fill:#fbfbfb;}.cls-7{fill:#fafafa;}.cls-8{fill:#e3e3e3;}.cls-9{fill:#dfdfdf;}.cls-10{fill:#e6e6e6;}.cls-11{fill:#f5f5f5;}.cls-12{fill:#f3f3f3;}.cls-13{fill:#e1e1e1;}.cls-14{fill:#e2e2e2;}.cls-15{fill:#ddd;}</style></defs><title>LOGO_chickenWheatFish_White</title><path d="M304.83,333.66a5.6,5.6,0,0,1-2.22.8c-.25.06-.6,0-.65.38a.73.73,0,0,0,.31.83,2.37,2.37,0,0,1,.49.34c.3.29.82.56.45,1.07s-.73.09-1.07-.17a1.75,1.75,0,0,0-2.48.06c-.31.27-.63.59-1,.14s0-.77.33-1a6.47,6.47,0,0,1,1.23-.71c.28-.13.7-.07.64-.53s-.48-.34-.77-.39a11.73,11.73,0,0,1-2.74-.83,6.23,6.23,0,0,1-3.82-7.51,12.23,12.23,0,0,0,.52-2.82c0-1.23-.45-1.52-1.59-1.07-.77.3-.89-.07-.94-.71-.09-1.15.88-1.84,1.19-2.81.13-.41.42-.73.09-1.19a1,1,0,0,1-.07-.81c.32-1.21,2.76-2.23,3.8-1.55a6.19,6.19,0,0,0,1,.43,1.64,1.64,0,0,1,1,1.61c0,.45-.66.74-.34,1.18,1.17,1.6,1.19,3.74,2.51,5.26a2.06,2.06,0,0,0,1.6.7c3.2,0,6.19-.6,8.5-3.07.24-.26.51-.58.92-.37a1,1,0,0,1,.51,1.13,4.65,4.65,0,0,1-1.29,2.65c-.41.44-.42.61.13.92s1.06.84.2,1.44c-.06,0-.18.1-.18.14.1,1.89-1.64,2.63-2.52,3.89-1.42,2.05-3.59,2.05-5.72,1.44a4.71,4.71,0,0,1-3.38-4.23c0-.33.07-.87-.42-.84s-.32.54-.31.87a5.48,5.48,0,0,0,4.21,5C303.51,333.48,304.06,333.53,304.83,333.66Z" transform="translate(-291.53 -308.28)"/><path d="M348.58,335.51c.49-.9.93-1.84,1.48-2.7a1.55,1.55,0,0,0,0-1.86,10.13,10.13,0,0,1-1.15-2.65c1.08.62,2.19,1.19,3.23,1.87a1.09,1.09,0,0,0,1.54-.15c3.2-2.63,6.76-4.21,11-3.42a14.24,14.24,0,0,1,6.47,3.17c.63.52.74,1,.13,1.53s-.66,1.12.09,1.63.29.86-.18,1.25a13.37,13.37,0,0,1-15.94.91c-1.9-1.18-3.35-1.31-5.09-.1a9.45,9.45,0,0,1-1.48.7Z" transform="translate(-291.53 -308.28)"/><path d="M330.52,312.56c0-.66,0-1.25,0-1.84s0-1.17.68-1.18.73.68.73,1.24,0,1.36,0,2c0,.39.06.79.5.8s.55-.37.54-.77c0-.76,0-1.52,0-2.28,0-.52.1-1,.72-1s.7.52.7,1,0,1.27,0,1.93c.73-.05,1.07-.35,1-1.07s0-1.36,0-2,.18-1.14.8-1.11.63.6.63,1.12c0,3.48,0,7,0,10.43,0,1.84-.05,3.68,0,5.51a2.43,2.43,0,0,1-1.7,2.7c-1.64.52-2.15,1.5-2,3.19s0,3.59,0,5.39c0,.52,0,.94-.72.93s-.69-.47-.69-1c0-2.2,0-4.4,0-6.59a1.2,1.2,0,0,0-.85-1.36c-.44-.17-.86-.42-1.29-.62a2.51,2.51,0,0,1-1.53-2.48c0-5.31,0-10.63,0-15.94,0-.58,0-1.28.69-1.3s.72.69.71,1.26,0,1.2,0,1.8C329.4,312.12,329.76,312.43,330.52,312.56Z" transform="translate(-291.53 -308.28)"/><path class="cls-1" d="M320.82,322.32c0-1.8,0-3.59,0-5.39,0-.55-.11-1.27.66-1.31s.77.67.73,1.23,0,.76.52.92.45-.32.62-.57c.45-.66.9-.57,1.23.12.11.24.07.58.51.46s.64-.29.59-.75a5.3,5.3,0,0,1,0-.6c0-.45.19-.83.66-.85s.75.4.75.88c0,3.87,0,7.75,0,11.62a1.91,1.91,0,0,1-1.67,1.8c-.65.15-.78.48-.77,1.1,0,1.88,0,3.75,0,5.63,0,.52,0,.94-.72.94s-.66-.5-.66-1c0-1.84,0-3.67,0-5.51,0-.63-.06-1-.8-1.2a2.11,2.11,0,0,1-1.67-2.41C320.85,325.76,320.82,324,320.82,322.32Z" transform="translate(-291.53 -308.28)"/><path class="cls-1" d="M344.06,322.31c0,1.72,0,3.44,0,5.15a2.1,2.1,0,0,1-1.66,2.42c-.73.17-.8.57-.79,1.21,0,1.84,0,3.67,0,5.51,0,.51,0,1-.7,1s-.69-.46-.69-1c0-1.84,0-3.68,0-5.51,0-.62,0-1-.78-1.21a2.09,2.09,0,0,1-1.66-2.4c0-3.51,0-7,0-10.55,0-.2,0-.4,0-.6,0-.4.22-.73.63-.74s.69.33.7.79c0,.28,0,.56,0,.84s.28.45.56.54.43-.06.57-.38c.37-.9.87-.87,1.26,0,.14.3.21.5.58.38s.52-.22.53-.56,0-.4,0-.6c0-.52.09-1,.72-1s.66.58.66,1.08C344.06,318.55,344.06,320.43,344.06,322.31Z" transform="translate(-291.53 -308.28)"/><path class="cls-2" d="M295.17,319.14c.43,0,.67.29.66.61a.6.6,0,0,1-.71.61.61.61,0,0,1,0-1.22Z" transform="translate(-291.53 -308.28)"/><path class="cls-3" d="M369.7,330.64c-.07.54-.35.9-.91.89a.83.83,0,0,1-.86-.81.85.85,0,0,1,.84-.95C369.31,329.73,369.61,330.1,369.7,330.64Z" transform="translate(-291.53 -308.28)"/><path class="cls-4" d="M333.17,327.38c-.12-3.17-.12-3.17,2-4.2C335.82,326,335.57,326.52,333.17,327.38Z" transform="translate(-291.53 -308.28)"/><path class="cls-5" d="M329.53,323.2c2.74,1.3,2.17.32,2.16,4.1C329.58,327,329.38,326.62,329.53,323.2Z" transform="translate(-291.53 -308.28)"/><path class="cls-6" d="M329.58,318.54c2.66,1.2,2.17.29,2.09,4C329.42,321.84,329.22,321.45,329.58,318.54Z" transform="translate(-291.53 -308.28)"/><path class="cls-4" d="M331.69,317.88c-2.64-1.14-2.21-.65-2.16-4C331.73,314.39,331.84,314.58,331.69,317.88Z" transform="translate(-291.53 -308.28)"/><path class="cls-7" d="M335.31,313.76c.18,3.25.11,3.39-2.07,4C332.86,314.84,332.86,314.84,335.31,313.76Z" transform="translate(-291.53 -308.28)"/><path class="cls-6" d="M333.16,322.54c-.06-1.8-.52-3.72,2.09-3.95C335.71,321.37,335.56,321.66,333.16,322.54Z" transform="translate(-291.53 -308.28)"/><path class="cls-8" d="M323.24,327.67c-.15.21.4.89-.31.89s-.81-.73-.73-1.32c.05-.34-.37-1,.33-1S323.37,326.92,323.24,327.67Z" transform="translate(-291.53 -308.28)"/><path class="cls-9" d="M323.19,320.61c-.09.13.44.77-.23.77-.84,0-.85-.7-.76-1.31,0-.33-.33-1,.3-.94S323.4,319.78,323.19,320.61Z" transform="translate(-291.53 -308.28)"/><path class="cls-10" d="M323.15,324.21c-.06.08.5.78-.25.73s-.77-.78-.69-1.37c0-.31-.33-.92.31-.89S323.44,323.3,323.15,324.21Z" transform="translate(-291.53 -308.28)"/><path class="cls-11" d="M325.66,327.17a3.94,3.94,0,0,1,0,.91.69.69,0,0,1-.73.5c-.47,0-.26-.39-.28-.63s0-.48,0-.71c-.1-.59.17-1,.71-1C326,326.3,325.49,326.94,325.66,327.17Z" transform="translate(-291.53 -308.28)"/><path class="cls-12" d="M325.68,322.67c0,.25,0,.48,0,.7,0,.59.25,1.32-.63,1.57-.29.08-.49,0-.42-.34C324.77,323.88,324.12,322.74,325.68,322.67Z" transform="translate(-291.53 -308.28)"/><path class="cls-3" d="M325.7,320.11a3.25,3.25,0,0,1-.08.84.69.69,0,0,1-.76.42c-.35,0-.2-.36-.22-.57s0-.4,0-.59c-.05-.53,0-1,.66-1C326.05,319.16,325.49,319.83,325.7,320.11Z" transform="translate(-291.53 -308.28)"/><path class="cls-13" d="M342.7,326.2c0,.6,0,1.18,0,1.76a.68.68,0,0,1-.74.63c-.52,0-.32-.42-.34-.7C341.56,326.52,341.56,326.52,342.7,326.2Z" transform="translate(-291.53 -308.28)"/><path class="cls-14" d="M339.16,326.14a1.89,1.89,0,0,1,1.1,2.29.31.31,0,0,1-.39.15c-.38-.08-.68-.27-.7-.69S339.16,326.79,339.16,326.14Z" transform="translate(-291.53 -308.28)"/><path class="cls-9" d="M342.71,322.69c0,.54,0,1,0,1.42a.75.75,0,0,1-.8.85c-.59,0-.25-.55-.29-.85C341.53,323.36,341.53,322.62,342.71,322.69Z" transform="translate(-291.53 -308.28)"/><path class="cls-15" d="M340.26,320.51c-.13.23.37.86-.28.87-.82,0-.89-.65-.8-1.29.05-.34-.3-1,.31-1C340.28,319.13,340.37,319.78,340.26,320.51Z" transform="translate(-291.53 -308.28)"/><path class="cls-9" d="M340.25,324.09c-.12.22.36.85-.26.86s-.93-.62-.81-1.28c.06-.35-.36-1,.36-1S340.35,323.38,340.25,324.09Z" transform="translate(-291.53 -308.28)"/><path class="cls-9" d="M342.7,320.07c0,.26,0,.46,0,.66a.7.7,0,0,1-.73.65c-.54,0-.31-.42-.35-.69s0-.32,0-.48c0-.53.07-1,.68-1.06C343.06,319.14,342.54,319.81,342.7,320.07Z" transform="translate(-291.53 -308.28)"/></svg>