  0
SECTION
  2
HEADER
  9
$ACADVER
  1
AC1024
  9
$ACADMAINTVER
 70
     6
  9
$DWGCODEPAGE
  3
UNDEFINED
  9
$INSBASE
 10
0.0
 20
0.0
 30
0.0
  9
$EXTMIN
 10
1.000000000000000E+20
 20
1.000000000000000E+20
 30
1.000000000000000E+20
  9
$EXTMAX
 10
-1.000000000000000E+20
 20
-1.000000000000000E+20
 30
-1.000000000000000E+20
  9
$LIMMIN
 10
0.0
 20
0.0
  9
$LIMMAX
 10
12.0
 20
9.0
  9
$ORTHOMODE
 70
     0
  9
$REGENMODE
 70
     1
  9
$FILLMODE
 70
     1
  9
$QTEXTMODE
 70
     0
  9
$MIRRTEXT
 70
     1
  9
$LTSCALE
 40
1.0
  9
$ATTMODE
 70
     1
  9
$TEXTSIZE
 40
0.2
  9
$TRACEWID
 40
0.05
  9
$TEXTSTYLE
  7
Standard
  9
$CLAYER
  8
0
  9
$CELTYPE
  6
ByLayer
  9
$CECOLOR
 62
   256
  9
$CELTSCALE
 40
1.0
  9
$DISPSILH
 70
     0
  9
$DIMSCALE
 40
1.0
  9
$DIMASZ
 40
0.18
  9
$DIMEXO
 40
0.0625
  9
$DIMDLI
 40
0.38
  9
$DIMRND
 40
0.0
  9
$DIMDLE
 40
0.0
  9
$DIMEXE
 40
0.18
  9
$DIMTP
 40
0.0
  9
$DIMTM
 40
0.0
  9
$DIMTXT
 40
0.18
  9
$DIMCEN
 40
0.09
  9
$DIMTSZ
 40
0.0
  9
$DIMTOL
 70
     0
  9
$DIMLIM
 70
     0
  9
$DIMTIH
 70
     1
  9
$DIMTOH
 70
     1
  9
$DIMSE1
 70
     0
  9
$DIMSE2
 70
     0
  9
$DIMTAD
 70
     0
  9
$DIMZIN
 70
     0
  9
$DIMBLK
  1

  9
$DIMASO
 70
     1
  9
$DIMSHO
 70
     1
  9
$DIMPOST
  1

  9
$DIMAPOST
  1

  9
$DIMALT
 70
     0
  9
$DIMALTD
 70
     2
  9
$DIMALTF
 40
25.4
  9
$DIMLFAC
 40
1.0
  9
$DIMTOFL
 70
     0
  9
$DIMTVP
 40
0.0
  9
$DIMTIX
 70
     0
  9
$DIMSOXD
 70
     0
  9
$DIMSAH
 70
     0
  9
$DIMBLK1
  1

  9
$DIMBLK2
  1

  9
$DIMSTYLE
  2
Standard
  9
$DIMCLRD
 70
     0
  9
$DIMCLRE
 70
     0
  9
$DIMCLRT
 70
     0
  9
$DIMTFAC
 40
1.0
  9
$DIMGAP
 40
0.09
  9
$DIMJUST
 70
     0
  9
$DIMSD1
 70
     0
  9
$DIMSD2
 70
     0
  9
$DIMTOLJ
 70
     1
  9
$DIMTZIN
 70
     0
  9
$DIMALTZ
 70
     0
  9
$DIMALTTZ
 70
     0
  9
$DIMUPT
 70
     0
  9
$DIMDEC
 70
     4
  9
$DIMTDEC
 70
     4
  9
$DIMALTU
 70
     2
  9
$DIMALTTD
 70
     2
  9
$DIMTXSTY
  7
Standard
  9
$DIMAUNIT
 70
     0
  9
$DIMADEC
 70
     0
  9
$DIMALTRND
 40
0.0
  9
$DIMAZIN
 70
     0
  9
$DIMDSEP
 70
    46
  9
$DIMATFIT
 70
     3
  9
$DIMFRAC
 70
     0
  9
$DIMLDRBLK
  1

  9
$DIMLUNIT
 70
     2
  9
$DIMLWD
 70
    -2
  9
$DIMLWE
 70
    -2
  9
$DIMTMOVE
 70
     0
  9
$DIMFXL
 40
1.0
  9
$DIMFXLON
 70
     0
  9
$DIMJOGANG
 40
0.7853981633974483
  9
$DIMTFILL
 70
     0
  9
$DIMTFILLCLR
 70
     0
  9
$DIMARCSYM
 70
     0
  9
$DIMLTYPE
  6

  9
$DIMLTEX1
  6

  9
$DIMLTEX2
  6

  9
$DIMTXTDIRECTION
 70
     0
  9
$LUNITS
 70
     2
  9
$LUPREC
 70
     4
  9
$SKETCHINC
 40
0.1
  9
$FILLETRAD
 40
0.5
  9
$AUNITS
 70
     0
  9
$AUPREC
 70
     0
  9
$MENU
  1
.
  9
$ELEVATION
 40
0.0
  9
$PELEVATION
 40
0.0
  9
$THICKNESS
 40
0.0
  9
$LIMCHECK
 70
     0
  9
$CHAMFERA
 40
0.5
  9
$CHAMFERB
 40
0.5
  9
$CHAMFERC
 40
1.0
  9
$CHAMFERD
 40
0.0
  9
$SKPOLY
 70
     0
  9
$TDCREATE
 40
2458162.939907396
  9
$TDUCREATE
 40
2458163.231574074
  9
$TDUPDATE
 40
2458162.939907396
  9
$TDUUPDATE
 40
2458163.231574074
  9
$TDINDWG
 40
0.0000000116
  9
$TDUSRTIMER
 40
0.0000000116
  9
$USRTIMER
 70
     1
  9
$ANGBASE
 50
0.0
  9
$ANGDIR
 70
     0
  9
$PDMODE
 70
     0
  9
$PDSIZE
 40
0.0
  9
$PLINEWID
 40
0.0
  9
$SPLFRAME
 70
     0
  9
$SPLINETYPE
 70
     6
  9
$SPLINESEGS
 70
     8
  9
$HANDSEED
  5
70
  9
$SURFTAB1
 70
     6
  9
$SURFTAB2
 70
     6
  9
$SURFTYPE
 70
     6
  9
$SURFU
 70
     6
  9
$SURFV
 70
     6
  9
$UCSBASE
  2

  9
$UCSNAME
  2

  9
$UCSORG
 10
0.0
 20
0.0
 30
0.0
  9
$UCSXDIR
 10
1.0
 20
0.0
 30
0.0
  9
$UCSYDIR
 10
0.0
 20
1.0
 30
0.0
  9
$UCSORTHOREF
  2

  9
$UCSORTHOVIEW
 70
     0
  9
$UCSORGTOP
 10
0.0
 20
0.0
 30
0.0
  9
$UCSORGBOTTOM
 10
0.0
 20
0.0
 30
0.0
  9
$UCSORGLEFT
 10
0.0
 20
0.0
 30
0.0
  9
$UCSORGRIGHT
 10
0.0
 20
0.0
 30
0.0
  9
$UCSORGFRONT
 10
0.0
 20
0.0
 30
0.0
  9
$UCSORGBACK
 10
0.0
 20
0.0
 30
0.0
  9
$PUCSBASE
  2

  9
$PUCSNAME
  2

  9
$PUCSORG
 10
0.0
 20
0.0
 30
0.0
  9
$PUCSXDIR
 10
1.0
 20
0.0
 30
0.0
  9
$PUCSYDIR
 10
0.0
 20
1.0
 30
0.0
  9
$PUCSORTHOREF
  2

  9
$PUCSORTHOVIEW
 70
     0
  9
$PUCSORGTOP
 10
0.0
 20
0.0
 30
0.0
  9
$PUCSORGBOTTOM
 10
0.0
 20
0.0
 30
0.0
  9
$PUCSORGLEFT
 10
0.0
 20
0.0
 30
0.0
  9
$PUCSORGRIGHT
 10
0.0
 20
0.0
 30
0.0
  9
$PUCSORGFRONT
 10
0.0
 20
0.0
 30
0.0
  9
$PUCSORGBACK
 10
0.0
 20
0.0
 30
0.0
  9
$USERI1
 70
     0
  9
$USERI2
 70
     0
  9
$USERI3
 70
     0
  9
$USERI4
 70
     0
  9
$USERI5
 70
     0
  9
$USERR1
 40
0.0
  9
$USERR2
 40
0.0
  9
$USERR3
 40
0.0
  9
$USERR4
 40
0.0
  9
$USERR5
 40
0.0
  9
$WORLDVIEW
 70
     1
  9
$SHADEDGE
 70
     3
  9
$SHADEDIF
 70
    70
  9
$TILEMODE
 70
     1
  9
$MAXACTVP
 70
    64
  9
$PINSBASE
 10
0.0
 20
0.0
 30
0.0
  9
$PLIMCHECK
 70
     0
  9
$PEXTMIN
 10
1.000000000000000E+20
 20
1.000000000000000E+20
 30
1.000000000000000E+20
  9
$PEXTMAX
 10
-1.000000000000000E+20
 20
-1.000000000000000E+20
 30
-1.000000000000000E+20
  9
$PLIMMIN
 10
0.0
 20
0.0
  9
$PLIMMAX
 10
12.0
 20
9.0
  9
$UNITMODE
 70
     0
  9
$VISRETAIN
 70
     1
  9
$PLINEGEN
 70
     0
  9
$PSLTSCALE
 70
     1
  9
$TREEDEPTH
 70
  3020
  9
$CMLSTYLE
  2
Standard
  9
$CMLJUST
 70
     0
  9
$CMLSCALE
 40
1.0
  9
$PROXYGRAPHICS
 70
     1
  9
$MEASUREMENT
 70
     0
  9
$CELWEIGHT
370
    -1
  9
$ENDCAPS
280
     0
  9
$JOINSTYLE
280
     0
  9
$LWDISPLAY
290
     1
  9
$INSUNITS
 70
     1
  9
$HYPERLINKBASE
  1

  9
$STYLESHEET
  1

  9
$XEDIT
290
     1
  9
$CEPSNTYPE
380
     0
  9
$PSTYLEMODE
290
     1
  9
$FINGERPRINTGUID
  2
{F3FB3E47-563A-83B6-D2C0-CE6A8000F811}
  9
$VERSIONGUID
  2
{FAEB1C32-E019-11D5-929B-00C0DF256EC4}
  9
$EXTNAMES
290
     1
  9
$PSVPSCALE
 40
0.0
  9
$OLESTARTUP
290
     0
  9
$SORTENTS
280
   127
  9
$INDEXCTL
280
     0
  9
$HIDETEXT
280
     1
  9
$XCLIPFRAME
280
     2
  9
$HALOGAP
280
     0
  9
$OBSCOLOR
 70
   257
  9
$OBSLTYPE
280
     0
  9
$INTERSECTIONDISPLAY
280
     0
  9
$INTERSECTIONCOLOR
 70
   257
  9
$DIMASSOC
280
     2
  9
$PROJECTNAME
  1

  9
$CAMERADISPLAY
290
     0
  9
$LENSLENGTH
 40
50.0
  9
$CAMERAHEIGHT
 40
0.0
  9
$STEPSPERSEC
 40
2.0
  9
$STEPSIZE
 40
6.0
  9
$3DDWFPREC
 40
2.0
  9
$PSOLWIDTH
 40
0.25
  9
$PSOLHEIGHT
 40
4.0
  9
$LOFTANG1
 40
1.570796326794897
  9
$LOFTANG2
 40
1.570796326794897
  9
$LOFTMAG1
 40
0.0
  9
$LOFTMAG2
 40
0.0
  9
$LOFTPARAM
 70
     7
  9
$LOFTNORMALS
280
     1
  9
$LATITUDE
 40
37.795
  9
$LONGITUDE
 40
-122.394
  9
$NORTHDIRECTION
 40
0.0
  9
$TIMEZONE
 70
 -8000
  9
$LIGHTGLYPHDISPLAY
280
     1
  9
$TILEMODELIGHTSYNCH
280
     1
  9
$CMATERIAL
347
3C
  9
$SOLIDHIST
280
     1
  9
$SHOWHIST
280
     1
  9
$DWFFRAME
280
     2
  9
$DGNFRAME
280
     2
  9
$REALWORLDSCALE
290
     1
  9
$INTERFERECOLOR
 62
   256
  9
$CSHADOW
280
     0
  9
$SHADOWPLANELOCATION
 40
0.0
  0
ENDSEC
  0
SECTION
  2
CLASSES
  0
CLASS
  1
ACDBDICTIONARYWDFLT
  2
AcDbDictionaryWithDefault
  3
ObjectDBX Classes
 90
        0
 91
        4
280
     0
281
     0
  0
CLASS
  1
VISUALSTYLE
  2
AcDbVisualStyle
  3
ObjectDBX Classes
 90
     4095
 91
        4
280
     0
281
     0
  0
CLASS
  1
MATERIAL
  2
AcDbMaterial
  3
ObjectDBX Classes
 90
     1153
 91
        4
280
     0
281
     0
  0
CLASS
  1
SUN
  2
AcDbSun
  3
SCENEOE
 90
     1024
 91
        4
280
     0
281
     0
  0
ENDSEC
  0
SECTION
  2
TABLES
  0
TABLE
  2
VPORT
  5
8
330
0
100
AcDbSymbolTable
 70
     1
  0
VPORT
  5
29
330
8
100
AcDbSymbolTableRecord
100
AcDbViewportTableRecord
  2
*Active
 70
     0
 10
0.0
 20
0.0
 11
1.0
 21
1.0
 12
0.0
 22
0.0
 13
0.0
 23
0.0
 14
0.5
 24
0.5
 15
0.5
 25
0.5
 16
0.0
 26
0.0
 36
1.0
 17
333.0
 27
-333.0
 37
0.0
 40
666.0
 41
1.0
 42
50.0
 43
0.0
 44
0.0
 50
0.0
 51
0.0
 71
     0
 72
   100
 73
     1
 74
     3
 75
     0
 76
     0
 77
     0
 78
     0
281
     0
 65
     1
110
0.0
120
0.0
130
0.0
111
1.0
121
0.0
131
0.0
112
0.0
122
1.0
132
0.0
 79
     0
146
0.0
 60
     3
 61
     5
292
     1
282
     1
141
0.0
142
0.0
 63
   250
361
3F
  0
ENDTAB
  0
TABLE
  2
LTYPE
  5
5
330
0
100
AcDbSymbolTable
 70
     1
  0
LTYPE
  5
14
330
5
100
AcDbSymbolTableRecord
100
AcDbLinetypeTableRecord
  2
ByBlock
 70
     0
  3

 72
    65
 73
     0
 40
0.0
  0
LTYPE
  5
15
330
5
100
AcDbSymbolTableRecord
100
AcDbLinetypeTableRecord
  2
ByLayer
 70
     0
  3

 72
    65
 73
     0
 40
0.0
  0
LTYPE
  5
16
330
5
100
AcDbSymbolTableRecord
100
AcDbLinetypeTableRecord
  2
Continuous
 70
     0
  3
Solid line
 72
    65
 73
     0
 40
0.0
  0
ENDTAB
  0
TABLE
  2
LAYER
  5
2
330
0
100
AcDbSymbolTable
 70
     2
  0
LAYER
  5
10
330
2
100
AcDbSymbolTableRecord
100
AcDbLayerTableRecord
  2
0
 70
     0
 62
     7
  6
Continuous
370
    -3
390
F
347
3E
  0
LAYER
  5
40
330
2
100
AcDbSymbolTableRecord
100
AcDbLayerTableRecord
  2
Layer 1
 70
     0
 62
     7
  6
Continuous
370
    -3
390
F
347
3E
  0
ENDTAB
  0
TABLE
  2
STYLE
  5
3
330
0
100
AcDbSymbolTable
 70
     1
  0
STYLE
  5
11
330
3
100
AcDbSymbolTableRecord
100
AcDbTextStyleTableRecord
  2
Standard
 70
     0
 40
0.0
 41
1.0
 50
0.0
 71
     0
 42
0.2
  3
txt
  4

  0
ENDTAB
  0
TABLE
  2
VIEW
  5
6
330
0
100
AcDbSymbolTable
 70
     0
  0
ENDTAB
  0
TABLE
  2
UCS
  5
7
330
0
100
AcDbSymbolTable
 70
     0
  0
ENDTAB
  0
TABLE
  2
APPID
  5
9
330
0
100
AcDbSymbolTable
 70
     1
  0
APPID
  5
12
330
9
100
AcDbSymbolTableRecord
100
AcDbRegAppTableRecord
  2
ACAD
 70
     0
  0
ENDTAB
  0
TABLE
  2
DIMSTYLE
  5
A
330
0
100
AcDbSymbolTable
 70
     1
100
AcDbDimStyleTable
  0
DIMSTYLE
105
27
330
A
100
AcDbSymbolTableRecord
100
AcDbDimStyleTableRecord
  2
Standard
 70
     0
178
     0
340
11
  0
ENDTAB
  0
TABLE
  2
BLOCK_RECORD
  5
1
330
0
100
AcDbSymbolTable
 70
     2
  0
BLOCK_RECORD
  5
1F
330
1
100
AcDbSymbolTableRecord
100
AcDbBlockTableRecord
  2
*Model_Space
340
22
 70
     0
280
     1
281
     0
  0
BLOCK_RECORD
  5
1B
330
1
100
AcDbSymbolTableRecord
100
AcDbBlockTableRecord
  2
*Paper_Space
340
1E
 70
     0
280
     1
281
     0
  0
BLOCK_RECORD
  5
23
330
1
100
AcDbSymbolTableRecord
100
AcDbBlockTableRecord
  2
*Paper_Space0
340
26
 70
     0
280
     1
281
     0
  0
BLOCK_RECORD
  5
41
330
1
100
AcDbSymbolTableRecord
100
AcDbBlockTableRecord
  2
block 2
340
0
102
{BLKREFS
331
42
102
}
 70
     0
280
     1
281
     0
  0
ENDTAB
  0
ENDSEC
  0
SECTION
  2
BLOCKS
  0
BLOCK
  5
20
330
1F
100
AcDbEntity
  8
0
100
AcDbBlockBegin
  2
*Model_Space
 70
     0
 10
0.0
 20
0.0
 30
0.0
  3
*Model_Space
  1

  0
ENDBLK
  5
21
330
1F
100
AcDbEntity
  8
0
100
AcDbBlockEnd
  0
BLOCK
  5
1C
330
1B
100
AcDbEntity
 67
     1
  8
0
100
AcDbBlockBegin
  2
*Paper_Space
 70
     0
 10
0.0
 20
0.0
 30
0.0
  3
*Paper_Space
  1

  0
ENDBLK
  5
1D
330
1B
100
AcDbEntity
 67
     1
  8
0
100
AcDbBlockEnd
  0
BLOCK
  5
24
330
23
100
AcDbEntity
  8
0
100
AcDbBlockBegin
  2
*Paper_Space0
 70
     0
 10
0.0
 20
0.0
 30
0.0
  3
*Paper_Space0
  1

  0
ENDBLK
  5
25
330
23
100
AcDbEntity
  8
0
100
AcDbBlockEnd
  0
BLOCK
  5
43
330
41
100
AcDbEntity
  8
0
100
AcDbBlockBegin
  2
block 2
 70
     0
 10
0.0
 20
0.0
 30
0.0
  3
block 2
  1

  0
SPLINE
  5
45
330
41
100
AcDbEntity
  8
Layer 1
370
     0
100
AcDbSpline
210
0.0
220
0.0
230
1.0
 70
    11
 71
     3
 72
    95
 73
    91
 74
     0
 42
0.0000000001
 43
0.0000000001
 12
1.0
 22
0.0
 32
0.0
 13
1.0
 23
0.0
 33
0.0
 40
0.0
 40
0.0
 40
0.0
 40
0.0
 40
1.0
 40
1.0
 40
1.0
 40
2.0
 40
2.0
 40
2.0
 40
3.0
 40
3.0
 40
3.0
 40
4.0
 40
4.0
 40
4.0
 40
5.0
 40
5.0
 40
5.0
 40
6.0
 40
6.0
 40
6.0
 40
7.0
 40
7.0
 40
7.0
 40
8.0
 40
8.0
 40
8.0
 40
9.0
 40
9.0
 40
9.0
 40
10.0
 40
10.0
 40
10.0
 40
11.0
 40
11.0
 40
11.0
 40
12.0
 40
12.0
 40
12.0
 40
13.0
 40
13.0
 40
13.0
 40
14.0
 40
14.0
 40
14.0
 40
15.0
 40
15.0
 40
15.0
 40
16.0
 40
16.0
 40
16.0
 40
17.0
 40
17.0
 40
17.0
 40
18.0
 40
18.0
 40
18.0
 40
19.0
 40
19.0
 40
19.0
 40
20.0
 40
20.0
 40
20.0
 40
21.0
 40
21.0
 40
21.0
 40
22.0
 40
22.0
 40
22.0
 40
23.0
 40
23.0
 40
23.0
 40
24.0
 40
24.0
 40
24.0
 40
25.0
 40
25.0
 40
25.0
 40
26.0
 40
26.0
 40
26.0
 40
27.0
 40
27.0
 40
27.0
 40
28.0
 40
28.0
 40
28.0
 40
29.0
 40
29.0
 40
29.0
 40
30.0
 40
30.0
 40
30.0
 40
30.0
 10
307.540163523674
 20
-188.5474511519096
 30
0.0
 10
307.540163523674
 20
-180.0333616118151
 30
0.0
 10
307.6672268982202
 20
-172.3458492594827
 30
0.0
 10
307.5029093405701
 20
-164.6645617770318
 30
0.0
 10
307.3516592578617
 20
-157.5932521453988
 30
0.0
 10
307.5516153835397
 20
-149.4892437280596
 30
0.0
 10
316.3495423589175
 20
-149.3073919949511
 30
0.0
 10
326.6037087419518
 20
-149.095425671856
 30
0.0
 10
325.81063180813
 20
-158.0735887652645
 30
0.0
 10
325.7875855341445
 20
-165.3861239843372
 30
0.0
 10
325.7598349691689
 20
-174.1990785559065
 30
0.0
 10
325.8931707316788
 20
-183.0153237552568
 30
0.0
 10
325.688130170307
 20
-191.8238829034262
 30
0.0
 10
325.5696675701893
 20
-196.9126308752629
 30
0.0
 10
326.4206215384711
 20
-202.0668112580115
 30
0.0
 10
332.1608544133614
 20
-202.1763285775542
 30
0.0
 10
337.6866856630058
 20
-202.2817831003449
 30
0.0
 10
339.2624330687704
 20
-197.4028037399048
 30
0.0
 10
339.1835055201173
 20
-192.2255533241241
 30
0.0
 10
339.0333958715855
 20
-182.3781536770293
 30
0.0
 10
339.0546839762283
 20
-172.5281167758894
 30
0.0
 10
339.0088765367891
 20
-162.6791609113207
 30
0.0
 10
338.9777046692889
 20
-155.9750710846383
 30
0.0
 10
340.3140084160041
 20
-149.1516395731469
 30
0.0
 10
348.2952419664871
 20
-149.1565933341117
 30
0.0
 10
356.3230907639609
 20
-149.1615827336318
 30
0.0
 10
357.4205210687123
 20
-155.954091847585
 30
0.0
 10
357.3220635847847
 20
-162.6685049794823
 30
0.0
 10
357.2013201163045
 20
-170.9020239530309
 30
0.0
 10
357.2933151398993
 20
-179.1386672410372
 30
0.0
 10
357.2933151398993
 20
-187.6550732880523
 30
0.0
 10
366.7899481209661
 20
-186.9948806948851
 30
0.0
 10
371.1214121608209
 20
-183.1717057917522
 30
0.0
 10
370.4453722844009
 20
-173.8211671805593
 30
0.0
 10
369.8114334363399
 20
-165.0527014214076
 30
0.0
 10
370.4137252359869
 20
-156.201696738719
 30
0.0
 10
370.217808148027
 20
-147.3926505301124
 30
0.0
 10
370.0485962270395
 20
-139.7831391236632
 30
0.0
 10
372.5439137240737
 20
-132.5687050028373
 30
0.0
 10
380.563161747119
 20
-133.0201268645051
 30
0.0
 10
387.6263933033424
 20
-133.417734488452
 30
0.0
 10
388.7288130076267
 20
-140.7764929302748
 30
0.0
 10
388.699161719007
 20
-147.6066244925496
 30
0.0
 10
388.5036247757871
 20
-192.7081351737697
 30
0.0
 10
388.5828374329722
 20
-237.8108456867922
 30
0.0
 10
388.5735238872021
 20
-282.9131641755757
 30
0.0
 10
388.5686295238556
 20
-306.7603793438557
 30
0.0
 10
387.8903562971773
 20
-330.6330642087523
 30
0.0
 10
388.7871652229915
 20
-354.4463514602685
 30
0.0
 10
389.4425822480534
 20
-371.8499234570045
 30
0.0
 10
382.7500393173996
 20
-384.4168190735527
 30
0.0
 10
366.7129688140394
 20
-389.5252751735115
 30
0.0
 10
345.4506665027948
 20
-396.2981236774467
 30
0.0
 10
338.865324384773
 20
-408.9941021873819
 30
0.0
 10
341.0092456010752
 20
-430.8734031473305
 30
0.0
 10
343.2734351049312
 20
-453.9803102215228
 30
0.0
 10
341.4055939956033
 20
-477.4821401475383
 30
0.0
 10
341.5844520890078
 20
-500.8095786806862
 30
0.0
 10
341.6361992897855
 20
-507.557527705083
 30
0.0
 10
341.806076464045
 20
-513.0223457262728
 30
0.0
 10
332.265156622454
 20
-512.8340790509119
 30
0.0
 10
322.5983138405045
 20
-512.6432463986475
 30
0.0
 10
323.2798182973474
 20
-506.6922707914982
 30
0.0
 10
323.2957368577281
 20
-500.2425928224166
 30
0.0
 10
323.3659685957919
 20
-471.7297901595084
 30
0.0
 10
322.8202233240736
 20
-443.2029696598656
 30
0.0
 10
323.6021810246639
 20
-414.7115501377739
 30
0.0
 10
323.8592063772758
 20
-405.3472787983646
 30
0.0
 10
320.9422133433545
 20
-400.3134973779361
 30
0.0
 10
312.5788868255313
 20
-397.1238930576601
 30
0.0
 10
306.8104757228557
 20
-394.9239480124361
 30
0.0
 10
301.4200710317236
 20
-391.7385728022218
 30
0.0
 10
295.8429677622044
 20
-389.0300416322098
 30
0.0
 10
282.4249043459677
 20
-382.5134819504874
 30
0.0
 10
275.9324600952677
 20
-372.1964966515388
 30
0.0
 10
275.9920002629224
 20
-356.898213663364
 30
0.0
 10
276.2603349211113
 20
-287.9497491633483
 30
0.0
 10
276.1243381455242
 20
-218.9995264939762
 30
0.0
 10
276.0357169063591
 20
-150.0500522345283
 30
0.0
 10
276.0261182520462
 20
-142.5867896317413
 30
0.0
 10
275.6148491770109
 20
-133.4556658043639
 30
0.0
 10
284.9330517274939
 20
-133.2012539467378
 30
0.0
 10
294.5444884156914
 20
-132.9388471703642
 30
0.0
 10
294.3209633170227
 20
-142.0914016566512
 30
0.0
 10
294.1930921349485
 20
-149.5453150750973
 30
0.0
 10
294.0597563724386
 20
-157.3191440391847
 30
0.0
 10
294.7970470677647
 20
-165.1625751266329
 30
0.0
 10
294.0024970731447
 20
-172.8567162526215
 30
0.0
 10
292.982378701945
 20
-182.735715430038
 30
0.0
 10
297.6673298185342
 20
-186.7576703861032
 30
0.0
 10
307.540163523674
 20
-188.5474511519096
 30
0.0
  0
HATCH
  5
46
330
41
100
AcDbEntity
  8
Layer 1
 62
   178
420
    65793
100
AcDbHatch
 10
0.0
 20
0.0
 30
0.0
210
0.0
220
0.0
230
1.0
  2
SOLID
 70
     1
 71
     0
 91
        1
 92
        1
 93
        1
 72
     4
 94
        3
 73
     0
 74
     1
 95
       95
 96
       91
 40
0.0
 40
0.0
 40
0.0
 40
0.0
 40
1.0
 40
1.0
 40
1.0
 40
2.0
 40
2.0
 40
2.0
 40
3.0
 40
3.0
 40
3.0
 40
4.0
 40
4.0
 40
4.0
 40
5.0
 40
5.0
 40
5.0
 40
6.0
 40
6.0
 40
6.0
 40
7.0
 40
7.0
 40
7.0
 40
8.0
 40
8.0
 40
8.0
 40
9.0
 40
9.0
 40
9.0
 40
10.0
 40
10.0
 40
10.0
 40
11.0
 40
11.0
 40
11.0
 40
12.0
 40
12.0
 40
12.0
 40
13.0
 40
13.0
 40
13.0
 40
14.0
 40
14.0
 40
14.0
 40
15.0
 40
15.0
 40
15.0
 40
16.0
 40
16.0
 40
16.0
 40
17.0
 40
17.0
 40
17.0
 40
18.0
 40
18.0
 40
18.0
 40
19.0
 40
19.0
 40
19.0
 40
20.0
 40
20.0
 40
20.0
 40
21.0
 40
21.0
 40
21.0
 40
22.0
 40
22.0
 40
22.0
 40
23.0
 40
23.0
 40
23.0
 40
24.0
 40
24.0
 40
24.0
 40
25.0
 40
25.0
 40
25.0
 40
26.0
 40
26.0
 40
26.0
 40
27.0
 40
27.0
 40
27.0
 40
28.0
 40
28.0
 40
28.0
 40
29.0
 40
29.0
 40
29.0
 40
30.0
 40
30.0
 40
30.0
 40
30.0
 10
307.540163523674
 20
-188.5474511519096
 10
307.540163523674
 20
-180.0333616118151
 10
307.6672268982202
 20
-172.3458492594827
 10
307.5029093405701
 20
-164.6645617770318
 10
307.3516592578617
 20
-157.5932521453988
 10
307.5516153835397
 20
-149.4892437280596
 10
316.3495423589175
 20
-149.3073919949511
 10
326.6037087419518
 20
-149.095425671856
 10
325.81063180813
 20
-158.0735887652645
 10
325.7875855341445
 20
-165.3861239843372
 10
325.7598349691689
 20
-174.1990785559065
 10
325.8931707316788
 20
-183.0153237552568
 10
325.688130170307
 20
-191.8238829034262
 10
325.5696675701893
 20
-196.9126308752629
 10
326.4206215384711
 20
-202.0668112580115
 10
332.1608544133614
 20
-202.1763285775542
 10
337.6866856630058
 20
-202.2817831003449
 10
339.2624330687704
 20
-197.4028037399048
 10
339.1835055201173
 20
-192.2255533241241
 10
339.0333958715855
 20
-182.3781536770293
 10
339.0546839762283
 20
-172.5281167758894
 10
339.0088765367891
 20
-162.6791609113207
 10
338.9777046692889
 20
-155.9750710846383
 10
340.3140084160041
 20
-149.1516395731469
 10
348.2952419664871
 20
-149.1565933341117
 10
356.3230907639609
 20
-149.1615827336318
 10
357.4205210687123
 20
-155.954091847585
 10
357.3220635847847
 20
-162.6685049794823
 10
357.2013201163045
 20
-170.9020239530309
 10
357.2933151398993
 20
-179.1386672410372
 10
357.2933151398993
 20
-187.6550732880523
 10
366.7899481209661
 20
-186.9948806948851
 10
371.1214121608209
 20
-183.1717057917522
 10
370.4453722844009
 20
-173.8211671805593
 10
369.8114334363399
 20
-165.0527014214076
 10
370.4137252359869
 20
-156.201696738719
 10
370.217808148027
 20
-147.3926505301124
 10
370.0485962270395
 20
-139.7831391236632
 10
372.5439137240737
 20
-132.5687050028373
 10
380.563161747119
 20
-133.0201268645051
 10
387.6263933033424
 20
-133.417734488452
 10
388.7288130076267
 20
-140.7764929302748
 10
388.699161719007
 20
-147.6066244925496
 10
388.5036247757871
 20
-192.7081351737697
 10
388.5828374329722
 20
-237.8108456867922
 10
388.5735238872021
 20
-282.9131641755757
 10
388.5686295238556
 20
-306.7603793438557
 10
387.8903562971773
 20
-330.6330642087523
 10
388.7871652229915
 20
-354.4463514602685
 10
389.4425822480534
 20
-371.8499234570045
 10
382.7500393173996
 20
-384.4168190735527
 10
366.7129688140394
 20
-389.5252751735115
 10
345.4506665027948
 20
-396.2981236774467
 10
338.865324384773
 20
-408.9941021873819
 10
341.0092456010752
 20
-430.8734031473305
 10
343.2734351049312
 20
-453.9803102215228
 10
341.4055939956033
 20
-477.4821401475383
 10
341.5844520890078
 20
-500.8095786806862
 10
341.6361992897855
 20
-507.557527705083
 10
341.806076464045
 20
-513.0223457262728
 10
332.265156622454
 20
-512.8340790509119
 10
322.5983138405045
 20
-512.6432463986475
 10
323.2798182973474
 20
-506.6922707914982
 10
323.2957368577281
 20
-500.2425928224166
 10
323.3659685957919
 20
-471.7297901595084
 10
322.8202233240736
 20
-443.2029696598656
 10
323.6021810246639
 20
-414.7115501377739
 10
323.8592063772758
 20
-405.3472787983646
 10
320.9422133433545
 20
-400.3134973779361
 10
312.5788868255313
 20
-397.1238930576601
 10
306.8104757228557
 20
-394.9239480124361
 10
301.4200710317236
 20
-391.7385728022218
 10
295.8429677622044
 20
-389.0300416322098
 10
282.4249043459677
 20
-382.5134819504874
 10
275.9324600952677
 20
-372.1964966515388
 10
275.9920002629224
 20
-356.898213663364
 10
276.2603349211113
 20
-287.9497491633483
 10
276.1243381455242
 20
-218.9995264939762
 10
276.0357169063591
 20
-150.0500522345283
 10
276.0261182520462
 20
-142.5867896317413
 10
275.6148491770109
 20
-133.4556658043639
 10
284.9330517274939
 20
-133.2012539467378
 10
294.5444884156914
 20
-132.9388471703642
 10
294.3209633170227
 20
-142.0914016566512
 10
294.1930921349485
 20
-149.5453150750973
 10
294.0597563724386
 20
-157.3191440391847
 10
294.7970470677647
 20
-165.1625751266329
 10
294.0024970731447
 20
-172.8567162526215
 10
292.982378701945
 20
-182.735715430038
 10
297.6673298185342
 20
-186.7576703861032
 10
307.540163523674
 20
-188.5474511519096
 97
        0
 97
        0
 75
     2
 76
     1
 98
        0
  0
SPLINE
  5
47
330
41
100
AcDbEntity
  8
Layer 1
370
     0
100
AcDbSpline
210
0.0
220
0.0
230
1.0
 70
    11
 71
     3
 72
    68
 73
    64
 74
     0
 42
0.0000000001
 43
0.0000000001
 12
1.0
 22
0.0
 32
0.0
 13
1.0
 23
0.0
 33
0.0
 40
0.0
 40
0.0
 40
0.0
 40
0.0
 40
1.0
 40
1.0
 40
1.0
 40
2.0
 40
2.0
 40
2.0
 40
3.0
 40
3.0
 40
3.0
 40
4.0
 40
4.0
 40
4.0
 40
5.0
 40
5.0
 40
5.0
 40
6.0
 40
6.0
 40
6.0
 40
7.0
 40
7.0
 40
7.0
 40
8.0
 40
8.0
 40
8.0
 40
9.0
 40
9.0
 40
9.0
 40
10.0
 40
10.0
 40
10.0
 40
11.0
 40
11.0
 40
11.0
 40
12.0
 40
12.0
 40
12.0
 40
13.0
 40
13.0
 40
13.0
 40
14.0
 40
14.0
 40
14.0
 40
15.0
 40
15.0
 40
15.0
 40
16.0
 40
16.0
 40
16.0
 40
17.0
 40
17.0
 40
17.0
 40
18.0
 40
18.0
 40
18.0
 40
19.0
 40
19.0
 40
19.0
 40
20.0
 40
20.0
 40
20.0
 40
21.0
 40
21.0
 40
21.0
 40
21.0
 10
181.630243120313
 20
-315.1495794620587
 30
0.0
 10
181.6330942057502
 20
-291.8344956325
 30
0.0
 10
181.5895201165804
 20
-268.5193167667676
 30
0.0
 10
181.6593241918217
 20
-245.2044230095671
 30
0.0
 10
181.6806122964517
 20
-238.0984726898168
 30
0.0
 10
180.2178153922778
 20
-228.6894155499249
 30
0.0
 10
190.1872058577355
 20
-228.19672422647
 30
0.0
 10
200.3396835266631
 20
-227.6950282248472
 30
0.0
 10
200.142245859799
 20
-236.886048605551
 30
0.0
 10
199.681462934268
 20
-244.1860628077338
 30
0.0
 10
199.3153360453998
 20
-249.9860021635923
 30
0.0
 10
200.1059420384991
 20
-254.068708998615
 30
0.0
 10
206.4913280308556
 20
-256.1179741782307
 30
0.0
 10
214.4143994383212
 20
-258.6607860069198
 30
0.0
 10
212.296137991003
 20
-251.977081441144
 30
0.0
 10
214.5093881016328
 20
-248.7474431294413
 30
0.0
 10
220.3684637213701
 20
-240.1973705151722
 30
0.0
 10
226.2302478722686
 20
-241.3749400799024
 30
0.0
 10
230.4891517876185
 20
-250.3481137737908
 30
0.0
 10
231.974994965778
 20
-253.4787481434996
 30
0.0
 10
231.3731783470339
 20
-257.8164132941893
 30
0.0
 10
237.0836648971435
 20
-256.2612174626447
 30
0.0
 10
242.2126725713333
 20
-254.8643519093293
 30
0.0
 10
245.4421445697117
 20
-252.467990836185
 30
0.0
 10
244.7995099110613
 20
-246.5787412288573
 30
0.0
 10
244.5198659472717
 20
-244.0161143563364
 30
0.0
 10
244.6547222886857
 20
-241.4039498742732
 30
0.0
 10
244.667124510368
 20
-238.8146415938245
 30
0.0
 10
244.6952077019669
 20
-232.9591535899472
 30
0.0
 10
247.1451454223825
 20
-228.0379662854393
 30
0.0
 10
253.1742882887393
 20
-227.7859778504535
 30
0.0
 10
260.2272084192718
 20
-227.491223133824
 30
0.0
 10
262.9375452767308
 20
-232.998807436632
 30
0.0
 10
262.9462410873221
 20
-239.2681780105322
 30
0.0
 10
263.0157600540188
 20
-289.5232394598097
 30
0.0
 10
263.3187829184299
 20
-339.7841456342267
 30
0.0
 10
262.6059640398071
 20
-390.0298697786766
 30
0.0
 10
262.4249201142375
 20
-402.7905679281466
 30
0.0
 10
253.0018926556659
 20
-410.6132336099599
 30
0.0
 10
240.9991080528926
 20
-413.4033295826575
 30
0.0
 10
232.511854354525
 20
-415.3762094314661
 30
0.0
 10
230.8477233000467
 20
-419.6819186661523
 30
0.0
 10
231.0094273627128
 20
-427.6151351859862
 30
0.0
 10
231.5058013381895
 20
-451.9562296299773
 30
0.0
 10
231.0839357289315
 20
-476.3146681770686
 30
0.0
 10
231.2442142488762
 20
-500.6648860944842
 30
0.0
 10
231.2886436636782
 20
-507.4156862043419
 30
0.0
 10
231.3911401853238
 20
-512.8056157145602
 30
0.0
 10
221.9039157862244
 20
-512.8369776544423
 30
0.0
 10
211.673365894263
 20
-512.8707630169283
 30
0.0
 10
213.378219952474
 20
-506.3235779257247
 30
0.0
 10
213.3731355167674
 20
-500.2722916291059
 30
0.0
 10
213.3532254367638
 20
-476.439118056629
 30
0.0
 10
213.0626523121155
 20
-452.6003373494405
 30
0.0
 10
213.5145493546988
 20
-428.7758595875675
 30
0.0
 10
213.6698384751107
 20
-420.5879698606095
 30
0.0
 10
212.6837430568612
 20
-415.4828875450949
 30
0.0
 10
203.1818355677296
 20
-413.2010925886298
 30
0.0
 10
187.4237912929657
 20
-409.4169181584439
 30
0.0
 10
180.9728303354441
 20
-398.3027931289362
 30
0.0
 10
181.4612212716838
 20
-381.9810179851156
 30
0.0
 10
182.1272823490508
 20
-359.7221425166408
 30
0.0
 10
181.6273920348631
 20
-337.4283887695838
 30
0.0
 10
181.630243120313
 20
-315.1495794620587
 30
0.0
  0
HATCH
  5
48
330
41
100
AcDbEntity
  8
Layer 1
 62
   178
420
    66049
100
AcDbHatch
 10
0.0
 20
0.0
 30
0.0
210
0.0
220
0.0
230
1.0
  2
SOLID
 70
     1
 71
     0
 91
        1
 92
        1
 93
        1
 72
     4
 94
        3
 73
     0
 74
     1
 95
       68
 96
       64
 40
0.0
 40
0.0
 40
0.0
 40
0.0
 40
1.0
 40
1.0
 40
1.0
 40
2.0
 40
2.0
 40
2.0
 40
3.0
 40
3.0
 40
3.0
 40
4.0
 40
4.0
 40
4.0
 40
5.0
 40
5.0
 40
5.0
 40
6.0
 40
6.0
 40
6.0
 40
7.0
 40
7.0
 40
7.0
 40
8.0
 40
8.0
 40
8.0
 40
9.0
 40
9.0
 40
9.0
 40
10.0
 40
10.0
 40
10.0
 40
11.0
 40
11.0
 40
11.0
 40
12.0
 40
12.0
 40
12.0
 40
13.0
 40
13.0
 40
13.0
 40
14.0
 40
14.0
 40
14.0
 40
15.0
 40
15.0
 40
15.0
 40
16.0
 40
16.0
 40
16.0
 40
17.0
 40
17.0
 40
17.0
 40
18.0
 40
18.0
 40
18.0
 40
19.0
 40
19.0
 40
19.0
 40
20.0
 40
20.0
 40
20.0
 40
21.0
 40
21.0
 40
21.0
 40
21.0
 10
181.630243120313
 20
-315.1495794620587
 10
181.6330942057502
 20
-291.8344956325
 10
181.5895201165804
 20
-268.5193167667676
 10
181.6593241918217
 20
-245.2044230095671
 10
181.6806122964517
 20
-238.0984726898168
 10
180.2178153922778
 20
-228.6894155499249
 10
190.1872058577355
 20
-228.19672422647
 10
200.3396835266631
 20
-227.6950282248472
 10
200.142245859799
 20
-236.886048605551
 10
199.681462934268
 20
-244.1860628077338
 10
199.3153360453998
 20
-249.9860021635923
 10
200.1059420384991
 20
-254.068708998615
 10
206.4913280308556
 20
-256.1179741782307
 10
214.4143994383212
 20
-258.6607860069198
 10
212.296137991003
 20
-251.977081441144
 10
214.5093881016328
 20
-248.7474431294413
 10
220.3684637213701
 20
-240.1973705151722
 10
226.2302478722686
 20
-241.3749400799024
 10
230.4891517876185
 20
-250.3481137737908
 10
231.974994965778
 20
-253.4787481434996
 10
231.3731783470339
 20
-257.8164132941893
 10
237.0836648971435
 20
-256.2612174626447
 10
242.2126725713333
 20
-254.8643519093293
 10
245.4421445697117
 20
-252.467990836185
 10
244.7995099110613
 20
-246.5787412288573
 10
244.5198659472717
 20
-244.0161143563364
 10
244.6547222886857
 20
-241.4039498742732
 10
244.667124510368
 20
-238.8146415938245
 10
244.6952077019669
 20
-232.9591535899472
 10
247.1451454223825
 20
-228.0379662854393
 10
253.1742882887393
 20
-227.7859778504535
 10
260.2272084192718
 20
-227.491223133824
 10
262.9375452767308
 20
-232.998807436632
 10
262.9462410873221
 20
-239.2681780105322
 10
263.0157600540188
 20
-289.5232394598097
 10
263.3187829184299
 20
-339.7841456342267
 10
262.6059640398071
 20
-390.0298697786766
 10
262.4249201142375
 20
-402.7905679281466
 10
253.0018926556659
 20
-410.6132336099599
 10
240.9991080528926
 20
-413.4033295826575
 10
232.511854354525
 20
-415.3762094314661
 10
230.8477233000467
 20
-419.6819186661523
 10
231.0094273627128
 20
-427.6151351859862
 10
231.5058013381895
 20
-451.9562296299773
 10
231.0839357289315
 20
-476.3146681770686
 10
231.2442142488762
 20
-500.6648860944842
 10
231.2886436636782
 20
-507.4156862043419
 10
231.3911401853238
 20
-512.8056157145602
 10
221.9039157862244
 20
-512.8369776544423
 10
211.673365894263
 20
-512.8707630169283
 10
213.378219952474
 20
-506.3235779257247
 10
213.3731355167674
 20
-500.2722916291059
 10
213.3532254367638
 20
-476.439118056629
 10
213.0626523121155
 20
-452.6003373494405
 10
213.5145493546988
 20
-428.7758595875675
 10
213.6698384751107
 20
-420.5879698606095
 10
212.6837430568612
 20
-415.4828875450949
 10
203.1818355677296
 20
-413.2010925886298
 10
187.4237912929657
 20
-409.4169181584439
 10
180.9728303354441
 20
-398.3027931289362
 10
181.4612212716838
 20
-381.9810179851156
 10
182.1272823490508
 20
-359.7221425166408
 10
181.6273920348631
 20
-337.4283887695838
 10
181.630243120313
 20
-315.1495794620587
 97
        0
 97
        0
 75
     2
 76
     1
 98
        0
  0
SPLINE
  5
49
330
41
100
AcDbEntity
  8
Layer 1
370
     0
100
AcDbSpline
210
0.0
220
0.0
230
1.0
 70
    11
 71
     3
 72
    74
 73
    70
 74
     0
 42
0.0000000001
 43
0.0000000001
 12
1.0
 22
0.0
 32
0.0
 13
1.0
 23
0.0
 33
0.0
 40
0.0
 40
0.0
 40
0.0
 40
0.0
 40
1.0
 40
1.0
 40
1.0
 40
2.0
 40
2.0
 40
2.0
 40
3.0
 40
3.0
 40
3.0
 40
4.0
 40
4.0
 40
4.0
 40
5.0
 40
5.0
 40
5.0
 40
6.0
 40
6.0
 40
6.0
 40
7.0
 40
7.0
 40
7.0
 40
8.0
 40
8.0
 40
8.0
 40
9.0
 40
9.0
 40
9.0
 40
10.0
 40
10.0
 40
10.0
 40
11.0
 40
11.0
 40
11.0
 40
12.0
 40
12.0
 40
12.0
 40
13.0
 40
13.0
 40
13.0
 40
14.0
 40
14.0
 40
14.0
 40
15.0
 40
15.0
 40
15.0
 40
16.0
 40
16.0
 40
16.0
 40
17.0
 40
17.0
 40
17.0
 40
18.0
 40
18.0
 40
18.0
 40
19.0
 40
19.0
 40
19.0
 40
20.0
 40
20.0
 40
20.0
 40
21.0
 40
21.0
 40
21.0
 40
22.0
 40
22.0
 40
22.0
 40
23.0
 40
23.0
 40
23.0
 40
23.0
 10
483.2618253491237
 20
-314.9711252724283
 30
0.0
 10
483.2434358480223
 20
-337.2602935237264
 30
0.0
 10
482.7330440357873
 20
-359.5650477087802
 30
0.0
 10
483.4135506127222
 20
-381.8334030363494
 30
0.0
 10
483.9099245882098
 20
-398.0737084136581
 30
0.0
 10
477.8751270690609
 20
-409.35386165208
 30
0.0
 10
461.9309069149167
 20
-413.1701107934896
 30
0.0
 10
452.467869223965
 20
-415.4351081048953
 30
0.0
 10
451.5419317085489
 20
-420.6150076542199
 30
0.0
 10
451.7148025225251
 20
-428.8305529099671
 30
0.0
 10
452.2162609337083
 20
-452.664201663345
 30
0.0
 10
451.8074627993938
 20
-476.515717218841
 30
0.0
 10
451.9343836196749
 20
-500.3592497351001
 30
0.0
 10
451.9694994886813
 20
-506.9630288723129
 30
0.0
 10
452.3814338169905
 20
-512.7150937517872
 30
0.0
 10
442.8116229762381
 20
-512.8182080086008
 30
0.0
 10
432.9941953648631
 20
-512.9239357604129
 30
0.0
 10
433.8608778211801
 20
-506.9021581981124
 30
0.0
 10
433.8870127710652
 20
-500.4701094406992
 30
0.0
 10
433.9840447122642
 20
-476.6262918159082
 30
0.0
 10
433.6302725269979
 20
-452.7764869116745
 30
0.0
 10
434.0720006981555
 20
-428.9405572899341
 30
0.0
 10
434.2221103466763
 20
-420.838889138573
 30
0.0
 10
433.5176071339265
 20
-415.4567763542545
 30
0.0
 10
423.9182875588795
 20
-413.2287956355121
 30
0.0
 10
407.9637084609512
 20
-409.5258058632844
 30
0.0
 10
402.1875519095029
 20
-398.4407143871922
 30
0.0
 10
402.419820336856
 20
-382.0732505991764
 30
0.0
 10
403.067016732206
 20
-336.4673591441842
 30
0.0
 10
402.6462915571228
 20
-290.8462856592232
 30
0.0
 10
402.6484298712203
 20
-245.231223212726
 30
0.0
 10
402.6485249074049
 20
-242.6398478953342
 30
0.0
 10
402.5446503611329
 20
-240.0420576357137
 30
0.0
 10
402.6893429473112
 20
-237.4584515261522
 30
0.0
 10
402.9832898563909
 20
-232.2102684804777
 30
0.0
 10
405.5304020722942
 20
-228.0376336588033
 30
0.0
 10
410.8925810175479
 20
-227.9165813227446
 30
0.0
 10
417.1266218910223
 20
-227.7759040152141
 30
0.0
 10
419.8506439586054
 20
-232.2359282494617
 30
0.0
 10
420.0051252714802
 20
-238.1810353724122
 30
0.0
 10
420.0993061272402
 20
-241.8051688731139
 30
0.0
 10
419.7459140866904
 20
-245.4527050334855
 30
0.0
 10
420.0196182891304
 20
-249.0573561170058
 30
0.0
 10
420.3461626084518
 20
-253.3585036149798
 30
0.0
 10
423.6966156657509
 20
-254.9598157535438
 30
0.0
 10
427.292737251968
 20
-256.0709550274769
 30
0.0
 10
431.8101870988339
 20
-257.4667276647087
 30
0.0
 10
432.9225380840689
 20
-255.3124475046479
 30
0.0
 10
434.6556178881692
 20
-251.1492450239748
 30
0.0
 10
439.5088305639183
 20
-239.4909903378357
 30
0.0
 10
445.9383608625194
 20
-239.9248780240359
 30
0.0
 10
451.0476960471569
 20
-251.0906077000545
 30
0.0
 10
452.8074335001384
 20
-254.936127985331
 30
0.0
 10
453.8045531154221
 20
-257.6417605518145
 30
0.0
 10
458.5592132710553
 20
-256.0093953409705
 30
0.0
 10
462.1582809789197
 20
-254.7737349103609
 30
0.0
 10
465.2876323601777
 20
-253.1467630028128
 30
0.0
 10
465.4341781519197
 20
-248.7452097791829
 30
0.0
 10
465.5203284503623
 20
-246.1576834271382
 30
0.0
 10
465.4467704459603
 20
-243.5630293614977
 30
0.0
 10
465.3883231943873
 20
-240.9728657554188
 30
0.0
 10
465.2360752317709
 20
-234.2242277187033
 30
0.0
 10
466.4939741288272
 20
-227.4711467405068
 30
0.0
 10
474.7100420835686
 20
-227.8632660249714
 30
0.0
 10
482.8226156367546
 20
-228.2504196689724
 30
0.0
 10
483.3119569348
 20
-235.3278353752557
 30
0.0
 10
483.2991745684121
 20
-241.8835262046796
 30
0.0
 10
483.2516089596174
 20
-266.2459800304423
 30
0.0
 10
483.2802148502251
 20
-290.608576410481
 30
0.0
 10
483.2618253491237
 20
-314.9711252724283
 30
0.0
  0
HATCH
  5
4A
330
41
100
AcDbEntity
  8
Layer 1
 62
   178
420
    66049
100
AcDbHatch
 10
0.0
 20
0.0
 30
0.0
210
0.0
220
0.0
230
1.0
  2
SOLID
 70
     1
 71
     0
 91
        1
 92
        1
 93
        1
 72
     4
 94
        3
 73
     0
 74
     1
 95
       74
 96
       70
 40
0.0
 40
0.0
 40
0.0
 40
0.0
 40
1.0
 40
1.0
 40
1.0
 40
2.0
 40
2.0
 40
2.0
 40
3.0
 40
3.0
 40
3.0
 40
4.0
 40
4.0
 40
4.0
 40
5.0
 40
5.0
 40
5.0
 40
6.0
 40
6.0
 40
6.0
 40
7.0
 40
7.0
 40
7.0
 40
8.0
 40
8.0
 40
8.0
 40
9.0
 40
9.0
 40
9.0
 40
10.0
 40
10.0
 40
10.0
 40
11.0
 40
11.0
 40
11.0
 40
12.0
 40
12.0
 40
12.0
 40
13.0
 40
13.0
 40
13.0
 40
14.0
 40
14.0
 40
14.0
 40
15.0
 40
15.0
 40
15.0
 40
16.0
 40
16.0
 40
16.0
 40
17.0
 40
17.0
 40
17.0
 40
18.0
 40
18.0
 40
18.0
 40
19.0
 40
19.0
 40
19.0
 40
20.0
 40
20.0
 40
20.0
 40
21.0
 40
21.0
 40
21.0
 40
22.0
 40
22.0
 40
22.0
 40
23.0
 40
23.0
 40
23.0
 40
23.0
 10
483.2618253491237
 20
-314.9711252724283
 10
483.2434358480223
 20
-337.2602935237264
 10
482.7330440357873
 20
-359.5650477087802
 10
483.4135506127222
 20
-381.8334030363494
 10
483.9099245882098
 20
-398.0737084136581
 10
477.8751270690609
 20
-409.35386165208
 10
461.9309069149167
 20
-413.1701107934896
 10
452.467869223965
 20
-415.4351081048953
 10
451.5419317085489
 20
-420.6150076542199
 10
451.7148025225251
 20
-428.8305529099671
 10
452.2162609337083
 20
-452.664201663345
 10
451.8074627993938
 20
-476.515717218841
 10
451.9343836196749
 20
-500.3592497351001
 10
451.9694994886813
 20
-506.9630288723129
 10
452.3814338169905
 20
-512.7150937517872
 10
442.8116229762381
 20
-512.8182080086008
 10
432.9941953648631
 20
-512.9239357604129
 10
433.8608778211801
 20
-506.9021581981124
 10
433.8870127710652
 20
-500.4701094406992
 10
433.9840447122642
 20
-476.6262918159082
 10
433.6302725269979
 20
-452.7764869116745
 10
434.0720006981555
 20
-428.9405572899341
 10
434.2221103466763
 20
-420.838889138573
 10
433.5176071339265
 20
-415.4567763542545
 10
423.9182875588795
 20
-413.2287956355121
 10
407.9637084609512
 20
-409.5258058632844
 10
402.1875519095029
 20
-398.4407143871922
 10
402.419820336856
 20
-382.0732505991764
 10
403.067016732206
 20
-336.4673591441842
 10
402.6462915571228
 20
-290.8462856592232
 10
402.6484298712203
 20
-245.231223212726
 10
402.6485249074049
 20
-242.6398478953342
 10
402.5446503611329
 20
-240.0420576357137
 10
402.6893429473112
 20
-237.4584515261522
 10
402.9832898563909
 20
-232.2102684804777
 10
405.5304020722942
 20
-228.0376336588033
 10
410.8925810175479
 20
-227.9165813227446
 10
417.1266218910223
 20
-227.7759040152141
 10
419.8506439586054
 20
-232.2359282494617
 10
420.0051252714802
 20
-238.1810353724122
 10
420.0993061272402
 20
-241.8051688731139
 10
419.7459140866904
 20
-245.4527050334855
 10
420.0196182891304
 20
-249.0573561170058
 10
420.3461626084518
 20
-253.3585036149798
 10
423.6966156657509
 20
-254.9598157535438
 10
427.292737251968
 20
-256.0709550274769
 10
431.8101870988339
 20
-257.4667276647087
 10
432.9225380840689
 20
-255.3124475046479
 10
434.6556178881692
 20
-251.1492450239748
 10
439.5088305639183
 20
-239.4909903378357
 10
445.9383608625194
 20
-239.9248780240359
 10
451.0476960471569
 20
-251.0906077000545
 10
452.8074335001384
 20
-254.936127985331
 10
453.8045531154221
 20
-257.6417605518145
 10
458.5592132710553
 20
-256.0093953409705
 10
462.1582809789197
 20
-254.7737349103609
 10
465.2876323601777
 20
-253.1467630028128
 10
465.4341781519197
 20
-248.7452097791829
 10
465.5203284503623
 20
-246.1576834271382
 10
465.4467704459603
 20
-243.5630293614977
 10
465.3883231943873
 20
-240.9728657554188
 10
465.2360752317709
 20
-234.2242277187033
 10
466.4939741288272
 20
-227.4711467405068
 10
474.7100420835686
 20
-227.8632660249714
 10
482.8226156367546
 20
-228.2504196689724
 10
483.3119569348
 20
-235.3278353752557
 10
483.2991745684121
 20
-241.8835262046796
 10
483.2516089596174
 20
-266.2459800304423
 10
483.2802148502251
 20
-290.608576410481
 10
483.2618253491237
 20
-314.9711252724283
 97
        0
 97
        0
 75
     2
 76
     1
 98
        0
  0
SPLINE
  5
4B
330
41
100
AcDbEntity
  8
Layer 1
370
     0
100
AcDbSpline
210
0.0
220
0.0
230
1.0
 70
    11
 71
     3
 72
    11
 73
     7
 74
     0
 42
0.0000000001
 43
0.0000000001
 12
1.0
 22
0.0
 32
0.0
 13
1.0
 23
0.0
 33
0.0
 40
0.0
 40
0.0
 40
0.0
 40
0.0
 40
1.0
 40
1.0
 40
1.0
 40
2.0
 40
2.0
 40
2.0
 40
2.0
 10
341.9211177616507
 20
-380.8583318151559
 30
0.0
 10
340.4211141924534
 20
-339.7204713926931
 30
0.0
 10
340.4211141924534
 20
-339.7204713926931
 30
0.0
 10
368.3837524012088
 20
-326.3424419678613
 30
0.0
 10
376.3273991419392
 20
-362.7326273940162
 30
0.0
 10
373.1304770356874
 20
-369.622750545801
 30
0.0
 10
341.9211177616507
 20
-380.8583318151559
 30
0.0
  0
HATCH
  5
4C
330
41
100
AcDbEntity
  8
Layer 1
 62
     7
420
 16645886
100
AcDbHatch
 10
0.0
 20
0.0
 30
0.0
210
0.0
220
0.0
230
1.0
  2
SOLID
 70
     1
 71
     0
 91
        1
 92
        1
 93
        1
 72
     4
 94
        3
 73
     0
 74
     1
 95
       11
 96
        7
 40
0.0
 40
0.0
 40
0.0
 40
0.0
 40
1.0
 40
1.0
 40
1.0
 40
2.0
 40
2.0
 40
2.0
 40
2.0
 10
341.9211177616507
 20
-380.8583318151559
 10
340.4211141924534
 20
-339.7204713926931
 10
340.4211141924534
 20
-339.7204713926931
 10
368.3837524012088
 20
-326.3424419678613
 10
376.3273991419392
 20
-362.7326273940162
 10
373.1304770356874
 20
-369.622750545801
 10
341.9211177616507
 20
-380.8583318151559
 97
        0
 97
        0
 75
     2
 76
     1
 98
        0
  0
SPLINE
  5
4D
330
41
100
AcDbEntity
  8
Layer 1
370
     0
100
AcDbSpline
210
0.0
220
0.0
230
1.0
 70
    11
 71
     3
 72
    11
 73
     7
 74
     0
 42
0.0000000001
 43
0.0000000001
 12
1.0
 22
0.0
 32
0.0
 13
1.0
 23
0.0
 33
0.0
 40
0.0
 40
0.0
 40
0.0
 40
0.0
 40
1.0
 40
1.0
 40
1.0
 40
2.0
 40
2.0
 40
2.0
 40
2.0
 10
294.7488637237911
 20
-326.5315639688524
 30
0.0
 10
330.3066509960754
 20
-343.3812413413198
 30
0.0
 10
322.9402065030954
 20
-330.7257957627589
 30
0.0
 10
322.8023565219664
 20
-379.6683125106611
 30
0.0
 10
295.350490270177
 20
-375.7116711702638
 30
0.0
 10
292.7311505564048
 20
-370.8804831295456
 30
0.0
 10
294.7488637237911
 20
-326.5315639688524
 30
0.0
  0
SPLINE
  5
4E
330
41
100
AcDbEntity
  8
Layer 1
370
     0
100
AcDbSpline
210
0.0
220
0.0
230
1.0
 70
    11
 71
     3
 72
    11
 73
     7
 74
     0
 42
0.0000000001
 43
0.0000000001
 12
1.0
 22
0.0
 32
0.0
 13
1.0
 23
0.0
 33
0.0
 40
0.0
 40
0.0
 40
0.0
 40
0.0
 40
1.0
 40
1.0
 40
1.0
 40
2.0
 40
2.0
 40
2.0
 40
2.0
 10
295.3512030415313
 20
-266.1097219053572
 30
0.0
 10
329.817832397026
 20
-281.6426254663838
 30
0.0
 10
323.5212577162038
 20
-269.8374686028328
 30
0.0
 10
322.4268685692477
 20
-317.6294773386599
 30
0.0
 10
293.2930994970484
 20
-308.9219535308366
 30
0.0
 10
290.6615476339757
 20
-303.9146396869419
 30
0.0
 10
295.3512030415313
 20
-266.1097219053572
 30
0.0
  0
HATCH
  5
4F
330
41
100
AcDbEntity
  8
Layer 1
 62
     7
420
 16514044
100
AcDbHatch
 10
0.0
 20
0.0
 30
0.0
210
0.0
220
0.0
230
1.0
  2
SOLID
 70
     1
 71
     0
 91
        1
 92
        1
 93
        1
 72
     4
 94
        3
 73
     0
 74
     1
 95
       11
 96
        7
 40
0.0
 40
0.0
 40
0.0
 40
0.0
 40
1.0
 40
1.0
 40
1.0
 40
2.0
 40
2.0
 40
2.0
 40
2.0
 10
295.3512030415313
 20
-266.1097219053572
 10
329.817832397026
 20
-281.6426254663838
 10
323.5212577162038
 20
-269.8374686028328
 10
322.4268685692477
 20
-317.6294773386599
 10
293.2930994970484
 20
-308.9219535308366
 10
290.6615476339757
 20
-303.9146396869419
 10
295.3512030415313
 20
-266.1097219053572
 97
        0
 97
        0
 75
     2
 76
     1
 98
        0
  0
SPLINE
  5
50
330
41
100
AcDbEntity
  8
Layer 1
370
     0
100
AcDbSpline
210
0.0
220
0.0
230
1.0
 70
    11
 71
     3
 72
    11
 73
     7
 74
     0
 42
0.0000000001
 43
0.0000000001
 12
1.0
 22
0.0
 32
0.0
 13
1.0
 23
0.0
 33
0.0
 40
0.0
 40
0.0
 40
0.0
 40
0.0
 40
1.0
 40
1.0
 40
1.0
 40
2.0
 40
2.0
 40
2.0
 40
2.0
 10
322.7334552904485
 20
-257.497899532209
 30
0.0
 10
288.5316442544445
 20
-242.658950167799
 30
0.0
 10
294.0416044617887
 20
-249.1135700183095
 30
0.0
 10
294.6811029264591
 20
-205.6768318857694
 30
0.0
 10
323.2403782820675
 20
-212.2085973565308
 30
0.0
 10
324.6115603073631
 20
-214.6746674687311
 30
0.0
 10
322.7334552904485
 20
-257.497899532209
 30
0.0
  0
HATCH
  5
51
330
41
100
AcDbEntity
  8
Layer 1
 62
     7
420
 16645886
100
AcDbHatch
 10
0.0
 20
0.0
 30
0.0
210
0.0
220
0.0
230
1.0
  2
SOLID
 70
     1
 71
     0
 91
        1
 92
        1
 93
        1
 72
     4
 94
        3
 73
     0
 74
     1
 95
       11
 96
        7
 40
0.0
 40
0.0
 40
0.0
 40
0.0
 40
1.0
 40
1.0
 40
1.0
 40
2.0
 40
2.0
 40
2.0
 40
2.0
 10
322.7334552904485
 20
-257.497899532209
 10
288.5316442544445
 20
-242.658950167799
 10
294.0416044617887
 20
-249.1135700183095
 10
294.6811029264591
 20
-205.6768318857694
 10
323.2403782820675
 20
-212.2085973565308
 10
324.6115603073631
 20
-214.6746674687311
 10
322.7334552904485
 20
-257.497899532209
 97
        0
 97
        0
 75
     2
 76
     1
 98
        0
  0
SPLINE
  5
52
330
41
100
AcDbEntity
  8
Layer 1
370
     0
100
AcDbSpline
210
0.0
220
0.0
230
1.0
 70
    11
 71
     3
 72
    11
 73
     7
 74
     0
 42
0.0000000001
 43
0.0000000001
 12
1.0
 22
0.0
 32
0.0
 13
1.0
 23
0.0
 33
0.0
 40
0.0
 40
0.0
 40
0.0
 40
0.0
 40
1.0
 40
1.0
 40
1.0
 40
2.0
 40
2.0
 40
2.0
 40
2.0
 10
369.6640798370699
 20
-204.020719509097
 30
0.0
 10
372.0059614192432
 20
-246.2398184469221
 30
0.0
 10
371.0943268491083
 20
-247.9623492348692
 30
0.0
 10
342.836933923747
 20
-256.0795795609411
 30
0.0
 10
337.919096644624
 20
-218.1158800792782
 30
0.0
 10
337.919096644624
 20
-218.1158800792782
 30
0.0
 10
369.6640798370699
 20
-204.020719509097
 30
0.0
  0
HATCH
  5
53
330
41
100
AcDbEntity
  8
Layer 1
 62
     7
420
 16382972
100
AcDbHatch
 10
0.0
 20
0.0
 30
0.0
210
0.0
220
0.0
230
1.0
  2
SOLID
 70
     1
 71
     0
 91
        1
 92
        1
 93
        1
 72
     4
 94
        3
 73
     0
 74
     1
 95
       11
 96
        7
 40
0.0
 40
0.0
 40
0.0
 40
0.0
 40
1.0
 40
1.0
 40
1.0
 40
2.0
 40
2.0
 40
2.0
 40
2.0
 10
369.6640798370699
 20
-204.020719509097
 10
372.0059614192432
 20
-246.2398184469221
 10
371.0943268491083
 20
-247.9623492348692
 10
342.836933923747
 20
-256.0795795609411
 10
337.919096644624
 20
-218.1158800792782
 10
337.919096644624
 20
-218.1158800792782
 10
369.6640798370699
 20
-204.020719509097
 97
        0
 97
        0
 75
     2
 76
     1
 98
        0
  0
SPLINE
  5
54
330
41
100
AcDbEntity
  8
Layer 1
370
     0
100
AcDbSpline
210
0.0
220
0.0
230
1.0
 70
    11
 71
     3
 72
    11
 73
     7
 74
     0
 42
0.0000000001
 43
0.0000000001
 12
1.0
 22
0.0
 32
0.0
 13
1.0
 23
0.0
 33
0.0
 40
0.0
 40
0.0
 40
0.0
 40
0.0
 40
1.0
 40
1.0
 40
1.0
 40
2.0
 40
2.0
 40
2.0
 40
2.0
 10
341.8253688088807
 20
-317.9791629681404
 30
0.0
 10
341.0218854131854
 20
-294.5912576645787
 30
0.0
 10
335.0262903188759
 20
-269.6544051584115
 30
0.0
 10
368.9412821594051
 20
-266.7858330589152
 30
0.0
 10
374.8572369337089
 20
-302.8184686115837
 30
0.0
 10
372.9608849699835
 20
-306.6207474343264
 30
0.0
 10
341.8253688088807
 20
-317.9791629681404
 30
0.0
  0
HATCH
  5
55
330
41
100
AcDbEntity
  8
Layer 1
 62
     7
420
 16514044
100
AcDbHatch
 10
0.0
 20
0.0
 30
0.0
210
0.0
220
0.0
230
1.0
  2
SOLID
 70
     1
 71
     0
 91
        1
 92
        1
 93
        1
 72
     4
 94
        3
 73
     0
 74
     1
 95
       11
 96
        7
 40
0.0
 40
0.0
 40
0.0
 40
0.0
 40
1.0
 40
1.0
 40
1.0
 40
2.0
 40
2.0
 40
2.0
 40
2.0
 10
341.8253688088807
 20
-317.9791629681404
 10
341.0218854131854
 20
-294.5912576645787
 10
335.0262903188759
 20
-269.6544051584115
 10
368.9412821594051
 20
-266.7858330589152
 10
374.8572369337089
 20
-302.8184686115837
 10
372.9608849699835
 20
-306.6207474343264
 10
341.8253688088807
 20
-317.9791629681404
 97
        0
 97
        0
 75
     2
 76
     1
 98
        0
  0
SPLINE
  5
56
330
41
100
AcDbEntity
  8
Layer 1
370
     0
100
AcDbSpline
210
0.0
220
0.0
230
1.0
 70
    11
 71
     3
 72
    17
 73
    13
 74
     0
 42
0.0000000001
 43
0.0000000001
 12
1.0
 22
0.0
 32
0.0
 13
1.0
 23
0.0
 33
0.0
 40
0.0
 40
0.0
 40
0.0
 40
0.0
 40
1.0
 40
1.0
 40
1.0
 40
2.0
 40
2.0
 40
2.0
 40
3.0
 40
3.0
 40
3.0
 40
4.0
 40
4.0
 40
4.0
 40
4.0
 10
213.0454507632821
 20
-384.5652655889044
 30
0.0
 10
211.1086609043687
 20
-387.2397025288392
 30
0.0
 10
218.2078161371501
 20
-396.1580165870146
 30
0.0
 10
209.055594277499
 20
-396.1665698433389
 30
0.0
 10
198.2037453496105
 20
-396.1766436785674
 30
0.0
 10
198.4913723526352
 20
-386.7048626589458
 30
0.0
 10
199.641167593345
 20
-378.9784686288858
 30
0.0
 10
200.3044251033662
 20
-374.5213192391329
 30
0.0
 10
194.8856521120779
 20
-366.0668292643095
 30
0.0
 10
203.9146120444475
 20
-366.1591806735887
 30
0.0
 10
214.1836991079654
 20
-366.2641956540338
 30
0.0
 10
214.7362394666416
 20
-374.8376471689371
 30
0.0
 10
213.0454507632821
 20
-384.5652655889044
 30
0.0
  0
HATCH
  5
57
330
41
100
AcDbEntity
  8
Layer 1
 62
   254
420
 14869474
100
AcDbHatch
 10
0.0
 20
0.0
 30
0.0
210
0.0
220
0.0
230
1.0
  2
SOLID
 70
     1
 71
     0
 91
        1
 92
        1
 93
        1
 72
     4
 94
        3
 73
     0
 74
     1
 95
       17
 96
       13
 40
0.0
 40
0.0
 40
0.0
 40
0.0
 40
1.0
 40
1.0
 40
1.0
 40
2.0
 40
2.0
 40
2.0
 40
3.0
 40
3.0
 40
3.0
 40
4.0
 40
4.0
 40
4.0
 40
4.0
 10
213.0454507632821
 20
-384.5652655889044
 10
211.1086609043687
 20
-387.2397025288392
 10
218.2078161371501
 20
-396.1580165870146
 10
209.055594277499
 20
-396.1665698433389
 10
198.2037453496105
 20
-396.1766436785674
 10
198.4913723526352
 20
-386.7048626589458
 10
199.641167593345
 20
-378.9784686288858
 10
200.3044251033662
 20
-374.5213192391329
 10
194.8856521120779
 20
-366.0668292643095
 10
203.9146120444475
 20
-366.1591806735887
 10
214.1836991079654
 20
-366.2641956540338
 10
214.7362394666416
 20
-374.8376471689371
 10
213.0454507632821
 20
-384.5652655889044
 97
        0
 97
        0
 75
     2
 76
     1
 98
        0
  0
SPLINE
  5
58
330
41
100
AcDbEntity
  8
Layer 1
370
     0
100
AcDbSpline
210
0.0
220
0.0
230
1.0
 70
    11
 71
     3
 72
    17
 73
    13
 74
     0
 42
0.0000000001
 43
0.0000000001
 12
1.0
 22
0.0
 32
0.0
 13
1.0
 23
0.0
 33
0.0
 40
0.0
 40
0.0
 40
0.0
 40
0.0
 40
1.0
 40
1.0
 40
1.0
 40
2.0
 40
2.0
 40
2.0
 40
3.0
 40
3.0
 40
3.0
 40
4.0
 40
4.0
 40
4.0
 40
4.0
 10
212.4851649558204
 20
-292.9626939009886
 30
0.0
 10
211.3542343971149
 20
-294.7086273486148
 30
0.0
 10
218.1870982496075
 20
-302.9384517906074
 30
0.0
 10
209.4854904440745
 20
-302.9493571924195
 30
0.0
 10
198.6244230066004
 20
-302.9629711254038
 30
0.0
 10
198.415913624598
 20
-293.8491438830442
 30
0.0
 10
199.5670868899469
 20
-285.9011729960512
 30
0.0
 10
200.1801652961749
 20
-281.6684040305881
 30
0.0
 10
195.2971112594605
 20
-273.5615088892409
 30
0.0
 10
203.4955975206394
 20
-273.759540532239
 30
0.0
 10
213.4586680800312
 20
-274.0001721435583
 30
0.0
 10
215.1439922029549
 20
-282.154466580374
 30
0.0
 10
212.4851649558204
 20
-292.9626939009886
 30
0.0
  0
HATCH
  5
59
330
41
100
AcDbEntity
  8
Layer 1
 62
   254
420
 14737374
100
AcDbHatch
 10
0.0
 20
0.0
 30
0.0
210
0.0
220
0.0
230
1.0
  2
SOLID
 70
     1
 71
     0
 91
        1
 92
        1
 93
        1
 72
     4
 94
        3
 73
     0
 74
     1
 95
       17
 96
       13
 40
0.0
 40
0.0
 40
0.0
 40
0.0
 40
1.0
 40
1.0
 40
1.0
 40
2.0
 40
2.0
 40
2.0
 40
3.0
 40
3.0
 40
3.0
 40
4.0
 40
4.0
 40
4.0
 40
4.0
 10
212.4851649558204
 20
-292.9626939009886
 10
211.3542343971149
 20
-294.7086273486148
 10
218.1870982496075
 20
-302.9384517906074
 10
209.4854904440745
 20
-302.9493571924195
 10
198.6244230066004
 20
-302.9629711254038
 10
198.415913624598
 20
-293.8491438830442
 10
199.5670868899469
 20
-285.9011729960512
 10
200.1801652961749
 20
-281.6684040305881
 10
195.2971112594605
 20
-273.5615088892409
 10
203.4955975206394
 20
-273.759540532239
 10
213.4586680800312
 20
-274.0001721435583
 10
215.1439922029549
 20
-282.154466580374
 10
212.4851649558204
 20
-292.9626939009886
 97
        0
 97
        0
 75
     2
 76
     1
 98
        0
  0
SPLINE
  5
5A
330
41
100
AcDbEntity
  8
Layer 1
370
     0
100
AcDbSpline
210
0.0
220
0.0
230
1.0
 70
    11
 71
     3
 72
    17
 73
    13
 74
     0
 42
0.0000000001
 43
0.0000000001
 12
1.0
 22
0.0
 32
0.0
 13
1.0
 23
0.0
 33
0.0
 40
0.0
 40
0.0
 40
0.0
 40
0.0
 40
1.0
 40
1.0
 40
1.0
 40
2.0
 40
2.0
 40
2.0
 40
3.0
 40
3.0
 40
3.0
 40
4.0
 40
4.0
 40
4.0
 40
4.0
 10
211.8634382570708
 20
-339.715624547438
 30
0.0
 10
211.1423037125769
 20
-340.6991302297374
 30
0.0
 10
218.2884543370656
 20
-349.7913842589242
 30
0.0
 10
208.5982801725859
 20
-349.1482981784156
 30
0.0
 10
198.0765869389015
 20
-348.4499723174558
 30
0.0
 10
198.6234726447838
 20
-339.0751757209509
 30
0.0
 10
199.6652592653318
 20
-331.4018593982146
 30
0.0
 10
200.2150910928485
 20
-327.3516074191448
 30
0.0
 10
195.4036943369156
 20
-319.4215983704435
 30
0.0
 10
203.6779719527549
 20
-319.8333901444603
 30
0.0
 10
213.3069903345149
 20
-320.3126576072791
 30
0.0
 10
215.6440250714204
 20
-327.8843802520933
 30
0.0
 10
211.8634382570708
 20
-339.715624547438
 30
0.0
  0
HATCH
  5
5B
330
41
100
AcDbEntity
  8
Layer 1
 62
   254
420
 15066597
100
AcDbHatch
 10
0.0
 20
0.0
 30
0.0
210
0.0
220
0.0
230
1.0
  2
SOLID
 70
     1
 71
     0
 91
        1
 92
        1
 93
        1
 72
     4
 94
        3
 73
     0
 74
     1
 95
       17
 96
       13
 40
0.0
 40
0.0
 40
0.0
 40
0.0
 40
1.0
 40
1.0
 40
1.0
 40
2.0
 40
2.0
 40
2.0
 40
3.0
 40
3.0
 40
3.0
 40
4.0
 40
4.0
 40
4.0
 40
4.0
 10
211.8634382570708
 20
-339.715624547438
 10
211.1423037125769
 20
-340.6991302297374
 10
218.2884543370656
 20
-349.7913842589242
 10
208.5982801725859
 20
-349.1482981784156
 10
198.0765869389015
 20
-348.4499723174558
 10
198.6234726447838
 20
-339.0751757209509
 10
199.6652592653318
 20
-331.4018593982146
 10
200.2150910928485
 20
-327.3516074191448
 10
195.4036943369156
 20
-319.4215983704435
 10
203.6779719527549
 20
-319.8333901444603
 10
213.3069903345149
 20
-320.3126576072791
 10
215.6440250714204
 20
-327.8843802520933
 10
211.8634382570708
 20
-339.715624547438
 97
        0
 97
        0
 75
     2
 76
     1
 98
        0
  0
SPLINE
  5
5C
330
41
100
AcDbEntity
  8
Layer 1
370
     0
100
AcDbSpline
210
0.0
220
0.0
230
1.0
 70
    11
 71
     3
 72
    23
 73
    19
 74
     0
 42
0.0000000001
 43
0.0000000001
 12
1.0
 22
0.0
 32
0.0
 13
1.0
 23
0.0
 33
0.0
 40
0.0
 40
0.0
 40
0.0
 40
0.0
 40
1.0
 40
1.0
 40
1.0
 40
2.0
 40
2.0
 40
2.0
 40
3.0
 40
3.0
 40
3.0
 40
4.0
 40
4.0
 40
4.0
 40
5.0
 40
5.0
 40
5.0
 40
6.0
 40
6.0
 40
6.0
 40
6.0
 10
244.4421738689798
 20
-378.0941569609258
 30
0.0
 10
244.4421738689798
 20
-382.735343915976
 30
0.0
 10
245.1475324073599
 20
-386.50383737622
 30
0.0
 10
244.2665945238332
 20
-389.8553595905669
 30
0.0
 10
243.1238319605436
 20
-394.2028134679404
 30
0.0
 10
239.230247126512
 20
-396.4185582783248
 30
0.0
 10
234.8219938520997
 20
-396.29532011009
 30
0.0
 10
228.771515363007
 20
-396.1261557071957
 30
0.0
 10
231.4513456062396
 20
-391.221647252527
 30
0.0
 10
231.1382489066018
 20
-388.1714134922804
 30
0.0
 10
230.8257224240642
 20
-385.1264542400895
 30
0.0
 10
231.538351230316
 20
-381.9449755133264
 30
0.0
 10
231.0212118492018
 20
-378.9584872717533
 30
0.0
 10
229.7035827121308
 20
-371.3482512144165
 30
0.0
 10
233.1645628484057
 20
-366.0792790040723
 30
0.0
 10
240.2105453377026
 20
-366.3561669185838
 30
0.0
 10
249.5227130906515
 20
-366.7220562169896
 30
0.0
 10
242.2967795918776
 20
-375.0766631651659
 30
0.0
 10
244.4421738689798
 20
-378.0941569609258
 30
0.0
  0
HATCH
  5
5D
330
41
100
AcDbEntity
  8
Layer 1
 62
     7
420
 16053750
100
AcDbHatch
 10
0.0
 20
0.0
 30
0.0
210
0.0
220
0.0
230
1.0
  2
SOLID
 70
     1
 71
     0
 91
        1
 92
        1
 93
        1
 72
     4
 94
        3
 73
     0
 74
     1
 95
       23
 96
       19
 40
0.0
 40
0.0
 40
0.0
 40
0.0
 40
1.0
 40
1.0
 40
1.0
 40
2.0
 40
2.0
 40
2.0
 40
3.0
 40
3.0
 40
3.0
 40
4.0
 40
4.0
 40
4.0
 40
5.0
 40
5.0
 40
5.0
 40
6.0
 40
6.0
 40
6.0
 40
6.0
 10
244.4421738689798
 20
-378.0941569609258
 10
244.4421738689798
 20
-382.735343915976
 10
245.1475324073599
 20
-386.50383737622
 10
244.2665945238332
 20
-389.8553595905669
 10
243.1238319605436
 20
-394.2028134679404
 10
239.230247126512
 20
-396.4185582783248
 10
234.8219938520997
 20
-396.29532011009
 10
228.771515363007
 20
-396.1261557071957
 10
231.4513456062396
 20
-391.221647252527
 10
231.1382489066018
 20
-388.1714134922804
 10
230.8257224240642
 20
-385.1264542400895
 10
231.538351230316
 20
-381.9449755133264
 10
231.0212118492018
 20
-378.9584872717533
 10
229.7035827121308
 20
-371.3482512144165
 10
233.1645628484057
 20
-366.0792790040723
 10
240.2105453377026
 20
-366.3561669185838
 10
249.5227130906515
 20
-366.7220562169896
 10
242.2967795918776
 20
-375.0766631651659
 10
244.4421738689798
 20
-378.0941569609258
 97
        0
 97
        0
 75
     2
 76
     1
 98
        0
  0
SPLINE
  5
5E
330
41
100
AcDbEntity
  8
Layer 1
370
     0
100
AcDbSpline
210
0.0
220
0.0
230
1.0
 70
    11
 71
     3
 72
    17
 73
    13
 74
     0
 42
0.0000000001
 43
0.0000000001
 12
1.0
 22
0.0
 32
0.0
 13
1.0
 23
0.0
 33
0.0
 40
0.0
 40
0.0
 40
0.0
 40
0.0
 40
1.0
 40
1.0
 40
1.0
 40
2.0
 40
2.0
 40
2.0
 40
3.0
 40
3.0
 40
3.0
 40
4.0
 40
4.0
 40
4.0
 40
4.0
 10
244.6829005164818
 20
-319.7181825335556
 30
0.0
 10
244.6829005164818
 20
-322.9588925603839
 30
0.0
 10
244.8348158524514
 20
-325.9121894156033
 30
0.0
 10
244.6533917821525
 20
-328.8448159013606
 30
0.0
 10
244.1783534293972
 20
-336.5225989246246
 30
0.0
 10
247.929288955138
 20
-345.9776773353733
 30
0.0
 10
236.4854596533041
 20
-349.2328091027248
 30
0.0
 10
232.6722279106452
 20
-350.3174570410902
 30
0.0
 10
230.1775756668831
 20
-348.8687254917677
 30
0.0
 10
231.0048656260005
 20
-344.7604539239455
 30
0.0
 10
232.8895281394325
 20
-335.4011007069184
 30
0.0
 10
224.4513606287528
 20
-320.6135896756969
 30
0.0
 10
244.6829005164818
 20
-319.7181825335556
 30
0.0
  0
HATCH
  5
5F
330
41
100
AcDbEntity
  8
Layer 1
 62
     7
420
 15921906
100
AcDbHatch
 10
0.0
 20
0.0
 30
0.0
210
0.0
220
0.0
230
1.0
  2
SOLID
 70
     1
 71
     0
 91
        1
 92
        1
 93
        1
 72
     4
 94
        3
 73
     0
 74
     1
 95
       17
 96
       13
 40
0.0
 40
0.0
 40
0.0
 40
0.0
 40
1.0
 40
1.0
 40
1.0
 40
2.0
 40
2.0
 40
2.0
 40
3.0
 40
3.0
 40
3.0
 40
4.0
 40
4.0
 40
4.0
 40
4.0
 10
244.6829005164818
 20
-319.7181825335556
 10
244.6829005164818
 20
-322.9588925603839
 10
244.8348158524514
 20
-325.9121894156033
 10
244.6533917821525
 20
-328.8448159013606
 10
244.1783534293972
 20
-336.5225989246246
 10
247.929288955138
 20
-345.9776773353733
 10
236.4854596533041
 20
-349.2328091027248
 10
232.6722279106452
 20
-350.3174570410902
 10
230.1775756668831
 20
-348.8687254917677
 10
231.0048656260005
 20
-344.7604539239455
 10
232.8895281394325
 20
-335.4011007069184
 10
224.4513606287528
 20
-320.6135896756969
 10
244.6829005164818
 20
-319.7181825335556
 97
        0
 97
        0
 75
     2
 76
     1
 98
        0
  0
SPLINE
  5
60
330
41
100
AcDbEntity
  8
Layer 1
370
     0
100
AcDbSpline
210
0.0
220
0.0
230
1.0
 70
    11
 71
     3
 72
    23
 73
    19
 74
     0
 42
0.0000000001
 43
0.0000000001
 12
1.0
 22
0.0
 32
0.0
 13
1.0
 23
0.0
 33
0.0
 40
0.0
 40
0.0
 40
0.0
 40
0.0
 40
1.0
 40
1.0
 40
1.0
 40
2.0
 40
2.0
 40
2.0
 40
3.0
 40
3.0
 40
3.0
 40
4.0
 40
4.0
 40
4.0
 40
5.0
 40
5.0
 40
5.0
 40
6.0
 40
6.0
 40
6.0
 40
6.0
 10
244.9594558043573
 20
-286.5028708195659
 30
0.0
 10
244.6350497991443
 20
-290.3945311709176
 30
0.0
 10
245.0718836069664
 20
-294.211326770368
 30
0.0
 10
243.8616928729698
 20
-297.4038059351406
 30
0.0
 10
242.3123655256331
 20
-301.4909319525977
 30
0.0
 10
238.2441992263648
 20
-303.4824626520058
 30
0.0
 10
233.9395353896689
 20
-302.9114377560436
 30
0.0
 10
229.3812675028967
 20
-302.306793810907
 30
0.0
 10
231.3131154803941
 20
-298.2667344622841
 30
0.0
 10
231.1346375317062
 20
-295.5282431360847
 30
0.0
 10
230.9687043589784
 20
-292.9833642704507
 30
0.0
 10
231.3360667181951
 20
-290.3958616774507
 30
0.0
 10
231.0809896073079
 20
-287.8662123598897
 30
0.0
 10
230.3911219664988
 20
-281.0256268176581
 30
0.0
 10
231.7284711112152
 20
-274.4819343061408
 30
0.0
 10
239.5878682771363
 20
-274.3374793104031
 30
0.0
 10
249.5436685686582
 20
-274.154487143107
 30
0.0
 10
242.2629942293916
 20
-282.8532913812833
 30
0.0
 10
244.9594558043573
 20
-286.5028708195659
 30
0.0
  0
HATCH
  5
61
330
41
100
AcDbEntity
  8
Layer 1
 62
     7
420
 16250871
100
AcDbHatch
 10
0.0
 20
0.0
 30
0.0
210
0.0
220
0.0
230
1.0
  2
SOLID
 70
     1
 71
     0
 91
        1
 92
        1
 93
        1
 72
     4
 94
        3
 73
     0
 74
     1
 95
       23
 96
       19
 40
0.0
 40
0.0
 40
0.0
 40
0.0
 40
1.0
 40
1.0
 40
1.0
 40
2.0
 40
2.0
 40
2.0
 40
3.0
 40
3.0
 40
3.0
 40
4.0
 40
4.0
 40
4.0
 40
5.0
 40
5.0
 40
5.0
 40
6.0
 40
6.0
 40
6.0
 40
6.0
 10
244.9594558043573
 20
-286.5028708195659
 10
244.6350497991443
 20
-290.3945311709176
 10
245.0718836069664
 20
-294.211326770368
 10
243.8616928729698
 20
-297.4038059351406
 10
242.3123655256331
 20
-301.4909319525977
 10
238.2441992263648
 20
-303.4824626520058
 10
233.9395353896689
 20
-302.9114377560436
 10
229.3812675028967
 20
-302.306793810907
 10
231.3131154803941
 20
-298.2667344622841
 10
231.1346375317062
 20
-295.5282431360847
 10
230.9687043589784
 20
-292.9833642704507
 10
231.3360667181951
 20
-290.3958616774507
 10
231.0809896073079
 20
-287.8662123598897
 10
230.3911219664988
 20
-281.0256268176581
 10
231.7284711112152
 20
-274.4819343061408
 10
239.5878682771363
 20
-274.3374793104031
 10
249.5436685686582
 20
-274.154487143107
 10
242.2629942293916
 20
-282.8532913812833
 10
244.9594558043573
 20
-286.5028708195659
 97
        0
 97
        0
 75
     2
 76
     1
 98
        0
  0
SPLINE
  5
62
330
41
100
AcDbEntity
  8
Layer 1
370
     0
100
AcDbSpline
210
0.0
220
0.0
230
1.0
 70
    11
 71
     3
 72
    17
 73
    13
 74
     0
 42
0.0000000001
 43
0.0000000001
 12
1.0
 22
0.0
 32
0.0
 13
1.0
 23
0.0
 33
0.0
 40
0.0
 40
0.0
 40
0.0
 40
0.0
 40
1.0
 40
1.0
 40
1.0
 40
2.0
 40
2.0
 40
2.0
 40
3.0
 40
3.0
 40
3.0
 40
4.0
 40
4.0
 40
4.0
 40
4.0
 10
465.6083794724163
 20
-365.4979189233727
 30
0.0
 10
465.6083794724163
 20
-373.3370971417116
 30
0.0
 10
465.9392954560662
 20
-380.8494459321955
 30
0.0
 10
465.4988502733613
 20
-388.3162723917831
 30
0.0
 10
465.1728761711511
 20
-393.8419610871497
 30
0.0
 10
460.6361814975426
 20
-396.3317902447016
 30
0.0
 10
455.9351217482254
 20
-396.4455010357615
 30
0.0
 10
449.2204353873185
 20
-396.6079178697801
 30
0.0
 10
451.7263019004822
 20
-390.980255351762
 30
0.0
 10
451.5702524906246
 20
-387.3922355999894
 30
0.0
 10
450.7960877568985
 20
-369.5967819092384
 30
0.0
 10
450.8430356305144
 20
-369.5947386313401
 30
0.0
 10
465.6083794724163
 20
-365.4979189233727
 30
0.0
  0
HATCH
  5
63
330
41
100
AcDbEntity
  8
Layer 1
 62
   254
420
 14803425
100
AcDbHatch
 10
0.0
 20
0.0
 30
0.0
210
0.0
220
0.0
230
1.0
  2
SOLID
 70
     1
 71
     0
 91
        1
 92
        1
 93
        1
 72
     4
 94
        3
 73
     0
 74
     1
 95
       17
 96
       13
 40
0.0
 40
0.0
 40
0.0
 40
0.0
 40
1.0
 40
1.0
 40
1.0
 40
2.0
 40
2.0
 40
2.0
 40
3.0
 40
3.0
 40
3.0
 40
4.0
 40
4.0
 40
4.0
 40
4.0
 10
465.6083794724163
 20
-365.4979189233727
 10
465.6083794724163
 20
-373.3370971417116
 10
465.9392954560662
 20
-380.8494459321955
 10
465.4988502733613
 20
-388.3162723917831
 10
465.1728761711511
 20
-393.8419610871497
 10
460.6361814975426
 20
-396.3317902447016
 10
455.9351217482254
 20
-396.4455010357615
 10
449.2204353873185
 20
-396.6079178697801
 10
451.7263019004822
 20
-390.980255351762
 10
451.5702524906246
 20
-387.3922355999894
 10
450.7960877568985
 20
-369.5967819092384
 10
450.8430356305144
 20
-369.5947386313401
 10
465.6083794724163
 20
-365.4979189233727
 97
        0
 97
        0
 75
     2
 76
     1
 98
        0
  0
SPLINE
  5
64
330
41
100
AcDbEntity
  8
Layer 1
370
     0
100
AcDbSpline
210
0.0
220
0.0
230
1.0
 70
    11
 71
     3
 72
    17
 73
    13
 74
     0
 42
0.0000000001
 43
0.0000000001
 12
1.0
 22
0.0
 32
0.0
 13
1.0
 23
0.0
 33
0.0
 40
0.0
 40
0.0
 40
0.0
 40
0.0
 40
1.0
 40
1.0
 40
1.0
 40
2.0
 40
2.0
 40
2.0
 40
3.0
 40
3.0
 40
3.0
 40
4.0
 40
4.0
 40
4.0
 40
4.0
 10
419.7038130583314
 20
-364.6948869495554
 30
0.0
 10
431.8293368893919
 20
-369.1610647765465
 30
0.0
 10
438.7083408079598
 20
-386.1295373757694
 30
0.0
 10
433.9855652911792
 20
-394.4234162040229
 30
0.0
 10
432.6244571010993
 20
-396.8137187206103
 30
0.0
 10
430.8436216158589
 20
-396.7869660355427
 30
0.0
 10
428.9067842388504
 20
-396.3821831798996
 30
0.0
 10
424.029527409195
 20
-395.3628963752963
 30
0.0
 10
420.0680392235663
 20
-392.8656543955822
 30
0.0
 10
419.793004514584
 20
-387.455030756857
 30
0.0
 10
419.4303939644251
 20
-380.3223039929926
 30
0.0
 10
419.7038130583314
 20
-373.1572649274422
 30
0.0
 10
419.7038130583314
 20
-364.6948869495554
 30
0.0
  0
HATCH
  5
65
330
41
100
AcDbEntity
  8
Layer 1
 62
   254
420
 14803681
100
AcDbHatch
 10
0.0
 20
0.0
 30
0.0
210
0.0
220
0.0
230
1.0
  2
SOLID
 70
     1
 71
     0
 91
        1
 92
        1
 93
        1
 72
     4
 94
        3
 73
     0
 74
     1
 95
       17
 96
       13
 40
0.0
 40
0.0
 40
0.0
 40
0.0
 40
1.0
 40
1.0
 40
1.0
 40
2.0
 40
2.0
 40
2.0
 40
3.0
 40
3.0
 40
3.0
 40
4.0
 40
4.0
 40
4.0
 40
4.0
 10
419.7038130583314
 20
-364.6948869495554
 10
431.8293368893919
 20
-369.1610647765465
 10
438.7083408079598
 20
-386.1295373757694
 10
433.9855652911792
 20
-394.4234162040229
 10
432.6244571010993
 20
-396.8137187206103
 10
430.8436216158589
 20
-396.7869660355427
 10
428.9067842388504
 20
-396.3821831798996
 10
424.029527409195
 20
-395.3628963752963
 10
420.0680392235663
 20
-392.8656543955822
 10
419.793004514584
 20
-387.455030756857
 10
419.4303939644251
 20
-380.3223039929926
 10
419.7038130583314
 20
-373.1572649274422
 10
419.7038130583314
 20
-364.6948869495554
 97
        0
 97
        0
 75
     2
 76
     1
 98
        0
  0
SPLINE
  5
66
330
41
100
AcDbEntity
  8
Layer 1
370
     0
100
AcDbSpline
210
0.0
220
0.0
230
1.0
 70
    11
 71
     3
 72
    17
 73
    13
 74
     0
 42
0.0000000001
 43
0.0000000001
 12
1.0
 22
0.0
 32
0.0
 13
1.0
 23
0.0
 33
0.0
 40
0.0
 40
0.0
 40
0.0
 40
0.0
 40
1.0
 40
1.0
 40
1.0
 40
2.0
 40
2.0
 40
2.0
 40
3.0
 40
3.0
 40
3.0
 40
4.0
 40
4.0
 40
4.0
 40
4.0
 10
465.6936744452396
 20
-319.9544187214851
 30
0.0
 10
465.6936744452396
 20
-327.0060321045185
 30
0.0
 10
465.5057403965038
 20
-332.6799059657387
 30
0.0
 10
465.7404797645759
 20
-338.3362694105363
 30
0.0
 10
466.0458785335213
 20
-345.6950634909172
 30
0.0
 10
461.1701898008505
 20
-349.5089367277906
 30
0.0
 10
455.4016836620031
 20
-349.3660260700144
 30
0.0
 10
447.7784514068608
 20
-349.1771416594729
 30
0.0
 10
452.136430541319
 20
-342.2101579959672
 30
0.0
 10
451.6563552709758
 20
-338.3542550078728
 30
0.0
 10
450.4482078148776
 20
-328.6491839219452
 30
0.0
 10
450.3742221476405
 20
-319.0964083167237
 30
0.0
 10
465.6936744452396
 20
-319.9544187214851
 30
0.0
  0
HATCH
  5
67
330
41
100
AcDbEntity
  8
Layer 1
 62
   254
420
 14737374
100
AcDbHatch
 10
0.0
 20
0.0
 30
0.0
210
0.0
220
0.0
230
1.0
  2
SOLID
 70
     1
 71
     0
 91
        1
 92
        1
 93
        1
 72
     4
 94
        3
 73
     0
 74
     1
 95
       17
 96
       13
 40
0.0
 40
0.0
 40
0.0
 40
0.0
 40
1.0
 40
1.0
 40
1.0
 40
2.0
 40
2.0
 40
2.0
 40
3.0
 40
3.0
 40
3.0
 40
4.0
 40
4.0
 40
4.0
 40
4.0
 10
465.6936744452396
 20
-319.9544187214851
 10
465.6936744452396
 20
-327.0060321045185
 10
465.5057403965038
 20
-332.6799059657387
 10
465.7404797645759
 20
-338.3362694105363
 10
466.0458785335213
 20
-345.6950634909172
 10
461.1701898008505
 20
-349.5089367277906
 10
455.4016836620031
 20
-349.3660260700144
 10
447.7784514068608
 20
-349.1771416594729
 10
452.136430541319
 20
-342.2101579959672
 10
451.6563552709758
 20
-338.3542550078728
 10
450.4482078148776
 20
-328.6491839219452
 10
450.3742221476405
 20
-319.0964083167237
 10
465.6936744452396
 20
-319.9544187214851
 97
        0
 97
        0
 75
     2
 76
     1
 98
        0
  0
SPLINE
  5
68
330
41
100
AcDbEntity
  8
Layer 1
370
     0
100
AcDbSpline
210
0.0
220
0.0
230
1.0
 70
    11
 71
     3
 72
    17
 73
    13
 74
     0
 42
0.0000000001
 43
0.0000000001
 12
1.0
 22
0.0
 32
0.0
 13
1.0
 23
0.0
 33
0.0
 40
0.0
 40
0.0
 40
0.0
 40
0.0
 40
1.0
 40
1.0
 40
1.0
 40
2.0
 40
2.0
 40
2.0
 40
3.0
 40
3.0
 40
3.0
 40
4.0
 40
4.0
 40
4.0
 40
4.0
 10
433.8820708896255
 20
-291.6469654875509
 30
0.0
 10
432.1377292980524
 20
-294.6113102988493
 30
0.0
 10
438.6772639766332
 20
-302.7501851152465
 30
0.0
 10
430.202602572308
 20
-302.9021242102608
 30
0.0
 10
419.623507485041
 20
-303.0917926692946
 30
0.0
 10
418.6250573632115
 20
-294.4046778814354
 30
0.0
 10
419.8612404928281
 20
-286.1853786965403
 30
0.0
 10
420.5169426264238
 20
-281.825427561309
 30
0.0
 10
415.9277404626027
 20
-273.823713713733
 30
0.0
 10
423.8697715882572
 20
-273.7805435283262
 30
0.0
 10
434.1435154246719
 20
-273.7247335307984
 30
0.0
 10
435.3008185237031
 20
-282.1509027235716
 30
0.0
 10
433.8820708896255
 20
-291.6469654875509
 30
0.0
  0
HATCH
  5
69
330
41
100
AcDbEntity
  8
Layer 1
 62
   254
420
 14540253
100
AcDbHatch
 10
0.0
 20
0.0
 30
0.0
210
0.0
220
0.0
230
1.0
  2
SOLID
 70
     1
 71
     0
 91
        1
 92
        1
 93
        1
 72
     4
 94
        3
 73
     0
 74
     1
 95
       17
 96
       13
 40
0.0
 40
0.0
 40
0.0
 40
0.0
 40
1.0
 40
1.0
 40
1.0
 40
2.0
 40
2.0
 40
2.0
 40
3.0
 40
3.0
 40
3.0
 40
4.0
 40
4.0
 40
4.0
 40
4.0
 10
433.8820708896255
 20
-291.6469654875509
 10
432.1377292980524
 20
-294.6113102988493
 10
438.6772639766332
 20
-302.7501851152465
 10
430.202602572308
 20
-302.9021242102608
 10
419.623507485041
 20
-303.0917926692946
 10
418.6250573632115
 20
-294.4046778814354
 10
419.8612404928281
 20
-286.1853786965403
 10
420.5169426264238
 20
-281.825427561309
 10
415.9277404626027
 20
-273.823713713733
 10
423.8697715882572
 20
-273.7805435283262
 10
434.1435154246719
 20
-273.7247335307984
 10
435.3008185237031
 20
-282.1509027235716
 10
433.8820708896255
 20
-291.6469654875509
 97
        0
 97
        0
 75
     2
 76
     1
 98
        0
  0
SPLINE
  5
6A
330
41
100
AcDbEntity
  8
Layer 1
370
     0
100
AcDbSpline
210
0.0
220
0.0
230
1.0
 70
    11
 71
     3
 72
    17
 73
    13
 74
     0
 42
0.0000000001
 43
0.0000000001
 12
1.0
 22
0.0
 32
0.0
 13
1.0
 23
0.0
 33
0.0
 40
0.0
 40
0.0
 40
0.0
 40
0.0
 40
1.0
 40
1.0
 40
1.0
 40
2.0
 40
2.0
 40
2.0
 40
3.0
 40
3.0
 40
3.0
 40
4.0
 40
4.0
 40
4.0
 40
4.0
 10
433.8393996441791
 20
-338.1601198483022
 30
0.0
 10
432.2616564785949
 20
-341.0435413511532
 30
0.0
 10
438.4792560926708
 20
-349.1851484577564
 30
0.0
 10
430.4190949935346
 20
-349.2942975120932
 30
0.0
 10
420.5280143415475
 20
-349.4282034916905
 30
0.0
 10
418.3091570962297
 20
-341.2163884060828
 30
0.0
 10
419.8803427652947
 20
-332.7491873419858
 30
0.0
 10
420.7148554742016
 20
-328.2524316236286
 30
0.0
 10
415.223617394593
 20
-319.7766060260692
 30
0.0
 10
424.5194389243516
 20
-319.9664883165187
 30
0.0
 10
434.983872858731
 20
-320.1802009294461
 30
0.0
 10
435.1374513278697
 20
-328.891597461663
 30
0.0
 10
433.8393996441791
 20
-338.1601198483022
 30
0.0
  0
HATCH
  5
6B
330
41
100
AcDbEntity
  8
Layer 1
 62
   254
420
 14737374
100
AcDbHatch
 10
0.0
 20
0.0
 30
0.0
210
0.0
220
0.0
230
1.0
  2
SOLID
 70
     1
 71
     0
 91
        1
 92
        1
 93
        1
 72
     4
 94
        3
 73
     0
 74
     1
 95
       17
 96
       13
 40
0.0
 40
0.0
 40
0.0
 40
0.0
 40
1.0
 40
1.0
 40
1.0
 40
2.0
 40
2.0
 40
2.0
 40
3.0
 40
3.0
 40
3.0
 40
4.0
 40
4.0
 40
4.0
 40
4.0
 10
433.8393996441791
 20
-338.1601198483022
 10
432.2616564785949
 20
-341.0435413511532
 10
438.4792560926708
 20
-349.1851484577564
 10
430.4190949935346
 20
-349.2942975120932
 10
420.5280143415475
 20
-349.4282034916905
 10
418.3091570962297
 20
-341.2163884060828
 10
419.8803427652947
 20
-332.7491873419858
 10
420.7148554742016
 20
-328.2524316236286
 10
415.223617394593
 20
-319.7766060260692
 10
424.5194389243516
 20
-319.9664883165187
 10
434.983872858731
 20
-320.1802009294461
 10
435.1374513278697
 20
-328.891597461663
 10
433.8393996441791
 20
-338.1601198483022
 97
        0
 97
        0
 75
     2
 76
     1
 98
        0
  0
SPLINE
  5
6C
330
41
100
AcDbEntity
  8
Layer 1
370
     0
100
AcDbSpline
210
0.0
220
0.0
230
1.0
 70
    11
 71
     3
 72
    23
 73
    19
 74
     0
 42
0.0000000001
 43
0.0000000001
 12
1.0
 22
0.0
 32
0.0
 13
1.0
 23
0.0
 33
0.0
 40
0.0
 40
0.0
 40
0.0
 40
0.0
 40
1.0
 40
1.0
 40
1.0
 40
2.0
 40
2.0
 40
2.0
 40
3.0
 40
3.0
 40
3.0
 40
4.0
 40
4.0
 40
4.0
 40
5.0
 40
5.0
 40
5.0
 40
6.0
 40
6.0
 40
6.0
 40
6.0
 10
465.6252483946246
 20
-285.9413020236389
 30
0.0
 10
465.6252483946246
 20
-289.3499172239663
 30
0.0
 10
465.7987369437797
 20
-291.9536234858915
 30
0.0
 10
465.5899899713149
 20
-294.5263241936391
 30
0.0
 10
465.1232672844453
 20
-300.2782465188357
 30
0.0
 10
460.8340468272272
 20
-302.7201299228745
 30
0.0
 10
456.0871321203776
 20
-303.0147896033195
 30
0.0
 10
449.0291275541513
 20
-303.4529063995833
 30
0.0
 10
452.0049479843619
 20
-297.6129805704022
 30
0.0
 10
451.5881668107995
 20
-294.0833130340161
 30
0.0
 10
451.3463947653072
 20
-292.0360198551734
 30
0.0
 10
451.6371579623246
 20
-289.929614171484
 30
0.0
 10
451.4504118658551
 20
-287.871368072736
 30
0.0
 10
450.8207021278922
 20
-280.9318261066146
 30
0.0
 10
452.3847125652374
 20
-274.3673919484954
 30
0.0
 10
460.253185686488
 20
-274.1444845850183
 30
0.0
 10
470.228468395193
 20
-273.8618944996197
 30
0.0
 10
463.4702079451054
 20
-282.6219257976554
 30
0.0
 10
465.6252483946246
 20
-285.9413020236389
 30
0.0
  0
HATCH
  5
6D
330
41
100
AcDbEntity
  8
Layer 1
 62
   254
420
 14737374
100
AcDbHatch
 10
0.0
 20
0.0
 30
0.0
210
0.0
220
0.0
230
1.0
  2
SOLID
 70
     1
 71
     0
 91
        1
 92
        1
 93
        1
 72
     4
 94
        3
 73
     0
 74
     1
 95
       23
 96
       19
 40
0.0
 40
0.0
 40
0.0
 40
0.0
 40
1.0
 40
1.0
 40
1.0
 40
2.0
 40
2.0
 40
2.0
 40
3.0
 40
3.0
 40
3.0
 40
4.0
 40
4.0
 40
4.0
 40
5.0
 40
5.0
 40
5.0
 40
6.0
 40
6.0
 40
6.0
 40
6.0
 10
465.6252483946246
 20
-285.9413020236389
 10
465.6252483946246
 20
-289.3499172239663
 10
465.7987369437797
 20
-291.9536234858915
 10
465.5899899713149
 20
-294.5263241936391
 10
465.1232672844453
 20
-300.2782465188357
 10
460.8340468272272
 20
-302.7201299228745
 10
456.0871321203776
 20
-303.0147896033195
 10
449.0291275541513
 20
-303.4529063995833
 10
452.0049479843619
 20
-297.6129805704022
 10
451.5881668107995
 20
-294.0833130340161
 10
451.3463947653072
 20
-292.0360198551734
 10
451.6371579623246
 20
-289.929614171484
 10
451.4504118658551
 20
-287.871368072736
 10
450.8207021278922
 20
-280.9318261066146
 10
452.3847125652374
 20
-274.3673919484954
 10
460.253185686488
 20
-274.1444845850183
 10
470.228468395193
 20
-273.8618944996197
 10
463.4702079451054
 20
-282.6219257976554
 10
465.6252483946246
 20
-285.9413020236389
 97
        0
 97
        0
 75
     2
 76
     1
 98
        0
  0
ENDBLK
  5
44
330
41
100
AcDbEntity
  8
0
100
AcDbBlockEnd
  0
ENDSEC
  0
SECTION
  2
ENTITIES
  0
INSERT
  5
42
330
1F
100
AcDbEntity
  8
Layer 1
100
AcDbBlockReference
  2
block 2
 10
0.0
 20
0.0
 30
0.0
  0
ENDSEC
  0
SECTION
  2
OBJECTS
  0
DICTIONARY
  5
C
330
0
100
AcDbDictionary
281
     1
  3
ACAD_GROUP
350
D
  3
ACAD_LAYOUT
350
1A
  3
ACAD_MATERIAL
350
3B
  3
ACAD_MLEADERSTYLE
350
6F
  3
ACAD_MLINESTYLE
350
17
  3
ACAD_PLOTSETTINGS
350
19
  3
ACAD_PLOTSTYLENAME
350
E
  3
ACAD_TABLESTYLE
350
6E
  3
ACAD_VISUALSTYLE
350
2A
  0
SUN
  5
3F
330
29
100
AcDbSun
 90
        1
290
     0
 63
     7
421
 16777215
 40
1.0
291
     1
 91
  2455826
 92
 54000000
292
     0
 70
     2
 71
   256
280
     1
  0
DICTIONARY
  5
D
102
{ACAD_REACTORS
330
C
102
}
330
C
100
AcDbDictionary
281
     1
  0
DICTIONARY
  5
1A
102
{ACAD_REACTORS
330
C
102
}
330
C
100
AcDbDictionary
281
     1
  3
Layout1
350
1E
  3
Layout2
350
26
  3
Model
350
22
  0
DICTIONARY
  5
3B
102
{ACAD_REACTORS
330
C
102
}
330
C
100
AcDbDictionary
281
     1
  3
ByBlock
350
3D
  3
ByLayer
350
3C
  3
Global
350
3E
  0
DICTIONARY
  5
6F
102
{ACAD_REACTORS
330
C
102
}
330
C
100
AcDbDictionary
281
     1
  0
DICTIONARY
  5
17
102
{ACAD_REACTORS
330
C
102
}
330
C
100
AcDbDictionary
281
     1
  3
Standard
350
18
  0
DICTIONARY
  5
19
102
{ACAD_REACTORS
330
C
102
}
330
C
100
AcDbDictionary
281
     1
  0
ACDBDICTIONARYWDFLT
  5
E
102
{ACAD_REACTORS
330
C
102
}
330
C
100
AcDbDictionary
281
     1
  3
Normal
350
F
100
AcDbDictionaryWithDefault
340
F
  0
DICTIONARY
  5
6E
102
{ACAD_REACTORS
330
C
102
}
330
C
100
AcDbDictionary
281
     1
  0
DICTIONARY
  5
2A
102
{ACAD_REACTORS
330
C
102
}
330
C
100
AcDbDictionary
281
     1
  3
2dWireframe
350
2F
  3
3D Hidden
350
31
  3
3dWireframe
350
30
  3
Basic
350
32
  3
Brighten
350
36
  3
ColorChange
350
3A
  3
Conceptual
350
34
  3
Dim
350
35
  3
Facepattern
350
39
  3
Flat
350
2B
  3
FlatWithEdges
350
2C
  3
Gouraud
350
2D
  3
GouraudWithEdges
350
2E
  3
Linepattern
350
38
  3
Realistic
350
33
  3
Thicken
350
37
  0
LAYOUT
  5
1E
102
{ACAD_REACTORS
330
1A
102
}
330
1A
100
AcDbPlotSettings
  1

  2
none_device
  4

  6

 40
0.0
 41
0.0
 42
0.0
 43
0.0
 44
0.0
 45
0.0
 46
0.0
 47
0.0
 48
0.0
 49
0.0
140
0.0
141
0.0
142
1.0
143
1.0
 70
   688
 72
     0
 73
     0
 74
     5
  7

 75
    16
 76
     0
 77
     2
 78
   300
147
1.0
148
0.0
149
0.0
100
AcDbLayout
  1
Layout1
 70
     1
 71
     1
 10
0.0
 20
0.0
 11
12.0
 21
9.0
 12
0.0
 22
0.0
 32
0.0
 14
1.000000000000000E+20
 24
1.000000000000000E+20
 34
1.000000000000000E+20
 15
-1.000000000000000E+20
 25
-1.000000000000000E+20
 35
-1.000000000000000E+20
146
0.0
 13
0.0
 23
0.0
 33
0.0
 16
1.0
 26
0.0
 36
0.0
 17
0.0
 27
1.0
 37
0.0
 76
     0
330
1B
  0
LAYOUT
  5
26
102
{ACAD_REACTORS
330
1A
102
}
330
1A
100
AcDbPlotSettings
  1

  2
none_device
  4

  6

 40
0.0
 41
0.0
 42
0.0
 43
0.0
 44
0.0
 45
0.0
 46
0.0
 47
0.0
 48
0.0
 49
0.0
140
0.0
141
0.0
142
1.0
143
1.0
 70
   688
 72
     0
 73
     0
 74
     5
  7

 75
    16
 76
     0
 77
     2
 78
   300
147
1.0
148
0.0
149
0.0
100
AcDbLayout
  1
Layout2
 70
     1
 71
     2
 10
0.0
 20
0.0
 11
0.0
 21
0.0
 12
0.0
 22
0.0
 32
0.0
 14
0.0
 24
0.0
 34
0.0
 15
0.0
 25
0.0
 35
0.0
146
0.0
 13
0.0
 23
0.0
 33
0.0
 16
1.0
 26
0.0
 36
0.0
 17
0.0
 27
1.0
 37
0.0
 76
     0
330
23
  0
LAYOUT
  5
22
102
{ACAD_REACTORS
330
1A
102
}
330
1A
100
AcDbPlotSettings
  1

  2
none_device
  4

  6

 40
0.0
 41
0.0
 42
0.0
 43
0.0
 44
0.0
 45
0.0
 46
0.0
 47
0.0
 48
0.0
 49
0.0
140
0.0
141
0.0
142
1.0
143
1.0
 70
  1712
 72
     0
 73
     0
 74
     0
  7

 75
     0
 76
     0
 77
     2
 78
   300
147
1.0
148
0.0
149
0.0
100
AcDbLayout
  1
Model
 70
     1
 71
     0
 10
0.0
 20
0.0
 11
12.0
 21
9.0
 12
0.0
 22
0.0
 32
0.0
 14
1.000000000000000E+20
 24
1.000000000000000E+20
 34
1.000000000000000E+20
 15
-1.000000000000000E+20
 25
-1.000000000000000E+20
 35
-1.000000000000000E+20
146
0.0
 13
0.0
 23
0.0
 33
0.0
 16
1.0
 26
0.0
 36
0.0
 17
0.0
 27
1.0
 37
0.0
 76
     0
330
1F
331
29
  0
MATERIAL
  5
3D
102
{ACAD_REACTORS
330
3B
102
}
330
3B
100
AcDbMaterial
  1
ByBlock
 72
     1
 94
      127
  0
MATERIAL
  5
3C
102
{ACAD_REACTORS
330
3B
102
}
330
3B
100
AcDbMaterial
  1
ByLayer
 72
     1
 94
      127
  0
MATERIAL
  5
3E
102
{ACAD_REACTORS
330
3B
102
}
330
3B
100
AcDbMaterial
  1
Global
 72
     1
 94
      127
  0
MLINESTYLE
  5
18
102
{ACAD_REACTORS
330
17
102
}
330
17
100
AcDbMlineStyle
  2
Standard
 70
     0
  3

 62
   256
 51
90.0
 52
90.0
 71
     2
 49
0.5
 62
   256
  6
BYLAYER
 49
-0.5
 62
   256
  6
BYLAYER
  0
ACDBPLACEHOLDER
  5
F
102
{ACAD_REACTORS
330
E
102
}
330
E
  0
VISUALSTYLE
  5
2F
102
{ACAD_REACTORS
330
2A
102
}
330
2A
100
AcDbVisualStyle
  2
2dWireframe
 70
     4
177
     2
291
     0
 71
     0
176
     1
 72
     2
176
     1
 73
     0
176
     1
 90
        0
176
     1
 40
-0.6
176
     1
 41
-30.0
176
     1
 62
     5
 63
     7
421
 16777215
176
     1
 74
     1
176
     1
 91
        4
176
     1
 64
     7
176
     1
 65
   257
176
     1
 75
     1
176
     1
175
     1
176
     1
 42
1.0
176
     1
 92
        0
176
     1
 66
   257
176
     1
 43
1.0
176
     1
 76
     1
176
     1
 77
     6
176
     1
 78
     2
176
     1
 67
     7
176
     1
 79
     5
176
     1
170
     0
176
     1
171
     0
176
     1
290
     0
176
     1
 93
        1
176
     1
 44
0.0
176
     1
173
     0
176
     1
  0
VISUALSTYLE
  5
31
102
{ACAD_REACTORS
330
2A
102
}
330
2A
100
AcDbVisualStyle
  2
3D Hidden
 70
     6
177
     2
291
     0
 71
     1
176
     1
 72
     2
176
     1
 73
     2
176
     1
 90
        0
176
     1
 40
-0.6
176
     1
 41
-30.0
176
     1
 62
     5
 63
     7
421
 16777215
176
     1
 74
     2
176
     1
 91
        2
176
     1
 64
     7
176
     1
 65
   257
176
     1
 75
     2
176
     1
175
     1
176
     1
 42
40.0
176
     1
 92
        0
176
     1
 66
   257
176
     1
 43
1.0
176
     1
 76
     1
176
     1
 77
     6
176
     1
 78
     2
176
     1
 67
     7
176
     1
 79
     3
176
     1
170
     0
176
     1
171
     0
176
     1
290
     0
176
     1
 93
        1
176
     1
 44
0.0
176
     1
173
     0
176
     1
  0
VISUALSTYLE
  5
30
102
{ACAD_REACTORS
330
2A
102
}
330
2A
100
AcDbVisualStyle
  2
3dWireframe
 70
     5
177
     2
291
     0
 71
     0
176
     1
 72
     2
176
     1
 73
     0
176
     1
 90
        0
176
     1
 40
-0.6
176
     1
 41
-30.0
176
     1
 62
     5
 63
     7
421
 16777215
176
     1
 74
     1
176
     1
 91
        4
176
     1
 64
     7
176
     1
 65
   257
176
     1
 75
     1
176
     1
175
     1
176
     1
 42
1.0
176
     1
 92
        0
176
     1
 66
   257
176
     1
 43
1.0
176
     1
 76
     1
176
     1
 77
     6
176
     1
 78
     2
176
     1
 67
     7
176
     1
 79
     5
176
     1
170
     0
176
     1
171
     0
176
     1
290
     0
176
     1
 93
        1
176
     1
 44
0.0
176
     1
173
     0
176
     1
  0
VISUALSTYLE
  5
32
102
{ACAD_REACTORS
330
2A
102
}
330
2A
100
AcDbVisualStyle
  2
Basic
 70
     7
177
     2
291
     1
 71
     1
176
     1
 72
     0
176
     1
 73
     1
176
     1
 90
        0
176
     1
 40
-0.6
176
     1
 41
-30.0
176
     1
 62
     5
 63
     7
421
 16777215
176
     1
 74
     0
176
     1
 91
        4
176
     1
 64
     7
176
     1
 65
   257
176
     1
 75
     1
176
     1
175
     1
176
     1
 42
1.0
176
     1
 92
        8
176
     1
 66
     7
176
     1
 43
1.0
176
     1
 76
     1
176
     1
 77
     6
176
     1
 78
     2
176
     1
 67
     7
176
     1
 79
     5
176
     1
170
     0
176
     1
171
     0
176
     1
290
     0
176
     1
 93
        1
176
     1
 44
0.0
176
     1
173
     0
176
     1
  0
VISUALSTYLE
  5
36
102
{ACAD_REACTORS
330
2A
102
}
330
2A
100
AcDbVisualStyle
  2
Brighten
 70
    12
177
     2
291
     1
 71
     2
176
     1
 72
     2
176
     1
 73
     0
176
     1
 90
        0
176
     1
 40
-0.6
176
     1
 41
-30.0
176
     1
 62
     5
 63
     7
421
 16777215
176
     1
 74
     1
176
     1
 91
        4
176
     1
 64
     7
176
     1
 65
   257
176
     1
 75
     1
176
     1
175
     1
176
     1
 42
1.0
176
     1
 92
        8
176
     1
 66
     7
176
     1
 43
1.0
176
     1
 76
     1
176
     1
 77
     6
176
     1
 78
     2
176
     1
 67
     7
176
     1
 79
     5
176
     1
170
     0
176
     1
171
     0
176
     1
290
     0
176
     1
 93
        1
176
     1
 44
50.0
176
     1
173
     0
176
     1
  0
VISUALSTYLE
  5
3A
102
{ACAD_REACTORS
330
2A
102
}
330
2A
100
AcDbVisualStyle
  2
ColorChange
 70
    16
177
     2
291
     1
 71
     2
176
     1
 72
     2
176
     1
 73
     3
176
     1
 90
        0
176
     1
 40
-0.6
176
     1
 41
-30.0
176
     1
 62
     5
 63
     8
421
  8421504
176
     1
 74
     1
176
     1
 91
        4
176
     1
 64
     7
176
     1
 65
   257
176
     1
 75
     1
176
     1
175
     1
176
     1
 42
1.0
176
     1
 92
        8
176
     1
 66
     8
424
  8421504
176
     1
 43
1.0
176
     1
 76
     1
176
     1
 77
     6
176
     1
 78
     2
176
     1
 67
     7
176
     1
 79
     5
176
     1
170
     0
176
     1
171
     0
176
     1
290
     0
176
     1
 93
        1
176
     1
 44
0.0
176
     1
173
     0
176
     1
  0
VISUALSTYLE
  5
34
102
{ACAD_REACTORS
330
2A
102
}
330
2A
100
AcDbVisualStyle
  2
Conceptual
 70
     9
177
     2
291
     0
 71
     3
176
     1
 72
     2
176
     1
 73
     0
176
     1
 90
        0
176
     1
 40
-0.6
176
     1
 41
-30.0
176
     1
 62
     5
 63
     7
421
 16777215
176
     1
 74
     2
176
     1
 91
        2
176
     1
 64
     7
176
     1
 65
   257
176
     1
 75
     1
176
     1
175
     1
176
     1
 42
40.0
176
     1
 92
        8
176
     1
 66
     7
176
     1
 43
1.0
176
     1
 76
     1
176
     1
 77
     6
176
     1
 78
     2
176
     1
 67
     7
176
     1
 79
     3
176
     1
170
     0
176
     1
171
     0
176
     1
290
     0
176
     1
 93
        1
176
     1
 44
0.0
176
     1
173
     0
176
     1
  0
VISUALSTYLE
  5
35
102
{ACAD_REACTORS
330
2A
102
}
330
2A
100
AcDbVisualStyle
  2
Dim
 70
    11
177
     2
291
     1
 71
     2
176
     1
 72
     2
176
     1
 73
     0
176
     1
 90
        0
176
     1
 40
-0.6
176
     1
 41
-30.0
176
     1
 62
     5
 63
     7
421
 16777215
176
     1
 74
     1
176
     1
 91
        4
176
     1
 64
     7
176
     1
 65
   257
176
     1
 75
     1
176
     1
175
     1
176
     1
 42
1.0
176
     1
 92
        8
176
     1
 66
     7
176
     1
 43
1.0
176
     1
 76
     1
176
     1
 77
     6
176
     1
 78
     2
176
     1
 67
     7
176
     1
 79
     5
176
     1
170
     0
176
     1
171
     0
176
     1
290
     0
176
     1
 93
        1
176
     1
 44
-50.0
176
     1
173
     0
176
     1
  0
VISUALSTYLE
  5
39
102
{ACAD_REACTORS
330
2A
102
}
330
2A
100
AcDbVisualStyle
  2
Facepattern
 70
    15
177
     2
291
     1
 71
     2
176
     1
 72
     2
176
     1
 73
     0
176
     1
 90
        0
176
     1
 40
-0.6
176
     1
 41
-30.0
176
     1
 62
     5
 63
     7
421
 16777215
176
     1
 74
     1
176
     1
 91
        4
176
     1
 64
     7
176
     1
 65
   257
176
     1
 75
     1
176
     1
175
     1
176
     1
 42
1.0
176
     1
 92
        8
176
     1
 66
     7
176
     1
 43
1.0
176
     1
 76
     1
176
     1
 77
     6
176
     1
 78
     2
176
     1
 67
     7
176
     1
 79
     5
176
     1
170
     0
176
     1
171
     0
176
     1
290
     0
176
     1
 93
        1
176
     1
 44
0.0
176
     1
173
     0
176
     1
  0
VISUALSTYLE
  5
2B
102
{ACAD_REACTORS
330
2A
102
}
330
2A
100
AcDbVisualStyle
  2
Flat
 70
     0
177
     2
291
     1
 71
     2
176
     1
 72
     1
176
     1
 73
     1
176
     1
 90
        2
176
     1
 40
-0.6
176
     1
 41
30.0
176
     1
 62
     5
 63
     7
421
 16777215
176
     1
 74
     0
176
     1
 91
        4
176
     1
 64
     7
176
     1
 65
   257
176
     1
 75
     1
176
     1
175
     1
176
     1
 42
1.0
176
     1
 92
        8
176
     1
 66
     7
176
     1
 43
1.0
176
     1
 76
     1
176
     1
 77
     6
176
     1
 78
     2
176
     1
 67
     7
176
     1
 79
     5
176
     1
170
     0
176
     1
171
     0
176
     1
290
     0
176
     1
 93
       13
176
     1
 44
0.0
176
     1
173
     0
176
     1
  0
VISUALSTYLE
  5
2C
102
{ACAD_REACTORS
330
2A
102
}
330
2A
100
AcDbVisualStyle
  2
FlatWithEdges
 70
     1
177
     2
291
     1
 71
     2
176
     1
 72
     1
176
     1
 73
     1
176
     1
 90
        2
176
     1
 40
-0.6
176
     1
 41
30.0
176
     1
 62
     5
 63
     7
421
 16777215
176
     1
 74
     1
176
     1
 91
        4
176
     1
 64
     7
176
     1
 65
   257
176
     1
 75
     1
176
     1
175
     1
176
     1
 42
1.0
176
     1
 92
        0
176
     1
 66
   257
176
     1
 43
1.0
176
     1
 76
     1
176
     1
 77
     6
176
     1
 78
     2
176
     1
 67
     7
176
     1
 79
     5
176
     1
170
     0
176
     1
171
     0
176
     1
290
     0
176
     1
 93
       13
176
     1
 44
0.0
176
     1
173
     0
176
     1
  0
VISUALSTYLE
  5
2D
102
{ACAD_REACTORS
330
2A
102
}
330
2A
100
AcDbVisualStyle
  2
Gouraud
 70
     2
177
     2
291
     1
 71
     2
176
     1
 72
     2
176
     1
 73
     1
176
     1
 90
        2
176
     1
 40
-0.6
176
     1
 41
30.0
176
     1
 62
     5
 63
     7
421
 16777215
176
     1
 74
     0
176
     1
 91
        4
176
     1
 64
     7
176
     1
 65
   257
176
     1
 75
     1
176
     1
175
     1
176
     1
 42
1.0
176
     1
 92
        0
176
     1
 66
     7
176
     1
 43
1.0
176
     1
 76
     1
176
     1
 77
     6
176
     1
 78
     2
176
     1
 67
     7
176
     1
 79
     5
176
     1
170
     0
176
     1
171
     0
176
     1
290
     0
176
     1
 93
       13
176
     1
 44
0.0
176
     1
173
     0
176
     1
  0
VISUALSTYLE
  5
2E
102
{ACAD_REACTORS
330
2A
102
}
330
2A
100
AcDbVisualStyle
  2
GouraudWithEdges
 70
     3
177
     2
291
     1
 71
     2
176
     1
 72
     2
176
     1
 73
     1
176
     1
 90
        2
176
     1
 40
-0.6
176
     1
 41
30.0
176
     1
 62
     5
 63
     7
421
 16777215
176
     1
 74
     1
176
     1
 91
        4
176
     1
 64
     7
176
     1
 65
   257
176
     1
 75
     1
176
     1
175
     1
176
     1
 42
1.0
176
     1
 92
        0
176
     1
 66
   257
176
     1
 43
1.0
176
     1
 76
     1
176
     1
 77
     6
176
     1
 78
     2
176
     1
 67
     7
176
     1
 79
     5
176
     1
170
     0
176
     1
171
     0
176
     1
290
     0
176
     1
 93
       13
176
     1
 44
0.0
176
     1
173
     0
176
     1
  0
VISUALSTYLE
  5
38
102
{ACAD_REACTORS
330
2A
102
}
330
2A
100
AcDbVisualStyle
  2
Linepattern
 70
    14
177
     2
291
     1
 71
     2
176
     1
 72
     2
176
     1
 73
     0
176
     1
 90
        0
176
     1
 40
-0.6
176
     1
 41
-30.0
176
     1
 62
     5
 63
     7
421
 16777215
176
     1
 74
     1
176
     1
 91
        4
176
     1
 64
     7
176
     1
 65
   257
176
     1
 75
     7
176
     1
175
     7
176
     1
 42
1.0
176
     1
 92
        8
176
     1
 66
     7
176
     1
 43
1.0
176
     1
 76
     1
176
     1
 77
     6
176
     1
 78
     2
176
     1
 67
     7
176
     1
 79
     5
176
     1
170
     0
176
     1
171
     0
176
     1
290
     0
176
     1
 93
        1
176
     1
 44
0.0
176
     1
173
     0
176
     1
  0
VISUALSTYLE
  5
33
102
{ACAD_REACTORS
330
2A
102
}
330
2A
100
AcDbVisualStyle
  2
Realistic
 70
     8
177
     2
291
     0
 71
     2
176
     1
 72
     2
176
     1
 73
     0
176
     1
 90
        0
176
     1
 40
-0.6
176
     1
 41
-30.0
176
     1
 62
     5
 63
     7
421
 16777215
176
     1
 74
     1
176
     1
 91
        0
176
     1
 64
     7
176
     1
 65
   257
176
     1
 75
     1
176
     1
175
     1
176
     1
 42
1.0
176
     1
 92
        8
176
     1
 66
     8
424
  7895160
176
     1
 43
1.0
176
     1
 76
     1
176
     1
 77
     6
176
     1
 78
     2
176
     1
 67
     7
176
     1
 79
     5
176
     1
170
     0
176
     1
171
     0
176
     1
290
     0
176
     1
 93
       13
176
     1
 44
0.0
176
     1
173
     0
176
     1
  0
VISUALSTYLE
  5
37
102
{ACAD_REACTORS
330
2A
102
}
330
2A
100
AcDbVisualStyle
  2
Thicken
 70
    13
177
     2
291
     1
 71
     2
176
     1
 72
     2
176
     1
 73
     0
176
     1
 90
        0
176
     1
 40
-0.6
176
     1
 41
-30.0
176
     1
 62
     5
 63
     7
421
 16777215
176
     1
 74
     1
176
     1
 91
        4
176
     1
 64
     7
176
     1
 65
   257
176
     1
 75
     1
176
     1
175
     1
176
     1
 42
1.0
176
     1
 92
       12
176
     1
 66
     7
176
     1
 43
1.0
176
     1
 76
     1
176
     1
 77
     6
176
     1
 78
     2
176
     1
 67
     7
176
     1
 79
     5
176
     1
170
     0
176
     1
171
     0
176
     1
290
     0
176
     1
 93
        1
176
     1
 44
0.0
176
     1
173
     0
176
     1
  0
ENDSEC
  0
EOF
