<?xml version="1.0" encoding="utf-8"?>
<!-- Generator: Adobe Illustrator 21.1.0, SVG Export Plug-In . SVG Version: 6.00 Build 0)  -->
<svg version="1.0" id="Layer_1" xmlns="http://www.w3.org/2000/svg" xmlns:xlink="http://www.w3.org/1999/xlink" x="0px" y="0px"
	 viewBox="0 0 666 666" style="enable-background:new 0 0 666 666;" xml:space="preserve">
<path d="M320.6,266.6c0-3.4-0.6-7,0.2-10.3c0.6-3,2.7-5.6,4.1-8.4c1.5,2.7,3.8,5.2,4.4,8c0.8,3.9-0.2,8.1,0.3,12
	c0.3,2,2.1,3.8,3.2,5.7c1-2,2.7-3.9,3-6c0.5-4.5-0.3-9.1,0.3-13.5c0.3-2.2,2.7-4.1,4.1-6.2c1.5,2.2,3.9,4.1,4.4,6.5
	c0.7,3.8,0.2,7.9,0.2,11.9c0.7,0.3,1.5,0.6,2.2,1c1.4-2.3,3.6-4.5,3.9-7c0.6-4.4-0.4-9.1,0.4-13.5c0.4-2.4,3-4.5,4.5-6.7
	c1.4,2.1,3.9,4.2,4,6.3c0.2,35,0.2,69.9,0.1,104.9c0,7-4.4,11.4-10.5,13.3c-10.3,3.2-13.6,9.5-12.5,20.1c1.1,11.2,0.4,22.6,0.1,33.9
	c-0.1,1.9-2.2,5-3.9,5.4c-4.1,1.1-4.8-2-4.8-5.4c0.1-13.3-0.3-26.7,0.2-40c0.2-6.1-1.7-9.4-7.3-11.2c-2.6-0.9-4.9-2.4-7.4-3.7
	c-5.7-3-8.4-7.6-8.4-14c0-34-0.1-67.9,0.2-101.9c0-2.6,2.7-5.1,4.1-7.6c1.5,2.5,3.8,4.8,4.3,7.5c0.7,3.9-0.3,8.1,0.3,12
	c0.5,2.8,2.4,5.3,3.7,7.9C318.9,267.2,319.7,266.9,320.6,266.6z M337.6,360.4c14.8-5.6,16.2-8.6,12.5-25.9
	C334.5,341.3,336.8,336.4,337.6,360.4z M314.7,334.2c-2.1,19.7-0.9,22.1,12.7,25.8C330.8,342.1,330,340.5,314.7,334.2z M314.6,304.5
	c-1.8,19.3-0.8,21,13,25C330.2,311.2,330.1,310.9,314.6,304.5z M327.8,300.2c1.5-19.3,0-22-13.3-24.6
	C313,294.7,313.3,295.2,327.8,300.2z M350.3,304.8c-15.1,5.6-15.9,7.3-12.3,24.8C352.5,324.1,353.2,322.8,350.3,304.8z M337.5,300
	c15.2-5.5,14.6-4.2,12.7-24.8C336.2,280.2,336.1,280.5,337.5,300z"/>
<path d="M271.8,300.9c3.5-3.4,5.6-6.9,7.4-6.7c2.1,0.2,4.1,3.4,7.6,6.8c1.2-2.9,2-5.6,3.3-8.1c1.2-2.4,2.9-4.5,4.3-6.7
	c1.5,2.2,4.3,4.5,4.3,6.7c0.3,23.4,0.2,46.8,0.2,70.1c0,6.5-3.3,11.2-9.6,12.8c-5,1.2-6,4-5.9,8.7c0.3,11.1,0.1,22.1,0.1,33.2
	c0,6.8-0.1,6.8-8.6,6.1c0-12.1-0.2-24.3,0.1-36.5c0.2-6-0.1-10.4-7.5-12.1c-5.6-1.3-8-6.3-8-12.3c0-23.1-0.1-46.3,0.2-69.4
	c0-2.4,2.9-4.8,4.4-7.2c1.4,2.3,2.9,4.6,4.1,7C269.6,295.7,270.6,298.3,271.8,300.9z M266.8,330.1c3.5,5.8-2.5,13.5,8.9,15.3
	C273.1,340,278.9,332.7,266.8,330.1z M269.1,353.2c-2.2,11.9-1.5,13.7,6.4,14C272.9,362.5,279.3,354.6,269.1,353.2z M268,308.2
	c1.4,5.8-2.9,13,7.3,14.9C273.4,317.3,278.6,310.1,268,308.2z M289.5,353.1c-6.9,2.5-7.2,3.3-5.1,14.3
	C290.8,366,290.8,366,289.5,353.1z M289.9,330.9c-7.1,1.9-8.1,4.9-4.9,14.3C293.4,342.5,289,336,289.9,330.9z M284.4,322.5
	c6.6-2.5,6.9-3.4,4.8-13.7C282.8,310.6,282.7,311.2,284.4,322.5z"/>
<path d="M394.5,300.6c0.9-2.8,1.5-5.7,2.8-8.4c1-2.2,2.8-4.1,4.2-6.1c1.5,2,4.2,4,4.2,6c0.3,24.2,0.5,48.3-0.3,72.5
	c-0.1,3.8-4.8,9-8.6,10.7c-5.3,2.3-6.4,4.9-6.3,10.1c0.4,10.8,0.2,21.6,0.1,32.5c0,6.7-0.1,6.7-8.7,5.8c0-12.1-0.3-24.3,0.1-36.5
	c0.2-6.1-0.3-10.4-7.6-12.1c-5.3-1.2-7.7-5.9-7.7-11.6c0.1-23.4-0.1-46.8,0.2-70.2c0-2.3,2.5-4.7,3.9-7c1.5,2.2,3.1,4.4,4.3,6.7
	c1.3,2.5,2.3,5.2,4,9.3c6.3-10.7,7.9-10.7,12.8-2.4C392.8,300,393.7,300.3,394.5,300.6z M374.9,352.8c1.4,5.9-3,13.2,7.4,15.7
	C380.5,362.3,385.9,355,374.9,352.8z M382.1,345.4c-1.5-5.5,3.5-12.8-7-14.8C376.2,336.5,371.8,343.5,382.1,345.4z M382,322.9
	c-1.1-5.7,3-12.6-6.7-14.9C376.1,314.2,372.1,321,382,322.9z M391.6,368.2c9.3-2.6,4.3-9.7,5.6-15
	C389.6,355.4,389.4,356,391.6,368.2z M397,330.6c-10.2,2-5,9.2-6.7,15.3C399.9,342.8,396.6,336.4,397,330.6z M397.2,307.7
	c-9.3,3.3-5.9,9.6-6.2,15.4C400.3,320.5,396.3,314,397.2,307.7z"/>
</svg>
