<?xml version="1.0" encoding="utf-8"?>
<!-- Generator: Adobe Illustrator 18.0.0, SVG Export Plug-In . SVG Version: 6.00 Build 0)  -->
<!DOCTYPE svg PUBLIC "-//W3C//DTD SVG 1.1//EN" "http://www.w3.org/Graphics/SVG/1.1/DTD/svg11.dtd">
<svg version="1.1" id="Layer_1" xmlns="http://www.w3.org/2000/svg" xmlns:xlink="http://www.w3.org/1999/xlink" x="0px" y="0px"
	 viewBox="0 0 1000 900" enable-background="new 0 0 1000 900" xml:space="preserve">
<line fill="none" stroke="#000000" stroke-linecap="round" stroke-miterlimit="10" x1="280.3" y1="-0.4" x2="387.1" y2="250.8"/>
<polygon fill="none" stroke="#000000" stroke-width="6.28" stroke-linecap="round" stroke-miterlimit="10" points="173.6,250.8 
	280.3,-0.4 387.1,250.8 "/>
<line fill="none" stroke="#000000" stroke-width="6.28" stroke-linecap="round" stroke-miterlimit="10" x1="402.4" y1="-0.4" x2="509.1" y2="250.8"/>
<polygon fill="none" stroke="#000000" stroke-width="6.28" stroke-linecap="round" stroke-miterlimit="10" points="295.6,250.8 
	402.4,-0.4 509.1,250.8 "/>
<line fill="none" stroke="#000000" stroke-width="6.28" stroke-linecap="round" stroke-miterlimit="10" x1="524.4" y1="-0.4" x2="631.1" y2="250.8"/>
<polygon fill="none" stroke="#000000" stroke-width="6.28" stroke-linecap="round" stroke-miterlimit="10" points="417.6,250.8 
	524.4,-0.4 631.1,250.8 "/>
<line fill="none" stroke="#000000" stroke-width="6.28" stroke-linecap="round" stroke-miterlimit="10" x1="646.4" y1="-0.4" x2="753.2" y2="250.8"/>
<polygon fill="none" stroke="#000000" stroke-width="6.28" stroke-linecap="round" stroke-miterlimit="10" points="539.6,250.8 
	646.4,-0.4 753.2,250.8 "/>
<line fill="none" stroke="#000000" stroke-width="6.28" stroke-linecap="round" stroke-miterlimit="10" x1="768.4" y1="-0.4" x2="875.2" y2="250.8"/>
<polygon fill="none" stroke="#000000" stroke-width="6.28" stroke-linecap="round" stroke-miterlimit="10" points="661.7,250.8 
	768.4,-0.4 875.2,250.8 "/>
<line fill="none" stroke="#000000" stroke-width="6.28" stroke-linecap="round" stroke-miterlimit="10" x1="890.4" y1="-0.4" x2="997.2" y2="250.8"/>
<polygon fill="none" stroke="#000000" stroke-width="6.28" stroke-linecap="round" stroke-miterlimit="10" points="783.7,250.8 
	890.4,-0.4 997.2,250.8 "/>
<line fill="none" stroke="#000000" stroke-width="6.28" stroke-linecap="round" stroke-miterlimit="10" x1="158.3" y1="214.9" x2="265.1" y2="466"/>
<polygon fill="none" stroke="#000000" stroke-width="6.28" stroke-linecap="round" stroke-miterlimit="10" points="51.6,466 
	158.3,214.9 265.1,466 "/>
<line fill="none" stroke="#000000" stroke-width="6.28" stroke-linecap="round" stroke-miterlimit="10" x1="280.3" y1="214.9" x2="387.1" y2="466"/>
<polygon fill="none" stroke="#000000" stroke-width="6.28" stroke-linecap="round" stroke-miterlimit="10" points="173.6,466 
	280.3,214.9 387.1,466 "/>
<line fill="none" stroke="#000000" stroke-width="6.28" stroke-linecap="round" stroke-miterlimit="10" x1="402.4" y1="214.9" x2="509.1" y2="466"/>
<polygon fill="none" stroke="#000000" stroke-width="6.28" stroke-linecap="round" stroke-miterlimit="10" points="295.6,466 
	402.4,214.9 509.1,466 "/>
<line fill="none" stroke="#000000" stroke-width="6.28" stroke-linecap="round" stroke-miterlimit="10" x1="524.4" y1="214.9" x2="631.1" y2="466"/>
<polygon fill="none" stroke="#000000" stroke-width="6.28" stroke-linecap="round" stroke-miterlimit="10" points="417.6,466 
	524.4,214.9 631.1,466 "/>
<line fill="none" stroke="#000000" stroke-width="6.28" stroke-linecap="round" stroke-miterlimit="10" x1="646.4" y1="214.9" x2="753.2" y2="466"/>
<polygon fill="none" stroke="#000000" stroke-width="6.28" stroke-linecap="round" stroke-miterlimit="10" points="539.6,466 
	646.4,214.9 753.2,466 "/>
<line fill="none" stroke="#000000" stroke-width="6.28" stroke-linecap="round" stroke-miterlimit="10" x1="768.4" y1="214.9" x2="875.2" y2="466"/>
<polygon fill="none" stroke="#000000" stroke-width="6.28" stroke-linecap="round" stroke-miterlimit="10" points="661.7,466 
	768.4,214.9 875.2,466 "/>
<line fill="none" stroke="#000000" stroke-width="6.28" stroke-linecap="round" stroke-miterlimit="10" x1="890.4" y1="214.9" x2="997.2" y2="466"/>
<polygon fill="none" stroke="#000000" stroke-width="6.28" stroke-linecap="round" stroke-miterlimit="10" points="783.7,466 
	890.4,214.9 997.2,466 "/>
<line fill="none" stroke="#000000" stroke-width="6.28" stroke-linecap="round" stroke-miterlimit="10" x1="158.3" y1="430.2" x2="265.1" y2="681.3"/>
<polygon fill="none" stroke="#000000" stroke-width="6.28" stroke-linecap="round" stroke-miterlimit="10" points="51.6,681.3 
	192.9,511.5 299.7,762.6 "/>
<line fill="none" stroke="#000000" stroke-width="6.28" stroke-linecap="round" stroke-miterlimit="10" x1="280.3" y1="430.2" x2="387.1" y2="681.3"/>
<polygon fill="none" stroke="#000000" stroke-width="6.28" stroke-linecap="round" stroke-miterlimit="10" points="173.6,681.3 
	280.3,430.2 387.1,681.3 "/>
<line fill="none" stroke="#000000" stroke-width="6.28" stroke-linecap="round" stroke-miterlimit="10" x1="402.4" y1="430.2" x2="509.1" y2="681.3"/>
<polygon fill="none" stroke="#000000" stroke-width="6.28" stroke-linecap="round" stroke-miterlimit="10" points="295.6,681.3 
	402.4,430.2 509.1,681.3 "/>
<line fill="none" stroke="#000000" stroke-width="6.28" stroke-linecap="round" stroke-miterlimit="10" x1="524.4" y1="430.2" x2="631.1" y2="681.3"/>
<polygon fill="none" stroke="#000000" stroke-width="6.28" stroke-linecap="round" stroke-miterlimit="10" points="417.6,681.3 
	524.4,430.2 631.1,681.3 "/>
<line fill="none" stroke="#000000" stroke-width="6.28" stroke-linecap="round" stroke-miterlimit="10" x1="646.4" y1="430.2" x2="753.2" y2="681.3"/>
<polygon fill="none" stroke="#000000" stroke-width="6.28" stroke-linecap="round" stroke-miterlimit="10" points="539.6,681.3 
	646.4,430.2 753.2,681.3 "/>
<line fill="none" stroke="#000000" stroke-width="6.28" stroke-linecap="round" stroke-miterlimit="10" x1="768.4" y1="430.2" x2="875.2" y2="681.3"/>
<polygon fill="none" stroke="#000000" stroke-width="6.28" stroke-linecap="round" stroke-miterlimit="10" points="661.7,681.3 
	768.4,430.2 875.2,681.3 "/>
<line fill="none" stroke="#000000" stroke-width="6.28" stroke-linecap="round" stroke-miterlimit="10" x1="890.4" y1="430.2" x2="997.2" y2="681.3"/>
<polygon fill="none" stroke="#000000" stroke-width="6.28" stroke-linecap="round" stroke-miterlimit="10" points="783.7,681.3 
	890.4,430.2 997.2,681.3 "/>
<line fill="none" stroke="#000000" stroke-width="6.28" stroke-linecap="round" stroke-miterlimit="10" x1="158.3" y1="645.4" x2="265.1" y2="896.6"/>
<polygon fill="none" stroke="#000000" stroke-width="6.28" stroke-linecap="round" stroke-miterlimit="10" points="51.6,896.6 
	158.3,645.4 265.1,896.6 "/>
<line fill="none" stroke="#000000" stroke-width="6.28" stroke-linecap="round" stroke-miterlimit="10" x1="280.3" y1="645.4" x2="387.1" y2="896.6"/>
<polygon fill="none" stroke="#000000" stroke-width="6.28" stroke-linecap="round" stroke-miterlimit="10" points="173.6,896.6 
	280.3,645.4 387.1,896.6 "/>
<line fill="none" stroke="#000000" stroke-width="6.28" stroke-linecap="round" stroke-miterlimit="10" x1="402.4" y1="645.4" x2="509.1" y2="896.6"/>
<line fill="none" stroke="#000000" stroke-width="6.28" stroke-linecap="round" stroke-miterlimit="10" x1="524.4" y1="645.4" x2="631.1" y2="896.6"/>
<polygon fill="none" stroke="#000000" stroke-width="6.28" stroke-linecap="round" stroke-miterlimit="10" points="417.6,896.6 
	524.4,645.4 631.1,896.6 "/>
<line fill="none" stroke="#000000" stroke-width="6.28" stroke-linecap="round" stroke-miterlimit="10" x1="646.4" y1="645.4" x2="753.2" y2="896.6"/>
<polygon fill="none" stroke="#000000" stroke-width="6.28" stroke-linecap="round" stroke-miterlimit="10" points="539.6,896.6 
	646.4,645.4 753.2,896.6 "/>
<line fill="none" stroke="#000000" stroke-width="6.28" stroke-linecap="round" stroke-miterlimit="10" x1="768.4" y1="645.4" x2="875.2" y2="896.6"/>
<polygon fill="none" stroke="#000000" stroke-width="6.28" stroke-linecap="round" stroke-miterlimit="10" points="661.7,896.6 
	768.4,645.4 875.2,896.6 "/>
<line fill="none" stroke="#000000" stroke-width="6.28" stroke-linecap="round" stroke-miterlimit="10" x1="112.6" y1="107.2" x2="173.6" y2="250.8"/>
<polygon fill="none" stroke="#000000" stroke-width="6.28" stroke-linecap="round" stroke-miterlimit="10" points="51.6,250.8 
	112.6,107.2 173.6,250.8 "/>
<line fill="none" stroke="#000000" stroke-width="6.28" stroke-linecap="round" stroke-miterlimit="10" x1="234.6" y1="107.2" x2="295.6" y2="250.8"/>
<polygon fill="none" stroke="#000000" stroke-width="6.28" stroke-linecap="round" stroke-miterlimit="10" points="173.6,250.8 
	234.6,107.2 295.6,250.8 "/>
<line fill="none" stroke="#000000" stroke-width="6.28" stroke-linecap="round" stroke-miterlimit="10" x1="356.6" y1="107.2" x2="417.6" y2="250.8"/>
<polygon fill="none" stroke="#000000" stroke-width="6.28" stroke-linecap="round" stroke-miterlimit="10" points="295.6,250.8 
	356.6,107.2 417.6,250.8 "/>
<line fill="none" stroke="#000000" stroke-width="6.28" stroke-linecap="round" stroke-miterlimit="10" x1="478.6" y1="107.2" x2="539.6" y2="250.8"/>
<polygon fill="none" stroke="#000000" stroke-width="6.28" stroke-linecap="round" stroke-miterlimit="10" points="417.6,250.8 
	478.6,107.2 539.6,250.8 "/>
<line fill="none" stroke="#000000" stroke-width="6.28" stroke-linecap="round" stroke-miterlimit="10" x1="600.6" y1="107.2" x2="661.7" y2="250.8"/>
<polygon fill="none" stroke="#000000" stroke-width="6.28" stroke-linecap="round" stroke-miterlimit="10" points="539.6,250.8 
	600.6,107.2 661.7,250.8 "/>
<line fill="none" stroke="#000000" stroke-width="6.28" stroke-linecap="round" stroke-miterlimit="10" x1="722.7" y1="107.2" x2="783.7" y2="250.8"/>
<polygon fill="none" stroke="#000000" stroke-width="6.28" stroke-linecap="round" stroke-miterlimit="10" points="661.7,250.8 
	722.7,107.2 783.7,250.8 "/>
<line fill="none" stroke="#000000" stroke-width="6.28" stroke-linecap="round" stroke-miterlimit="10" x1="844.7" y1="107.2" x2="905.7" y2="250.8"/>
<polygon fill="none" stroke="#000000" stroke-width="6.28" stroke-linecap="round" stroke-miterlimit="10" points="783.7,250.8 
	844.7,107.2 905.7,250.8 "/>
<line fill="none" stroke="#000000" stroke-width="6.28" stroke-linecap="round" stroke-miterlimit="10" x1="112.6" y1="322.5" x2="173.6" y2="466"/>
<polygon fill="none" stroke="#000000" stroke-width="6.28" stroke-linecap="round" stroke-miterlimit="10" points="51.6,536.1 
	112.6,392.6 173.6,534.7 "/>
<line fill="none" stroke="#000000" stroke-width="6.28" stroke-linecap="round" stroke-miterlimit="10" x1="234.6" y1="322.5" x2="295.6" y2="466"/>
<polygon fill="none" stroke="#000000" stroke-width="6.28" stroke-linecap="round" stroke-miterlimit="10" points="174.8,466 
	234.6,466.9 296.8,610.4 "/>
<line fill="none" stroke="#000000" stroke-width="6.28" stroke-linecap="round" stroke-miterlimit="10" x1="356.6" y1="322.5" x2="417.6" y2="466"/>
<polygon fill="none" stroke="#000000" stroke-width="6.28" stroke-linecap="round" stroke-miterlimit="10" points="295.6,536.1 
	356.6,392.6 417.6,466 "/>
<line fill="none" stroke="#000000" stroke-width="6.28" stroke-linecap="round" stroke-miterlimit="10" x1="478.6" y1="322.5" x2="539.6" y2="466"/>
<polygon fill="none" stroke="#000000" stroke-width="6.28" stroke-linecap="round" stroke-miterlimit="10" points="433.1,645.4 
	478.6,322.5 555.1,645.4 "/>
<line fill="none" stroke="#000000" stroke-width="6.28" stroke-linecap="round" stroke-miterlimit="10" x1="600.6" y1="322.5" x2="661.7" y2="466"/>
<polygon fill="none" stroke="#000000" stroke-width="6.28" stroke-linecap="round" stroke-miterlimit="10" points="539.6,571.2 
	600.6,322.5 661.7,571.2 "/>
<line fill="none" stroke="#000000" stroke-width="6.28" stroke-linecap="round" stroke-miterlimit="10" x1="722.7" y1="322.5" x2="783.7" y2="466"/>
<polygon fill="none" stroke="#000000" stroke-width="6.28" stroke-linecap="round" stroke-miterlimit="10" points="661.7,466 
	722.7,322.5 783.7,466 "/>
<line fill="none" stroke="#000000" stroke-width="6.28" stroke-linecap="round" stroke-miterlimit="10" x1="844.7" y1="322.5" x2="905.7" y2="466"/>
<polygon fill="none" stroke="#000000" stroke-width="6.28" stroke-linecap="round" stroke-miterlimit="10" points="783.7,466 
	844.7,322.5 905.7,466 "/>
<line fill="none" stroke="#000000" stroke-width="6.28" stroke-linecap="round" stroke-miterlimit="10" x1="112.6" y1="537.8" x2="173.6" y2="681.3"/>
<polygon fill="none" stroke="#000000" stroke-width="6.28" stroke-linecap="round" stroke-miterlimit="10" points="51.6,681.3 
	112.6,537.8 173.6,681.3 "/>
<line fill="none" stroke="#000000" stroke-width="6.28" stroke-linecap="round" stroke-miterlimit="10" x1="234.6" y1="537.8" x2="295.6" y2="681.3"/>
<polygon fill="none" stroke="#000000" stroke-width="6.28" stroke-linecap="round" stroke-miterlimit="10" points="173.6,681.3 
	234.6,537.8 295.6,681.3 "/>
<line fill="none" stroke="#000000" stroke-width="6.28" stroke-linecap="round" stroke-miterlimit="10" x1="356.6" y1="537.8" x2="417.6" y2="681.3"/>
<polygon fill="none" stroke="#000000" stroke-width="6.28" stroke-linecap="round" stroke-miterlimit="10" points="295.6,681.3 
	356.6,537.8 417.6,681.3 "/>
<line fill="none" stroke="#000000" stroke-width="6.28" stroke-linecap="round" stroke-miterlimit="10" x1="478.6" y1="537.8" x2="539.6" y2="681.3"/>
<polygon fill="none" stroke="#000000" stroke-width="6.28" stroke-linecap="round" stroke-miterlimit="10" points="417.6,681.3 
	478.6,537.8 539.6,681.3 "/>
<line fill="none" stroke="#000000" stroke-width="6.28" stroke-linecap="round" stroke-miterlimit="10" x1="600.6" y1="537.8" x2="661.7" y2="681.3"/>
<polygon fill="none" stroke="#000000" stroke-width="6.28" stroke-linecap="round" stroke-miterlimit="10" points="539.6,681.3 
	600.6,537.8 661.7,681.3 "/>
<line fill="none" stroke="#000000" stroke-width="6.28" stroke-linecap="round" stroke-miterlimit="10" x1="722.7" y1="537.8" x2="783.7" y2="681.3"/>
<polygon fill="none" stroke="#000000" stroke-width="6.28" stroke-linecap="round" stroke-miterlimit="10" points="661.7,681.3 
	722.7,537.8 783.7,681.3 "/>
<line fill="none" stroke="#000000" stroke-width="6.28" stroke-linecap="round" stroke-miterlimit="10" x1="844.7" y1="537.8" x2="905.7" y2="681.3"/>
<polygon fill="none" stroke="#000000" stroke-width="6.28" stroke-linecap="round" stroke-miterlimit="10" points="783.7,681.3 
	844.7,537.8 905.7,681.3 "/>
<line fill="none" stroke="#000000" stroke-width="6.28" stroke-linecap="round" stroke-miterlimit="10" x1="112.6" y1="753.1" x2="173.6" y2="896.6"/>
<polygon fill="none" stroke="#000000" stroke-width="6.28" stroke-linecap="round" stroke-miterlimit="10" points="51.6,896.6 
	112.6,753.1 173.6,896.6 "/>
<line fill="none" stroke="#000000" stroke-width="6.28" stroke-linecap="round" stroke-miterlimit="10" x1="234.6" y1="753.1" x2="295.6" y2="896.6"/>
<polygon fill="none" stroke="#000000" stroke-width="6.28" stroke-linecap="round" stroke-miterlimit="10" points="173.6,896.6 
	234.6,753.1 295.6,896.6 "/>
<line fill="none" stroke="#000000" stroke-width="6.28" stroke-linecap="round" stroke-miterlimit="10" x1="356.6" y1="753.1" x2="417.6" y2="896.6"/>
<polygon fill="none" stroke="#000000" stroke-width="6.28" stroke-linecap="round" stroke-miterlimit="10" points="295.6,896.6 
	356.6,753.1 417.6,896.6 "/>
<line fill="none" stroke="#000000" stroke-width="6.28" stroke-linecap="round" stroke-miterlimit="10" x1="478.6" y1="753.1" x2="539.6" y2="896.6"/>
<polygon fill="none" stroke="#000000" stroke-width="6.28" stroke-linecap="round" stroke-miterlimit="10" points="417.6,896.6 
	478.6,753.1 539.6,896.6 "/>
<line fill="none" stroke="#000000" stroke-width="6.28" stroke-linecap="round" stroke-miterlimit="10" x1="600.6" y1="753.1" x2="661.7" y2="896.6"/>
<polygon fill="none" stroke="#000000" stroke-width="6.28" stroke-linecap="round" stroke-miterlimit="10" points="539.6,896.6 
	600.6,753.1 661.7,896.6 "/>
<line fill="none" stroke="#000000" stroke-width="6.28" stroke-linecap="round" stroke-miterlimit="10" x1="722.7" y1="753.1" x2="783.7" y2="896.6"/>
<polygon fill="none" stroke="#000000" stroke-width="6.28" stroke-linecap="round" stroke-miterlimit="10" points="661.7,896.6 
	722.7,753.1 783.7,896.6 "/>
<line fill="none" stroke="#000000" stroke-width="6.28" stroke-linecap="round" stroke-miterlimit="10" x1="66.8" y1="214.9" x2="82.1" y2="250.8"/>
<polygon fill="none" stroke="#000000" stroke-width="6.28" stroke-linecap="round" stroke-miterlimit="10" points="51.6,250.8 
	66.8,214.9 82.1,250.8 "/>
<line fill="none" stroke="#000000" stroke-width="6.28" stroke-linecap="round" stroke-miterlimit="10" x1="188.8" y1="214.9" x2="204.1" y2="250.8"/>
<polygon fill="none" stroke="#000000" stroke-width="6.28" stroke-linecap="round" stroke-miterlimit="10" points="173.6,250.8 
	188.8,214.9 204.1,250.8 "/>
<line fill="none" stroke="#000000" stroke-width="6.28" stroke-linecap="round" stroke-miterlimit="10" x1="310.9" y1="214.9" x2="326.1" y2="250.8"/>
<polygon fill="none" stroke="#000000" stroke-width="6.28" stroke-linecap="round" stroke-miterlimit="10" points="295.6,250.8 
	310.9,214.9 326.1,250.8 "/>
<line fill="none" stroke="#000000" stroke-width="6.28" stroke-linecap="round" stroke-miterlimit="10" x1="432.9" y1="214.9" x2="448.1" y2="250.8"/>
<polygon fill="none" stroke="#000000" stroke-width="6.28" stroke-linecap="round" stroke-miterlimit="10" points="417.6,250.8 
	432.9,214.9 448.1,250.8 "/>
<line fill="none" stroke="#000000" stroke-width="6.28" stroke-linecap="round" stroke-miterlimit="10" x1="554.9" y1="214.9" x2="570.1" y2="250.8"/>
<polygon fill="none" stroke="#000000" stroke-width="6.28" stroke-linecap="round" stroke-miterlimit="10" points="539.6,250.8 
	554.9,214.9 570.1,250.8 "/>
<line fill="none" stroke="#000000" stroke-width="6.28" stroke-linecap="round" stroke-miterlimit="10" x1="676.9" y1="214.9" x2="692.2" y2="250.8"/>
<polygon fill="none" stroke="#000000" stroke-width="6.28" stroke-linecap="round" stroke-miterlimit="10" points="661.7,250.8 
	676.9,214.9 692.2,250.8 "/>
<line fill="none" stroke="#000000" stroke-width="6.28" stroke-linecap="round" stroke-miterlimit="10" x1="798.9" y1="214.9" x2="814.2" y2="250.8"/>
<polygon fill="none" stroke="#000000" stroke-width="6.28" stroke-linecap="round" stroke-miterlimit="10" points="783.7,250.8 
	798.9,214.9 814.2,250.8 "/>
<line fill="none" stroke="#000000" stroke-width="6.28" stroke-linecap="round" stroke-miterlimit="10" x1="66.8" y1="430.2" x2="82.1" y2="466"/>
<polygon fill="none" stroke="#000000" stroke-width="6.28" stroke-linecap="round" stroke-miterlimit="10" points="51.6,466 
	66.8,430.2 82.1,466 "/>
<line fill="none" stroke="#000000" stroke-width="6.28" stroke-linecap="round" stroke-miterlimit="10" x1="188.8" y1="430.2" x2="204.1" y2="466"/>
<polygon fill="none" stroke="#000000" stroke-width="6.28" stroke-linecap="round" stroke-miterlimit="10" points="173.6,466 
	188.8,430.2 204.1,466 "/>
<line fill="none" stroke="#000000" stroke-width="6.28" stroke-linecap="round" stroke-miterlimit="10" x1="310.9" y1="430.2" x2="326.1" y2="466"/>
<polygon fill="none" stroke="#000000" stroke-width="6.28" stroke-linecap="round" stroke-miterlimit="10" points="295.6,466 
	310.9,430.2 326.1,466 "/>
<line fill="none" stroke="#000000" stroke-width="6.28" stroke-linecap="round" stroke-miterlimit="10" x1="432.9" y1="430.2" x2="448.1" y2="466"/>
<polygon fill="none" stroke="#000000" stroke-width="6.28" stroke-linecap="round" stroke-miterlimit="10" points="417.6,466 
	432.9,430.2 448.1,466 "/>
<line fill="none" stroke="#000000" stroke-width="6.28" stroke-linecap="round" stroke-miterlimit="10" x1="554.9" y1="430.2" x2="570.1" y2="466"/>
<polygon fill="none" stroke="#000000" stroke-width="6.28" stroke-linecap="round" stroke-miterlimit="10" points="539.6,466 
	554.9,430.2 570.1,466 "/>
<line fill="none" stroke="#000000" stroke-width="6.28" stroke-linecap="round" stroke-miterlimit="10" x1="676.9" y1="430.2" x2="692.2" y2="466"/>
<polygon fill="none" stroke="#000000" stroke-width="6.28" stroke-linecap="round" stroke-miterlimit="10" points="661.7,466 
	676.9,430.2 692.2,466 "/>
<line fill="none" stroke="#000000" stroke-width="6.28" stroke-linecap="round" stroke-miterlimit="10" x1="798.9" y1="430.2" x2="814.2" y2="466"/>
<polygon fill="none" stroke="#000000" stroke-width="6.28" stroke-linecap="round" stroke-miterlimit="10" points="783.7,466 
	798.9,430.2 814.2,466 "/>
<line fill="none" stroke="#000000" stroke-width="6.28" stroke-linecap="round" stroke-miterlimit="10" x1="66.8" y1="645.4" x2="82.1" y2="681.3"/>
<polygon fill="none" stroke="#000000" stroke-width="6.28" stroke-linecap="round" stroke-miterlimit="10" points="51.6,681.3 
	66.8,645.4 82.1,681.3 "/>
<line fill="none" stroke="#000000" stroke-width="6.28" stroke-linecap="round" stroke-miterlimit="10" x1="188.8" y1="645.4" x2="204.1" y2="681.3"/>
<polygon fill="none" stroke="#000000" stroke-width="6.28" stroke-linecap="round" stroke-miterlimit="10" points="173.6,681.3 
	188.8,645.4 204.1,681.3 "/>
<line fill="none" stroke="#000000" stroke-width="6.28" stroke-linecap="round" stroke-miterlimit="10" x1="310.9" y1="645.4" x2="326.1" y2="681.3"/>
<polygon fill="none" stroke="#000000" stroke-width="6.28" stroke-linecap="round" stroke-miterlimit="10" points="295.6,681.3 
	310.9,645.4 326.1,681.3 "/>
<line fill="none" stroke="#000000" stroke-width="6.28" stroke-linecap="round" stroke-miterlimit="10" x1="432.9" y1="645.4" x2="448.1" y2="681.3"/>
<polygon fill="none" stroke="#000000" stroke-width="6.28" stroke-linecap="round" stroke-miterlimit="10" points="417.6,681.3 
	432.9,645.4 448.1,681.3 "/>
<line fill="none" stroke="#000000" stroke-width="6.28" stroke-linecap="round" stroke-miterlimit="10" x1="554.9" y1="645.4" x2="570.1" y2="681.3"/>
<polygon fill="none" stroke="#000000" stroke-width="6.28" stroke-linecap="round" stroke-miterlimit="10" points="539.6,681.3 
	554.9,645.4 570.1,681.3 "/>
<line fill="none" stroke="#000000" stroke-width="6.28" stroke-linecap="round" stroke-miterlimit="10" x1="676.9" y1="645.4" x2="692.2" y2="681.3"/>
<polygon fill="none" stroke="#000000" stroke-width="6.28" stroke-linecap="round" stroke-miterlimit="10" points="661.7,681.3 
	676.9,645.4 692.2,681.3 "/>
<line fill="none" stroke="#000000" stroke-width="6.28" stroke-linecap="round" stroke-miterlimit="10" x1="798.9" y1="645.4" x2="814.2" y2="681.3"/>
<polygon fill="none" stroke="#000000" stroke-width="6.28" stroke-linecap="round" stroke-miterlimit="10" points="783.7,681.3 
	798.9,645.4 814.2,681.3 "/>
<line fill="none" stroke="#000000" stroke-width="6.28" stroke-linecap="round" stroke-miterlimit="10" x1="66.8" y1="860.7" x2="82.1" y2="896.6"/>
<polygon fill="none" stroke="#000000" stroke-width="6.28" stroke-linecap="round" stroke-miterlimit="10" points="51.6,896.6 
	66.8,860.7 82.1,896.6 "/>
<line fill="none" stroke="#000000" stroke-width="6.28" stroke-linecap="round" stroke-miterlimit="10" x1="188.8" y1="860.7" x2="204.1" y2="896.6"/>
<polygon fill="none" stroke="#000000" stroke-width="6.28" stroke-linecap="round" stroke-miterlimit="10" points="173.6,896.6 
	188.8,860.7 204.1,896.6 "/>
<line fill="none" stroke="#000000" stroke-width="6.28" stroke-linecap="round" stroke-miterlimit="10" x1="310.9" y1="860.7" x2="326.1" y2="896.6"/>
<polygon fill="none" stroke="#000000" stroke-width="6.28" stroke-linecap="round" stroke-miterlimit="10" points="295.6,896.6 
	310.9,860.7 326.1,896.6 "/>
<polyline fill="none" stroke="#000000" stroke-width="6.28" stroke-linecap="round" stroke-miterlimit="10" points="464.5,644.7 
	558.1,805.4 299.4,685.9 "/>
<line fill="none" stroke="#000000" stroke-width="6.28" stroke-linecap="round" stroke-miterlimit="10" x1="432.9" y1="860.7" x2="448.1" y2="896.6"/>
<polygon fill="none" stroke="#000000" stroke-width="6.28" stroke-linecap="round" stroke-miterlimit="10" points="417.6,896.6 
	432.9,860.7 448.1,896.6 "/>
<line fill="none" stroke="#000000" stroke-width="6.28" stroke-linecap="round" stroke-miterlimit="10" x1="554.9" y1="860.7" x2="570.1" y2="896.6"/>
<polygon fill="none" stroke="#000000" stroke-width="6.28" stroke-linecap="round" stroke-miterlimit="10" points="539.6,896.6 
	554.9,860.7 570.1,896.6 "/>
<line fill="none" stroke="#000000" stroke-width="6.28" stroke-linecap="round" stroke-miterlimit="10" x1="676.9" y1="860.7" x2="692.2" y2="896.6"/>
<polygon fill="none" stroke="#000000" stroke-width="6.28" stroke-linecap="round" stroke-miterlimit="10" points="661.7,896.6 
	676.9,860.7 692.2,896.6 "/>
<line fill="none" stroke="#000000" stroke-width="6.28" stroke-linecap="round" stroke-miterlimit="10" x1="21.1" y1="322.5" x2="-9.4" y2="250.8"/>
<polygon fill="none" stroke="#000000" stroke-width="6.28" stroke-linecap="round" stroke-miterlimit="10" points="51.6,250.8 
	21.1,322.5 -9.4,250.8 "/>
<rect x="51.6" y="250.8" fill="none" width="595.8" height="630.7"/>
</svg>
