  0
SECTION
  2
HEADER
  9
$ACADVER
  1
AC1009
  9
$DWGCODEPAGE
  3
undefined
  9
$INSBASE
 10
0.0
 20
0.0
 30
0.0
  9
$EXTMIN
 10
-110.94766
 20
-91.17038
 30
-358.4774
  9
$EXTMAX
 10
118.90344
 20
129.10733
 30
205.25482
  9
$LIMMIN
 10
0.0
 20
0.0
  9
$LIMMAX
 10
12.0
 20
9.0
  9
$ORTHOMODE
 70
     0
  9
$REGENMODE
 70
     1
  9
$FILLMODE
 70
     1
  9
$QTEXTMODE
 70
     0
  9
$MIRRTEXT
 70
     1
  9
$DRAGMODE
 70
     2
  9
$LTSCALE
 40
1.0
  9
$OSMODE
 70
    37
  9
$ATTMODE
 70
     1
  9
$TEXTSIZE
 40
0.2
  9
$TRACEWID
 40
0.05
  9
$TEXTSTYLE
  7
STANDARD
  9
$CLAYER
  8
0
  9
$CELTYPE
  6
BYLAYER
  9
$CECOLOR
 62
   256
  9
$DIMSCALE
 40
1.0
  9
$DIMASZ
 40
0.18
  9
$DIMEXO
 40
0.0625
  9
$DIMDLI
 40
0.38
  9
$DIMRND
 40
0.0
  9
$DIMDLE
 40
0.0
  9
$DIMEXE
 40
0.18
  9
$DIMTP
 40
0.0
  9
$DIMTM
 40
0.0
  9
$DIMTXT
 40
0.18
  9
$DIMCEN
 40
0.09
  9
$DIMTSZ
 40
0.0
  9
$DIMTOL
 70
     0
  9
$DIMLIM
 70
     0
  9
$DIMTIH
 70
     1
  9
$DIMTOH
 70
     1
  9
$DIMSE1
 70
     0
  9
$DIMSE2
 70
     0
  9
$DIMTAD
 70
     0
  9
$DIMZIN
 70
     0
  9
$DIMBLK
  1

  9
$DIMASO
 70
     1
  9
$DIMSHO
 70
     1
  9
$DIMPOST
  1

  9
$DIMAPOST
  1

  9
$DIMALT
 70
     0
  9
$DIMALTD
 70
     2
  9
$DIMALTF
 40
25.4
  9
$DIMLFAC
 40
1.0
  9
$DIMTOFL
 70
     0
  9
$DIMTVP
 40
0.0
  9
$DIMTIX
 70
     0
  9
$DIMSOXD
 70
     0
  9
$DIMSAH
 70
     0
  9
$DIMBLK1
  1

  9
$DIMBLK2
  1

  9
$DIMSTYLE
  2
STANDARD_ACAD
  9
$DIMCLRD
 70
     0
  9
$DIMCLRE
 70
     0
  9
$DIMCLRT
 70
     0
  9
$DIMTFAC
 40
1.0
  9
$DIMGAP
 40
0.09
  9
$LUNITS
 70
     2
  9
$LUPREC
 70
     4
  9
$SKETCHINC
 40
0.1
  9
$FILLETRAD
 40
0.5
  9
$AUNITS
 70
     0
  9
$AUPREC
 70
     0
  9
$MENU
  1
.
  9
$ELEVATION
 40
0.0
  9
$PELEVATION
 40
0.0
  9
$THICKNESS
 40
0.0
  9
$LIMCHECK
 70
     0
  9
$CHAMFERA
 40
0.0
  9
$CHAMFERB
 40
0.0
  9
$SKPOLY
 70
     0
  9
$TDCREATE
 40
2458182.872731482
  9
$TDUPDATE
 40
2458182.872847222
  9
$TDINDWG
 40
0.0000000116
  9
$TDUSRTIMER
 40
0.0000000116
  9
$USRTIMER
 70
     1
  9
$ANGBASE
 50
0.0
  9
$ANGDIR
 70
     0
  9
$PDMODE
 70
     0
  9
$PDSIZE
 40
0.0
  9
$PLINEWID
 40
0.0
  9
$COORDS
 70
     1
  9
$SPLFRAME
 70
     0
  9
$SPLINETYPE
 70
     6
  9
$SPLINESEGS
 70
     8
  9
$ATTDIA
 70
     0
  9
$ATTREQ
 70
     1
  9
$HANDLING
 70
     1
  9
$HANDSEED
  5
241
  9
$SURFTAB1
 70
     6
  9
$SURFTAB2
 70
     6
  9
$SURFTYPE
 70
     6
  9
$SURFU
 70
     6
  9
$SURFV
 70
     6
  9
$UCSNAME
  2

  9
$UCSORG
 10
0.0
 20
0.0
 30
0.0
  9
$UCSXDIR
 10
1.0
 20
0.0
 30
0.0
  9
$UCSYDIR
 10
0.0
 20
1.0
 30
0.0
  9
$PUCSNAME
  2

  9
$PUCSORG
 10
0.0
 20
0.0
 30
0.0
  9
$PUCSXDIR
 10
1.0
 20
0.0
 30
0.0
  9
$PUCSYDIR
 10
0.0
 20
1.0
 30
0.0
  9
$USERI1
 70
     0
  9
$USERI2
 70
     0
  9
$USERI3
 70
     0
  9
$USERI4
 70
     0
  9
$USERI5
 70
     0
  9
$USERR1
 40
0.0
  9
$USERR2
 40
0.0
  9
$USERR3
 40
0.0
  9
$USERR4
 40
0.0
  9
$USERR5
 40
0.0
  9
$WORLDVIEW
 70
     1
  9
$SHADEDGE
 70
     3
  9
$SHADEDIF
 70
    70
  9
$TILEMODE
 70
     1
  9
$MAXACTVP
 70
    64
  9
$PLIMCHECK
 70
     0
  9
$PEXTMIN
 10
1.000000000000000E+20
 20
1.000000000000000E+20
 30
1.000000000000000E+20
  9
$PEXTMAX
 10
-1.000000000000000E+20
 20
-1.000000000000000E+20
 30
-1.000000000000000E+20
  9
$PLIMMIN
 10
0.0
 20
0.0
  9
$PLIMMAX
 10
12.0
 20
9.0
  9
$UNITMODE
 70
     0
  9
$VISRETAIN
 70
     1
  9
$PLINEGEN
 70
     0
  9
$PSLTSCALE
 70
     1
  0
ENDSEC
  0
SECTION
  2
TABLES
  0
TABLE
  2
VPORT
 70
     1
  0
VPORT
  2
*ACTIVE
 70
     0
 10
0.0
 20
0.0
 11
1.0
 21
1.0
 12
3.977890000000002
 22
18.968475
 13
0.0
 23
0.0
 14
0.5
 24
0.5
 15
0.5
 25
0.5
 16
0.0
 26
0.0
 36
1.0
 17
0.0
 27
0.0
 37
0.0
 40
224.6832642
 41
1.043460548050913
 42
50.0
 43
0.0
 44
0.0
 50
0.0
 51
0.0
 71
     0
 72
   100
 73
     1
 74
     3
 75
     0
 76
     0
 77
     0
 78
     0
  0
ENDTAB
  0
TABLE
  2
LTYPE
 70
     1
  0
LTYPE
  2
CONTINUOUS
 70
     0
  3
Solid line
 72
    65
 73
     0
 40
0.0
  0
ENDTAB
  0
TABLE
  2
LAYER
 70
     1
  0
LAYER
  2
0
 70
     0
 62
     7
  6
CONTINUOUS
  0
ENDTAB
  0
TABLE
  2
STYLE
 70
     1
  0
STYLE
  2
STANDARD
 70
     0
 40
0.0
 41
1.0
 50
0.0
 71
     0
 42
0.2
  3
txt
  4

  0
ENDTAB
  0
TABLE
  2
VIEW
 70
     0
  0
ENDTAB
  0
TABLE
  2
UCS
 70
     0
  0
ENDTAB
  0
TABLE
  2
APPID
 70
     1
  0
APPID
  2
ACAD
 70
     0
  0
ENDTAB
  0
TABLE
  2
DIMSTYLE
 70
     1
  0
DIMSTYLE
  2
STANDARD_ACAD
 70
     0
  3

  4

  5

  6

  7

 40
1.0
 41
0.18
 42
0.0625
 43
0.38
 44
0.18
 45
0.0
 46
0.0
 47
0.0
 48
0.0
140
0.18
141
0.09
142
0.0
143
25.4
144
1.0
145
0.0
146
1.0
147
0.09
 71
     0
 72
     0
 73
     1
 74
     1
 75
     0
 76
     0
 77
     0
 78
     0
170
     0
171
     2
172
     0
173
     0
174
     0
175
     0
176
     0
177
     0
178
     0
  0
ENDTAB
  0
ENDSEC
  0
SECTION
  2
BLOCKS
  0
BLOCK
  8
0
  2
$MODEL_SPACE
 70
     0
 10
0.0
 20
0.0
 30
0.0
  3
$MODEL_SPACE
  1

  0
ENDBLK
  5
21
  8
0
  0
BLOCK
 67
     1
  8
0
  2
$PAPER_SPACE
 70
     0
 10
0.0
 20
0.0
 30
0.0
  3
$PAPER_SPACE
  1

  0
ENDBLK
  5
1D
 67
     1
  8
0
  0
ENDSEC
  0
SECTION
  2
ENTITIES
  0
LINE
  5
6E
  8
0
 10
-74.420494
 20
-57.60592
 30
205.25482
 11
-74.420494
 21
-61.04062
 31
205.25482
  0
LINE
  5
6F
  8
0
 10
-74.420494
 20
-50.73651
 30
205.25482
 11
-74.420494
 21
-54.171215
 31
205.25482
  0
LINE
  5
70
  8
0
 10
-74.420494
 20
-43.86711
 30
205.25482
 11
-74.420494
 21
-47.301815
 31
205.25482
  0
LINE
  5
71
  8
0
 10
-74.420494
 20
-36.99771
 30
205.25482
 11
-74.420494
 21
-40.432407
 31
205.25482
  0
LINE
  5
72
  8
0
 10
-74.420494
 20
-30.128304
 30
205.25482
 11
-74.420494
 21
-33.563007
 31
205.25482
  0
LINE
  5
73
  8
0
 10
-74.420494
 20
-23.258902
 30
205.25482
 11
-74.420494
 21
-26.693604
 31
205.25482
  0
LINE
  5
74
  8
0
 10
-74.420494
 20
-16.389498
 30
205.25482
 11
-74.420494
 21
-19.8242
 31
205.25482
  0
LINE
  5
75
  8
0
 10
-74.420494
 20
-9.520095
 30
205.25482
 11
-74.420494
 21
-12.954797
 31
205.25482
  0
LINE
  5
76
  8
0
 10
-74.420494
 20
-2.6506922
 30
205.25482
 11
-74.420494
 21
-6.0853934
 31
205.25482
  0
LINE
  5
77
  8
0
 10
-74.420494
 20
4.218711
 30
205.25482
 11
-74.420494
 21
0.78400946
 31
205.25482
  0
LINE
  5
78
  8
0
 10
-74.420494
 20
11.088114
 30
205.25482
 11
-74.420494
 21
7.6534123
 31
205.25482
  0
LINE
  5
79
  8
0
 10
-74.420494
 20
17.957518
 30
205.25482
 11
-74.420494
 21
14.522816
 31
205.25482
  0
LINE
  5
7A
  8
0
 10
-74.420494
 20
24.82692
 30
205.25482
 11
-74.420494
 21
21.39222
 31
205.25482
  0
LINE
  5
7B
  8
0
 10
-74.420494
 20
31.696323
 30
205.25482
 11
-74.420494
 21
28.261621
 31
205.25482
  0
LINE
  5
7C
  8
0
 10
-74.420494
 20
38.565723
 30
205.25482
 11
-74.420494
 21
35.131027
 31
205.25482
  0
LINE
  5
7D
  8
0
 10
-74.420494
 20
45.43513
 30
205.25482
 11
-74.420494
 21
42.000427
 31
205.25482
  0
LINE
  5
7E
  8
0
 10
-74.420494
 20
52.30453
 30
205.25482
 11
-74.420494
 21
48.86983
 31
205.25482
  0
LINE
  5
7F
  8
0
 10
-74.420494
 20
59.173935
 30
205.25482
 11
-74.420494
 21
55.739235
 31
205.25482
  0
LINE
  5
80
  8
0
 10
-74.420494
 20
66.04334
 30
205.25482
 11
-74.420494
 21
62.60864
 31
205.25482
  0
LINE
  5
81
  8
0
 10
-71.004524
 20
-57.60592
 30
205.20355
 11
-74.420494
 21
69.47804
 31
205.25482
  0
LINE
  5
82
  8
0
 10
-50.508698
 20
-61.04062
 30
204.89612
 11
-50.508698
 21
-64.47532
 31
204.89612
  0
LINE
  5
83
  8
0
 10
-50.508698
 20
24.82692
 30
204.89612
 11
-50.508698
 21
21.39222
 31
204.89612
  0
LINE
  5
84
  8
0
 10
118.90344
 20
124.56215
 30
-312.09082
 11
111.20695
 21
122.48136
 31
-288.12286
  0
LINE
  5
85
  8
0
 10
-47.092724
 20
7.6534123
 30
204.84485
 11
-47.092724
 21
-54.171215
 31
204.84485
  0
LINE
  5
86
  8
0
 10
103.20642
 20
120.57729
 30
-283.00638
 11
-47.092724
 21
14.522816
 31
204.84485
  0
LINE
  5
87
  8
0
 10
113.27841
 20
119.06798
 30
-316.4555
 11
108.0933
 21
119.982765
 31
-299.2357
  0
LINE
  5
88
  8
0
 10
-43.676754
 20
-50.73651
 30
204.79364
 11
-43.676754
 21
-54.171215
 31
204.79364
  0
LINE
  5
89
  8
0
 10
-43.676754
 20
-43.86711
 30
204.79364
 11
-43.676754
 21
-47.301815
 31
204.79364
  0
LINE
  5
8A
  8
0
 10
-43.676754
 20
-36.99771
 30
204.79364
 11
-43.676754
 21
-40.432407
 31
204.79364
  0
LINE
  5
8B
  8
0
 10
96.992004
 20
120.81206
 30
-283.52917
 11
-43.676754
 21
-33.563007
 31
204.79364
  0
LINE
  5
8C
  8
0
 10
100.99687
 20
112.77079
 30
-297.7763
 11
99.684265
 21
117.81706
 31
-293.10678
  0
LINE
  5
8D
  8
0
 10
-40.260784
 20
21.39222
 30
204.74237
 11
107.07323
 21
112.9389
 31
-319.39276
  0
LINE
  5
8E
  8
0
 10
92.07325
 20
116.416176
 30
-289.10968
 11
91.40811
 21
121.99973
 31
-286.56198
  0
LINE
  5
8F
  8
0
 10
96.29654
 20
108.474075
 30
-305.28638
 11
93.435646
 21
111.635376
 31
-294.32816
  0
LINE
  5
90
  8
0
 10
85.558334
 20
122.96681
 30
-289.01196
 11
101.16895
 21
107.17107
 31
-323.9494
  0
LINE
  5
91
  8
0
 10
87.13651
 20
112.086784
 30
-295.55945
 11
86.49764
 21
117.81706
 31
-292.90897
  0
LINE
  5
92
  8
0
 10
89.627174
 20
101.80816
 30
-305.8927
 11
87.949776
 21
106.48012
 31
-298.93353
  0
LINE
  5
93
  8
0
 10
79.75941
 20
124.19743
 30
-292.15424
 11
95.30237
 21
101.47498
 31
-329.43784
  0
LINE
  5
94
  8
0
 10
80.78622
 20
112.54186
 30
-296.80078
 11
80.19592
 21
118.29154
 31
-294.12955
  0
LINE
  5
95
  8
0
 10
82.61606
 20
101.59633
 30
-305.08115
 11
81.68985
 21
107.13658
 31
-300.88992
  0
LINE
  5
96
  8
0
 10
85.20287
 20
90.86585
 30
-316.78705
 11
83.88756
 21
96.3219
 31
-310.83502
  0
LINE
  5
97
  8
0
 10
75.07282
 20
127.77801
 30
-301.4797
 11
-30.01287
 21
-16.389498
 31
204.58862
  0
LINE
  5
98
  8
0
 10
75.63405
 20
115.11232
 30
-304.27295
 11
75.21226
 21
121.2207
 31
-302.1737
  0
LINE
  5
99
  8
0
 10
77.07876
 20
103.53515
 30
-311.4634
 11
76.348816
 21
109.38446
 31
-307.83047
  0
LINE
  5
9A
  8
0
 10
79.52222
 20
92.660774
 30
-323.62466
 11
77.97537
 21
97.770004
 31
-315.92593
  0
LINE
  5
9B
  8
0
 10
81.6376
 20
80.44587
 30
-334.15308
 11
80.646034
 21
86.73828
 31
-329.21796
  0
LINE
  5
9C
  8
0
 10
-26.596893
 20
35.131027
 30
204.53741
 11
-26.596893
 21
28.261621
 31
204.53741
  0
LINE
  5
9D
  8
0
 10
68.68096
 20
121.72305
 30
-303.46814
 11
68.93556
 21
129.10733
 31
-304.87592
  0
LINE
  5
9E
  8
0
 10
69.58142
 20
109.614456
 30
-308.44727
 11
69.06366
 21
115.59235
 31
-305.58423
  0
LINE
  5
9F
  8
0
 10
70.37461
 20
96.93724
 30
-312.83325
 11
69.9755
 21
103.31608
 31
-310.62634
  0
LINE
  5
A0
  8
0
 10
71.742615
 20
84.66235
 30
-320.39767
 11
70.914764
 21
90.67069
 31
-315.82
  0
LINE
  5
A1
  8
0
 10
74.36115
 20
73.14288
 30
-334.87695
 11
73.02574
 21
79.01766
 31
-327.49274
  0
LINE
  5
A2
  8
0
 10
57.99758
 20
119.41703
 30
-279.28354
 11
77.86667
 21
69.10015
 31
-354.26086
  0
LINE
  5
A3
  8
0
 10
59.705585
 20
110.30272
 30
-289.90814
 11
58.787212
 21
114.82333
 31
-284.1954
  0
LINE
  5
A4
  8
0
 10
60.442947
 20
98.52145
 30
-294.4948
 11
60.1244
 21
104.558136
 31
-292.51334
  0
LINE
  5
A5
  8
0
 10
63.854156
 20
90.67069
 30
-315.7141
 11
63.25542
 21
96.731255
 31
-311.9897
  0
LINE
  5
A6
  8
0
 10
65.09106
 20
78.1505
 30
-323.40817
 11
64.21961
 21
84.11332
 31
-317.98743
  0
LINE
  5
A7
  8
0
 10
68.15293
 20
67.02368
 30
-342.45444
 11
66.251625
 21
72.32402
 31
-330.62744
  0
LINE
  5
A8
  8
0
 10
-19.76495
 20
-12.954797
 30
204.43494
 11
-19.76495
 21
-16.389498
 31
204.43494
  0
LINE
  5
A9
  8
0
 10
-19.76495
 20
14.522816
 30
204.43494
 11
-19.76495
 21
7.6534123
 31
204.43494
  0
LINE
  5
AA
  8
0
 10
51.08359
 20
111.552704
 30
-275.01443
 11
50.75503
 21
116.94141
 31
-272.6786
  0
LINE
  5
AB
  8
0
 10
52.449295
 20
102.10088
 30
-284.72357
 11
51.585896
 21
106.48902
 31
-278.58545
  0
LINE
  5
AC
  8
0
 10
53.809723
 20
91.85186
 30
-294.3953
 11
53.438953
 21
97.732666
 31
-291.7594
  0
LINE
  5
AD
  8
0
 10
56.68791
 20
83.39227
 30
-314.85718
 11
53.90335
 21
85.354485
 31
-295.0609
  0
LINE
  5
AE
  8
0
 10
58.43445
 20
71.682014
 30
-327.27383
 11
57.113216
 21
76.967964
 31
-317.8808
  0
LINE
  5
AF
  8
0
 10
-16.34898
 20
-26.693604
 30
204.38367
 11
59.355072
 21
65.5094
 31
-333.81882
  0
LINE
  5
B0
  8
0
 10
-16.34898
 20
-12.954797
 30
204.38367
 11
-16.34898
 21
-16.389498
 31
204.38367
  0
LINE
  5
B1
  8
0
 10
-16.34898
 20
28.261621
 30
204.38367
 11
-16.34898
 21
24.82692
 31
204.38367
  0
LINE
  5
B2
  8
0
 10
-16.34898
 20
35.131027
 30
204.38367
 11
-16.34898
 21
31.696323
 31
204.38367
  0
LINE
  5
B3
  8
0
 10
43.606678
 20
113.935265
 30
-264.68295
 11
-16.34898
 21
38.565723
 31
204.38367
  0
LINE
  5
B4
  8
0
 10
44.69957
 20
104.87742
 30
-273.7488
 11
44.144978
 21
109.47386
 31
-269.14832
  0
LINE
  5
B5
  8
0
 10
45.93566
 20
95.440315
 30
-284.00262
 11
45.12665
 21
99.75648
 31
-277.2916
  0
LINE
  5
B6
  8
0
 10
47.176506
 20
85.18227
 30
-294.29578
 11
46.70191
 21
90.753174
 31
-290.3589
  0
LINE
  5
B7
  8
0
 10
48.414825
 20
74.08533
 30
-304.56808
 11
47.499332
 21
79.1515
 31
-296.9738
  0
LINE
  5
B8
  8
0
 10
51.1388
 20
64.34637
 30
-327.1644
 11
50.659897
 21
70.895355
 31
-323.1917
  0
LINE
  5
B9
  8
0
 10
53.92026
 20
52.841255
 30
-350.2375
 11
51.82741
 21
57.910328
 31
-332.8766
  0
LINE
  5
BA
  8
0
 10
-12.933007
 20
-9.520095
 30
204.33246
 11
-12.933007
 21
-16.389498
 31
204.33246
  0
LINE
  5
BB
  8
0
 10
-12.933007
 20
-2.6506922
 30
204.33246
 11
-12.933007
 21
-6.0853934
 31
204.33246
  0
LINE
  5
BC
  8
0
 10
-12.933007
 20
21.39222
 30
204.33246
 11
-12.933007
 21
11.088114
 31
204.33246
  0
LINE
  5
BD
  8
0
 10
37.296707
 20
112.89876
 30
-261.8684
 11
-12.933007
 21
35.131027
 31
204.33246
  0
LINE
  5
BE
  8
0
 10
37.961803
 20
103.12169
 30
-268.49112
 11
37.460243
 21
107.471085
 31
-263.49683
  0
LINE
  5
BF
  8
0
 10
38.956512
 20
93.7904
 30
-278.396
 11
38.421944
 21
98.43797
 31
-273.073
  0
LINE
  5
C0
  8
0
 10
40.34447
 20
84.669754
 30
-292.2166
 11
39.698696
 21
89.50414
 31
-285.7863
  0
LINE
  5
C1
  8
0
 10
41.016674
 20
72.87233
 30
-298.9101
 11
40.61009
 21
78.67141
 31
-294.8615
  0
LINE
  5
C2
  8
0
 10
43.054134
 20
62.94939
 30
-319.19818
 11
42.298637
 21
68.63567
 31
-311.6753
  0
LINE
  5
C3
  8
0
 10
45.61968
 20
52.103268
 30
-344.74472
 11
44.752552
 21
58.437252
 31
-336.11023
  0
LINE
  5
C4
  8
0
 10
-9.5170355
 20
-16.389498
 30
204.28119
 11
46.998806
 21
46.015694
 31
-358.4774
  0
LINE
  5
C5
  8
0
 10
-9.5170355
 20
-2.6506922
 30
204.28119
 11
-9.5170355
 21
-6.0853934
 31
204.28119
  0
LINE
  5
C6
  8
0
 10
31.143135
 20
112.08303
 30
-259.63556
 11
-9.5170355
 21
7.6534123
 31
204.28119
  0
LINE
  5
C7
  8
0
 10
31.489805
 20
101.60968
 30
-263.95325
 11
31.22886
 21
106.496925
 31
-260.7032
  0
LINE
  5
C8
  8
0
 10
32.308254
 20
92.54604
 30
-274.14673
 11
31.98342
 21
97.51732
 31
-270.101
  0
LINE
  5
C9
  8
0
 10
33.387714
 20
83.49753
 30
-287.59113
 11
32.78754
 21
87.947876
 31
-280.11615
  0
LINE
  5
CA
  8
0
 10
34.0709
 20
72.28062
 30
-296.09998
 11
33.91006
 21
78.51267
 31
-294.09677
  0
LINE
  5
CB
  8
0
 10
35.97871
 20
63.086353
 30
-319.86118
 11
34.62147
 21
66.92906
 31
-302.9572
  0
LINE
  5
CC
  8
0
 10
37.478943
 20
51.267918
 30
-338.5461
 11
36.61212
 21
57.137524
 31
-327.75018
  0
LINE
  5
CD
  8
0
 10
-6.1010637
 20
-16.389498
 30
204.22992
 11
38.545536
 21
45.251698
 31
-351.83026
  0
LINE
  5
CE
  8
0
 10
33.963455
 20
-54.990086
 30
-294.7618
 11
-6.1010637
 21
7.6534123
 31
204.22992
  0
LINE
  5
CF
  8
0
 10
32.641823
 20
-64.94244
 30
-278.30127
 11
33.336617
 21
-60.212326
 31
-286.9547
  0
LINE
  5
D0
  8
0
 10
25.10943
 20
111.478935
 30
-257.9598
 11
32.07536
 21
-69.68551
 31
-271.2461
  0
LINE
  5
D1
  8
0
 10
25.301323
 20
100.68697
 30
-261.1504
 11
25.236895
 21
106.304214
 31
-260.07916
  0
LINE
  5
D2
  8
0
 10
26.007187
 20
92.196556
 30
-272.88678
 11
25.56378
 21
96.079575
 31
-265.51428
  0
LINE
  5
D3
  8
0
 10
26.658337
 20
82.518295
 30
-283.71344
 11
26.29104
 21
87.273445
 31
-277.60638
  0
LINE
  5
D4
  8
0
 10
27.27684
 20
71.84309
 30
-293.99725
 11
27.07931
 21
77.72851
 31
-290.71295
  0
LINE
  5
D5
  8
0
 10
27.979315
 20
60.581932
 30
-305.67728
 11
27.519201
 21
65.97217
 31
-298.02698
  0
LINE
  5
D6
  8
0
 10
30.104683
 20
51.622623
 30
-341.0157
 11
29.397661
 21
57.392826
 31
-329.2601
  0
LINE
  5
D7
  8
0
 10
-2.685091
 20
4.218711
 30
204.17871
 11
30.914682
 21
45.576
 31
-354.48352
  0
LINE
  5
D8
  8
0
 10
-2.685091
 20
17.957518
 30
204.17871
 11
-2.685091
 21
14.522816
 31
204.17871
  0
LINE
  5
D9
  8
0
 10
27.560175
 20
-55.66535
 30
-298.70825
 11
27.979315
 21
-49.92192
 31
-305.67728
  0
LINE
  5
DA
  8
0
 10
26.47291
 20
-65.44527
 30
-280.63037
 11
27.001398
 21
-60.69152
 31
-289.41754
  0
LINE
  5
DB
  8
0
 10
25.464458
 20
-74.083534
 30
-263.86285
 11
25.93756
 21
-69.8166
 31
-271.72913
  0
LINE
  5
DC
  8
0
 10
19.266577
 20
106.11219
 30
-259.4574
 11
19.078342
 21
110.290054
 31
-254.74962
  0
LINE
  5
DD
  8
0
 10
19.395502
 20
95.20231
 30
-262.6819
 11
19.330688
 21
100.68697
 31
-261.06085
  0
LINE
  5
DE
  8
0
 10
19.917038
 20
86.77437
 30
-275.72565
 11
19.571861
 21
90.487976
 31
-267.0927
  0
LINE
  5
DF
  8
0
 10
20.38366
 20
76.95985
 30
-287.39606
 11
20.133783
 21
81.87814
 31
-281.14655
  0
LINE
  5
E0
  8
0
 10
20.696877
 20
65.43756
 30
-295.2297
 11
20.564537
 21
71.41083
 31
-291.9199
  0
LINE
  5
E1
  8
0
 10
21.225197
 20
54.12782
 30
-308.44318
 11
20.969765
 21
59.95558
 31
-302.05475
  0
LINE
  5
E2
  8
0
 10
0.7308798
 20
-19.8242
 30
204.12744
 11
22.419779
 21
51.267918
 31
-338.32022
  0
LINE
  5
E3
  8
0
 10
0.7308798
 20
14.522816
 30
204.12744
 11
0.7308798
 21
11.088114
 31
204.12744
  0
LINE
  5
E4
  8
0
 10
21.460518
 20
-44.121674
 30
-314.3287
 11
0.7308798
 21
17.957518
 31
204.12744
  0
LINE
  5
E5
  8
0
 10
20.886723
 20
-55.89414
 30
-299.9778
 11
21.225197
 21
-50.34266
 31
-308.44318
  0
LINE
  5
E6
  8
0
 10
20.2575
 20
-66.214294
 30
-284.24066
 11
20.617153
 21
-61.424786
 31
-293.23578
  0
LINE
  5
E7
  8
0
 10
19.330688
 20
-73.4108
 30
-261.06085
 11
19.846432
 21
-70.345894
 31
-273.9598
  0
LINE
  5
E8
  8
0
 10
13.286486
 20
105.351
 30
-257.25784
 11
13.194569
 21
109.51146
 31
-252.61823
  0
LINE
  5
E9
  8
0
 10
13.3921585
 20
95.20231
 30
-262.5918
 11
13.360054
 21
100.68697
 31
-260.97128
  0
LINE
  5
EA
  8
0
 10
13.569504
 20
85.631775
 30
-271.54358
 11
13.3921585
 21
89.16605
 31
-262.5918
  0
LINE
  5
EB
  8
0
 10
13.831539
 20
76.355774
 30
-284.77002
 11
13.7096815
 21
81.247826
 31
-278.61914
  0
LINE
  5
EC
  8
0
 10
13.984232
 20
64.91155
 30
-292.47745
 11
13.906975
 21
70.701836
 31
-288.57782
  0
LINE
  5
ED
  8
0
 10
14.269947
 20
53.90068
 30
-306.89923
 11
14.171951
 21
59.95558
 31
-301.9528
  0
LINE
  5
EE
  8
0
 10
15.081209
 20
44.826416
 30
-347.84866
 11
14.613226
 21
49.346546
 31
-324.22668
  0
LINE
  5
EF
  8
0
 10
4.146852
 20
7.6534123
 30
204.07623
 11
4.146852
 21
4.218711
 31
204.07623
  0
LINE
  5
F0
  8
0
 10
4.146852
 20
14.522816
 30
204.07623
 11
4.146852
 21
11.088114
 31
204.07623
  0
LINE
  5
F1
  8
0
 10
13.971227
 20
-41.29002
 30
-291.82098
 11
13.99729
 21
-34.800144
 31
-293.13647
  0
LINE
  5
F2
  8
0
 10
14.19966
 20
-56.474422
 30
-303.35138
 11
14.370863
 21
-50.878666
 31
-311.9931
  0
LINE
  5
F3
  8
0
 10
13.856486
 20
-66.60562
 30
-286.02927
 11
14.0633745
 21
-62.04952
 31
-296.4722
  0
LINE
  5
F4
  8
0
 10
13.3921585
 20
-73.81296
 30
-262.5918
 11
13.615521
 21
-70.345894
 31
-273.86633
  0
LINE
  5
F5
  8
0
 10
7.392154
 20
104.04487
 30
-253.54913
 11
7.3923445
 21
109.70508
 31
-253.03926
  0
LINE
  5
F6
  8
0
 10
7.388815
 20
95.20231
 30
-262.50177
 11
7.3904123
 21
99.780876
 31
-258.2205
  0
LINE
  5
F7
  8
0
 10
7.3875866
 20
84.050705
 30
-265.7957
 11
7.387999
 21
89.82216
 31
-264.68964
  0
LINE
  5
F8
  8
0
 10
7.382613
 20
75.0307
 30
-279.1285
 11
7.384611
 21
80.0159
 31
-273.77286
  0
LINE
  5
F9
  8
0
 10
7.3784027
 20
64.52256
 30
-290.4174
 11
7.379839
 21
70.283165
 31
-286.56534
  0
LINE
  5
FA
  8
0
 10
7.5628233
 20
-26.693604
 30
204.02496
 11
7.5628233
 21
-30.128304
 31
204.02496
  0
LINE
  5
FB
  8
0
 10
7.38216
 20
36.93032
 30
-280.344
 11
7.383732
 21
42.74955
 31
-276.13043
  0
LINE
  5
FC
  8
0
 10
7.3835096
 20
23.856302
 30
-276.7254
 11
7.5628233
 21
-16.389498
 31
204.02496
  0
LINE
  5
FD
  8
0
 10
7.384392
 20
11.121154
 30
-274.3589
 11
7.3830633
 21
17.598639
 31
-277.92236
  0
LINE
  5
FE
  8
0
 10
7.384611
 20
-1.4300741
 30
-273.77286
 11
7.3863297
 21
4.7627835
 31
-269.16342
  0
LINE
  5
FF
  8
0
 10
7.5628233
 20
7.6534123
 30
204.02496
 11
7.385477
 21
-7.6372485
 31
-271.4508
  0
LINE
  5
100
  8
0
 10
7.386118
 20
-26.143517
 30
-269.73203
 11
7.3875866
 21
-19.702497
 31
-265.7957
  0
LINE
  5
101
  8
0
 10
7.380312
 20
-40.4782
 30
-285.30145
 11
7.3839526
 21
-32.94276
 31
-275.53766
  0
LINE
  5
102
  8
0
 10
7.3796024
 20
-53.79373
 30
-287.201
 11
7.3807793
 21
-46.793312
 31
-284.04752
  0
LINE
  5
103
  8
0
 10
7.379839
 20
-66.7371
 30
-286.56534
 11
7.3764334
 21
-61.923557
 31
-295.69952
  0
LINE
  5
104
  8
0
 10
7.38962
 20
-73.2777
 30
-260.34558
 11
7.3848286
 21
-70.21282
 31
-273.18906
  0
LINE
  5
105
  8
0
 10
1.7724419
 20
106.13964
 30
-243.59889
 11
7.3925343
 21
-77.17165
 31
-252.53119
  0
LINE
  5
106
  8
0
 10
1.548486
 20
98.539406
 30
-254.48665
 11
1.5590453
 21
104.22947
 31
-253.97328
  0
LINE
  5
107
  8
0
 10
1.3404819
 20
89.82216
 30
-264.59888
 11
1.418785
 21
94.6836
 31
-260.79214
  0
LINE
  5
108
  8
0
 10
1.2833047
 20
78.38174
 30
-267.3786
 11
1.3177372
 21
84.050705
 31
-265.70465
  0
LINE
  5
109
  8
0
 10
0.9166341
 20
70.0068
 30
-285.2045
 11
1.0435706
 21
75.0307
 31
-279.03342
  0
LINE
  5
10A
  8
0
 10
10.978796
 20
-30.128304
 30
203.97375
 11
0.8380476
 21
64.26581
 31
-289.02502
  0
LINE
  5
10B
  8
0
 10
1.0435706
 20
43.161705
 30
-279.03342
 11
1.0559962
 21
49.440166
 31
-278.42932
  0
LINE
  5
10C
  8
0
 10
1.1052213
 20
30.123676
 30
-276.03625
 11
1.006007
 21
37.00195
 31
-280.8596
  0
LINE
  5
10D
  8
0
 10
1.2484857
 20
17.10578
 30
-269.07135
 11
1.2250557
 21
23.364523
 31
-270.2104
  0
LINE
  5
10E
  8
0
 10
1.3063027
 20
4.7187333
 30
-266.26053
 11
1.2601354
 21
10.913906
 31
-268.505
  0
LINE
  5
10F
  8
0
 10
1.2601354
 20
-7.5660863
 30
-268.505
 11
1.2717419
 21
-1.4034735
 31
-267.94073
  0
LINE
  5
110
  8
0
 10
1.2601354
 20
-19.88608
 30
-268.505
 11
1.1895802
 21
-13.881294
 31
-271.93506
  0
LINE
  5
111
  8
0
 10
1.1052213
 20
-33.005676
 30
-276.03625
 11
1.1895802
 21
-26.3406
 31
-271.93506
  0
LINE
  5
112
  8
0
 10
1.0435706
 20
-46.071487
 30
-279.03342
 11
1.0683731
 21
-39.54518
 31
-277.82764
  0
LINE
  5
113
  8
0
 10
0.9166341
 20
-59.97555
 30
-285.2045
 11
1.006007
 21
-52.75043
 31
-280.8596
  0
LINE
  5
114
  8
0
 10
1.1537006
 20
-70.345894
 30
-273.67938
 11
0.86445045
 21
-67.00161
 31
-287.74146
  0
LINE
  5
115
  8
0
 10
-3.8122506
 20
105.777756
 30
-242.56552
 11
1.374286
 21
-73.948
 31
-262.95547
  0
LINE
  5
116
  8
0
 10
-4.315801
 20
98.714874
 30
-254.914
 11
-3.8899152
 21
100.83036
 31
-244.47005
  0
LINE
  5
117
  8
0
 10
-4.5957847
 20
89.003525
 30
-261.77997
 11
-4.3792553
 21
93.327614
 31
-256.47006
  0
LINE
  5
118
  8
0
 10
-4.820352
 20
78.38174
 30
-267.28702
 11
-4.7975216
 21
84.36223
 31
-266.72717
  0
LINE
  5
119
  8
0
 10
-5.4705396
 20
69.59628
 30
-283.23145
 11
-4.9591417
 21
73.05847
 31
-270.69055
  0
LINE
  5
11A
  8
0
 10
14.394768
 20
-30.128304
 30
203.92249
 11
-5.598549
 21
63.75839
 31
-286.37067
  0
LINE
  5
11B
  8
0
 10
-5.2463174
 20
42.99589
 30
-277.7329
 11
-5.2463174
 21
49.345207
 31
-277.7329
  0
LINE
  5
11C
  8
0
 10
-4.912532
 20
29.50386
 30
-269.54755
 11
14.394768
 21
-19.8242
 31
203.92249
  0
LINE
  5
11D
  8
0
 10
-4.820352
 20
17.010502
 30
-267.28702
 11
-4.820352
 21
23.147625
 31
-267.28702
  0
LINE
  5
11E
  8
0
 10
-4.7975216
 20
4.7274785
 30
-266.72717
 11
-4.7975216
 21
10.8532295
 31
-266.72717
  0
LINE
  5
11F
  8
0
 10
-4.866271
 20
-7.5660863
 30
-268.4131
 11
-4.820352
 21
-1.4008678
 31
-267.28702
  0
LINE
  5
120
  8
0
 10
-5.0534177
 20
-20.187037
 30
-273.00247
 11
-5.029715
 21
-13.907504
 31
-272.4212
  0
LINE
  5
121
  8
0
 10
-5.32019
 20
-33.388268
 30
-279.5445
 11
-5.1250668
 21
-26.591171
 31
-274.7595
  0
LINE
  5
122
  8
0
 10
-5.1010933
 20
-45.371593
 30
-274.1716
 11
-5.295471
 21
-39.69769
 31
-278.93832
  0
LINE
  5
123
  8
0
 10
-5.32019
 20
-58.932716
 30
-279.5445
 11
-5.1491313
 21
-51.845467
 31
-275.3496
  0
LINE
  5
124
  8
0
 10
-4.9357934
 20
-69.55492
 30
-270.11798
 11
-5.4959393
 21
-66.214294
 31
-283.85437
  0
LINE
  5
125
  8
0
 10
-9.387682
 20
105.59775
 30
-242.00949
 11
-4.5518494
 21
-73.4108
 31
-260.70258
  0
LINE
  5
126
  8
0
 10
-9.503427
 20
94.993675
 30
-243.90697
 11
-9.416471
 21
100.14281
 31
-242.48145
  0
LINE
  5
127
  8
0
 10
-10.360298
 20
87.88219
 30
-257.95422
 11
-10.232639
 21
93.16084
 31
-255.86142
  0
LINE
  5
128
  8
0
 10
-10.958279
 20
78.527534
 30
-267.75726
 11
-10.687641
 21
83.43452
 31
-263.32053
  0
LINE
  5
129
  8
0
 10
-11.343836
 20
67.6139
 30
-274.07794
 11
-10.992678
 21
72.51388
 31
-268.32117
  0
LINE
  5
12A
  8
0
 10
17.81074
 20
-30.128304
 30
203.87122
 11
-11.934299
 21
63.258923
 31
-283.75775
  0
LINE
  5
12B
  8
0
 10
17.81074
 20
-23.258902
 30
203.87122
 11
-10.588185
 21
46.826725
 31
-261.6901
  0
LINE
  5
12C
  8
0
 10
-11.0966425
 20
29.559153
 30
-270.02557
 11
-11.061856
 21
35.6869
 31
-269.4553
  0
LINE
  5
12D
  8
0
 10
-10.889868
 20
16.97898
 30
-266.63577
 11
-10.889868
 21
23.104729
 31
-266.63577
  0
LINE
  5
12E
  8
0
 10
-10.889868
 20
4.7274785
 30
-266.63577
 11
-10.85585
 21
10.833153
 31
-266.07806
  0
LINE
  5
12F
  8
0
 10
-10.992678
 20
-7.5660863
 30
-268.32117
 11
-10.958279
 21
-1.4034735
 31
-267.75726
  0
LINE
  5
130
  8
0
 10
-11.166605
 20
-20.073118
 30
-271.1725
 11
-11.061856
 21
-13.777433
 31
-269.4553
  0
LINE
  5
131
  8
0
 10
-11.415672
 20
-32.94276
 30
-275.2556
 11
-11.308121
 21
-26.490374
 31
-273.49243
  0
LINE
  5
132
  8
0
 10
-11.166605
 20
-44.944855
 30
-271.1725
 11
-11.237095
 21
-38.873165
 31
-272.32806
  0
LINE
  5
133
  8
0
 10
-11.561007
 20
-58.593124
 30
-277.63818
 11
-11.343836
 21
-51.648563
 31
-274.07794
  0
LINE
  5
134
  8
0
 10
17.81074
 20
38.565723
 30
203.87122
 11
-11.745844
 21
-65.572205
 31
-280.6683
  0
LINE
  5
135
  8
0
 10
-13.190432
 20
-91.17038
 30
-304.35034
 11
-9.799849
 21
-70.46725
 31
-248.7664
  0
LINE
  5
136
  8
0
 10
-15.059148
 20
100.31382
 30
-242.87079
 11
-14.982365
 21
105.59775
 31
-241.92557
  0
LINE
  5
137
  8
0
 10
-15.292669
 20
89.94624
 30
-245.74554
 11
-15.097735
 21
94.831184
 31
-243.34583
  0
LINE
  5
138
  8
0
 10
-16.406282
 20
82.37763
 30
-259.45447
 11
-16.191921
 21
87.56698
 31
-256.8156
  0
LINE
  5
139
  8
0
 10
-17.211182
 20
72.78516
 30
-269.36304
 11
-16.982212
 21
78.23648
 31
-266.54437
  0
LINE
  5
13A
  8
0
 10
-18.32209
 20
63.135273
 30
-283.0387
 11
-17.303978
 21
66.85221
 31
-270.50537
  0
LINE
  5
13B
  8
0
 10
-16.757448
 20
47.17065
 30
-263.7774
 11
-16.80207
 21
53.3381
 31
-264.32672
  0
LINE
  5
13C
  8
0
 10
-16.757448
 20
35.031628
 30
-263.7774
 11
-16.71299
 21
41.02581
 31
-263.23013
  0
LINE
  5
13D
  8
0
 10
-17.165049
 20
23.277279
 30
-268.7951
 11
-17.397465
 21
29.726274
 31
-271.65625
  0
LINE
  5
13E
  8
0
 10
-17.027666
 20
10.873379
 30
-267.10388
 11
-17.119083
 21
17.073904
 31
-268.22928
  0
LINE
  5
13F
  8
0
 10
-17.119083
 20
-1.4060891
 30
-268.22928
 11
-17.07329
 21
4.745065
 31
-267.66553
  0
LINE
  5
140
  8
0
 10
-17.211182
 20
-13.777433
 30
-269.36304
 11
-17.165049
 21
-7.580212
 31
-268.7951
  0
LINE
  5
141
  8
0
 10
-17.350634
 20
-26.291052
 30
-271.0797
 11
-17.257492
 21
-19.99788
 31
-269.93317
  0
LINE
  5
142
  8
0
 10
-17.303978
 20
-38.65421
 30
-270.50537
 11
-17.397465
 21
-32.57025
 31
-271.65625
  0
LINE
  5
143
  8
0
 10
-17.634306
 20
-51.746826
 30
-274.57184
 11
-17.303978
 21
-44.86047
 31
-270.50537
  0
LINE
  5
144
  8
0
 10
-18.121769
 20
-65.572205
 30
-280.57263
 11
-17.924534
 21
-58.705887
 31
-278.1446
  0
LINE
  5
145
  8
0
 10
-19.04857
 20
-81.2297
 30
-291.98193
 11
21.226711
 21
38.565723
 31
203.82
  0
LINE
  5
146
  8
0
 10
-20.672935
 20
105.95839
 30
-242.78658
 11
-19.648705
 21
-89.85887
 31
-299.36975
  0
LINE
  5
147
  8
0
 10
-20.769482
 20
94.993675
 30
-243.73796
 11
-20.769482
 21
100.657585
 31
-243.73796
  0
LINE
  5
148
  8
0
 10
-22.087605
 20
87.56698
 30
-256.72717
 11
-20.866693
 21
89.63695
 31
-244.69589
  0
LINE
  5
149
  8
0
 10
-22.51827
 20
76.812996
 30
-260.97113
 11
-22.301382
 21
82.22883
 31
-258.8338
  0
LINE
  5
14A
  8
0
 10
-23.534662
 20
66.97797
 30
-270.98697
 11
-23.302893
 21
72.64926
 31
-268.70306
  0
LINE
  5
14B
  8
0
 10
-23.131325
 20
53.833244
 30
-267.01233
 11
-23.651855
 21
60.98948
 31
-272.14185
  0
LINE
  5
14C
  8
0
 10
-23.07456
 20
41.48198
 30
-266.453
 11
-23.131325
 21
47.69612
 31
-267.01233
  0
LINE
  5
14D
  8
0
 10
24.642681
 20
-16.389498
 30
203.76874
 11
-23.018003
 21
35.29083
 31
-265.89563
  0
LINE
  5
14E
  8
0
 10
-23.593147
 20
17.266968
 30
-271.5633
 11
-23.769943
 21
23.630224
 31
-273.3055
  0
LINE
  5
14F
  8
0
 10
-23.476393
 20
4.789611
 30
-270.41278
 11
-23.534662
 21
11.016555
 31
-270.98697
  0
LINE
  5
150
  8
0
 10
-23.534662
 20
-7.6372485
 30
-270.98697
 11
-23.593147
 21
-1.4219887
 31
-271.5633
  0
LINE
  5
151
  8
0
 10
-23.41834
 20
-19.99788
 30
-269.84073
 11
-23.476393
 21
-13.829169
 31
-270.41278
  0
LINE
  5
152
  8
0
 10
-23.829323
 20
-32.817646
 30
-273.89066
 11
-23.534662
 21
-26.291052
 31
-270.98697
  0
LINE
  5
153
  8
0
 10
24.642681
 20
24.82692
 30
203.76874
 11
-23.769943
 21
-39.020523
 31
-273.3055
  0
LINE
  5
154
  8
0
 10
-24.374054
 20
-58.932716
 30
-279.25867
 11
-24.00882
 21
-51.944485
 31
-275.6595
  0
LINE
  5
155
  8
0
 10
24.642681
 20
38.565723
 30
203.76874
 11
24.642681
 21
35.131027
 31
203.76874
  0
LINE
  5
156
  8
0
 10
-26.54453
 20
-90.22973
 30
-300.64725
 11
-25.522408
 21
-80.904526
 31
-290.5749
  0
LINE
  5
157
  8
0
 10
-26.402506
 20
100.657585
 30
-243.65346
 11
-25.170944
 21
102.45916
 31
-233.53676
  0
LINE
  5
158
  8
0
 10
-26.577679
 20
89.79132
 30
-245.0924
 11
-26.636475
 21
95.64925
 31
-245.57536
  0
LINE
  5
159
  8
0
 10
-26.99354
 20
79.36177
 30
-248.50848
 11
-26.695473
 21
84.38884
 31
-246.06
  0
LINE
  5
15A
  8
0
 10
-28.763687
 20
71.31774
 30
-263.04938
 11
-28.369242
 21
76.534485
 31
-259.80914
  0
LINE
  5
15B
  8
0
 10
-29.78883
 20
60.87454
 30
-271.47037
 11
-29.71869
 21
66.97797
 31
-270.8942
  0
LINE
  5
15C
  8
0
 10
28.058655
 20
-26.693604
 30
203.71753
 11
28.058655
 21
-30.128304
 31
203.71753
  0
LINE
  5
15D
  8
0
 10
-29.579193
 20
35.75378
 30
-269.7483
 11
-29.579193
 21
41.94841
 31
-269.7483
  0
LINE
  5
15E
  8
0
 10
-30.799337
 20
24.133375
 30
-279.7712
 11
-32.261692
 21
31.697632
 31
-291.7837
  0
LINE
  5
15F
  8
0
 10
-30.072067
 20
11.121154
 30
-273.797
 11
-30.287329
 21
17.497808
 31
-275.5653
  0
LINE
  5
160
  8
0
 10
-30.000854
 20
-1.4300741
 30
-273.21204
 11
-30.000854
 21
4.835
 31
-273.21204
  0
LINE
  5
161
  8
0
 10
-29.78883
 20
-13.881294
 30
-271.47037
 11
-29.929914
 21
-7.6805916
 31
-272.62927
  0
LINE
  5
162
  8
0
 10
-29.859234
 20
-26.390335
 30
-272.0487
 11
-29.71869
 21
-20.073118
 31
-270.8942
  0
LINE
  5
163
  8
0
 10
-30.215302
 20
-39.24366
 30
-274.9736
 11
-30.215302
 21
-32.94276
 31
-274.9736
  0
LINE
  5
164
  8
0
 10
-30.799337
 20
-52.64832
 30
-279.7712
 11
28.058655
 21
24.82692
 31
203.71753
  0
LINE
  5
165
  8
0
 10
-27.856472
 20
-60.41651
 30
-255.59705
 11
-30.948183
 21
-59.276276
 31
-280.9939
  0
LINE
  5
166
  8
0
 10
-32.422146
 20
-81.557495
 30
-293.1017
 11
-31.710117
 21
-73.552246
 31
-287.2528
  0
LINE
  5
167
  8
0
 10
-30.599342
 20
102.45916
 30
-233.45534
 11
-33.16051
 21
-89.85887
 31
-299.16705
  0
LINE
  5
168
  8
0
 10
-32.239815
 20
95.484505
 30
-245.00746
 11
-30.78901
 21
97.4839
 31
-234.79099
  0
LINE
  5
169
  8
0
 10
-32.654766
 20
84.97629
 30
-247.92955
 11
-32.51549
 21
90.414215
 31
-246.94876
  0
LINE
  5
16A
  8
0
 10
-33.078476
 20
74.2463
 30
-250.9133
 11
-32.654766
 21
79.22366
 31
-247.92955
  0
LINE
  5
16B
  8
0
 10
-35.022842
 20
65.62016
 30
-264.6054
 11
-34.557793
 21
70.92776
 31
-261.3305
  0
LINE
  5
16C
  8
0
 10
-36.231762
 20
54.955597
 30
-273.11856
 11
-36.231762
 21
61.220673
 31
-273.11856
  0
LINE
  5
16D
  8
0
 10
-36.231762
 20
42.42545
 30
-273.11856
 11
31.474628
 21
-26.693604
 31
203.66626
  0
LINE
  5
16E
  8
0
 10
-39.055363
 20
31.825542
 30
-293.0022
 11
-36.149033
 21
36.09197
 31
-272.536
  0
LINE
  5
16F
  8
0
 10
-37.511433
 20
17.873287
 30
-282.1299
 11
-38.86825
 21
25.054846
 31
-291.6846
  0
LINE
  5
170
  8
0
 10
-36.650154
 20
4.8812585
 30
-276.06485
 11
-36.905056
 21
11.270973
 31
-277.85986
  0
LINE
  5
171
  8
0
 10
-36.48184
 20
-7.739154
 30
-274.87958
 11
-36.48184
 21
-1.4382521
 31
-274.87958
  0
LINE
  5
172
  8
0
 10
-36.398167
 20
-20.302256
 30
-274.29034
 11
-36.398167
 21
-14.013343
 31
-274.29034
  0
LINE
  5
173
  8
0
 10
-36.905056
 20
-33.259754
 30
-277.85986
 11
-36.48184
 21
-26.64186
 31
-274.87958
  0
LINE
  5
174
  8
0
 10
-37.336502
 20
-46.429592
 30
-280.89807
 11
-37.16292
 21
-39.85137
 31
-279.67575
  0
LINE
  5
175
  8
0
 10
31.474628
 20
31.696323
 30
203.66626
 11
-37.599415
 21
-53.162857
 31
-282.7495
  0
LINE
  5
176
  8
0
 10
-38.682632
 20
-74.28833
 30
-290.3775
 11
-38.1346
 21
-66.86909
 31
-286.51825
  0
LINE
  5
177
  8
0
 10
31.474628
 20
45.43513
 30
203.66626
 11
-39.434166
 21
-82.22109
 31
-295.66968
  0
LINE
  5
178
  8
0
 10
-36.24443
 20
97.4839
 30
-234.70915
 11
-36.317146
 21
103.140396
 31
-235.15721
  0
LINE
  5
179
  8
0
 10
-38.058884
 20
90.1017
 30
-245.88954
 11
-36.463295
 21
92.45887
 31
-236.05775
  0
LINE
  5
17A
  8
0
 10
-38.697617
 20
79.77902
 30
-249.82532
 11
-38.536255
 21
85.27309
 31
-248.83105
  0
LINE
  5
17B
  8
0
 10
-39.106
 20
68.795944
 30
-252.34174
 11
-38.778717
 21
74.11595
 31
-250.32506
  0
LINE
  5
17C
  8
0
 10
-41.442295
 20
59.970367
 30
-266.73767
 11
-40.9031
 21
65.37918
 31
-263.41522
  0
LINE
  5
17D
  8
0
 10
-42.940678
 20
49.15636
 30
-275.9705
 11
-42.748383
 21
55.269863
 31
-274.78558
  0
LINE
  5
17E
  8
0
 10
-43.52651
 20
36.93032
 30
-279.5803
 11
-43.62547
 21
43.412834
 31
-280.19006
  0
LINE
  5
17F
  8
0
 10
-46.01251
 20
25.309153
 30
-294.89865
 11
-43.62547
 21
30.591064
 31
-280.19006
  0
LINE
  5
180
  8
0
 10
-44.2274
 20
11.492142
 30
-283.89908
 11
-45.79612
 21
18.523737
 31
-293.5653
  0
LINE
  5
181
  8
0
 10
-43.62547
 20
-1.4633569
 30
-280.19006
 11
-43.92467
 21
4.976482
 31
-282.0337
  0
LINE
  5
182
  8
0
 10
-43.427925
 20
-14.229928
 30
-278.97284
 11
-43.52651
 21
-7.8589993
 31
-279.5803
  0
LINE
  5
183
  8
0
 10
-43.724815
 20
-27.159567
 30
-280.80225
 11
-43.62547
 21
-20.696009
 31
-280.19006
  0
LINE
  5
184
  8
0
 10
-44.43121
 20
-40.55794
 30
-285.1549
 11
-44.1261
 21
-33.84599
 31
-283.27484
  0
LINE
  5
185
  8
0
 10
34.8906
 20
28.261621
 30
203.61505
 11
-44.73995
 21
-47.3497
 31
-287.0573
  0
LINE
  5
186
  8
0
 10
-45.262745
 20
-67.67214
 30
-290.27878
 11
-44.73995
 21
-60.45097
 31
-287.0573
  0
LINE
  5
187
  8
0
 10
-46.78388
 20
-83.23698
 30
-299.65173
 11
-45.904095
 21
-75.19134
 31
-294.23062
  0
LINE
  5
188
  8
0
 10
-42.02861
 20
103.657295
 30
-236.42792
 11
34.8906
 21
45.43513
 31
203.61505
  0
LINE
  5
189
  8
0
 10
-41.946007
 20
92.45887
 30
-235.97551
 11
-42.02861
 21
98.13531
 31
-236.42792
  0
LINE
  5
18A
  8
0
 10
-43.918316
 20
84.68155
 30
-246.77771
 11
-42.278076
 21
87.52999
 31
-237.79424
  0
LINE
  5
18B
  8
0
 10
-44.918293
 20
74.64011
 30
-252.25455
 11
-44.45898
 21
79.77902
 31
-249.73889
  0
LINE
  5
18C
  8
0
 10
-45.3858
 20
63.51324
 30
-254.81508
 11
-44.918293
 21
68.795944
 31
-252.25455
  0
LINE
  5
18D
  8
0
 10
-47.854267
 20
54.134766
 30
-268.33475
 11
-47.14017
 21
59.52828
 31
-264.42365
  0
LINE
  5
18E
  8
0
 10
-49.890087
 20
43.3288
 30
-279.4848
 11
-49.122864
 21
49.062485
 31
-275.28278
  0
LINE
  5
18F
  8
0
 10
-51.022907
 20
31.13452
 30
-285.68924
 11
-50.6784
 21
37.4376
 31
-283.8023
  0
LINE
  5
190
  8
0
 10
-53.679676
 20
18.90598
 30
-300.24017
 11
38.306572
 21
-12.954797
 31
203.56378
  0
LINE
  5
191
  8
0
 10
38.306572
 20
-2.6506922
 30
203.56378
 11
-53.428223
 21
12.035327
 31
-298.863
  0
LINE
  5
192
  8
0
 10
-51.96188
 20
-8.142712
 30
-290.8319
 11
-53.303272
 21
-1.547387
 31
-298.17865
  0
LINE
  5
193
  8
0
 10
-51.606255
 20
-21.273638
 30
-288.88416
 11
-52.081375
 21
-14.801859
 31
-291.4864
  0
LINE
  5
194
  8
0
 10
-51.84286
 20
-34.591183
 30
-290.18005
 11
-51.724316
 21
-27.919107
 31
-289.5308
  0
LINE
  5
195
  8
0
 10
-52.201347
 20
-48.11247
 30
-292.14343
 11
-51.96188
 21
-41.29002
 31
-290.8319
  0
LINE
  5
196
  8
0
 10
-52.321808
 20
-61.548725
 30
-292.80322
 11
-51.96188
 21
-54.548943
 31
-290.8319
  0
LINE
  5
197
  8
0
 10
-53.80618
 20
-76.746124
 30
-300.93304
 11
-53.054893
 21
-69.054306
 31
-296.8183
  0
LINE
  5
198
  8
0
 10
38.306572
 20
45.43513
 30
203.56378
 11
-54.576332
 21
-84.631195
 31
-305.15115
  0
LINE
  5
199
  8
0
 10
-47.79761
 20
98.6296
 30
-237.71143
 11
-47.79761
 21
104.1794
 31
-237.71143
  0
LINE
  5
19A
  8
0
 10
-47.79761
 20
87.52999
 30
-237.71143
 11
-47.79761
 21
93.079796
 31
-237.71143
  0
LINE
  5
19B
  8
0
 10
-49.718956
 20
79.08603
 30
-247.18126
 11
-48.17149
 21
82.534485
 31
-239.55417
  0
LINE
  5
19C
  8
0
 10
-51.04109
 20
69.16279
 30
-253.69775
 11
-50.627815
 21
74.50838
 31
-251.66081
  0
LINE
  5
19D
  8
0
 10
-51.67213
 20
58.03101
 30
-256.80798
 11
-51.24993
 21
63.51324
 31
-254.72711
  0
LINE
  5
19E
  8
0
 10
-54.4548
 20
48.324165
 30
-270.52313
 11
-53.536293
 21
53.73348
 31
-265.99603
  0
LINE
  5
19F
  8
0
 10
-56.75115
 20
37.218494
 30
-281.8413
 11
-55.885586
 21
43.078636
 31
-277.57513
  0
LINE
  5
1A0
  8
0
 10
41.72254
 20
-12.954797
 30
203.51251
 11
41.72254
 21
-16.389498
 31
203.51251
  0
LINE
  5
1A1
  8
0
 10
41.72254
 20
-6.0853934
 30
203.51251
 11
41.72254
 21
-9.520095
 31
203.51251
  0
LINE
  5
1A2
  8
0
 10
41.72254
 20
0.78400946
 30
203.51251
 11
41.72254
 21
-2.6506922
 31
203.51251
  0
LINE
  5
1A3
  8
0
 10
-58.95503
 20
-14.86159
 30
-292.7037
 11
41.72254
 21
4.218711
 31
203.51251
  0
LINE
  5
1A4
  8
0
 10
-59.7694
 20
-28.546362
 30
-296.71756
 11
-60.886806
 21
-22.157074
 31
-302.22498
  0
LINE
  5
1A5
  8
0
 10
-60.045322
 20
-42.221478
 30
-298.0775
 11
-59.22429
 21
-35.01165
 31
-294.0308
  0
LINE
  5
1A6
  8
0
 10
-60.184128
 20
-55.89414
 30
-298.76166
 11
-59.7694
 21
-48.800335
 31
-296.71756
  0
LINE
  5
1A7
  8
0
 10
-61.895443
 20
-71.23676
 30
-307.1963
 11
-61.315468
 21
-63.734905
 31
-304.33777
  0
LINE
  5
1A8
  8
0
 10
41.72254
 20
42.000427
 30
203.51251
 11
41.72254
 21
38.565723
 31
203.51251
  0
LINE
  5
1A9
  8
0
 10
-53.728348
 20
99.296455
 30
-239.47081
 11
-53.625027
 21
104.706795
 31
-239.00792
  0
LINE
  5
1AA
  8
0
 10
-53.728348
 20
88.12181
 30
-239.47081
 11
-53.728348
 21
93.70914
 31
-239.47081
  0
LINE
  5
1AB
  8
0
 10
-54.250225
 20
77.60302
 30
-241.80888
 11
-53.93604
 21
82.814445
 31
-240.40126
  0
LINE
  5
1AC
  8
0
 10
-56.656307
 20
68.91779
 30
-252.58833
 11
-55.759975
 21
73.72765
 31
-248.57268
  0
LINE
  5
1AD
  8
0
 10
-57.461697
 20
57.92694
 30
-256.19653
 11
-57.22953
 21
63.626736
 31
-255.15642
  0
LINE
  5
1AE
  8
0
 10
-60.00393
 20
47.87389
 30
-267.58594
 11
-58.16829
 21
52.564537
 31
-259.36212
  0
LINE
  5
1AF
  8
0
 10
-62.753246
 20
37.00195
 30
-279.90314
 11
-61.025536
 21
42.345192
 31
-272.16284
  0
LINE
  5
1B0
  8
0
 10
-67.55701
 20
25.833574
 30
-301.4244
 11
-64.14271
 21
31.196096
 31
-286.12808
  0
LINE
  5
1B1
  8
0
 10
45.138515
 20
-6.0853934
 30
203.4613
 11
45.138515
 21
-9.520095
 31
203.4613
  0
LINE
  5
1B2
  8
0
 10
45.138515
 20
0.78400946
 30
203.4613
 11
45.138515
 21
-2.6506922
 31
203.4613
  0
LINE
  5
1B3
  8
0
 10
45.138515
 20
7.6534123
 30
203.4613
 11
45.138515
 21
4.218711
 31
203.4613
  0
LINE
  5
1B4
  8
0
 10
-67.55701
 20
-28.960413
 30
-301.4244
 11
-67.247246
 21
-22.019909
 31
-300.03665
  0
LINE
  5
1B5
  8
0
 10
-68.6617
 20
-43.28676
 30
-306.37347
 11
-67.247246
 21
-35.661873
 31
-300.03665
  0
LINE
  5
1B6
  8
0
 10
45.138515
 20
28.261621
 30
203.4613
 11
-68.82217
 21
-50.34266
 31
-307.09238
  0
LINE
  5
1B7
  8
0
 10
45.138515
 20
35.131027
 30
203.4613
 11
45.138515
 21
31.696323
 31
203.4613
  0
LINE
  5
1B8
  8
0
 10
45.138515
 20
42.000427
 30
203.4613
 11
45.138515
 21
38.565723
 31
203.4613
  0
LINE
  5
1B9
  8
0
 10
-62.72766
 20
104.414734
 30
-253.52245
 11
-62.603054
 21
110.094376
 31
-253.01079
  0
LINE
  5
1BA
  8
0
 10
-59.854446
 20
88.87292
 30
-241.72482
 11
-62.355175
 21
98.016754
 31
-251.99297
  0
LINE
  5
1BB
  8
0
 10
-59.854446
 20
77.60302
 30
-241.72482
 11
-59.739826
 21
83.09632
 31
-241.25417
  0
LINE
  5
1BC
  8
0
 10
-61.261044
 20
67.71841
 30
-247.50041
 11
-60.316883
 21
72.46219
 31
-243.62358
  0
LINE
  5
1BD
  8
0
 10
-63.484676
 20
58.03101
 30
-256.6308
 11
-62.603054
 21
63.17517
 31
-253.01079
  0
LINE
  5
1BE
  8
0
 10
-64.65131
 20
46.912235
 30
-261.42108
 11
-63.86934
 21
52.374638
 31
-258.21027
  0
LINE
  5
1BF
  8
0
 10
-68.10277
 20
36.506332
 30
-275.59302
 11
-66.68331
 21
42.027172
 31
-269.7646
  0
LINE
  5
1C0
  8
0
 10
-72.70698
 20
25.309153
 30
-294.4982
 11
-69.87953
 21
30.890617
 31
-282.88852
  0
LINE
  5
1C1
  8
0
 10
48.554485
 20
-6.0853934
 30
203.41003
 11
48.554485
 21
-9.520095
 31
203.41003
  0
LINE
  5
1C2
  8
0
 10
48.554485
 20
0.78400946
 30
203.41003
 11
48.554485
 21
-2.6506922
 31
203.41003
  0
LINE
  5
1C3
  8
0
 10
48.554485
 20
7.6534123
 30
203.41003
 11
48.554485
 21
4.218711
 31
203.41003
  0
LINE
  5
1C4
  8
0
 10
48.554485
 20
14.522816
 30
203.41003
 11
48.554485
 21
11.088114
 31
203.41003
  0
LINE
  5
1C5
  8
0
 10
48.554485
 20
21.39222
 30
203.41003
 11
48.554485
 21
17.957518
 31
203.41003
  0
LINE
  5
1C6
  8
0
 10
48.554485
 20
28.261621
 30
203.41003
 11
48.554485
 21
24.82692
 31
203.41003
  0
LINE
  5
1C7
  8
0
 10
48.554485
 20
35.131027
 30
203.41003
 11
48.554485
 21
31.696323
 31
203.41003
  0
LINE
  5
1C8
  8
0
 10
48.554485
 20
42.000427
 30
203.41003
 11
48.554485
 21
38.565723
 31
203.41003
  0
LINE
  5
1C9
  8
0
 10
-67.37321
 20
102.77072
 30
-248.89595
 11
-67.24245
 21
108.36396
 31
-248.40044
  0
LINE
  5
1CA
  8
0
 10
-67.63609
 20
91.52532
 30
-249.89217
 11
-67.37321
 21
96.98791
 31
-248.89595
  0
LINE
  5
1CB
  8
0
 10
-66.21261
 20
78.40497
 30
-244.49783
 11
-67.37321
 21
85.42227
 31
-248.89595
  0
LINE
  5
1CC
  8
0
 10
-66.59547
 20
67.36669
 30
-245.94864
 11
-66.08587
 21
72.58678
 31
-244.01756
  0
LINE
  5
1CD
  8
0
 10
-68.84234
 20
57.616955
 30
-254.46321
 11
-67.37321
 21
62.291
 31
-248.89595
  0
LINE
  5
1CE
  8
0
 10
-70.512184
 20
46.826725
 30
-260.79117
 11
-69.94751
 21
52.469418
 31
-258.6513
  0
LINE
  5
1CF
  8
0
 10
-73.1586
 20
35.95593
 30
-270.81976
 11
-71.22973
 21
41.176746
 31
-263.51025
  0
LINE
  5
1D0
  8
0
 10
-78.85469
 20
25.155952
 30
-292.40518
 11
-75.184364
 21
30.472862
 31
-278.49646
  0
LINE
  5
1D1
  8
0
 10
51.970455
 20
-6.0853934
 30
203.35883
 11
51.970455
 21
-9.520095
 31
203.35883
  0
LINE
  5
1D2
  8
0
 10
51.970455
 20
0.78400946
 30
203.35883
 11
51.970455
 21
-2.6506922
 31
203.35883
  0
LINE
  5
1D3
  8
0
 10
51.970455
 20
7.6534123
 30
203.35883
 11
51.970455
 21
4.218711
 31
203.35883
  0
LINE
  5
1D4
  8
0
 10
51.970455
 20
14.522816
 30
203.35883
 11
51.970455
 21
11.088114
 31
203.35883
  0
LINE
  5
1D5
  8
0
 10
51.970455
 20
21.39222
 30
203.35883
 11
51.970455
 21
17.957518
 31
203.35883
  0
LINE
  5
1D6
  8
0
 10
51.970455
 20
28.261621
 30
203.35883
 11
51.970455
 21
24.82692
 31
203.35883
  0
LINE
  5
1D7
  8
0
 10
51.970455
 20
35.131027
 30
203.35883
 11
51.970455
 21
31.696323
 31
203.35883
  0
LINE
  5
1D8
  8
0
 10
51.970455
 20
42.000427
 30
203.35883
 11
51.970455
 21
38.565723
 31
203.35883
  0
LINE
  5
1D9
  8
0
 10
-72.564224
 20
102.05656
 30
-246.83856
 11
-72.84338
 21
108.17505
 31
-247.82068
  0
LINE
  5
1DA
  8
0
 10
-72.70356
 20
90.72892
 30
-247.32877
 11
-72.98369
 21
96.81852
 31
-248.3143
  0
LINE
  5
1DB
  8
0
 10
-72.70356
 20
79.22366
 30
-247.32877
 11
-72.564224
 21
84.82866
 31
-246.83856
  0
LINE
  5
1DC
  8
0
 10
-72.564224
 20
67.60076
 30
-246.83856
 11
-72.564224
 21
73.3434
 31
-246.83856
  0
LINE
  5
1DD
  8
0
 10
-73.69266
 20
56.9064
 30
-250.80852
 11
-73.12449
 21
62.291
 31
-248.80968
  0
LINE
  5
1DE
  8
0
 10
-76.04772
 20
46.57205
 30
-259.09393
 11
-75.00078
 21
51.905846
 31
-255.41066
  0
LINE
  5
1DF
  8
0
 10
-78.06424
 20
35.421875
 30
-266.1883
 11
-77.12157
 21
41.10114
 31
-262.8719
  0
LINE
  5
1E0
  8
0
 10
-83.11116
 20
24.512972
 30
-283.944
 11
-79.84813
 21
29.895298
 31
-272.46426
  0
LINE
  5
1E1
  8
0
 10
55.38643
 20
4.218711
 30
203.30756
 11
55.38643
 21
-9.520095
 31
203.30756
  0
LINE
  5
1E2
  8
0
 10
55.38643
 20
11.088114
 30
203.30756
 11
55.38643
 21
7.6534123
 31
203.30756
  0
LINE
  5
1E3
  8
0
 10
55.38643
 20
17.957518
 30
203.30756
 11
55.38643
 21
14.522816
 31
203.30756
  0
LINE
  5
1E4
  8
0
 10
55.38643
 20
24.82692
 30
203.30756
 11
55.38643
 21
21.39222
 31
203.30756
  0
LINE
  5
1E5
  8
0
 10
55.38643
 20
31.696323
 30
203.30756
 11
55.38643
 21
28.261621
 31
203.30756
  0
LINE
  5
1E6
  8
0
 10
-79.63799
 20
109.51146
 30
-251.22563
 11
55.38643
 21
35.131027
 31
203.30756
  0
LINE
  5
1E7
  8
0
 10
-78.87577
 20
96.98791
 30
-248.7234
 11
-79.48447
 21
103.49496
 31
-250.72163
  0
LINE
  5
1E8
  8
0
 10
-79.3315
 20
85.872955
 30
-250.21945
 11
-79.3315
 21
91.68629
 31
-250.21945
  0
LINE
  5
1E9
  8
0
 10
-79.946655
 20
74.77231
 30
-252.23895
 11
-79.63799
 21
80.34222
 31
-251.22563
  0
LINE
  5
1EA
  8
0
 10
-79.63799
 20
62.84068
 30
-251.22563
 11
-79.63799
 21
68.67453
 31
-251.22563
  0
LINE
  5
1EB
  8
0
 10
-80.5706
 20
51.720673
 30
-254.28726
 11
-80.10181
 21
57.310272
 31
-252.74828
  0
LINE
  5
1EC
  8
0
 10
-82.496994
 20
40.801464
 30
-260.6114
 11
-81.36315
 21
46.23676
 31
-256.8891
  0
LINE
  5
1ED
  8
0
 10
-85.37494
 20
29.670359
 30
-270.0593
 11
-83.828766
 21
35.29083
 31
-264.9834
  0
LINE
  5
1EE
  8
0
 10
58.8024
 20
7.6534123
 30
203.25635
 11
-89.38435
 21
24.46487
 31
-283.22168
  0
LINE
  5
1EF
  8
0
 10
58.8024
 20
14.522816
 30
203.25635
 11
58.8024
 21
11.088114
 31
203.25635
  0
LINE
  5
1F0
  8
0
 10
58.8024
 20
21.39222
 30
203.25635
 11
58.8024
 21
17.957518
 31
203.25635
  0
LINE
  5
1F1
  8
0
 10
-83.35549
 20
107.05524
 30
-244.72452
 11
58.8024
 21
24.82692
 31
203.25635
  0
LINE
  5
1F2
  8
0
 10
-85.60434
 20
98.016754
 30
-251.64421
 11
-85.27628
 21
103.49496
 31
-250.63475
  0
LINE
  5
1F3
  8
0
 10
-85.440025
 20
86.17607
 30
-251.1386
 11
-85.93472
 21
92.49967
 31
-252.66078
  0
LINE
  5
1F4
  8
0
 10
-85.11313
 20
74.2463
 30
-250.13272
 11
-85.11313
 21
80.05963
 31
-250.13272
  0
LINE
  5
1F5
  8
0
 10
-86.26748
 20
63.40015
 30
-253.68463
 11
-85.440025
 21
68.67453
 31
-251.1386
  0
LINE
  5
1F6
  8
0
 10
-87.45094
 20
52.280205
 30
-257.32617
 11
-87.10978
 21
58.03101
 31
-256.27637
  0
LINE
  5
1F7
  8
0
 10
-87.96735
 20
40.57956
 30
-258.9151
 11
-87.794586
 21
46.487774
 31
-258.38354
  0
LINE
  5
1F8
  8
0
 10
-91.18768
 20
29.559153
 30
-268.8241
 11
-89.19439
 21
35.031628
 31
-262.6908
  0
LINE
  5
1F9
  8
0
 10
-88.36581
 20
106.321495
 30
-242.72394
 11
-94.632866
 21
24.18018
 31
-279.4249
  0
LINE
  5
1FA
  8
0
 10
-89.69817
 20
96.31393
 30
-246.58153
 11
-88.86114
 21
101.17768
 31
-244.15808
  0
LINE
  5
1FB
  8
0
 10
-91.76764
 20
86.63477
 30
-252.57329
 11
-91.06809
 21
91.84782
 31
-250.54787
  0
LINE
  5
1FC
  8
0
 10
-92.29887
 20
75.30581
 30
-254.11133
 11
-92.29887
 21
81.202095
 31
-254.11133
  0
LINE
  5
1FD
  8
0
 10
-91.944084
 20
63.28746
 30
-253.08417
 11
-91.76764
 21
69.04008
 31
-252.57329
  0
LINE
  5
1FE
  8
0
 10
-92.83578
 20
51.998936
 30
-255.66588
 11
-92.29887
 21
57.616955
 31
-254.11133
  0
LINE
  5
1FF
  8
0
 10
-94.4818
 20
40.801464
 30
-260.43158
 11
-93.743614
 21
46.487774
 31
-258.2943
  0
LINE
  5
200
  8
0
 10
-97.743
 20
29.670359
 30
-269.87378
 11
-95.41981
 21
35.096073
 31
-263.1474
  0
LINE
  5
201
  8
0
 10
-93.99883
 20
106.321495
 30
-242.63943
 11
65.634346
 21
-12.954797
 31
203.15381
  0
LINE
  5
202
  8
0
 10
-94.52328
 20
95.484505
 30
-244.07315
 11
-94.17306
 21
100.83036
 31
-243.1157
  0
LINE
  5
203
  8
0
 10
-95.94865
 20
85.27309
 30
-247.9698
 11
-95.23103
 21
90.414215
 31
-246.00797
  0
LINE
  5
204
  8
0
 10
-97.600555
 20
74.90497
 30
-252.48578
 11
-96.85991
 21
80.200676
 31
-250.46098
  0
LINE
  5
205
  8
0
 10
-98.54129
 20
63.740635
 30
-255.05753
 11
-98.35181
 21
69.533554
 31
-254.53954
  0
LINE
  5
206
  8
0
 10
-99.499016
 20
52.374638
 30
-257.67578
 11
-98.73146
 21
57.92694
 31
-255.57744
  0
LINE
  5
207
  8
0
 10
-101.26722
 20
41.10114
 30
-262.50967
 11
-100.27774
 21
46.741524
 31
-259.80463
  0
LINE
  5
208
  8
0
 10
-106.72015
 20
30.414104
 30
-277.41684
 11
-102.88877
 21
35.553894
 31
-266.94263
  0
LINE
  5
209
  8
0
 10
-99.63186
 20
106.321495
 30
-242.55493
 11
69.050316
 21
-12.954797
 31
203.1026
  0
LINE
  5
20A
  8
0
 10
-100.37119
 20
95.64925
 30
-244.46927
 11
-100.00027
 21
101.00372
 31
-243.5088
  0
LINE
  5
20B
  8
0
 10
-101.120804
 20
84.82866
 30
-246.41019
 11
-100.93244
 21
90.414215
 31
-245.92242
  0
LINE
  5
20C
  8
0
 10
-103.041214
 20
74.64011
 30
-251.38263
 11
-102.07262
 21
79.77902
 31
-248.87462
  0
LINE
  5
20D
  8
0
 10
-104.42642
 20
63.740635
 30
-254.96925
 11
-104.02713
 21
69.40953
 31
-253.9354
  0
LINE
  5
20E
  8
0
 10
-106.67471
 20
52.948494
 30
-260.79068
 11
-105.64167
 21
58.451065
 31
-258.11584
  0
LINE
  5
20F
  8
0
 10
-109.45106
 20
41.86994
 30
-267.97934
 11
-107.72679
 21
47.344517
 31
-263.51477
  0
LINE
  5
210
  8
0
 10
72.466286
 20
-16.389498
 30
203.05133
 11
72.466286
 21
-19.8242
 31
203.05133
  0
LINE
  5
211
  8
0
 10
-105.45844
 20
106.50399
 30
-242.94641
 11
72.466286
 21
-12.954797
 31
203.05133
  0
LINE
  5
212
  8
0
 10
-106.83213
 20
96.31393
 30
-246.32451
 11
-106.04309
 21
101.352234
 31
-244.38419
  0
LINE
  5
213
  8
0
 10
-107.83398
 20
85.571976
 30
-248.7882
 11
-107.43112
 21
91.04581
 31
-247.79756
  0
LINE
  5
214
  8
0
 10
-109.05959
 20
74.77231
 30
-251.80223
 11
-108.23964
 21
80.05963
 31
-249.7858
  0
LINE
  5
215
  8
0
 10
-110.94766
 20
64.0848
 30
-256.44528
 11
-110.31155
 21
69.658035
 31
-254.88097
  0
LINE
  5
216
  8
0
 10
75.88226
 20
-30.128304
 30
203.00012
 11
75.88226
 21
-33.563007
 31
203.00012
  0
LINE
  5
217
  8
0
 10
75.88226
 20
-23.258902
 30
203.00012
 11
75.88226
 21
-26.693604
 31
203.00012
  0
LINE
  5
218
  8
0
 10
75.88226
 20
-16.389498
 30
203.00012
 11
75.88226
 21
-19.8242
 31
203.00012
  0
LINE
  5
219
  8
0
 10
79.29823
 20
-64.47532
 30
202.94885
 11
75.88226
 21
-12.954797
 31
203.00012
  0
LINE
  5
21A
  8
0
 10
79.29823
 20
-57.60592
 30
202.94885
 11
79.29823
 21
-61.04062
 31
202.94885
  0
LINE
  5
21B
  8
0
 10
79.29823
 20
-50.73651
 30
202.94885
 11
79.29823
 21
-54.171215
 31
202.94885
  0
LINE
  5
21C
  8
0
 10
79.29823
 20
-43.86711
 30
202.94885
 11
79.29823
 21
-47.301815
 31
202.94885
  0
LINE
  5
21D
  8
0
 10
79.29823
 20
-36.99771
 30
202.94885
 11
79.29823
 21
-40.432407
 31
202.94885
  0
LINE
  5
21E
  8
0
 10
79.29823
 20
-30.128304
 30
202.94885
 11
79.29823
 21
-33.563007
 31
202.94885
  0
LINE
  5
21F
  8
0
 10
79.29823
 20
-23.258902
 30
202.94885
 11
79.29823
 21
-26.693604
 31
202.94885
  0
LINE
  5
220
  8
0
 10
79.29823
 20
-16.389498
 30
202.94885
 11
79.29823
 21
-19.8242
 31
202.94885
  0
LINE
  5
221
  8
0
 10
82.7142
 20
-61.04062
 30
202.89764
 11
82.7142
 21
-64.47532
 31
202.89764
  0
LINE
  5
222
  8
0
 10
82.7142
 20
-54.171215
 30
202.89764
 11
82.7142
 21
-57.60592
 31
202.89764
  0
LINE
  5
223
  8
0
 10
82.7142
 20
-47.301815
 30
202.89764
 11
82.7142
 21
-50.73651
 31
202.89764
  0
LINE
  5
224
  8
0
 10
82.7142
 20
-40.432407
 30
202.89764
 11
82.7142
 21
-43.86711
 31
202.89764
  0
LINE
  5
225
  8
0
 10
82.7142
 20
-33.563007
 30
202.89764
 11
82.7142
 21
-36.99771
 31
202.89764
  0
LINE
  5
226
  8
0
 10
82.7142
 20
-26.693604
 30
202.89764
 11
82.7142
 21
-30.128304
 31
202.89764
  0
LINE
  5
227
  8
0
 10
82.7142
 20
-19.8242
 30
202.89764
 11
82.7142
 21
-23.258902
 31
202.89764
  0
LINE
  5
228
  8
0
 10
86.13017
 20
-64.47532
 30
202.84637
 11
82.7142
 21
-16.389498
 31
202.89764
  0
LINE
  5
229
  8
0
 10
86.13017
 20
-57.60592
 30
202.84637
 11
86.13017
 21
-61.04062
 31
202.84637
  0
LINE
  5
22A
  8
0
 10
86.13017
 20
-50.73651
 30
202.84637
 11
86.13017
 21
-54.171215
 31
202.84637
  0
LINE
  5
22B
  8
0
 10
86.13017
 20
-43.86711
 30
202.84637
 11
86.13017
 21
-47.301815
 31
202.84637
  0
LINE
  5
22C
  8
0
 10
86.13017
 20
-36.99771
 30
202.84637
 11
86.13017
 21
-40.432407
 31
202.84637
  0
LINE
  5
22D
  8
0
 10
86.13017
 20
-30.128304
 30
202.84637
 11
86.13017
 21
-33.563007
 31
202.84637
  0
LINE
  5
22E
  8
0
 10
86.13017
 20
-23.258902
 30
202.84637
 11
86.13017
 21
-26.693604
 31
202.84637
  0
LINE
  5
22F
  8
0
 10
89.54615
 20
-64.47532
 30
202.7951
 11
86.13017
 21
-19.8242
 31
202.84637
  0
LINE
  5
230
  8
0
 10
89.54615
 20
-57.60592
 30
202.7951
 11
89.54615
 21
-61.04062
 31
202.7951
  0
LINE
  5
231
  8
0
 10
89.54615
 20
-50.73651
 30
202.7951
 11
89.54615
 21
-54.171215
 31
202.7951
  0
LINE
  5
232
  8
0
 10
89.54615
 20
-43.86711
 30
202.7951
 11
89.54615
 21
-47.301815
 31
202.7951
  0
LINE
  5
233
  8
0
 10
89.54615
 20
-36.99771
 30
202.7951
 11
89.54615
 21
-40.432407
 31
202.7951
  0
LINE
  5
234
  8
0
 10
89.54615
 20
-30.128304
 30
202.7951
 11
89.54615
 21
-33.563007
 31
202.7951
  0
LINE
  5
235
  8
0
 10
92.96212
 20
-64.47532
 30
202.7439
 11
89.54615
 21
-26.693604
 31
202.7951
  0
LINE
  5
236
  8
0
 10
92.96212
 20
-57.60592
 30
202.7439
 11
92.96212
 21
-61.04062
 31
202.7439
  0
LINE
  5
237
  8
0
 10
92.96212
 20
-50.73651
 30
202.7439
 11
92.96212
 21
-54.171215
 31
202.7439
  0
LINE
  5
238
  8
0
 10
92.96212
 20
-43.86711
 30
202.7439
 11
92.96212
 21
-47.301815
 31
202.7439
  0
LINE
  5
239
  8
0
 10
106.626015
 20
69.47804
 30
202.53894
 11
92.96212
 21
-40.432407
 31
202.7439
  0
ENDSEC
  0
EOF
