<?xml version="1.0" encoding="utf-8"?>
<!-- Generator: Adobe Illustrator 18.0.0, SVG Export Plug-In . SVG Version: 6.00 Build 0)  -->
<!DOCTYPE svg PUBLIC "-//W3C//DTD SVG 1.1//EN" "http://www.w3.org/Graphics/SVG/1.1/DTD/svg11.dtd">
<svg version="1.1" id="Layer_1" xmlns="http://www.w3.org/2000/svg" xmlns:xlink="http://www.w3.org/1999/xlink" x="0px" y="0px"
	 viewBox="0 0 1000 900" enable-background="new 0 0 1000 900" xml:space="preserve">
<g>
	<defs>
		<rect id="SVGID_1_" width="1000" height="900"/>
	</defs>
	<clipPath id="SVGID_2_">
		<use xlink:href="#SVGID_1_"  overflow="visible"/>
	</clipPath>
	<polygon clip-path="url(#SVGID_2_)" fill="#FFFFFF" points="613.3,614.8 879.3,564.5 983.6,618.4 	"/>
	<polygon clip-path="url(#SVGID_2_)" fill="none" stroke="#000000" stroke-linecap="round" stroke-miterlimit="10" points="
		613.3,614.8 879.3,564.5 983.6,618.4 	"/>
	<polygon clip-path="url(#SVGID_2_)" fill="#FFFFFF" points="13.1,431.4 182.2,291.5 361.7,392.7 	"/>
	<polygon clip-path="url(#SVGID_2_)" fill="none" stroke="#000000" stroke-linecap="round" stroke-miterlimit="10" points="
		13.1,431.4 182.2,291.5 361.7,392.7 	"/>
	<polygon clip-path="url(#SVGID_2_)" fill="#FFFFFF" points="223.8,293.7 369,95.5 534.5,214.1 	"/>
	<polygon clip-path="url(#SVGID_2_)" fill="none" stroke="#000000" stroke-linecap="round" stroke-miterlimit="10" points="
		223.8,293.7 369,95.5 534.5,214.1 	"/>
	<polygon clip-path="url(#SVGID_2_)" fill="#FFFFFF" points="551.5,292.7 735.7,98.4 874.9,232.2 	"/>
	<polygon clip-path="url(#SVGID_2_)" fill="none" stroke="#000000" stroke-linecap="round" stroke-miterlimit="10" points="
		551.5,292.7 735.7,98.4 874.9,232.2 	"/>
	<polygon clip-path="url(#SVGID_2_)" fill="#FFFFFF" points="744.5,392 729.1,283.6 884.9,421 	"/>
	<polygon clip-path="url(#SVGID_2_)" fill="none" stroke="#000000" stroke-linecap="round" stroke-miterlimit="10" points="
		744.5,392 729.1,283.6 884.9,421 	"/>
	<polygon clip-path="url(#SVGID_2_)" fill="#FFFFFF" points="432.6,538 567.8,387.6 645.8,535.4 	"/>
	<polygon clip-path="url(#SVGID_2_)" fill="none" stroke="#000000" stroke-linecap="round" stroke-miterlimit="10" points="
		432.6,538 567.8,387.6 645.8,535.4 	"/>
	<polygon clip-path="url(#SVGID_2_)" fill="#FFFFFF" points="234.9,379.8 424,194.1 617.1,290.1 	"/>
	<polygon clip-path="url(#SVGID_2_)" fill="none" stroke="#000000" stroke-linecap="round" stroke-miterlimit="10" points="
		234.9,379.8 424,194.1 617.1,290.1 	"/>
	<polygon clip-path="url(#SVGID_2_)" fill="#FFFFFF" points="296.9,567.9 390.6,386.9 475.8,562.7 	"/>
	<polygon clip-path="url(#SVGID_2_)" fill="none" stroke="#000000" stroke-linecap="round" stroke-miterlimit="10" points="
		296.9,567.9 390.6,386.9 475.8,562.7 	"/>
	<polygon clip-path="url(#SVGID_2_)" fill="#FFFFFF" points="72.3,443.9 264.6,508.4 216.7,602 	"/>
	<polygon clip-path="url(#SVGID_2_)" fill="none" stroke="#000000" stroke-linecap="round" stroke-miterlimit="10" points="
		72.3,443.9 264.6,508.4 216.7,602 	"/>
	<polygon clip-path="url(#SVGID_2_)" fill="#FFFFFF" points="223.1,535.4 299.1,673.1 156.3,647.3 	"/>
	<polygon clip-path="url(#SVGID_2_)" fill="none" stroke="#000000" stroke-linecap="round" stroke-miterlimit="10" points="
		223.1,535.4 299.1,673.1 156.3,647.3 	"/>
	<polygon clip-path="url(#SVGID_2_)" fill="#FFFFFF" points="391,579.8 427.5,749.8 269,648.2 	"/>
	<polygon clip-path="url(#SVGID_2_)" fill="none" stroke="#000000" stroke-linecap="round" stroke-miterlimit="10" points="
		391,579.8 427.5,749.8 269,648.2 	"/>
	<polygon clip-path="url(#SVGID_2_)" fill="#FFFFFF" points="496.7,743.9 662.2,596.5 752.2,739.7 	"/>
	<polygon clip-path="url(#SVGID_2_)" fill="none" stroke="#000000" stroke-linecap="round" stroke-miterlimit="10" points="
		496.7,743.9 662.2,596.5 752.2,739.7 	"/>
	<polygon clip-path="url(#SVGID_2_)" fill="#FFFFFF" points="499.7,701.5 398.4,540.2 610.5,601 	"/>
	<polygon clip-path="url(#SVGID_2_)" fill="none" stroke="#000000" stroke-linecap="round" stroke-miterlimit="10" points="
		499.7,701.5 398.4,540.2 610.5,601 	"/>
	<polygon clip-path="url(#SVGID_2_)" fill="#FFFFFF" points="581.8,633.5 796,600 837.4,703.7 	"/>
	<polygon clip-path="url(#SVGID_2_)" fill="none" stroke="#000000" stroke-linecap="round" stroke-miterlimit="10" points="
		581.8,633.5 796,600 837.4,703.7 	"/>
	<polygon clip-path="url(#SVGID_2_)" fill="#FFFFFF" points="512.8,410.1 762.9,481.5 613.8,552.3 	"/>
	<polygon clip-path="url(#SVGID_2_)" fill="none" stroke="#000000" stroke-linecap="round" stroke-miterlimit="10" points="
		512.8,410.1 762.9,481.5 613.8,552.3 	"/>
	<polygon clip-path="url(#SVGID_2_)" fill="#FFFFFF" points="454.1,452 422.9,260.2 614.4,361.4 	"/>
	<polygon clip-path="url(#SVGID_2_)" fill="none" stroke="#000000" stroke-linecap="round" stroke-miterlimit="10" points="
		454.1,452 422.9,260.2 614.4,361.4 	"/>
	<polygon clip-path="url(#SVGID_2_)" fill="#FFFFFF" points="450.8,504 640,280.4 816.9,400.7 	"/>
	<polygon clip-path="url(#SVGID_2_)" fill="none" stroke="#000000" stroke-linecap="round" stroke-miterlimit="10" points="
		450.8,504 640,280.4 816.9,400.7 	"/>
	<polygon clip-path="url(#SVGID_2_)" fill="#FFFFFF" points="489,413.3 608.6,239.8 612.8,467 	"/>
	<polygon clip-path="url(#SVGID_2_)" fill="none" stroke="#000000" stroke-linecap="round" stroke-miterlimit="10" points="
		489,413.3 608.6,239.8 612.8,467 	"/>
	<polygon clip-path="url(#SVGID_2_)" fill="#FFFFFF" points="275.5,380.8 300.2,170.5 380.7,394.1 	"/>
	<polygon clip-path="url(#SVGID_2_)" fill="none" stroke="#000000" stroke-linecap="round" stroke-miterlimit="10" points="
		275.5,380.8 300.2,170.5 380.7,394.1 	"/>
	<polygon clip-path="url(#SVGID_2_)" fill="#FFFFFF" points="191.9,462.6 147.4,306.7 315.5,477.5 	"/>
	<polygon clip-path="url(#SVGID_2_)" fill="none" stroke="#000000" stroke-linecap="round" stroke-miterlimit="10" points="
		191.9,462.6 147.4,306.7 315.5,477.5 	"/>
	<polygon clip-path="url(#SVGID_2_)" fill="#FFFFFF" points="353.9,523.6 299.9,545.6 432,526.2 	"/>
	<polygon clip-path="url(#SVGID_2_)" fill="none" stroke="#000000" stroke-linecap="round" stroke-miterlimit="10" points="
		353.9,523.6 299.9,545.6 432,526.2 	"/>
	<polygon clip-path="url(#SVGID_2_)" fill="#FFFFFF" points="248.7,503 168.8,549.5 302,566.2 	"/>
	<polygon clip-path="url(#SVGID_2_)" fill="none" stroke="#000000" stroke-linecap="round" stroke-miterlimit="10" points="
		248.7,503 168.8,549.5 302,566.2 	"/>
	<polygon clip-path="url(#SVGID_2_)" fill="#FFFFFF" points="430.1,451.7 377.6,434.2 445.8,466.9 	"/>
	<polygon clip-path="url(#SVGID_2_)" fill="none" stroke="#000000" stroke-linecap="round" stroke-miterlimit="10" points="
		430.1,451.7 377.6,434.2 445.8,466.9 	"/>
	<polygon clip-path="url(#SVGID_2_)" fill="#FFFFFF" points="238.3,376 270.9,443.1 352.5,421.8 	"/>
	<polygon clip-path="url(#SVGID_2_)" fill="none" stroke="#000000" stroke-linecap="round" stroke-miterlimit="10" points="
		238.3,376 270.9,443.1 352.5,421.8 	"/>
	<polygon clip-path="url(#SVGID_2_)" fill="#FFFFFF" points="228.8,367.4 338.1,334.5 430.5,421.3 	"/>
	<polygon clip-path="url(#SVGID_2_)" fill="none" stroke="#000000" stroke-linecap="round" stroke-miterlimit="10" points="
		228.8,367.4 338.1,334.5 430.5,421.3 	"/>
	<polygon clip-path="url(#SVGID_2_)" fill="#FFFFFF" points="164.6,463.7 150.4,488.8 228.4,464 	"/>
	<polygon clip-path="url(#SVGID_2_)" fill="none" stroke="#000000" stroke-linecap="round" stroke-miterlimit="10" points="
		164.6,463.7 150.4,488.8 228.4,464 	"/>
	<polygon clip-path="url(#SVGID_2_)" fill="#FFFFFF" points="257.4,444.9 249.5,467.8 308.6,445.8 	"/>
	<polygon clip-path="url(#SVGID_2_)" fill="none" stroke="#000000" stroke-linecap="round" stroke-miterlimit="10" points="
		257.4,444.9 249.5,467.8 308.6,445.8 	"/>
	<polygon clip-path="url(#SVGID_2_)" fill="#FFFFFF" points="221.7,521.2 394.4,534.7 340.3,609 	"/>
	<polygon clip-path="url(#SVGID_2_)" fill="none" stroke="#000000" stroke-linecap="round" stroke-miterlimit="10" points="
		221.7,521.2 394.4,534.7 340.3,609 	"/>
	<polygon clip-path="url(#SVGID_2_)" fill="#FFFFFF" points="234,601 235.2,449.9 369.3,533.2 	"/>
	<polygon clip-path="url(#SVGID_2_)" fill="none" stroke="#000000" stroke-linecap="round" stroke-miterlimit="10" points="234,601 
		235.2,449.9 369.3,533.2 	"/>
	<polygon clip-path="url(#SVGID_2_)" fill="#FFFFFF" points="229.2,574.3 330.9,505.9 387.9,569.3 	"/>
	<polygon clip-path="url(#SVGID_2_)" fill="none" stroke="#000000" stroke-linecap="round" stroke-miterlimit="10" points="
		229.2,574.3 330.9,505.9 387.9,569.3 	"/>
	<polygon clip-path="url(#SVGID_2_)" fill="#FFFFFF" points="158.8,579.8 194.9,434.4 288.9,568 	"/>
	<polygon clip-path="url(#SVGID_2_)" fill="none" stroke="#000000" stroke-linecap="round" stroke-miterlimit="10" points="
		158.8,579.8 194.9,434.4 288.9,568 	"/>
	<polygon clip-path="url(#SVGID_2_)" fill="#FFFFFF" points="93.9,579.8 130.7,433.8 221.2,535.2 	"/>
	<polygon clip-path="url(#SVGID_2_)" fill="none" stroke="#000000" stroke-linecap="round" stroke-miterlimit="10" points="
		93.9,579.8 130.7,433.8 221.2,535.2 	"/>
	<polygon clip-path="url(#SVGID_2_)" fill="#FFFFFF" points="37.5,575.4 64.6,429.7 170.6,517.7 	"/>
	<polygon clip-path="url(#SVGID_2_)" fill="none" stroke="#000000" stroke-linecap="round" stroke-miterlimit="10" points="
		37.5,575.4 64.6,429.7 170.6,517.7 	"/>
	<polygon clip-path="url(#SVGID_2_)" fill="#FFFFFF" points="-29,574 -14.4,417.6 79.6,482.2 	"/>
	<polygon clip-path="url(#SVGID_2_)" fill="none" stroke="#000000" stroke-linecap="round" stroke-miterlimit="10" points="-29,574 
		-14.4,417.6 79.6,482.2 	"/>
</g>
</svg>
