<?xml version="1.0" encoding="utf-8"?>
<!-- Generator: Adobe Illustrator 18.1.1, SVG Export Plug-In . SVG Version: 6.00 Build 0)  -->
<svg version="1.1" id="Layer_1" xmlns="http://www.w3.org/2000/svg" xmlns:xlink="http://www.w3.org/1999/xlink" x="0px" y="0px"
	 viewBox="-149 151 200 200" style="enable-background:new -149 151 200 200;" xml:space="preserve">
<style type="text/css">
	.st0{fill:#999999;}
	.st1{fill:#CCCCCC;}
	.st2{fill:#666666;}
</style>
<g>
	<path class="st0" d="M-135.6,160.2c-0.8-0.5-1.2-0.8-1.4-0.9c0.1,7,0.3,19.6,0.8,37.8c0.5,20.1,0.8,32.4,0.8,36.9
		c0,8.9-0.4,19.6-1.1,32.3c-0.8,12.7-1.2,22.9-1.2,30.6c0,4.1-0.6,18.9-1.9,44.4c0.5-0.9,1.1-2.1,2.1-3.5c1.3-2,2.4-3.5,3.6-4.6
		c2.5-2.3,5-4.7,7.7-7.4c5.3-5.2,9.5-9.9,12.7-14c5.3-6.8,14.1-15.3,26.2-25.5c6.1-5.2,12.2-10.2,18.3-15c-3.6-2.1-6.3-5.6-8.3-10.6
		c-1.6-3.9-2.4-7.7-2.4-11.2c0-4,1-8.4,3.1-13.3c3.1-7.5,8-13.5,14.7-17.9c-0.6-0.5-5.1-4.3-13.5-11.3c-10.6-8.9-21.4-18-32.7-27.1
		C-116.2,173.4-125.3,166.8-135.6,160.2"/>
	<path class="st0" d="M41.2,169.4c0.4-4.7,0.2-8.3-0.4-10.6c-4.5,4-10.2,8.8-17.1,14.4c-8.8,7.2-15.5,12.7-20.1,16.6
		c-9.7,8.3-19.4,18.1-29.1,29.5l0.1,0.1c0.4-0.3,0.7-0.6,1-0.6c-0.2,0.1-0.6,0.3-1,0.6c2.8,3.2,5.4,6.8,7.7,10.9
		c3.7,6.5,5.5,12.5,5.5,17.9c0,3.3-0.7,6.7-2.1,10.2c-1.8,4.4-4.3,7.6-7.5,9.8c3.6,4.5,5.8,7.1,6.3,7.7c6,6.3,16.1,15.3,30.1,27.1
		c3.5,2.9,11.9,10.8,25.3,23.6c1.6,1.4,2.9,3,3.9,4.8c0.6,1,1.8,3.2,3.6,6.7c0-1.3-0.6-4.9-1.8-10.6c-1.3-5.8-2-9.7-2.3-11.8
		c-0.6-3.5-0.9-7.2-0.9-11.2l-1-45.1c0-2.1,0.3-7,0.8-14.5c0.5-7.5,0.8-15.5,0.8-24c0-4-0.4-10.6-1.2-19.8
		c-0.9-9.2-1.3-17.3-1.3-24.2C40.8,174.4,41,171.9,41.2,169.4z"/>
</g>
<path class="st1" d="M-31.2,216.4c-3.1-1.2-6.4-2-9.8-2.5c-9.3-1.3-16.3,0.1-21.2,4.3c-6.7,4.4-11.6,10.4-14.7,17.9
	c-2,4.9-3.1,9.3-3.1,13.3c0,3.5,0.8,7.3,2.4,11.2c2,5,4.8,8.5,8.3,10.6c3,2.3,9.7,3.5,19.9,3.9c9.5,0.3,15.8-0.2,18.7-1.5
	c1.5-0.7,2.9-1.4,4.1-2.1c1.1-0.7,2.7-1.8,4.7-3.3c3.3-2.1,5.8-5.4,7.5-9.8c1.4-3.5,2.1-6.9,2.1-10.2c0-5.5-1.8-11.4-5.5-17.9
	c-2.3-4.1-4.9-7.7-7.7-10.9l-0.1-0.1C-26.5,218.5-28.3,217.5-31.2,216.4z"/>
<g>
	<path class="st2" d="M47.5,338.1c-1.8-3.5-3-5.7-3.6-6.7c-1-1.7-2.3-3.3-3.9-4.8c-13.4-12.9-21.8-20.7-25.3-23.6
		c-14.1-11.8-24.1-20.8-30.1-27.1c-0.6-0.6-2.7-3.2-6.3-7.7c-2,1.5-3.6,2.6-4.7,3.3c-1.2,0.7-2.6,1.4-4.1,2.1
		c-2.9,1.3-9.1,1.8-18.7,1.5c-10.3-0.3-16.9-1.6-19.9-3.9c-6.1,4.8-12.2,9.8-18.3,15c-12.1,10.2-20.9,18.8-26.2,25.5
		c-3.2,4.1-7.4,8.7-12.7,14c-2.7,2.6-5.2,5.1-7.7,7.4c-1.1,1.1-2.3,2.6-3.6,4.6c-0.9,1.4-1.6,2.5-2.1,3.5c0.1-0.2,1.6-0.1,4.4,0.3
		c1.6,0.2,4.1,0.5,7.4,1l2.1,0.2c1.7,0.1,3.2,0.1,4.6,0.1c0.9,0,3.6,0.1,8.1,0.4s6.9,0.4,7.1,0.4c13.3,0,28.2-0.4,44.8-1.1
		c30.1-1.3,52.1-2.1,66-2.6c12.7-0.4,22.8-0.8,30.2-1.3C40.5,338.3,44.7,338.1,47.5,338.1"/>
	<path class="st2" d="M40.8,158.9c-0.9-0.5-2.6-1-5.1-1.5c-2.9-0.6-5.4-0.8-7.6-0.8c-1.8,0-7.3,0.3-16.5,0.9
		c-9.2,0.6-16.5,0.9-21.9,0.9c-6,0-17.2,0.4-33.7,1.2c-16.5,0.7-30.8,1.1-42.8,1.1l-18.6-0.8c-9.8-0.4-20.3-0.6-31.6-0.7v0.1
		c0.2,0.2,0.7,0.5,1.4,0.9c10.3,6.6,19.4,13.2,27.2,19.6c11.2,9.2,22.1,18.2,32.7,27.1c8.4,7,12.9,10.8,13.5,11.3
		c4.9-4.2,12-5.6,21.2-4.3c3.4,0.5,6.7,1.3,9.8,2.5c2.8,1,4.7,2,5.7,2.9c9.8-11.4,19.5-21.2,29.1-29.5c4.6-3.9,11.3-9.4,20.1-16.6
		C30.6,167.7,36.3,162.9,40.8,158.9z"/>
</g>
</svg>
