<?xml version="1.0" encoding="utf-8"?>
<!-- Generator: Adobe Illustrator 18.1.1, SVG Export Plug-In . SVG Version: 6.00 Build 0)  -->
<svg version="1.1" id="Layer_1" xmlns="http://www.w3.org/2000/svg" xmlns:xlink="http://www.w3.org/1999/xlink" x="0px" y="0px"
	 viewBox="0 0 500 500" style="enable-background:new 0 0 500 500;" xml:space="preserve">
<style type="text/css">
	.st0{fill:#676767;}
	.st1{fill:#989898;}
	.st2{fill:#CDCCCC;}
	.st3{fill:#010101;}
</style>
<path class="st0" d="M481.5,249.2c0-63.9-22.6-118.4-67.8-163.5C368.6,40.5,314.1,18,250.2,18S131.9,40.5,86.7,85.7
	C41.6,130.8,19,185.3,19,249.2s22.6,118.4,67.7,163.5c45.2,45.2,99.7,67.8,163.6,67.8c63.9,0,118.4-22.6,163.5-67.8
	C458.9,367.6,481.5,313.1,481.5,249.2 M470.2,263c0,51.6-18.2,95.6-54.7,132.1c-36.5,36.5-80.5,54.7-132.1,54.7
	s-95.6-18.2-132.1-54.7c-36.5-36.5-54.7-80.5-54.7-132.1s18.2-95.6,54.7-132.1s80.5-54.7,132.1-54.7s95.6,18.2,132.1,54.7
	C452,167.3,470.2,211.4,470.2,263 M412,155.1c-18.5-18.5-40.8-27.7-67-27.7s-48.5,9.3-67,27.7c-18.5,18.5-27.8,40.9-27.8,67.1
	s9.2,48.5,27.8,67c18.5,18.5,40.9,27.8,67,27.8s48.5-9.3,67-27.8c18.5-18.5,27.8-40.8,27.8-67S430.6,173.7,412,155.1 M352.7,156.1
	c20.9,0,38.7,7.4,53.5,22.2c14.8,14.8,22.2,32.6,22.2,53.6s-7.4,38.7-22.2,53.5c-14.8,14.8-32.6,22.2-53.5,22.2s-38.8-7.4-53.6-22.2
	c-14.8-14.8-22.1-32.6-22.1-53.5s7.4-38.8,22.1-53.6C313.9,163.5,331.8,156.1,352.7,156.1 M382.6,186.9c-7.6,0-14.1,2.7-19.5,8.1
	c-5.4,5.4-8.1,11.9-8.1,19.6s2.7,14.1,8.1,19.5c5.4,5.4,11.9,8.1,19.5,8.1c7.6,0,14.2-2.7,19.6-8.1c5.4-5.4,8.1-11.9,8.1-19.5
	c0-7.6-2.7-14.2-8.1-19.6S390.3,186.9,382.6,186.9z"/>
<path class="st1" d="M415.5,395c36.5-36.5,54.7-80.5,54.7-132.1s-18.2-95.6-54.7-132.1c-36.5-36.5-80.5-54.7-132.1-54.7
	s-95.6,18.2-132.1,54.7S96.7,211.4,96.7,263s18.2,95.6,54.7,132.1c36.5,36.5,80.5,54.7,132.1,54.7S379.1,431.5,415.5,395
	 M458.7,254.6c0,39.4-13.9,73.1-41.8,100.9c-27.9,27.9-61.5,41.8-100.9,41.8s-73.1-13.9-101-41.8s-41.8-61.5-41.8-100.9
	s13.9-73.1,41.8-101s61.5-41.8,101-41.8s73.1,13.9,100.9,41.8C444.8,181.5,458.7,215.2,458.7,254.6 M401.5,182.9
	C393.6,175,384,171,372.8,171s-20.9,4-28.9,11.9c-7.9,8-11.9,17.6-11.9,28.9s4,20.9,11.9,28.8c8,8,17.6,11.9,28.9,11.9
	s20.9-4,28.8-11.9c8-7.9,12-17.5,12-28.8S409.5,190.9,401.5,182.9 M363.1,195.1c5.4-5.4,11.9-8.1,19.5-8.1c7.6,0,14.2,2.7,19.6,8.1
	s8.1,11.9,8.1,19.6c0,7.6-2.7,14.1-8.1,19.5c-5.4,5.4-11.9,8.1-19.6,8.1c-7.6,0-14.1-2.7-19.5-8.1c-5.4-5.4-8.1-11.9-8.1-19.5
	S357.7,200.4,363.1,195.1z"/>
<path class="st2" d="M416.9,355.5c27.9-27.9,41.8-61.5,41.8-100.9c0-39.4-13.9-73.1-41.8-101c-27.9-27.9-61.5-41.8-100.9-41.8
	s-73.1,13.9-101,41.8s-41.8,61.5-41.8,101s13.9,73.1,41.8,100.9s61.5,41.8,101,41.8S389,383.4,416.9,355.5 M345,127.4
	c26.2,0,48.5,9.3,67,27.7c18.5,18.5,27.8,40.9,27.8,67.1s-9.3,48.5-27.8,67c-18.5,18.5-40.8,27.8-67,27.8s-48.5-9.3-67-27.8
	c-18.5-18.5-27.8-40.8-27.8-67s9.2-48.5,27.8-67.1C296.5,136.7,318.9,127.4,345,127.4z"/>
<path class="st3" d="M406.2,178.3c-14.8-14.8-32.6-22.2-53.5-22.2s-38.8,7.4-53.6,22.2c-14.8,14.8-22.1,32.6-22.1,53.6
	s7.4,38.7,22.1,53.5c14.8,14.8,32.7,22.2,53.6,22.2s38.7-7.4,53.5-22.2c14.8-14.8,22.2-32.6,22.2-53.5S421,193.1,406.2,178.3
	 M372.8,171c11.3,0,20.9,4,28.8,11.9c8,8,12,17.6,12,28.9s-4,20.9-12,28.8c-7.9,8-17.5,11.9-28.8,11.9s-20.9-4-28.9-11.9
	C336,232.6,332,223,332,211.8s4-20.9,11.9-28.9C351.9,175,361.5,171,372.8,171z"/>
</svg>
