<?xml version="1.0" encoding="utf-8"?>
<!-- Generator: Adobe Illustrator 18.1.1, SVG Export Plug-In . SVG Version: 6.00 Build 0)  -->
<svg version="1.1" id="Layer_1" xmlns="http://www.w3.org/2000/svg" xmlns:xlink="http://www.w3.org/1999/xlink" x="0px" y="0px"
	 viewBox="0 0 200 200" style="enable-background:new 0 0 200 200;" xml:space="preserve">
<style type="text/css">
	.st0{fill:#010101;}
	.st1{fill:#333333;}
	.st2{fill:#676767;}
	.st3{fill:#CDCCCC;}
	.st4{fill:#989898;}
</style>
<path class="st0" d="M98.7,59.7c-1.8,0.7-3,1-3.6,1L93.6,61c-7.3,5.3-13,12-17.3,20.3c-4,7.7-5.9,15.2-5.9,22.7s2.8,13.6,8.5,18.5
	c6.4,5.5,15.2,8.2,26.6,8.2c2.9,0,6.3-1.2,10.4-3.7c4.5-2.7,9.9-7.1,16.3-13.1c1.3-1.2,2.7-3.5,4.2-6.7c1.8-4,2.8-7.9,2.8-11.5
	c0-9.4-3.4-17.9-10.1-25.4c-7-7.9-15.3-11.9-24.9-11.8C102.3,58.6,100.5,59,98.7,59.7 M89,92.5c0-6,2.3-10.5,6.8-13.5
	c3.4-2.2,7.2-3.3,11.5-3.3c2,0,4.1,0.9,6.2,2.7c2.8,2.4,4.3,5.7,4.2,9.9c0,2.2-0.4,4.2-1.3,6.1c-0.8,1.9-1.9,3.2-3.1,3.9
	c-2.2,1.6-3.9,2.9-5.2,3.7c-2.2,1.5-4.2,2.2-6.1,2.2c-3.8,0-6.8-0.8-9-2.3C90.4,100,89,96.8,89,92.5z"/>
<path class="st1" d="M95.8,79c-4.6,3-6.8,7.5-6.8,13.5c0,4.3,1.4,7.5,4.2,9.4c2.2,1.6,5.2,2.3,9,2.3c1.8,0,3.8-0.7,6.1-2.2
	c1.3-0.8,3-2.1,5.2-3.7c1.2-0.8,2.3-2.1,3.1-3.9c0.9-1.9,1.3-3.9,1.3-6.1c0-4.2-1.4-7.5-4.2-9.9c-2.1-1.8-4.2-2.7-6.2-2.7
	C103,75.7,99.2,76.8,95.8,79z"/>
<path class="st2" d="M177.9,9.4l-0.6-0.1c1.1,0.6,1.7,1.9,1.7,3.9c0,0.4-0.9,2.8-2.7,7c-1.7,4.1-2.4,7.3-2.1,9.7
	c0.2,1.7,0.1,3.7-0.5,6c-0.6,2.5-1.6,4.3-2.9,5.3c-1.2,0.9-3.9,2.1-8.1,3.5c-4.3,1.4-6.6,2.2-6.9,2.4c-2,1.8-3.6,3-4.6,3.7
	c-1.7,1.2-3.6,1.8-5.8,1.8c-0.6,0-2.7-0.6-6.2-2c-3.5-1.3-6.2-2-7.9-2c-4.2,0-7.7,1.1-10.2,3.3c-1.8,2.3-2.8,3.5-3,3.6
	c3-0.6,7.4,1.6,13.1,6.8c5.6,5.1,9.2,9.9,10.6,14.4c0.7,2.2,1.1,5.6,1.2,10.3c0,1.2,0.3,2,0.7,2.5c0.5,0.5,1.5,0.8,2.9,0.8
	c1.1,0,2.6-0.8,4.6-2.3c2.8-2.2,4.2-4.8,4.4-8.1c0.2-3.7,1-7.3,2.4-10.7c1.7-4.1,4.1-6.9,6.9-8.6c1.6-0.9,5.9-2.4,13.1-4.6
	c6.4-2.4,9.6-5,9.6-7.9c0-2.3-0.9-4.3-2.7-6c-1.8-1.7-2.7-4-2.7-7c0-1.9,0.3-3.9,0.9-6c0.6-2.3,1-4.1,1.1-5.5c0.1-1.7,0.2-4,0.2-6.8
	c0-1.4-0.6-2.8-1.8-4.1C181.3,11.2,179.7,10.2,177.9,9.4 M29.1,43.5L28,44c-4,1.5-7.5,4.7-10.6,9.8c-2.9,4.8-4.4,9.3-4.4,13.5
	c0,3.3,1.8,9.1,5.2,17.3c3.5,8.2,5.2,14.1,5.2,17.7c0,3.1-1.9,10.2-5.9,21.4s-5.8,18.5-5.8,22.1c0,3,1,6,3.1,9
	c2.9,4.4,7,6.6,12.3,6.6c5.8,0,10.7-2.3,14.5-6.9c2.8-3.4,5.6-8.8,8.4-16.4c2.4-6.6,3.9-10.5,4.7-11.8c3.1-5.6,7-8.6,11.9-9l1.5,0.2
	c-2-2.9-3.4-6.1-4.2-9.5c-0.6-2.5-0.9-5.3-0.9-8.4c0-10.5,3.6-18.9,10.8-25.3c-2.5,0.1-4.7-0.2-6.8-1c-2.2-0.7-4.2-1.1-6.1-1.1
	c-3.3,0-6.3,1.6-9,4.7c-3.3,3.7-4.6,8.5-3.9,14.4c0.7,6.2-0.3,12.4-3,18.7c-2.7,6.2-5.7,9.2-9,9.2c-1.3,0-2.4-0.3-3.3-0.8
	c-1.5-0.8-2.2-2.2-2.2-4.2c0-2.8,0.7-7.7,2.2-14.7c1.5-7,2.2-10.8,2.2-11.3c0-1.5-0.6-3.6-1.7-6.4c-1-2.4-1.7-3.8-2.1-4.3
	c-4-3.9-6.6-6.5-8-7.8c-2-2.1-3-3.8-3-5.1c0-2.8,0.1-4.8,0.3-6c0.5-2.4,1.6-5.5,3.4-9.1c0.4-0.8,1.3-2,2.6-3.5
	C27.6,44.8,28.5,44,29.1,43.5z"/>
<path class="st3" d="M71.7,123.6c-0.3-0.5-0.4-0.8-0.5-0.7c-0.3,0.3-0.6,0.7-0.8,1.2c-0.7,1.9-1,3.6-1,4.8c0,8.8,3.1,14.5,9.3,17.3
	c1.6,0.7,3.7,1.5,6.4,2.5c1.9,1,2.9,2.4,2.9,4.2c0,2.2-0.3,4.1-0.9,5.7c-0.7,1.8-1.8,3.3-3.4,4.6c-1.5,1.2-4.9,1.9-10.1,2.1
	c-5.6,0.2-8.6,0.4-9,0.6c-5.5,2.4-10.7,6.5-15.6,12.1c-1.9,2.2-3.6,3.7-5,4.5c-2,1.2-4.5,1.8-7.5,1.8c-2.4,0-4.1-0.3-5.1-0.9
	c-0.9-0.6-1.6-1.7-2-3.4c-0.2,0.4-0.3,0.9-0.4,1.3c0,4,1.1,7.1,3.2,9.1c2,1.8,4.7,2.7,8.2,2.8c2.5,0,4.6-0.5,6.2-1.4
	c0.9-0.5,2.3-1.7,4.2-3.6c4.1-4,9.3-6.7,15.8-8.2s12.4-2.3,17.9-2.5c4.1-0.1,6.5-0.4,7.2-0.8c0.5-0.3,1.5-1.1,3-2.2
	c1.5-1.2,2.3-2.1,2.6-2.5c1.2-1.7,2.5-4.7,3.9-9c1.2-3.7,1.8-5.8,1.8-6.2c0-1.5-0.2-3.3-0.7-5.3c-0.5-2.1-0.7-3.5-0.7-4.3
	c0-0.7,0.1-1.5,0.2-2.6c0.2-1.3,0.4-2.1,0.7-2.5c3.1-4.5,5.1-7.3,6.1-8.4c-0.9,0.3-1.6,0.5-2,0.7c-0.8,0.2-1.4,0.3-1.8,0.3
	c-6.1,0-12.3-0.7-18.6-2c-6.6-1.4-10.7-3-12.2-4.8C73.2,126.1,72.3,124.7,71.7,123.6z"/>
<path class="st4" d="M119.3,7.4l-0.7-0.7c0,1.5,0.2,2.6,0.5,3.4c0.4,0.8,0.6,1.6,0.6,2.5c0,1.5-0.9,2.8-2.8,4c-1.6,1-3,1.5-4.2,1.5
	c-1,0-1.9-0.1-2.7-0.4c-1.3-0.4-3.9-1.6-7.8-3.5c-1.4-0.7-4.2-1.4-8.3-2.1c-3.7-0.7-6.1-1.1-7.2-1.1c-9.6,0-17.6,5-24.1,15.1
	c-2.5,3.9-4.5,8.1-5.9,12.6c-1.3,4.1-2,7.7-2,10.7c0,5.4,2.5,10,7.5,13.7c2.6,2,6.9,4.1,12.7,6.4c1.1,0.4,2.3-0.3,3.5-2.3
	c0.7-1.1,1.6-2.7,2.8-4.9c1.5-3,4.3-5,8.4-6.2c3.4-1,7-1.4,11-1.3c1,0,1.6-0.1,1.9-0.4c0.3-0.3,0.5-1.1,0.5-2.3c0-1.4-2.3-3.8-7-7
	c-4.7-3.3-7.1-5.7-7.1-7.4c0-1.6,0.7-3.4,2.2-5.3c1.8-2.4,4.1-3.6,6.8-3.6c3.5,0,6.7,1.1,9.5,3.4c2.8,2.3,5.3,3.5,7.3,3.5
	c3.7,0,6.6-1.4,8.8-4.1c1.9-2.3,2.8-4.8,2.8-7.4c0-2.2-0.9-5.2-2.6-9.1C122.2,11.1,120.7,8.7,119.3,7.4 M185.1,114.7
	c0-3.7-2.1-6.6-6.4-8.7c-4-1.9-9.6-2.9-16.6-3c-2.1,0-4.7-1-8-3c-3.2-2-5.4-2.9-6.4-2.9c-1.4,0.1-2.7,0.2-3.8,0.2
	c0,0.1,0,0.3,0.2,0.7c0.2,0.5,0.2,0.9,0.2,1.2c0,2.4-0.6,4.7-1.8,7.1c-0.3,0.6-2.2,3.8-5.6,9.4c-1.6,2.7-5.3,6-10.9,9.8
	c-2.9,1.9-6.2,4.2-10,6.7c0.8,0.3,2.6,1,5.4,2.1c3.4,1,7.7,1.5,12.9,1.5c3.1,0,6.6-1,10.4-2.9c3.9-2,6.1-2.9,6.6-2.9
	c2.2,0,4.1,0.9,5.5,2.6c1.3,1.6,1.9,3.2,1.9,5.1c0,0.1-0.3,0.9-0.9,2.4c-0.6,1.8-0.9,3.2-0.9,4.1c0,2.6,0.6,4.5,1.7,5.7
	c0.7,0.8,1.9,1.4,3.6,1.8c1.8,0.5,3,1,3.6,1.4c1.1,0.9,1.6,2.4,1.6,4.6c0,2.6-1.3,5.1-4,7.6c-2.3,2.2-4.3,3.2-5.9,3.2
	c-0.5,0-2-0.8-4.5-2.5c-2.7-1.8-4.4-2.9-5-3.3c-1.6-1.1-2.8-1.9-3.6-2.3c-1.4-0.7-3.3-1-5.7-1c-4.4,0-7.6,0.6-9.8,1.9
	c-2.3,1.4-3.5,3.7-3.4,6.9c0,2.2,0.4,4,1.2,5.6c0.4,0.8,0.9,1.5,1.3,2.1c0-0.9,0.5-2.3,1.5-4.1c1.4-2.5,3.2-3.8,5.4-3.8
	c2.5,0,5,1.2,7.6,3.6c1.4,1.3,3,2.8,4.9,4.6c2.2,1.2,4.5,2.6,6.8,4c1.5,0.8,3.1,1.2,4.8,1.2c2.5,0,5.2-0.4,8.2-1.1
	c3.5-0.9,6.6-2.2,9.4-3.9c1.3-0.7,2.4-2.2,3.5-4.5c1.7-3.5,2.5-7.9,2.5-13.2c0-5.2-1.6-8.7-4.8-10.5c-1.8-1-2.9-1.8-3.3-2.3
	c-1-1.2-1.5-2.9-1.5-5.1c0-1.3,0.6-2.9,1.9-4.9c0.8-1.2,2.1-3.1,4.1-5.9C183.1,124.2,185.1,119.2,185.1,114.7z"/>
</svg>
