<?xml version="1.0" encoding="utf-8"?>
<!-- Generator: Adobe Illustrator 18.1.1, SVG Export Plug-In . SVG Version: 6.00 Build 0)  -->
<svg version="1.1" id="Layer_1" xmlns="http://www.w3.org/2000/svg" xmlns:xlink="http://www.w3.org/1999/xlink" x="0px" y="0px"
	 width="78.1px" height="45.4px" viewBox="0 0 78.1 45.4" enable-background="new 0 0 78.1 45.4" xml:space="preserve">
<path fill="#333333" d="M77.1,23.7c-0.2-0.5-0.6-0.9-1.2-1.2c-0.6-0.3-1.3-0.5-2-0.6c-0.8-0.1-1.5,0.1-2.2,0.4
	c-0.7,0.3-1.3,0.8-1.8,1.4c0.3,0.1,0.6,0.2,0.9,0.3c1.1,0.4,1.7,1,1.8,2c0.3,1.8,0,3.6-0.8,5.4c0,0.1-0.1,0.2-0.2,0.3
	c0.7,0,1.5-0.1,2.2-0.4c0.7-0.2,1.3-0.4,1.9-0.8c0.4-0.2,0.7-0.5,1-0.9c0.3-0.5,0.5-1,0.6-1.6c0.2-0.7,0.2-1.5,0.2-2.3
	C77.6,25,77.4,24.4,77.1,23.7"/>
<path fill="#333333" d="M6.4,22.4C5.7,22,5,21.9,4.3,22c-0.7,0.1-1.4,0.2-2.1,0.6c-0.5,0.3-0.9,0.7-1.1,1.2c-0.3,0.6-0.5,1.3-0.6,2
	c0,0.8,0,1.6,0.2,2.3c0.1,0.6,0.3,1.1,0.6,1.6c0.3,0.4,0.6,0.8,1,0.9c0.6,0.4,1.2,0.6,2,0.8c0.7,0.2,1.5,0.4,2.2,0.4
	c-0.1-0.1-0.1-0.3-0.1-0.4c-0.8-1.7-1.1-3.5-0.9-5.4c0.1-1,0.8-1.7,1.9-2c0.3-0.1,0.6-0.2,0.9-0.2C7.7,23.1,7.1,22.7,6.4,22.4"/>
<path fill="#333333" d="M35.4,35c0-0.1,0-0.3,0-0.4c-0.1-0.1-0.1-0.1-0.2-0.2c-0.1-0.2-0.4-0.4-0.7-0.5"/>
<path fill="#333333" d="M34.4,34c-0.2,0-0.4-0.1-0.5-0.1c-0.5-0.1-1-0.1-1.5,0c-0.5,0-1,0.2-1.5,0.7c-0.2,0.2-0.4,0.5-0.5,0.8
	c-0.2,0.5-0.3,0.9-0.3,1.4c0,0.4,0.1,0.8,0.2,1.1c0.2,0.4,0.4,0.7,0.8,0.9c0.5,0.3,1.1,0.5,1.7,0.6c1.1,0.1,2.1,0.1,3.1,0
	c0.3,0,0.5-0.1,0.6-0.2c0.3-0.6,0.3-1.2,0.2-1.9c-0.2-0.9-0.6-1.6-1.3-2.1"/>
<path fill="#333333" d="M51.1,25.5c-0.1,0-0.2-0.1-0.3-0.1c-0.8-0.1-1.6-0.2-2.5-0.1c-0.4,0.7-0.6,1.5-0.7,2.2c0,0.5,0,0.9,0.2,1.2
	c0.3,0.4,0.6,0.8,1.1,0.9c0.6,0.3,1.2,0.5,1.9,0.6c0.5,0.1,0.9,0.1,1.4,0c0.4-0.1,0.8-0.2,1-0.6c0.3-0.4,0.5-0.8,0.5-1.3
	c0-0.3-0.1-0.6-0.2-0.8c-0.2-0.4-0.5-0.7-0.8-1c-0.2-0.2-0.5-0.4-0.8-0.6C51.6,25.8,51.4,25.7,51.1,25.5"/>
<path fill="#333333" d="M19.4,27.1c-0.1-0.2-0.3-0.5-0.4-0.8c-0.2-0.1-0.5-0.2-0.8-0.2C17.5,26,16.8,26,16,26c-0.5,0-1,0.2-1.3,0.6
	c-0.4,0.4-0.7,0.8-1,1.2c-0.3,0.4-0.5,0.9-0.6,1.3c-0.1,0.3-0.1,0.5,0,0.8c0.1,0.5,0.2,1,0.5,1.4c0.4,0.7,0.9,1.4,1.5,1.9
	c0.2,0.2,0.4,0.3,0.8,0.2c0.9,0,1.8-0.2,2.6-0.4c1-0.3,1.6-0.9,1.6-2.1c0-0.6,0-1.2-0.1-1.8C19.9,28.5,19.7,27.8,19.4,27.1"/>
<path fill="#5C5C5C" d="M26.8,22.5c-1.2-0.1-2.3-0.2-3.5-0.2c-2.3-0.1-4.7,0-7,0.1c-2.8,0.2-5.5,0.6-8.1,1.4
	c-0.3,0.1-0.6,0.1-0.9,0.2c-1.1,0.4-1.7,1-1.9,2c-0.3,1.8,0,3.6,0.9,5.4c0,0.1,0.1,0.2,0.1,0.4c0.3,0.6,0.8,1.1,1.5,1.5
	c2.2,1.5,4.5,2.9,6.9,4c1.8,0.9,3.6,1.6,5.5,2.1c2.9,0.9,5.8,1.7,8.8,2.6c2.3,0.7,4.7,1.4,7,2.1c1,0.3,2,0.6,3,0.8
	c1-0.2,2-0.4,3-0.8c2.3-0.7,4.7-1.4,7-2.1c2.9-0.9,5.8-1.7,8.8-2.6c1.9-0.5,3.8-1.2,5.6-2.1c2.4-1.1,4.7-2.5,6.8-4
	c0.6-0.4,1.1-0.9,1.4-1.6c0.1-0.1,0.1-0.2,0.2-0.3c0.8-1.7,1.1-3.5,0.8-5.4c-0.1-1-0.8-1.7-1.8-2c-0.3-0.1-0.6-0.2-0.9-0.3
	c-2.6-0.7-5.3-1.2-8.1-1.4c-2.3-0.1-4.7-0.2-7-0.1c-1.2,0-2.3,0.1-3.5,0.2c-2.4,0.2-4.8,0.6-7.2,1.1c-1.5,0.4-3.7,1.1-4.3,1.3
	c-0.1,0-0.2,0-0.3,0l-0.9,0c-0.1,0-0.2,0-0.4-0.1c-1.6-0.5-2.6-0.9-4.3-1.3C31.6,23.1,29.2,22.7,26.8,22.5 M27,25.5
	c0.1,0,0.2-0.1,0.3-0.1c0.8-0.1,1.6-0.2,2.5-0.1c0.4,0.7,0.6,1.5,0.7,2.2c0,0.5,0,0.9-0.2,1.2c-0.3,0.4-0.6,0.8-1.1,0.9
	c-0.6,0.3-1.2,0.5-1.9,0.6c-0.5,0.1-0.9,0.1-1.4,0c-0.4-0.1-0.8-0.2-1-0.6c-0.3-0.4-0.5-0.8-0.5-1.3c0-0.3,0-0.6,0.2-0.8
	c0.2-0.4,0.5-0.7,0.9-1c0.2-0.2,0.5-0.4,0.8-0.6C26.5,25.8,26.7,25.7,27,25.5 M19.2,26.4c0,0-0.1-0.1-0.1-0.1 M19,26.3
	c0.1,0.3,0.3,0.6,0.4,0.8c0.3,0.7,0.5,1.4,0.6,2.1c0.1,0.6,0.1,1.2,0.1,1.8c-0.1,1.1-0.6,1.8-1.6,2.1c-0.9,0.3-1.8,0.4-2.6,0.4
	c-0.3,0-0.6-0.1-0.8-0.2c-0.6-0.5-1.1-1.2-1.5-1.9c-0.2-0.4-0.4-0.9-0.5-1.4c0-0.3,0-0.5,0-0.8c0.1-0.5,0.3-0.9,0.6-1.3
	c0.3-0.4,0.6-0.8,1-1.2C15,26.2,15.5,26,16,26c0.8,0,1.5,0.1,2.2,0.1C18.5,26.1,18.8,26.1,19,26.3 M26,33.3c0,0.1,0,0.2-0.1,0.4
	c0.7,0.8,1,1.8,1,2.9c0,0.2-0.1,0.3-0.3,0.4c-0.7,0.4-1.5,0.6-2.3,0.5c-0.1,0-0.2,0-0.2-0.1c-0.2-0.2-0.3-0.4-0.4-0.6
	c-0.2-0.4-0.4-0.9-0.5-1.4c-0.1-0.3-0.2-0.7-0.2-1.1c0-0.3,0-0.7,0.1-1c0-0.1,0-0.1,0.1-0.2c0.2-0.2,0.5-0.3,0.9-0.2
	c0.2,0,0.4,0.1,0.6,0.1c0.4,0,0.8,0.1,1.1,0.2C25.9,33.1,26,33.2,26,33.3 M62.1,26c0.5,0,1,0.2,1.3,0.6c0.4,0.4,0.7,0.8,1,1.2
	c0.3,0.4,0.5,0.9,0.6,1.3c0.1,0.3,0.1,0.5,0.1,0.8c-0.1,0.5-0.2,1-0.4,1.4c-0.4,0.7-0.9,1.4-1.6,1.9c-0.2,0.2-0.5,0.3-0.8,0.2
	c-0.9,0-1.8-0.2-2.7-0.4c-1-0.3-1.6-0.9-1.7-2.1c0-0.6,0-1.2,0.1-1.8c0.1-0.7,0.3-1.4,0.6-2.1c0.1-0.2,0.3-0.5,0.4-0.8
	c-0.1,0-0.1,0.1-0.2,0.1c-0.2,0.1-0.3,0.2-0.5,0.2c0.1,0,0.3-0.1,0.5-0.2c0,0,0.1-0.1,0.2-0.1c0.2-0.1,0.5-0.2,0.8-0.2
	C60.6,26,61.3,26,62.1,26 M50.8,25.4c0.1,0,0.2,0.1,0.3,0.1c0.3,0.1,0.5,0.3,0.8,0.4c0.3,0.2,0.5,0.4,0.8,0.6c0.3,0.3,0.6,0.6,0.8,1
	c0.2,0.3,0.3,0.6,0.2,0.8c0,0.5-0.2,0.9-0.5,1.3c-0.2,0.3-0.6,0.5-1,0.6c-0.4,0.1-0.9,0.1-1.4,0c-0.7-0.1-1.3-0.2-1.9-0.6
	c-0.4-0.2-0.8-0.5-1.1-0.9c-0.2-0.4-0.3-0.8-0.2-1.2c0-0.7,0.3-1.5,0.7-2.2C49.1,25.2,50,25.3,50.8,25.4 M55.2,33.2
	c0.1,0.3,0.1,0.7,0.1,1c0,0.4-0.1,0.8-0.2,1.1c-0.1,0.5-0.3,1-0.5,1.4c-0.1,0.3-0.2,0.5-0.4,0.6c0,0.1-0.1,0.1-0.2,0.1
	c-0.8,0.1-1.6-0.1-2.3-0.5c-0.2-0.1-0.3-0.2-0.3-0.4c-0.1-1.1,0.2-2.1,1-2.9c-0.1-0.1-0.1-0.2-0.1-0.4c0-0.1,0.1-0.2,0.2-0.3
	c0.3-0.2,0.7-0.3,1.1-0.2c0.2,0,0.4,0,0.7-0.1c0.4,0,0.7,0,0.9,0.2C55.1,33.1,55.2,33.2,55.2,33.2 M41.5,29.9
	c-0.3-0.1-0.5-0.3-0.7-0.5c-0.1-0.1-0.2-0.2-0.2-0.4c0-0.2,0-0.4,0.2-0.5c0.5-0.7,1.2-1.4,1.9-1.9c0.2-0.1,0.4-0.1,0.6,0
	c0.2,0.1,0.3,0.3,0.5,0.5c0.1,0.1,0.2,0.1,0.2,0.1c0.5,0.4,0.6,1,0.5,1.6c0,0.4-0.2,0.7-0.4,1c-0.2,0.2-0.4,0.4-0.7,0.4
	C42.8,30.3,42.1,30.2,41.5,29.9 M34,27.2c0.1,0,0.1-0.1,0.2-0.1c0.2-0.2,0.4-0.3,0.5-0.5c0.2-0.1,0.4-0.1,0.6,0
	c0.7,0.5,1.4,1.2,1.9,1.9c0.1,0.1,0.2,0.3,0.2,0.5c0,0.2,0,0.4-0.2,0.4c-0.2,0.2-0.4,0.4-0.7,0.5c-0.7,0.3-1.4,0.4-2.1,0.3
	c-0.3,0-0.5-0.2-0.7-0.4c-0.2-0.3-0.4-0.6-0.4-1C33.3,28.2,33.5,27.6,34,27.2 M33.9,33.9c0.2,0,0.3,0.1,0.5,0.1
	c0.3,0.1,0.6,0.3,0.7,0.5c0.1,0.1,0.1,0.1,0.2,0.2c0,0.1,0,0.2,0,0.4c0.7,0.5,1.1,1.2,1.3,2.1c0.1,0.7,0.1,1.3-0.2,1.9
	c-0.1,0.1-0.3,0.2-0.6,0.2c-1,0.1-2.1,0.1-3.1,0c-0.6-0.1-1.2-0.3-1.7-0.6c-0.4-0.2-0.6-0.5-0.8-0.9c-0.2-0.3-0.2-0.7-0.2-1.1
	c0-0.5,0.1-1,0.3-1.4c0.1-0.3,0.3-0.5,0.5-0.8c0.4-0.4,0.9-0.6,1.5-0.7C32.8,33.8,33.3,33.8,33.9,33.9 M45.8,33.9
	c0.5,0,1,0.2,1.5,0.7c0.2,0.2,0.4,0.5,0.5,0.8c0.2,0.5,0.3,0.9,0.3,1.4c0,0.4-0.1,0.8-0.2,1.1c-0.2,0.4-0.4,0.7-0.8,0.9
	c-0.5,0.3-1.1,0.5-1.7,0.6c-1.1,0.1-2.1,0.1-3.1,0c-0.3,0-0.5-0.1-0.6-0.2c-0.3-0.6-0.3-1.2-0.2-1.9c0.2-0.9,0.6-1.6,1.2-2.1
	c0-0.1,0.1-0.3,0.1-0.4c0.1-0.1,0.1-0.1,0.2-0.2c0.1-0.2,0.4-0.4,0.7-0.5c0.2,0,0.4-0.1,0.5-0.1C44.8,33.8,45.3,33.8,45.8,33.9z"/>
<path fill="#9E9E9E" d="M42.7,35c-0.7,0.5-1.1,1.2-1.2,2.1c-0.1,0.7-0.1,1.3,0.2,1.9c0.1,0.1,0.3,0.2,0.6,0.2c1,0.1,2.1,0.1,3.1,0
	c0.6-0.1,1.2-0.3,1.7-0.6c0.4-0.2,0.6-0.5,0.8-0.9c0.2-0.3,0.2-0.7,0.2-1.1c0-0.5-0.1-1-0.3-1.4c-0.1-0.3-0.3-0.5-0.5-0.8
	 M47.3,34.5c-0.4-0.4-0.9-0.6-1.5-0.7c-0.5-0.1-1-0.1-1.5,0c-0.2,0-0.3,0.1-0.5,0.1c-0.3,0.1-0.6,0.3-0.7,0.5
	c-0.1,0.1-0.1,0.1-0.2,0.2c0,0.1-0.1,0.2-0.1,0.4 M34.2,27c-0.1,0.1-0.2,0.1-0.2,0.1c-0.5,0.4-0.6,1-0.5,1.6c0,0.4,0.2,0.7,0.4,1
	c0.2,0.2,0.4,0.4,0.7,0.4c0.7,0.1,1.4,0,2.1-0.3c0.3-0.1,0.5-0.3,0.7-0.5c0.1-0.1,0.2-0.2,0.2-0.4c0-0.2,0-0.4-0.2-0.5
	c-0.5-0.7-1.2-1.4-1.9-1.9c-0.2-0.1-0.4-0.1-0.6,0C34.6,26.7,34.4,26.9,34.2,27 M63.4,26.5c-0.3-0.4-0.8-0.6-1.3-0.6
	c-0.8,0-1.5,0.1-2.2,0.1c-0.3,0-0.5,0.1-0.8,0.2c-0.1,0.3-0.3,0.6-0.4,0.8c-0.3,0.7-0.5,1.4-0.6,2.1C58,29.8,58,30.4,58,31
	c0.1,1.1,0.6,1.8,1.7,2.1c0.9,0.3,1.8,0.4,2.7,0.4c0.3,0,0.5-0.1,0.8-0.2c0.6-0.5,1.2-1.2,1.6-1.9c0.2-0.4,0.4-0.9,0.4-1.4
	c0-0.3,0-0.5-0.1-0.8c-0.1-0.5-0.3-0.9-0.6-1.3C64.1,27.3,63.8,26.9,63.4,26.5 M25.9,33.7c0.1-0.1,0.1-0.2,0.1-0.4
	c0-0.1-0.1-0.2-0.2-0.3c-0.3-0.2-0.7-0.3-1.1-0.2c-0.2,0-0.5,0-0.6-0.1c-0.4,0-0.7,0-0.9,0.2C23,33.1,23,33.2,23,33.2
	c-0.1,0.3-0.1,0.7-0.1,1c0,0.4,0.1,0.8,0.2,1.1c0.1,0.5,0.3,1,0.5,1.4c0.1,0.3,0.2,0.5,0.4,0.6c0,0.1,0.1,0.1,0.2,0.1
	c0.8,0.1,1.6-0.1,2.3-0.5c0.2-0.1,0.3-0.2,0.3-0.4C27,35.4,26.6,34.5,25.9,33.7"/>
<path fill="#575757" d="M40.8,29.4c0.2,0.2,0.4,0.4,0.7,0.5c0.7,0.3,1.4,0.4,2.1,0.3c0.3,0,0.5-0.2,0.7-0.4c0.2-0.3,0.4-0.6,0.4-1
	c0.1-0.7,0-1.2-0.5-1.6c-0.1,0-0.1-0.1-0.2-0.1c-0.2-0.2-0.4-0.3-0.5-0.5c-0.2-0.1-0.4-0.1-0.6,0c-0.7,0.5-1.4,1.2-1.9,1.9
	c-0.1,0.1-0.2,0.3-0.2,0.5C40.7,29.2,40.7,29.3,40.8,29.4 M27.4,25.4c-0.1,0-0.2,0.1-0.3,0.1c-0.3,0.1-0.5,0.3-0.8,0.4
	c-0.3,0.2-0.5,0.4-0.8,0.6c-0.3,0.3-0.6,0.6-0.9,1c-0.2,0.3-0.3,0.6-0.2,0.8c0,0.5,0.2,0.9,0.5,1.3c0.2,0.3,0.6,0.5,1,0.6
	c0.4,0.1,0.9,0.1,1.4,0c0.7-0.1,1.3-0.2,1.9-0.6c0.4-0.2,0.8-0.5,1.1-0.9c0.2-0.4,0.3-0.8,0.2-1.2c0-0.7-0.3-1.5-0.7-2.2
	C29,25.2,28.2,25.3,27.4,25.4 M45.6,2.6c-2.2,0.8-4.4,1.8-6.5,2.9c-2.1-1.1-4.3-2.1-6.5-2.9c-2.5-0.9-5.1-1.6-7.8-1.9
	c-1.5-0.2-3-0.2-4.5-0.1c-0.5,0-0.9,0.2-1.2,0.4c-0.4,0.4-0.7,0.9-0.9,1.5c-0.3,0.8-0.4,1.6-0.2,2.3c0.1,0.9,0.5,1.8,1,2.7
	c0.9,1.3,2.1,2.2,3.6,2.8c1.4,0.6,2.9,1.2,4.3,1.8c0.1,0,0.1,0.1,0.2,0.1c2,0.8,4.1,1.5,6.2,2.1c0.6,0.2,1.1,0.4,1.7,0.7
	c0.3,0.2,0.5,0.3,0.9,0.4c0.8,0.3,1.5,0.7,2.2,1.1c0.4,0.2,0.7,0.4,1,0.5c0.3-0.1,0.7-0.3,1-0.5c0.7-0.4,1.5-0.7,2.2-1.1
	c0.3-0.1,0.6-0.2,0.9-0.4c0.6-0.3,1.1-0.5,1.7-0.7c2.1-0.6,4.2-1.3,6.2-2.1c0,0,0.1,0,0.2-0.1c1.5-0.6,2.9-1.2,4.4-1.8
	c1.5-0.6,2.7-1.5,3.5-2.8c0.6-0.9,1-1.8,1.1-2.7c0.1-0.7,0-1.5-0.2-2.3c-0.2-0.6-0.5-1.1-0.9-1.5c-0.3-0.3-0.8-0.4-1.2-0.4
	c-1.5-0.1-3,0-4.4,0.1C50.7,1,48.1,1.6,45.6,2.6 M46.2,6.6c0.1-0.3,0.2-0.5,0.4-0.8c0.4-0.4,0.9-0.8,1.5-1c0.2-0.1,0.5-0.2,0.9-0.3
	c0.1,0.1,0.3,0.2,0.5,0.2c0.1,0,0.2,0.1,0.3,0.1c0.3,0.1,0.5,0.4,0.5,0.7c0.1,0.2,0.1,0.3,0.1,0.4c0,0.5-0.2,0.9-0.4,1.4
	C50,7.6,49.9,7.8,49.8,8c-0.4,0.6-0.9,1-1.6,1c-0.4,0-0.7,0-1-0.1c-0.3-0.1-0.6-0.2-0.7-0.5C46.1,7.9,46,7.3,46.2,6.6 M29.1,4.6
	c0.4,0.1,0.7,0.1,0.9,0.2c0.5,0.2,1,0.6,1.5,1c0.2,0.2,0.3,0.5,0.4,0.8c0.2,0.7,0.1,1.2-0.2,1.8c-0.1,0.3-0.4,0.4-0.7,0.5
	C30.7,8.9,30.3,9,30,9c-0.7,0-1.2-0.4-1.6-1c-0.1-0.2-0.2-0.4-0.3-0.6c-0.2-0.4-0.4-0.9-0.4-1.4c0-0.1,0-0.3,0.1-0.4
	c0.1-0.3,0.2-0.6,0.5-0.7c0.1,0,0.2-0.1,0.3-0.1C28.8,4.8,29,4.7,29.1,4.6z"/>
<path fill="#E0E1E0" d="M17.7,4.9c-0.8,0.4-1.6,0.8-2.3,1.3c-0.6,0.3-1.1,0.7-1.6,1.2c-0.4,0.4-0.7,0.8-0.9,1.2
	c-0.3,0.5-0.5,1.1-0.7,1.7c-0.3,1.1-0.4,2.3-0.3,3.4c0.1,0.9,0.4,1.6,0.9,2.2c0.6,0.9,1.4,1.5,2.4,1.9c0.7,0.3,1.4,0.4,2.2,0.4
	c0.6,0,1.3,0,1.9,0c0.7,0,1.5,0,2.2-0.1c0.7,0,1.3-0.1,2-0.3c0.6-0.2,1.1-0.4,1.6-0.8c0.7-0.5,1.2-1.1,1.6-1.8
	c0.3-0.5,0.4-1,0.3-1.6c-0.1-0.5-0.1-1,0-1.5c0,0-0.1-0.1-0.2-0.1c-1.5-0.6-2.9-1.2-4.3-1.8C21,9.7,19.9,8.7,19,7.5
	c-0.6-0.9-1-1.8-1-2.7C17.8,4.8,17.8,4.8,17.7,4.9 M17.2,10.6c0,0,0.1,0,0.1,0c0.2,0,0.5,0,0.7,0.1c0.1,0,0.1,0.1,0.1,0.2
	c0.3,0.3,0.7,0.7,1,1c0.5,0.6,1,1.3,1.4,2c0.1,0.3,0.1,0.6,0,0.8c0,0.1-0.2,0.2-0.4,0.2c-0.4,0-0.7,0.1-1.1,0.1
	c-0.2,0-0.4,0-0.6-0.1c-0.4-0.1-0.8-0.3-1.1-0.6c-0.3-0.2-0.5-0.4-0.6-0.8c-0.2-0.4-0.4-0.8-0.5-1.2c-0.1-0.3-0.1-0.6-0.1-0.9
	c0-0.1,0-0.2,0.1-0.2C16.7,11,17,10.8,17.2,10.6 M60.4,4.9c-0.1,0-0.1-0.1-0.2-0.1c-0.1,0.9-0.4,1.8-1.1,2.7
	c-0.9,1.3-2.1,2.2-3.5,2.8c-1.4,0.6-2.9,1.2-4.4,1.8c-0.1,0-0.1,0-0.2,0.1c0.1,0.5,0.1,1.1,0,1.6c-0.1,0.6,0,1.1,0.3,1.6
	c0.4,0.7,0.9,1.3,1.6,1.8c0.5,0.4,1,0.6,1.6,0.8c0.7,0.2,1.3,0.3,2,0.3c0.8,0,1.5,0.1,2.2,0.1c0.6,0,1.3,0,1.9,0
	c0.8,0,1.5-0.1,2.2-0.4c1-0.4,1.8-1,2.3-1.9c0.5-0.6,0.8-1.4,0.8-2.2c0.1-1.2,0-2.3-0.3-3.4c-0.2-0.6-0.4-1.1-0.7-1.7
	c-0.2-0.4-0.5-0.8-0.9-1.2c-0.5-0.5-1-0.9-1.5-1.2C62,5.7,61.2,5.3,60.4,4.9 M57.6,14.6c-0.1-0.3-0.1-0.5,0-0.8
	c0.4-0.7,0.8-1.4,1.3-2c0.3-0.3,0.7-0.7,1-1c0-0.1,0-0.2,0.1-0.2c0.2-0.1,0.4-0.1,0.6-0.1c0.1,0,0.1,0,0.2,0
	c0.2,0.3,0.5,0.5,0.8,0.6c0.1,0,0.2,0.1,0.2,0.2c0.1,0.3,0.1,0.6,0,0.9c-0.1,0.4-0.3,0.8-0.5,1.2c-0.1,0.3-0.3,0.6-0.6,0.8
	c-0.3,0.3-0.7,0.5-1,0.6c-0.2,0.1-0.4,0.1-0.7,0.1c-0.4,0-0.7,0-1.1-0.1C57.8,14.8,57.6,14.8,57.6,14.6z"/>
<path fill="#131313" d="M17.4,10.5c-0.1,0-0.1,0-0.1,0c-0.2,0.3-0.5,0.5-0.9,0.6c-0.1,0-0.1,0.1-0.1,0.2c-0.1,0.3-0.1,0.6,0.1,0.9
	c0.1,0.4,0.3,0.8,0.5,1.2c0.1,0.3,0.3,0.6,0.6,0.8c0.3,0.3,0.6,0.5,1.1,0.6c0.2,0.1,0.4,0.1,0.6,0.1c0.4,0,0.7,0,1.1-0.1
	c0.2,0,0.3-0.1,0.4-0.2c0.1-0.3,0.1-0.5,0-0.8c-0.4-0.7-0.9-1.4-1.4-2c-0.3-0.3-0.7-0.7-1-1c0-0.1,0-0.2-0.1-0.2
	C17.8,10.6,17.6,10.5,17.4,10.5 M57.7,13.8c-0.1,0.3-0.1,0.6,0,0.8c0,0.1,0.2,0.2,0.3,0.2c0.4,0,0.7,0.1,1.1,0.1
	c0.2,0,0.5,0,0.7-0.1c0.4-0.1,0.8-0.3,1-0.6c0.3-0.2,0.5-0.4,0.6-0.8c0.2-0.4,0.4-0.8,0.5-1.2c0.1-0.3,0.2-0.6,0-0.9
	c0-0.1-0.1-0.2-0.2-0.2c-0.3-0.1-0.6-0.3-0.8-0.6c0,0-0.1,0-0.2,0c-0.2,0-0.4,0-0.6,0.1c-0.1,0-0.1,0.1-0.1,0.2
	c-0.3,0.3-0.7,0.7-1,1C58.5,12.4,58.1,13.1,57.7,13.8z"/>
<path fill="#767677" d="M30,4.9c-0.2-0.1-0.5-0.2-0.9-0.2c-0.1,0.1-0.3,0.2-0.5,0.2c-0.1,0-0.2,0.1-0.3,0.1
	c-0.3,0.1-0.5,0.4-0.5,0.7c-0.1,0.2-0.1,0.3-0.1,0.4c0,0.5,0.2,0.9,0.4,1.4c0.1,0.2,0.2,0.4,0.3,0.6c0.4,0.6,0.9,1,1.6,1
	c0.4,0,0.7,0,1-0.1c0.3-0.1,0.6-0.2,0.7-0.5c0.3-0.5,0.4-1.1,0.2-1.8c-0.1-0.3-0.2-0.5-0.4-0.8C31,5.4,30.5,5.1,30,4.9 M46.7,5.9
	c-0.2,0.2-0.3,0.5-0.4,0.8c-0.2,0.7-0.1,1.2,0.2,1.8c0.1,0.3,0.4,0.4,0.7,0.5c0.3,0.1,0.7,0.1,1,0.1c0.7,0,1.2-0.4,1.6-1
	c0.1-0.2,0.2-0.4,0.3-0.6c0.2-0.4,0.4-0.9,0.4-1.4c0-0.1,0-0.3-0.1-0.4c-0.1-0.3-0.2-0.6-0.5-0.7c-0.1,0-0.2-0.1-0.3-0.1
	c-0.2,0-0.4-0.1-0.5-0.2c-0.3,0.1-0.6,0.2-0.9,0.3C47.6,5.1,47.1,5.4,46.7,5.9z"/>
</svg>
