<?xml version="1.0" encoding="utf-8"?>
<!-- Generator: Adobe Illustrator 18.1.1, SVG Export Plug-In . SVG Version: 6.00 Build 0)  -->
<svg version="1.1" id="Layer_1" xmlns="http://www.w3.org/2000/svg" xmlns:xlink="http://www.w3.org/1999/xlink" x="0px" y="0px"
	 width="550px" height="400px" viewBox="-120 107 550 400" enable-background="new -120 107 550 400" xml:space="preserve">
<path fill="#CCCCCC" d="M217.1,203.9c-0.1,0.1-0.1,0.4-0.1,0.8c0,1.4,1.1,3.4,3.5,5.9c2.3,2.5,3.5,4.5,3.5,6c0,2.6-1.3,6.1-4,10.6
	l-0.1-0.2c-1.1-5.5-2.4-10-4-13.6c-2.9-6.7-7.2-10.1-12.8-10.2l-0.1,0.6c0.6,2.8,2.4,5,5.2,6.6c3,1.6,4.8,3.8,5.6,6.5
	c1,3.5,1.5,8.4,1.5,14.8c0,7.2,0,10.9,0,11.2c0.1,0.5,0.1,0.7-0.1,0.8l0-0.1c-2.2,0.2-3.6,0.2-4.2,0.2c-0.2-2.4-0.6-6.2-1.2-11.2
	c-0.5-4.3-0.8-6.8-0.8-7.5c0-1-0.4-2.5-1.1-4.5c-0.7-1.7-1-2.6-1-2.6c-0.3-0.7-1-1.6-2-2.8c-1.2-1.4-2.2-2.7-3-3.9
	c-1.5-2.3-4.9-3.9-10.2-4.7c-6-0.5-10.1-0.9-12.2-1.3l0.3,0.9c1.7,1.3,4.6,2.8,8.8,4.4c4.1,1.6,7,3.1,9,4.6
	c6.4,5.1,9.1,15.4,8.2,30.9l0.2,0.4l0.3,4.4c0,3.9-0.8,9.6-2.3,17.1c-1.3,6.6-2.5,11.2-3.5,13.9c-2,5.3-3.3,8.4-3.9,9.3
	c-1.2,2.1-3.7,4.9-7.6,8.6c-2.9,2.7-5.4,4.6-7.6,5.7c-2.8,1.4-6.2,2.1-10.1,2.1c-3.8,0-6.3-0.4-7.5-1.1c-1.7-1-2.6-3.2-2.6-6.5
	c0-0.7,0.2-1.2,0.5-1.5l0.1-0.1c0.4,0,1.8,0.3,4.1,0.8c2.3,0.4,3.8,0.7,4.4,0.7c0.1,0,1.7-0.5,4.9-1.5c3.5-1.3,6-3,7.6-4.9
	c0.4-0.5,1.8-1.8,4.3-4c2-1.7,3.8-3.8,5.4-6.2c3.1-5,5.7-11.1,7.7-18.4c1.9-7.2,2.9-13.9,2.9-20.2c0-20.7-12.6-31.5-37.9-32.3
	c-0.1,0-0.2,0-0.2,0c-1.7,0.6-3.3,1.5-4.6,2.6c14.4,1.2,24.6,5,30.6,11.4c4.3,4.6,6.5,10.7,6.5,18.3c0,9-2.7,19.1-8,30.3
	c-5.7,12-11.6,18-17.5,18c-3.3,0-5.8-0.5-7.4-1.4c-1.6-1-2.6-1.5-3-1.5c-1.7,0-3.1,1.4-4.3,4c-1.1,2.6-1.6,5.5-1.6,8.9
	c0,3.4,0.6,6,1.9,7.7c1.3,1.8,3.5,3,6.5,3.5c2,0.3,3.4,0.9,4.1,1.6c0.9,0.9,1.4,1.3,1.5,1.3c-2.3,1.9-3.5,2.9-3.6,3.1
	c-2.1,3.6-3.6,6.2-4.6,7.8c-1.6,2.9-3.2,6.4-4.7,10.6c-2.3,6.5-3.7,10-4.2,10.4c-0.4,0.3-1,0.4-1.9,0.3c-1.7-0.2-2.9-0.3-3.6-0.3
	c-6.8,0-12.8,0.8-18,2.2c-3.9,1.5-6.1,2.2-6.6,2.2c-0.3,0-0.7-0.5-1.4-1.6c-1.1-1.8-2.8-3.6-5.2-5.6c-2.3-1.9-5.8-4.8-10.5-8.7
	c-4.7-3.9-10.5-7.2-17.4-10c-6.9-2.7-10.9-4.3-12-4.7l-5.1-1.6c-0.1,0.5-0.1,0.4-0.1-0.2c0-0.4,0.8-1.4,2.2-2.9
	c2.8-2.8,5.2-5.3,7-7.4c0.6-3.7,0.9-5.9,0.9-6.4c0-0.4-0.8-0.9-2.4-1.4c-2.6-0.8-4.3-1.5-5.2-1.8c-5.1-2.4-7.6-6.4-7.6-12
	c0.2-2.5,0.8-5.3,1.9-8.6c2.1-6.5,5.3-11.9,9.5-16.1c5.7-5.8,13.4-11.9,23-18.4c0.5-0.3,2.6-1.4,6.2-3.5c3.7-2.1,6.3-3.6,7.7-4.6
	c5.4-3.6,10.2-6.9,14.6-9.9c2.4-1.6,6.2-4.4,11.4-8.4c7.7-5.8,11.6-8.8,11.9-8.9c5.3-3.8,9.2-6.1,11.8-6.9c9.1-2.9,14-4.4,14.5-4.5
	c1.2-0.3,4.7-0.5,10.3-0.6c1.3,0,11,0,29.1,0.1c9.7,0,15.6-0.4,17.8-1.2c1.6-0.6,3.6-1.3,6-1.9c1.5-0.7,2-2.2,1.4-4.3
	c-0.9,0-9-0.3-24.1-0.8c-13.4,0-25.8,1.3-37.2,3.8c-10.6,3-17.7,4.9-21.5,5.6c-1.2-3-2-4.9-2.5-5.8c-1-1.9-2.2-3.4-3.7-4.3
	c-0.4-0.3-1.4-0.5-3.1-0.6c-1.9-0.1-3.1-0.3-3.7-0.4c-0.6-0.2-1-0.9-1.1-2.1c-0.1-0.9-1.3-1.3-3.6-1.3c-3.6,0-8.7,0.6-15.3,1.9
	c-8,1.6-14,2.9-17.9,3.7c-1.8,0.4-5.5,1.7-11.1,4c-6,2.5-10,4.5-12,6c-9.7,7.3-16,13.2-19,17.6c-4.2,6.2-6.4,14.4-6.4,24.7
	c0,3.6,1.9,6.9,5.6,9.8c2.2,1.8,3.4,2.8,3.8,3.1c1.2,1.2,1.8,2.4,1.8,3.6s-0.9,3.1-2.6,5.7c-2.6,3.7-4.9,8.1-7,13.1
	c-1.2,3-2.1,5.7-2.7,8c-0.9,3.8-1.3,8-1.3,12.7c0,3.2,1.3,5.7,3.9,7.4c2.7,1.8,6.2,2.5,10.6,2.1l0.2-0.3l-0.2,0.3
	c-1.7,3.4-6.1,7.3-12.9,11.8c-3,1.9-5,3.5-6.1,4.6c-0.5,0.5-1,1-1.4,1.5c-0.9,1.2-1.3,2.5-1.3,3.8c0,1,0.4,1.9,1.3,2.9
	c0.2,0.2,0.4,0.5,0.7,0.7c0.4,0.4,1.8,1.5,4,3.2c2.1,1.6,3.5,2.7,4.2,3.2c0.9,0.6,1.9,1.2,2.9,1.8c1.4,0.8,2.6,1.6,3.6,2.4
	c0.8,0.7,1.5,1.1,2.2,1.4c0.2,0.1,0.8,0.1,1.6,0.2c0.9,0.3,1.6,1.3,2.1,2.8c0.2,0.6,0.2,1.7,0.2,3.4c-0.1,2.3-0.1,3.7-0.1,4.3
	c0.2,0,0.4,0.1,0.5,0.1c2.8,0.4,8.8,1.2,18,2.4c8.9,1.2,14,2.3,15.2,3.2c-1.4,1.7-3.9,2.5-7.6,2.5c-5.6-0.1-8.7-0.1-9.2,0
	c-5.8,1.1-9.9,1.9-12.3,2.5c-4.7,1.2-7.7,2.6-9.1,4.1c-4.6,5-7.7,9.1-9.4,12.2c-1.8,3.4-2.7,6.9-2.8,10.7c0,0.5,0.4,1.7,1.3,3.7
	c1.1,2.5,2.3,4,3.5,4.6c3.9,1.8,6.5,2.8,7.9,2.9c1.3,0.1,4.9,0,10.6-0.2c7.7,0,12.1,0.8,13.2,2.3c0.2,0.2,0.6,1.2,1.2,3.1
	c0.6,1.7,1.5,3.3,2.8,4.8c1,1.1,2.6,2.6,4.8,4.3c2.4,1.9,4.1,3,5.2,3.4c2,0.6,4.7,1.2,8.1,1.8c3,0.5,4.9,0.8,5.8,0.8
	c2.2,0,4.2-0.8,6-2.2c1.4,0.1,10.7,0.9,27.9,2.5c18.5,1.7,31,2.5,37.8,2.5c3.9,0,8.8-0.1,14.8-0.4c3.5-0.2,6-0.4,7.7-0.6
	c1.6-0.2,4.4-0.8,8.2-1.6c0.8-0.2,3.3-0.6,7.4-1.2c4.5-1,8.6-2.6,12.3-4.9c3-1.8,5.2-3.4,6.4-4.6c0.9-0.9,2.7-3.4,5.5-7.4
	c1.9-2.7,3.2-6.3,3.7-10.6c0.7-5.5,1-8.4,1-8.6c-0.4,0-2.3,0.1-5.8,0.2c-4.1,0.1-7.7,0.1-11,0c-3.9-0.1-7.8-0.9-11.8-2.4
	c-0.1,0-2-0.9-5.6-2.7c-4.3-2.1-8.1-4.8-11.5-8.1c-5-4.7-7.6-9.4-7.6-14c0-4,0.8-7.7,2.4-11.1c2.3-4.9,3.5-7.6,3.6-8.2
	c0.3-1.1,1.2-6.2,2.6-15.4c1.5-9.5,2.4-16.1,2.9-19.9c0.3-2.8,0.9-6.2,1.6-10.1c0.7-3.8,1.1-6.6,1.3-8.4c0.9-7.9,2.9-17.1,6-27.6
	c3-9.3,4.6-14.7,4.8-16.1l-0.4-0.6c-5.3,4.6-10,14.6-14.2,29.8c-2.5,9.2-5.4,22.6-8.4,40.3c-0.9,5.3-1.8,11.9-2.6,19.6
	c-1.4,12.7-2.1,23.8-2.1,33.4c0,0.4,0.4,1.5,1.2,3.4c0.8,1.9,1.2,3.3,1.2,4.4c0,5-0.5,9.4-1.5,13.3c-1.8,7.1-5.2,13.1-10.2,18.2
	c-5.8,5.9-10.9,10-15.1,12.3c-2.6,1.4-4.9,2.2-6.7,2.2c-3,0-5.4-0.4-7-1.3c-2.4-1.3-4.4-3.8-6.1-7.6l0.1-0.7
	c1.2,0.3,4.7,0.8,10.6,1.4c7.1,0,13.9-4.7,20.4-14c6-8.7,8.9-16.6,8.9-23.9c0-1.8-0.2-4.2-0.5-7.4c-0.4-3.1-0.5-7.2-0.5-12.5
	c0.6-7.1,0.9-11,0.9-11.7c-0.3-4.3-0.4-8-0.5-10.9c-0.1-5.4,0.4-10.2,1.5-14.3c0.2-0.7,1-5.3,2.4-13.6c1.1-6.4,2.1-10.2,3-11.5
	l0.2-0.4c0.2-0.9,0.7-2.7,1.7-5.5c0.9-2.8,1.4-4.4,1.5-4.8c0.1-0.2,0.3-1.7,0.7-4.5c0.3-2.6,0.6-4.1,0.7-4.4
	c0.5-1.4,1.7-3.9,3.5-7.4c1.1-2,1.8-4.5,2.3-7.4c0.3-1.7,1.3-4.8,3-9.3c0.8-2.7,1.7-5.5,2.7-8.4c1.9-5.6,4.1-11.3,6.5-16.9
	c0.9-2.2,2-4.3,3.1-6.3c0.6-1.1,1.4-2.4,2.2-3.9c4.1-7.3,6-11.5,5.8-12.7c-2.9,1.6-5.6,3.8-8.1,6.7c-2,2.3-3.4,3.4-4.1,3.4
	c-0.3,0-0.7-0.5-1.3-1.4c-0.7-1.1-1.3-1.8-1.8-2.1c0,0-2.3-1.3-6.8-3.7C217.3,203.6,217.2,203.8,217.1,203.9 M212.3,391.4
	c-0.6-1.9-0.6-3.4,0.1-4.5c0.4,0.2,3.5,2.4,9.4,6.4c6.7,4,12.5,6,17.4,6c2.7,0,5-0.2,7-0.6c1.9-0.4,3-0.6,3.2-0.6l2.2,0.2l0,0.9
	c-1.3,1.6-3.6,3-6.7,4.1c-2.8,1-5.5,1.5-8,1.5c-9,0-15.9-2.5-20.8-7.5C214.2,395.4,213,393.4,212.3,391.4 M205.5,403
	c1-0.6,2.3-0.6,4,0.2c0.9,0.4,2.7,1.5,5.4,3.2c5.7,3.7,10.4,5.5,14.2,5.5c0.2,0,1.9-0.2,5.2-0.6c0.2,0,1.3,0.7,3.1,2.1l-0.1,0.6
	c-1.2,0.5-2.1,0.9-2.8,1.1c-1,0.4-2.6,0.6-4.9,0.6c-5,0-10-1.7-15-5.2C209.9,406.6,206.9,404.1,205.5,403 M208.3,420.1
	c-0.1,0-0.2,0.1-0.2,0.1c-2.1-0.1-4.1-0.8-5.9-2.1c-1.8-1.3-2.7-2.4-2.7-3.5c0.1-1,0.1-1.6,0.1-1.8c1.1-0.1,2.3,0.1,3.6,0.5
	c2,0.7,3.8,2.8,5.4,6.1C208.5,419.9,208.4,420.1,208.3,420.1 M151.6,201.5c0,0.9-0.5,2-1.5,3.4c-1.5,2.1-3.6,3.1-6.4,3.1
	c-0.6,0-1.6-0.5-3-1.6c-2.8-2.1-4.4-3.2-4.7-3.4c-5-3.3-10.2-5-15.5-5c-8.3,0-15.1,1.3-20.3,3.9c-1.6,0.8-3.3,1.8-5.2,3.1
	c-1.9,1.3-3.1,2.1-3.8,2.4c-2.6,1.2-5.4,4-8.4,8.2c-3,4.2-4.5,7.5-4.5,9.9c0,5.7,2.2,9.8,6.5,12.2c3.9,2.2,8.8,2.8,14.8,1.6
	c-1.6,1.1-5.8,3.7-12.5,7.8c-6.4,3.9-9.7,5.9-9.8,5.9c-1.5,0-3.8-1.9-7-5.6c-3.4-3.9-5-7.2-5-9.9c0-8.8,2.5-16.4,7.6-22.7
	c3.3-4.1,8-7.8,13.9-11.1c6.6-3.7,14-6.6,22-8.7c8.9-2.3,18-3.5,27.3-3.5c3.1,0,6.4,1.2,10,3.4C149.8,197.5,151.6,199.6,151.6,201.5
	 M110.9,203.4c4.9-1.1,8.9-1.6,12-1.6c5.3,0,9.1,1.2,11.2,3.8c1.4,1.6,2.1,3.6,2.1,6.1c0,0.8-0.8,2-2.4,3.7
	c-1.6,1.7-2.8,2.6-3.8,2.6c-0.5,0-1.1-0.5-1.8-1.4c-1.3-1.9-2-3-2.1-3.1c-2.5-3.1-6.2-4.6-11.1-4.6c-3.4,0-7.4,1.1-12.2,3.4
	c-6.1,2.9-9.1,6.5-9.1,10.6c0,0.4,0.4,1.6,1.1,3.6c0.6,1.8,0.8,3.3,0.4,4.5c-4.2-0.8-7.1-1.7-8.8-2.7c-1.8-1.2-2.8-2.8-2.8-5
	c0-2.4,1.7-5.1,5-8.1c2.3-2.1,5.9-4.6,10.8-7.8C101.9,205.8,105.6,204.5,110.9,203.4 M113.6,213.6c2.7,0,4.9,0.7,6.6,2
	c1.8,1.4,2.7,3.1,2.7,5.2c0,1.9-2.2,4.6-6.6,8.1c-4.3,3.4-7.6,5.2-9.8,5.3c0.2-0.7,0.9-2.2,2.4-4.5c1.3-2.1,1.9-3.6,1.9-4.3
	c0-3.4-0.9-4.4-2.8-2.9c-0.8,0.5-1.5,0.9-2.1,1.1c-1,0.4-2.1,0.6-3.4,0.6c-0.5,0-1.1-0.1-1.8-0.2c-0.7-0.2-1.1-0.4-1.3-0.6
	c0.6-1.2,2.1-2.9,4.4-5.1C107.1,215.1,110.4,213.6,113.6,213.6 M192.1,318.9c-0.3,1.7-1.9,3.1-4.9,4.1c-2.6,1-6.2,3.8-10.8,8.5
	c-4.5,5-7.2,7.9-8.2,8.8l-0.3,0c-0.3-0.8-0.4-1.8-0.4-3c0-5.4,1.8-10.2,5.2-14.5c4.2-5.1,11.1-9.8,20.9-14
	C192.7,312.3,192.2,315.7,192.1,318.9 M166.5,347.6l0.7-0.5c0,2,0,4.6,0.2,7.8c0,1.8-0.5,5.7-1.6,11.7c-0.9,5.4-1.6,8.6-1.9,9.7
	c-0.4-0.5-0.7-1.4-1.1-2.6c-0.7-2.5-1-5.6-1-9.3c0-2.4-0.8-5-2.4-7.9c-2.4-4.3-3.6-6.6-3.8-6.8c0.8,0.1,1.5,0.2,2,0.2
	c2,0,3.8-0.2,5.5-0.8C164.7,348.8,165.8,348.3,166.5,347.6 M190.2,329.8c0.1,0.6,0,3.7-0.3,9.2c0,2.3,0.2,4.6,0.5,6.9
	c0.1,1,0.2,1.9,0.2,2.5c-1.1,1.5-4.7,6.6-10.9,15.5c-5,7.2-7.5,10.6-7.5,10.4c0-11.8,1.6-21.7,4.7-29.8
	C180.1,335.9,184.5,331,190.2,329.8 M143.9,363.5c0.4,0.5,0.6,0.9,0.6,1.3c0,0.8-0.3,1.7-0.9,2.6c-0.9,1.5-2.4,2.2-4.4,2.2
	c-0.4,0-0.7,0-1-0.1c-0.3-0.1-0.6-0.1-0.9-0.1c-0.2-0.4-0.4-0.6-0.5-0.8c-0.1-0.2-0.1-0.5-0.1-0.9c0-0.9,1.1-2.1,3.2-3.4
	c1.9-1.2,3.1-1.8,3.5-1.8C143.4,362.8,143.6,363.1,143.9,363.5 M149,360c-0.8-1.3-2.4-2-4.6-2c-2.5,0-7.6,1.9-15.3,5.8
	c-10,5-18.2,8.5-24.4,10.5c-1.5,0.5-3,0.9-4.7,1.2c-1.5,0.3-2.5,0.6-3.2,0.8c-0.9,0.4-2.7,0.6-5.2,0.8c-2.7,0.1-4.3,0.3-4.8,0.4
	c-5.3,1.4-8.8,2.8-10.3,4c-1.9,1.5-2.9,4.1-2.9,7.8c0,0.6,0.9,1.9,2.6,3.9c1.8,2,2.7,3.5,2.9,4.4c-0.5,0.7-1.8,1.4-3.9,2.2
	c-3.4,0-6.5-1.2-9.4-3.5c-2.6-2.1-3.9-4-3.9-5.8c0-2.4,0.7-5,2.2-7.6c2-3.4,5-6.3,9-8.8c0.6-0.3,3-1.1,7.2-2.2
	c4.2-1.2,6.7-1.8,7.5-1.8c1.7-0.1,4.5-0.1,8.5,0c3.8,0.1,6.4,0.1,7.8,0c0.8,0,1.5-0.3,2-0.8c0.7-0.8,1.5-1.6,2.2-2.3
	c0.2-0.2,1.6-0.5,4.3-0.9c2.8-0.5,4.4-0.8,4.6-0.9c2.5-0.9,7.3-3.1,14.3-6.6c6.5-3,11.2-4.5,14.1-4.5c2.9,0,5.4,1.3,7.5,3.9
	c2,2.4,2.9,5.1,2.9,8c0,2.2-1.2,4.6-3.5,7.4c-1.2,1.3-3.8,3.8-7.9,7.4c-3.7,3.2-6.3,5.8-7.9,7.8c-2.4,3.1-3.6,6-3.6,8.9
	c0,1.5,0.3,3.4,0.8,5.9c0.5,2.5,0.8,4.1,0.8,4.9c0,3.7-0.9,6.6-2.7,8.7c-0.9,1-1.8,1.7-2.8,2c-4.3,0-10.2-1.7-17.7-5.1
	c-8.4-3.9-13.3-7.9-14.7-11.9c-1.9-5.5-4-8.5-6.3-9c-1.9-0.4-3.4-0.7-4.6-1.1c-1.3,0-2.3-0.1-2.8-0.4c-1.2-0.6-1.5-0.9-0.9-0.7
	c0.4-5.5,4.7-9.5,13-11.9c8.3-2.4,15.5-4.1,21.6-5c0.7-0.1,2.6-0.5,5.9-1.2c3-0.7,4.8-1.1,5.2-1.2c1-0.2,1.9-0.3,2.6-0.4
	c0.5-0.2,1.1-0.4,1.6-0.6l0.1,0c0.2,0,0.3,0,0.4,0.1l0.1,0.1c-0.5,0.1-0.9,0.3-1.4,0.4c1,0.1,1.8,0.3,2.4,0.8
	c1.6,1.2,4.5,1.8,8.7,1.8c4.9,0,7.3-2.7,7.3-8C150,363,149.7,361.1,149,360 M138.1,399.2c0.2-3.6,1.1-6.1,2.8-7.8
	c2.4-2.2,4-3.8,5-4.6c1.7-1.5,5.6-4.5,11.6-9.2c0.5,0.3,1.1,2.1,1.8,5.5c0.1,0.1,1.5,0.3,4.2,0.8c1.4,0.2,2.8,0.5,4.1,0.6
	c0.4,0.3,0.9,0.7,1.3,1.2c0.4,0.5,0.6,0.9,0.6,1.2c0,0.7-1.1,2.4-3.2,5c-2.3,2.8-3.5,5.1-3.8,6.9c2.9,0.1,5.7,0.5,8.4,1.1
	c2.4,0.5,3.7,1,4,1.4c-0.4,1.3-0.9,2.3-1.5,2.8c-1.1,0.8-2.9,1.2-5.5,1.2c-2.3,0-3.9-0.6-4.9-1.7c-1-1.2-2.3-1.8-3.9-1.8
	c-2.2,0-3.9,0.6-5.1,1.8c-1,1-1.5,2.2-1.5,3.6c0,0,0.2,1.1,0.6,3.2s0.6,3.4,0.6,3.9c0,1.7-0.3,2.6-1,2.9c-1.1,0.5-4.5,0.8-10.1,0.8
	c-1.8,0-2.9-0.6-3.4-2c-0.6-1.4-0.9-4.5-0.9-9.2C138,403.8,138,401.2,138.1,399.2 M190.5,363.2c0,0,0-0.1,0-0.1h0.2
	C190.6,363.1,190.6,363.2,190.5,363.2c-0.1,1.4-0.2,2.7-0.3,4.1c0,2,0,5,0,8.8c-0.1,3.2-0.5,5.8-1.3,7.9c-2,5.4-7,9.2-15,11.5
	c0.5-0.9,1.5-2.9,2.8-6c1.3-3.1,2.3-5.5,3-7.2c2.9-7.6,4.8-12.4,5.9-14.2C186.7,366.1,188.4,364.5,190.5,363.2 M85.2,347
	c0.6,0.1,1.3,0.2,2.1,0.2c0.7,0,1.2,0,1.5,0.1l3.6,3.4c-0.5,0.1-2.4,0.1-5.8,0.1c-3.4,0-5.8,0-7.1-0.1c0.7-1,1.2-2,1.5-2.8
	c0.4-1.5,0.6-2.4,0.8-2.7c0.4,0.1,0.7,0.3,1.1,0.6C83.5,346.4,84.2,346.7,85.2,347 M103.4,344.6c3.1,2.9,5,4.8,5.9,5.8
	c1.2,1.3,2.8,2.4,4.9,3.2c1.6,0.7,2.9,2.1,4,4.1c-1-0.3-8.8-4.4-23.6-12.4c-3.4-1.9-7.5-3.6-12.2-5c-4-1.2-6.8-1.8-8.3-1.8
	c-1,0-1.8,0.3-2.5,0.8c-0.3,0.2-0.6,0.5-0.8,0.8c-1.7,0-3.5-0.9-5.6-2.9c-2.4-2.2-3.6-4.7-3.6-7.4c0-3.7,2.3-5.5,7-5.5
	c2.9,0,7.5,1.6,13.9,4.8c6.8,3.4,11.9,6.8,15.3,10.4C98.1,339.6,99.9,341.3,103.4,344.6z"/>
<path fill="#666666" d="M109.3,350.4c-0.9-1-2.8-2.9-5.9-5.8c-3.5-3.3-5.3-5.1-5.4-5.1c-3.5-3.5-8.6-7-15.3-10.4
	c-6.4-3.2-11-4.8-13.9-4.8c-4.7,0-7,1.9-7,5.5c0,2.7,1.2,5.2,3.6,7.4c2,1.9,3.9,2.8,5.6,2.9c0.3-0.3,0.5-0.5,0.8-0.8
	c0.7-0.5,1.5-0.8,2.5-0.8c1.5,0,4.3,0.6,8.3,1.8c4.7,1.4,8.8,3.1,12.2,5c14.7,8,22.6,12.2,23.6,12.4c-1.1-2.1-2.4-3.5-4-4.1
	C112.1,352.8,110.5,351.7,109.3,350.4 M87.3,347.2c-0.8,0-1.5-0.1-2.1-0.2c-1-0.2-1.7-0.5-2.2-1c-0.4-0.4-0.8-0.6-1.1-0.6
	c-0.1,0.3-0.4,1.2-0.8,2.7c-0.2,0.8-0.7,1.7-1.5,2.8c1.3,0.1,3.7,0.1,7.1,0.1c3.3,0,5.2-0.1,5.8-0.1l-3.6-3.4
	C88.5,347.2,88,347.2,87.3,347.2 M140.9,391.5c-1.7,1.6-2.6,4.2-2.8,7.8c-0.1,2-0.1,4.6,0.1,7.8c0,4.8,0.3,7.9,0.9,9.2
	c0.5,1.3,1.7,2,3.4,2c5.6,0,8.9-0.3,10.1-0.8c0.7-0.3,1-1.3,1-2.9c0-0.5-0.2-1.8-0.6-3.9s-0.6-3.2-0.6-3.2c0-1.4,0.5-2.6,1.5-3.6
	c1.2-1.2,2.9-1.8,5.1-1.8c1.6,0,2.9,0.6,3.9,1.8c1,1.1,2.6,1.7,4.9,1.7c2.6,0,4.4-0.4,5.5-1.2c0.7-0.5,1.2-1.5,1.5-2.8
	c-0.3-0.4-1.6-0.9-4-1.4c-2.7-0.6-5.5-0.9-8.4-1.1c0.2-1.8,1.5-4,3.8-6.9c2.2-2.7,3.2-4.4,3.2-5c0-0.3-0.2-0.7-0.6-1.2
	c-0.4-0.5-0.9-0.9-1.3-1.2c-1.4-0.2-2.8-0.4-4.1-0.6c-2.8-0.5-4.2-0.7-4.2-0.8c-0.7-3.3-1.3-5.2-1.8-5.5c-6,4.7-9.8,7.8-11.6,9.2
	C144.9,387.7,143.3,389.3,140.9,391.5 M144.4,358c2.2,0,3.7,0.7,4.6,2c0.7,1.1,1.1,3,1.1,5.7c0,5.3-2.4,8-7.3,8
	c-4.2,0-7.1-0.6-8.7-1.8c-0.6-0.4-1.4-0.7-2.4-0.8c-0.3,0-0.5,0-0.9,0c-0.8,0-1.7,0.1-2.6,0.4c-0.5,0.1-2.2,0.5-5.2,1.2
	c-3.2,0.7-5.2,1.1-5.9,1.2c-6.1,0.9-13.4,2.5-21.6,5c-8.3,2.4-12.6,6.4-13,11.9c0.2,0.1,0.6,0.2,1,0.4c0.5,0.2,1.5,0.5,2.8,0.8
	c1.2,0.3,2.7,0.7,4.6,1.1c2.3,0.5,4.4,3.5,6.3,9c1.4,4.1,6.3,8,14.7,11.9c7.5,3.4,13.4,5.1,17.7,5.1c0.9-0.3,1.9-1,2.8-2
	c1.8-2.1,2.7-5,2.7-8.7c0-0.8-0.3-2.5-0.8-4.9c-0.5-2.5-0.8-4.4-0.8-5.9c0-2.9,1.2-5.8,3.6-8.9c1.6-2,4.2-4.6,7.9-7.8
	c4-3.6,6.6-6,7.9-7.4c2.4-2.7,3.5-5.2,3.5-7.4c0-2.9-1-5.6-2.9-8c-2.1-2.6-4.6-3.9-7.5-3.9c-2.9,0-7.6,1.5-14.1,4.5
	c-7,3.5-11.8,5.7-14.3,6.6c-0.2,0.1-1.8,0.4-4.6,0.9c-2.7,0.4-4.1,0.7-4.3,0.9c-0.8,0.7-1.5,1.5-2.2,2.3c-0.5,0.5-1.2,0.7-2,0.8
	c-1.4,0.1-4,0.1-7.8,0c-3.9-0.1-6.8-0.1-8.5,0c-0.8,0-3.3,0.6-7.5,1.8c-4.2,1.2-6.6,1.9-7.2,2.2c-4.1,2.4-7.1,5.4-9,8.8
	c-1.5,2.6-2.2,5.1-2.2,7.6c0,1.7,1.3,3.6,3.9,5.8c2.9,2.3,6,3.5,9.4,3.5c2.1-0.8,3.4-1.6,3.9-2.2c-0.2-0.9-1.1-2.3-2.9-4.4
	c-1.7-1.9-2.6-3.2-2.6-3.9c0-3.6,0.9-6.2,2.9-7.8c1.5-1.2,5-2.6,10.3-4c0.4-0.1,2-0.2,4.8-0.4c2.5-0.1,4.3-0.4,5.2-0.8
	c0.7-0.3,1.7-0.5,3.2-0.8c1.7-0.3,3.2-0.7,4.7-1.2c6.2-2.1,14.4-5.6,24.4-10.5C136.8,359.9,141.9,358,144.4,358z"/>
<path fill="#333333" d="M190.2,376.1c0-3.8,0-6.8,0-8.8c0.1-1.4,0.2-2.7,0.3-4.1c-2.2,1.3-3.8,2.9-4.9,4.8c-1,1.9-3,6.6-5.9,14.2
	c-0.6,1.7-1.6,4.1-3,7.2c-1.3,3.1-2.3,5.1-2.8,6c8-2.3,13-6.1,15-11.5C189.7,381.9,190.1,379.3,190.2,376.1 M144.5,364.8
	c0-0.4-0.2-0.8-0.6-1.3c-0.3-0.4-0.5-0.7-0.4-0.9c-0.5,0-1.6,0.6-3.5,1.8c-2.1,1.3-3.2,2.5-3.2,3.4c0,0.4,0.1,0.7,0.1,0.9
	c0.1,0.1,0.2,0.4,0.5,0.8c0.2,0,0.5,0,0.9,0.1c0.3,0.1,0.7,0.1,1,0.1c2,0,3.4-0.8,4.4-2.2C144.2,366.5,144.5,365.6,144.5,364.8
	 M189.9,339c0.3-5.6,0.4-8.7,0.3-9.2c-5.7,1.3-10.1,6.2-13.4,14.7c-3.1,8.1-4.7,18-4.7,29.8c0,0.3,2.5-3.2,7.5-10.4
	c6.2-8.9,9.8-14,10.9-15.5c0-0.6-0.1-1.5-0.2-2.5C190.1,343.6,189.9,341.3,189.9,339 M167.2,347.1l-0.7,0.5
	c-0.8,0.6-1.9,1.1-3.3,1.6c-1.7,0.5-3.5,0.8-5.5,0.8c-0.6,0-1.2-0.1-2-0.2c0.1,0.2,1.4,2.5,3.8,6.8c1.6,2.8,2.4,5.5,2.4,7.9
	c0,3.7,0.3,6.8,1,9.3c0.3,1.2,0.7,2.1,1.1,2.6c0.3-1.1,1-4.3,1.9-9.7c1.1-6,1.6-9.9,1.6-11.7C167.3,351.7,167.2,349.1,167.2,347.1
	 M187.2,323c3-1.1,4.6-2.5,4.9-4.1c0.1-3.2,0.6-6.6,1.5-10.1c-9.7,4.3-16.6,9-20.9,14c-3.5,4.3-5.2,9.1-5.2,14.5
	c0,1.2,0.1,2.2,0.4,3l0.3,0c0.9-0.9,3.7-3.9,8.2-8.8C181,326.8,184.6,324,187.2,323 M120.1,215.6c-1.7-1.3-3.9-2-6.6-2
	c-3.1,0-6.4,1.5-9.9,4.6c-2.4,2.2-3.9,3.9-4.4,5.1c0.2,0.2,0.6,0.4,1.3,0.6c0.7,0.2,1.3,0.2,1.8,0.2c1.3,0,2.5-0.2,3.4-0.6
	c0.5-0.2,1.2-0.6,2.1-1.1c1.9-1.5,2.8-0.5,2.8,2.9c0,0.8-0.6,2.2-1.9,4.3c-1.4,2.3-2.2,3.8-2.4,4.5c2.2-0.1,5.5-1.9,9.8-5.3
	c4.4-3.5,6.6-6.1,6.6-8.1C122.8,218.7,121.9,217,120.1,215.6 M122.9,201.8c-3.2,0-7.2,0.5-12,1.6c-5.2,1.1-9,2.4-11.2,3.9
	c-4.9,3.1-8.5,5.7-10.8,7.8c-3.3,3-5,5.7-5,8.1c0,2.2,0.9,3.8,2.8,5c1.7,1,4.6,1.9,8.8,2.7c0.3-1.2,0.2-2.6-0.4-4.5
	c-0.8-2.1-1.1-3.3-1.1-3.6c0-4.1,3.1-7.7,9.1-10.6c4.8-2.3,8.8-3.4,12.2-3.4c4.9,0,8.6,1.5,11.1,4.6c0.1,0.2,0.8,1.2,2.1,3.1
	c0.6,1,1.2,1.4,1.8,1.4c0.9,0,2.2-0.9,3.8-2.6c1.6-1.7,2.4-2.9,2.4-3.7c0-2.5-0.7-4.5-2.1-6.1C132,203,128.2,201.8,122.9,201.8
	 M150.1,204.9c1-1.3,1.5-2.5,1.5-3.4c0-1.9-1.8-4-5.5-6.4c-3.6-2.3-6.9-3.4-10-3.4c-9.3,0-18.4,1.2-27.3,3.5c-8,2.1-15.4,5-22,8.7
	c-5.9,3.3-10.5,7-13.9,11.1c-5.1,6.3-7.6,13.8-7.6,22.7c0,2.7,1.7,6,5,9.9c3.2,3.7,5.5,5.6,7,5.6c0.1,0,3.4-2,9.8-5.9
	c6.7-4.1,10.9-6.7,12.5-7.8c-6,1.2-10.9,0.6-14.8-1.6c-4.3-2.4-6.5-6.5-6.5-12.2c0-2.4,1.5-5.8,4.5-9.9c3-4.2,5.8-7,8.4-8.2
	c0.7-0.3,1.9-1.1,3.8-2.4c1.9-1.3,3.6-2.4,5.2-3.1c5.3-2.6,12.1-3.9,20.3-3.9c5.3,0,10.5,1.7,15.5,5c0.3,0.2,1.9,1.3,4.7,3.4
	c1.4,1,2.4,1.5,3,1.6C146.6,207.9,148.7,206.9,150.1,204.9 M208,420.2c0,0,0.1-0.1,0.2-0.1c0.1-0.1,0.2-0.3,0.2-0.7
	c-1.5-3.3-3.3-5.4-5.4-6.1c-1.3-0.4-2.5-0.6-3.6-0.5c0,0.2,0,0.8-0.1,1.8c0,1.1,0.9,2.2,2.7,3.5C204,419.4,205.9,420.1,208,420.2
	 M209.5,403.2c-1.7-0.7-3-0.8-4-0.2c1.4,1,4.4,3.5,9.1,7.5c5,3.4,10,5.2,15,5.2c2.2,0,3.8-0.2,4.9-0.6c0.6-0.2,1.5-0.6,2.8-1.1
	l0.1-0.6c-1.8-1.4-2.8-2.1-3.1-2.1c-3.3,0.4-5.1,0.6-5.2,0.6c-3.8,0-8.5-1.8-14.2-5.5C212.2,404.7,210.4,403.6,209.5,403.2
	 M212.4,386.9c-0.6,1-0.7,2.5-0.1,4.5c0.7,2.1,1.9,4,3.8,5.9c4.8,5,11.7,7.5,20.8,7.5c2.5,0,5.1-0.5,8-1.5c3.1-1.1,5.4-2.5,6.7-4.1
	l0-0.9l-2.2-0.2c-0.2,0-1.3,0.2-3.2,0.6c-1.9,0.4-4.2,0.6-7,0.6c-5,0-10.8-2-17.4-6C215.8,389.3,212.7,387.1,212.4,386.9z"/>
<path fill="#999999" d="M133,370.7l-0.1-0.1h0l-0.4-0.1l-0.1,0c-0.5,0.2-1.1,0.4-1.6,0.6c0.3,0,0.6,0,0.9,0
	C132.1,371,132.5,370.8,133,370.7 M91.6,297.6c-1.6,0-3.1,0.3-4.2,0.8c-1.5,0.6-2.4,1.5-2.8,2.7c1.6-0.1,3.2,0.6,4.9,1.9
	c1.7,1.3,2.5,2.6,2.5,3.8c0,4,0.1,6.3,0.4,7c0.5,1.5,1.9,2.2,4.3,2.2c3.9,0,8.2-2.3,12.9-6.9c4.9-4.9,7.4-9.7,7.4-14.6
	c0-3.7-0.8-6.7-2.5-9c-1.8-2.5-4.5-3.8-7.9-3.8c-0.5,0-1.1,0.3-1.7,0.9c-0.1,0.2-0.5,0.6-1.1,1.4c1.4,1.7,3.4,3.3,6.1,4.9
	c1.3,0.7,2,2.6,2,5.6c0,1.9-0.7,4.1-2.2,6.8c-1.8,3.2-3.9,4.8-6.3,4.8c-2,0-4.2-1.4-6.7-4.2C94.2,299,92.5,297.6,91.6,297.6
	 M116.8,251.5c-0.8,1-1.2,1.7-1.2,2.1c0,1.8,2.8,3.9,8.4,6.5c6.5,2.9,13.4,4.4,20.6,4.4c9,0,15.4-1.2,19-3.7
	c1.4-0.9,2.7-2.2,3.9-3.9c0.7-1,1.8-2.5,3.2-4.7c-0.6-0.5-1.5-0.7-2.6-0.6c-1.5,0.2-2.6,0.2-3.5,0.2c-2.1,0-4.9,0-8.4-0.2
	c-5-0.2-8.1-0.4-9.5-0.4c-4.4-0.1-10.2-0.4-17.4-0.7c-6.6-0.3-9.9-0.5-10.2-0.5C118.5,249.9,117.7,250.5,116.8,251.5z"/>
</svg>
