<?xml version="1.0" encoding="utf-8"?>
<!-- Generator: Adobe Illustrator 16.2.1, SVG Export Plug-In . SVG Version: 6.00 Build 0)  -->
<!DOCTYPE svg PUBLIC "-//W3C//DTD SVG 1.1//EN" "http://www.w3.org/Graphics/SVG/1.1/DTD/svg11.dtd">
<svg version="1.1" id="Selected_Items" xmlns="http://www.w3.org/2000/svg" xmlns:xlink="http://www.w3.org/1999/xlink" x="0px"
	 y="0px" width="300px" height="300px" viewBox="0 0 300 300" enable-background="new 0 0 300 300" xml:space="preserve">
<path fill="#727272" d="M104.95,180.7c-0.4,1.133-0.65,1.85-0.75,2.149c0,0.133-0.067,0.267-0.2,0.399c-0.2,0.3-0.417,0.7-0.65,1.2
	c-0.333,0.833-0.867,1.55-1.6,2.148c-0.067,0.135-0.167,0.268-0.3,0.4c-0.7,0.768-1.383,1.616-2.05,2.55
	c-0.867,1-1.967,2.116-3.3,3.351c-1.067,1-2.1,1.949-3.1,2.851c-0.8,0.666-1.65,1.166-2.55,1.5c-0.167,0.033-0.317,0.083-0.45,0.149
	c-0.7,0.399-1.35,0.884-1.95,1.449c-3.333,1.602-5.117,2.4-5.35,2.4c-2.833,0.066-5.65,0.1-8.45,0.1c-0.2,0-0.367-0.065-0.5-0.199
	c-0.1-0.166-0.35-0.217-0.75-0.149c-0.167,0.065-0.35,0.065-0.55,0c-0.233-0.134-0.483-0.2-0.75-0.2
	c-0.7-0.199-1.417-0.333-2.15-0.4c-0.433-0.032-0.85-0.148-1.25-0.35c-0.1-0.066-0.216-0.134-0.35-0.199
	c-0.5-0.134-1-0.351-1.5-0.649c-0.2-0.134-0.417-0.233-0.65-0.302c-1.133-0.166-2.167-0.6-3.1-1.299
	c-0.2-0.201-0.45-0.351-0.75-0.451c-0.567-0.133-1.067-0.383-1.5-0.75c-1.2-0.898-2.45-1.965-3.75-3.198
	c-0.633-0.634-1.167-1.267-1.6-1.9c-0.067-0.065-0.133-0.149-0.2-0.25c-0.066-0.2-0.167-0.399-0.3-0.6
	c-0.167-0.367-0.283-0.7-0.35-1c0-0.2-0.033-0.367-0.1-0.5c-0.3-0.435-0.517-0.9-0.65-1.4c0-0.065-0.067-0.134-0.2-0.2
	c-1.8-0.033-3.583-0.033-5.35,0c-1,0-1.934-0.115-2.8-0.35c-0.9-0.268-1.85-0.482-2.85-0.65c-1-0.199-1.933-0.449-2.8-0.75
	c-1.7-0.565-3.35-1.25-4.95-2.05c-1.566-0.833-2.95-1.684-4.15-2.55c-1.5-1.2-2.933-2.45-4.3-3.75c-0.4-0.4-0.717-0.717-0.95-0.95
	c-0.133-0.065-0.233-0.167-0.3-0.3c-0.434-0.602-0.867-1.217-1.3-1.852c-0.566-0.832-1.133-1.532-1.7-2.1
	c-0.367-0.5-0.684-0.967-0.95-1.4c0-0.065-0.05-0.148-0.15-0.25c-1.4-1.267-2.65-2.75-3.75-4.448c-0.067-0.167-0.2-0.317-0.4-0.45
	c-0.2-0.232-0.35-0.482-0.45-0.75c-0.133-0.3-0.367-0.65-0.7-1.05c-1.167-1.5-2.217-2.617-3.15-3.351
	c-0.066-0.066-0.133-0.166-0.2-0.301c-0.2-0.5-0.55-0.865-1.05-1.1c-1.066-0.7-1.933-1.334-2.6-1.9c-0.7-0.566-1.55-1.316-2.55-2.25
	c-0.767-0.732-1.517-1.417-2.25-2.05c-0.267-0.267-0.55-0.517-0.85-0.75c-0.233-0.134-0.483-0.3-0.75-0.5C1.283,151,0.6,150.5,0,150
	c0.6-0.5,1.283-1,2.05-1.5c0.267-0.167,0.517-0.316,0.75-0.45c0.3-0.267,0.583-0.517,0.85-0.75c0.733-0.634,1.483-1.316,2.25-2.05
	c1-0.967,1.85-1.717,2.55-2.25c0.667-0.566,1.533-1.2,2.6-1.9c0.5-0.267,0.85-0.649,1.05-1.149c0.066-0.101,0.133-0.184,0.2-0.25
	c0.934-0.767,1.983-1.9,3.15-3.4c0.333-0.366,0.566-0.7,0.7-1c0.1-0.267,0.25-0.517,0.45-0.75c0.2-0.134,0.333-0.3,0.4-0.5
	c1.1-1.7,2.35-3.167,3.75-4.4c0.1-0.133,0.15-0.233,0.15-0.3c0.267-0.433,0.583-0.9,0.95-1.4c0.566-0.566,1.133-1.25,1.7-2.05
	c0.434-0.633,0.867-1.267,1.3-1.9c0.066-0.1,0.167-0.184,0.3-0.25c0.233-0.267,0.55-0.583,0.95-0.95c1.367-1.333,2.8-2.583,4.3-3.75
	c1.2-0.9,2.583-1.75,4.15-2.55c1.6-0.8,3.25-1.483,4.95-2.05c0.867-0.333,1.8-0.583,2.8-0.75c1-0.2,1.95-0.417,2.85-0.65
	c0.867-0.267,1.8-0.4,2.8-0.4c1.767,0.066,3.55,0.066,5.35,0c0.133-0.067,0.2-0.133,0.2-0.2c0.133-0.5,0.35-0.966,0.65-1.4
	c0.067-0.133,0.1-0.283,0.1-0.45c0.067-0.333,0.183-0.683,0.35-1.05c0.133-0.167,0.233-0.35,0.3-0.55
	c0.067-0.134,0.133-0.233,0.2-0.3c0.433-0.633,0.967-1.25,1.6-1.85c1.3-1.267,2.55-2.333,3.75-3.2c0.433-0.367,0.933-0.617,1.5-0.75
	c0.3-0.133,0.55-0.3,0.75-0.5c0.933-0.667,1.966-1.1,3.1-1.3c0.233-0.066,0.45-0.15,0.65-0.25c0.5-0.333,1-0.566,1.5-0.7
	c0.133-0.034,0.25-0.083,0.35-0.15c0.4-0.2,0.817-0.333,1.25-0.4c0.733-0.066,1.45-0.183,2.15-0.35c0.267,0,0.517-0.067,0.75-0.2
	c0.2-0.066,0.383-0.066,0.55,0c0.4,0.066,0.65,0,0.75-0.2c0.133-0.133,0.3-0.2,0.5-0.2c2.8,0,5.617,0.033,8.45,0.1
	c0.233,0,2.017,0.816,5.35,2.45c0.6,0.567,1.25,1.034,1.95,1.4c0.133,0.067,0.283,0.134,0.45,0.2c0.9,0.3,1.75,0.8,2.55,1.5
	c1,0.867,2.033,1.8,3.1,2.8c1.333,1.267,2.433,2.4,3.3,3.4c0.667,0.933,1.35,1.783,2.05,2.55c0.133,0.1,0.233,0.217,0.3,0.35
	c0.733,0.633,1.267,1.35,1.6,2.15c0.233,0.5,0.45,0.917,0.65,1.25c0.133,0.1,0.2,0.217,0.2,0.35c0.1,0.333,0.4,0.966,0.9,1.9
	c-2.3,3.3-4.2,6.767-5.7,10.4c-0.2-3-0.767-5.25-1.7-6.75c-0.434-0.7-0.75-1.167-0.95-1.4c-0.167-0.434-0.533-1-1.1-1.7
	c-0.2-0.2-0.4-0.383-0.6-0.55c-0.3-0.333-0.6-0.684-0.9-1.05c-0.7-0.8-1.333-1.517-1.9-2.15c-0.3-0.3-0.617-0.616-0.95-0.95
	c-0.8-0.667-1.55-1.2-2.25-1.6c-1.667-0.867-3.283-1.767-4.85-2.7c-0.267-0.133-0.517-0.233-0.75-0.3c-0.9-0.367-1.9-0.7-3-1
	c-0.333-0.133-0.65-0.233-0.95-0.3c-0.367-0.067-0.65-0.134-0.85-0.2c-0.267-0.066-0.8-0.133-1.6-0.2
	c-0.8-0.033-1.683,0.067-2.65,0.3c-0.3,0.133-0.633,0.2-1,0.2c-0.7,0-1.417,0.067-2.15,0.2c-0.133,0-0.267,0.017-0.4,0.05
	c-0.5,0.2-1,0.4-1.5,0.6c-1.867,0.667-3.517,1.733-4.95,3.2c-0.2,0.167-0.4,0.316-0.6,0.45c-0.3,0.3-0.583,0.617-0.85,0.95
	c-0.6,0.934-1.15,1.733-1.65,2.4c-0.4,0.5-0.75,1.017-1.05,1.55c-0.133,0.167-0.233,0.383-0.3,0.65c-0.067,0.1-0.15,0.216-0.25,0.35
	c-0.5,0.633-0.817,1.383-0.95,2.25c0,0.267,0,0.517,0,0.75c-0.067,0.7-0.5,0.9-1.3,0.6c-0.267-0.066-0.517-0.133-0.75-0.2
	c-1.767-0.4-3.617-0.6-5.55-0.6c-1.333,0-2.467,0.1-3.4,0.3c-1.067,0.267-2.1,0.684-3.1,1.25c-0.367,0.233-0.7,0.45-1,0.65
	c-0.2,0.1-0.417,0.15-0.65,0.15c-1.133,0.133-2.05,0.483-2.75,1.05c-0.2,0.2-0.417,0.383-0.65,0.55
	c-1.367,0.933-2.717,2.417-4.05,4.45c-0.133,0.1-0.25,0.217-0.35,0.35c-1.7,1.134-3.117,2.2-4.25,3.2c-2,1.8-3.784,3.366-5.35,4.7
	c-0.8,0.666-1.583,1.25-2.35,1.75c-0.733,0.5-1.167,1.1-1.3,1.8c0,0.133-0.067,0.267-0.2,0.399c-0.667,0.801-1.233,1.584-1.7,2.351
	c-0.1,0.166-0.183,0.383-0.25,0.649c-0.066,0.101-0.133,0.217-0.2,0.351c-0.567,1-1.184,1.783-1.85,2.35
	c-0.133,0.2-0.3,0.384-0.5,0.55c-0.233,0.334-0.483,0.584-0.75,0.75c0.267,0.334,0.517,0.65,0.75,0.951
	c0.2,0.199,0.367,0.383,0.5,0.549c0.667,0.567,1.283,1.352,1.85,2.352c0.066,0.133,0.133,0.268,0.2,0.398
	c0.067,0.233,0.15,0.451,0.25,0.65c0.467,0.768,1.034,1.551,1.7,2.35c0.133,0.135,0.2,0.25,0.2,0.352c0.133,0.7,0.566,1.3,1.3,1.8
	c0.767,0.5,1.55,1.101,2.35,1.8c1.566,1.301,3.35,2.867,5.35,4.7c1.133,1,2.55,2.066,4.25,3.2c0.1,0.1,0.216,0.217,0.35,0.35
	c1.333,2,2.684,3.467,4.05,4.4c0.233,0.2,0.45,0.398,0.65,0.6c0.7,0.533,1.617,0.867,2.75,1c0.233,0,0.45,0.066,0.65,0.2
	c0.3,0.2,0.633,0.417,1,0.65c1,0.565,2.033,0.966,3.1,1.198c0.933,0.201,2.067,0.302,3.4,0.302c1.934,0,3.783-0.185,5.55-0.552
	c0.233-0.065,0.483-0.133,0.75-0.198c0.8-0.302,1.233-0.117,1.3,0.55c0,0.268,0,0.518,0,0.75c0.133,0.898,0.45,1.648,0.95,2.25
	c0.1,0.133,0.183,0.268,0.25,0.398c0.066,0.233,0.167,0.451,0.3,0.65c0.3,0.5,0.65,1,1.05,1.5c0.5,0.7,1.05,1.518,1.65,2.45
	c0.267,0.3,0.55,0.616,0.85,0.95c0.2,0.1,0.4,0.25,0.6,0.449c1.434,1.434,3.083,2.5,4.95,3.199c0.5,0.2,1,0.385,1.5,0.551
	c0.133,0.066,0.267,0.101,0.4,0.101c0.733,0.133,1.45,0.2,2.15,0.2c0.367,0,0.7,0.066,1,0.199c0.967,0.232,1.85,0.316,2.65,0.25
	c0.8-0.066,1.333-0.133,1.6-0.199c0.2-0.034,0.483-0.084,0.85-0.15c0.3-0.066,0.617-0.167,0.95-0.3c1.1-0.3,2.1-0.649,3-1.05
	c0.233-0.034,0.483-0.117,0.75-0.25c1.566-0.934,3.183-1.852,4.85-2.75c0.7-0.367,1.45-0.9,2.25-1.602
	c0.333-0.3,0.65-0.6,0.95-0.898c0.567-0.635,1.2-1.367,1.9-2.2c0.3-0.367,0.6-0.7,0.9-1c0.2-0.2,0.4-0.384,0.6-0.55
	c0.567-0.7,0.934-1.268,1.1-1.7c0.2-0.267,0.517-0.733,0.95-1.399c0.933-1.5,1.5-3.768,1.7-6.801
	C100.833,174.083,102.683,177.467,104.95,180.7z M119.2,195c3.267,2.3,6.7,4.166,10.3,5.6c-3.067,0.2-5.35,0.768-6.85,1.7
	c-0.667,0.435-1.133,0.75-1.4,0.95c-0.433,0.166-1,0.533-1.7,1.1c-0.167,0.2-0.35,0.4-0.55,0.602c-0.3,0.3-0.633,0.6-1,0.898
	c-0.833,0.7-1.567,1.334-2.2,1.9c-0.3,0.3-0.6,0.616-0.9,0.95c-0.7,0.8-1.233,1.55-1.6,2.25c-0.9,1.666-1.816,3.282-2.75,4.85
	c-0.133,0.267-0.216,0.517-0.25,0.75c-0.4,0.9-0.75,1.9-1.05,3c-0.133,0.333-0.233,0.65-0.3,0.95
	c-0.067,0.366-0.117,0.648-0.15,0.85c-0.066,0.268-0.133,0.801-0.2,1.602c-0.067,0.8,0.017,1.683,0.25,2.648
	c0.133,0.301,0.2,0.635,0.2,1c0,0.7,0.067,1.418,0.2,2.15c0,0.133,0.033,0.268,0.1,0.398c0.167,0.5,0.35,1,0.55,1.5
	c0.7,1.867,1.767,3.518,3.2,4.951c0.2,0.199,0.35,0.399,0.45,0.601c0.333,0.3,0.65,0.583,0.95,0.85c0.933,0.601,1.75,1.15,2.45,1.65
	c0.5,0.399,1,0.75,1.5,1.05c0.2,0.133,0.417,0.232,0.65,0.3c0.133,0.066,0.267,0.15,0.4,0.25c0.6,0.5,1.35,0.816,2.25,0.95
	c0.233,0,0.483,0,0.75,0c0.667,0.066,0.85,0.5,0.55,1.3c-0.066,0.267-0.133,0.517-0.2,0.75c-0.367,1.767-0.55,3.616-0.55,5.55
	c0,1.334,0.1,2.467,0.3,3.4c0.233,1.066,0.633,2.1,1.2,3.1c0.233,0.367,0.45,0.7,0.65,1c0.133,0.2,0.2,0.418,0.2,0.65
	c0.133,1.133,0.467,2.05,1,2.75c0.2,0.2,0.4,0.416,0.6,0.648c0.933,1.367,2.4,2.718,4.4,4.052c0.133,0.133,0.25,0.25,0.35,0.35
	c1.133,1.7,2.2,3.116,3.2,4.25c1.833,2,3.4,3.783,4.7,5.351c0.7,0.801,1.3,1.584,1.8,2.351c0.5,0.733,1.1,1.166,1.8,1.3
	c0.1,0,0.217,0.066,0.35,0.2c0.8,0.666,1.583,1.233,2.35,1.7c0.2,0.1,0.417,0.183,0.65,0.25c0.133,0.066,0.267,0.133,0.4,0.199
	c1,0.566,1.783,1.184,2.35,1.851c0.167,0.133,0.35,0.3,0.55,0.5c0.3,0.233,0.55,0.483,0.75,0.75c0.3-0.267,0.618-0.517,0.95-0.75
	c0.168-0.2,0.352-0.367,0.551-0.5c0.566-0.667,1.351-1.282,2.351-1.851c0.133-0.066,0.25-0.133,0.351-0.199
	c0.268-0.067,0.483-0.15,0.649-0.25c0.767-0.467,1.55-1.034,2.351-1.7c0.133-0.134,0.268-0.2,0.399-0.2c0.7-0.134,1.3-0.566,1.8-1.3
	c0.5-0.767,1.083-1.55,1.75-2.351c1.333-1.566,2.9-3.351,4.7-5.351c1-1.134,2.065-2.55,3.2-4.25c0.134-0.1,0.25-0.217,0.35-0.35
	c2.034-1.334,3.518-2.685,4.45-4.052c0.166-0.232,0.351-0.448,0.55-0.648c0.567-0.7,0.917-1.617,1.051-2.75
	c0-0.232,0.051-0.45,0.149-0.65c0.2-0.3,0.416-0.633,0.649-1c0.566-1,0.982-2.033,1.25-3.1c0.199-0.934,0.301-2.066,0.301-3.4
	c0-1.934-0.2-3.783-0.602-5.55c-0.065-0.233-0.115-0.483-0.148-0.75c-0.333-0.8-0.15-1.233,0.55-1.3c0.233,0,0.483,0,0.75,0
	c0.867-0.134,1.617-0.45,2.25-0.95c0.133-0.1,0.25-0.184,0.351-0.25c0.268-0.065,0.5-0.167,0.699-0.3c0.5-0.3,1-0.65,1.5-1.05
	c0.667-0.5,1.467-1.052,2.4-1.65c0.333-0.267,0.648-0.55,0.949-0.85c0.134-0.2,0.301-0.4,0.5-0.601
	c1.435-1.435,2.482-3.084,3.149-4.951c0.2-0.5,0.4-1,0.601-1.5c0.033-0.133,0.051-0.267,0.051-0.398
	c0.134-0.732,0.199-1.45,0.199-2.15c0-0.365,0.066-0.699,0.199-1c0.269-0.967,0.367-1.85,0.301-2.648
	c-0.065-0.801-0.133-1.334-0.199-1.602c-0.067-0.199-0.135-0.482-0.2-0.85c-0.065-0.3-0.166-0.617-0.3-0.95
	c-0.301-1.1-0.635-2.1-1-3c-0.067-0.233-0.167-0.483-0.301-0.75c-0.934-1.565-1.834-3.184-2.699-4.85
	c-0.4-0.7-0.934-1.45-1.602-2.25c-0.332-0.334-0.648-0.65-0.949-0.95c-0.633-0.566-1.351-1.2-2.149-1.9
	c-0.367-0.3-0.717-0.6-1.05-0.898c-0.167-0.2-0.352-0.4-0.551-0.602c-0.699-0.565-1.268-0.934-1.699-1.1
	c-0.233-0.2-0.7-0.518-1.4-0.95c-1.5-0.934-3.75-1.5-6.75-1.7c3.567-1.434,6.95-3.25,10.15-5.449c1.1,0.334,1.816,0.551,2.148,0.649
	c0.135,0,0.25,0.066,0.352,0.2c0.333,0.2,0.75,0.416,1.25,0.648c0.8,0.334,1.517,0.867,2.148,1.602
	c0.135,0.066,0.25,0.166,0.352,0.3c0.767,0.7,1.615,1.384,2.55,2.05c1,0.867,2.133,1.967,3.399,3.301
	c1,1.066,1.935,2.101,2.801,3.101c0.699,0.8,1.199,1.649,1.5,2.55c0.066,0.167,0.134,0.316,0.199,0.45
	c0.367,0.7,0.834,1.351,1.399,1.95c1.634,3.333,2.45,5.115,2.45,5.35c0.066,2.833,0.1,5.65,0.1,8.45c0,0.2-0.065,0.366-0.199,0.5
	c-0.199,0.101-0.268,0.351-0.199,0.75c0.066,0.166,0.066,0.351,0,0.55c-0.135,0.268-0.2,0.518-0.2,0.75
	c-0.166,0.7-0.283,1.417-0.351,2.15c-0.065,0.433-0.199,0.85-0.399,1.25c-0.065,0.1-0.117,0.216-0.149,0.35
	c-0.134,0.5-0.367,1-0.699,1.5c-0.102,0.2-0.185,0.417-0.25,0.65c-0.2,1.133-0.635,2.166-1.301,3.1c-0.199,0.2-0.367,0.45-0.5,0.75
	c-0.134,0.566-0.384,1.066-0.75,1.5c-0.867,1.2-1.935,2.45-3.199,3.75c-0.602,0.635-1.217,1.167-1.852,1.6
	c-0.066,0.067-0.167,0.135-0.3,0.201c-0.2,0.065-0.383,0.166-0.55,0.299c-0.366,0.168-0.717,0.285-1.051,0.352
	c-0.166,0-0.315,0.033-0.449,0.1c-0.434,0.301-0.9,0.518-1.4,0.65c-0.066,0-0.134,0.066-0.199,0.2c-0.066,1.8-0.066,3.583,0,5.35
	c0,1-0.134,1.935-0.399,2.8c-0.233,0.9-0.45,1.852-0.65,2.852c-0.167,1-0.417,1.934-0.75,2.8c-0.565,1.7-1.25,3.351-2.05,4.95
	c-0.8,1.566-1.65,2.949-2.55,4.148c-1.167,1.5-2.417,2.935-3.75,4.301c-0.366,0.399-0.685,0.717-0.95,0.949
	c-0.066,0.135-0.15,0.233-0.25,0.301c-0.633,0.434-1.268,0.867-1.9,1.301c-0.8,0.566-1.481,1.133-2.05,1.699
	c-0.5,0.367-0.966,0.684-1.399,0.949c-0.065,0-0.166,0.051-0.301,0.15c-1.231,1.398-2.699,2.666-4.398,3.8
	c-0.2,0.033-0.366,0.15-0.5,0.351c-0.232,0.199-0.482,0.351-0.75,0.449c-0.301,0.135-0.635,0.367-1,0.701
	c-1.5,1.166-2.635,2.217-3.4,3.149c-0.066,0.065-0.148,0.133-0.25,0.198c-0.5,0.201-0.884,0.552-1.148,1.052
	c-0.7,1.065-1.316,1.933-1.852,2.601c-0.566,0.699-1.332,1.549-2.3,2.549c-0.733,0.768-1.416,1.518-2.05,2.25
	c-0.232,0.268-0.482,0.551-0.75,0.852c-0.135,0.232-0.284,0.482-0.45,0.75c-0.5,0.768-1,1.449-1.5,2.05c-0.5-0.601-1-1.282-1.5-2.05
	c-0.2-0.268-0.367-0.518-0.5-0.75c-0.233-0.301-0.483-0.584-0.75-0.852c-0.633-0.732-1.317-1.482-2.05-2.25
	c-0.934-1-1.684-1.85-2.25-2.549c-0.567-0.668-1.2-1.533-1.9-2.601c-0.233-0.5-0.6-0.851-1.1-1.052
	c-0.133-0.065-0.233-0.133-0.3-0.198c-0.733-0.935-1.85-1.983-3.35-3.149c-0.4-0.334-0.75-0.566-1.05-0.701
	c-0.267-0.1-0.517-0.25-0.75-0.449c-0.133-0.199-0.283-0.316-0.45-0.351c-1.7-1.134-3.183-2.399-4.45-3.8
	c-0.1-0.102-0.184-0.15-0.25-0.15c-0.434-0.267-0.9-0.582-1.4-0.949c-0.567-0.566-1.267-1.133-2.1-1.699
	c-0.633-0.434-1.25-0.867-1.85-1.301c-0.133-0.066-0.233-0.166-0.3-0.301c-0.233-0.232-0.55-0.549-0.95-0.949
	c-1.3-1.366-2.55-2.801-3.75-4.301c-0.867-1.199-1.717-2.582-2.55-4.148c-0.8-1.602-1.483-3.25-2.05-4.95
	c-0.3-0.866-0.55-1.8-0.75-2.8c-0.167-1-0.383-1.95-0.65-2.852c-0.233-0.865-0.35-1.799-0.35-2.799c0.033-1.768,0.033-3.551,0-5.351
	c-0.066-0.134-0.133-0.2-0.2-0.2c-0.5-0.134-0.967-0.352-1.4-0.65c-0.133-0.065-0.3-0.1-0.5-0.1c-0.3-0.066-0.633-0.184-1-0.352
	c-0.2-0.133-0.4-0.232-0.6-0.299c-0.1-0.066-0.184-0.134-0.25-0.201c-0.633-0.433-1.267-0.965-1.9-1.6c-1.233-1.3-2.3-2.55-3.2-3.75
	c-0.367-0.434-0.617-0.934-0.75-1.5c-0.1-0.3-0.25-0.55-0.45-0.75c-0.7-0.934-1.133-1.967-1.3-3.1c-0.067-0.233-0.167-0.45-0.3-0.65
	c-0.3-0.5-0.517-1-0.65-1.5c-0.066-0.134-0.133-0.25-0.2-0.35c-0.2-0.4-0.317-0.817-0.35-1.25c-0.067-0.733-0.2-1.45-0.4-2.15
	c0-0.232-0.067-0.482-0.2-0.75c-0.067-0.199-0.067-0.384,0-0.55c0.067-0.399,0.017-0.649-0.15-0.75c-0.133-0.134-0.2-0.3-0.2-0.5
	c0-2.8,0.033-5.617,0.1-8.45c0-0.232,0.8-2.017,2.4-5.35c0.567-0.602,1.05-1.25,1.45-1.95c0.066-0.134,0.117-0.283,0.15-0.45
	c0.333-0.9,0.833-1.75,1.5-2.55c0.9-1,1.85-2.033,2.85-3.101c1.233-1.334,2.35-2.434,3.35-3.301c0.966-0.666,1.816-1.35,2.55-2.05
	c0.133-0.134,0.267-0.233,0.4-0.3c0.6-0.732,1.317-1.268,2.15-1.602c0.5-0.232,0.9-0.448,1.2-0.648c0.133-0.134,0.267-0.2,0.4-0.2
	C117.517,195.7,118.2,195.434,119.2,195z M129.5,99.4c-3.6,1.466-7.067,3.383-10.4,5.75c-1-0.5-1.65-0.817-1.95-0.95
	c-0.133,0-0.267-0.066-0.4-0.2c-0.3-0.167-0.7-0.384-1.2-0.65c-0.833-0.3-1.55-0.833-2.15-1.6c-0.133-0.067-0.267-0.15-0.4-0.25
	c-0.733-0.7-1.583-1.4-2.55-2.1c-1-0.867-2.117-1.95-3.35-3.25c-1-1.067-1.95-2.1-2.85-3.1c-0.667-0.833-1.167-1.684-1.5-2.55
	c-0.033-0.2-0.083-0.35-0.15-0.45c-0.4-0.7-0.883-1.367-1.45-2c-1.6-3.3-2.4-5.083-2.4-5.35c-0.067-2.8-0.1-5.617-0.1-8.45
	c0-0.167,0.067-0.317,0.2-0.45c0.167-0.133,0.217-0.383,0.15-0.75c-0.067-0.2-0.067-0.383,0-0.55c0.133-0.267,0.2-0.517,0.2-0.75
	c0.2-0.7,0.333-1.434,0.4-2.2c0.033-0.434,0.15-0.833,0.35-1.2c0.066-0.133,0.133-0.267,0.2-0.4c0.133-0.5,0.35-1,0.65-1.5
	c0.133-0.167,0.233-0.383,0.3-0.65c0.167-1.1,0.6-2.133,1.3-3.1c0.2-0.167,0.35-0.417,0.45-0.75c0.133-0.566,0.383-1.066,0.75-1.5
	c0.9-1.167,1.967-2.417,3.2-3.75c0.633-0.633,1.267-1.167,1.9-1.6c0.066-0.066,0.15-0.116,0.25-0.15c0.2-0.066,0.4-0.167,0.6-0.3
	c0.367-0.2,0.7-0.333,1-0.4c0.2,0,0.367-0.017,0.5-0.05c0.434-0.333,0.9-0.566,1.4-0.7c0.066,0,0.133-0.05,0.2-0.15
	c0.033-1.833,0.033-3.616,0-5.35c0-1,0.117-1.95,0.35-2.85c0.267-0.867,0.483-1.8,0.65-2.8c0.2-1,0.45-1.933,0.75-2.8
	c0.567-1.7,1.25-3.367,2.05-5c0.833-1.567,1.683-2.933,2.55-4.1c1.2-1.5,2.45-2.95,3.75-4.35c0.4-0.367,0.717-0.683,0.95-0.95
	c0.066-0.1,0.167-0.184,0.3-0.25c0.6-0.434,1.217-0.867,1.85-1.3c0.833-0.566,1.533-1.133,2.1-1.7c0.5-0.4,0.966-0.717,1.4-0.95
	c0.066,0,0.15-0.066,0.25-0.2c1.267-1.367,2.75-2.617,4.45-3.75c0.167-0.067,0.317-0.184,0.45-0.35c0.233-0.2,0.483-0.367,0.75-0.5
	c0.3-0.133,0.65-0.35,1.05-0.65c1.5-1.2,2.617-2.267,3.35-3.2c0.067-0.067,0.167-0.133,0.3-0.2c0.5-0.167,0.867-0.5,1.1-1
	c0.7-1.066,1.333-1.95,1.9-2.65c0.566-0.667,1.316-1.5,2.25-2.5c0.733-0.767,1.417-1.517,2.05-2.25
	c0.267-0.267,0.517-0.55,0.75-0.85c0.133-0.267,0.3-0.517,0.5-0.75c0.5-0.767,1-1.466,1.5-2.1c0.5,0.633,1,1.333,1.5,2.1
	c0.166,0.233,0.316,0.483,0.45,0.75c0.267,0.3,0.517,0.583,0.75,0.85c0.634,0.733,1.315,1.483,2.05,2.25
	c0.967,1,1.732,1.833,2.3,2.5c0.534,0.7,1.15,1.583,1.851,2.65c0.267,0.5,0.649,0.833,1.149,1c0.101,0.067,0.185,0.133,0.25,0.2
	c0.767,0.933,1.9,2,3.4,3.2c0.366,0.3,0.7,0.517,1,0.65c0.267,0.133,0.517,0.3,0.75,0.5c0.134,0.167,0.3,0.283,0.5,0.35
	c1.7,1.133,3.167,2.383,4.399,3.75c0.133,0.133,0.233,0.2,0.301,0.2c0.434,0.233,0.898,0.55,1.398,0.95
	c0.567,0.566,1.25,1.133,2.051,1.7c0.633,0.434,1.268,0.867,1.899,1.3c0.101,0.066,0.185,0.15,0.25,0.25
	c0.267,0.267,0.584,0.583,0.95,0.95c1.333,1.4,2.583,2.85,3.75,4.35c0.898,1.167,1.75,2.533,2.55,4.1c0.8,1.633,1.483,3.3,2.05,5
	c0.333,0.867,0.583,1.8,0.75,2.8c0.2,1,0.417,1.934,0.65,2.8c0.267,0.9,0.398,1.85,0.398,2.85c-0.065,1.733-0.065,3.517,0,5.35
	c0.066,0.1,0.135,0.15,0.2,0.15c0.5,0.133,0.968,0.366,1.399,0.7c0.135,0.034,0.283,0.05,0.451,0.05
	c0.332,0.066,0.684,0.2,1.049,0.4c0.168,0.133,0.351,0.233,0.551,0.3c0.133,0.034,0.232,0.083,0.3,0.15
	c0.634,0.434,1.25,0.967,1.851,1.6c1.267,1.333,2.334,2.583,3.199,3.75c0.367,0.434,0.617,0.934,0.75,1.5
	c0.135,0.333,0.301,0.583,0.5,0.75c0.668,0.967,1.102,2,1.301,3.1c0.066,0.267,0.149,0.483,0.25,0.65c0.334,0.5,0.566,1,0.699,1.5
	c0.033,0.133,0.084,0.267,0.15,0.4c0.199,0.367,0.334,0.767,0.4,1.2c0.065,0.767,0.184,1.5,0.35,2.2c0,0.233,0.066,0.483,0.199,0.75
	c0.066,0.167,0.066,0.35,0,0.55c-0.066,0.367,0,0.617,0.201,0.75c0.133,0.133,0.199,0.283,0.199,0.45c0,2.833-0.033,5.65-0.101,8.45
	c0,0.267-0.815,2.05-2.45,5.35c-0.566,0.633-1.033,1.3-1.398,2c-0.066,0.1-0.135,0.25-0.201,0.45c-0.299,0.866-0.799,1.716-1.5,2.55
	c-0.865,1-1.799,2.033-2.799,3.1c-1.269,1.3-2.4,2.383-3.4,3.25c-0.934,0.7-1.783,1.4-2.551,2.1c-0.1,0.1-0.217,0.183-0.35,0.25
	c-0.634,0.767-1.351,1.3-2.15,1.6c-0.5,0.267-0.916,0.483-1.25,0.65c-0.1,0.133-0.217,0.2-0.35,0.2c-0.5,0.2-1,0.367-1.5,0.5
	c-0.134,0.034-0.267,0.083-0.4,0.15c-0.066,0-0.149,0.034-0.25,0.1c-2.699-1.933-5.549-3.55-8.549-4.85
	c-0.367-0.2-0.717-0.366-1.051-0.5c-0.232-0.066-0.449-0.133-0.65-0.2c3.066-0.167,5.351-0.717,6.851-1.65
	c0.7-0.467,1.167-0.784,1.399-0.95c0.434-0.2,1-0.583,1.701-1.15c0.199-0.167,0.383-0.35,0.549-0.55
	c0.334-0.3,0.684-0.616,1.051-0.95c0.8-0.667,1.518-1.284,2.15-1.85c0.299-0.333,0.615-0.65,0.949-0.95
	c0.666-0.8,1.199-1.55,1.6-2.25c0.867-1.7,1.768-3.333,2.701-4.9c0.133-0.233,0.231-0.483,0.299-0.75c0.367-0.867,0.701-1.867,1-3
	c0.135-0.3,0.234-0.617,0.301-0.95c0.066-0.367,0.133-0.634,0.199-0.8c0.066-0.267,0.135-0.8,0.201-1.6
	c0.065-0.833-0.033-1.716-0.301-2.65c-0.134-0.3-0.199-0.65-0.199-1.05c0-0.667-0.066-1.383-0.201-2.15
	c0-0.134-0.016-0.25-0.049-0.35c-0.201-0.5-0.4-1-0.602-1.5c-0.667-1.9-1.716-3.567-3.148-5c-0.201-0.167-0.367-0.35-0.5-0.55
	c-0.301-0.3-0.617-0.583-0.951-0.85c-0.934-0.634-1.732-1.2-2.399-1.7c-0.5-0.367-1-0.7-1.5-1c-0.2-0.133-0.433-0.233-0.7-0.3
	c-0.1-0.067-0.217-0.167-0.35-0.3c-0.633-0.5-1.383-0.8-2.25-0.9c-0.268,0-0.518,0-0.75,0c-0.7-0.066-0.883-0.517-0.551-1.35
	c0.033-0.233,0.084-0.483,0.15-0.75c0.399-1.733,0.6-3.583,0.6-5.55c0-1.3-0.1-2.417-0.299-3.35c-0.269-1.066-0.685-2.1-1.25-3.1
	c-0.234-0.367-0.451-0.716-0.65-1.05c-0.1-0.167-0.15-0.383-0.15-0.65c-0.133-1.133-0.481-2.034-1.05-2.7
	c-0.2-0.2-0.384-0.417-0.55-0.65c-0.934-1.4-2.416-2.75-4.45-4.05c-0.101-0.133-0.216-0.267-0.351-0.4
	c-1.133-1.667-2.199-3.066-3.199-4.2c-1.801-2-3.367-3.784-4.7-5.35c-0.667-0.833-1.25-1.617-1.75-2.35
	c-0.5-0.767-1.101-1.2-1.8-1.3c-0.133,0-0.268-0.067-0.4-0.2c-0.8-0.7-1.582-1.267-2.35-1.7c-0.166-0.133-0.383-0.233-0.65-0.3
	c-0.1-0.033-0.217-0.083-0.35-0.15c-1-0.567-1.783-1.2-2.35-1.9c-0.201-0.133-0.385-0.284-0.551-0.45
	c-0.334-0.267-0.583-0.517-0.75-0.75c-0.333,0.233-0.649,0.483-0.95,0.75c-0.2,0.167-0.383,0.317-0.55,0.45
	c-0.567,0.7-1.35,1.333-2.35,1.9c-0.133,0.066-0.267,0.117-0.4,0.15c-0.233,0.067-0.45,0.167-0.65,0.3c-0.767,0.434-1.55,1-2.35,1.7
	c-0.133,0.133-0.25,0.2-0.35,0.2c-0.7,0.1-1.3,0.533-1.8,1.3c-0.5,0.733-1.1,1.517-1.8,2.35c-1.3,1.566-2.867,3.35-4.7,5.35
	c-1,1.133-2.067,2.533-3.2,4.2c-0.1,0.133-0.217,0.267-0.35,0.4c-2,1.3-3.467,2.65-4.4,4.05c-0.2,0.233-0.4,0.45-0.6,0.65
	c-0.533,0.667-0.867,1.567-1,2.7c0,0.267-0.066,0.483-0.2,0.65c-0.2,0.333-0.417,0.683-0.65,1.05c-0.566,1-0.966,2.034-1.2,3.1
	c-0.2,0.934-0.3,2.05-0.3,3.35c0,1.966,0.184,3.816,0.55,5.55c0.066,0.267,0.133,0.517,0.2,0.75c0.3,0.833,0.117,1.284-0.55,1.35
	c-0.267,0-0.517,0-0.75,0c-0.9,0.1-1.65,0.4-2.25,0.9c-0.133,0.133-0.267,0.233-0.4,0.3c-0.233,0.066-0.45,0.167-0.65,0.3
	c-0.5,0.3-1,0.633-1.5,1c-0.7,0.5-1.517,1.066-2.45,1.7c-0.3,0.267-0.617,0.55-0.95,0.85c-0.1,0.2-0.25,0.384-0.45,0.55
	c-1.434,1.433-2.5,3.1-3.2,5c-0.2,0.5-0.383,1-0.55,1.5c-0.067,0.1-0.1,0.216-0.1,0.35c-0.133,0.767-0.2,1.483-0.2,2.15
	c0,0.4-0.066,0.75-0.2,1.05c-0.233,0.934-0.317,1.817-0.25,2.65c0.066,0.8,0.133,1.333,0.2,1.6c0.034,0.167,0.083,0.434,0.15,0.8
	c0.066,0.333,0.167,0.65,0.3,0.95c0.3,1.133,0.65,2.133,1.05,3c0.034,0.267,0.117,0.517,0.25,0.75c0.934,1.567,1.85,3.2,2.75,4.9
	c0.367,0.7,0.9,1.45,1.6,2.25c0.3,0.3,0.6,0.617,0.9,0.95c0.633,0.566,1.367,1.184,2.2,1.85c0.367,0.333,0.7,0.65,1,0.95
	c0.2,0.2,0.383,0.384,0.55,0.55c0.7,0.566,1.267,0.95,1.7,1.15c0.267,0.167,0.733,0.483,1.4,0.95
	C124.15,98.683,126.433,99.233,129.5,99.4z M200.6,129.55c-1.467-3.633-3.315-7.05-5.55-10.25c0.366-1.1,0.616-1.816,0.75-2.15
	c0-0.133,0.067-0.25,0.2-0.35c0.166-0.333,0.383-0.75,0.65-1.25c0.3-0.8,0.832-1.517,1.6-2.15c0.066-0.133,0.15-0.25,0.25-0.35
	c0.7-0.767,1.4-1.617,2.1-2.55c0.867-1,1.95-2.134,3.25-3.4c1.066-1,2.102-1.933,3.102-2.8c0.833-0.7,1.683-1.2,2.55-1.5
	c0.2-0.066,0.351-0.133,0.45-0.2c0.699-0.366,1.365-0.833,2-1.4c3.3-1.633,5.083-2.45,5.35-2.45c2.801-0.067,5.616-0.1,8.45-0.1
	c0.166,0,0.315,0.066,0.45,0.2c0.134,0.2,0.384,0.267,0.75,0.2c0.199-0.066,0.384-0.066,0.55,0c0.267,0.133,0.517,0.2,0.75,0.2
	c0.7,0.167,1.435,0.283,2.2,0.35c0.433,0.067,0.833,0.2,1.199,0.4c0.134,0.066,0.267,0.116,0.399,0.15c0.5,0.133,1,0.367,1.5,0.7
	c0.167,0.1,0.384,0.184,0.65,0.25c1.1,0.2,2.134,0.634,3.1,1.3c0.167,0.2,0.417,0.367,0.75,0.5c0.567,0.133,1.067,0.383,1.5,0.75
	c1.167,0.867,2.417,1.933,3.75,3.2c0.634,0.6,1.167,1.217,1.601,1.85c0.066,0.067,0.117,0.167,0.149,0.3
	c0.067,0.2,0.167,0.383,0.3,0.55c0.2,0.367,0.334,0.717,0.4,1.05c0,0.167,0.018,0.317,0.05,0.45c0.333,0.434,0.567,0.9,0.7,1.4
	c0,0.067,0.05,0.133,0.15,0.2c1.832,0.066,3.615,0.066,5.35,0c1,0,1.95,0.133,2.85,0.4c0.867,0.233,1.801,0.45,2.801,0.65
	c1,0.167,1.935,0.417,2.801,0.75c1.699,0.567,3.365,1.25,5,2.05c1.566,0.8,2.933,1.65,4.1,2.55c1.534,1.167,2.983,2.417,4.352,3.75
	c0.365,0.367,0.684,0.684,0.949,0.95c0.101,0.066,0.184,0.15,0.25,0.25c0.434,0.633,0.883,1.267,1.351,1.9
	c0.532,0.8,1.083,1.483,1.649,2.05c0.399,0.5,0.717,0.967,0.949,1.4c0,0.067,0.067,0.167,0.2,0.3c1.367,1.233,2.617,2.7,3.75,4.4
	c0.065,0.2,0.185,0.366,0.351,0.5c0.199,0.233,0.367,0.483,0.5,0.75c0.133,0.3,0.351,0.634,0.649,1c1.2,1.5,2.267,2.634,3.2,3.4
	c0.066,0.066,0.134,0.149,0.199,0.25c0.166,0.5,0.5,0.883,1,1.149c1.066,0.7,1.949,1.334,2.649,1.9c0.667,0.533,1.5,1.283,2.5,2.25
	c0.767,0.733,1.534,1.416,2.3,2.05c0.234,0.233,0.5,0.483,0.801,0.75c0.267,0.134,0.517,0.283,0.75,0.45
	c0.767,0.5,1.468,1,2.101,1.5c-0.633,0.5-1.334,1-2.101,1.5c-0.233,0.2-0.483,0.366-0.75,0.5c-0.301,0.233-0.565,0.483-0.801,0.75
	c-0.766,0.633-1.533,1.315-2.3,2.05c-1,0.934-1.833,1.684-2.5,2.25c-0.7,0.566-1.583,1.2-2.649,1.9c-0.5,0.232-0.834,0.6-1,1.1
	c-0.065,0.135-0.133,0.233-0.199,0.301c-0.934,0.732-2,1.851-3.2,3.351c-0.3,0.399-0.517,0.75-0.649,1.05
	c-0.133,0.268-0.301,0.518-0.5,0.75c-0.166,0.133-0.283,0.283-0.351,0.45c-1.133,1.698-2.383,3.183-3.75,4.448
	c-0.133,0.102-0.2,0.185-0.2,0.25c-0.232,0.435-0.55,0.9-0.949,1.4c-0.566,0.566-1.117,1.268-1.649,2.1
	c-0.468,0.635-0.917,1.25-1.351,1.852c-0.066,0.133-0.149,0.232-0.25,0.3c-0.267,0.233-0.584,0.55-0.949,0.95
	c-1.367,1.3-2.816,2.55-4.352,3.75c-1.167,0.866-2.533,1.717-4.1,2.55c-1.635,0.8-3.301,1.483-5,2.05
	c-0.866,0.301-1.801,0.551-2.801,0.75c-1,0.168-1.934,0.385-2.801,0.65c-0.898,0.232-1.85,0.35-2.85,0.35
	c-1.732-0.033-3.518-0.033-5.35,0c-0.102,0.066-0.15,0.135-0.15,0.2c-0.133,0.5-0.367,0.968-0.7,1.4c-0.032,0.133-0.05,0.3-0.05,0.5
	c-0.066,0.3-0.2,0.633-0.4,1c-0.133,0.198-0.231,0.399-0.3,0.6c-0.032,0.101-0.083,0.185-0.149,0.25
	c-0.434,0.634-0.967,1.267-1.601,1.9c-1.333,1.233-2.583,2.3-3.75,3.198c-0.433,0.367-0.933,0.617-1.5,0.75
	c-0.333,0.102-0.583,0.25-0.75,0.451c-0.966,0.699-2,1.133-3.1,1.299c-0.267,0.067-0.483,0.168-0.65,0.302
	c-0.5,0.3-1,0.517-1.5,0.649c-0.134,0.065-0.267,0.133-0.399,0.199c-0.366,0.2-0.768,0.316-1.199,0.35
	c-0.768,0.067-1.5,0.201-2.2,0.4c-0.233,0-0.483,0.066-0.75,0.2c-0.166,0.065-0.351,0.065-0.55,0
	c-0.366-0.065-0.616-0.017-0.75,0.149c-0.135,0.134-0.284,0.199-0.45,0.199c-2.834,0-5.649-0.033-8.45-0.1
	c-0.267,0-2.05-0.8-5.35-2.4c-0.635-0.565-1.301-1.05-2-1.449c-0.102-0.066-0.25-0.116-0.45-0.149
	c-0.867-0.334-1.717-0.834-2.55-1.5c-1-0.899-2.034-1.851-3.102-2.851c-1.3-1.233-2.383-2.351-3.25-3.351
	c-0.699-0.934-1.398-1.782-2.1-2.55c-0.1-0.134-0.184-0.268-0.25-0.4c-0.768-0.6-1.3-1.315-1.6-2.148c-0.269-0.5-0.484-0.9-0.65-1.2
	c-0.133-0.134-0.2-0.267-0.2-0.399c-0.134-0.301-0.384-0.983-0.75-2.051c2.233-3.267,4.083-6.684,5.55-10.25
	c0.168,3.033,0.717,5.301,1.65,6.801c0.467,0.666,0.783,1.133,0.95,1.399c0.2,0.435,0.583,1,1.149,1.7
	c0.166,0.166,0.351,0.35,0.551,0.55c0.3,0.3,0.615,0.633,0.949,1c0.666,0.833,1.282,1.565,1.851,2.2c0.333,0.3,0.649,0.6,0.95,0.898
	c0.8,0.7,1.55,1.233,2.25,1.602c1.699,0.898,3.332,1.816,4.898,2.75c0.233,0.133,0.483,0.216,0.75,0.25
	c0.866,0.398,1.866,0.75,3,1.05c0.301,0.133,0.616,0.233,0.95,0.3c0.367,0.066,0.633,0.116,0.8,0.15
	c0.268,0.066,0.801,0.133,1.602,0.199c0.832,0.066,1.717-0.018,2.648-0.25c0.301-0.133,0.65-0.199,1.051-0.199
	c0.666,0,1.383-0.067,2.149-0.2c0.133,0,0.25-0.033,0.351-0.101c0.5-0.166,1-0.351,1.5-0.551c1.899-0.699,3.565-1.767,5-3.199
	c0.166-0.199,0.351-0.351,0.551-0.449c0.332-0.334,0.615-0.65,0.85-0.95c0.633-0.935,1.2-1.75,1.7-2.45c0.366-0.5,0.7-1,1-1.5
	c0.134-0.199,0.233-0.417,0.3-0.65c0.066-0.133,0.166-0.267,0.3-0.398c0.5-0.602,0.8-1.352,0.9-2.25c0-0.232,0-0.482,0-0.75
	c0.065-0.667,0.517-0.852,1.35-0.55c0.233,0.065,0.483,0.133,0.75,0.198c1.733,0.367,3.583,0.552,5.55,0.552
	c1.301,0,2.418-0.101,3.352-0.302c1.066-0.232,2.1-0.633,3.1-1.198c0.366-0.233,0.717-0.45,1.051-0.65
	c0.166-0.134,0.383-0.2,0.649-0.2c1.133-0.133,2.033-0.467,2.7-1c0.199-0.199,0.417-0.398,0.648-0.6c1.4-0.934,2.75-2.4,4.051-4.4
	c0.134-0.133,0.267-0.25,0.399-0.35c1.667-1.134,3.067-2.2,4.2-3.2c2-1.833,3.783-3.399,5.35-4.7c0.834-0.699,1.617-1.3,2.352-1.8
	c0.767-0.5,1.199-1.1,1.3-1.8c0-0.102,0.065-0.217,0.2-0.352c0.699-0.799,1.267-1.582,1.699-2.35
	c0.134-0.199,0.232-0.417,0.301-0.65c0.033-0.133,0.083-0.267,0.148-0.398c0.566-1,1.2-1.783,1.9-2.352
	c0.133-0.166,0.283-0.35,0.45-0.549c0.267-0.301,0.517-0.551,0.75-0.75c-0.233-0.3-0.483-0.616-0.75-0.95
	c-0.167-0.166-0.317-0.35-0.45-0.55c-0.7-0.566-1.334-1.35-1.9-2.35c-0.065-0.134-0.115-0.25-0.148-0.351
	c-0.067-0.267-0.167-0.483-0.301-0.649c-0.434-0.767-1-1.55-1.699-2.351c-0.135-0.133-0.2-0.267-0.2-0.399
	c-0.101-0.7-0.533-1.3-1.3-1.8c-0.733-0.5-1.518-1.084-2.352-1.75c-1.565-1.334-3.35-2.9-5.35-4.7c-1.133-1-2.533-2.066-4.2-3.2
	c-0.134-0.133-0.267-0.25-0.399-0.35c-1.301-2.033-2.649-3.517-4.051-4.45c-0.231-0.167-0.449-0.35-0.648-0.55
	c-0.667-0.566-1.567-0.917-2.7-1.05c-0.267,0-0.483-0.05-0.649-0.15c-0.334-0.2-0.685-0.417-1.051-0.65
	c-1-0.566-2.033-0.983-3.1-1.25c-0.934-0.2-2.051-0.3-3.352-0.3c-1.967,0-3.815,0.2-5.55,0.6c-0.267,0.066-0.517,0.133-0.75,0.2
	c-0.833,0.3-1.282,0.1-1.35-0.6c0-0.233,0-0.483,0-0.75c-0.101-0.867-0.4-1.617-0.9-2.25c-0.134-0.134-0.233-0.25-0.3-0.35
	c-0.066-0.267-0.166-0.483-0.3-0.65c-0.3-0.534-0.634-1.05-1-1.55c-0.5-0.667-1.067-1.466-1.7-2.4
	c-0.232-0.333-0.518-0.65-0.85-0.95c-0.2-0.133-0.385-0.283-0.551-0.45c-1.435-1.467-3.101-2.534-5-3.2c-0.5-0.2-1-0.4-1.5-0.6
	c-0.101-0.033-0.218-0.05-0.351-0.05c-0.767-0.133-1.483-0.2-2.149-0.2c-0.399,0-0.75-0.066-1.051-0.2
	c-0.933-0.233-1.816-0.333-2.648-0.3c-0.801,0.067-1.334,0.134-1.602,0.2c-0.167,0.066-0.433,0.133-0.8,0.2
	c-0.334,0.066-0.649,0.167-0.95,0.3c-1.134,0.3-2.134,0.633-3,1c-0.267,0.066-0.517,0.167-0.75,0.3
	c-1.566,0.934-3.199,1.833-4.898,2.7c-0.7,0.4-1.45,0.934-2.25,1.6c-0.301,0.333-0.617,0.65-0.95,0.95
	c-0.567,0.634-1.185,1.35-1.851,2.15c-0.334,0.366-0.649,0.716-0.949,1.05c-0.2,0.167-0.385,0.35-0.551,0.55
	c-0.566,0.7-0.949,1.267-1.149,1.7c-0.167,0.233-0.483,0.7-0.95,1.4C201.316,124.2,200.768,126.483,200.6,129.55z"/>
<path fill="#8C8C8C" d="M96.4,159.7c0.633,3.733,1.633,7.35,3,10.85c-0.2,3.033-0.767,5.3-1.7,6.8c-0.434,0.668-0.75,1.135-0.95,1.4
	c-0.167,0.434-0.533,1-1.1,1.7c-0.2,0.166-0.4,0.35-0.6,0.55c-0.3,0.3-0.6,0.633-0.9,1c-0.7,0.833-1.333,1.566-1.9,2.2
	c-0.3,0.3-0.617,0.6-0.95,0.899c-0.8,0.699-1.55,1.232-2.25,1.601c-1.667,0.899-3.283,1.815-4.85,2.75
	c-0.267,0.133-0.517,0.216-0.75,0.25c-0.9,0.399-1.9,0.75-3,1.05c-0.333,0.133-0.65,0.232-0.95,0.3
	c-0.367,0.066-0.65,0.116-0.85,0.15c-0.267,0.065-0.8,0.133-1.6,0.198c-0.8,0.067-1.683-0.017-2.65-0.25
	c-0.3-0.133-0.633-0.198-1-0.198c-0.7,0-1.417-0.067-2.15-0.2c-0.133,0-0.267-0.033-0.4-0.102c-0.5-0.166-1-0.35-1.5-0.549
	c-1.867-0.701-3.517-1.768-4.95-3.201c-0.2-0.198-0.4-0.35-0.6-0.448c-0.3-0.334-0.583-0.65-0.85-0.95
	c-0.6-0.934-1.15-1.75-1.65-2.45c-0.4-0.5-0.75-1-1.05-1.5c-0.133-0.2-0.233-0.417-0.3-0.649c-0.067-0.133-0.15-0.268-0.25-0.399
	c-0.5-0.601-0.817-1.351-0.95-2.25c0-0.233,0-0.483,0-0.75c-0.067-0.667-0.5-0.851-1.3-0.55c-0.267,0.066-0.517,0.133-0.75,0.199
	c-1.767,0.367-3.617,0.551-5.55,0.551c-1.333,0-2.467-0.102-3.4-0.301c-1.067-0.233-2.1-0.633-3.1-1.199
	c-0.367-0.233-0.7-0.45-1-0.65c-0.2-0.134-0.417-0.199-0.65-0.199c-1.133-0.134-2.05-0.468-2.75-1
	c-0.2-0.201-0.417-0.399-0.65-0.601c-1.367-0.935-2.717-2.399-4.05-4.399c-0.133-0.134-0.25-0.25-0.35-0.351
	c-1.7-1.134-3.117-2.2-4.25-3.2c-2-1.833-3.784-3.4-5.35-4.699c-0.8-0.701-1.583-1.301-2.35-1.801c-0.733-0.5-1.167-1.1-1.3-1.8
	c0-0.101-0.067-0.217-0.2-0.351c-0.667-0.801-1.233-1.584-1.7-2.351c-0.1-0.2-0.183-0.417-0.25-0.649
	c-0.066-0.133-0.133-0.268-0.2-0.399c-0.567-1-1.184-1.783-1.85-2.351c-0.133-0.166-0.3-0.351-0.5-0.551
	c-0.233-0.3-0.483-0.616-0.75-0.95c0.267-0.166,0.517-0.416,0.75-0.75c0.2-0.166,0.367-0.35,0.5-0.55
	c0.667-0.566,1.283-1.35,1.85-2.35c0.066-0.134,0.133-0.25,0.2-0.351c0.067-0.267,0.15-0.483,0.25-0.649
	c0.467-0.767,1.034-1.55,1.7-2.351c0.133-0.133,0.2-0.267,0.2-0.399c0.133-0.7,0.566-1.3,1.3-1.8c0.767-0.5,1.55-1.084,2.35-1.75
	c1.566-1.334,3.35-2.9,5.35-4.7c1.133-1,2.55-2.066,4.25-3.2c0.1-0.133,0.216-0.25,0.35-0.35c1.333-2.033,2.684-3.517,4.05-4.45
	c0.233-0.167,0.45-0.35,0.65-0.55c0.7-0.566,1.617-0.917,2.75-1.05c0.233,0,0.45-0.05,0.65-0.15c0.3-0.2,0.633-0.417,1-0.65
	c1-0.566,2.033-0.983,3.1-1.25c0.933-0.2,2.067-0.3,3.4-0.3c1.934,0,3.783,0.2,5.55,0.6c0.233,0.066,0.483,0.133,0.75,0.2
	c0.8,0.3,1.233,0.1,1.3-0.6c0-0.233,0-0.483,0-0.75c0.133-0.867,0.45-1.617,0.95-2.25c0.1-0.134,0.183-0.25,0.25-0.35
	c0.066-0.267,0.167-0.483,0.3-0.65c0.3-0.534,0.65-1.05,1.05-1.55c0.5-0.667,1.05-1.466,1.65-2.4c0.267-0.333,0.55-0.65,0.85-0.95
	c0.2-0.133,0.4-0.283,0.6-0.45c1.434-1.467,3.083-2.534,4.95-3.2c0.5-0.2,1-0.4,1.5-0.6c0.133-0.033,0.267-0.05,0.4-0.05
	c0.733-0.133,1.45-0.2,2.15-0.2c0.367,0,0.7-0.066,1-0.2c0.967-0.233,1.85-0.333,2.65-0.3c0.8,0.067,1.333,0.134,1.6,0.2
	c0.2,0.066,0.483,0.133,0.85,0.2c0.3,0.066,0.617,0.167,0.95,0.3c1.1,0.3,2.1,0.633,3,1c0.233,0.066,0.483,0.167,0.75,0.3
	c1.566,0.934,3.183,1.833,4.85,2.7c0.7,0.4,1.45,0.934,2.25,1.6c0.333,0.333,0.65,0.65,0.95,0.95c0.567,0.634,1.2,1.35,1.9,2.15
	c0.3,0.366,0.6,0.716,0.9,1.05c0.2,0.167,0.4,0.35,0.6,0.55c0.567,0.7,0.934,1.267,1.1,1.7c0.2,0.233,0.517,0.7,0.95,1.4
	c0.933,1.5,1.5,3.75,1.7,6.75c-1.433,3.5-2.433,7.133-3,10.9c-0.333,0.134-0.617,0.25-0.85,0.351
	c-0.367,0.399-0.833,0.716-1.4,0.949c-0.267,0.134-0.483,0.301-0.65,0.5l-0.1,0.051c-0.066,0-0.133,0-0.2,0
	c-0.133,0.199-0.317,0.366-0.55,0.5c-0.433,0.233-0.917,0.449-1.45,0.649c-0.034,0-0.083,0.033-0.15,0.101
	c-0.066,0.133-0.383,0.283-0.95,0.449c-0.567,0.267-1.067,0.434-1.5,0.5c-0.5,0.101-1.067,0.15-1.7,0.15c-0.7,0-1.1,0-1.2,0
	c-0.9,0.134-1.784,0.2-2.65,0.2c-4.566,0.2-7.783-1.167-9.65-4.101c-0.267-0.466-0.517-0.949-0.75-1.449
	c-0.133-0.233-0.2-0.483-0.2-0.75c-0.133-1.233-0.133-2.483,0-3.75c0-0.101,0.033-0.217,0.1-0.351
	c0.067-0.267,0.167-0.483,0.3-0.649c0.1-0.2,0.25-0.4,0.45-0.601c0.3-0.3,0.617-0.6,0.95-0.899c0.167-0.134,0.35-0.301,0.55-0.5
	c0.867-1,2.017-1.434,3.45-1.3c0.267,0.066,0.517,0.133,0.75,0.2c0.4,0.067,0.783,0.117,1.15,0.15c0.133,0.066,0.25,0.133,0.35,0.2
	c0.633,0.333,1.05,0.65,1.25,0.95c0.7,0.934,1.633,1.584,2.8,1.95c0.267,0.066,0.483,0.05,0.65-0.05c0.2-0.134,0.4-0.3,0.6-0.5
	c1-0.934,1.4-2.434,1.2-4.5c0-0.5-0.033-1-0.1-1.5c-0.066-0.267-0.133-0.483-0.2-0.65c-0.667-1.767-1.5-3.4-2.5-4.9
	c-0.133-0.134-0.267-0.217-0.4-0.25c-0.5-0.2-0.9-0.45-1.2-0.75c-0.7-0.567-1.65-0.85-2.85-0.85c-1.233,0-2.483,0.033-3.75,0.1
	c-0.5,0.033-1,0.116-1.5,0.25c-1.867,0.5-3.45,1.25-4.75,2.25c-1.4,1.066-3,2.566-4.8,4.5c-0.2,0.2-0.383,0.4-0.55,0.6
	c-0.9,0.934-1.35,2.333-1.35,4.2v1.05c-0.233,0-0.483-0.033-0.75-0.1c-0.1-0.066-0.216-0.134-0.35-0.2
	c-0.267-0.066-0.434-0.167-0.5-0.3c-0.167-0.3-0.5-0.417-1-0.351c-1.267,0.134-2.517,0.25-3.75,0.351c-0.133,0-0.267,0-0.4,0
	c-1.2,0.133-2.417,0.233-3.65,0.3c-0.5,0.066-1,0.167-1.5,0.3c-0.5,0.134-1,0.217-1.5,0.25c-0.267,0.066-0.483,0.167-0.65,0.3
	c-0.7,0.567-1.617,1.034-2.75,1.4c-0.233,0.066-0.483,0.167-0.75,0.3c-0.633,0.233-1.217,0.517-1.75,0.851
	c-0.133,0.066-0.267,0.116-0.4,0.149c-0.233,0.066-0.45,0.167-0.65,0.3c-1.133,0.767-2.417,1.7-3.85,2.801
	c-0.367,0.267-0.717,0.55-1.05,0.85c-1.066,1.267-2.1,2.55-3.1,3.85c-0.6,0.934-1.133,1.75-1.6,2.45
	c-1.167,1.834-2.633,3.05-4.4,3.65c1.767,0.633,3.233,1.866,4.4,3.7c0.467,0.666,1,1.466,1.6,2.398c1,1.334,2.033,2.617,3.1,3.852
	c0.333,0.333,0.684,0.615,1.05,0.85c1.433,1.135,2.717,2.083,3.85,2.85c0.2,0.102,0.417,0.185,0.65,0.25
	c0.133,0.067,0.267,0.135,0.4,0.201c0.533,0.299,1.117,0.584,1.75,0.851c0.267,0.133,0.517,0.216,0.75,0.25
	c1.133,0.399,2.05,0.883,2.75,1.448c0.167,0.102,0.383,0.185,0.65,0.25c0.5,0.067,1,0.168,1.5,0.302c0.5,0.133,1,0.216,1.5,0.25
	c1.233,0.065,2.45,0.166,3.65,0.3c0.133,0,0.267,0,0.4,0c1.233,0.133,2.483,0.268,3.75,0.398c0.5,0.067,0.833-0.065,1-0.398
	c0.066-0.134,0.233-0.232,0.5-0.3c0.133-0.034,0.25-0.084,0.35-0.15c0.267-0.065,0.517-0.1,0.75-0.1v1.05
	c0,1.866,0.45,3.268,1.35,4.2c0.167,0.198,0.35,0.383,0.55,0.55c1.8,1.934,3.4,3.434,4.8,4.5c1.3,1,2.883,1.75,4.75,2.25
	c0.5,0.133,1,0.232,1.5,0.3c1.267,0.066,2.517,0.101,3.75,0.101c1.2,0,2.15-0.283,2.85-0.851c0.3-0.3,0.7-0.55,1.2-0.75
	c0.133-0.065,0.267-0.167,0.4-0.3c1-1.5,1.833-3.117,2.5-4.852c0.066-0.198,0.133-0.416,0.2-0.648c0.067-0.5,0.1-1,0.1-1.5
	c0.2-2.066-0.2-3.584-1.2-4.55c-0.2-0.167-0.4-0.317-0.6-0.45c-0.167-0.134-0.383-0.167-0.65-0.102c-1.167,0.367-2.1,1.035-2.8,2
	c-0.2,0.302-0.617,0.602-1.25,0.9c-0.1,0.066-0.217,0.135-0.35,0.2c-0.367,0.065-0.75,0.133-1.15,0.2
	c-0.233,0.066-0.483,0.133-0.75,0.199c-1.433,0.101-2.583-0.351-3.45-1.351c-0.2-0.167-0.383-0.315-0.55-0.45
	c-0.333-0.3-0.65-0.615-0.95-0.949c-0.2-0.166-0.35-0.351-0.45-0.551c-0.133-0.199-0.233-0.416-0.3-0.648
	c-0.066-0.135-0.1-0.268-0.1-0.4c-0.133-1.232-0.133-2.482,0-3.75c0-0.232,0.066-0.482,0.2-0.75c0.233-0.5,0.483-0.967,0.75-1.4
	c1.867-2.933,5.083-4.315,9.65-4.148c0.867,0,1.75,0.066,2.65,0.2c0.1,0,0.5,0,1.2,0c0.633,0,1.2,0.065,1.7,0.198
	c0.433,0.067,0.933,0.218,1.5,0.451c0.566,0.199,0.883,0.366,0.95,0.5c0.067,0.065,0.117,0.101,0.15,0.101
	c0.533,0.166,1.017,0.383,1.45,0.649c0.233,0.101,0.417,0.25,0.55,0.449c0.066,0,0.133,0,0.2,0l0.1,0.1
	c0.167,0.201,0.383,0.352,0.65,0.451c0.567,0.267,1.033,0.584,1.4,0.949C95.783,159.434,96.067,159.566,96.4,159.7z M203.7,140.45
	c-0.7-3.834-1.733-7.467-3.101-10.9c0.166-3.066,0.717-5.35,1.649-6.85c0.467-0.7,0.783-1.167,0.95-1.4
	c0.199-0.434,0.583-1,1.148-1.7c0.168-0.2,0.352-0.383,0.551-0.55c0.301-0.333,0.617-0.684,0.949-1.05
	c0.668-0.8,1.283-1.517,1.852-2.15c0.333-0.3,0.648-0.616,0.949-0.95c0.801-0.667,1.551-1.2,2.25-1.6
	c1.699-0.867,3.334-1.767,4.899-2.7c0.233-0.133,0.483-0.233,0.75-0.3c0.866-0.367,1.866-0.7,3-1c0.3-0.133,0.616-0.233,0.95-0.3
	c0.367-0.067,0.633-0.134,0.8-0.2c0.267-0.066,0.8-0.133,1.601-0.2c0.834-0.033,1.718,0.067,2.649,0.3c0.3,0.133,0.649,0.2,1.05,0.2
	c0.668,0,1.385,0.067,2.15,0.2c0.133,0,0.25,0.017,0.35,0.05c0.5,0.2,1,0.4,1.5,0.6c1.9,0.667,3.566,1.733,5,3.2
	c0.168,0.167,0.352,0.316,0.551,0.45c0.334,0.3,0.617,0.617,0.851,0.95c0.633,0.934,1.2,1.733,1.7,2.4c0.365,0.5,0.699,1.017,1,1.55
	c0.134,0.167,0.232,0.383,0.3,0.65c0.065,0.1,0.166,0.216,0.3,0.35c0.5,0.633,0.801,1.383,0.9,2.25c0,0.267,0,0.517,0,0.75
	c0.066,0.7,0.517,0.9,1.35,0.6c0.233-0.066,0.483-0.133,0.75-0.2c1.733-0.4,3.583-0.6,5.551-0.6c1.301,0,2.416,0.1,3.351,0.3
	c1.065,0.267,2.1,0.684,3.1,1.25c0.366,0.233,0.718,0.45,1.05,0.65c0.168,0.1,0.385,0.15,0.65,0.15
	c1.133,0.133,2.033,0.483,2.7,1.05c0.2,0.2,0.417,0.383,0.649,0.55c1.399,0.933,2.75,2.417,4.051,4.45
	c0.133,0.1,0.266,0.217,0.398,0.35c1.667,1.134,3.067,2.2,4.2,3.2c2,1.8,3.783,3.366,5.351,4.7c0.834,0.666,1.616,1.25,2.351,1.75
	c0.767,0.5,1.2,1.1,1.3,1.8c0,0.133,0.066,0.267,0.2,0.399c0.7,0.801,1.267,1.584,1.7,2.351c0.133,0.166,0.231,0.383,0.3,0.649
	c0.032,0.101,0.083,0.217,0.149,0.351c0.565,1,1.199,1.783,1.899,2.35c0.133,0.2,0.283,0.384,0.45,0.55
	c0.267,0.334,0.517,0.65,0.75,0.95c-0.233,0.2-0.483,0.45-0.75,0.75c-0.167,0.2-0.317,0.385-0.45,0.551
	c-0.7,0.566-1.334,1.351-1.899,2.351c-0.066,0.133-0.117,0.267-0.149,0.399c-0.067,0.232-0.167,0.449-0.3,0.649
	c-0.435,0.767-1,1.55-1.7,2.351c-0.134,0.134-0.2,0.25-0.2,0.351c-0.1,0.7-0.533,1.3-1.3,1.8c-0.733,0.5-1.517,1.1-2.351,1.801
	c-1.566,1.299-3.351,2.866-5.351,4.699c-1.133,1-2.533,2.066-4.2,3.2c-0.134,0.101-0.267,0.217-0.398,0.351
	c-1.301,2-2.65,3.467-4.051,4.399c-0.232,0.2-0.449,0.399-0.649,0.601c-0.667,0.532-1.567,0.866-2.7,1
	c-0.268,0-0.482,0.065-0.65,0.199c-0.332,0.2-0.684,0.417-1.05,0.65c-1,0.566-2.032,0.966-3.1,1.199
	c-0.935,0.199-2.05,0.301-3.351,0.301c-1.968,0-3.816-0.184-5.551-0.551c-0.267-0.066-0.517-0.133-0.75-0.199
	c-0.833-0.301-1.283-0.117-1.35,0.55c0,0.267,0,0.517,0,0.75c-0.102,0.899-0.4,1.649-0.9,2.25c-0.134,0.133-0.232,0.267-0.3,0.399
	c-0.065,0.232-0.166,0.449-0.3,0.649c-0.301,0.5-0.635,1-1,1.5c-0.5,0.7-1.067,1.517-1.7,2.45c-0.233,0.3-0.517,0.616-0.851,0.95
	c-0.199,0.1-0.383,0.25-0.551,0.448c-1.434,1.435-3.1,2.5-5,3.201c-0.5,0.199-1,0.383-1.5,0.549c-0.1,0.067-0.217,0.102-0.35,0.102
	c-0.768,0.133-1.482,0.2-2.15,0.2c-0.398,0-0.75,0.065-1.05,0.198c-0.933,0.233-1.815,0.317-2.649,0.25
	c-0.801-0.065-1.334-0.133-1.601-0.198c-0.167-0.034-0.433-0.084-0.8-0.15c-0.334-0.065-0.65-0.167-0.95-0.3
	c-1.134-0.3-2.134-0.65-3-1.05c-0.267-0.034-0.517-0.117-0.75-0.25c-1.565-0.935-3.2-1.851-4.899-2.75
	c-0.699-0.367-1.449-0.9-2.25-1.601c-0.301-0.301-0.616-0.601-0.949-0.899c-0.567-0.634-1.184-1.367-1.852-2.2
	c-0.332-0.367-0.648-0.7-0.949-1c-0.199-0.2-0.383-0.384-0.551-0.55c-0.565-0.7-0.949-1.267-1.148-1.7
	c-0.167-0.268-0.483-0.732-0.95-1.4c-0.935-1.5-1.483-3.767-1.649-6.8c1.434-3.5,2.467-7.116,3.101-10.85
	c0.233-0.134,0.483-0.267,0.75-0.4c0.366-0.366,0.833-0.684,1.399-0.95c0.233-0.1,0.449-0.25,0.649-0.449l0.101-0.101
	c0.065,0,0.133,0,0.199,0c0.102-0.2,0.284-0.35,0.551-0.45c0.434-0.267,0.899-0.482,1.399-0.648c0.065,0,0.133-0.034,0.2-0.102
	c0.066-0.133,0.365-0.3,0.898-0.5c0.566-0.232,1.084-0.383,1.551-0.449c0.5-0.133,1.051-0.199,1.649-0.199c0.7,0,1.116,0,1.25,0
	c0.866-0.135,1.733-0.2,2.601-0.2c4.566-0.167,7.801,1.217,9.699,4.149c0.234,0.434,0.484,0.899,0.75,1.399
	c0.102,0.267,0.15,0.517,0.15,0.75c0.133,1.267,0.133,2.517,0,3.75c0,0.134-0.018,0.267-0.051,0.4
	c-0.066,0.233-0.166,0.448-0.299,0.649c-0.135,0.199-0.283,0.383-0.451,0.549c-0.332,0.334-0.649,0.65-0.949,0.951
	c-0.2,0.133-0.4,0.282-0.6,0.449c-0.867,1-2.019,1.45-3.451,1.35c-0.266-0.065-0.516-0.133-0.75-0.198
	c-0.365-0.067-0.75-0.134-1.149-0.2c-0.101-0.066-0.216-0.134-0.351-0.2c-0.633-0.3-1.033-0.6-1.199-0.899
	c-0.7-0.967-1.65-1.633-2.85-2c-0.234-0.066-0.451-0.033-0.65,0.101c-0.2,0.133-0.383,0.283-0.551,0.45
	c-1,0.966-1.416,2.482-1.25,4.55c0,0.5,0.033,1,0.101,1.5c0.067,0.233,0.134,0.45,0.2,0.649c0.699,1.732,1.55,3.351,2.55,4.851
	c0.101,0.133,0.218,0.233,0.351,0.3c0.5,0.2,0.916,0.45,1.25,0.75c0.666,0.566,1.601,0.85,2.801,0.85c1.267,0,2.517-0.032,3.75-0.1
	c0.5-0.066,1-0.167,1.5-0.3c1.865-0.5,3.466-1.25,4.8-2.25c1.367-1.065,2.967-2.565,4.8-4.5c0.167-0.167,0.352-0.351,0.551-0.55
	c0.866-0.934,1.301-2.334,1.301-4.2v-1.05c0.266,0,0.516,0.033,0.75,0.1c0.133,0.066,0.266,0.116,0.398,0.15
	c0.233,0.066,0.385,0.166,0.45,0.3c0.2,0.333,0.55,0.467,1.05,0.399c1.233-0.133,2.483-0.268,3.75-0.399c0.135,0,0.25,0,0.352,0
	c1.199-0.134,2.434-0.233,3.699-0.3c0.5-0.034,1-0.117,1.5-0.25c0.5-0.135,1-0.233,1.5-0.301c0.233-0.066,0.449-0.149,0.649-0.25
	c0.666-0.566,1.565-1.051,2.7-1.449c0.267-0.034,0.517-0.117,0.75-0.25c0.634-0.268,1.232-0.551,1.8-0.852
	c0.133-0.065,0.25-0.133,0.351-0.199c0.268-0.066,0.5-0.149,0.699-0.25c1.102-0.768,2.366-1.717,3.801-2.851
	c0.399-0.233,0.75-0.517,1.051-0.85c1.065-1.233,2.1-2.517,3.1-3.851c0.633-0.935,1.166-1.733,1.6-2.399
	c1.2-1.834,2.668-3.067,4.4-3.7c-1.732-0.601-3.2-1.816-4.4-3.65c-0.434-0.7-0.967-1.517-1.6-2.45c-1-1.3-2.033-2.583-3.1-3.85
	c-0.301-0.3-0.65-0.583-1.051-0.85c-1.435-1.101-2.699-2.034-3.801-2.801c-0.199-0.133-0.433-0.233-0.699-0.3
	c-0.101-0.033-0.218-0.083-0.351-0.149c-0.565-0.334-1.166-0.617-1.8-0.851c-0.233-0.133-0.483-0.233-0.75-0.3
	c-1.135-0.366-2.034-0.833-2.7-1.4c-0.2-0.133-0.416-0.233-0.649-0.3c-0.5-0.033-1-0.116-1.5-0.25c-0.5-0.133-1-0.233-1.5-0.3
	c-1.267-0.066-2.5-0.167-3.699-0.3c-0.102,0-0.217,0-0.352,0c-1.267-0.101-2.517-0.217-3.75-0.351c-0.5-0.066-0.85,0.051-1.05,0.351
	c-0.065,0.133-0.217,0.233-0.45,0.3c-0.134,0.066-0.267,0.134-0.398,0.2c-0.234,0.066-0.484,0.1-0.75,0.1v-1.05
	c0-1.867-0.435-3.267-1.301-4.2c-0.199-0.2-0.384-0.4-0.551-0.6c-1.833-1.934-3.433-3.434-4.8-4.5c-1.334-1-2.935-1.75-4.8-2.25
	c-0.5-0.134-1-0.217-1.5-0.25c-1.233-0.067-2.483-0.1-3.75-0.1c-1.2,0-2.135,0.283-2.801,0.85c-0.334,0.3-0.75,0.55-1.25,0.75
	c-0.133,0.033-0.25,0.116-0.351,0.25c-1,1.5-1.851,3.133-2.55,4.9c-0.066,0.167-0.133,0.383-0.2,0.65c-0.065,0.5-0.101,1-0.101,1.5
	c-0.166,2.066,0.25,3.566,1.25,4.5c0.168,0.2,0.351,0.366,0.551,0.5c0.199,0.1,0.416,0.116,0.65,0.05
	c1.199-0.366,2.148-1.017,2.85-1.95c0.166-0.3,0.566-0.616,1.199-0.95c0.135-0.066,0.25-0.133,0.351-0.2
	c0.399-0.034,0.784-0.083,1.149-0.15c0.234-0.066,0.484-0.133,0.75-0.2c1.434-0.133,2.584,0.3,3.451,1.3
	c0.199,0.199,0.398,0.366,0.6,0.5c0.3,0.3,0.617,0.6,0.949,0.899c0.168,0.2,0.316,0.4,0.451,0.601
	c0.133,0.166,0.231,0.383,0.299,0.649c0.033,0.134,0.051,0.25,0.051,0.351c0.133,1.267,0.133,2.517,0,3.75
	c0,0.267-0.051,0.517-0.15,0.75c-0.266,0.5-0.516,0.983-0.75,1.449c-1.898,2.934-5.133,4.301-9.699,4.101
	c-0.866,0-1.733-0.066-2.601-0.2c-0.134,0-0.55,0-1.25,0c-0.601,0-1.149-0.05-1.649-0.15c-0.467-0.066-0.983-0.233-1.551-0.5
	c-0.533-0.166-0.832-0.316-0.898-0.449c-0.067-0.067-0.135-0.101-0.2-0.101c-0.5-0.2-0.967-0.416-1.399-0.649
	c-0.267-0.134-0.449-0.301-0.551-0.5c-0.066,0-0.134,0-0.199,0l-0.101-0.051c-0.2-0.199-0.416-0.366-0.649-0.5
	c-0.566-0.233-1.033-0.55-1.399-0.949C204.184,140.6,203.934,140.517,203.7,140.45z M140.3,96.4c-3.733,0.566-7.333,1.566-10.8,3
	c-3.067-0.167-5.35-0.717-6.85-1.65c-0.667-0.467-1.133-0.784-1.4-0.95c-0.433-0.2-1-0.583-1.7-1.15
	c-0.167-0.167-0.35-0.35-0.55-0.55c-0.3-0.3-0.633-0.616-1-0.95c-0.833-0.667-1.567-1.284-2.2-1.85c-0.3-0.333-0.6-0.65-0.9-0.95
	c-0.7-0.8-1.233-1.55-1.6-2.25c-0.9-1.7-1.816-3.333-2.75-4.9c-0.133-0.233-0.216-0.483-0.25-0.75c-0.4-0.867-0.75-1.867-1.05-3
	c-0.133-0.3-0.233-0.617-0.3-0.95c-0.067-0.367-0.117-0.634-0.15-0.8c-0.066-0.267-0.133-0.8-0.2-1.6
	c-0.067-0.833,0.017-1.716,0.25-2.65c0.133-0.3,0.2-0.65,0.2-1.05c0-0.667,0.067-1.383,0.2-2.15c0-0.134,0.033-0.25,0.1-0.35
	c0.167-0.5,0.35-1,0.55-1.5c0.7-1.9,1.767-3.567,3.2-5c0.2-0.167,0.35-0.35,0.45-0.55c0.333-0.3,0.65-0.583,0.95-0.85
	c0.933-0.634,1.75-1.2,2.45-1.7c0.5-0.367,1-0.7,1.5-1c0.2-0.133,0.417-0.233,0.65-0.3c0.133-0.067,0.267-0.167,0.4-0.3
	c0.6-0.5,1.35-0.8,2.25-0.9c0.233,0,0.483,0,0.75,0c0.667-0.066,0.85-0.517,0.55-1.35c-0.066-0.233-0.133-0.483-0.2-0.75
	c-0.367-1.733-0.55-3.583-0.55-5.55c0-1.3,0.1-2.417,0.3-3.35c0.233-1.066,0.633-2.1,1.2-3.1c0.233-0.367,0.45-0.716,0.65-1.05
	c0.133-0.167,0.2-0.383,0.2-0.65c0.133-1.133,0.467-2.034,1-2.7c0.2-0.2,0.4-0.417,0.6-0.65c0.933-1.4,2.4-2.75,4.4-4.05
	c0.133-0.133,0.25-0.267,0.35-0.4c1.133-1.667,2.2-3.066,3.2-4.2c1.833-2,3.4-3.784,4.7-5.35c0.7-0.833,1.3-1.617,1.8-2.35
	c0.5-0.767,1.1-1.2,1.8-1.3c0.1,0,0.217-0.067,0.35-0.2c0.8-0.7,1.583-1.267,2.35-1.7c0.2-0.133,0.417-0.233,0.65-0.3
	c0.133-0.033,0.267-0.083,0.4-0.15c1-0.567,1.783-1.2,2.35-1.9c0.167-0.133,0.35-0.284,0.55-0.45c0.3-0.267,0.617-0.517,0.95-0.75
	c0.167,0.233,0.417,0.483,0.75,0.75c0.168,0.167,0.352,0.317,0.551,0.45c0.566,0.7,1.351,1.333,2.351,1.9
	c0.133,0.066,0.25,0.117,0.351,0.15c0.268,0.067,0.483,0.167,0.649,0.3c0.767,0.434,1.55,1,2.351,1.7
	c0.133,0.133,0.268,0.2,0.399,0.2c0.7,0.1,1.3,0.533,1.8,1.3c0.5,0.733,1.083,1.517,1.75,2.35c1.333,1.566,2.9,3.35,4.7,5.35
	c1,1.133,2.065,2.533,3.2,4.2c0.134,0.133,0.25,0.267,0.35,0.4c2.034,1.3,3.518,2.65,4.45,4.05c0.166,0.233,0.351,0.45,0.55,0.65
	c0.567,0.667,0.917,1.567,1.051,2.7c0,0.267,0.051,0.483,0.149,0.65c0.2,0.333,0.416,0.683,0.649,1.05c0.566,1,0.982,2.034,1.25,3.1
	c0.199,0.934,0.301,2.05,0.301,3.35c0,1.966-0.2,3.816-0.602,5.55c-0.065,0.267-0.115,0.517-0.148,0.75
	c-0.333,0.833-0.15,1.284,0.55,1.35c0.233,0,0.483,0,0.75,0c0.867,0.1,1.617,0.4,2.25,0.9c0.133,0.133,0.25,0.233,0.351,0.3
	c0.268,0.066,0.5,0.167,0.699,0.3c0.5,0.3,1,0.633,1.5,1c0.667,0.5,1.467,1.066,2.4,1.7c0.333,0.267,0.648,0.55,0.949,0.85
	c0.134,0.2,0.301,0.384,0.5,0.55c1.435,1.433,2.482,3.1,3.149,5c0.2,0.5,0.4,1,0.601,1.5c0.033,0.1,0.051,0.216,0.051,0.35
	c0.134,0.767,0.199,1.483,0.199,2.15c0,0.4,0.066,0.75,0.199,1.05c0.269,0.934,0.367,1.817,0.301,2.65
	c-0.065,0.8-0.133,1.333-0.199,1.6c-0.067,0.167-0.135,0.434-0.2,0.8c-0.065,0.333-0.166,0.65-0.3,0.95
	c-0.301,1.133-0.635,2.133-1,3c-0.067,0.267-0.167,0.517-0.301,0.75c-0.934,1.567-1.834,3.2-2.699,4.9
	c-0.4,0.7-0.934,1.45-1.602,2.25c-0.332,0.3-0.648,0.617-0.949,0.95c-0.633,0.566-1.351,1.184-2.149,1.85
	c-0.367,0.333-0.717,0.65-1.05,0.95c-0.167,0.2-0.352,0.384-0.551,0.55c-0.699,0.566-1.268,0.95-1.699,1.15
	c-0.233,0.167-0.7,0.483-1.4,0.95c-1.5,0.933-3.783,1.483-6.85,1.65c-0.2-0.1-0.385-0.184-0.551-0.25
	c-3.133-1.2-6.399-2.117-9.801-2.75c-0.1,0-0.184,0-0.25,0l-0.199-0.15c-0.133-0.2-0.25-0.434-0.351-0.7
	c-0.399-0.367-0.716-0.833-0.95-1.4c-0.133-0.233-0.3-0.45-0.5-0.65l-0.05-0.1c0-0.067,0-0.117,0-0.15
	c-0.2-0.134-0.366-0.333-0.5-0.6c-0.233-0.434-0.45-0.9-0.649-1.4c0-0.067-0.032-0.134-0.101-0.2c-0.134-0.066-0.282-0.367-0.45-0.9
	c-0.266-0.567-0.434-1.067-0.5-1.5c-0.1-0.534-0.148-1.1-0.148-1.7c0-0.7,0-1.117,0-1.25c-0.135-0.867-0.2-1.733-0.2-2.6
	c-0.2-4.566,1.166-7.8,4.101-9.7c0.467-0.233,0.949-0.483,1.449-0.75c0.233-0.1,0.483-0.15,0.75-0.15
	c1.233-0.134,2.483-0.134,3.75,0c0.102,0,0.217,0.017,0.352,0.05c0.266,0.066,0.481,0.167,0.648,0.3c0.2,0.134,0.4,0.3,0.602,0.5
	c0.3,0.3,0.6,0.6,0.898,0.9c0.135,0.2,0.301,0.4,0.5,0.6c1,0.867,1.434,2.017,1.301,3.45c-0.066,0.267-0.134,0.517-0.199,0.75
	c-0.066,0.367-0.117,0.75-0.15,1.15c-0.066,0.1-0.133,0.217-0.2,0.35c-0.333,0.633-0.649,1.033-0.95,1.2
	c-0.934,0.7-1.582,1.65-1.949,2.85c-0.065,0.233-0.051,0.45,0.051,0.65c0.134,0.2,0.3,0.383,0.5,0.55c0.934,1,2.434,1.417,4.5,1.25
	c0.5,0,1-0.033,1.5-0.1c0.268-0.066,0.482-0.133,0.648-0.2c1.769-0.7,3.4-1.55,4.9-2.55c0.133-0.1,0.217-0.216,0.25-0.35
	c0.2-0.5,0.45-0.917,0.75-1.25c0.566-0.667,0.85-1.6,0.85-2.8c0-1.267-0.033-2.517-0.1-3.75c-0.033-0.5-0.117-1-0.25-1.5
	c-0.5-1.867-1.25-3.467-2.25-4.8c-1.066-1.367-2.566-2.967-4.5-4.8c-0.2-0.167-0.4-0.35-0.6-0.55c-0.935-0.867-2.334-1.3-4.2-1.3
	h-1.05c0-0.267,0.033-0.517,0.1-0.75c0.066-0.133,0.133-0.267,0.2-0.4c0.065-0.233,0.167-0.383,0.3-0.45
	c0.3-0.2,0.416-0.55,0.35-1.05c-0.133-1.233-0.25-2.483-0.35-3.75c0-0.133,0-0.25,0-0.35c-0.133-1.2-0.232-2.433-0.3-3.7
	c-0.067-0.5-0.167-1-0.3-1.5c-0.102-0.5-0.185-1-0.25-1.5c-0.066-0.233-0.168-0.45-0.301-0.65c-0.566-0.667-1.033-1.567-1.399-2.7
	c-0.067-0.267-0.167-0.517-0.3-0.75c-0.234-0.633-0.519-1.233-0.852-1.8c-0.066-0.134-0.115-0.25-0.148-0.35
	c-0.066-0.267-0.168-0.5-0.301-0.7c-0.767-1.1-1.699-2.367-2.801-3.8c-0.267-0.4-0.55-0.75-0.85-1.05
	c-1.268-1.066-2.551-2.1-3.852-3.1c-0.934-0.633-1.75-1.167-2.449-1.6c-1.834-1.2-3.051-2.667-3.649-4.4
	c-0.633,1.733-1.867,3.2-3.7,4.4c-0.667,0.433-1.466,0.967-2.4,1.6c-1.333,1-2.617,2.033-3.85,3.1c-0.333,0.3-0.617,0.65-0.85,1.05
	c-1.133,1.433-2.083,2.7-2.85,3.8c-0.1,0.2-0.184,0.434-0.25,0.7c-0.067,0.1-0.133,0.216-0.2,0.35c-0.3,0.566-0.583,1.167-0.85,1.8
	c-0.133,0.233-0.216,0.483-0.25,0.75c-0.4,1.133-0.883,2.033-1.45,2.7c-0.1,0.2-0.184,0.417-0.25,0.65c-0.067,0.5-0.167,1-0.3,1.5
	c-0.133,0.5-0.216,1-0.25,1.5c-0.066,1.267-0.167,2.5-0.3,3.7c0,0.1,0,0.217,0,0.35c-0.133,1.267-0.267,2.517-0.4,3.75
	c-0.033,0.5,0.1,0.85,0.4,1.05c0.133,0.066,0.233,0.216,0.3,0.45c0.034,0.133,0.083,0.267,0.15,0.4c0.066,0.233,0.1,0.483,0.1,0.75
	h-1c-1.9,0-3.316,0.434-4.25,1.3c-0.2,0.2-0.383,0.383-0.55,0.55c-1.933,1.833-3.433,3.434-4.5,4.8c-1,1.333-1.75,2.933-2.25,4.8
	c-0.133,0.5-0.233,1-0.3,1.5c-0.067,1.233-0.1,2.483-0.1,3.75c0,1.2,0.283,2.133,0.85,2.8c0.3,0.333,0.55,0.75,0.75,1.25
	c0.066,0.134,0.167,0.25,0.3,0.35c1.5,1,3.117,1.85,4.85,2.55c0.2,0.066,0.417,0.133,0.65,0.2c0.5,0.067,1,0.1,1.5,0.1
	c2.067,0.167,3.583-0.25,4.55-1.25c0.167-0.167,0.317-0.35,0.45-0.55s0.167-0.417,0.1-0.65c-0.367-1.2-1.033-2.15-2-2.85
	c-0.3-0.167-0.6-0.567-0.9-1.2c-0.067-0.133-0.133-0.25-0.2-0.35c-0.067-0.4-0.133-0.783-0.2-1.15
	c-0.066-0.233-0.133-0.483-0.2-0.75c-0.1-1.434,0.35-2.583,1.35-3.45c0.167-0.2,0.316-0.4,0.45-0.6c0.3-0.3,0.617-0.6,0.95-0.9
	c0.167-0.2,0.35-0.366,0.55-0.5c0.2-0.133,0.417-0.233,0.65-0.3c0.133-0.033,0.267-0.05,0.4-0.05c1.233-0.134,2.483-0.134,3.75,0
	c0.233,0,0.483,0.05,0.75,0.15c0.5,0.267,0.966,0.517,1.4,0.75c2.933,1.9,4.316,5.133,4.15,9.7c0,0.867-0.067,1.733-0.2,2.6
	c0,0.133,0,0.55,0,1.25c0,0.6-0.066,1.167-0.2,1.7c-0.067,0.433-0.217,0.933-0.45,1.5c-0.2,0.533-0.367,0.833-0.5,0.9
	c-0.066,0.066-0.1,0.133-0.1,0.2c-0.167,0.5-0.383,0.966-0.65,1.4c-0.1,0.267-0.25,0.466-0.45,0.6c0,0.033,0,0.083,0,0.15l-0.1,0.1
	c-0.2,0.2-0.35,0.417-0.45,0.65c-0.267,0.566-0.583,1.033-0.95,1.4C140.567,95.816,140.433,96.1,140.3,96.4z M159.65,203.7
	c3.832-0.634,7.467-1.667,10.898-3.101c3,0.199,5.25,0.767,6.75,1.699c0.7,0.434,1.167,0.75,1.4,0.95
	c0.433,0.166,1,0.533,1.699,1.101c0.199,0.199,0.384,0.399,0.551,0.601c0.333,0.3,0.683,0.6,1.05,0.899
	c0.8,0.699,1.517,1.334,2.149,1.899c0.301,0.3,0.617,0.616,0.949,0.95c0.668,0.8,1.2,1.55,1.602,2.25
	c0.865,1.666,1.767,3.283,2.699,4.85c0.134,0.268,0.232,0.518,0.301,0.75c0.365,0.9,0.699,1.9,1,3c0.134,0.333,0.232,0.65,0.3,0.95
	c0.065,0.366,0.133,0.649,0.2,0.851c0.066,0.267,0.134,0.799,0.199,1.601c0.066,0.8-0.032,1.683-0.301,2.649
	c-0.133,0.299-0.199,0.633-0.199,1c0,0.699-0.065,1.416-0.199,2.149c0,0.133-0.018,0.267-0.051,0.399c-0.199,0.5-0.399,1-0.601,1.5
	c-0.667,1.867-1.716,3.517-3.149,4.949c-0.199,0.2-0.366,0.4-0.5,0.602c-0.301,0.3-0.616,0.583-0.949,0.85
	c-0.934,0.6-1.733,1.15-2.4,1.65c-0.5,0.398-1,0.75-1.5,1.05c-0.199,0.133-0.433,0.233-0.699,0.3
	c-0.101,0.066-0.218,0.15-0.351,0.25c-0.633,0.5-1.383,0.816-2.25,0.95c-0.267,0-0.517,0-0.75,0c-0.7,0.065-0.883,0.5-0.55,1.3
	c0.033,0.268,0.083,0.518,0.148,0.75c0.4,1.768,0.602,3.616,0.602,5.551c0,1.334-0.102,2.467-0.301,3.399
	c-0.268,1.065-0.684,2.101-1.25,3.101c-0.233,0.366-0.449,0.699-0.649,1c-0.101,0.199-0.149,0.416-0.149,0.649
	c-0.134,1.133-0.482,2.05-1.051,2.75c-0.199,0.2-0.384,0.416-0.55,0.649c-0.935,1.367-2.416,2.717-4.45,4.051
	c-0.1,0.133-0.216,0.25-0.35,0.35c-1.135,1.7-2.2,3.116-3.2,4.25c-1.8,2-3.367,3.783-4.7,5.35c-0.667,0.802-1.25,1.584-1.75,2.352
	c-0.5,0.732-1.1,1.166-1.8,1.3c-0.133,0-0.267,0.066-0.399,0.2c-0.801,0.666-1.584,1.232-2.351,1.7
	c-0.166,0.1-0.383,0.183-0.649,0.25c-0.101,0.065-0.218,0.133-0.351,0.198c-1,0.567-1.783,1.185-2.351,1.852
	c-0.199,0.133-0.383,0.3-0.551,0.5c-0.332,0.232-0.648,0.482-0.95,0.75c-0.2-0.268-0.45-0.518-0.75-0.75
	c-0.2-0.2-0.383-0.367-0.55-0.5c-0.567-0.667-1.35-1.283-2.35-1.852c-0.133-0.065-0.267-0.133-0.4-0.198
	c-0.233-0.067-0.45-0.15-0.65-0.25c-0.767-0.468-1.55-1.034-2.35-1.7c-0.133-0.134-0.25-0.2-0.35-0.2c-0.7-0.134-1.3-0.565-1.8-1.3
	c-0.5-0.768-1.1-1.55-1.8-2.352c-1.3-1.565-2.867-3.35-4.7-5.35c-1-1.134-2.067-2.55-3.2-4.25c-0.1-0.1-0.217-0.217-0.35-0.35
	c-2-1.334-3.467-2.684-4.4-4.051c-0.2-0.233-0.4-0.449-0.6-0.649c-0.533-0.7-0.867-1.617-1-2.75c0-0.233-0.066-0.45-0.2-0.649
	c-0.2-0.301-0.417-0.634-0.65-1c-0.566-1-0.966-2.033-1.2-3.101c-0.2-0.935-0.3-2.065-0.3-3.399c0-1.935,0.184-3.783,0.55-5.551
	c0.066-0.232,0.133-0.482,0.2-0.75c0.3-0.8,0.117-1.232-0.55-1.3c-0.267,0-0.517,0-0.75,0c-0.9-0.134-1.65-0.45-2.25-0.95
	c-0.133-0.1-0.267-0.184-0.4-0.25c-0.233-0.066-0.45-0.167-0.65-0.3c-0.5-0.3-1-0.649-1.5-1.05c-0.7-0.5-1.517-1.051-2.45-1.65
	c-0.3-0.267-0.617-0.55-0.95-0.85c-0.1-0.2-0.25-0.4-0.45-0.602c-1.434-1.434-2.5-3.082-3.2-4.949c-0.2-0.5-0.383-1-0.55-1.5
	c-0.067-0.133-0.1-0.268-0.1-0.399c-0.133-0.733-0.2-1.45-0.2-2.149c0-0.367-0.066-0.701-0.2-1c-0.233-0.968-0.317-1.851-0.25-2.649
	c0.066-0.802,0.133-1.334,0.2-1.601c0.034-0.201,0.083-0.483,0.15-0.851c0.066-0.3,0.167-0.617,0.3-0.95c0.3-1.1,0.65-2.1,1.05-3
	c0.034-0.232,0.117-0.482,0.25-0.75c0.934-1.566,1.85-3.184,2.75-4.85c0.367-0.7,0.9-1.45,1.6-2.25c0.3-0.334,0.6-0.65,0.9-0.95
	c0.633-0.565,1.367-1.2,2.2-1.899c0.367-0.301,0.7-0.601,1-0.899c0.2-0.2,0.383-0.4,0.55-0.601c0.7-0.566,1.267-0.935,1.7-1.101
	c0.267-0.2,0.733-0.517,1.4-0.95c1.5-0.934,3.783-1.5,6.85-1.699c3.467,1.434,7.067,2.467,10.8,3.101
	c0.133,0.267,0.267,0.517,0.4,0.75c0.367,0.366,0.683,0.833,0.95,1.399c0.1,0.267,0.25,0.482,0.45,0.649l0.1,0.101
	c0,0.065,0,0.133,0,0.199c0.2,0.135,0.35,0.316,0.45,0.551c0.267,0.467,0.483,0.949,0.65,1.449c0,0.033,0.034,0.083,0.1,0.15
	c0.133,0.066,0.3,0.383,0.5,0.949c0.233,0.566,0.383,1.066,0.45,1.5c0.133,0.5,0.2,1.066,0.2,1.699c0,0.7,0,1.102,0,1.2
	c0.133,0.9,0.2,1.783,0.2,2.65c0.167,4.565-1.217,7.782-4.15,9.649c-0.434,0.266-0.9,0.516-1.4,0.75
	c-0.267,0.133-0.517,0.199-0.75,0.199c-1.267,0.135-2.517,0.135-3.75,0c-0.133,0-0.267-0.033-0.4-0.1
	c-0.233-0.067-0.45-0.168-0.65-0.301c-0.2-0.101-0.383-0.25-0.55-0.449c-0.333-0.301-0.65-0.617-0.95-0.95
	c-0.133-0.167-0.283-0.351-0.45-0.55c-1-0.867-1.45-2.018-1.35-3.45c0.066-0.267,0.133-0.517,0.2-0.75
	c0.067-0.399,0.133-0.783,0.2-1.149c0.067-0.134,0.133-0.25,0.2-0.351c0.3-0.634,0.6-1.05,0.9-1.25c0.967-0.7,1.633-1.634,2-2.8
	c0.066-0.268,0.033-0.483-0.1-0.65c-0.133-0.199-0.283-0.4-0.45-0.6c-0.966-1-2.483-1.4-4.55-1.2c-0.5,0-1,0.032-1.5,0.101
	c-0.233,0.065-0.45,0.133-0.65,0.199c-1.733,0.667-3.35,1.5-4.85,2.5c-0.133,0.135-0.233,0.268-0.3,0.4
	c-0.2,0.5-0.45,0.898-0.75,1.199c-0.567,0.699-0.85,1.649-0.85,2.851c0,1.233,0.033,2.483,0.1,3.75c0.066,0.5,0.167,1,0.3,1.5
	c0.5,1.866,1.25,3.45,2.25,4.75c1.067,1.399,2.567,3,4.5,4.8c0.167,0.2,0.35,0.385,0.55,0.551c0.934,0.899,2.35,1.351,4.25,1.351h1
	c0,0.233-0.033,0.483-0.1,0.75c-0.067,0.133-0.117,0.25-0.15,0.35c-0.066,0.267-0.167,0.435-0.3,0.5c-0.3,0.167-0.433,0.5-0.4,1
	c0.133,1.267,0.267,2.517,0.4,3.75c0,0.134,0,0.267,0,0.4c0.133,1.198,0.233,2.415,0.3,3.649c0.034,0.5,0.117,1,0.25,1.5
	c0.133,0.5,0.233,1,0.3,1.5c0.066,0.266,0.15,0.482,0.25,0.649c0.566,0.7,1.05,1.616,1.45,2.75c0.034,0.233,0.117,0.483,0.25,0.75
	c0.267,0.633,0.55,1.217,0.85,1.75c0.067,0.133,0.133,0.267,0.2,0.399c0.066,0.232,0.15,0.449,0.25,0.649
	c0.767,1.134,1.717,2.417,2.85,3.851c0.233,0.367,0.517,0.717,0.85,1.051c1.233,1.066,2.517,2.1,3.85,3.1
	c0.934,0.6,1.733,1.135,2.4,1.6c1.833,1.168,3.067,2.635,3.7,4.4c0.6-1.768,1.816-3.232,3.65-4.4c0.699-0.465,1.516-1,2.449-1.6
	c1.301-1,2.584-2.033,3.851-3.1c0.3-0.334,0.583-0.684,0.85-1.051c1.101-1.434,2.034-2.717,2.8-3.851
	c0.135-0.2,0.234-0.417,0.301-0.649c0.033-0.133,0.084-0.268,0.149-0.399c0.333-0.533,0.616-1.117,0.851-1.75
	c0.134-0.267,0.232-0.517,0.301-0.75c0.365-1.134,0.833-2.05,1.398-2.75c0.135-0.167,0.234-0.384,0.301-0.649
	c0.066-0.5,0.149-1,0.25-1.5c0.134-0.5,0.232-1,0.301-1.5c0.066-1.234,0.167-2.451,0.3-3.649c0-0.134,0-0.267,0-0.4
	c0.101-1.233,0.217-2.483,0.351-3.75c0.065-0.5-0.051-0.833-0.351-1c-0.133-0.065-0.233-0.233-0.3-0.5
	c-0.067-0.1-0.135-0.217-0.2-0.35c-0.065-0.267-0.101-0.517-0.101-0.75h1.051c1.865,0,3.267-0.45,4.199-1.351
	c0.199-0.166,0.399-0.351,0.601-0.551c1.935-1.8,3.435-3.4,4.5-4.8c1-1.3,1.75-2.884,2.25-4.75c0.133-0.5,0.217-1,0.25-1.5
	c0.065-1.267,0.101-2.517,0.101-3.75c0-1.2-0.283-2.149-0.851-2.851c-0.3-0.301-0.55-0.699-0.75-1.199
	c-0.033-0.135-0.117-0.268-0.25-0.4c-1.5-1-3.133-1.833-4.899-2.5c-0.166-0.066-0.384-0.134-0.649-0.199
	c-0.5-0.066-1-0.101-1.5-0.101c-2.067-0.2-3.567,0.2-4.5,1.2c-0.2,0.199-0.366,0.398-0.5,0.6c-0.101,0.167-0.116,0.385-0.05,0.65
	c0.365,1.166,1.016,2.1,1.949,2.8c0.301,0.2,0.616,0.616,0.949,1.25c0.067,0.101,0.135,0.217,0.2,0.351
	c0.033,0.366,0.084,0.75,0.149,1.149c0.066,0.233,0.134,0.483,0.199,0.75c0.135,1.435-0.3,2.583-1.3,3.45
	c-0.2,0.199-0.366,0.383-0.5,0.55c-0.3,0.333-0.6,0.649-0.899,0.95c-0.199,0.199-0.399,0.35-0.601,0.449
	c-0.167,0.133-0.384,0.232-0.649,0.301c-0.133,0.066-0.25,0.1-0.351,0.1c-1.267,0.135-2.517,0.135-3.75,0
	c-0.267,0-0.517-0.066-0.75-0.199c-0.5-0.234-0.983-0.484-1.45-0.75c-2.934-1.867-4.3-5.084-4.1-9.649c0-0.867,0.066-1.75,0.2-2.65
	c0-0.1,0-0.5,0-1.2c0-0.633,0.05-1.199,0.149-1.699c0.065-0.434,0.233-0.934,0.5-1.5c0.166-0.566,0.315-0.883,0.449-0.949
	c0.066-0.067,0.102-0.117,0.102-0.15c0.199-0.5,0.416-0.982,0.648-1.449c0.135-0.233,0.301-0.416,0.5-0.551c0-0.066,0-0.134,0-0.199
	l0.051-0.101c0.199-0.167,0.366-0.384,0.5-0.649c0.233-0.566,0.551-1.033,0.949-1.399C159.4,204.217,159.518,203.967,159.65,203.7z"
	/>
<path fill="#A5A5A5" d="M73.4,140.649c-1.566,0.034-3.167,0.084-4.8,0.15c-1.2,0-2.333,0.1-3.4,0.3
	c-0.233,0.066-0.483,0.134-0.75,0.2c-0.367,0.066-0.733,0.116-1.1,0.15c-0.067,0.066-0.167,0.133-0.3,0.199
	c-1,0.334-1.867,0.75-2.6,1.25c-0.133,0.101-0.267,0.184-0.4,0.25c-1.133,0.4-2,0.934-2.6,1.601c-0.133,0.133-0.267,0.233-0.4,0.3
	c-1,0.3-1.867,0.733-2.6,1.3c-1.467,1-2.817,2.101-4.05,3.3c-0.133,0.134-0.233,0.25-0.3,0.351c0.066,0.133,0.167,0.267,0.3,0.399
	c1.233,1.167,2.583,2.267,4.05,3.301c0.733,0.532,1.6,0.966,2.6,1.3c0.133,0.066,0.267,0.148,0.4,0.25c0.6,0.7,1.466,1.232,2.6,1.6
	c0.133,0.066,0.267,0.168,0.4,0.301c0.733,0.5,1.6,0.899,2.6,1.199c0.133,0.066,0.233,0.135,0.3,0.2
	c0.367,0.066,0.733,0.134,1.1,0.2c0.267,0.066,0.517,0.133,0.75,0.2c1.066,0.166,2.2,0.25,3.4,0.25
	c1.633,0.065,3.233,0.133,4.8,0.198c-0.267,0.435-0.517,0.9-0.75,1.4c-0.133,0.268-0.2,0.518-0.2,0.75
	c-0.133,1.268-0.133,2.518,0,3.75c0,0.135,0.033,0.268,0.1,0.4c0.067,0.232,0.167,0.449,0.3,0.648c0.1,0.2,0.25,0.385,0.45,0.551
	c0.3,0.334,0.617,0.649,0.95,0.949c0.167,0.135,0.35,0.283,0.55,0.45c0.867,1,2.017,1.45,3.45,1.351
	c0.267-0.066,0.517-0.133,0.75-0.199c0.4-0.067,0.783-0.135,1.15-0.2c0.133-0.065,0.25-0.134,0.35-0.2c0.633-0.3,1.05-0.6,1.25-0.9
	c0.7-0.965,1.633-1.633,2.8-2c0.267-0.065,0.483-0.032,0.65,0.102c0.2,0.133,0.4,0.283,0.6,0.45c1,0.966,1.4,2.483,1.2,4.55
	c0,0.5-0.033,1-0.1,1.5c-0.066,0.232-0.133,0.45-0.2,0.648c-0.667,1.733-1.5,3.352-2.5,4.852c-0.133,0.133-0.267,0.232-0.4,0.3
	c-0.5,0.2-0.9,0.45-1.2,0.75c-0.7,0.566-1.65,0.851-2.85,0.851c-1.233,0-2.483-0.033-3.75-0.101c-0.5-0.065-1-0.167-1.5-0.3
	c-1.867-0.5-3.45-1.25-4.75-2.25c-1.4-1.066-3-2.566-4.8-4.5c-0.2-0.167-0.383-0.352-0.55-0.55c-0.9-0.935-1.35-2.334-1.35-4.2
	v-1.05c-0.233,0-0.483,0.032-0.75,0.1c-0.1,0.066-0.216,0.116-0.35,0.15c-0.267,0.065-0.434,0.166-0.5,0.3
	c-0.167,0.333-0.5,0.467-1,0.398c-1.267-0.133-2.517-0.267-3.75-0.398c-0.133,0-0.267,0-0.4,0c-1.2-0.134-2.417-0.232-3.65-0.3
	c-0.5-0.034-1-0.117-1.5-0.25c-0.5-0.134-1-0.233-1.5-0.302c-0.267-0.065-0.483-0.148-0.65-0.25c-0.7-0.565-1.617-1.049-2.75-1.448
	c-0.233-0.034-0.483-0.117-0.75-0.25c-0.633-0.267-1.217-0.552-1.75-0.851c-0.133-0.066-0.267-0.134-0.4-0.201
	c-0.233-0.065-0.45-0.148-0.65-0.25c-1.133-0.767-2.417-1.715-3.85-2.85c-0.367-0.232-0.717-0.517-1.05-0.85
	c-1.066-1.233-2.1-2.518-3.1-3.852c-0.6-0.934-1.133-1.732-1.6-2.398c-1.167-1.834-2.633-3.067-4.4-3.7
	c1.767-0.601,3.233-1.816,4.4-3.65c0.467-0.7,1-1.517,1.6-2.45c1-1.3,2.033-2.583,3.1-3.85c0.333-0.3,0.684-0.583,1.05-0.85
	c1.433-1.101,2.717-2.034,3.85-2.801c0.2-0.133,0.417-0.233,0.65-0.3c0.133-0.033,0.267-0.083,0.4-0.149
	c0.533-0.334,1.117-0.617,1.75-0.851c0.267-0.133,0.517-0.233,0.75-0.3c1.133-0.366,2.05-0.833,2.75-1.4
	c0.167-0.133,0.383-0.233,0.65-0.3c0.5-0.033,1-0.116,1.5-0.25c0.5-0.133,1-0.233,1.5-0.3c1.233-0.066,2.45-0.167,3.65-0.3
	c0.133,0,0.267,0,0.4,0c1.233-0.101,2.483-0.217,3.75-0.351c0.5-0.066,0.833,0.051,1,0.351c0.066,0.133,0.233,0.233,0.5,0.3
	c0.133,0.066,0.25,0.134,0.35,0.2c0.267,0.066,0.517,0.1,0.75,0.1v-1.05c0-1.867,0.45-3.267,1.35-4.2c0.167-0.2,0.35-0.4,0.55-0.6
	c1.8-1.934,3.4-3.434,4.8-4.5c1.3-1,2.883-1.75,4.75-2.25c0.5-0.134,1-0.217,1.5-0.25c1.267-0.067,2.517-0.1,3.75-0.1
	c1.2,0,2.15,0.283,2.85,0.85c0.3,0.3,0.7,0.55,1.2,0.75c0.133,0.033,0.267,0.116,0.4,0.25c1,1.5,1.833,3.133,2.5,4.9
	c0.066,0.167,0.133,0.383,0.2,0.65c0.067,0.5,0.1,1,0.1,1.5c0.2,2.066-0.2,3.566-1.2,4.5c-0.2,0.2-0.4,0.366-0.6,0.5
	c-0.167,0.1-0.383,0.116-0.65,0.05c-1.167-0.366-2.1-1.017-2.8-1.95c-0.2-0.3-0.617-0.616-1.25-0.95
	c-0.1-0.066-0.217-0.133-0.35-0.2c-0.367-0.034-0.75-0.083-1.15-0.15c-0.233-0.066-0.483-0.133-0.75-0.2
	c-1.433-0.133-2.583,0.3-3.45,1.3c-0.2,0.199-0.383,0.366-0.55,0.5c-0.333,0.3-0.65,0.6-0.95,0.899c-0.2,0.2-0.35,0.4-0.45,0.601
	c-0.133,0.166-0.233,0.383-0.3,0.649c-0.066,0.134-0.1,0.25-0.1,0.351c-0.133,1.267-0.133,2.517,0,3.75
	c0,0.267,0.066,0.517,0.2,0.75C72.883,139.7,73.133,140.184,73.4,140.649z M226.6,140.649c0.234-0.466,0.484-0.949,0.75-1.449
	c0.102-0.233,0.15-0.483,0.15-0.75c0.133-1.233,0.133-2.483,0-3.75c0-0.101-0.018-0.217-0.05-0.351
	c-0.067-0.267-0.167-0.483-0.3-0.649c-0.135-0.2-0.283-0.4-0.45-0.601c-0.333-0.3-0.65-0.6-0.95-0.899c-0.2-0.134-0.4-0.301-0.6-0.5
	c-0.867-1-2.019-1.434-3.45-1.3c-0.267,0.066-0.517,0.133-0.75,0.2c-0.366,0.067-0.75,0.117-1.15,0.15
	c-0.1,0.066-0.216,0.133-0.35,0.2c-0.634,0.333-1.034,0.65-1.2,0.95c-0.7,0.934-1.65,1.584-2.85,1.95
	c-0.234,0.066-0.45,0.05-0.65-0.05c-0.2-0.134-0.383-0.3-0.55-0.5c-1-0.934-1.417-2.434-1.25-4.5c0-0.5,0.032-1,0.1-1.5
	c0.067-0.267,0.134-0.483,0.2-0.65c0.7-1.767,1.55-3.4,2.55-4.9c0.101-0.134,0.218-0.217,0.351-0.25c0.5-0.2,0.916-0.45,1.25-0.75
	c0.666-0.567,1.601-0.85,2.801-0.85c1.267,0,2.517,0.033,3.75,0.1c0.5,0.033,1,0.116,1.5,0.25c1.865,0.5,3.466,1.25,4.8,2.25
	c1.367,1.066,2.967,2.566,4.8,4.5c0.167,0.2,0.352,0.4,0.551,0.6c0.866,0.934,1.301,2.333,1.301,4.2v1.05
	c0.266,0,0.516-0.033,0.75-0.1c0.133-0.066,0.266-0.134,0.398-0.2c0.233-0.066,0.385-0.167,0.45-0.3c0.2-0.3,0.55-0.417,1.05-0.351
	c1.233,0.134,2.483,0.25,3.75,0.351c0.135,0,0.25,0,0.352,0c1.199,0.133,2.434,0.233,3.699,0.3c0.5,0.066,1,0.167,1.5,0.3
	c0.5,0.134,1,0.217,1.5,0.25c0.233,0.066,0.449,0.167,0.649,0.3c0.666,0.567,1.565,1.034,2.7,1.4c0.267,0.066,0.517,0.167,0.75,0.3
	c0.634,0.233,1.232,0.517,1.8,0.851c0.133,0.066,0.25,0.116,0.351,0.149c0.268,0.066,0.5,0.167,0.699,0.3
	c1.102,0.767,2.366,1.7,3.801,2.801c0.399,0.267,0.75,0.55,1.051,0.85c1.065,1.267,2.1,2.55,3.1,3.85
	c0.633,0.934,1.166,1.75,1.6,2.45c1.201,1.834,2.668,3.05,4.4,3.65c-1.732,0.633-3.2,1.866-4.4,3.7
	c-0.434,0.666-0.967,1.466-1.6,2.398c-1,1.334-2.033,2.617-3.1,3.852c-0.301,0.333-0.65,0.615-1.051,0.85
	c-1.435,1.135-2.699,2.083-3.801,2.85c-0.199,0.102-0.433,0.185-0.699,0.25c-0.101,0.067-0.218,0.135-0.351,0.201
	c-0.565,0.299-1.166,0.584-1.8,0.851c-0.233,0.133-0.483,0.216-0.75,0.25c-1.135,0.399-2.034,0.883-2.7,1.448
	c-0.2,0.102-0.416,0.185-0.649,0.25c-0.5,0.067-1,0.168-1.5,0.302c-0.5,0.133-1,0.216-1.5,0.25c-1.267,0.065-2.5,0.166-3.699,0.3
	c-0.102,0-0.217,0-0.352,0c-1.267,0.133-2.517,0.268-3.75,0.398c-0.5,0.067-0.85-0.065-1.05-0.398
	c-0.065-0.134-0.217-0.232-0.45-0.3c-0.134-0.034-0.267-0.084-0.398-0.15c-0.234-0.065-0.484-0.1-0.75-0.1v1.05
	c0,1.866-0.435,3.268-1.301,4.2c-0.199,0.198-0.384,0.383-0.551,0.55c-1.833,1.934-3.433,3.434-4.8,4.5
	c-1.334,1-2.935,1.75-4.8,2.25c-0.5,0.133-1,0.232-1.5,0.3c-1.233,0.066-2.483,0.101-3.75,0.101c-1.2,0-2.135-0.283-2.801-0.851
	c-0.334-0.3-0.75-0.55-1.25-0.75c-0.133-0.065-0.25-0.167-0.351-0.3c-1-1.5-1.85-3.117-2.55-4.852
	c-0.066-0.198-0.133-0.416-0.2-0.648c-0.065-0.5-0.1-1-0.1-1.5c-0.167-2.066,0.25-3.584,1.25-4.55c0.167-0.167,0.35-0.317,0.55-0.45
	c0.2-0.134,0.416-0.167,0.65-0.102c1.199,0.367,2.148,1.035,2.85,2c0.166,0.302,0.566,0.602,1.2,0.9
	c0.134,0.066,0.25,0.135,0.35,0.2c0.4,0.065,0.784,0.133,1.15,0.2c0.233,0.066,0.483,0.133,0.75,0.199
	c1.433,0.101,2.583-0.351,3.45-1.351c0.199-0.167,0.398-0.315,0.6-0.45c0.3-0.3,0.617-0.615,0.95-0.949
	c0.167-0.166,0.315-0.351,0.45-0.551c0.133-0.199,0.231-0.416,0.3-0.648c0.032-0.135,0.05-0.268,0.05-0.4
	c0.133-1.232,0.133-2.482,0-3.75c0-0.232-0.05-0.482-0.15-0.75c-0.266-0.5-0.516-0.967-0.75-1.4c1.566-0.065,3.15-0.133,4.75-0.198
	c1.2,0,2.334-0.084,3.4-0.25c0.232-0.067,0.482-0.134,0.75-0.2c0.367-0.066,0.75-0.134,1.15-0.2c0.033-0.065,0.115-0.134,0.25-0.2
	c1-0.3,1.883-0.699,2.648-1.199c0.102-0.133,0.217-0.233,0.352-0.301c1.133-0.365,2.016-0.898,2.648-1.6
	c0.135-0.102,0.25-0.184,0.352-0.25c1-0.334,1.883-0.768,2.648-1.3c1.434-1.034,2.784-2.134,4.051-3.301
	c0.101-0.133,0.184-0.267,0.25-0.399c-0.066-0.101-0.149-0.217-0.25-0.351c-1.267-1.199-2.617-2.3-4.051-3.3
	c-0.767-0.566-1.648-1-2.648-1.3c-0.102-0.066-0.217-0.167-0.352-0.3c-0.634-0.667-1.517-1.2-2.648-1.601
	c-0.135-0.066-0.25-0.149-0.352-0.25c-0.767-0.5-1.648-0.916-2.648-1.25c-0.135-0.066-0.217-0.133-0.25-0.199
	c-0.4-0.034-0.783-0.084-1.15-0.15c-0.268-0.066-0.518-0.134-0.75-0.2c-1.066-0.2-2.2-0.3-3.4-0.3
	C229.75,140.733,228.166,140.684,226.6,140.649z M140.6,226.6c0.066,1.566,0.133,3.168,0.2,4.801c0,1.199,0.083,2.334,0.25,3.399
	c0.067,0.233,0.133,0.483,0.2,0.75c0.067,0.366,0.133,0.733,0.2,1.101c0.066,0.066,0.133,0.166,0.2,0.301c0.3,1,0.7,1.865,1.2,2.6
	c0.133,0.135,0.233,0.268,0.3,0.4c0.367,1.133,0.9,2,1.6,2.6c0.1,0.135,0.183,0.268,0.25,0.4c0.333,1,0.767,1.865,1.3,2.6
	c1.034,1.467,2.133,2.816,3.3,4.051c0.133,0.133,0.267,0.232,0.4,0.299c0.1-0.065,0.217-0.166,0.35-0.299
	c1.2-1.233,2.3-2.584,3.3-4.051c0.566-0.732,1-1.6,1.301-2.6c0.066-0.135,0.167-0.268,0.3-0.4c0.666-0.6,1.2-1.467,1.601-2.6
	c0.065-0.135,0.149-0.268,0.25-0.4c0.5-0.732,0.916-1.6,1.25-2.6c0.065-0.135,0.133-0.233,0.199-0.301
	c0.034-0.366,0.083-0.733,0.15-1.101c0.066-0.267,0.134-0.517,0.199-0.75c0.199-1.065,0.301-2.2,0.301-3.399
	c0.066-1.633,0.115-3.233,0.148-4.801c0.467,0.268,0.95,0.518,1.45,0.75c0.233,0.135,0.483,0.2,0.75,0.2
	c1.233,0.134,2.483,0.134,3.75,0c0.101,0,0.218-0.032,0.351-0.1c0.267-0.067,0.482-0.167,0.649-0.302c0.2-0.1,0.4-0.25,0.601-0.448
	c0.301-0.302,0.601-0.617,0.899-0.95c0.134-0.167,0.3-0.352,0.5-0.55c1-0.867,1.435-2.017,1.3-3.45
	c-0.065-0.268-0.133-0.518-0.199-0.75c-0.065-0.4-0.116-0.783-0.149-1.15c-0.065-0.133-0.133-0.25-0.2-0.35
	c-0.333-0.634-0.648-1.05-0.949-1.25c-0.935-0.7-1.584-1.634-1.949-2.8c-0.066-0.267-0.051-0.483,0.05-0.65
	c0.134-0.2,0.3-0.399,0.5-0.6c0.933-1,2.433-1.4,4.5-1.2c0.5,0,1,0.033,1.5,0.1c0.267,0.066,0.483,0.135,0.649,0.2
	c1.768,0.667,3.399,1.5,4.899,2.5c0.133,0.134,0.217,0.267,0.25,0.4c0.2,0.5,0.45,0.899,0.75,1.198
	c0.565,0.701,0.851,1.65,0.851,2.852c0,1.232-0.033,2.482-0.101,3.75c-0.033,0.5-0.117,1-0.25,1.5c-0.5,1.866-1.25,3.45-2.25,4.75
	c-1.065,1.398-2.565,3-4.5,4.8c-0.2,0.2-0.399,0.384-0.601,0.55c-0.934,0.9-2.334,1.352-4.199,1.352h-1.051
	c0,0.232,0.033,0.482,0.101,0.75c0.065,0.133,0.133,0.25,0.2,0.35c0.066,0.268,0.167,0.434,0.3,0.5c0.3,0.167,0.416,0.5,0.351,1
	c-0.134,1.268-0.25,2.518-0.351,3.75c0,0.135,0,0.268,0,0.4c-0.133,1.199-0.233,2.416-0.3,3.648c-0.067,0.5-0.167,1-0.301,1.5
	c-0.101,0.5-0.184,1-0.25,1.5c-0.065,0.268-0.166,0.483-0.301,0.65c-0.565,0.7-1.033,1.616-1.398,2.75
	c-0.067,0.232-0.167,0.482-0.301,0.75c-0.233,0.633-0.518,1.217-0.851,1.75c-0.065,0.133-0.116,0.268-0.149,0.398
	c-0.065,0.233-0.166,0.451-0.301,0.65c-0.766,1.135-1.699,2.417-2.8,3.85c-0.267,0.367-0.55,0.718-0.85,1.052
	c-1.267,1.065-2.55,2.1-3.851,3.1c-0.935,0.601-1.75,1.134-2.449,1.601c-1.834,1.166-3.051,2.634-3.65,4.399
	c-0.633-1.767-1.867-3.233-3.7-4.399c-0.667-0.467-1.466-1-2.4-1.601c-1.333-1-2.617-2.032-3.85-3.1
	c-0.333-0.334-0.617-0.685-0.85-1.052c-1.133-1.433-2.083-2.715-2.85-3.85c-0.1-0.199-0.184-0.417-0.25-0.65
	c-0.067-0.133-0.133-0.267-0.2-0.398c-0.3-0.533-0.583-1.117-0.85-1.75c-0.133-0.268-0.216-0.518-0.25-0.75
	c-0.4-1.134-0.883-2.05-1.45-2.75c-0.1-0.167-0.184-0.384-0.25-0.65c-0.067-0.5-0.167-1-0.3-1.5c-0.133-0.5-0.216-1-0.25-1.5
	c-0.066-1.232-0.167-2.449-0.3-3.648c0-0.135,0-0.268,0-0.4c-0.133-1.232-0.267-2.482-0.4-3.75c-0.033-0.5,0.1-0.833,0.4-1
	c0.133-0.066,0.233-0.232,0.3-0.5c0.034-0.1,0.083-0.217,0.15-0.35c0.066-0.268,0.1-0.518,0.1-0.75h-1c-1.9,0-3.316-0.45-4.25-1.352
	c-0.2-0.166-0.383-0.35-0.55-0.55c-1.933-1.8-3.433-3.399-4.5-4.8c-1-1.3-1.75-2.884-2.25-4.75c-0.133-0.5-0.233-1-0.3-1.5
	c-0.067-1.268-0.1-2.518-0.1-3.75c0-1.2,0.283-2.15,0.85-2.852c0.3-0.299,0.55-0.698,0.75-1.198c0.066-0.134,0.167-0.267,0.3-0.4
	c1.5-1,3.117-1.833,4.85-2.5c0.2-0.065,0.417-0.134,0.65-0.2c0.5-0.065,1-0.1,1.5-0.1c2.067-0.2,3.583,0.2,4.55,1.2
	c0.167,0.198,0.317,0.399,0.45,0.6c0.133,0.167,0.167,0.384,0.1,0.65c-0.367,1.166-1.033,2.1-2,2.8c-0.3,0.2-0.6,0.616-0.9,1.25
	c-0.067,0.1-0.133,0.217-0.2,0.35c-0.067,0.367-0.133,0.75-0.2,1.15c-0.066,0.232-0.133,0.482-0.2,0.75
	c-0.1,1.434,0.35,2.583,1.35,3.45c0.167,0.198,0.316,0.383,0.45,0.55c0.3,0.333,0.617,0.648,0.95,0.95
	c0.167,0.198,0.35,0.35,0.55,0.448c0.2,0.135,0.417,0.233,0.65,0.302c0.133,0.065,0.267,0.1,0.4,0.1c1.233,0.134,2.483,0.134,3.75,0
	c0.233,0,0.483-0.065,0.75-0.2C139.7,227.116,140.167,226.866,140.6,226.6z M159.35,73.4c-0.033-1.567-0.082-3.15-0.148-4.75
	c0-1.2-0.102-2.333-0.301-3.4c-0.065-0.233-0.133-0.483-0.199-0.75c-0.067-0.367-0.116-0.733-0.15-1.1
	c-0.066-0.067-0.134-0.167-0.199-0.3c-0.334-1-0.75-1.883-1.25-2.65c-0.101-0.1-0.185-0.216-0.25-0.35
	c-0.399-1.133-0.935-2.017-1.601-2.65c-0.133-0.133-0.233-0.25-0.3-0.35c-0.301-1-0.733-1.883-1.301-2.65
	c-1-1.433-2.101-2.783-3.3-4.05c-0.133-0.1-0.25-0.184-0.35-0.25c-0.133,0.066-0.267,0.15-0.4,0.25
	c-1.167,1.267-2.267,2.617-3.3,4.05c-0.533,0.767-0.966,1.65-1.3,2.65c-0.067,0.1-0.15,0.217-0.25,0.35
	c-0.7,0.633-1.233,1.517-1.6,2.65c-0.066,0.134-0.167,0.25-0.3,0.35c-0.5,0.767-0.9,1.65-1.2,2.65c-0.066,0.134-0.133,0.233-0.2,0.3
	c-0.067,0.367-0.133,0.733-0.2,1.1c-0.067,0.267-0.133,0.517-0.2,0.75c-0.167,1.066-0.25,2.2-0.25,3.4
	c-0.066,1.6-0.133,3.183-0.2,4.75c-0.434-0.233-0.9-0.483-1.4-0.75c-0.267-0.1-0.517-0.15-0.75-0.15
	c-1.267-0.134-2.517-0.134-3.75,0c-0.133,0-0.267,0.017-0.4,0.05c-0.233,0.066-0.45,0.167-0.65,0.3c-0.2,0.134-0.383,0.3-0.55,0.5
	c-0.333,0.3-0.65,0.6-0.95,0.9c-0.133,0.2-0.283,0.4-0.45,0.6c-1,0.867-1.45,2.017-1.35,3.45c0.066,0.267,0.133,0.517,0.2,0.75
	c0.067,0.367,0.133,0.75,0.2,1.15c0.067,0.1,0.133,0.217,0.2,0.35c0.3,0.633,0.6,1.033,0.9,1.2c0.967,0.7,1.633,1.65,2,2.85
	c0.066,0.233,0.033,0.45-0.1,0.65s-0.283,0.383-0.45,0.55c-0.966,1-2.483,1.417-4.55,1.25c-0.5,0-1-0.033-1.5-0.1
	c-0.233-0.066-0.45-0.133-0.65-0.2c-1.733-0.7-3.35-1.55-4.85-2.55c-0.133-0.1-0.233-0.216-0.3-0.35c-0.2-0.5-0.45-0.917-0.75-1.25
	c-0.567-0.667-0.85-1.6-0.85-2.8c0-1.267,0.033-2.517,0.1-3.75c0.066-0.5,0.167-1,0.3-1.5c0.5-1.867,1.25-3.467,2.25-4.8
	c1.067-1.367,2.567-2.967,4.5-4.8c0.167-0.167,0.35-0.35,0.55-0.55c0.934-0.867,2.35-1.3,4.25-1.3h1c0-0.267-0.033-0.517-0.1-0.75
	c-0.067-0.133-0.117-0.267-0.15-0.4c-0.066-0.233-0.167-0.383-0.3-0.45c-0.3-0.2-0.433-0.55-0.4-1.05
	c0.133-1.233,0.267-2.483,0.4-3.75c0-0.133,0-0.25,0-0.35c0.133-1.2,0.233-2.433,0.3-3.7c0.034-0.5,0.117-1,0.25-1.5
	c0.133-0.5,0.233-1,0.3-1.5c0.066-0.233,0.15-0.45,0.25-0.65c0.566-0.667,1.05-1.567,1.45-2.7c0.034-0.267,0.117-0.517,0.25-0.75
	c0.267-0.633,0.55-1.233,0.85-1.8c0.067-0.134,0.133-0.25,0.2-0.35c0.066-0.267,0.15-0.5,0.25-0.7c0.767-1.1,1.717-2.367,2.85-3.8
	c0.233-0.4,0.517-0.75,0.85-1.05c1.233-1.066,2.517-2.1,3.85-3.1c0.934-0.633,1.733-1.167,2.4-1.6c1.833-1.2,3.067-2.667,3.7-4.4
	c0.6,1.733,1.816,3.2,3.65,4.4c0.699,0.433,1.516,0.967,2.449,1.6c1.301,1,2.584,2.033,3.851,3.1c0.3,0.3,0.583,0.65,0.85,1.05
	c1.101,1.433,2.034,2.7,2.8,3.8c0.135,0.2,0.234,0.434,0.301,0.7c0.033,0.1,0.084,0.216,0.149,0.35
	c0.333,0.566,0.616,1.167,0.851,1.8c0.134,0.233,0.232,0.483,0.301,0.75c0.365,1.133,0.833,2.033,1.398,2.7
	c0.135,0.2,0.234,0.417,0.301,0.65c0.066,0.5,0.149,1,0.25,1.5c0.134,0.5,0.232,1,0.301,1.5c0.066,1.267,0.167,2.5,0.3,3.7
	c0,0.1,0,0.217,0,0.35c0.101,1.267,0.217,2.517,0.351,3.75c0.065,0.5-0.051,0.85-0.351,1.05c-0.133,0.066-0.233,0.216-0.3,0.45
	c-0.067,0.133-0.135,0.267-0.2,0.4c-0.065,0.233-0.101,0.483-0.101,0.75h1.051c1.865,0,3.267,0.434,4.199,1.3
	c0.199,0.2,0.399,0.383,0.601,0.55c1.935,1.833,3.435,3.434,4.5,4.8c1,1.333,1.75,2.933,2.25,4.8c0.133,0.5,0.217,1,0.25,1.5
	c0.065,1.233,0.101,2.483,0.101,3.75c0,1.2-0.283,2.133-0.851,2.8c-0.3,0.333-0.55,0.75-0.75,1.25
	c-0.033,0.134-0.117,0.25-0.25,0.35c-1.5,1-3.133,1.85-4.899,2.55c-0.166,0.066-0.383,0.133-0.649,0.2c-0.5,0.067-1,0.1-1.5,0.1
	c-2.067,0.167-3.567-0.25-4.5-1.25c-0.2-0.167-0.366-0.35-0.5-0.55c-0.101-0.2-0.116-0.417-0.05-0.65
	c0.365-1.2,1.016-2.15,1.949-2.85c0.301-0.167,0.617-0.567,0.949-1.2c0.067-0.133,0.135-0.25,0.2-0.35
	c0.033-0.4,0.084-0.783,0.149-1.15c0.066-0.233,0.134-0.483,0.199-0.75c0.135-1.434-0.3-2.583-1.3-3.45c-0.2-0.2-0.366-0.4-0.5-0.6
	c-0.3-0.3-0.6-0.6-0.899-0.9c-0.199-0.2-0.399-0.366-0.601-0.5c-0.167-0.133-0.384-0.233-0.649-0.3
	c-0.133-0.033-0.25-0.05-0.351-0.05c-1.267-0.134-2.517-0.134-3.75,0c-0.267,0-0.517,0.05-0.75,0.15
	C160.3,72.917,159.816,73.167,159.35,73.4z"/>
<path fill="#BFBFBF" d="M96.4,159.7c-0.333-0.134-0.617-0.267-0.85-0.4c-0.367-0.366-0.833-0.684-1.4-0.95
	c-0.267-0.1-0.483-0.25-0.65-0.449l-0.1-0.101c-0.066,0-0.133,0-0.2,0c-0.133-0.2-0.317-0.35-0.55-0.45
	c-0.433-0.267-0.917-0.482-1.45-0.648c-0.034,0-0.083-0.034-0.15-0.102c-0.066-0.133-0.383-0.3-0.95-0.5
	c-0.567-0.232-1.067-0.383-1.5-0.449c-0.5-0.133-1.067-0.199-1.7-0.199c-0.7,0-1.1,0-1.2,0c-0.9-0.135-1.784-0.2-2.65-0.2
	c-4.566-0.167-7.783,1.217-9.65,4.149c-1.566-0.066-3.167-0.133-4.8-0.199c-1.2,0-2.333-0.084-3.4-0.25
	c-0.233-0.067-0.483-0.135-0.75-0.2c-0.367-0.065-0.733-0.134-1.1-0.2c-0.067-0.066-0.167-0.134-0.3-0.199
	c-1-0.301-1.867-0.701-2.6-1.201c-0.133-0.133-0.267-0.232-0.4-0.299c-1.133-0.367-2-0.899-2.6-1.601
	c-0.133-0.101-0.267-0.185-0.4-0.25c-1-0.334-1.867-0.767-2.6-1.3c-1.467-1.034-2.817-2.135-4.05-3.301
	c-0.133-0.133-0.233-0.267-0.3-0.399c0.066-0.101,0.167-0.217,0.3-0.351c1.233-1.199,2.583-2.3,4.05-3.3c0.733-0.566,1.6-1,2.6-1.3
	c0.133-0.066,0.267-0.167,0.4-0.3c0.6-0.667,1.466-1.2,2.6-1.601c0.133-0.066,0.267-0.149,0.4-0.25c0.733-0.5,1.6-0.916,2.6-1.25
	c0.133-0.066,0.233-0.133,0.3-0.199c0.367-0.034,0.733-0.084,1.1-0.15c0.267-0.066,0.517-0.134,0.75-0.2c1.066-0.2,2.2-0.3,3.4-0.3
	c1.633-0.066,3.233-0.116,4.8-0.15c1.867,2.934,5.083,4.301,9.65,4.101c0.867,0,1.75-0.066,2.65-0.2c0.1,0,0.5,0,1.2,0
	c0.633,0,1.2-0.05,1.7-0.15c0.433-0.066,0.933-0.233,1.5-0.5c0.566-0.166,0.883-0.316,0.95-0.449
	c0.067-0.067,0.117-0.101,0.15-0.101c0.533-0.2,1.017-0.416,1.45-0.649c0.233-0.134,0.417-0.301,0.55-0.5c0.066,0,0.133,0,0.2,0
	l0.1-0.051c0.167-0.199,0.383-0.366,0.65-0.5c0.567-0.233,1.033-0.55,1.4-0.949c0.233-0.101,0.517-0.217,0.85-0.351
	c-0.566,3.134-0.85,6.351-0.85,9.65C95.55,153.333,95.833,156.566,96.4,159.7z M140.6,226.6c2.933-1.865,4.316-5.082,4.15-9.648
	c0-0.867-0.067-1.75-0.2-2.65c0-0.1,0-0.5,0-1.199c0-0.634-0.066-1.201-0.2-1.701c-0.067-0.433-0.217-0.933-0.45-1.5
	c-0.2-0.565-0.367-0.883-0.5-0.948c-0.066-0.067-0.1-0.117-0.1-0.15c-0.167-0.5-0.383-0.983-0.65-1.45
	c-0.1-0.232-0.25-0.416-0.45-0.55c0-0.065,0-0.134,0-0.2l-0.1-0.1c-0.2-0.167-0.35-0.384-0.45-0.65
	c-0.267-0.565-0.583-1.033-0.95-1.398c-0.133-0.232-0.267-0.482-0.4-0.75c3.133,0.5,6.367,0.75,9.7,0.75c3.3,0,6.518-0.25,9.65-0.75
	c-0.135,0.268-0.25,0.518-0.352,0.75c-0.398,0.365-0.716,0.833-0.949,1.398c-0.134,0.268-0.301,0.483-0.5,0.65l-0.051,0.1
	c0,0.066,0,0.135,0,0.2c-0.199,0.134-0.365,0.316-0.5,0.55c-0.232,0.467-0.449,0.95-0.648,1.45c0,0.033-0.033,0.083-0.102,0.15
	c-0.134,0.065-0.283,0.383-0.449,0.948c-0.267,0.567-0.435,1.067-0.5,1.5c-0.101,0.5-0.149,1.067-0.149,1.701
	c0,0.699,0,1.101,0,1.199c-0.134,0.9-0.2,1.783-0.2,2.65c-0.2,4.566,1.166,7.783,4.1,9.648c-0.033,1.566-0.082,3.168-0.148,4.801
	c0,1.199-0.102,2.334-0.301,3.399c-0.065,0.233-0.133,0.483-0.199,0.75c-0.067,0.366-0.116,0.733-0.15,1.101
	c-0.066,0.066-0.134,0.166-0.199,0.301c-0.334,1-0.75,1.865-1.25,2.6c-0.101,0.135-0.185,0.268-0.25,0.4
	c-0.399,1.133-0.935,2-1.601,2.6c-0.133,0.135-0.233,0.268-0.3,0.4c-0.301,1-0.733,1.865-1.301,2.6c-1,1.467-2.101,2.816-3.3,4.051
	c-0.133,0.133-0.25,0.232-0.35,0.299c-0.133-0.065-0.267-0.166-0.4-0.299c-1.167-1.233-2.267-2.584-3.3-4.051
	c-0.533-0.732-0.966-1.6-1.3-2.6c-0.067-0.135-0.15-0.268-0.25-0.4c-0.7-0.6-1.233-1.467-1.6-2.6c-0.066-0.135-0.167-0.268-0.3-0.4
	c-0.5-0.732-0.9-1.6-1.2-2.6c-0.066-0.135-0.133-0.233-0.2-0.301c-0.067-0.366-0.133-0.733-0.2-1.101
	c-0.067-0.267-0.133-0.517-0.2-0.75c-0.167-1.065-0.25-2.2-0.25-3.399C140.733,229.768,140.667,228.166,140.6,226.6z M226.6,140.649
	c1.566,0.034,3.15,0.084,4.75,0.15c1.2,0,2.334,0.1,3.4,0.3c0.232,0.066,0.482,0.134,0.75,0.2c0.367,0.066,0.75,0.116,1.15,0.15
	c0.033,0.066,0.115,0.133,0.25,0.199c1,0.334,1.883,0.75,2.648,1.25c0.102,0.101,0.217,0.184,0.352,0.25
	c1.133,0.4,2.016,0.934,2.648,1.601c0.135,0.133,0.25,0.233,0.352,0.3c1,0.3,1.883,0.733,2.648,1.3c1.434,1,2.784,2.101,4.051,3.3
	c0.101,0.134,0.184,0.25,0.25,0.351c-0.066,0.133-0.149,0.267-0.25,0.399c-1.267,1.167-2.617,2.267-4.051,3.301
	c-0.767,0.532-1.648,0.966-2.648,1.3c-0.102,0.066-0.217,0.148-0.352,0.25c-0.634,0.7-1.517,1.232-2.648,1.6
	c-0.135,0.066-0.25,0.168-0.352,0.301c-0.767,0.5-1.648,0.899-2.648,1.199c-0.135,0.066-0.217,0.135-0.25,0.2
	c-0.4,0.066-0.783,0.134-1.15,0.2c-0.268,0.066-0.518,0.133-0.75,0.2c-1.066,0.166-2.2,0.25-3.4,0.25
	c-1.6,0.065-3.184,0.133-4.75,0.198c-1.898-2.933-5.133-4.315-9.699-4.148c-0.866,0-1.733,0.066-2.601,0.2c-0.134,0-0.55,0-1.25,0
	c-0.6,0-1.149,0.065-1.649,0.198c-0.467,0.067-0.983,0.218-1.551,0.451c-0.533,0.199-0.832,0.366-0.898,0.5
	c-0.067,0.065-0.135,0.101-0.2,0.101c-0.5,0.166-0.967,0.383-1.399,0.649c-0.267,0.101-0.449,0.25-0.551,0.449
	c-0.066,0-0.134,0-0.199,0l-0.101,0.1c-0.2,0.201-0.416,0.352-0.649,0.451c-0.566,0.267-1.033,0.584-1.399,0.949
	c-0.267,0.135-0.517,0.268-0.75,0.4c0.5-3.135,0.75-6.367,0.75-9.7c0-3.3-0.25-6.483-0.75-9.55c0.233,0.066,0.483,0.149,0.75,0.25
	c0.366,0.399,0.833,0.716,1.399,0.949c0.233,0.134,0.449,0.301,0.649,0.5l0.101,0.051c0.065,0,0.133,0,0.199,0
	c0.102,0.199,0.284,0.366,0.551,0.5c0.434,0.233,0.899,0.449,1.399,0.649c0.065,0,0.133,0.033,0.2,0.101
	c0.066,0.133,0.365,0.283,0.898,0.449c0.566,0.267,1.084,0.434,1.551,0.5c0.5,0.101,1.051,0.15,1.649,0.15c0.7,0,1.116,0,1.25,0
	c0.866,0.134,1.733,0.2,2.601,0.2C221.467,144.95,224.7,143.583,226.6,140.649z M159.85,96.4c-3.199-0.567-6.481-0.85-9.85-0.85
	c-3.333,0-6.567,0.283-9.7,0.85c0.133-0.3,0.267-0.583,0.4-0.85c0.367-0.367,0.683-0.833,0.95-1.4c0.1-0.233,0.25-0.45,0.45-0.65
	l0.1-0.1c0-0.067,0-0.117,0-0.15c0.2-0.134,0.35-0.333,0.45-0.6c0.267-0.434,0.483-0.9,0.65-1.4c0-0.067,0.034-0.134,0.1-0.2
	c0.133-0.066,0.3-0.367,0.5-0.9c0.233-0.567,0.383-1.067,0.45-1.5c0.133-0.534,0.2-1.1,0.2-1.7c0-0.7,0-1.117,0-1.25
	c0.133-0.867,0.2-1.733,0.2-2.6c0.167-4.566-1.217-7.8-4.15-9.7c0.066-1.567,0.133-3.15,0.2-4.75c0-1.2,0.083-2.333,0.25-3.4
	c0.067-0.233,0.133-0.483,0.2-0.75c0.067-0.367,0.133-0.733,0.2-1.1c0.066-0.067,0.133-0.167,0.2-0.3c0.3-1,0.7-1.883,1.2-2.65
	c0.133-0.1,0.233-0.216,0.3-0.35c0.367-1.133,0.9-2.017,1.6-2.65c0.1-0.133,0.183-0.25,0.25-0.35c0.333-1,0.767-1.883,1.3-2.65
	c1.034-1.433,2.133-2.783,3.3-4.05c0.133-0.1,0.267-0.184,0.4-0.25c0.1,0.066,0.217,0.15,0.35,0.25c1.2,1.267,2.3,2.617,3.3,4.05
	c0.566,0.767,1,1.65,1.301,2.65c0.066,0.1,0.167,0.217,0.3,0.35c0.666,0.633,1.2,1.517,1.601,2.65c0.065,0.134,0.149,0.25,0.25,0.35
	c0.5,0.767,0.916,1.65,1.25,2.65c0.065,0.134,0.133,0.233,0.199,0.3c0.034,0.367,0.083,0.733,0.15,1.1
	c0.066,0.267,0.134,0.517,0.199,0.75c0.199,1.066,0.301,2.2,0.301,3.4c0.066,1.6,0.115,3.183,0.148,4.75
	c-2.934,1.9-4.3,5.133-4.1,9.7c0,0.867,0.066,1.733,0.2,2.6c0,0.133,0,0.55,0,1.25c0,0.6,0.05,1.167,0.149,1.7
	c0.065,0.433,0.233,0.933,0.5,1.5c0.166,0.533,0.315,0.833,0.449,0.9c0.067,0.066,0.102,0.133,0.102,0.2
	c0.199,0.5,0.416,0.966,0.648,1.4c0.135,0.267,0.301,0.466,0.5,0.6c0,0.033,0,0.083,0,0.15l0.051,0.1
	c0.199,0.2,0.366,0.417,0.5,0.65c0.233,0.566,0.551,1.033,0.949,1.4c0.102,0.267,0.217,0.5,0.352,0.7L159.85,96.4z"/>
<path fill="#595959" d="M195.05,119.3c2.233,3.2,4.083,6.617,5.55,10.25c1.367,3.434,2.4,7.066,3.102,10.9
	c0.5,3.066,0.75,6.25,0.75,9.55c0,3.333-0.25,6.566-0.75,9.7c-0.635,3.733-1.667,7.35-3.102,10.85
	c-1.467,3.566-3.315,6.983-5.55,10.25c-1.933,2.7-4.134,5.267-6.6,7.7c-2.5,2.5-5.083,4.717-7.75,6.648
	c-3.2,2.201-6.583,4.018-10.15,5.451c-3.433,1.434-7.065,2.467-10.899,3.101c-3.133,0.5-6.351,0.75-9.649,0.75
	c-3.333,0-6.567-0.25-9.7-0.75c-3.733-0.634-7.333-1.667-10.8-3.101c-3.6-1.435-7.033-3.301-10.3-5.601
	c-2.7-1.899-5.267-4.065-7.7-6.5c-2.5-2.5-4.683-5.101-6.55-7.8c-2.267-3.233-4.117-6.617-5.55-10.15
	c-1.367-3.5-2.367-7.115-3-10.85c-0.566-3.135-0.85-6.367-0.85-9.7c0-3.3,0.284-6.517,0.85-9.65c0.567-3.767,1.567-7.399,3-10.9
	c1.5-3.633,3.4-7.1,5.7-10.4c1.9-2.633,4.033-5.133,6.4-7.5c2.433-2.467,4.967-4.6,7.6-6.4c3.333-2.367,6.8-4.284,10.4-5.75
	c3.467-1.434,7.067-2.434,10.8-3c3.133-0.567,6.367-0.85,9.7-0.85c3.367,0,6.649,0.283,9.851,0.85c0.065,0,0.149,0,0.25,0
	c3.399,0.633,6.666,1.55,9.801,2.75c0.166,0.066,0.35,0.15,0.55,0.25c0.2,0.066,0.417,0.133,0.649,0.2
	c0.334,0.134,0.684,0.3,1.051,0.5c3,1.3,5.85,2.917,8.55,4.85c2.733,1.867,5.315,4.067,7.75,6.6
	C190.916,113.983,193.117,116.566,195.05,119.3z M178.9,121.2c-7.935-8-17.566-12-28.9-12c-11.267,0-20.883,4-28.85,12
	c-8,7.934-12,17.534-12,28.8c0,11.266,4,20.916,12,28.95c7.967,7.933,17.583,11.899,28.85,11.899c11.334,0,20.967-3.968,28.9-11.899
	c7.934-8.034,11.898-17.685,11.898-28.95C190.799,138.734,186.834,129.133,178.9,121.2z"/>
<path fill="#3F3F3F" d="M178.9,121.2c7.934,7.934,11.898,17.534,11.898,28.8c0,11.266-3.966,20.916-11.898,28.95
	c-7.935,7.933-17.566,11.899-28.9,11.899c-11.267,0-20.883-3.968-28.85-11.899c-8-8.034-12-17.685-12-28.95
	c0-11.266,4-20.867,12-28.8c7.967-8,17.583-12,28.85-12C161.334,109.2,170.967,113.2,178.9,121.2z M173.35,128.9
	c-1.731-1.767-3.199-2.7-4.398-2.8c-0.135,0-0.268,0-0.4,0c-1.365-0.267-2.615-0.267-3.75,0c-1.232,0.3-2.283,0.767-3.148,1.4
	c-3.135,2.3-5.734,5.267-7.801,8.899c-0.435,0.801-1.218,1.301-2.351,1.5c-0.267,0.067-0.517,0.134-0.75,0.2
	c-0.267,0.134-0.517,0.233-0.75,0.3c-0.267,0.034-0.517,0.084-0.75,0.15c-0.567,0.134-0.917,0.083-1.05-0.15
	c-0.067-0.133-0.184-0.267-0.35-0.399c-0.833-0.367-1.533-0.9-2.1-1.601c-0.167-0.199-0.35-0.383-0.55-0.55
	c-0.367-0.434-0.717-0.934-1.05-1.5c-0.167-0.434-0.383-0.816-0.65-1.149c-0.133-0.167-0.217-0.384-0.25-0.65
	c-0.067-0.134-0.167-0.25-0.3-0.35c-1.133-0.9-2.317-1.934-3.55-3.101c-0.133-0.133-0.333-0.233-0.6-0.3
	c-0.1-0.066-0.216-0.133-0.35-0.2c-0.833-0.5-1.717-0.9-2.65-1.2c-0.433-0.133-0.9-0.3-1.4-0.5c-0.867-0.3-2-0.417-3.4-0.35
	c-2,0.2-3.05,1.233-3.15,3.1c-0.267,2.633-0.15,5.1,0.35,7.4c0,0.134,0.033,0.267,0.1,0.4c0.3,1.066,0.733,2,1.3,2.8
	c1.066,1.7,2.667,2.95,4.8,3.75c0.5,0.2,0.9,0.416,1.2,0.649c0.133,0.134,0.333,0.233,0.6,0.301c0.1,0.066,0.216,0.133,0.35,0.199
	c1.4,0.733,2.617,1.534,3.65,2.4c0.4,0.267,0.633,0.717,0.7,1.35c0,0.233,0.017,0.483,0.05,0.75c0.133,0.934-0.017,1.618-0.45,2.051
	c-0.133,0.133-0.233,0.316-0.3,0.55c-0.034,0.133-0.117,0.267-0.25,0.399c-1.367,1.199-2.833,2.351-4.4,3.449
	c-0.767,0.435-1.433,0.967-2,1.602c-0.3,0.333-0.617,0.648-0.95,0.949c-1.434,1.634-2.483,3.601-3.15,5.899
	c-0.267,0.9-0.55,1.9-0.85,3c-0.133,0.333-0.233,0.685-0.3,1.05c-0.066,0.135-0.1,0.268-0.1,0.4c-0.133,0.6-0.167,1.217-0.1,1.85
	c0.066,1.135,0.383,2.051,0.95,2.75c0.3,0.301,0.617,0.566,0.95,0.801c0.167,0.134,0.383,0.232,0.65,0.301
	c0.233,0.066,0.483,0.1,0.75,0.1c2.7,0.233,5.05,0.051,7.05-0.55c2-0.7,3.5-1.834,4.5-3.399c0.133-0.134,0.25-0.25,0.35-0.351
	c0.767-0.565,1.367-1.45,1.8-2.649c0.133-0.5,0.35-0.899,0.65-1.201c0.5-0.5,0.967-1.032,1.4-1.6c0.267-0.333,0.684-0.65,1.25-0.949
	c0.367-0.201,0.9-0.351,1.6-0.451c2.8-0.465,4.666,0.084,5.601,1.65c0.065,0.135,0.166,0.268,0.301,0.4c1,1.365,2.148,2.8,3.449,4.3
	c0.334,0.333,0.684,0.649,1.051,0.95c0.832,0.699,1.582,1.267,2.25,1.699c0.332,0.232,0.684,0.384,1.05,0.449
	c1.167,0.367,2.282,0.65,3.35,0.852c0.833,0.133,1.4,0.033,1.7-0.301c0.133-0.101,0.316-0.184,0.55-0.25
	c0.267-0.066,0.5-0.199,0.7-0.399c0.3-0.3,0.666-0.584,1.1-0.851c1.2-0.601,1.885-1.533,2.051-2.801c0-0.133,0-0.25,0-0.35
	c0.267-1.4,0.267-2.533,0-3.4c-0.101-0.3-0.184-0.648-0.25-1.05c-0.065-0.1-0.133-0.217-0.199-0.35
	c-0.2-0.435-0.385-0.851-0.551-1.25c-0.133-0.167-0.233-0.384-0.301-0.65c-0.065-0.134-0.148-0.25-0.25-0.35
	c-0.699-0.935-1.434-1.851-2.199-2.75c-0.733-0.733-1.633-1.233-2.699-1.5c-0.135-0.067-0.268-0.15-0.4-0.25
	c-1.6-1.067-3.134-2.233-4.6-3.5c-0.102-0.134-0.184-0.317-0.25-0.552c-0.066-0.133-0.167-0.267-0.301-0.398
	c-0.733-0.732-0.949-1.982-0.649-3.75c0.065-0.367,0.185-0.7,0.351-1c0.633-1.066,1.268-1.917,1.899-2.55
	c0.767-0.7,1.666-1.384,2.7-2.051c0.466-0.333,0.917-0.649,1.35-0.949c0.301-0.2,0.616-0.417,0.95-0.65
	c0.166-0.134,0.351-0.3,0.55-0.5c1.366-1.566,2.551-3.1,3.551-4.6c0.367-0.601,0.717-1.217,1.051-1.851
	c0.166-0.434,0.316-0.899,0.449-1.399c0.268-0.834,0.367-1.717,0.301-2.65c-0.066-0.5-0.135-0.967-0.2-1.4
	C173.383,129.383,173.35,129.133,173.35,128.9z"/>
<path fill="#262626" d="M173.35,128.9c0,0.233,0.033,0.483,0.102,0.75c0.066,0.433,0.134,0.9,0.199,1.4
	c0.066,0.934-0.032,1.816-0.301,2.65c-0.133,0.5-0.283,0.966-0.449,1.399c-0.334,0.634-0.684,1.25-1.051,1.851
	c-1,1.5-2.184,3.033-3.55,4.6c-0.2,0.2-0.384,0.366-0.55,0.5c-0.334,0.233-0.65,0.45-0.95,0.65c-0.433,0.3-0.884,0.616-1.35,0.949
	c-1.034,0.667-1.935,1.351-2.7,2.051c-0.633,0.633-1.268,1.483-1.9,2.55c-0.166,0.3-0.283,0.633-0.35,1
	c-0.3,1.768-0.084,3.018,0.65,3.75c0.133,0.133,0.231,0.268,0.3,0.398c0.065,0.233,0.149,0.418,0.25,0.552
	c1.466,1.267,3,2.433,4.6,3.5c0.134,0.1,0.267,0.183,0.4,0.25c1.065,0.267,1.966,0.767,2.7,1.5c0.766,0.899,1.5,1.815,2.199,2.75
	c0.101,0.1,0.184,0.216,0.25,0.35c0.065,0.267,0.166,0.483,0.301,0.65c0.166,0.399,0.35,0.815,0.55,1.25
	c0.065,0.133,0.134,0.25,0.2,0.35c0.065,0.4,0.148,0.75,0.25,1.05c0.266,0.867,0.266,2,0,3.4c0,0.1,0,0.217,0,0.35
	c-0.168,1.268-0.852,2.2-2.051,2.801c-0.435,0.267-0.801,0.551-1.101,0.851c-0.2,0.2-0.435,0.333-0.7,0.399
	c-0.232,0.066-0.417,0.149-0.55,0.25c-0.3,0.334-0.867,0.434-1.7,0.301c-1.066-0.2-2.183-0.483-3.35-0.852
	c-0.366-0.065-0.717-0.217-1.051-0.449c-0.666-0.434-1.416-1-2.25-1.699c-0.366-0.301-0.717-0.617-1.051-0.95
	c-1.3-1.5-2.449-2.935-3.449-4.3c-0.133-0.135-0.233-0.268-0.301-0.4c-0.934-1.566-2.8-2.115-5.6-1.65
	c-0.7,0.102-1.233,0.25-1.6,0.451c-0.566,0.299-0.983,0.616-1.25,0.949c-0.433,0.566-0.9,1.1-1.4,1.6
	c-0.3,0.302-0.517,0.701-0.65,1.201c-0.434,1.199-1.033,2.084-1.8,2.649c-0.1,0.101-0.216,0.217-0.35,0.351
	c-1,1.565-2.5,2.699-4.5,3.399c-2,0.601-4.35,0.783-7.05,0.55c-0.267,0-0.517-0.033-0.75-0.1c-0.267-0.067-0.483-0.167-0.65-0.301
	c-0.333-0.233-0.65-0.5-0.95-0.801c-0.566-0.699-0.883-1.615-0.95-2.75c-0.067-0.633-0.033-1.25,0.1-1.85
	c0-0.134,0.033-0.268,0.1-0.4c0.067-0.365,0.167-0.717,0.3-1.05c0.3-1.1,0.583-2.1,0.85-3c0.667-2.3,1.716-4.267,3.15-5.899
	c0.333-0.301,0.65-0.616,0.95-0.949c0.567-0.635,1.233-1.167,2-1.602c1.567-1.1,3.034-2.25,4.4-3.449
	c0.133-0.133,0.216-0.268,0.25-0.399c0.066-0.233,0.167-0.417,0.3-0.55c0.433-0.434,0.583-1.117,0.45-2.051
	c-0.034-0.267-0.05-0.517-0.05-0.75c-0.066-0.633-0.3-1.083-0.7-1.35c-1.034-0.866-2.25-1.667-3.65-2.4
	c-0.133-0.066-0.25-0.133-0.35-0.199c-0.267-0.067-0.467-0.167-0.6-0.301c-0.3-0.233-0.7-0.449-1.2-0.649
	c-2.133-0.8-3.733-2.05-4.8-3.75c-0.567-0.8-1-1.733-1.3-2.8c-0.066-0.134-0.1-0.267-0.1-0.4c-0.5-2.3-0.617-4.767-0.35-7.4
	c0.1-1.867,1.15-2.9,3.15-3.1c1.4-0.066,2.533,0.05,3.4,0.35c0.5,0.2,0.967,0.367,1.4,0.5c0.934,0.3,1.817,0.7,2.65,1.2
	c0.133,0.067,0.25,0.134,0.35,0.2c0.267,0.066,0.467,0.167,0.6,0.3c1.233,1.167,2.417,2.2,3.55,3.101
	c0.133,0.1,0.233,0.216,0.3,0.35c0.033,0.267,0.117,0.483,0.25,0.65c0.267,0.333,0.483,0.716,0.65,1.149
	c0.333,0.566,0.684,1.066,1.05,1.5c0.2,0.167,0.383,0.351,0.55,0.55c0.567,0.7,1.267,1.233,2.1,1.601
	c0.167,0.133,0.283,0.267,0.35,0.399c0.133,0.233,0.483,0.284,1.05,0.15c0.233-0.066,0.483-0.116,0.75-0.15
	c0.233-0.066,0.483-0.166,0.75-0.3c0.232-0.066,0.482-0.133,0.75-0.2c1.133-0.199,1.916-0.699,2.35-1.5
	c2.066-3.633,4.668-6.6,7.801-8.899c0.867-0.634,1.916-1.1,3.149-1.4c1.134-0.267,2.384-0.267,3.75,0c0.134,0,0.267,0,0.4,0
	C170.15,126.2,171.617,127.133,173.35,128.9z"/>
</svg>
