<?xml version="1.0" encoding="utf-8"?>
<!-- Generator: Adobe Illustrator 18.1.1, SVG Export Plug-In . SVG Version: 6.00 Build 0)  -->
<svg version="1.1" id="Layer_1" xmlns="http://www.w3.org/2000/svg" xmlns:xlink="http://www.w3.org/1999/xlink" x="0px" y="0px"
	 width="144.3px" height="140.4px" viewBox="57.3 225.4 144.3 140.4" enable-background="new 57.3 225.4 144.3 140.4"
	 xml:space="preserve">
<path fill="#999999" d="M65.6,295.9c-0.2,0-0.4,0-0.7-0.1c-0.8,7.4-1.3,12.4-1.4,14.9c-0.4,5.5-1,16.6-1.9,33.2
	c-0.5,8.7-1.1,14.6-1.7,17.9c0.4-0.2,0.8-0.4,1.4-0.5c4.5-1.7,11.9-2.2,22.2-1.5l42.3-0.1v-0.5c0-2.4,0.3-6.4,0.9-12
	c0.7-6.7,1.1-10.5,1.2-11.2c0.4-5,0.7-8.9,0.9-11.5c0.3-4.6,0.5-8.3,0.5-11.2c0-6.2-0.1-12.5-0.4-19c-4.2-0.2-6.8-0.3-7.7-0.4
	L65.6,295.9z"/>
<path fill="#333333" d="M123.9,232.1c0-0.4,0.1-0.8,0.2-1.1h-0.3c-20.2,0.4-32.3,0.9-36.5,1.6c-1.7,0.8-5.2,1.4-10.4,1.8h-9.6
	c0,0.2,0,0.4,0,0.6c0,2.3,0.2,5.8,0.8,10.6c0,0.8,0,1.3-0.1,1.6c0,0.1-0.1,0.2-0.2,0.3c0,0.2,0.1,0.5,0.1,0.7
	c0.2,2.2,0.3,4.9,0.2,8.1c0,7.6-0.6,16.5-1.7,26.8c-0.4,3.9-0.8,7.3-1.2,10.4c3.7-0.7,12.1-1.2,25.2-1.7c16-0.5,28.7-0.6,38.2-0.3
	c-0.5-8.3-1.2-16.8-2.1-25.5C124.8,249.3,123.9,238,123.9,232.1z"/>
<path fill="#CCCCCC" d="M144.6,295.4c-5-0.3-9.1-0.6-12.6-0.8c0.2,5.8,0.3,12,0.3,18.7c-1.2,24.8-2.5,40.2-3.8,46.2
	c2.8-0.2,6.2-0.7,10.1-1.5c5.2-0.7,11.7-0.6,19.4,0.1c10.5,0.6,21.4,1,32.8,1.3c2.6,0.1,4.7,0.3,6.2,0.6c0-0.1,0-0.1,0-0.1
	c0.5-16.8,0.8-29.4,0.9-37.7c0.2-10.5,0.3-18.7,0.4-24.8c-0.1,0-0.1,0-0.2,0c-5.3,0-9.4-0.2-12.5-0.6c-2.5-0.5-4.2-0.8-5.3-0.9
	h-10.1C166.9,296.4,158.4,296.2,144.6,295.4z"/>
<path fill="#666666" d="M193.6,229.6c0-0.4,0.1-0.9,0.2-1.2c-2.4,0.4-6,0.8-10.8,1.1c-8.7,0.6-23.6,1.1-44.5,1.4l-11.6,0.1
	c0,0.1,0,0.2,0.1,0.4c0,0.2,0.1,2,0.3,5.5c0,1.1,0.2,2.9,0.4,5.3c0.2,2.4,0.3,4.3,0.4,5.6c0.2,5.6,0.9,12.9,2.1,21.9
	c0.8,6.3,1.4,13.6,1.8,21.9l66.2,2.4c0.1,0,0.2,0.1,0.2,0.1c0.1-5.9,0.2-9,0.2-9.4C198.6,284.6,196.9,266.2,193.6,229.6z"/>
</svg>
