<?xml version="1.0" encoding="utf-8"?>
<!-- Generator: Adobe Illustrator 18.1.1, SVG Export Plug-In . SVG Version: 6.00 Build 0)  -->
<svg version="1.1" id="Layer_1" xmlns="http://www.w3.org/2000/svg" xmlns:xlink="http://www.w3.org/1999/xlink" x="0px" y="0px"
	 width="800px" height="800px" viewBox="139.2 -114.3 800 800" enable-background="new 139.2 -114.3 800 800" xml:space="preserve">
<path fill="#CCCCCC" d="M466.9,295.2c1.3-2.3,2.5-4.6,3.6-7c1.5-3.2,3.4-6.1,5.6-8.9c-11-1-19.6-1.5-25.9-1.5c-4.3,0-8.7,0.3-13.2,1
	c-4,0.7-6.6,1.1-7.8,1.1c-1.3,0.1-4.5,0.7-9.7,1.7c-4.9,1-7.6,1.6-8.2,1.8c-2.6,0.9-5.2,1.9-7.9,2.9c0.5,3.6,1.1,7.3,1.7,10.9
	c0.5,3.4,1.3,6.7,2.4,10c1.7,5.2,3.1,10.4,4.4,15.8c0.7,3.2,1.6,6.3,2.6,9.5c0.5,1.4,0.9,2.9,1.2,4.4c0.8,3.5,1.5,6.9,2.2,10.2
	c8.6-4.2,18-7.1,28-8.8c1.3-3.3,2.6-6.8,3.9-10.4c0.4-1.2,1-2.3,1.6-3.4c2.7-4.9,5.4-9.9,7.9-14.9
	C461.7,304.7,464.2,299.9,466.9,295.2 M509.3,296.8c-1.5,1.9-3.1,3.8-4.6,5.6c-3.6,4.4-7.1,8.8-10.5,13.4c-3.4,4.6-6.7,9.2-9.8,14
	c-1.7,2.7-3.3,5.4-4.8,8.1c-0.1,0.2-0.2,0.3-0.3,0.5c0.9,0.2,1.8,0.4,2.7,0.6c9.2,2,14.3,4.6,15.3,7.8c2.5-2,6.4-5.4,11.6-10.2
	c4.9-4.5,7.9-7.3,9.1-8.6c0.6-0.6,1-1.1,1.3-1.5c1.6-2.5,3.7-5.3,6.2-8.3c0.1,0,0.1-0.1,0.1-0.2c1.9-2.3,4-4.7,6.5-7.2
	c2.3-2.4,3.7-3.9,4-4.5c0.9-1.9,1.6-3.2,2.1-4c-2.4-1.9-5.7-4-9.9-6.2c-3.8-2-8.1-4-12.8-5.9C513.3,292.2,511.2,294.4,509.3,296.8
	 M569.2,478.1c0.1,0.1,0.2,0.3,0.3,0.4c1.9,2,3.5,4.2,5,6.6c1.4,2.4,2.8,4.9,4.1,7.4c2.4,4.4,4.9,8.8,7.7,13c3,4.7,5.9,9.5,8.5,14.3
	c0.3,0.5,0.6,1.1,0.8,1.6c1-0.6,2-1.3,3.1-2c3.6-2.4,8-5.9,13.1-10.6c4.8-4.5,7.8-7.3,9-8.2c-11.2-8.3-19.2-14.4-24.1-18.3
	c-5-4.2-10.4-8.6-16.1-13.1c-0.4,0.2-3.4,2.6-9.1,7.2C570.7,477,570,477.6,569.2,478.1 M560,532.5c-0.4-1.1-0.7-2.2-1-3.2
	c-1.7-5.5-3.8-10.9-6.4-16.1c-1.1-2.2-2.1-4.5-3-6.8c-0.9-2.5-1.9-4.9-2.9-7.4c-0.9-2.2-1.4-4.4-1.7-6.6c-7.1,2.6-15,5-23.9,7.2
	c-0.1,1.4,0,2.9,0.2,4.3c0.2,1.3,0.2,2.7,0.2,4c0,5.4-0.2,10.8-0.5,16.2c-0.4,5.7-0.8,11.3-1,17c0,1.4-0.1,2.7-0.2,4
	c-0.3,2.8-0.5,5.6-0.7,8.5c-0.1,1.2-0.1,2.4-0.2,3.5c11-3.6,25.5-9.4,43.6-17.3C561.7,537.4,560.9,535,560,532.5 M429.9,524.3
	c-3.1,4.6-6.4,9-9.8,13.5c-3.4,4.4-6.7,9-9.9,13.7c2.3,0.9,4.7,1.7,7.1,2.5c13.5,4.4,28.7,7.1,45.6,8.2c0.4-0.9,0.8-1.9,1.1-2.8
	c0.3-0.7,0.5-1.4,0.8-2.1c1.2-3.3,2.3-6.6,3.2-10c1.7-5.7,3.5-11.4,5.6-17c1.2-3.2,2.1-6.5,2.6-9.9c0.7-4.5,1.7-9,2.9-13.3
	c-0.8,0-1.7,0-2.5,0c-12.9,0-23.4-1-31.4-3.1c-0.7-0.2-1.4-0.4-2-0.5c-1.3,2.4-2.7,4.9-4.1,7.5c-1.4,2.5-3,5-4.7,7.3
	C432.8,520.2,431.3,522.3,429.9,524.3 M377.5,440.7c-0.6,0.1-1.2,0.1-1.8,0.1c-5.8,0.1-11.4,0.9-17,2.6c-5.6,1.7-11.4,3.1-17.1,4.2
	c-2.8,0.5-5.6,1.1-8.4,1.6c-1.9,0.4-3.9,0.9-5.8,1.6c-0.5,0.2-1,0.3-1.6,0.3c0.4,1.9,0.9,3.9,1.5,5.8c1.8,6.8,4.9,15.4,9.1,25.8
	c3.6,8.8,7.9,16.7,12.8,23.7c0.5-0.2,1.1-0.5,1.6-0.8c1.1-0.6,2.2-1.2,3.4-1.6c1.4-0.5,2.7-1,4-1.6c1.3-0.6,2.5-1.2,3.8-1.8
	c1.3-0.6,2.6-1.2,3.9-1.8c3-1.3,6.1-2.5,9.1-3.6c1.3-0.5,2.6-0.8,4-1.1c3.9-0.9,7.8-1.9,11.8-2.9c1.4-0.3,2.9-0.6,4.4-0.8
	c3.7-0.5,7.3-1.3,10.8-2.5c0.7-0.2,1.5-0.4,2.2-0.5c0.8-0.1,1.6-0.3,2.4-0.5c-9.7-8.2-18.4-19.5-26.1-33.8
	c-1.1-2.1-2.3-6.3-3.5-12.4C379.7,440.5,378.6,440.6,377.5,440.7 M366.5,322.8c-2.8-3.1-5.4-6.2-7.7-9.5
	c-11.1,11.7-18,21.9-20.5,30.6c-1.1,3.8-3.2,10.3-6.1,19.3c-1.7,5.3-2.8,8.9-3.4,11c-0.3,0.9-0.6,2.3-1.1,4.1c2,0.3,4,0.9,6,1.8
	c1.5,0.8,3.1,1.5,4.8,2.1c5.1,1.9,10.1,3.7,15.2,5.5c5.4,1.9,10.6,4.2,15.7,6.8c0.7,0.4,1.5,0.5,2.3,0.5c0.5,0,0.9,0.1,1.3,0.3
	c2.2,1.1,4.1,2.1,5.9,3c0.6-4.2,1.6-7.9,2.8-11.1c2.2-5.9,6.9-13.7,14.1-23.5c0.1-0.1,0.1-0.2,0.2-0.3h-0.1
	c-1.1-1.3-2.2-2.6-3.1-4.1c-0.5-0.8-1.1-1.5-1.6-2.4c-0.4-0.6-0.8-1.1-1.1-1.6c-0.3-0.4-0.6-0.8-1-1.2c-1.7-2.3-3.4-4.7-5.1-7.1
	c-1.4-1.9-2.7-3.9-4-5.9c-3.1-4.9-6.4-9.7-9.9-14.3C368.9,325.5,367.7,324.1,366.5,322.8 M716.2,175c-3.5-0.4-7-0.8-10.5-1.2l0,22.4
	c0,0,0,0.3,0,0.8c4.7-0.4,9.4-0.3,14.1,0.4c2.5,0.4,5,0.5,7.6,0.4c0.5,0,1,0,1.5,0c0-1.1,0-2,0-2.6c0.2-4.1-0.1-9.8-0.8-16.9
	c-2.1-0.6-4.3-1.3-6.4-2.1C719.9,175.6,718.1,175.2,716.2,175 M729.8,267.8c-3.8-1.5-7.7-2.9-11.7-4c-1-0.3-2.1-0.5-3.1-0.7
	c-3.5-0.4-7.1-0.9-10.7-1.4c0,1.2,0,2.5,0,3.8c-0.2,8.8-1.2,17.1-3,24.7c-2.2,8.9-4.2,16.4-6.2,22.4c4.4,1.6,8.9,3.3,13.3,4.9
	c2.7,1,5.3,2,8,2.9c1.8,0.6,3.5,1.5,5,2.6c0.8,0.6,1.6,1,2.6,1.2c0.5,0.1,1,0.3,1.5,0.5c0.2,0.1,0.4,0.2,0.7,0.2
	c0.9-3.1,1.4-5.2,1.6-6.1c2.3-10.5,4-24.2,5.1-41c0.2-2.9,0.3-5.8,0.4-8.5C732.1,268.7,731,268.2,729.8,267.8 M706.8,360.6
	c-0.4-0.3-0.9-0.6-1.4-0.8c-3.9-1.8-7.9-3.5-12-5.1c-4.2-1.7-8.3-3.4-12.2-5.2c-3.5,8-6.2,13.2-8,15.5c-2.2,2.9-5.2,8.4-9.1,16.4
	c-2,4.3-3.8,8.1-5.2,11.4c1.8,1.1,3.7,2.1,5.8,3c3.5,1.4,6.9,3.3,10,5.5c4.9,3.6,10,6.6,15.5,9c1.3,0.6,2.5,1.2,3.7,2
	c1,0.7,2,1.1,3,1.2c1.1-3,2.3-6.3,3.6-9.8c2.9-8.2,7.5-21.2,13.6-39C711.4,363.3,709,362,706.8,360.6 M668.2,438.2
	c-1.9-0.5-4.1-1.2-6.5-1.8c-6.2-1.8-13.7-6-22.2-12.5c-3.4-2.5-6.6-5.3-9.7-8.2c-2.9,1.9-5.9,3.9-8.8,5.9c-3.7,2.5-7.5,5-11.2,7.7
	c-2.8,2-5.6,4-8.3,6c-2.8,2.1-5.5,4.3-8.3,6.5c-4.2,3.3-8.3,6.7-12.4,10c-1.8,1.4-3.4,3-4.8,4.6c-0.4,0.5-0.8,1-1,1.7
	c-0.1,0.2-0.2,0.4-0.3,0.7c1.2,1.2,2.4,2.4,3.7,3.6c8.3,8.2,17.2,15.5,26.7,22.1c9,6.3,16.1,10.9,21.2,14c0.2-0.3,0.4-0.6,0.6-1
	c0.9-2,1.8-4.1,3-6.2c2.7-5,5.5-10,8.3-14.9c2.9-5,6.2-9.8,9.8-14.4c3.3-4.1,6.6-8.1,10.1-12c1.3-1.5,2.5-3.1,3.6-4.8
	C663.5,442.4,665.7,440.1,668.2,438.2 M703.2,443c-1.3,0-2.6,0-3.8,0c-1.4,4.1-3,8.1-4.9,12c-0.8,1.7-1.5,3.4-2.2,5.2
	c-2,5.2-4,10.4-5.9,15.6c-0.7,2-1.5,4-2.4,6c-2,4.9-4.1,9.8-6.2,14.7c-0.7,1.7-1.5,3.4-2.2,5.1c-2.3,5.1-4.5,10-6.6,15
	c16.4,4.3,34.8,6.7,55.3,7c0-5.6,0-11.1,0-16.7c0-5.7,0.1-11.4,0.2-17.1c0.1-5.4,0-10.8-0.4-16.1c-0.4-5.5-0.8-11.1-1.1-16.6
	c-0.1-1.8-0.1-3.6-0.1-5.4c0.1-3.4-0.3-6.6-1.3-9.8c-0.3-1-0.5-1.9-0.6-2.9c-2.3,1.1-4.4,1.9-6.2,2.5
	C711.2,442.5,707.4,443,703.2,443 M830.7,435.5c-4.5-1.8-8.9-4-13.2-6.4c-2.1-1.2-4.3-2.4-6.5-3.6c-2.1-1.1-4.2-2.2-6.3-3.5
	c-3.2-1.8-6.5-3.3-9.9-4.6c-2.9-1.1-5.8-2.4-8.5-4c-5.1-2.8-10.2-5.5-15.2-8.1c-1.5-0.8-3-1.6-4.5-2.4c-3.1,4.5-6.7,8.8-10.8,12.8
	c-0.9,0.9-4.3,3.5-10.3,7.8c0.5,1.7,1.2,3.3,2,4.8c0.6,1.1,1.1,2.3,1.6,3.4c2.1,5,4.3,10,6.4,15c1.4,3.2,2.8,6.3,4.4,9.4
	c1,1.9,1.9,3.8,2.7,5.7c2.3,5.1,4.7,10.2,7.1,15.3c2.4,5,4.6,10.1,6.8,15.2c2.2,5.1,4.2,10.3,6.2,15.5c7.6-4.1,16.5-9.2,26.6-15.4
	c6.5-4,11.5-7.6,14.9-10.8c1.2-1.1,5.7-6,13.3-14.7c1.8-2,3.8-4.8,5.9-8.2c0.4-0.7,2-4,4.6-10c0.9-2,1.6-3.6,2.2-5
	c-1.1-0.4-2.3-0.8-3.5-1.4C841.4,440,836,437.8,830.7,435.5 M836.5,335c-2.9,0.5-5.7,1-8.6,1.5c-2.5,0.5-5,0.9-7.6,1.2
	c-3.5,0.5-6.9,1-10.4,1.6c-1.9,0.3-3.8,0.6-5.7,0.9c-5.9,0.9-11.8,2-17.6,3.2c-2.2,0.5-4.4,0.9-6.7,1.2c-2,0.3-3.9,0.6-5.9,1
	c-0.8,0.2-1.6,0.3-2.4,0.4c4.1,8.9,6.1,17.2,6.1,25c0,4-0.6,8.1-1.8,12.3c1.6,0,3.2,0,4.8,0c5.7-0.2,11.4-0.3,17.1-0.3
	c5.1,0,10.1,0,15.2,0c2,0,3.9,0.1,5.8,0.3c3,0.3,6,0.6,9,0.9c5.8,0.6,11.7,1.1,17.5,1.6c5.2,0.5,10.5,0.8,15.7,1.1
	c0.2,0,0.3,0,0.5,0c0.8-11,1.3-18.4,1.2-22.2c0-11.1-1.7-22.1-5-33c-0.3,0.1-0.6,0.2-0.9,0.2c-1.4,0.4-2.9,0.7-4.4,0.8
	C847.2,333.3,841.9,334.1,836.5,335 M810.2,269.3c1.4-1.3,2.9-2.5,4.4-3.7c-1.2-1.1-2.4-2.2-3.6-3.2c-9.2-7.9-19-14.8-29.4-20.6
	c-2.2,3.6-4.4,7.4-6.4,11.2c-0.7,1.3-1.4,2.6-2.1,4c-2.5,4.7-5.2,9.2-8.2,13.6c-1,1.4-2,2.9-2.8,4.4c-2.8,4.6-5.6,9.3-8.5,13.9
	c-1.9,3.2-3.7,6.5-5.3,9.9c-1.2,2.5-2.5,5.1-3.8,7.6c-0.1,0.3-0.2,0.6-0.3,0.9c-0.3,0.7-0.6,1.3-1,1.9c2.8,2.5,6.7,6.2,11.6,11.2
	c0.5,0.5,0.9,0.9,1.4,1.4c0.3-0.2,0.5-0.5,0.8-0.8c2.8-2.8,5.5-5.6,8.2-8.4c4-4.2,8.2-8.2,12.5-12.1c1.2-1,2.3-2.1,3.4-3.4
	c3.8-4.3,7.9-8.3,12.2-12c1.8-1.5,3.4-3.2,5-4.9c2.3-2.5,4.8-4.8,7.4-7C807.2,272,808.7,270.7,810.2,269.3 M379.8,23.2
	c-4.2,1.6-9.2,3.6-14.9,5.9c-11.4,4.6-20.8,8.6-28,12.1c-6.9,3.3-16.6,10.1-29.2,20.6c-6.4,5.3-12.8,10.9-19.3,16.8
	c28.3-6.7,50.8-11.6,67.4-14.8c0,0,1.3,1.9,3.9,5.6c-3.6,0.7-8,1.9-13.1,3.4c-8.5,2.7-16.5,6-23.9,10c-10,4.9-18.2,9-24.7,12.3
	c-8.6,4.5-15.3,8.4-20.2,11.8l9.2,6.1c0.5,0.3,1.4,1.3,2.9,2.9c1.5,1.6,2.4,2.6,2.7,2.9c2.3,1.7,4.9,3.5,7.8,5.6
	c2.1,1.5,4.1,3.1,5.8,4.6c0.1,0.1,2.5,2.3,7.2,6.6c4.9,4.5,8.1,7.5,9.4,8.8c1.9,1.9,5,4.4,9.2,7.5c1,1,3.1,4,6.5,9
	c3.3,4.9,6.9,9.3,10.7,13.2c1.6-1.1,2.6-1.9,3.1-2.4c1.7-1.4,3.3-2.8,4.9-4.1c3.2-2.6,5.4-4.2,6.6-4.8c3.6-1.7,8.2-3.9,13.8-6.7
	c4.7-1.9,9.6-2.9,14.8-2.9c3.4,0,7.4,0.7,11.9,2c2.4,0.7,5,1.5,7.9,2.5c3.6,0.9,7.1,2.8,10.6,5.5c1.8,1.4,3.4,2.8,4.7,4.1
	c2,1.8,4.4,4.3,7.4,7.7c4.4,5,6.5,8.2,6.2,9.7c3.7-2,6-3.3,6.7-4c1.4-1.2,2.1-2.8,2.2-4.9c0.1-1.9-2.5-5.5-7.8-10.8
	c-5.8-5.8-12.2-10.8-19.4-15.1c-3.4-2-7.4-5.1-12-9.2c-4.1-3.6-6.4-5.5-7.1-5.6l2.2-1.2c1.2-0.7,2.1-1.1,2.5-1.1c0.9,0,2.7,0,5.3,0
	c3.5,0.2,9.1,1,16.8,2.2c6.7,1.1,13.2,2.5,19.5,4c2.3,0.6,4.3,1.1,5.9,1.6c0.1-0.5,0.2-0.9,0.3-1.4c0.1-0.2,0.1-0.4,0.2-0.6
	c0.3-0.8,0.6-1.7,0.9-2.5c0.1-0.3,0.2-0.5,0.4-0.8c0.8-1.5,1.7-2.9,2.7-4.2c0.2-0.3,0.4-0.6,0.6-1c0.5-0.8,1.1-1.4,1.8-2
	c0.5-0.4,1.1-0.9,1.6-1.4c-8.5-5.8-14-9.9-16.6-12.2c-5.2-4.8-12.6-13.5-22.2-26.1c-3.6-4.7-9-12.4-16.1-23.4
	c-8.2-12.4-12.3-18.6-12.4-18.8c-3.7-6.4-6.5-11-8.3-14C385.5,26.8,382.5,23.8,379.8,23.2 M404,86.9c1.2,0.9,2.4,2,3.5,3.2
	c0.6,0.7,1.5,1.8,2.6,3.3c1,1.3,1.7,2.1,2,2.6c0.3,0.4,0.9,1.4,1.8,3c3.5,6,5.7,10,6.5,11.9c0.5,1.1,1.1,2.8,1.9,5
	c-4.9-0.2-9.1-0.4-12.6-0.8c-6.3-0.6-11.7-1.8-16.1-3.4c-7-2.7-12.2-5.8-15.5-9.3c-2.6-2.7-4-5.4-4-8.1c0-2.1,1.8-4.8,5.4-8.1
	c3.2-3,5.3-4.4,6.1-4.4c0.3,0,1.5-0.1,3.4-0.3c1.9-0.3,3.1-0.4,3.4-0.4c1.2,0,2.3,0.2,3.2,0.6C397.5,82.3,400.3,84.1,404,86.9
	 M483.4,38.4l-1.1,1.4l-4.2,3.3c11.1,9.7,22,19.2,32.7,28.6l-0.1-0.1c-3.6-2.1-6.2-3.7-8.1-4.7c-3.2-1.8-5.9-3.1-8.2-3.9
	c-2.2-0.8-8.6-2.2-19.1-4.2c-10.6-2-17.1-3-19.4-3c-3.9,0-8,0.9-12.4,2.8c-7.4,3.2-11.1,8.1-11.1,14.8c0,2.5,0.9,4.7,2.8,6.6
	c2.3,2.4,5.8,3.6,10.4,3.6c1.6,0,3.7-1.1,6.4-3.2c2.8-2.3,4.2-4.2,4.2-5.9c0-1.6-0.8-3.3-2.2-5c-1.4-1.7-2.8-2.7-4.2-2.9
	c5.8-0.6,8.7-0.9,8.8-0.9c7,0,17.8,5.7,32.4,17.1c3.7,2.8,8.6,6.7,14.9,11.7c4.7,3.5,7.9,5.3,9.6,5.3c0.5,0,1.4-0.1,2.8-0.4
	c1.2-0.2,2.4-0.3,3.4-0.2c3.2,0.4,7.5,2.7,12.8,6.8c3.6,2.8,7.1,7.8,10.5,14.9c2,4.1,3.7,8.6,5.3,13.5c2.7,8,5.2,20.9,7.7,38.6
	c2.2,16.1,3.4,28,3.4,35.6c0,26.5-2.2,48.4-6.7,65.6c-2.7,10.6-7,21.1-12.8,31.6c-0.5,1-1.6,3.2-3.2,6.9c-1.5,3.5-2.5,5.7-3.1,6.8
	c-1.3,2.2-6.3,7.3-15.1,15.4c-9.6,8.9-16.9,14.7-21.8,17.5c-12.1,6.8-22.6,11.5-31.5,14.1c-9.7,2.8-21.3,4.1-34.8,4.1
	c-2.4,0-6.4-0.2-12-0.5c-5.6-0.4-9.1-0.5-10.3-0.5c-2.8,0-5.6,0.8-8.6,2.2c-1.2,0.6-2.6,1.5-4.4,2.7c-2,1.5-3.9,5-5.4,10.5
	c-2.3,7.8-3.4,18-3.4,30.6c0,9.5,0.6,18.5,2,27c0.7,4.4,1.4,8.4,2.2,12c10.2,3.5,20.1,6.1,29.6,7.7c10.6,1.7,22.9,2.5,36.8,2.5
	c10,0,22.6-1.7,38-5c15.1-3.3,27-7,35.6-11c7-3.2,14.2-7.4,21.8-12.5c9.9-6.7,18.5-13.9,25.8-21.5c4.4-4.5,10.6-11.9,18.8-22
	c7.7-9.6,13.2-16.7,16.3-21.2l24.5-36c3.9-5.7,8.8-11.6,14.6-17.7c7.6-8,14.2-13.3,20-16.1c2.3-1.1,5.1-2.6,8.4-4.6
	c2.8-1.5,5.6-2.5,8.6-3.1c2.5-0.5,3.8-1.7,3.9-3.5c-0.2-3.2,0-6.4,0.5-9.5c1.3-7.1,2.1-12.2,2.4-15.3c0.1-3.1,0.2-5.8,0.2-8
	c0.4-10.8,0.9-18.1,1.6-21.8c0.5-3,0.8-6.1,0.8-9.5l-0.1-2c-16.8-0.4-30.3,0.5-40.3,2.6c-6.4,1.3-14.8,4.2-25.3,8.7
	c-3.1,1.3-6.5,3.1-10.4,5.4c-3.3,2.1-5.2,3.2-5.6,3.3c2.4-14.2,4.1-25.7,5.2-34.5c1.7-13.9,2.5-26,2.5-36.4
	c-2.6-26.8-4.3-41.6-5.1-44.6c-0.6-2.3-1-3.8-1.2-4.5c-0.3-1.1-0.4-2.1-0.5-3.1c0.1-0.9-0.1-2.1-0.5-3.6c-0.4-1.6-0.9-2.6-1.5-2.9
	c-2.1-1.3-4.6-3.3-7.5-5.9c-4.5-3.5-6.8-5.4-7-5.5c-4.2-3.1-7.3-5.2-9.3-6.4c-2-1.2-5.2-2.7-9.5-4.4c-4.8-2-9.8-4-14.9-5.9
	c-6.9-2.6-12.2-4.4-15.8-5.3c-5.6-1.4-8.5-2.2-8.8-2.2c-0.9-0.3-2.4-1.1-4.5-2.4l0.7-0.4c0.9-0.8,2.2-2,3.7-3.4
	c1.7-1.8,4.4-5,8.1-9.7c-0.4-0.1-0.9-0.7-1.6-1.6c-0.4-0.5-0.7-1-1-1.6c-1.4,0.8-4,1.8-7.9,3c-4.5,1.4-8,2.1-10.5,2.1
	c-0.3,0-3.6-2.1-10.1-6.4c-6.2-4.1-9.9-6.6-11.2-7.6c-4.3-3.1-9.8-6.4-16.4-10c-5.5-3-8.5-4.5-8.9-4.5
	C484.9,37,484.2,37.5,483.4,38.4z"/>
<path fill="#999999" d="M470.5,288.2c-1.1,2.4-2.4,4.7-3.6,7c-2.7,4.7-5.2,9.5-7.6,14.3c-2.5,5-5.2,10-7.9,14.9
	c-0.6,1.1-1.1,2.2-1.6,3.4c-1.3,3.6-2.6,7.1-3.9,10.4c6.5-1.1,13.2-1.6,20.2-1.6c3.4,0,7.7,0.5,13.1,1.6c0.1-0.2,0.2-0.3,0.3-0.5
	c1.5-2.7,3.1-5.4,4.8-8.1c3.1-4.8,6.4-9.4,9.8-14c3.4-4.5,6.9-9,10.5-13.4c1.6-1.9,3.1-3.8,4.6-5.6c1.9-2.4,4-4.6,6.1-6.7
	c-5.5-2.2-11.7-4.4-18.5-6.4c-7.1-2.2-12.1-3.4-14.9-3.6c-2-0.2-4-0.4-5.9-0.6C473.9,282.1,472.1,285.1,470.5,288.2 M569.6,478.5
	c-0.1-0.1-0.2-0.3-0.3-0.4c-5.1,4.1-8.5,6.8-10.2,8c-2,1.4-6.2,3.4-12.8,5.8c-0.4,0.2-0.8,0.3-1.2,0.4c0.3,2.2,0.8,4.4,1.7,6.6
	c1,2.5,2,4.9,2.9,7.4c0.9,2.3,1.8,4.6,3,6.8c2.6,5.2,4.7,10.6,6.4,16.1c0.3,1.1,0.7,2.2,1,3.2c0.9,2.4,1.7,4.8,2.5,7.2
	c1-0.4,2-0.9,3-1.3c7.6-3.4,14-6.7,19.1-9.8c0.1,0,3.8-2.4,11-7.2c-0.3-0.5-0.6-1.1-0.8-1.6c-2.6-4.9-5.5-9.7-8.5-14.3
	c-2.7-4.2-5.3-8.6-7.7-13c-1.3-2.5-2.7-4.9-4.1-7.4C573.1,482.7,571.5,480.5,569.6,478.5 M468,547.2c-1,3.4-2.1,6.7-3.2,10
	c-0.2,0.7-0.5,1.4-0.8,2.1c-0.3,0.9-0.7,1.9-1.1,2.8c5.3,0.3,10.8,0.5,16.5,0.5c6.9,0,11.7-0.1,14.2-0.2c5-0.3,10.2-1.2,15.5-2.5
	c2.9-0.7,6.2-1.7,9.8-2.9c0.1-1.2,0.2-2.4,0.2-3.5c0.2-2.9,0.4-5.7,0.7-8.5c0.1-1.3,0.2-2.7,0.2-4c0.2-5.7,0.5-11.4,1-17
	c0.4-5.4,0.6-10.8,0.5-16.2c0-1.3-0.1-2.7-0.2-4c-0.2-1.4-0.3-2.9-0.2-4.3c-2.7,0.7-5.5,1.4-8.4,2c-10.3,2.3-16.8,3.7-19.5,4.2
	c-4.7,0.8-9.5,1.3-14.2,1.4c-1.3,4.3-2.3,8.8-2.9,13.3c-0.5,3.4-1.4,6.7-2.6,9.9C471.5,535.9,469.6,541.5,468,547.2 M405.8,487.8
	c-3.5,1.2-7.1,2-10.8,2.5c-1.5,0.2-3,0.5-4.4,0.8c-3.9,1-7.8,1.9-11.8,2.9c-1.3,0.3-2.7,0.7-4,1.1c-3.1,1.1-6.1,2.3-9.1,3.6
	c-1.3,0.6-2.6,1.1-3.9,1.8c-1.3,0.6-2.5,1.2-3.8,1.8c-1.3,0.6-2.6,1.2-4,1.6c-1.2,0.4-2.3,1-3.4,1.6c-0.5,0.3-1.1,0.6-1.6,0.8
	c0.9,1.3,1.8,2.5,2.8,3.7c4.5,5.7,9.9,11.3,16.3,16.6c12.9,10.9,26.9,19.2,42,25c3.2-4.7,6.5-9.3,9.9-13.7c3.4-4.4,6.7-8.9,9.8-13.5
	c1.4-2.1,2.9-4.1,4.4-6.1c1.7-2.3,3.3-4.8,4.7-7.3c1.4-2.6,2.8-5.1,4.1-7.5c-1.9-0.6-3.9-1.3-5.8-2c-2.5-1.1-4.2-1.8-5.3-2.2
	c-7.7-2.7-14.9-6.8-21.6-12.5c-0.8,0.2-1.5,0.3-2.4,0.5C407.3,487.3,406.5,487.5,405.8,487.8 M369.4,394.5
	c-5.1-2.6-10.3-4.9-15.7-6.8c-5.1-1.8-10.1-3.6-15.2-5.5c-1.6-0.6-3.2-1.3-4.8-2.1c-2-1-4-1.6-6-1.8c-0.2,0.8-0.3,1.6-0.5,2.5
	c-1,4.4-1.6,7.8-1.7,10.2c-0.2,2.6-0.8,10-1.8,22c-0.3,4-0.5,9-0.5,15.1c0,7.4,0.9,15.1,2.6,22.9c0.5,0,1-0.1,1.6-0.3
	c1.9-0.6,3.8-1.2,5.8-1.6c2.8-0.5,5.6-1.1,8.4-1.6c5.8-1.1,11.5-2.5,17.1-4.2c5.6-1.7,11.2-2.5,17-2.6c0.6,0,1.2,0,1.8-0.1
	c1.1-0.1,2.2-0.1,3.3-0.2c-0.4-2-0.8-4.3-1.1-6.8c-1.3-8.7-2-14.8-2-18.3c0-6.4,0.4-12.1,1.1-17.1c-1.7-0.9-3.7-1.9-5.9-3
	c-0.4-0.2-0.8-0.3-1.3-0.3C370.8,395,370,394.8,369.4,394.5 M407.5,307.2c-1.1-3.2-1.9-6.6-2.4-10c-0.6-3.6-1.2-7.3-1.7-10.9
	c-3.7,1.4-7.4,3-11.1,4.6c-13,5.7-21.8,10.8-26.6,15.3c-2.5,2.4-4.8,4.7-6.9,6.9c2.3,3.3,4.9,6.4,7.7,9.5c1.2,1.3,2.4,2.7,3.5,4.2
	c3.5,4.6,6.8,9.4,9.9,14.3c1.2,2,2.5,4,4,5.9c1.7,2.4,3.4,4.7,5.1,7.1c0.3,0.4,0.6,0.8,1,1.2c0.4,0.5,0.8,1,1.1,1.6
	c0.5,0.8,1.1,1.6,1.6,2.4c1,1.4,2,2.8,3.1,4.1h0.1c4.3-5.6,11.3-10.9,21.2-15.9c0.3-0.1,0.6-0.3,0.9-0.4c-0.7-3.4-1.4-6.8-2.2-10.2
	c-0.3-1.5-0.7-3-1.2-4.4c-1-3.1-1.9-6.3-2.6-9.5C410.6,317.7,409.2,312.4,407.5,307.2 M705.8,197c0,1.4,0,4.6,0,9.6
	c-0.1,7.8-0.5,13.8-1.2,18c-0.1,0.7,0.1,2.9,0.4,6.6c0.4,3.8,0.5,6.9,0.4,9.2c-0.5,4.4-0.9,11.4-1.2,21.2c3.6,0.5,7.1,1,10.7,1.4
	c1.1,0.1,2.1,0.4,3.1,0.7c4,1.2,7.9,2.5,11.7,4c1.2,0.5,2.3,1,3.3,1.5c0.5-11.5,0.5-21.1,0-28.8L733,236c0-3-0.7-9.9-2.2-20.7
	c-1.1-8-1.7-13.8-1.8-17.4c-0.5,0-1,0-1.5,0c-2.6,0.1-5.1-0.1-7.6-0.4C715.1,196.8,710.4,196.6,705.8,197 M714,157.9
	c-3.9-0.3-6.7-0.8-8.4-1.5l0,17.4c3.5,0.4,7,0.8,10.5,1.2c1.8,0.2,3.6,0.6,5.4,1.2c2.2,0.8,4.3,1.5,6.4,2.1
	c-0.2-1.8-0.4-3.7-0.6-5.6c-1.2-9.4-1.7-14.8-1.6-16.1C722.8,157.8,718.9,158.1,714,157.9 M726,324.9c-0.2-0.1-0.4-0.2-0.7-0.2
	c-0.5-0.2-1-0.4-1.5-0.5c-1-0.2-1.8-0.6-2.6-1.2c-1.5-1.1-3.2-2-5-2.6c-2.7-0.9-5.3-1.9-8-2.9c-4.4-1.7-8.9-3.3-13.3-4.9
	c-0.3,0.9-0.5,1.7-0.8,2.5c-1.3,3.9-3.6,10.6-7,20c-0.9,2.8-2.9,7.6-5.9,14.3c0,0.1-0.1,0.1-0.1,0.1c4,1.8,8.1,3.5,12.2,5.2
	c4.1,1.6,8.1,3.4,12,5.1c0.5,0.2,1,0.5,1.4,0.8c2.2,1.3,4.5,2.7,7.2,4c1.2-3.6,2.5-7.4,3.9-11.4c0.7-2,2.3-7.7,5-17.2
	C724.2,331.4,725.2,327.7,726,324.9 M674.6,401.3c-3.1-2.3-6.5-4.1-10-5.5c-2-0.8-3.9-1.8-5.8-3c-0.4,0.9-0.7,1.7-1,2.5
	c-2.3,5.4-5.4,10.6-9.5,15.7c-3.4,4.2-5.8,6.5-7.2,7c2.2,1.3,6.1,3.5,11.8,6.5c4.6,2.5,7.8,4.3,9.5,5.4c3.1,2.1,7,3.6,11.6,4.6
	c1.2,0.3,5.5,1,13,2.2c1.8-2.7,5-10.4,9.8-23.2c-1-0.1-2-0.5-3-1.2c-1.2-0.8-2.4-1.5-3.7-2C684.6,407.9,679.5,405,674.6,401.3
	 M563.5,434.4c-2.1,1.5-3.8,2.6-4.9,3.3c3.3,6.3,8.6,13.3,16,20.9c0.1-0.2,0.2-0.4,0.3-0.7c0.3-0.6,0.6-1.2,1-1.7
	c1.4-1.6,3-3.2,4.8-4.6c4.1-3.3,8.2-6.7,12.4-10c2.8-2.2,5.5-4.3,8.3-6.5c2.8-2.1,5.5-4.1,8.3-6c3.7-2.6,7.5-5.2,11.2-7.7
	c2.9-2,5.9-4,8.8-5.9c-3.6-3.4-7-7.1-10.2-11c-4.7-5.7-7.4-9.8-8.1-12.2c-1.9,3.3-4.6,6.4-8.3,9.5c-2.9,2.4-11.3,9.4-25,20.8
	C573,427.4,568.1,431.2,563.5,434.4 M699.5,443c-8.7-0.1-14.8-0.4-18.3-1c-0.7-0.1-5-1.4-13-3.7c-2.5,1.8-4.7,4.1-6.6,7
	c-1.1,1.7-2.3,3.2-3.6,4.8c-3.4,3.9-6.8,7.9-10.1,12c-3.6,4.6-6.9,9.4-9.8,14.4c-2.9,4.9-5.7,9.9-8.3,14.9c-1.1,2.1-2.1,4.1-3,6.2
	c-0.2,0.4-0.4,0.7-0.6,1c0.1,0.1,0.1,0.1,0.2,0.1c8.6,5.1,17.2,9.3,25.8,12.6c5.3,2.1,11,3.9,16.9,5.4c2.1-4.9,4.3-9.9,6.6-15
	c0.8-1.7,1.5-3.4,2.2-5.1c2.1-4.9,4.2-9.8,6.2-14.7c0.8-2,1.6-4,2.4-6c2-5.2,3.9-10.4,5.9-15.6c0.7-1.8,1.4-3.5,2.2-5.2
	C696.4,451.1,698,447.1,699.5,443 M720.8,439c0.1,0.9,0.3,1.9,0.6,2.9c1,3.2,1.5,6.4,1.3,9.8c0,1.8,0,3.6,0.1,5.4
	c0.3,5.5,0.7,11.1,1.1,16.6c0.4,5.4,0.5,10.8,0.4,16.1c-0.1,5.7-0.2,11.4-0.2,17.1c0,5.6,0,11.1,0,16.7c2,0,3.9,0.1,6,0.1
	c11.4,0,22.3-2,32.6-6.1c5.1-2,11.7-5.2,19.8-9.6c-1.9-5.2-4-10.3-6.2-15.5c-2.2-5.1-4.4-10.2-6.8-15.2c-2.4-5.1-4.8-10.2-7.1-15.3
	c-0.8-1.9-1.7-3.8-2.7-5.7c-1.6-3.1-3-6.2-4.4-9.4c-2.1-5-4.3-10-6.4-15c-0.5-1.1-1-2.3-1.6-3.4c-0.8-1.6-1.5-3.2-2-4.8
	c-0.4,0.3-0.8,0.6-1.2,0.9c-7.3,5.3-12.5,8.8-15.4,10.5C726,436.6,723.3,438,720.8,439 M861.7,387c-0.2,0-0.3,0-0.5,0
	c-5.2-0.3-10.5-0.6-15.7-1.1c-5.8-0.5-11.7-1-17.5-1.6c-3-0.3-6-0.6-9-0.9c-1.9-0.2-3.8-0.3-5.8-0.3c-5.1,0-10.2,0-15.2,0
	c-5.7,0-11.4,0.1-17.1,0.3c-1.6,0-3.2,0-4.8,0c-1,3.5-2.4,7.1-4.1,10.7c-1.5,3.1-3.3,6.1-5.3,9c1.5,0.8,3,1.6,4.5,2.4
	c5,2.6,10.1,5.3,15.2,8.1c2.8,1.5,5.6,2.9,8.5,4c3.4,1.3,6.7,2.8,9.9,4.6c2.1,1.2,4.2,2.4,6.3,3.5c2.2,1.2,4.4,2.4,6.5,3.6
	c4.2,2.4,8.6,4.6,13.2,6.4c5.4,2.2,10.8,4.5,16.1,6.8c1.2,0.5,2.3,1,3.5,1.4c1.2-2.7,1.9-4.4,2.1-5c1.2-3.5,2.4-7.1,3.5-10.9
	c1.1-3.9,1.9-7,2.4-9.5c0.6-3.5,1.2-6.9,1.8-10.2C860.7,400,861.2,392.9,861.7,387 M814.6,265.6c-1.5,1.2-3,2.4-4.4,3.7
	c-1.5,1.4-3,2.7-4.5,4c-2.6,2.2-5.1,4.5-7.4,7c-1.6,1.7-3.2,3.4-5,4.9c-4.3,3.8-8.4,7.8-12.2,12c-1.1,1.2-2.2,2.3-3.4,3.4
	c-4.4,3.9-8.5,7.9-12.5,12.1c-2.7,2.9-5.4,5.7-8.2,8.4c-0.2,0.3-0.5,0.5-0.8,0.8c3.2,3.6,6.8,8.6,10.6,15.2c1.8,3.1,3.4,6.1,4.8,9
	c0.8-0.1,1.6-0.3,2.4-0.4c2-0.4,3.9-0.7,5.9-1c2.3-0.3,4.5-0.7,6.7-1.2c5.8-1.2,11.7-2.3,17.6-3.2c1.9-0.3,3.8-0.6,5.7-0.9
	c3.5-0.6,6.9-1.1,10.4-1.6c2.5-0.3,5.1-0.8,7.6-1.2c2.9-0.6,5.7-1.1,8.6-1.5c5.4-0.9,10.8-1.7,16.2-2.2c1.5-0.1,3-0.4,4.4-0.8
	c0.3-0.1,0.6-0.2,0.9-0.2c-2.6-8.7-6.3-17.2-11-25.7C838.7,291.3,827.9,277.8,814.6,265.6 M747.7,227.2c-4.9-1.4-7.8-2.3-8.7-2.6
	c0.3,5.4,0.7,9.9,1,13.5c0.1,2.6,0.2,8.6,0.2,18c0,3.8-0.1,6.6-0.3,8.4c-0.2,1.9-0.9,8.2-2.1,19c-0.5,5-1.2,9.6-2.2,13.6
	c-0.5,1.9-1,3.7-1.5,5.6c0,0.2-0.1,0.4-0.2,0.7c1.7,0.1,4,1.4,6.8,3.7c0.7,0.6,1.5,1.2,2.4,2c0.4-0.5,0.7-1.2,1-1.9
	c0.1-0.3,0.2-0.6,0.3-0.9c1.3-2.5,2.5-5.1,3.8-7.6c1.6-3.3,3.4-6.6,5.3-9.9c2.8-4.7,5.7-9.3,8.5-13.9c0.9-1.5,1.8-3,2.8-4.4
	c3-4.4,5.8-8.9,8.2-13.6c0.7-1.3,1.4-2.6,2.1-4c2-3.9,4.2-7.6,6.4-11.2c-5.5-3.1-11.3-5.9-17.2-8.5
	C758.9,231,753.4,228.9,747.7,227.2 M490.6,134.4L490.6,134.4c0,0.1-0.1,0.3-0.1,0.4c0,0.1-0.1,0.3-0.1,0.4c0,0.1-0.1,0.1-0.1,0.2
	c0,0.2-0.1,0.4-0.2,0.6c-0.1,0.3-0.2,0.6-0.2,0.9c0,0.1-0.1,0.1-0.1,0.2c-0.2,0.3-0.4,0.6-0.7,0.9c-0.1,0.1-0.2,0.2-0.2,0.2
	c-0.2,0.3-0.4,0.5-0.6,0.8c-0.2,0.3-0.4,0.5-0.7,0.7c0,0-0.1,0.1-0.1,0.1c-0.3,0.2-0.7,0.4-1,0.5c-0.2,0-0.3,0.1-0.5,0.2
	c-0.5,0.3-1.1,0.5-1.7,0.6c-0.2,0-0.3,0.1-0.5,0.1c-0.1,0-0.1,0-0.2,0c-0.2,0-0.3,0.1-0.5,0.1c-0.1,0-0.1,0-0.2,0
	c-0.2,0-0.5,0.1-0.8,0.1c-0.2,0-0.3,0-0.4,0c-0.2,0.1-0.4,0.1-0.5,0c0,0-0.1-0.1-0.2-0.1c-0.2,0-0.4-0.1-0.6-0.1
	c-0.1,0-0.3-0.1-0.4-0.1c-0.1,0.7-0.3,1.3-0.6,1.9c0,0.1-0.1,0.2-0.1,0.3c-0.1,0.2-0.2,0.4-0.2,0.5c-0.1,0.2-0.2,0.4-0.4,0.8l0,0
	c2.6,0.9,5.1,1.8,7.4,2.7c2.2,0.6,5.7,0.9,10.4,0.9c12.6,0,22.6-2.3,29.8-6.9c2.6-1.6,4.6-3.4,6.1-5.4c1.2-1.6,1.8-2.8,1.8-3.8
	c0-3.9-0.6-6.7-1.7-8.3c-1.8-2.5-5.4-3.8-10.8-3.8c-2.4,0-4.5,0.8-6.2,2.4c-1.4,1.4-2.1,2.7-2.1,4.1c0,0.4,0.3,1,0.8,1.9
	c0.2,0.8-0.5,1.6-2.1,2.5c-3.2,1.8-5.4,2.9-6.5,3.2c-2.4,0.9-5.4,1.3-8.9,1.3c-1.7,0-3.1-0.2-4.4-0.6
	C491.7,134.8,491.2,134.6,490.6,134.4 M835.5,45c0-3.1-1-7.1-2.9-12c-1.9-4.9-4.4-9.6-7.3-13.9c-1.8-2.8-6.4-5.2-13.8-7.4
	c-6.5-2-12.3-2.9-17.4-2.9c-11.5,0-24,2.7-37.2,8.1c-12.1,4.9-22.2,10.9-30.3,17.8c-4.3,3.7-8.5,8.5-12.7,14.3
	c-3.5,4.8-6,8.9-7.5,12.3c-0.6,1.4-1.7,4.3-3.1,8.5c-1.7,5.1-2.7,8.9-3.1,11.4c-1,6.3-1.5,9.8-1.5,10.3c-0.3,3.8-0.5,12.2-0.5,25.1
	c0,4.5,0.1,7.9,0.3,10.2c0.2,1.6,0.4,3,0.8,4.1c0.8,0.2,1.6,0.4,2.5,0.5c0.3,0,0.7,0,1,0c0.8,0,2.3-0.1,4.5-0.2
	c2.5-0.1,4-0.3,4.6-0.4c0.5-0.1,1.1-0.3,1.6-0.4c-0.3-1.2-0.7-3.1-1.2-5.5c-0.8-3.5-1.2-6.4-1.2-8.6c2-11.1,4.1-20.7,6.5-28.9
	c3.4-11.8,5.8-19.3,7-22.5c1.5-3.8,3.9-7.9,7.2-12.2c5.7-7.6,11.3-13.5,17-17.5c8.2-5.9,17.3-8.9,27.1-8.9c3.6,0,6.5,1.4,8.8,4.2
	c-15.6,0-23.4,6.8-23.4,20.2c0,3.5,1.2,7.6,3.6,12.3c2.4,4.6,5.8,9.4,10.1,14.2c2.7,3,5.6,5.1,8.8,6.5c3.5,1.5,7.7,2.3,12.6,2.3
	c3.6,0,8-1,13.2-2.9c5.8-2.2,10.3-4.9,13.3-8.1c3.3-3.4,6.2-8,8.7-13.8C834.2,55.3,835.5,49.8,835.5,45 M807.3,32.1
	c4.7-0.6,8.2-0.6,10.5,0c3.7,1,5.5,3.5,5.5,7.5c0,1.9-1,4.7-3,8.4c-2,3.8-4.3,7.1-6.8,9.8c-2.7,2.9-6.9,5.3-12.5,7.1
	c-5,1.7-9.5,2.5-13.8,2.5c-2.8,0-5.2-0.7-7-2.1c-2.1-1.6-3.1-3.7-3.1-6.4c0-4.4,2.6-8.7,7.8-12.9C788.2,43.4,795.7,38.8,807.3,32.1z
	"/>
<path fill="#666666" d="M336.4,314.8c-1.4-2.6-2.7-5.4-4.1-8.3c-1,0.9-2.1,2.1-3.2,3.5c-0.8,1-2.8,2.6-5.9,4.8
	c-7.1,5.2-15.3,12.5-24.5,22c-6,6.2-9.3,9.7-9.9,10.5c-1.7,1.8-4,4.8-7,8.9c-0.2,0.3-1.6,1.8-4.2,4.3c-2.7,2.7-4.7,4.9-6.1,6.5
	c-0.1,0.2-1,1.7-2.7,4.6c-1.9,3.2-3.8,6.1-5.6,8.7c0.8,1.2,1.7,2.4,2.7,3.9c3.5,5.1,6.7,9.3,9.7,12.4c1.4,1.5,4.3,4.2,8.8,8.2
	c6.2,5.6,12.7,10.2,19.4,13.8c5.3,2.8,10.2,4.8,14.8,6c-0.6-21.6,1.5-40.4,6.2-56.3c4.6-15.7,8.2-26.2,10.9-31.4
	c1.1-2.1,2.3-4,3.6-5.7c1.7-1.9,3-3.4,4-4.7C341.1,323,338.8,319.1,336.4,314.8 M323.4,284.4c-0.2-0.6-0.4-1.2-0.5-1.8
	c-3.5-10.6-5.3-20-5.5-28.2c-17.9,1.8-34.6,5.7-50.2,11.9c-6.4,2.5-20.2,9.1-41.5,19.7c0.8,3,1.6,6,2.5,9.2
	c3.8,14.1,7.3,25.9,10.4,35.4c7.9-6.8,18.4-14.2,31.6-22C288.6,297.6,306.4,289.5,323.4,284.4 M215.5,238.2c0,1.4,0.1,3.2,0.4,5.6
	c3.3-1.3,11.6-3.7,24.8-7.1c18.8-4.9,30-7.9,33.6-9c4.8-1.3,12.3-2.5,22.5-3.5c5.7-0.5,13.4-1.1,23.1-1.8c0.2-0.7,0.3-1.5,0.5-2.2
	c0.9-4.8,1.9-8.8,3-12.1c1.3-3.8,3.2-7.7,5.5-11.6c-3.4-2.2-7.2-4.5-11.6-6.9c-3.6-2-6.5-3.8-8.8-5.3c-2.5-1.7-5.9-3.6-10.2-5.6
	c-3.8-1.7-6.6-2.7-8.5-3.2c-1.1-0.3-4.3-1.6-9.6-4.1c-5.7-2.7-11-4.7-15.8-6.2c-7.1-2.1-12.3-3.5-15.8-4.1c-3.4-0.7-8.9-1.3-16.5-2
	c-2,4-3.7,7.7-5,11c-5,12.9-8.1,22.5-9.1,29C217.5,203.8,216.6,216.9,215.5,238.2 M407.5,90.1c-1.1-1.2-2.2-2.3-3.5-3.2
	c-3.7-2.8-6.5-4.5-8.4-5.3c-0.9-0.4-2-0.6-3.2-0.6c-0.3,0-1.5,0.1-3.4,0.4c-1.9,0.2-3.1,0.3-3.4,0.3c-0.8,0-2.9,1.5-6.1,4.4
	c-3.6,3.3-5.4,6-5.4,8.1c0,2.7,1.3,5.4,4,8.1c3.4,3.5,8.5,6.6,15.5,9.3c4.4,1.7,9.8,2.8,16.1,3.4c3.4,0.4,7.6,0.6,12.6,0.8
	c-0.8-2.2-1.4-3.8-1.9-5c-0.8-1.9-3-5.9-6.5-11.9c-0.9-1.6-1.5-2.6-1.8-3c-0.3-0.5-1-1.3-2-2.6C408.9,91.9,408.1,90.8,407.5,90.1
	 M395.2,91.8c0.3,0.1,1.6,0.3,3.9,0.6c2.2,0.6,3.3,1.6,3.3,3.1c0,1.2-0.4,2.4-1.2,3.6c-1.2,1.6-2.9,2.4-5.2,2.4
	c-1.1,0-2.3-0.5-3.5-1.6c-1.6-1.4-2.4-3.3-2.4-5.6c0-0.5,0.2-1.1,0.7-1.8c0.6-0.9,1.4-1.3,2.2-1.3C393.6,91.2,394.3,91.4,395.2,91.8
	 M488.2,131.8c0-2.3-0.9-4.3-2.6-6c-2-2-4.5-3-7.7-3c-6.1,0-11.3,4.4-15.4,13.1c-2,4.1-3.8,9-5.5,14.8c0.2,0,0.3,0.1,0.4,0.1
	c0.2,0,0.4,0,0.6,0.1c0.7,0.2,1.4,0.3,2.1,0.4c0.3,0,0.6,0.1,1,0.1c1.1,0.1,2.3,0.2,3.5,0.3c0.7,0,1.5,0.1,2.2,0.2
	c0.3,0.1,0.6,0.1,0.9,0.2c1.2,0.1,2.5,0.2,3.8,0.3c0.2,0,0.3,0,0.5,0c0.5-1.7,1.2-3.6,2.2-5.8c1.4-3.1,2.8-5.5,4-7.2
	c1.8,0.6,3,0.9,3.5,0.9c2.2,0,3.9-0.8,5-2.2C487.6,136.4,488.2,134.4,488.2,131.8 M482.6,187.6c-0.9-0.8-1.8-1.4-2.6-1.6
	c-2.6-0.7-4.8,0.6-6.8,4c-1.5,2.6-2.2,4.7-2.2,6.4c0,1.6,0.6,2.9,1.7,3.8c1,0.8,2.2,1.1,3.6,1.1c3,0,5.1-0.9,6.5-2.6
	c1.2-1.5,1.8-3.8,1.8-6.9C484.5,190.2,483.9,188.8,482.6,187.6 M391.6,160.2c-2.4,0-4.9,1.2-7.4,3.5c-2.9,2.6-4.3,5.6-4.3,9
	c0,3.5,1.1,6.4,3.3,8.9c0.2,0.2,2.7,2.3,7.5,6.4c5,4.2,8.8,6.6,11.5,7.1c0.1-0.2,0.2-0.3,0.3-0.5c0.4-0.6,0.7-1.2,1.1-1.8
	c0.7-1.3,1.5-2.6,2.2-4c0.2-0.2,0.4-0.5,0.6-0.7c0.6-0.7,1.1-1.5,1.5-2.2c-1.3-0.3-2.8-1.1-4.4-2.5c-1.9-1.9-3.2-3-3.9-3.5
	c-2.2-1.4-3.6-3-4.4-4.6c4-1,6-3.4,6-7.1c0-3-1-5.1-3-6.4C396.8,160.8,394.5,160.2,391.6,160.2 M456.3,167.3
	C456.3,167.3,456.2,167.3,456.3,167.3c-0.4,2.2-1.1,5.1-2.2,8.5c-1.2,3.8-2.4,6.2-3.4,7.2c-0.8,0.8-3.2,1.9-7.2,3.2
	c-3.9,1.3-6.4,2-7.4,2c-0.7,0-1.9-0.1-3.8-0.2c-1.6-0.1-3-0.3-4.4-0.5c-0.2,0.5-0.5,1.1-0.6,1.8c-0.1,0.3-0.2,0.6-0.4,0.9
	c-0.7,1.5-1.3,3.1-1.7,4.8c-0.2,0.9-0.5,1.7-0.8,2.6c-0.1,0.3-0.2,0.6-0.3,0.9c-0.2,0.5-0.4,1.1-0.7,1.5c13.8-0.6,23.3-2.9,28.7-6.7
	c2.7-2,5.4-4.9,8-8.7c1.2-1.8,3.9-6.3,8-13.4c-0.6-0.8-2.1-1.6-4.6-2.5C461,167.6,458.5,167.2,456.3,167.3z"/>
<path fill="#333333" d="M327.2,294.6c-1.4-3.5-2.7-6.9-3.8-10.2c-17.1,5.1-34.8,13.2-53.2,24.2c-13.2,7.9-23.7,15.2-31.6,22
	c4.1,12.6,7.6,21.4,10.4,26.2c4.9,8.4,8,13.7,9.2,16.1c0.4,0.7,2.1,3.2,5.1,7.4c1.9-2.6,3.8-5.5,5.6-8.7c1.7-2.9,2.6-4.4,2.7-4.6
	c1.4-1.6,3.4-3.8,6.1-6.5c2.5-2.5,3.9-4,4.2-4.3c3-4.1,5.3-7.1,7-8.9c0.7-0.8,4-4.3,9.9-10.5c9.2-9.5,17.3-16.9,24.5-22
	c3.1-2.2,5-3.8,5.9-4.8c1.2-1.4,2.2-2.6,3.2-3.5C330.6,302.8,328.9,298.8,327.2,294.6 M296.9,224.3c-10.3,1-17.8,2.1-22.5,3.5
	c-3.6,1-14.9,4-33.6,9c-13.2,3.5-21.5,5.9-24.8,7.1c1.1,8.1,4.4,22.1,9.7,42.1c21.3-10.6,35.1-17.2,41.5-19.7
	c15.6-6.1,32.4-10.1,50.2-11.9c0-0.6,0-1.2,0-1.8c0.2-7.6,0.4-13.4,0.6-17.1c0.1-1.9,0.2-3.4,0.4-4.3c0.3-1.3,0.9-4.2,1.8-8.7
	C310.3,223.2,302.6,223.8,296.9,224.3 M258.2,123.5c-4.2,4-8.8,9.1-13.6,15.5c-3.3,4.3-6.7,9.7-10.2,16.2c-0.7,1.3-1.4,2.6-2.1,3.9
	c7.6,0.7,13.1,1.4,16.5,2c3.5,0.7,8.7,2,15.8,4.1c4.8,1.4,10.1,3.5,15.8,6.2c5.4,2.5,8.6,3.9,9.6,4.1c1.9,0.5,4.7,1.5,8.5,3.2
	c4.3,2,7.7,3.8,10.2,5.6c2.2,1.5,5.1,3.3,8.8,5.3c4.3,2.4,8.1,4.7,11.6,6.9c3.9-6.4,9.1-12.8,15.6-19.2c1.8-1.3,3.3-2.4,4.5-3.3
	c-3.8-3.9-7.4-8.4-10.7-13.2c-3.4-5-5.5-8-6.5-9c-4.2-3.1-7.3-5.6-9.2-7.5c-1.3-1.3-4.5-4.3-9.4-8.8c-4.7-4.3-7.1-6.5-7.2-6.6
	c-1.7-1.5-3.7-3.1-5.8-4.6c-2.9-2.1-5.5-3.9-7.8-5.6c-0.3-0.3-1.2-1.2-2.7-2.9c-1.4-1.6-2.4-2.6-2.9-2.9l-9.2-6.1
	c-2,1.4-3.7,2.7-5,4C268.6,114.4,263.8,118.7,258.2,123.5 M399.2,92.4c-2.4-0.3-3.7-0.5-3.9-0.6c-0.9-0.4-1.6-0.6-2.1-0.6
	c-0.8,0-1.6,0.4-2.2,1.3c-0.5,0.7-0.7,1.3-0.7,1.8c0,2.4,0.8,4.2,2.4,5.6c1.2,1,2.4,1.6,3.5,1.6c2.3,0,4-0.8,5.2-2.4
	c0.8-1.1,1.2-2.3,1.2-3.6C402.5,94.1,401.4,93.1,399.2,92.4 M621.9,115.1l0.2,0.2c0.4,0.6,0.8,1.1,1,1.5l2.5,5.5l0.3,0.9
	c0.1,0.3,0.2,0.6,0.3,0.9l0.5,1.5c0.1,0.2,0.2,0.6,0.2,1.1l0.1,0.5c0.1,0.4,0.2,0.7,0.3,1.1l0.2,0.9l0.1,0.2
	c6.4,3.1,12.1,4.5,17.1,4.4c3-5.3,5.1-8.9,6.4-10.8c1-1.4,3.1-4.2,6.4-8.4c-2.2-0.4-5.5-1-10.2-1.8c-6.3-1-10.4-1.5-12.4-1.5
	l-16,0.2c0.5,0.5,0.8,0.8,0.9,1.1l0.3,0.4c0.3,0.3,0.5,0.6,0.8,1l0.2,0.4C621.5,114.6,621.8,114.9,621.9,115.1 M626.9,214.8
	c-0.8,5-2.6,13.2-5.3,24.7c9.3-24.7,16.4-44,21.3-57.8c3.9-11.2,6.4-18.6,7.7-22.2c2.7-7.8,6.3-15.2,11-22.1
	c3.2-4.7,6.1-8.1,8.5-10.4l15.2-13.1c0.4-0.4,2.4-1.9,5.9-4.4c0.6-0.5,0.9-2.2,0.9-5c0-2,0.1-3.8,0.4-5.5c0.5-3.3,0.8-6.3,1.1-9.2
	c-3.7,1.5-8.9,5.1-15.5,10.8c-10.8,9.3-21.9,21.8-33.4,37.5c-0.7,1.8-3.3,7.7-7.7,17.9c-4.1,9.8-6.2,15.8-6.3,18.1
	C630,189.7,628.8,203.3,626.9,214.8 M483,165.8c-1.6-2-3-3.6-4.2-4.6c-4.3-3.7-11.8-6.5-22.3-8.4l0,0.2c-1.9-0.2-4.5-0.2-8,0.1
	c-3.3,0.3-5.7,0.7-7.2,1.1c1.5,2.2,3.8,6.1,7,11.9c2.2-1.2,4.9-1.8,8.1-1.8c5.4,0,9.5,1.1,12.4,3.3c2.2,1.7,3.3,3.5,3.3,5.6
	c0,1.6-2,5.2-6.1,10.9c-4.9,6.7-10.1,12.3-15.8,16.6c3.8,5.1,7,8.3,9.7,9.8c1.7,1,4.3,1.5,7.6,1.5c3.3,0,5.6-0.2,7-0.6
	c0.6-0.2,2.9-1.2,6.8-3.1c3.9-1.9,6-3,6.2-3.2c3.1-2.6,5-4.4,5.7-5.5c0.9-1.4,1.3-4.6,1.3-9.8c0-2.3-0.5-5.1-1.4-8.4
	c-1.4-5.1-3.4-8.8-6.1-11.1C485.8,169.4,484.5,167.9,483,165.8 M480,186c0.8,0.2,1.7,0.8,2.6,1.6c1.2,1.2,1.9,2.6,1.9,4.1
	c0,3.1-0.6,5.4-1.8,6.9c-1.3,1.8-3.5,2.6-6.5,2.6c-1.4,0-2.6-0.4-3.6-1.1c-1.1-0.9-1.7-2.2-1.7-3.8c0-1.6,0.8-3.8,2.2-6.4
	C475.2,186.6,477.5,185.3,480,186 M386.7,206.5c1.5-1.6,2.3-3.2,2.3-4.9c0-5.4-2.9-8.1-8.7-8.1c-3.8,0-6.7,1.2-8.8,3.8
	c-2.3,2.8-3.5,7.2-3.5,13.1c0,1.7,0.2,3.2,0.5,4.3c0.4,1.4,1.2,2.7,2.4,4c1.9,2,4.6,3.8,8.1,5.4c3.1,1.4,5.5,2.1,7.3,2.1
	c3.6,0,5.9,0,7-0.1c2.3-0.2,4.4-0.8,6.1-1.8c3.6-1.9,5.9-3.3,6.9-4.1c2.3-1.9,4.5-4.8,6.7-8.6c4.4-7.7,8.3-15.2,11.9-22.3
	c3-6.2,5-10.3,5.9-12.1c-1.1-2.4-1.9-3.8-2.3-4.2c-1.3-1-2.9-2.4-4.8-4c-0.2,0.7-1,2.3-2.2,4.8c-1.3,2.4-2.1,3.9-2.4,4.3
	c-0.5,0.7-2.2,3.4-5.1,8.1c-2.7,4.3-4.5,7-5.4,8.1c-1,1.1-3.3,4.7-7,10.6c-3.9,5.4-7.7,8.1-11.3,8.1c-0.8,0-2-0.3-3.7-1
	c-1.8-0.7-3-1.5-3.6-2.1C385,208.1,386.2,207,386.7,206.5 M722.3,86.1c-0.1,0.3-1,2.5-2.8,6.7c-1.8,4.4-2.9,7.4-3.2,9.1
	c0.1-0.2,0.5-0.3,1.1-0.5c0.6-0.2,1.2-0.2,1.7-0.2c17,0,25.5,5.4,25.5,16.2c0,2.4-0.5,4.9-1.4,7.6c-1.2,3.5-3,6.1-5.4,7.9
	c-2.4,1.9-4.2,3.1-5.3,3.4c-2.3,0.7-7,1-14,1c-6.4,0-14.9-1.9-25.6-5.6c-9.1-3.2-14.8-5.7-17-7.6c-0.6,0.5-2,2.2-4.2,5.1
	c-2.4,3.1-4.7,6.2-6.7,9.4c3.1,1,11.6,3.4,25.3,7c15.8,4.2,25,6.2,27.5,6.2c2,0,4.4-0.2,7.2-0.6c4.4-0.6,6.8-0.9,7.4-1
	c0.5,0,2.1-0.7,4.7-2c2.9-1.4,6-3.1,9.3-5c4.6-2.7,8-5.9,10.2-9.5c1.9-3,2.8-6.2,2.8-9.4c0-5.5-1.6-11.3-4.9-17.4
	c-4.3-8-10.4-13.1-18.1-15.4c-3.5-1-6.7-2.1-9.6-3.2C724.4,87.3,722.8,86.5,722.3,86.1z"/>
</svg>
