<?xml version="1.0" encoding="utf-8"?>
<!-- Generator: Adobe Illustrator 18.1.1, SVG Export Plug-In . SVG Version: 6.00 Build 0)  -->
<svg version="1.1" id="Layer_1" xmlns="http://www.w3.org/2000/svg" xmlns:xlink="http://www.w3.org/1999/xlink" x="0px" y="0px"
	 width="517.8px" height="389.1px" viewBox="298.2 63.5 517.8 389.1" enable-background="new 298.2 63.5 517.8 389.1"
	 xml:space="preserve">
<path fill="#999999" d="M591.4,160.8c0-2.2-1-3.4-3.1-3.6c-3.6,0-7,0-10.2-0.1c-1.3,5.1-2.1,7.9-2.2,8.2c0,0.1-1.2,2.8-3.6,8.1
	c-1.6,3.7-3.5,9.9-5.8,18.7c4-0.3,9.1-0.5,15.2-0.7c4.2-0.2,6.6-0.8,7.1-1.7C590.6,186.9,591.4,177.3,591.4,160.8 M523.5,177.3
	c1,9.3,1.6,14.2,1.8,14.7l13.4-0.5c0.7,0,6,0.3,16,0.9c-1-4.2-1.9-8.2-2.9-11.8c-1.9-6.7-4.5-14.2-7.8-22.5l-22.6,1.1
	C521.6,161.5,522.3,167.5,523.5,177.3 M508,222.7c-3.1,3.8-7.8,9.3-13.9,16.4c-2,2.5-15,11.2-38.9,26.1c-3.4,1.9-7.4,3.8-12.1,5.7
	c-4.7,1.9-7.8,2.7-9.1,2.6c0.7,7.6,1,17.9,0.9,30.8c0.5,11.6,2.7,22.9,6.6,33.8c1,2.7,3.8,9.2,8.4,19.7c5.6,12.6,10.4,22.9,14.5,31
	c3.3,6.5,6.6,11.7,10.1,15.7c1.9,2.2,4.6,5.4,8.1,9.5c4.9,6.9,7.5,10.4,7.7,10.6c2.7,3,7.5,7,14.6,12c4.2,2.9,11.1,6.2,20.7,9.9
	c10.7,4.1,18.8,6.1,24.3,6.1c1,0,2.8-0.3,5.4-0.8c2.8-0.6,7.1-1,12.9-1.1c4.4-0.1,7.8-0.4,10.4-1c1.7-0.3,4.7-1.1,8.8-2.2
	c5.6-1.4,10.8-3.5,15.4-6.1c4.9-2.7,10.6-6.8,17.3-12.3c3.6-3,8.9-9.4,15.8-19.3c6.2-9.4,9.4-14.2,9.5-14.3
	c4.2-6.5,7.8-13.6,11-21.1c1.2-2.8,3.7-9.2,7.5-19.2c3.9-10.4,6.1-16.2,6.5-17.6c1-3.2,2.5-11.1,4.3-23.8c2-13.9,3.1-24.2,3.1-31
	c-4.7-1.8-10.3-3.5-16.9-5c-4.5-1-8.7-2.8-12.5-5.2c-10.5-6.7-17.4-11.5-20.9-14.3c-2.6-2.1-5.4-5-8.4-8.6
	c-7.9-9.8-12.4-15.5-13.6-17.1c-6.7-9.4-10.7-17.4-12-24.1c-2.5,0.7-4.2,1.1-4.9,1.2c-0.8,0.2-2,0.2-3.8,0.2l-54.8,0.6
	c-1.9,0-3.8-0.4-5.8-1.2c-2.9-1.2-4.8-2-6-2.3C517.1,210.5,513.6,215.8,508,222.7 M509.1,236.6c0.7-0.9,1.5-1.5,2.4-2
	c1.8-0.9,3.6-1.7,5.3-2.3c1.5-0.5,2.4-0.8,2.8-0.8c1.9,0,3.4,1,4.4,3c0.9,1.8,1.4,4,1.4,6.6c0,3.5-0.8,6.5-2.5,8.9
	c-1.9,2.9-4.7,4.4-8.2,4.4c-3.8,0-6.1-2.3-7-7c-0.6-3.1-0.5-5.9,0.1-8.2C508.1,238.3,508.5,237.4,509.1,236.6 M587.8,240.4
	c2.4-2.3,4.9-3.5,7.4-3.5c2.3,0,4.6,0.9,6.8,2.6c2.4,2,3.6,4.3,3.6,7.1c0,3.4-1.7,6.6-5,9.5c-3,2.6-5.9,3.9-8.7,3.9
	c-3.5,0-5.8-0.8-7-2.3c-0.4-0.5-0.9-1.8-1.5-4.1C583,248,584.5,243.6,587.8,240.4 M444.1,291.7c0-6.3,1.4-11.1,4.1-14.5
	c2.5-3,6.1-4.6,10.8-4.9c4.1-0.2,7.7,1.4,10.7,4.6c3.3,3.5,5,8.2,5,14.1c0,5.6-1.8,10.2-5.4,13.9c-3.4,3.5-7.4,5.3-12,5.3
	c-3.8,0-6.8-1.4-9.1-4.2C445.5,302.8,444.1,298,444.1,291.7 M611.7,265c2.1-1.7,3.2-2.6,3.4-2.6c4.1,0,7.4,1.6,9.8,4.9
	c2,2.8,3.1,5.9,3,9.5c0,4.1-1.5,7.7-4.6,10.9c-3.1,3.3-6.6,4.9-10.5,4.9c-3.9,0-6.4-2.1-7.4-6.4c-1.1-4.5-0.2-10.3,2.6-17.4
	C608.3,268,609.5,266.8,611.7,265 M566.5,220.5c1.3-1.7,2.8-2.6,4.5-2.6c1.7-0.8,2.6-1.2,2.8-1.2c2,0,3.7,1.2,5.1,3.8
	c1.2,2.2,1.8,4.6,1.8,7.1c0,2.1-0.8,3.7-2.5,5c-1.6,1.3-3.6,2-6,2c-2.7,0-4.7-0.7-5.9-2.1c-1.2-1.3-1.8-3.5-1.8-6.4
	C564.5,224,565.2,222.2,566.5,220.5 M541.5,218.2c0.9-0.5,2.1-0.5,3.5,0.1c2.1,0.9,3.2,3,3.2,6.5c0,2.3-0.8,4.6-2.5,6.9
	c-1.8,2.4-3.8,3.6-6,3.6c-1.3,0-2.4-0.3-3.5-0.9c-1.7-1-2.6-2.8-2.5-5.1c0-2.2,0.6-4.4,2-6.6C537.2,220,539.2,218.5,541.5,218.2
	 M498.5,255.4c2.1,2.4,3.2,5.4,3.2,9.2c0,3-1.1,5.7-3.3,8.3c-2.6,3-6,4.6-10,4.6c-2.9,0-5.4-0.8-7.6-2.4c-2.7-2-4-4.8-4-8.4
	c0-2.7,1.5-5.8,4.5-9.2c2.7-3.1,5.3-5.1,7.7-5.9C493.1,251.6,496.2,252.8,498.5,255.4 M642.1,287.5c3.3-1.3,6.5-1.8,9.5-1.3
	c2.5,0,5.5,1.6,9,4.9c4.1,3.8,6.1,8,6.1,12.5c0,3-1.1,5.6-3.2,7.9c-2.8,3-7.1,4.5-12.7,4.5c-5.1,0-9.3-1.2-12.6-3.5
	c-3.7-2.6-5.6-6.2-5.6-11c0-2.9,1-6,2.9-9.2C636.7,290.3,638.9,288.7,642.1,287.5 M617.7,155.9c-1.2,4.6-1.9,11.4-1.9,20.4
	c0,13.1,1.2,23.1,3.8,30.1c2.6,7.2,7.8,14.9,15.8,23.1c9.8,10.1,18.2,17.3,25.2,21.4c8.2,4.9,16.9,7.3,26.3,7.3
	c12,0,22.9-1.1,32.6-3.3c4.8-1.1,8.8-2.4,12.1-3.8c4.4-2,9.2-5.4,14.5-10.1c4.6-4.3,7.3-7.5,8.2-9.6c0.3-0.9,2.4-4.4,6.1-10.8
	c1.9-3.2,3.8-6.4,5.8-9.6c2.2-3.5,3.8-6.8,5-9.8c2.7-7.1,4-14.8,4-23.2c0-22.8-6.7-41.1-20.1-54.9c-5.3-5.4-11.3-9.8-18-13.1
	c-5.8-2.8-11.4-4.6-16.9-5.4c-0.6-0.1-11.6-2.8-33-8.1c-4.6,0-9.5,0.7-14.9,2.2c-4.7,1.5-7.5,2.3-8.4,2.4
	c-7.6,0.9-15.8,6.4-24.7,16.3c-6.4,7.3-10.9,13.7-13.5,19.4C621.2,146.2,618.6,152.6,617.7,155.9 M709.3,161.2
	c3.2,3,4.8,6.2,4.8,9.8c0,3.6-1.4,7.1-4.2,10.4c-3.3,3.9-7.4,5.9-12.4,5.9c-3.6,0-6.8-1-9.4-3c-3.1-2.4-4.7-5.9-4.7-10.3
	c0-6.7,1.6-11.6,4.8-14.7c2.7-2.6,6.2-3.7,10.5-3.1C702.7,156.7,706.2,158.4,709.3,161.2 M488.1,127.2c-0.4-0.5-1.8-2.1-4.2-4.8
	c-3-3.2-5.6-5.8-7.7-7.8c-3.7-4-6.5-6.9-8.4-8.6c-3.2-2.9-7.6-5.5-13.4-7.8c-8.9-3.5-17.6-5.3-26.1-5.3c-4.9,0-11.5,1-19.6,3.1
	c-4.2,1-8.5,2.2-12.8,3.6c-2.2,0.3-6,2-11.4,5.1c-4.9,2.8-10.7,6.6-17.4,11.3c-3.2,2.3-6.7,6.3-10.5,12.2c-3,4.7-5,8.5-5.9,11.2
	c-0.8,2.6-1.4,5.2-1.8,7.7c-0.4,2.8-0.6,6.2-0.6,10.2c0,0.3-0.1,5.3-0.2,15c-0.1,4.8,0,8.7,0.3,11.6c0.7,7.2,3.2,15.2,7.6,24
	c6.8,13.7,17,24,30.5,30.8c9.8,5,19.5,7.5,28.9,7.5c14.4,0,28.6-4.2,42.7-12.6c12.3-7.4,20.6-15.2,24.8-23.5
	c3.3-5.1,6.1-10.3,8.5-15.6c4.7-10.2,7.1-19.8,7.1-28.8c0-8.1-1.1-15.9-3.4-23.4C493.3,136.2,490.9,131.1,488.1,127.2 M427.1,160.2
	c2.8,2.4,4.2,5.6,4.2,9.6c0,3.9-1.3,7.1-4,9.6c-2.5,2.4-5.5,3.6-9.1,3.6c-2.4,0-4.8-0.8-7.1-2.2c-3-1.9-4.5-4.5-4.5-7.7
	c0-2.7,0.8-5.6,2.4-8.7c1.2-2.3,2.2-3.8,3-4.5c0.7-0.6,1.8-1.2,3.5-1.8c1.6-0.6,2.8-0.9,3.8-0.9
	C422.2,157.3,424.8,158.3,427.1,160.2z"/>
<path fill="#333333" d="M551.7,180.6c1,3.6,2,7.5,2.9,11.8c4.3,0.2,8.3,0.1,11.9-0.3c2.3-8.8,4.2-15,5.8-18.7
	c2.4-5.4,3.6-8.1,3.6-8.1c0.1-0.3,0.9-3,2.2-8.2c-4.9,0.5-8.4,0.8-10.5,1c-3.3,0.2-6.7,0.3-10,0.1c-3.8-0.1-8.4-0.1-13.8,0
	C547.2,166.4,549.8,173.9,551.7,180.6 M595.2,236.9c-2.5,0-5,1.2-7.4,3.5c-3.3,3.2-4.8,7.6-4.5,13.2c0.6,2.3,1.1,3.6,1.5,4.1
	c1.2,1.6,3.6,2.3,7,2.3c2.8,0,5.7-1.3,8.7-3.9c3.3-2.9,5-6.1,5-9.5c0-2.7-1.2-5.1-3.6-7.1C599.7,237.8,597.5,236.9,595.2,236.9
	 M511.5,234.6c-0.9,0.5-1.7,1.1-2.4,2c-0.6,0.8-1,1.7-1.2,2.6c-0.6,2.4-0.6,5.1-0.1,8.2c0.8,4.7,3.1,7,7,7c3.5,0,6.3-1.5,8.2-4.4
	c1.6-2.5,2.5-5.4,2.5-8.9c0-2.6-0.5-4.8-1.4-6.6c-1-2-2.5-3-4.4-3c-0.4,0-1.3,0.3-2.8,0.8C515.1,232.9,513.3,233.7,511.5,234.6
	 M800.9,174.9c0.1,0,2.1-0.4,5.9-1.1c4.1-0.8,7.2-1.4,9.2-1.5c-3.9-2.9-7.6-8-11.2-15.4c-3.4-7.8-5.8-13-7.2-15.4
	c-8.1-14-13.5-22.9-16.4-26.8c-0.7-0.9-2.8-3.1-6.4-6.5c-4.8-4.5-10.6-9.3-17.4-14.5c-12.2-9.3-22-14.8-29.3-16.7
	c-7.2-2.2-13.5-4-18.8-5.5c-10-2.7-17.7-4.1-23.1-4.1c-8.2,0-17.4,1.3-27.5,3.9c-10.3,2.7-19.8,6.2-28.5,10.6
	c-5.5,2.8-11.5,9.3-18,19.4c-6.8,10.4-12,21.7-15.8,33.7c-2.8,2.2-14.5,3.4-35,3.4c-14.8,0-26.3-0.3-34.6-1c-1.8-2.5-4.7-6.8-8.7-13
	c-4.3-6.6-7.7-11.8-10.4-15.5c-9.6-13.4-20.3-24.7-32.2-33.8c-2-1.6-8.8-3.9-20.3-7.1c-11.6-3.2-19.2-4.8-22.9-4.8
	c-14.7,0-32.2,5.2-52.6,15.5c-6.9,3.5-13.5,7.3-19.9,11.4c-5,3.2-8.2,5.5-9.5,6.8c-16.1,15.4-29.1,31.4-39.1,48
	c-4.6,7.7-9,16.5-13,26.4l0.6,1c1.5,2.8,4.6,6.6,9.2,11.4c4.3,4.4,7.5,7.3,9.7,8.7c-0.5-3.1-0.6-7.9-0.5-14.6
	c0.2-6.1,0.4-9.2,0.4-9.4c0-6,1.1-12.4,3.4-19.3c1.4-4.1,2.7-7.4,4.1-9.9c9.7-13.7,17.7-23.6,24.1-29.7
	c11.5-10.9,22.9-18.9,34.2-24.1c9-4.1,14.8-6.7,17.5-7.7c8.4-3.2,16-5,22.7-5.5c2.7-0.2,9.4,0.4,20.1,1.8c13,1.6,21.7,3.6,26.1,5.8
	c4.9,2.5,11.1,7.8,18.6,15.9c6.9,7.3,12.8,14.8,17.9,22.2c1.8,2.7,3.5,5.9,5.1,9.6c1.4,3.3,2.6,5.5,3.5,6.8c1.1,1.4,2.1,3.5,3.2,6.3
	c0.7,1.8,1.8,3,3.5,3.5c2,0.6,4.1,0.9,6.5,1c1.2,0,2.2,0,3-0.1l35.5,0.9c0.8,0.2,2.1,0.5,3.9,0.9c2.3,0.5,3.7,0.8,4.2,0.8
	c1.7,0,4.6-0.2,8.8-0.6c5.2-0.5,10.5-0.9,15.9-1.1c3.4-6.5,5.3-10.3,5.6-11.4c0.4-2.2,1.4-6.4,3-12.6c0.9-3.5,3.2-7.6,6.9-12.3
	c3.9-5.1,7.8-8.8,11.8-11.3c11.5-7.1,19.4-11.6,23.5-13.6c9.8-4.7,19-7,27.5-7c11.2,0,22.5,1.4,33.8,4.2c17.2,4.2,32.8,11.3,47,21.3
	c5.3,3.8,10.8,9.2,16.5,16.5c4.2,5.3,7.5,10.1,10,14.6c0.7,1.4,3.8,6.4,9.2,15.2c5,9.2,7.5,16.4,7.5,21.7
	C801.7,171.9,801.4,173.1,800.9,174.9z"/>
<path fill="#FFFFFF" d="M651.6,286.1c-3-0.5-6.2,0-9.5,1.3c-3.2,1.3-5.4,2.9-6.6,4.8c-1.9,3.2-2.9,6.3-2.9,9.2c0,4.7,1.9,8.4,5.6,11
	c3.3,2.3,7.5,3.5,12.6,3.5c5.6,0,9.9-1.5,12.7-4.5c2.1-2.3,3.2-4.9,3.2-7.9c0-4.5-2-8.7-6.1-12.5
	C657.1,287.8,654.1,286.1,651.6,286.1 M448.2,277.2c-2.7,3.3-4.1,8.1-4.1,14.5c0,6.3,1.3,11.1,4,14.4c2.3,2.8,5.3,4.2,9.1,4.2
	c4.6,0,8.6-1.8,12-5.3c3.6-3.7,5.4-8.4,5.4-13.9c0-5.9-1.7-10.6-5-14.1c-3-3.2-6.6-4.7-10.7-4.6
	C454.3,272.6,450.7,274.2,448.2,277.2z"/>
<path fill="#CCCCCC" d="M501.7,264.6c0-3.8-1.1-6.8-3.2-9.2c-2.3-2.6-5.5-3.8-9.6-3.8c-2.4,0.8-4.9,2.8-7.7,5.9
	c-3,3.4-4.5,6.5-4.5,9.2c0,3.6,1.3,6.4,4,8.4c2.2,1.6,4.7,2.4,7.6,2.4c4.1,0,7.5-1.5,10-4.6C500.6,270.3,501.7,267.6,501.7,264.6
	 M615.1,262.4c-0.2,0-1.4,0.9-3.4,2.6c-2.2,1.8-3.4,3-3.7,3.8c-2.8,7.1-3.7,12.9-2.6,17.4c1,4.3,3.5,6.4,7.4,6.4
	c3.9,0,7.4-1.6,10.5-4.9c3.1-3.2,4.6-6.9,4.6-10.9c0-3.5-1-6.7-3-9.5C622.5,264,619.2,262.4,615.1,262.4z"/>
<path fill="#666666" d="M545.1,218.3c-1.5-0.6-2.7-0.6-3.5-0.1c-2.4,0.3-4.3,1.8-5.8,4.4c-1.3,2.2-2,4.4-2,6.6
	c0,2.4,0.9,4.1,2.5,5.1c1,0.6,2.2,0.9,3.5,0.9c2.2,0,4.2-1.2,6-3.6c1.7-2.2,2.5-4.5,2.5-6.9C548.3,221.3,547.2,219.2,545.1,218.3
	 M571,217.9c-1.7,0.1-3.2,1-4.5,2.6c-1.3,1.6-2,3.5-2,5.5c0,2.9,0.6,5,1.8,6.4c1.2,1.4,3.2,2.1,5.9,2.1c2.4,0,4.4-0.6,6-2
	c1.6-1.3,2.5-3,2.5-5c0-2.5-0.6-4.9-1.8-7.1c-1.4-2.5-3.1-3.8-5.1-3.8C573.6,216.6,572.7,217.1,571,217.9 M714.1,171
	c0-3.6-1.6-6.8-4.8-9.8c-3.1-2.8-6.6-4.5-10.5-5.1c-4.3-0.6-7.8,0.5-10.5,3.1c-3.2,3.1-4.8,8-4.8,14.7c0,4.4,1.6,7.9,4.7,10.3
	c2.6,2,5.8,3,9.4,3c5,0,9.1-2,12.4-5.9C712.7,178.1,714.1,174.6,714.1,171 M431.4,169.9c0-4-1.4-7.2-4.2-9.6c-2.3-2-4.9-3-7.8-3
	c-1,0-2.2,0.3-3.8,0.9c-1.7,0.6-2.8,1.2-3.5,1.8c-0.9,0.7-1.9,2.2-3,4.5c-1.6,3.1-2.4,6-2.4,8.7c0,3.2,1.5,5.8,4.5,7.7
	c2.4,1.5,4.8,2.2,7.1,2.2c3.6,0,6.6-1.2,9.1-3.6C430,177,431.4,173.8,431.4,169.9z"/>
</svg>
