<?xml version="1.0" encoding="utf-8"?>
<!-- Generator: Adobe Illustrator 18.1.1, SVG Export Plug-In . SVG Version: 6.00 Build 0)  -->
<svg version="1.1" id="Layer_1" xmlns="http://www.w3.org/2000/svg" xmlns:xlink="http://www.w3.org/1999/xlink" x="0px" y="0px"
	 width="517.8px" height="194.5px" viewBox="298.2 63.5 517.8 194.5" enable-background="new 298.2 63.5 517.8 194.5"
	 xml:space="preserve">
<path fill="#999999" d="M591.4,160.8c0-2.2-1-3.4-3.1-3.6c-3.6,0-7,0-10.2-0.1c-1.3,5.1-2.1,7.9-2.2,8.2c0,0.1-1.2,2.8-3.6,8.1
	c-1.6,3.7-3.5,9.9-5.8,18.7c4-0.3,9.1-0.5,15.2-0.7c4.2-0.2,6.6-0.8,7.1-1.7C590.6,186.9,591.4,177.3,591.4,160.8 M523.5,177.3
	c1,9.3,1.6,14.2,1.8,14.7l13.4-0.5c0.7,0,6,0.3,16,0.9c-1-4.2-1.9-8.2-2.9-11.8c-1.9-6.7-4.5-14.2-7.8-22.5l-22.6,1.1
	C521.6,161.5,522.3,167.5,523.5,177.3 M617.7,155.9c-1.2,4.6-1.9,11.4-1.9,20.4c0,13.1,1.2,23.1,3.8,30.1
	c2.6,7.2,7.8,14.9,15.8,23.1c9.8,10.1,18.2,17.3,25.2,21.4c8.2,4.9,16.9,7.3,26.3,7.3c12,0,22.9-1.1,32.6-3.3
	c4.8-1.1,8.8-2.4,12.1-3.8c4.4-2,9.2-5.4,14.5-10.1c4.6-4.3,7.3-7.5,8.2-9.6c0.3-0.9,2.4-4.4,6.1-10.8c1.9-3.2,3.8-6.4,5.8-9.6
	c2.2-3.5,3.8-6.8,5-9.8c2.7-7.1,4-14.8,4-23.2c0-22.8-6.7-41.1-20.1-54.9c-5.3-5.4-11.3-9.8-18-13.1c-5.8-2.8-11.4-4.6-16.9-5.4
	c-0.6-0.1-11.6-2.8-33-8.1c-4.6,0-9.5,0.7-14.9,2.2c-4.7,1.5-7.5,2.3-8.4,2.4c-7.6,0.9-15.8,6.4-24.7,16.3
	c-6.4,7.3-10.9,13.7-13.5,19.4C621.2,146.2,618.6,152.6,617.7,155.9 M709.3,161.2c3.2,3,4.8,6.2,4.8,9.8c0,3.6-1.4,7.1-4.2,10.4
	c-3.3,3.9-7.4,5.9-12.4,5.9c-3.6,0-6.8-1-9.4-3c-3.1-2.4-4.7-5.9-4.7-10.3c0-6.7,1.6-11.6,4.8-14.7c2.7-2.6,6.2-3.7,10.5-3.1
	C702.7,156.7,706.2,158.4,709.3,161.2 M488.1,127.2c-0.4-0.5-1.8-2.1-4.2-4.8c-3-3.2-5.6-5.8-7.7-7.8c-3.7-4-6.5-6.9-8.4-8.6
	c-3.2-2.9-7.6-5.5-13.4-7.8c-8.9-3.5-17.6-5.3-26.1-5.3c-4.9,0-11.5,1-19.6,3.1c-4.2,1-8.5,2.2-12.8,3.6c-2.2,0.3-6,2-11.4,5.1
	c-4.9,2.8-10.7,6.6-17.4,11.3c-3.2,2.3-6.7,6.3-10.5,12.2c-3,4.7-5,8.5-5.9,11.2c-0.8,2.6-1.4,5.2-1.8,7.7
	c-0.4,2.8-0.6,6.2-0.6,10.2c0,0.3-0.1,5.3-0.2,15c-0.1,4.8,0,8.7,0.3,11.6c0.7,7.2,3.2,15.2,7.6,24c6.8,13.7,17,24,30.5,30.8
	c9.8,5,19.5,7.5,28.9,7.5c14.4,0,28.6-4.2,42.7-12.6c12.3-7.4,20.6-15.2,24.8-23.5c3.3-5.1,6.1-10.3,8.5-15.6
	c4.7-10.2,7.1-19.8,7.1-28.8c0-8.1-1.1-15.9-3.4-23.4C493.3,136.2,490.9,131.1,488.1,127.2 M427.1,160.2c2.8,2.4,4.2,5.6,4.2,9.6
	c0,3.9-1.3,7.1-4,9.6c-2.5,2.4-5.5,3.6-9.1,3.6c-2.4,0-4.8-0.8-7.1-2.2c-3-1.9-4.5-4.5-4.5-7.7c0-2.7,0.8-5.6,2.4-8.7
	c1.2-2.3,2.2-3.8,3-4.5c0.7-0.6,1.8-1.2,3.5-1.8c1.6-0.6,2.8-0.9,3.8-0.9C422.2,157.3,424.8,158.3,427.1,160.2z"/>
<path fill="#333333" d="M551.7,180.6c1,3.6,2,7.5,2.9,11.8c4.3,0.2,8.3,0.1,11.9-0.3c2.3-8.8,4.2-15,5.8-18.7
	c2.4-5.4,3.6-8.1,3.6-8.1c0.1-0.3,0.9-3,2.2-8.2c-4.9,0.5-8.4,0.8-10.5,1c-3.3,0.2-6.7,0.3-10,0.1c-3.8-0.1-8.4-0.1-13.8,0
	C547.2,166.4,549.8,173.9,551.7,180.6 M800.9,174.9c0.1,0,2.1-0.4,5.9-1.1c4.1-0.8,7.2-1.4,9.2-1.5c-3.9-2.9-7.6-8-11.2-15.4
	c-3.4-7.8-5.8-13-7.2-15.4c-8.1-14-13.5-22.9-16.4-26.8c-0.7-0.9-2.8-3.1-6.4-6.5c-4.8-4.5-10.6-9.3-17.4-14.5
	c-12.2-9.3-22-14.8-29.3-16.7c-7.2-2.2-13.5-4-18.8-5.5c-10-2.7-17.7-4.1-23.1-4.1c-8.2,0-17.4,1.3-27.5,3.9
	c-10.3,2.7-19.8,6.2-28.5,10.6c-5.5,2.8-11.5,9.3-18,19.4c-6.8,10.4-12,21.7-15.8,33.7c-2.8,2.2-14.5,3.4-35,3.4
	c-14.8,0-26.3-0.3-34.6-1c-1.8-2.5-4.7-6.8-8.7-13c-4.3-6.6-7.7-11.8-10.4-15.5c-9.6-13.4-20.3-24.7-32.2-33.8
	c-2-1.6-8.8-3.9-20.3-7.1c-11.6-3.2-19.2-4.8-22.9-4.8c-14.7,0-32.2,5.2-52.6,15.5c-6.9,3.5-13.5,7.3-19.9,11.4
	c-5,3.2-8.2,5.5-9.5,6.8c-16.1,15.4-29.1,31.4-39.1,48c-4.6,7.7-9,16.5-13,26.4l0.6,1c1.5,2.8,4.6,6.6,9.2,11.4
	c4.3,4.4,7.5,7.3,9.7,8.7c-0.5-3.1-0.6-7.9-0.5-14.6c0.2-6.1,0.4-9.2,0.4-9.4c0-6,1.1-12.4,3.4-19.3c1.4-4.1,2.7-7.4,4.1-9.9
	c9.7-13.7,17.7-23.6,24.1-29.7c11.5-10.9,22.9-18.9,34.2-24.1c9-4.1,14.8-6.7,17.5-7.7c8.4-3.2,16-5,22.7-5.5
	c2.7-0.2,9.4,0.4,20.1,1.8c13,1.6,21.7,3.6,26.1,5.8c4.9,2.5,11.1,7.8,18.6,15.9c6.9,7.3,12.8,14.8,17.9,22.2
	c1.8,2.7,3.5,5.9,5.1,9.6c1.4,3.3,2.6,5.5,3.5,6.8c1.1,1.4,2.1,3.5,3.2,6.3c0.7,1.8,1.8,3,3.5,3.5c2,0.6,4.1,0.9,6.5,1
	c1.2,0,2.2,0,3-0.1l35.5,0.9c0.8,0.2,2.1,0.5,3.9,0.9c2.3,0.5,3.7,0.8,4.2,0.8c1.7,0,4.6-0.2,8.8-0.6c5.2-0.5,10.5-0.9,15.9-1.1
	c3.4-6.5,5.3-10.3,5.6-11.4c0.4-2.2,1.4-6.4,3-12.6c0.9-3.5,3.2-7.6,6.9-12.3c3.9-5.1,7.8-8.8,11.8-11.3
	c11.5-7.1,19.4-11.6,23.5-13.6c9.8-4.7,19-7,27.5-7c11.2,0,22.5,1.4,33.8,4.2c17.2,4.2,32.8,11.3,47,21.3
	c5.3,3.8,10.8,9.2,16.5,16.5c4.2,5.3,7.5,10.1,10,14.6c0.7,1.4,3.8,6.4,9.2,15.2c5,9.2,7.5,16.4,7.5,21.7
	C801.7,171.9,801.4,173.1,800.9,174.9z"/>
<path fill="#666666" d="M714.1,171c0-3.6-1.6-6.8-4.8-9.8c-3.1-2.8-6.6-4.5-10.5-5.1c-4.3-0.6-7.8,0.5-10.5,3.1
	c-3.2,3.1-4.8,8-4.8,14.7c0,4.4,1.6,7.9,4.7,10.3c2.6,2,5.8,3,9.4,3c5,0,9.1-2,12.4-5.9C712.7,178.1,714.1,174.6,714.1,171
	 M431.4,169.9c0-4-1.4-7.2-4.2-9.6c-2.3-2-4.9-3-7.8-3c-1,0-2.2,0.3-3.8,0.9c-1.7,0.6-2.8,1.2-3.5,1.8c-0.9,0.7-1.9,2.2-3,4.5
	c-1.6,3.1-2.4,6-2.4,8.7c0,3.2,1.5,5.8,4.5,7.7c2.4,1.5,4.8,2.2,7.1,2.2c3.6,0,6.6-1.2,9.1-3.6C430,177,431.4,173.8,431.4,169.9z"/>
</svg>
