<?xml version="1.0" encoding="utf-8"?>
<!-- Generator: Adobe Illustrator 19.0.0, SVG Export Plug-In . SVG Version: 6.00 Build 0)  -->
<svg version="1.1" id="Layer_1" xmlns="http://www.w3.org/2000/svg" xmlns:xlink="http://www.w3.org/1999/xlink" x="0px" y="0px"
	 viewBox="0 0 200 200" style="enable-background:new 0 0 200 200;" xml:space="preserve">
<path id="XMLID_1_" d="M48.2,46.5c-5.1-1.3-10.9,2-12.4,7c-0.4,1.4-0.5,2.9-0.5,4.4c0.2,6.3,3.6,12.9,9.5,15.3
	c2,0.8,4.2,1.1,6.4,1.3c4.8,0.4,10,0,13.6-3.2c1.3-1.2,2.3-2.6,3.2-4.2c2.7-5,3.6-10.9,2.5-16.5c-0.3-1.4-0.7-2.8-1.4-4.1
	c-1.7-3-5.1-4.8-8.5-5.4c-3.4-0.6-6.9,0-10.3,0.8c-1.2,0.3-2.5,0.6-3.5,1.5c-0.9,0.9-1.4,2.4-0.7,3.4"/>
<path id="XMLID_2_" d="M128.2,44.8c-5.9-1.5-12.2,1.9-15.5,7s-4.2,11.4-4.1,17.4c0,1.5,0.1,3,0.5,4.5c1.6,5.8,7.8,9,13.7,10.1
	c6.3,1.2,13,0.8,18.8-2.1s10.3-8.3,11.3-14.7c0.3-2.1,0.2-4.3-0.7-6.2c-1.4-2.8-4.2-4.4-7.1-5.6c-3.5-1.5-7.1-2.5-10.6-3.9
	c-1.7-0.7-3.4-1.5-4.7-2.7c-1.3-1.2-2.3-3-2.2-4.8c-0.7,0-1.5,0.4-1.8,1.1"/>
<path id="XMLID_3_" d="M35.1,156.2c-1.6-13.4-3-28.2,4.5-39.5c3.3-5,8.1-8.8,13-12.2c7-4.8,14.5-8.9,22.2-12.2
	c9-3.9,18.5-6.7,28.3-7.5c6-0.4,12.2,0,17.9,2c5.7,2.1,10.8,6,13.6,11.3c1.1,2.2,2,4.6,3.8,6.2c2,1.7,4.9,2,7.5,2.2
	c4.2,0.4,8.5,0.7,12.7,1.1c4.1,0.3,8.6,1,10.9,4.3c1.2,1.7,1.5,3.9,1.7,6c1.4,13.7-0.9,27.7-6.5,40.3c-1,2.3-2.2,4.6-4.4,5.9
	c-3.7,2.3-8.9,0.4-11.7-3.1c-2.8-3.4-3.8-7.9-4.9-12.2c-3.7-14-9.5-27.9-19.6-38.2c-2.1-2.2-4.5-4.3-7.4-5.3c-2.2-0.8-4.6-1-7-1.1
	c-9.7-0.4-19.5,0.7-28.9,3.3c-1.9,0.5-3.9,1.2-5.4,2.6c-1.1,1.1-1.7,2.4-2.3,3.8c-2.6,6.5-3.4,13.4-5.1,20.2s-4.4,13.6-9.7,18
	s-13.8,5.8-19.2,1.4"/>
</svg>
