<svg xmlns="http://www.w3.org/2000/svg" viewBox="0 0 308 227.2"><defs><style>.cls-1{fill:#231f20;}</style></defs><title>Asset 1</title><g id="Layer_2" data-name="Layer 2"><g id="logos"><path class="cls-1" d="M299.8,77.5a43.9,43.9,0,0,0-79.2,20.4h0v.6c-.4,3.5-3,21.5-16.9,30.7-10.3,6.8-19.7,4.3-28.3,0h0c-8.3-4.9-9.9-8.2-9.9-20.6,0-16.5,13.6-28.7,16.3-31l.5-.3h0a43.4,43.4,0,0,0,15.5-31.8,43.8,43.8,0,1,0-72.1,31.8h0l.3.3.5.4c3.4,2.9,16,14.7,16,30.7,0,12.4-1.6,15.7-9.9,20.6h0c-8.6,4.3-18,6.8-28.3,0-13.8-9.1-16.4-27.2-16.8-30.7a1.3,1.3,0,0,1-.1-.6h0a43.8,43.8,0,1,0-31.2,47.3h0l.4-.2h.6c4.2-1.3,21.1-5.3,34.4,3.6,10.3,6.8,12.3,9.9,11.8,19.6h0a50.7,50.7,0,0,0,1.2,21.5A51.3,51.3,0,0,0,204.7,168h0c-.5-9.7,1.4-12.8,11.7-19.6,13.4-8.9,30.2-4.9,34.5-3.6h.5l.5.2h0a43.9,43.9,0,0,0,47.9-67.7ZM163.3,209.3A35.2,35.2,0,1,1,188,166,35.2,35.2,0,0,1,163.3,209.3Z"/></g></g></svg>