<?xml version="1.0" encoding="utf-8"?>
<!-- Generator: Adobe Illustrator 18.0.0, SVG Export Plug-In . SVG Version: 6.00 Build 0)  -->
<!DOCTYPE svg PUBLIC "-//W3C//DTD SVG 1.1//EN" "http://www.w3.org/Graphics/SVG/1.1/DTD/svg11.dtd">
<svg version="1.1" id="Layer_1" xmlns="http://www.w3.org/2000/svg" xmlns:xlink="http://www.w3.org/1999/xlink" x="0px" y="0px"
	 viewBox="0 0 1024 768" enable-background="new 0 0 1024 768" xml:space="preserve">
<polygon fill="none" stroke="#000000" stroke-linecap="round" stroke-miterlimit="10" points="555.3,409 574.5,492.2 637,384 "/>
<polygon fill="none" stroke="#000000" stroke-linecap="round" stroke-miterlimit="10" points="574.5,492.2 512,434 555.3,409 "/>
<polygon fill="none" stroke="#000000" stroke-linecap="round" stroke-miterlimit="10" points="512,434 449.5,492.2 574.5,492.2 "/>
<polygon fill="none" stroke="#000000" stroke-linecap="round" stroke-miterlimit="10" points="449.5,492.2 468.7,409 512,434 "/>
<polygon fill="none" stroke="#000000" stroke-linecap="round" stroke-miterlimit="10" points="468.7,409 387,384 449.5,492.2 "/>
<polygon fill="none" stroke="#000000" stroke-linecap="round" stroke-miterlimit="10" points="387,384 468.7,359 468.7,409 "/>
<polygon fill="none" stroke="#000000" stroke-linecap="round" stroke-miterlimit="10" points="468.7,359 449.5,275.8 387,384 "/>
<polygon fill="none" stroke="#000000" stroke-linecap="round" stroke-miterlimit="10" points="449.5,275.8 512,334 468.7,359 "/>
<polygon fill="none" stroke="#000000" stroke-linecap="round" stroke-miterlimit="10" points="512,334 574.5,275.8 449.5,275.8 "/>
<polygon fill="none" stroke="#000000" stroke-linecap="round" stroke-miterlimit="10" points="574.5,275.8 555.3,359 512,334 "/>
<polygon fill="none" stroke="#000000" stroke-linecap="round" stroke-miterlimit="10" points="555.3,359 637,384 574.5,275.8 "/>
<polygon fill="none" stroke="#000000" stroke-linecap="round" stroke-miterlimit="10" points="637,384 555.3,409 555.3,359 "/>
<polygon fill="none" stroke="#000000" stroke-linecap="round" stroke-miterlimit="10" points="555.3,409 574.5,492.2 637,384 "/>
<polygon fill="none" stroke="#000000" stroke-linecap="round" stroke-miterlimit="10" points="574.5,492.2 512,434 555.3,409 "/>
<polygon fill="none" stroke="#000000" stroke-linecap="round" stroke-miterlimit="10" points="512,434 449.5,492.2 574.5,492.2 "/>
<polygon fill="none" stroke="#000000" stroke-linecap="round" stroke-miterlimit="10" points="449.5,492.2 468.7,409 512,434 "/>
<polygon fill="none" stroke="#000000" stroke-linecap="round" stroke-miterlimit="10" points="468.7,409 387,384 449.5,492.2 "/>
<polygon fill="none" stroke="#000000" stroke-linecap="round" stroke-miterlimit="10" points="387,384 468.7,359 468.7,409 "/>
<polygon fill="none" stroke="#000000" stroke-linecap="round" stroke-miterlimit="10" points="468.7,359 449.5,275.8 387,384 "/>
<polygon fill="none" stroke="#000000" stroke-linecap="round" stroke-miterlimit="10" points="449.5,275.8 512,334 468.7,359 "/>
<polygon fill="none" stroke="#000000" stroke-linecap="round" stroke-miterlimit="10" points="512,334 574.5,275.8 449.5,275.8 "/>
<polygon fill="none" stroke="#000000" stroke-linecap="round" stroke-miterlimit="10" points="574.5,275.8 555.3,359 512,334 "/>
<polygon fill="none" stroke="#000000" stroke-linecap="round" stroke-miterlimit="10" points="580,423.3 610.2,554 708.3,384 "/>
<polygon fill="none" stroke="#000000" stroke-linecap="round" stroke-miterlimit="10" points="610.2,554 512,462.5 580,423.3 "/>
<polygon fill="none" stroke="#000000" stroke-linecap="round" stroke-miterlimit="10" points="512,462.5 413.8,554 610.2,554 "/>
<polygon fill="none" stroke="#000000" stroke-linecap="round" stroke-miterlimit="10" points="413.8,554 444,423.3 512,462.5 "/>
<polygon fill="none" stroke="#000000" stroke-linecap="round" stroke-miterlimit="10" points="444,423.3 315.6,384 413.8,554 "/>
<polygon fill="none" stroke="#000000" stroke-linecap="round" stroke-miterlimit="10" points="315.6,384 444,344.7 444,423.3 "/>
<polygon fill="none" stroke="#000000" stroke-linecap="round" stroke-miterlimit="10" points="444,344.7 413.8,214 315.6,384 "/>
<polygon fill="none" stroke="#000000" stroke-linecap="round" stroke-miterlimit="10" points="413.8,214 512,305.5 444,344.7 "/>
<polygon fill="none" stroke="#000000" stroke-linecap="round" stroke-miterlimit="10" points="512,305.5 610.2,214 413.8,214 "/>
<polygon fill="none" stroke="#000000" stroke-linecap="round" stroke-miterlimit="10" points="610.2,214 580,344.7 512,305.5 "/>
<polygon fill="none" stroke="#000000" stroke-linecap="round" stroke-miterlimit="10" points="580,344.7 708.3,384 610.2,214 "/>
<polygon fill="none" stroke="#000000" stroke-linecap="round" stroke-miterlimit="10" points="708.3,384 580,423.3 580,344.7 "/>
<polygon fill="none" stroke="#000000" stroke-linecap="round" stroke-miterlimit="10" points="580,423.3 610.2,554 708.3,384 "/>
<polygon fill="none" stroke="#000000" stroke-linecap="round" stroke-miterlimit="10" points="610.2,554 512,462.5 580,423.3 "/>
<polygon fill="none" stroke="#000000" stroke-linecap="round" stroke-miterlimit="10" points="512,462.5 413.8,554 610.2,554 "/>
<polygon fill="none" stroke="#000000" stroke-linecap="round" stroke-miterlimit="10" points="413.8,554 444,423.3 512,462.5 "/>
<polygon fill="none" stroke="#000000" stroke-linecap="round" stroke-miterlimit="10" points="444,423.3 315.6,384 413.8,554 "/>
<polygon fill="none" stroke="#000000" stroke-linecap="round" stroke-miterlimit="10" points="315.6,384 444,344.7 444,423.3 "/>
<polygon fill="none" stroke="#000000" stroke-linecap="round" stroke-miterlimit="10" points="444,344.7 413.8,214 315.6,384 "/>
<polygon fill="none" stroke="#000000" stroke-linecap="round" stroke-miterlimit="10" points="413.8,214 512,305.5 444,344.7 "/>
<polygon fill="none" stroke="#000000" stroke-linecap="round" stroke-miterlimit="10" points="512,305.5 610.2,214 413.8,214 "/>
<polygon fill="none" stroke="#000000" stroke-linecap="round" stroke-miterlimit="10" points="610.2,214 580,344.7 512,305.5 "/>
<polygon fill="none" stroke="#000000" stroke-linecap="round" stroke-miterlimit="10" points="618.8,445.7 666.2,651.1 820.4,384 
	"/>
<polygon fill="none" stroke="#000000" stroke-linecap="round" stroke-miterlimit="10" points="666.2,651.1 512,507.4 618.8,445.7 
	"/>
<polygon fill="none" stroke="#000000" stroke-linecap="round" stroke-miterlimit="10" points="512,507.4 357.8,651.1 666.2,651.1 
	"/>
<polygon fill="none" stroke="#000000" stroke-linecap="round" stroke-miterlimit="10" points="357.8,651.1 405.2,445.7 512,507.4 
	"/>
<polygon fill="none" stroke="#000000" stroke-linecap="round" stroke-miterlimit="10" points="405.2,445.7 203.6,384 357.8,651.1 
	"/>
<polygon fill="none" stroke="#000000" stroke-linecap="round" stroke-miterlimit="10" points="203.6,384 405.2,322.3 405.2,445.7 
	"/>
<polygon fill="none" stroke="#000000" stroke-linecap="round" stroke-miterlimit="10" points="405.2,322.3 357.8,116.9 203.6,384 
	"/>
<polygon fill="none" stroke="#000000" stroke-linecap="round" stroke-miterlimit="10" points="357.8,116.9 512,260.6 405.2,322.3 
	"/>
<polygon fill="none" stroke="#000000" stroke-linecap="round" stroke-miterlimit="10" points="512,260.6 666.2,116.9 357.8,116.9 
	"/>
<polygon fill="none" stroke="#000000" stroke-linecap="round" stroke-miterlimit="10" points="666.2,116.9 618.8,322.3 512,260.6 
	"/>
<polygon fill="none" stroke="#000000" stroke-linecap="round" stroke-miterlimit="10" points="618.8,322.3 820.4,384 666.2,116.9 
	"/>
<polygon fill="none" stroke="#000000" stroke-linecap="round" stroke-miterlimit="10" points="820.4,384 618.8,445.7 618.8,322.3 
	"/>
<polygon fill="none" stroke="#000000" stroke-linecap="round" stroke-miterlimit="10" points="618.8,445.7 666.2,651.1 820.4,384 
	"/>
<polygon fill="none" stroke="#000000" stroke-linecap="round" stroke-miterlimit="10" points="666.2,651.1 512,507.4 618.8,445.7 
	"/>
<polygon fill="none" stroke="#000000" stroke-linecap="round" stroke-miterlimit="10" points="512,507.4 357.8,651.1 666.2,651.1 
	"/>
<polygon fill="none" stroke="#000000" stroke-linecap="round" stroke-miterlimit="10" points="357.8,651.1 405.2,445.7 512,507.4 
	"/>
<polygon fill="none" stroke="#000000" stroke-linecap="round" stroke-miterlimit="10" points="405.2,445.7 203.6,384 357.8,651.1 
	"/>
<polygon fill="none" stroke="#000000" stroke-linecap="round" stroke-miterlimit="10" points="203.6,384 405.2,322.3 405.2,445.7 
	"/>
<polygon fill="none" stroke="#000000" stroke-linecap="round" stroke-miterlimit="10" points="405.2,322.3 357.8,116.9 203.6,384 
	"/>
<polygon fill="none" stroke="#000000" stroke-linecap="round" stroke-miterlimit="10" points="357.8,116.9 512,260.6 405.2,322.3 
	"/>
<polygon fill="none" stroke="#000000" stroke-linecap="round" stroke-miterlimit="10" points="512,260.6 666.2,116.9 357.8,116.9 
	"/>
<polygon fill="none" stroke="#000000" stroke-linecap="round" stroke-miterlimit="10" points="666.2,116.9 618.8,322.3 512,260.6 
	"/>
<polygon fill="none" stroke="#000000" stroke-linecap="round" stroke-miterlimit="10" points="679.8,480.9 754.2,803.6 996.5,384 
	"/>
<polygon fill="none" stroke="#000000" stroke-linecap="round" stroke-miterlimit="10" points="754.2,803.6 512,577.8 679.8,480.9 
	"/>
<polygon fill="none" stroke="#000000" stroke-linecap="round" stroke-miterlimit="10" points="512,577.8 269.8,803.6 754.2,803.6 
	"/>
<polygon fill="none" stroke="#000000" stroke-linecap="round" stroke-miterlimit="10" points="269.8,803.6 344.2,480.9 512,577.8 
	"/>
<polygon fill="none" stroke="#000000" stroke-linecap="round" stroke-miterlimit="10" points="344.2,480.9 27.5,384 269.8,803.6 "/>
<polygon fill="none" stroke="#000000" stroke-linecap="round" stroke-miterlimit="10" points="27.5,384 344.2,287.1 344.2,480.9 "/>
<polygon fill="none" stroke="#000000" stroke-linecap="round" stroke-miterlimit="10" points="344.2,287.1 269.8,-35.6 27.5,384 "/>
<polygon fill="none" stroke="#000000" stroke-linecap="round" stroke-miterlimit="10" points="269.8,-35.6 512,190.2 344.2,287.1 
	"/>
<polygon fill="none" stroke="#000000" stroke-linecap="round" stroke-miterlimit="10" points="512,190.2 754.2,-35.6 269.8,-35.6 
	"/>
<polygon fill="none" stroke="#000000" stroke-linecap="round" stroke-miterlimit="10" points="754.2,-35.6 679.8,287.1 512,190.2 
	"/>
<polygon fill="none" stroke="#000000" stroke-linecap="round" stroke-miterlimit="10" points="679.8,287.1 996.5,384 754.2,-35.6 
	"/>
<polygon fill="none" stroke="#000000" stroke-linecap="round" stroke-miterlimit="10" points="996.5,384 679.8,480.9 679.8,287.1 
	"/>
<polygon fill="none" stroke="#000000" stroke-linecap="round" stroke-miterlimit="10" points="679.8,480.9 754.2,803.6 996.5,384 
	"/>
<polygon fill="none" stroke="#000000" stroke-linecap="round" stroke-miterlimit="10" points="754.2,803.6 512,577.8 679.8,480.9 
	"/>
<polygon fill="none" stroke="#000000" stroke-linecap="round" stroke-miterlimit="10" points="512,577.8 269.8,803.6 754.2,803.6 
	"/>
<polygon fill="none" stroke="#000000" stroke-linecap="round" stroke-miterlimit="10" points="269.8,803.6 344.2,480.9 512,577.8 
	"/>
<polygon fill="none" stroke="#000000" stroke-linecap="round" stroke-miterlimit="10" points="344.2,480.9 27.5,384 269.8,803.6 "/>
<polygon fill="none" stroke="#000000" stroke-linecap="round" stroke-miterlimit="10" points="27.5,384 344.2,287.1 344.2,480.9 "/>
<polygon fill="none" stroke="#000000" stroke-linecap="round" stroke-miterlimit="10" points="344.2,287.1 269.8,-35.6 27.5,384 "/>
<polygon fill="none" stroke="#000000" stroke-linecap="round" stroke-miterlimit="10" points="269.8,-35.6 512,190.2 344.2,287.1 
	"/>
<polygon fill="none" stroke="#000000" stroke-linecap="round" stroke-miterlimit="10" points="512,190.2 754.2,-35.6 269.8,-35.6 
	"/>
<polygon fill="none" stroke="#000000" stroke-linecap="round" stroke-miterlimit="10" points="754.2,-35.6 679.8,287.1 512,190.2 
	"/>
<polygon fill="none" stroke="#000000" stroke-linecap="round" stroke-miterlimit="10" points="775.6,536.2 892.5,1043.1 1273,384 
	"/>
<polygon fill="none" stroke="#000000" stroke-linecap="round" stroke-miterlimit="10" points="892.5,1043.1 512,688.4 775.6,536.2 
	"/>
<polygon fill="none" stroke="#000000" stroke-linecap="round" stroke-miterlimit="10" points="512,688.4 131.5,1043.1 892.5,1043.1 
	"/>
<polygon fill="none" stroke="#000000" stroke-linecap="round" stroke-miterlimit="10" points="131.5,1043.1 248.4,536.2 512,688.4 
	"/>
<polygon fill="none" stroke="#000000" stroke-linecap="round" stroke-miterlimit="10" points="248.4,536.2 -249,384 131.5,1043.1 
	"/>
<polygon fill="none" stroke="#000000" stroke-linecap="round" stroke-miterlimit="10" points="-249,384 248.4,231.8 248.4,536.2 "/>
<polygon fill="none" stroke="#000000" stroke-linecap="round" stroke-miterlimit="10" points="248.4,231.8 131.5,-275.1 -249,384 
	"/>
<polygon fill="none" stroke="#000000" stroke-linecap="round" stroke-miterlimit="10" points="131.5,-275.1 512,79.6 248.4,231.8 
	"/>
<polygon fill="none" stroke="#000000" stroke-linecap="round" stroke-miterlimit="10" points="512,79.6 892.5,-275.1 131.5,-275.1 
	"/>
<polygon fill="none" stroke="#000000" stroke-linecap="round" stroke-miterlimit="10" points="892.5,-275.1 775.6,231.8 512,79.6 
	"/>
<polygon fill="none" stroke="#000000" stroke-linecap="round" stroke-miterlimit="10" points="775.6,231.8 1273,384 892.5,-275.1 
	"/>
<polygon fill="none" stroke="#000000" stroke-linecap="round" stroke-miterlimit="10" points="1273,384 775.6,536.2 775.6,231.8 "/>
<polygon fill="none" stroke="#000000" stroke-linecap="round" stroke-miterlimit="10" points="775.6,536.2 892.5,1043.1 1273,384 
	"/>
<polygon fill="none" stroke="#000000" stroke-linecap="round" stroke-miterlimit="10" points="892.5,1043.1 512,688.4 775.6,536.2 
	"/>
<polygon fill="none" stroke="#000000" stroke-linecap="round" stroke-miterlimit="10" points="512,688.4 131.5,1043.1 892.5,1043.1 
	"/>
<polygon fill="none" stroke="#000000" stroke-linecap="round" stroke-miterlimit="10" points="131.5,1043.1 248.4,536.2 512,688.4 
	"/>
<polygon fill="none" stroke="#000000" stroke-linecap="round" stroke-miterlimit="10" points="248.4,536.2 -249,384 131.5,1043.1 
	"/>
<polygon fill="none" stroke="#000000" stroke-linecap="round" stroke-miterlimit="10" points="-249,384 248.4,231.8 248.4,536.2 "/>
<polygon fill="none" stroke="#000000" stroke-linecap="round" stroke-miterlimit="10" points="248.4,231.8 131.5,-275.1 -249,384 
	"/>
<polygon fill="none" stroke="#000000" stroke-linecap="round" stroke-miterlimit="10" points="131.5,-275.1 512,79.6 248.4,231.8 
	"/>
<polygon fill="none" stroke="#000000" stroke-linecap="round" stroke-miterlimit="10" points="512,79.6 892.5,-275.1 131.5,-275.1 
	"/>
<polygon fill="none" stroke="#000000" stroke-linecap="round" stroke-miterlimit="10" points="892.5,-275.1 775.6,231.8 512,79.6 
	"/>
<polygon fill="none" stroke="#000000" stroke-linecap="round" stroke-miterlimit="10" points="926.1,623.1 1109.7,1419.2 
	1707.4,384 "/>
<polygon fill="none" stroke="#000000" stroke-linecap="round" stroke-miterlimit="10" points="1109.7,1419.2 512,862.2 926.1,623.1 
	"/>
<polygon fill="none" stroke="#000000" stroke-linecap="round" stroke-miterlimit="10" points="-85.7,1419.2 97.9,623.1 512,862.2 
	"/>
<polygon fill="none" stroke="#000000" stroke-linecap="round" stroke-miterlimit="10" points="97.9,623.1 -683.4,384 -85.7,1419.2 
	"/>
<polygon fill="none" stroke="#000000" stroke-linecap="round" stroke-miterlimit="10" points="-683.4,384 97.9,144.9 97.9,623.1 "/>
<polygon fill="none" stroke="#000000" stroke-linecap="round" stroke-miterlimit="10" points="97.9,144.9 -85.7,-651.2 -683.4,384 
	"/>
<polygon fill="none" stroke="#000000" stroke-linecap="round" stroke-miterlimit="10" points="-85.7,-651.2 512,-94.2 97.9,144.9 
	"/>
<polygon fill="none" stroke="#000000" stroke-linecap="round" stroke-miterlimit="10" points="512,-94.2 1109.7,-651.2 
	-85.7,-651.2 "/>
<polygon fill="none" stroke="#000000" stroke-linecap="round" stroke-miterlimit="10" points="1109.7,-651.2 926.1,144.9 512,-94.2 
	"/>
<polygon fill="none" stroke="#000000" stroke-linecap="round" stroke-miterlimit="10" points="926.1,144.9 1707.4,384 
	1109.7,-651.2 "/>
<polygon fill="none" stroke="#000000" stroke-linecap="round" stroke-miterlimit="10" points="1707.4,384 926.1,623.1 926.1,144.9 
	"/>
<polygon fill="none" stroke="#000000" stroke-linecap="round" stroke-miterlimit="10" points="926.1,623.1 1109.7,1419.2 
	1707.4,384 "/>
<polygon fill="none" stroke="#000000" stroke-linecap="round" stroke-miterlimit="10" points="1109.7,1419.2 512,862.2 926.1,623.1 
	"/>
<polygon fill="none" stroke="#000000" stroke-linecap="round" stroke-miterlimit="10" points="-85.7,1419.2 97.9,623.1 512,862.2 
	"/>
<polygon fill="none" stroke="#000000" stroke-linecap="round" stroke-miterlimit="10" points="97.9,623.1 -683.4,384 -85.7,1419.2 
	"/>
<polygon fill="none" stroke="#000000" stroke-linecap="round" stroke-miterlimit="10" points="-683.4,384 97.9,144.9 97.9,623.1 "/>
<polygon fill="none" stroke="#000000" stroke-linecap="round" stroke-miterlimit="10" points="97.9,144.9 -85.7,-651.2 -683.4,384 
	"/>
<polygon fill="none" stroke="#000000" stroke-linecap="round" stroke-miterlimit="10" points="-85.7,-651.2 512,-94.2 97.9,144.9 
	"/>
<polygon fill="none" stroke="#000000" stroke-linecap="round" stroke-miterlimit="10" points="512,-94.2 1109.7,-651.2 
	-85.7,-651.2 "/>
<polygon fill="none" stroke="#000000" stroke-linecap="round" stroke-miterlimit="10" points="1109.7,-651.2 926.1,144.9 512,-94.2 
	"/>
<rect fill="none" width="1024" height="768"/>
</svg>
