<?xml version="1.0" encoding="utf-8"?>
<!-- Generator: Adobe Illustrator 22.1.0, SVG Export Plug-In . SVG Version: 6.00 Build 0)  -->
<svg version="1.1" id="Layer_1" xmlns="http://www.w3.org/2000/svg" xmlns:xlink="http://www.w3.org/1999/xlink" x="0px" y="0px"
	 viewBox="0 0 100.8 130.1" style="enable-background:new 0 0 100.8 130.1;" xml:space="preserve">
<style type="text/css">
	.st0{fill:#FFFFFF;}
</style>
<g>
	<path d="M0,130.1C0,86.8,0,43.4,0,0c33.6,0,67.1,0,100.8,0c0,43.3,0,86.7,0,130.1C67.2,130.1,33.6,130.1,0,130.1z M41.4,91.2
		c0.1,0.1,0.1,0.1,0.2,0.2c0.3-0.7,0.7-1.4,1-2.2c0.1-0.4,0.2-1,0.1-1.2c-0.8-1.2-0.2-2.2,0.6-2.5c1.7-0.8,1.2-2.5,1.5-3.7
		c0.2-0.9,0.6-1.5,1.3-2.1c0.6-0.5,1.1-1.1,1.5-1.8c0.4-0.6,0.7-1.3,1.2-1.9c2-2.7,3.4-5.7,3.7-9.1c0-0.5,0.6-1.2,1-1.4
		c0.4-0.2,1.2,0.1,1.6,0.4c1.1,1,2.1,2.1,3.2,3.2c0.2,0.2,0.5,0.3,0.8,0.5c0.4,0.3,0.8,0.5,1.1,0.9c0.8,0.7,1.6,1.6,2.5,2.3
		c0.6,0.4,1.3,0.7,1.9,1c1.5,0.8,2.9,1.7,4.4,2.5c1.1,0.6,2.3,1.2,3.4,1.9c0.5,0.3,0.9,0.9,1.4,1.3c1.2,0.9,1.2,0.9-0.1,1.5
		c-1.3,0.7-1.6,1.5-1.1,2.9c0.1,0.2,0.1,0.6,0,0.8c-0.8,1.7-0.4,3.5-0.5,5.2c0,1.2,0.7,2.3,1,3.5c0.1,0.2,0.2,0.4,0.2,0.7
		c0.3,4.1,0.6,8.3,0.8,12.4c0,0.8-0.2,1.6-0.4,2.3c-0.4,1.1-1.1,2.1-1.4,3.2c-0.4,1.3-0.6,2.6-0.8,4c-0.1,1.1-0.4,2.2,0.5,3.2
		c0.2,0.2,0.1,0.9-0.1,1.3c-0.2,0.5-0.6,0.9-0.9,1.2c-0.9,0.8-0.6,1.6,0,2.4c1.1,1.4,2.6,2,4.4,2c2.3,0,3.4-1.5,2.6-3.6
		c-0.7-1.8-0.4-2.3,1.5-2.7c0.4-0.1,0.8-0.3,1.2-0.3c0.5,0,1.1,0,1.4,0.3s0.5,1.1,0.3,1.5c-0.6,1.2-0.1,2,0.7,2.7
		c1.2,1,2.6,1.8,4.2,1.9c1.9,0.1,4.5-1.4,5.2-3.5c0.1-0.4-0.1-1.2-0.5-1.6c-1.3-1.1-1.3-1.1-0.2-2.5c0.4-0.5,0.7-1.5,0.5-2
		c-0.7-1.6-1.9-2.6-3.7-2.8c-0.4,0-0.8-0.1-1.2-0.2c-0.8-0.2-1.3-0.5-1.6-1.4c-0.2-0.6-1-1.1-1.5-1.6c-1-0.9-2.5-1.6-3-2.7
		c-0.6-1.2-0.6-2.8-0.5-4.2c0-1.5,0.4-3,0.7-4.5c0.2-1.5,0.5-2.9,0.7-4.3c0.3-2.2-0.3-3.2-2.3-3.8c-0.5-0.1-1,0-1.5,0
		c-0.3,0-0.8-0.2-0.9-0.4c-0.2-0.6-0.2-1.2-0.2-1.8c0.4,0,0.8-0.2,1.2-0.1c0.8,0.2,1.7,0.5,2.5,0.9c1.3,0.5,1.8,0.2,2.1-1.1
		c0.1-0.4,0.5-0.8,0.8-0.9c1.3-0.5,2.3-1.1,2.6-2.6c0.2-1.1,0.9-2,1.2-3.1c0.2-0.5,0-1.1,0-1.6c0-0.4-0.2-0.8,0-1.1
		c0.7-1.4,0.5-3.9-0.5-5.1c-0.7-0.9-1.4-1.8-2.2-2.7c-0.7-0.8-1.4-1.6-2.2-2.4c-1.1-1.1-3.6-1.4-2.3-4c0-0.1,0-0.2,0-0.2
		c-0.4-1.5-0.7-3,0.1-4.4c0.2-0.3,0.1-0.7,0-1c-0.9-2.3-0.4-4.3,1.3-6c0.7-0.7,0.8-1.4,0.7-2.4c-0.1-0.6,0-1.4,0.4-1.9
		c1-1.4,2.2-2.5,4.1-2.7c0.5,0,1-0.3,1.4-0.5c2.3-1,2.8-3.1,3-5.3c0.1-1.2,0-2.4,1.5-2.9c0.2-0.1,0.3-0.3,0.5-0.5
		c0.8-1.2,1.3-2.4,1.6-3.8c0.6-2.4-0.3-4.2-1.4-6.1c-0.2-0.3-0.5-0.5-0.8-0.7c-0.3-0.3-0.6-0.6-1-0.9c0.3-0.3,0.6-0.8,1-1
		c1.3-0.8,1.8-1.9,1.6-3.4c-0.1-0.5,0.2-1.2,0.4-1.7c0.1-0.3,0.4-0.6,0.4-0.8c0.1-1,0.6-1.8,1.5-2.3c0.8-0.5,1.2-1.1,1.2-2.2
		c-0.1-2.3-1.2-4.1-2.5-5.8C94,6.4,92,5,89.6,4.4c-0.8-0.2-1.5-0.5-2.3-0.5c-1.1,0-2.2,0.1-3.2,0.4c-1.2,0.4-2.7,0.7-3.6,1.5
		C79,7.2,77.9,8.9,77.4,11c-0.2,0.9-0.2,1.8-0.5,2.6c-0.4,1.1-0.2,1.6,0.7,2.3c1.1,0.8,1.9,2.3,1,3c-0.7,0.6-1.5,1.4-2.4,1.7
		c-2.9,1-5.8,2.3-9.1,1.7c-2.2-0.4-4.6,0.4-6.9,0.5c-1.1,0.1-2.2-0.4-3.3,0.2c-0.1,0-0.2-0.1-0.3-0.1c-0.5-0.2-1.1-0.4-1.6-0.5
		c-1.2-0.3-2.5-0.5-3.7-0.7c-1.7-0.2-3.2-0.4-4.7,1C45.2,24,43.5,25,42,26.2c-0.4,0.3-0.7,0.8-1,1.2c-0.4,0.5-0.5,1.3-1,1.6
		c-2.7,2-5.4,4-8.8,4.9c-0.1,0-0.3,0.1-0.4,0.2c-1.2,1.6-2.9,0.9-4.3,0.6c-0.9-0.2-1.4-0.1-2,0.4c-0.3,0.2-0.6,0.4-0.9,0.6
		c-2,1.5-2.2,4.1-0.9,5.9c0.2,0.2,0.7,0.4,1.1,0.3c1.4,0,2.7,0,4-0.2c1-0.1,2.2,0,2.8-1.2c0.6-1.4,1.7-1.9,3.2-2
		c0.6,0,1.4-0.2,1.9-0.6c1.4-0.9,2.6-2,4-2.8c1.2-0.7,2.6-1.3,3.9-1.4c1.3-0.2,2.7,0.2,3.6-0.5c1,0.2,1.7,0.6,2.3,0.5
		c1.7-0.4,3.4-1.1,5.1-1.6c0.9-0.3,1.7-0.6,2.6-0.7c0.4,0,1.1,0.4,1.2,0.8c0.1,0.3-0.3,0.9-0.7,1.2c-1.4,1-2.9,2-4.3,2.9
		c-0.1,0.1-0.3,0.2-0.4,0.1c-1.4-0.3-2.1,0.7-3,1.6c-0.4,0.5-0.9,0.9-1.5,1.2c-0.8,0.5-1.6,0.8-2.4,1.3c-0.7,0.4-1.3,1.2-2.1,1.4
		c-2,0.6-3.5,2-4.7,3.5c-0.9,1.2-1.4,2.8-2,4.2c-0.1,0.2,0,0.5,0,0.7c-0.5,1.5-1,2.9-1.4,4.4c-0.1,0.4-0.2,0.7-0.3,1.1
		c-0.2,1.3-0.4,2.6-0.7,4c-0.1,0.6-0.5,1.2-0.4,1.7c0.1,1.3,0.2,2.5-1.2,3c0.3,0.7,0.5,1.1,0.6,1.6c0.3,1.5-1.3,2.8-0.6,4.4
		c0,0.1-0.2,0.3-0.2,0.4c0,1.2-1.1,2.2-0.6,3.6c0.3,0.8,0.4,2.1,0,2.8c-0.9,1.3-1.3,2.3-0.2,3.8c-4.5,0.2-6.1,3.7-8.3,6.4
		c0.1,0.1,0.1,0.2,0.2,0.4c0.6-0.1,1.1-0.3,1.7-0.4C26,87.7,26,87.9,26,88c-0.2,2.2-0.1,4.1,2.5,4.9c0.1,0,0.2,0.1,0.2,0.1
		c0.3,0.5,0.6,1,0.9,1.5c-0.7,0-1.3,0-2,0c-0.1,0-0.1-0.1-0.2-0.1c-1.3-1.2-2.4-2.6-2.9-4.3c-0.4-1.4-0.8-1.5-1.8-0.5
		c-0.3,0.3-0.5,0.8-0.7,1.2c-0.5,1.1-1,2.2-1.5,3.2c-1,1.7-2.1,3.4-3.1,5.2c-1,1.9-1.8,2.5-3.9,2.1c-1.1-0.2-1.9,0-2.7,0.8
		c-0.3,0.2-0.7,0.3-1.1,0.4c-1.4,0.3-2.3-0.6-3.3-1.3c-0.7-0.6-1.5-0.7-2.3-0.2c-1.3,0.9-2.1,1.9-1.6,3.9c0.6,2.5,2.5,3.7,5.2,1.9
		c0.9-0.6,1.4-0.5,1.5,0.6c0.1,0.7-0.1,1.5-0.2,2.2c-0.1,0.4-0.3,0.8-0.3,1.3c-0.1,2.2-1,3-3.2,2.9c-1.9-0.1-3.1,1.3-2.8,3
		c0.3,1.6,1.1,2.2,2.7,1.8c0.4-0.1,0.8-0.4,1.2-0.4c0.4,0,0.9,0.2,1.3,0.4c-0.1,0.4-0.2,0.9-0.4,1.3c-0.2,0.4-0.8,0.9-0.7,1.1
		c0.2,0.5,0.7,1,1.2,1.1c1.5,0.2,2.9,0.3,4.4,0.3c0.4,0,0.9-0.3,1.2-0.7c0.6-0.8,1.1-1.8,1.6-2.6c0.2-0.3,0.4-0.5,0.6-0.7
		c0.4-0.4,0.8-0.7,1.2-1.2c1-1.4,0.5-3.1,0.9-4.7c0.1-0.4,0.4-1,0.7-1.1c0.8-0.3,0.7-0.7,0.4-1.4c-0.2-0.5,0-1.2,0.1-1.8
		c0-0.3,0.2-0.6,0.3-0.9c0.5-1,0.8-2.3,1.6-3.1c2.2-2.4,4.5-4.7,7-6.8c1.5-1.3,3.3-2.6,5.6-2.4c0.4,0,1-0.1,1.4-0.3
		c1.3-0.7,2.6-1.4,3.9-2.1C39.5,92.2,40.4,91.7,41.4,91.2z M16,73.9c-1.1,0.1-2,0-2.9,0.2c-1.2,0.3-2.4,0.9-3.6,1.4
		c-2.1,0.8-4.2,1.7-6.2,2.5c0,0.1,0.1,0.2,0.1,0.3C4.4,78.5,15.7,75.2,16,73.9z M17.2,73.3c0,0.2,0,0.3,0,0.5c0.5,0,1.1,0.1,1.6,0
		c2-0.6,3.9-1.3,5.9-2c0.2-0.1,0.3-0.3,0.4-0.5c-0.1-0.1-0.1-0.2-0.2-0.4C22.3,71.9,19.5,71.9,17.2,73.3z M20.6,115.6
		c-0.4-0.3-0.7-0.6-1-0.8c-0.3,0.3-0.7,0.7-0.7,1c0,0.2,0.5,0.6,0.7,0.9C19.9,116.4,20.2,116,20.6,115.6z M19.6,114
		c0.4-0.8,0.9-1.4,0.2-2c-0.2-0.1-0.8-0.1-0.9,0.1C18.3,113,19.1,113.4,19.6,114z M47.8,101.9c0.4-0.3,0.7-0.6,0.9-0.8
		c-0.3-0.3-0.6-0.6-1-0.7c-0.2,0-0.7,0.4-0.7,0.7C47,101.2,47.4,101.5,47.8,101.9z M28,70.7c0-0.2-0.1-0.3-0.1-0.5
		c-0.6,0-1.2,0-1.8,0.2c-0.2,0-0.3,0.4-0.4,0.6c0.2,0.1,0.4,0.3,0.6,0.3C26.8,71.1,27.4,70.9,28,70.7z M39.6,101.6
		c-0.6,0-1.1,0.1-1.7,0.1C38.6,102.7,39.2,102.5,39.6,101.6z M38.3,116.9c0.3-0.4,0.6-0.6,0.6-0.9c0-0.2-0.4-0.6-0.6-0.6
		c-0.3,0.1-0.6,0.4-0.7,0.6C37.6,116.3,38,116.6,38.3,116.9z"/>
	<path class="st0" d="M41.4,91.2c-0.9,0.5-1.9,1-2.8,1.5c-1.3,0.7-2.6,1.4-3.9,2.1c-0.4,0.2-0.9,0.4-1.4,0.3c-2.3-0.2-4,1.1-5.6,2.4
		c-2.5,2.1-4.8,4.4-7,6.8c-0.8,0.8-1.1,2.1-1.6,3.1c-0.1,0.3-0.3,0.6-0.3,0.9c-0.1,0.6-0.3,1.3-0.1,1.8c0.2,0.7,0.4,1-0.4,1.4
		c-0.3,0.1-0.6,0.7-0.7,1.1c-0.5,1.5,0,3.2-0.9,4.7c-0.3,0.4-0.8,0.8-1.2,1.2c-0.2,0.2-0.4,0.4-0.6,0.7c-0.5,0.9-1,1.8-1.6,2.6
		c-0.2,0.3-0.8,0.7-1.2,0.7c-1.5,0-3-0.1-4.4-0.3c-0.5-0.1-1-0.6-1.2-1.1c-0.1-0.2,0.5-0.7,0.7-1.1s0.3-0.9,0.4-1.3
		c-0.4-0.1-0.9-0.4-1.3-0.4s-0.8,0.3-1.2,0.4c-1.6,0.4-2.4-0.1-2.7-1.8c-0.3-1.8,0.9-3.1,2.8-3c2.2,0.1,3.1-0.7,3.2-2.9
		c0-0.4,0.3-0.8,0.3-1.3c0.1-0.7,0.2-1.5,0.2-2.2c-0.1-1.1-0.6-1.2-1.5-0.6c-2.7,1.8-4.6,0.6-5.2-1.9c-0.4-2,0.3-3,1.6-3.9
		c0.8-0.6,1.6-0.4,2.3,0.2c1,0.7,1.9,1.7,3.3,1.3c0.4-0.1,0.8-0.2,1.1-0.4c0.8-0.7,1.6-1,2.7-0.8c2.1,0.4,2.9-0.2,3.9-2.1
		c0.9-1.8,2.1-3.4,3.1-5.2c0.6-1,1-2.1,1.5-3.2c0.2-0.4,0.4-0.9,0.7-1.2c1-1,1.4-0.8,1.8,0.5c0.5,1.8,1.6,3.1,2.9,4.3
		c0.1,0.1,0.1,0.1,0.2,0.1c0.7,0,1.3,0,2,0c-0.3-0.5-0.6-1-0.9-1.5c0-0.1-0.1-0.1-0.2-0.1c-2.5-0.8-2.7-2.7-2.5-4.9
		c0-0.1-0.1-0.3-0.1-0.5c-0.6,0.1-1.2,0.3-1.7,0.4c-0.1-0.1-0.1-0.2-0.2-0.4c2.2-2.7,3.8-6.2,8.3-6.4c-1.1-1.5-0.6-2.6,0.2-3.8
		c0.4-0.6,0.3-1.9,0-2.8c-0.5-1.4,0.6-2.4,0.6-3.6c0-0.1,0.2-0.3,0.2-0.4c-0.7-1.6,0.9-2.9,0.6-4.4c-0.1-0.5-0.4-1-0.6-1.6
		c1.4-0.5,1.3-1.7,1.2-3c0-0.6,0.3-1.1,0.4-1.7c0.2-1.3,0.4-2.6,0.7-4c0.1-0.4,0.2-0.7,0.3-1.1c0.5-1.5,1-2.9,1.4-4.4
		c0.1-0.2-0.1-0.5,0-0.7c0.6-1.4,1.1-3,2-4.2c1.2-1.5,2.7-2.9,4.7-3.5c0.8-0.2,1.4-1,2.1-1.4c0.8-0.5,1.6-0.8,2.4-1.3
		c0.5-0.3,1.1-0.7,1.5-1.2c0.8-0.9,1.5-1.9,3-1.6c0.1,0,0.3-0.1,0.4-0.1c1.4-1,2.9-1.9,4.3-2.9c0.4-0.3,0.8-0.9,0.7-1.2
		c-0.1-0.4-0.8-0.8-1.2-0.8c-0.9,0.1-1.8,0.4-2.6,0.7c-1.7,0.5-3.4,1.2-5.1,1.6c-0.6,0.1-1.3-0.3-2.3-0.5c-0.9,0.7-2.2,0.4-3.6,0.5
		c-1.3,0.2-2.7,0.8-3.9,1.4c-1.4,0.8-2.6,1.9-4,2.8c-0.5,0.3-1.2,0.5-1.9,0.6c-1.4,0.1-2.5,0.6-3.2,2c-0.6,1.2-1.8,1.1-2.8,1.2
		c-1.3,0.1-2.7,0.2-4,0.2c-0.4,0-0.9-0.1-1.1-0.3c-1.3-1.9-1.2-4.4,0.9-5.9c0.3-0.2,0.6-0.4,0.9-0.6c0.6-0.5,1.1-0.6,2-0.4
		c1.4,0.3,3.1,1,4.3-0.6c0.1-0.1,0.3-0.2,0.4-0.2c3.3-0.9,6.1-2.9,8.8-4.9c0.5-0.3,0.6-1.1,1-1.6c0.3-0.4,0.6-0.9,1-1.2
		c1.5-1.2,3.3-2.2,4.6-3.5c1.4-1.4,3-1.2,4.7-1c1.3,0.2,2.5,0.4,3.7,0.7c0.6,0.1,1.1,0.4,1.6,0.5c0.1,0,0.3,0.2,0.3,0.1
		c1.1-0.6,2.2-0.1,3.3-0.2c2.3-0.1,4.7-0.9,6.9-0.5c3.4,0.5,6.2-0.8,9.1-1.7c0.9-0.3,1.7-1,2.4-1.7c0.9-0.7,0.1-2.2-1-3
		c-0.9-0.7-1.1-1.2-0.7-2.3c0.3-0.8,0.3-1.7,0.5-2.6c0.4-2.1,1.6-3.8,3.1-5.2c0.9-0.8,2.3-1.2,3.6-1.5C84.8,4.1,85.9,4,87,4
		c0.8,0,1.5,0.3,2.3,0.5c2.4,0.6,4.3,2,5.9,3.9c1.3,1.7,2.4,3.5,2.5,5.8c0.1,1.1-0.4,1.7-1.2,2.2c-0.9,0.6-1.3,1.3-1.5,2.3
		c0,0.3-0.3,0.5-0.4,0.8c-0.2,0.6-0.5,1.2-0.4,1.7c0.3,1.4-0.2,2.6-1.6,3.4c-0.4,0.2-0.7,0.7-1,1c0.3,0.3,0.6,0.6,1,0.9
		c0.3,0.2,0.6,0.4,0.8,0.7c1.1,1.9,2,3.7,1.4,6.1c-0.4,1.4-0.9,2.6-1.6,3.8c-0.1,0.2-0.3,0.5-0.5,0.5c-1.5,0.5-1.4,1.7-1.5,2.9
		c-0.2,2.2-0.6,4.3-3,5.3c-0.5,0.2-0.9,0.5-1.4,0.5c-1.9,0.2-3.1,1.3-4.1,2.7c-0.4,0.5-0.5,1.3-0.4,1.9c0.1,1,0,1.7-0.7,2.4
		c-1.7,1.7-2.2,3.7-1.3,6c0.1,0.3,0.2,0.8,0,1c-0.8,1.5-0.5,2.9-0.1,4.4c0,0.1,0.1,0.2,0,0.2c-1.3,2.5,1.2,2.8,2.3,4
		c0.8,0.8,1.5,1.6,2.2,2.4c0.7,0.9,1.4,1.8,2.2,2.7c1,1.2,1.2,3.6,0.5,5.1c-0.1,0.3,0,0.7,0,1.1c0,0.5,0.1,1.1,0,1.6
		c-0.3,1-1,2-1.2,3.1c-0.3,1.5-1.3,2.2-2.6,2.6c-0.4,0.1-0.8,0.6-0.8,0.9c-0.3,1.3-0.7,1.6-2.1,1.1c-0.8-0.3-1.6-0.6-2.5-0.9
		c-0.4-0.1-0.8,0.1-1.2,0.1c0.1,0.6,0.1,1.3,0.2,1.8c0.1,0.2,0.6,0.4,0.9,0.4c0.5,0.1,1.1-0.1,1.5,0c2,0.6,2.6,1.6,2.3,3.8
		c-0.2,1.5-0.5,2.9-0.7,4.3c-0.2,1.5-0.6,3-0.7,4.5c0,1.4-0.1,3,0.5,4.2c0.6,1.1,2,1.8,3,2.7c0.6,0.5,1.3,1,1.5,1.6
		c0.3,0.9,0.8,1.2,1.6,1.4c0.4,0.1,0.8,0.1,1.2,0.2c1.8,0.1,3,1.2,3.7,2.8c0.2,0.5-0.1,1.5-0.5,2c-1.1,1.4-1.1,1.4,0.2,2.5
		c0.4,0.3,0.6,1.1,0.5,1.6c-0.7,2.1-3.3,3.6-5.2,3.5c-1.6-0.1-3-0.8-4.2-1.9c-0.8-0.7-1.3-1.5-0.7-2.7c0.2-0.4,0-1.1-0.3-1.5
		c-0.2-0.3-0.9-0.3-1.4-0.3c-0.4,0-0.8,0.2-1.2,0.3c-1.9,0.4-2.2,0.9-1.5,2.7c0.8,2.2-0.2,3.6-2.6,3.6c-1.8,0-3.3-0.7-4.4-2
		c-0.7-0.8-0.9-1.6,0-2.4c0.4-0.3,0.7-0.8,0.9-1.2c0.2-0.4,0.3-1.1,0.1-1.3c-1-1-0.7-2.1-0.5-3.2c0.2-1.3,0.4-2.7,0.8-4
		c0.3-1.1,1-2.1,1.4-3.2c0.3-0.7,0.5-1.6,0.4-2.3c-0.2-4.1-0.5-8.3-0.8-12.4c0-0.2-0.1-0.4-0.2-0.7c-0.4-1.2-1-2.3-1-3.5
		c0-1.7-0.3-3.5,0.5-5.2c0.1-0.2,0.1-0.6,0-0.8c-0.6-1.4-0.3-2.2,1.1-2.9c1.3-0.6,1.2-0.6,0.1-1.5c-0.5-0.4-0.9-1-1.4-1.3
		c-1.1-0.7-2.3-1.2-3.4-1.9c-1.5-0.8-2.9-1.7-4.4-2.5c-0.6-0.3-1.3-0.6-1.9-1c-0.9-0.7-1.7-1.5-2.5-2.3c-0.4-0.3-0.8-0.6-1.1-0.9
		c-0.3-0.2-0.6-0.3-0.8-0.5c-1.1-1.1-2.1-2.2-3.2-3.2c-0.4-0.3-1.2-0.6-1.6-0.4c-0.5,0.2-1,0.9-1,1.4c-0.3,3.4-1.7,6.4-3.7,9.1
		c-0.4,0.6-0.7,1.3-1.2,1.9s-0.9,1.3-1.5,1.8c-0.7,0.6-1,1.2-1.3,2.1c-0.3,1.2,0.2,2.9-1.5,3.7c-0.8,0.4-1.5,1.4-0.6,2.5
		c0.2,0.3,0.1,0.8-0.1,1.2c-0.3,0.7-0.6,1.4-1,2.2C41.5,91.3,41.4,91.3,41.4,91.2z M75.3,55.8c-0.3-1.2-0.6-2.5-1-3.8
		c-0.3-0.9-1.5-1.2-2.1-0.8c-1,0.8-1.2,2.6-0.3,3.6c0.5,0.5,0.9,1.1,1.4,1.6s1,0.9,1.6,1.3C75,57.1,75.1,56.6,75.3,55.8z"/>
	<path class="st0" d="M16,73.9c-0.3,1.3-11.7,4.6-12.7,4.4c0-0.1-0.1-0.2-0.1-0.3c2.1-0.8,4.1-1.7,6.2-2.5c1.2-0.5,2.4-1,3.6-1.4
		C14,73.8,15,73.9,16,73.9z"/>
	<path class="st0" d="M17.2,73.3c2.4-1.4,5.2-1.4,7.7-2.3c0.1,0.1,0.1,0.2,0.2,0.4c-0.1,0.2-0.2,0.4-0.4,0.5c-1.9,0.7-3.9,1.4-5.9,2
		c-0.5,0.2-1.1,0-1.6,0C17.2,73.6,17.2,73.5,17.2,73.3z"/>
	<path class="st0" d="M20.6,115.6c-0.4,0.5-0.7,0.8-1,1.1c-0.3-0.3-0.8-0.6-0.7-0.9c0-0.4,0.5-0.7,0.7-1
		C19.9,115,20.1,115.2,20.6,115.6z"/>
	<path class="st0" d="M19.6,114c-0.5-0.7-1.3-1-0.7-1.9c0.1-0.2,0.7-0.3,0.9-0.1C20.5,112.7,20,113.3,19.6,114z"/>
	<path class="st0" d="M47.8,101.9c-0.3-0.4-0.8-0.6-0.8-0.8c0-0.3,0.5-0.8,0.7-0.7c0.4,0.1,0.7,0.5,1,0.7
		C48.4,101.3,48.1,101.5,47.8,101.9z"/>
	<path class="st0" d="M28,70.7c-0.6,0.2-1.2,0.4-1.8,0.5c-0.2,0-0.4-0.2-0.6-0.3c0.1-0.2,0.3-0.5,0.4-0.6c0.6-0.1,1.2-0.1,1.8-0.2
		C27.9,70.4,28,70.6,28,70.7z"/>
	<path class="st0" d="M39.6,101.6c-0.5,1-1,1.2-1.7,0.1C38.5,101.7,39.1,101.6,39.6,101.6z"/>
	<path class="st0" d="M38.3,116.9c-0.3-0.4-0.7-0.6-0.6-0.8c0.1-0.3,0.4-0.5,0.7-0.6c0.1,0,0.5,0.3,0.6,0.6
		C38.9,116.3,38.5,116.5,38.3,116.9z"/>
	<path d="M75.3,55.8c-0.2,0.8-0.3,1.3-0.5,1.9c-0.5-0.4-1.1-0.8-1.6-1.3s-0.9-1.1-1.4-1.6c-0.8-1-0.7-2.8,0.3-3.6
		c0.6-0.5,1.7-0.1,2.1,0.8C74.7,53.3,75,54.6,75.3,55.8z"/>
</g>
</svg>
