<?xml version="1.0" encoding="utf-8"?>
<!-- Generator: Adobe Illustrator 22.1.0, SVG Export Plug-In . SVG Version: 6.00 Build 0)  -->
<svg version="1.1" id="Layer_1" xmlns="http://www.w3.org/2000/svg" xmlns:xlink="http://www.w3.org/1999/xlink" x="0px" y="0px"
	 viewBox="0 0 612 792" style="enable-background:new 0 0 612 792;" xml:space="preserve">
<style type="text/css">
	.st0{fill:#FFFFFF;}
</style>
<g>
	<path d="M256.2,461.3c0-43.3,0-86.7,0-130.1c33.6,0,67.1,0,100.8,0c0,43.3,0,86.7,0,130.1C323.4,461.3,289.8,461.3,256.2,461.3z
		 M297.6,422.4c0.1,0.1,0.1,0.1,0.2,0.2c0.3-0.7,0.7-1.4,1-2.2c0.1-0.4,0.2-1,0.1-1.2c-0.8-1.2-0.2-2.2,0.6-2.5
		c1.7-0.8,1.2-2.5,1.5-3.7c0.2-0.9,0.6-1.5,1.3-2.1c0.6-0.5,1.1-1.1,1.5-1.8c0.4-0.6,0.7-1.3,1.2-1.9c2-2.7,3.4-5.7,3.7-9.1
		c0-0.5,0.6-1.2,1-1.4c0.4-0.2,1.2,0.1,1.6,0.4c1.1,1,2.1,2.1,3.2,3.2c0.2,0.2,0.5,0.3,0.8,0.5c0.4,0.3,0.8,0.5,1.1,0.9
		c0.8,0.7,1.6,1.6,2.5,2.3c0.6,0.4,1.3,0.7,1.9,1c1.5,0.8,2.9,1.7,4.4,2.5c1.1,0.6,2.3,1.2,3.4,1.9c0.5,0.3,0.9,0.9,1.4,1.3
		c1.2,0.9,1.2,0.9-0.1,1.5c-1.3,0.7-1.6,1.5-1.1,2.9c0.1,0.2,0.1,0.6,0,0.8c-0.8,1.7-0.4,3.5-0.5,5.2c0,1.2,0.7,2.3,1,3.5
		c0.1,0.2,0.2,0.4,0.2,0.7c0.3,4.1,0.6,8.3,0.8,12.4c0,0.8-0.2,1.6-0.4,2.3c-0.4,1.1-1.1,2.1-1.4,3.2c-0.4,1.3-0.6,2.6-0.8,4
		c-0.1,1.1-0.4,2.2,0.5,3.2c0.2,0.2,0.1,0.9-0.1,1.3c-0.2,0.5-0.6,0.9-0.9,1.2c-0.9,0.8-0.6,1.6,0,2.4c1.1,1.4,2.6,2,4.4,2
		c2.3,0,3.4-1.5,2.6-3.6c-0.7-1.8-0.4-2.3,1.5-2.7c0.4-0.1,0.8-0.3,1.2-0.3c0.5,0,1.1,0,1.4,0.3c0.3,0.3,0.5,1.1,0.3,1.5
		c-0.6,1.2-0.1,2,0.7,2.7c1.2,1,2.6,1.8,4.2,1.9c1.9,0.1,4.5-1.4,5.2-3.5c0.1-0.4-0.1-1.2-0.5-1.6c-1.3-1.1-1.3-1.1-0.2-2.5
		c0.4-0.5,0.7-1.5,0.5-2c-0.7-1.6-1.9-2.6-3.7-2.8c-0.4,0-0.8-0.1-1.2-0.2c-0.8-0.2-1.3-0.5-1.6-1.4c-0.2-0.6-1-1.1-1.5-1.6
		c-1-0.9-2.5-1.6-3-2.7c-0.6-1.2-0.6-2.8-0.5-4.2c0-1.5,0.4-3,0.7-4.5c0.2-1.5,0.5-2.9,0.7-4.3c0.3-2.2-0.3-3.2-2.3-3.8
		c-0.5-0.1-1,0-1.5,0c-0.3,0-0.8-0.2-0.9-0.4c-0.2-0.6-0.2-1.2-0.2-1.8c0.4,0,0.8-0.2,1.2-0.1c0.8,0.2,1.7,0.5,2.5,0.9
		c1.3,0.5,1.8,0.2,2.1-1.1c0.1-0.4,0.5-0.8,0.8-0.9c1.3-0.5,2.3-1.1,2.6-2.6c0.2-1.1,0.9-2,1.2-3.1c0.2-0.5,0-1.1,0-1.6
		c0-0.4-0.2-0.8,0-1.1c0.7-1.4,0.5-3.9-0.5-5.1c-0.7-0.9-1.4-1.8-2.2-2.7c-0.7-0.8-1.4-1.6-2.2-2.4c-1.1-1.1-3.6-1.4-2.3-4
		c0-0.1,0-0.2,0-0.2c-0.4-1.5-0.7-3,0.1-4.4c0.2-0.3,0.1-0.7,0-1c-0.9-2.3-0.4-4.3,1.3-6c0.7-0.7,0.8-1.4,0.7-2.4
		c-0.1-0.6,0-1.4,0.4-1.9c1-1.4,2.2-2.5,4.1-2.7c0.5,0,1-0.3,1.4-0.5c2.3-1,2.8-3.1,3-5.3c0.1-1.2,0-2.4,1.5-2.9
		c0.2-0.1,0.3-0.3,0.5-0.5c0.8-1.2,1.3-2.4,1.6-3.8c0.6-2.4-0.3-4.2-1.4-6.1c-0.2-0.3-0.5-0.5-0.8-0.7c-0.3-0.3-0.6-0.6-1-0.9
		c0.3-0.3,0.6-0.8,1-1c1.3-0.8,1.8-1.9,1.6-3.4c-0.1-0.5,0.2-1.2,0.4-1.7c0.1-0.3,0.4-0.6,0.4-0.8c0.1-1,0.6-1.8,1.5-2.3
		c0.8-0.5,1.2-1.1,1.2-2.2c-0.1-2.3-1.2-4.1-2.5-5.8c-1.5-1.9-3.5-3.3-5.9-3.9c-0.8-0.2-1.5-0.5-2.3-0.5c-1.1,0-2.2,0.1-3.2,0.4
		c-1.2,0.4-2.7,0.7-3.6,1.5c-1.5,1.4-2.6,3.1-3.1,5.2c-0.2,0.9-0.2,1.8-0.5,2.6c-0.4,1.1-0.2,1.6,0.7,2.3c1.1,0.8,1.9,2.3,1,3
		c-0.7,0.6-1.5,1.4-2.4,1.7c-2.9,1-5.8,2.3-9.1,1.7c-2.2-0.4-4.6,0.4-6.9,0.5c-1.1,0.1-2.2-0.4-3.3,0.2c-0.1,0-0.2-0.1-0.3-0.1
		c-0.5-0.2-1.1-0.4-1.6-0.5c-1.2-0.3-2.5-0.5-3.7-0.7c-1.7-0.2-3.2-0.4-4.7,1c-1.4,1.3-3.1,2.3-4.6,3.5c-0.4,0.3-0.7,0.8-1,1.2
		c-0.4,0.5-0.5,1.3-1,1.6c-2.7,2-5.4,4-8.8,4.9c-0.1,0-0.3,0.1-0.4,0.2c-1.2,1.6-2.9,0.9-4.3,0.6c-0.9-0.2-1.4-0.1-2,0.4
		c-0.3,0.2-0.6,0.4-0.9,0.6c-2,1.5-2.2,4.1-0.9,5.9c0.2,0.2,0.7,0.4,1.1,0.3c1.4,0,2.7,0,4-0.2c1-0.1,2.2,0,2.8-1.2
		c0.6-1.4,1.7-1.9,3.2-2c0.6,0,1.4-0.2,1.9-0.6c1.4-0.9,2.6-2,4-2.8c1.2-0.7,2.6-1.3,3.9-1.4c1.3-0.2,2.7,0.2,3.6-0.5
		c1,0.2,1.7,0.6,2.3,0.5c1.7-0.4,3.4-1.1,5.1-1.6c0.9-0.3,1.7-0.6,2.6-0.7c0.4,0,1.1,0.4,1.2,0.8c0.1,0.3-0.3,0.9-0.7,1.2
		c-1.4,1-2.9,2-4.3,2.9c-0.1,0.1-0.3,0.2-0.4,0.1c-1.4-0.3-2.1,0.7-3,1.6c-0.4,0.5-0.9,0.9-1.5,1.2c-0.8,0.5-1.6,0.8-2.4,1.3
		c-0.7,0.4-1.3,1.2-2.1,1.4c-2,0.6-3.5,2-4.7,3.5c-0.9,1.2-1.4,2.8-2,4.2c-0.1,0.2,0,0.5,0,0.7c-0.5,1.5-1,2.9-1.4,4.4
		c-0.1,0.4-0.2,0.7-0.3,1.1c-0.2,1.3-0.4,2.6-0.7,4c-0.1,0.6-0.5,1.2-0.4,1.7c0.1,1.3,0.2,2.5-1.2,3c0.3,0.7,0.5,1.1,0.6,1.6
		c0.3,1.5-1.3,2.8-0.6,4.4c0,0.1-0.2,0.3-0.2,0.4c0,1.2-1.1,2.2-0.6,3.6c0.3,0.8,0.4,2.1,0,2.8c-0.9,1.3-1.3,2.3-0.2,3.8
		c-4.5,0.2-6.1,3.7-8.3,6.4c0.1,0.1,0.1,0.2,0.2,0.4c0.6-0.1,1.1-0.3,1.7-0.4c0.1,0.2,0.1,0.4,0.1,0.5c-0.2,2.2-0.1,4.1,2.5,4.9
		c0.1,0,0.2,0.1,0.2,0.1c0.3,0.5,0.6,1,0.9,1.5c-0.7,0-1.3,0-2,0c-0.1,0-0.1-0.1-0.2-0.1c-1.3-1.2-2.4-2.6-2.9-4.3
		c-0.4-1.4-0.8-1.5-1.8-0.5c-0.3,0.3-0.5,0.8-0.7,1.2c-0.5,1.1-1,2.2-1.5,3.2c-1,1.7-2.1,3.4-3.1,5.2c-1,1.9-1.8,2.5-3.9,2.1
		c-1.1-0.2-1.9,0-2.7,0.8c-0.3,0.2-0.7,0.3-1.1,0.4c-1.4,0.3-2.3-0.6-3.3-1.3c-0.7-0.6-1.5-0.7-2.3-0.2c-1.3,0.9-2.1,1.9-1.6,3.9
		c0.6,2.5,2.5,3.7,5.2,1.9c0.9-0.6,1.4-0.5,1.5,0.6c0.1,0.7-0.1,1.5-0.2,2.2c-0.1,0.4-0.3,0.8-0.3,1.3c-0.1,2.2-1,3-3.2,2.9
		c-1.9-0.1-3.1,1.3-2.8,3c0.3,1.6,1.1,2.2,2.7,1.8c0.4-0.1,0.8-0.4,1.2-0.4c0.4,0,0.9,0.2,1.3,0.4c-0.1,0.4-0.2,0.9-0.4,1.3
		c-0.2,0.4-0.8,0.9-0.7,1.1c0.2,0.5,0.7,1,1.2,1.1c1.5,0.2,2.9,0.3,4.4,0.3c0.4,0,0.9-0.3,1.2-0.7c0.6-0.8,1.1-1.8,1.6-2.6
		c0.2-0.3,0.4-0.5,0.6-0.7c0.4-0.4,0.8-0.7,1.2-1.2c1-1.4,0.5-3.1,0.9-4.7c0.1-0.4,0.4-1,0.7-1.1c0.8-0.3,0.7-0.7,0.4-1.4
		c-0.2-0.5,0-1.2,0.1-1.8c0-0.3,0.2-0.6,0.3-0.9c0.5-1,0.8-2.3,1.6-3.1c2.2-2.4,4.5-4.7,7-6.8c1.5-1.3,3.3-2.6,5.6-2.4
		c0.4,0,1-0.1,1.4-0.3c1.3-0.7,2.6-1.4,3.9-2.1C295.7,423.4,296.6,422.9,297.6,422.4z M272.2,405.1c-1.1,0.1-2,0-2.9,0.2
		c-1.2,0.3-2.4,0.9-3.6,1.4c-2.1,0.8-4.2,1.7-6.2,2.5c0,0.1,0.1,0.2,0.1,0.3C260.6,409.7,271.9,406.4,272.2,405.1z M273.4,404.5
		c0,0.2,0,0.3,0,0.5c0.5,0,1.1,0.1,1.6,0c2-0.6,3.9-1.3,5.9-2c0.2-0.1,0.3-0.3,0.4-0.5c-0.1-0.1-0.1-0.2-0.2-0.4
		C278.5,403.1,275.7,403.1,273.4,404.5z M276.8,446.8c-0.4-0.3-0.7-0.6-1-0.8c-0.3,0.3-0.7,0.7-0.7,1c0,0.2,0.5,0.6,0.7,0.9
		C276.1,447.6,276.4,447.2,276.8,446.8z M275.8,445.2c0.4-0.8,0.9-1.4,0.2-2c-0.2-0.1-0.8-0.1-0.9,0.1
		C274.5,444.2,275.3,444.6,275.8,445.2z M304,433.1c0.4-0.3,0.7-0.6,0.9-0.8c-0.3-0.3-0.6-0.6-1-0.7c-0.2,0-0.7,0.4-0.7,0.7
		C303.2,432.4,303.6,432.7,304,433.1z M284.2,401.9c0-0.2-0.1-0.3-0.1-0.5c-0.6,0-1.2,0-1.8,0.2c-0.2,0-0.3,0.4-0.4,0.6
		c0.2,0.1,0.4,0.3,0.6,0.3C283,402.3,283.6,402.1,284.2,401.9z M295.8,432.8c-0.6,0-1.1,0.1-1.7,0.1
		C294.8,433.9,295.4,433.7,295.8,432.8z M294.5,448.1c0.3-0.4,0.6-0.6,0.6-0.9c0-0.2-0.4-0.6-0.6-0.6c-0.3,0.1-0.6,0.4-0.7,0.6
		C293.8,447.5,294.2,447.8,294.5,448.1z"/>
	<path class="st0" d="M297.6,422.4c-0.9,0.5-1.9,1-2.8,1.5c-1.3,0.7-2.6,1.4-3.9,2.1c-0.4,0.2-0.9,0.4-1.4,0.3
		c-2.3-0.2-4,1.1-5.6,2.4c-2.5,2.1-4.8,4.4-7,6.8c-0.8,0.8-1.1,2.1-1.6,3.1c-0.1,0.3-0.3,0.6-0.3,0.9c-0.1,0.6-0.3,1.3-0.1,1.8
		c0.2,0.7,0.4,1-0.4,1.4c-0.3,0.1-0.6,0.7-0.7,1.1c-0.5,1.5,0,3.2-0.9,4.7c-0.3,0.4-0.8,0.8-1.2,1.2c-0.2,0.2-0.4,0.4-0.6,0.7
		c-0.5,0.9-1,1.8-1.6,2.6c-0.2,0.3-0.8,0.7-1.2,0.7c-1.5,0-3-0.1-4.4-0.3c-0.5-0.1-1-0.6-1.2-1.1c-0.1-0.2,0.5-0.7,0.7-1.1
		c0.2-0.4,0.3-0.9,0.4-1.3c-0.4-0.1-0.9-0.4-1.3-0.4c-0.4,0-0.8,0.3-1.2,0.4c-1.6,0.4-2.4-0.1-2.7-1.8c-0.3-1.8,0.9-3.1,2.8-3
		c2.2,0.1,3.1-0.7,3.2-2.9c0-0.4,0.3-0.8,0.3-1.3c0.1-0.7,0.2-1.5,0.2-2.2c-0.1-1.1-0.6-1.2-1.5-0.6c-2.7,1.8-4.6,0.6-5.2-1.9
		c-0.4-2,0.3-3,1.6-3.9c0.8-0.6,1.6-0.4,2.3,0.2c1,0.7,1.9,1.7,3.3,1.3c0.4-0.1,0.8-0.2,1.1-0.4c0.8-0.7,1.6-1,2.7-0.8
		c2.1,0.4,2.9-0.2,3.9-2.1c0.9-1.8,2.1-3.4,3.1-5.2c0.6-1,1-2.1,1.5-3.2c0.2-0.4,0.4-0.9,0.7-1.2c1-1,1.4-0.8,1.8,0.5
		c0.5,1.8,1.6,3.1,2.9,4.3c0.1,0.1,0.1,0.1,0.2,0.1c0.7,0,1.3,0,2,0c-0.3-0.5-0.6-1-0.9-1.5c0-0.1-0.1-0.1-0.2-0.1
		c-2.5-0.8-2.7-2.7-2.5-4.9c0-0.1-0.1-0.3-0.1-0.5c-0.6,0.1-1.2,0.3-1.7,0.4c-0.1-0.1-0.1-0.2-0.2-0.4c2.2-2.7,3.8-6.2,8.3-6.4
		c-1.1-1.5-0.6-2.6,0.2-3.8c0.4-0.6,0.3-1.9,0-2.8c-0.5-1.4,0.6-2.4,0.6-3.6c0-0.1,0.2-0.3,0.2-0.4c-0.7-1.6,0.9-2.9,0.6-4.4
		c-0.1-0.5-0.4-1-0.6-1.6c1.4-0.5,1.3-1.7,1.2-3c0-0.6,0.3-1.1,0.4-1.7c0.2-1.3,0.4-2.6,0.7-4c0.1-0.4,0.2-0.7,0.3-1.1
		c0.5-1.5,1-2.9,1.4-4.4c0.1-0.2-0.1-0.5,0-0.7c0.6-1.4,1.1-3,2-4.2c1.2-1.5,2.7-2.9,4.7-3.5c0.8-0.2,1.4-1,2.1-1.4
		c0.8-0.5,1.6-0.8,2.4-1.3c0.5-0.3,1.1-0.7,1.5-1.2c0.8-0.9,1.5-1.9,3-1.6c0.1,0,0.3-0.1,0.4-0.1c1.4-1,2.9-1.9,4.3-2.9
		c0.4-0.3,0.8-0.9,0.7-1.2c-0.1-0.4-0.8-0.8-1.2-0.8c-0.9,0.1-1.8,0.4-2.6,0.7c-1.7,0.5-3.4,1.2-5.1,1.6c-0.6,0.1-1.3-0.3-2.3-0.5
		c-0.9,0.7-2.2,0.4-3.6,0.5c-1.3,0.2-2.7,0.8-3.9,1.4c-1.4,0.8-2.6,1.9-4,2.8c-0.5,0.3-1.2,0.5-1.9,0.6c-1.4,0.1-2.5,0.6-3.2,2
		c-0.6,1.2-1.8,1.1-2.8,1.2c-1.3,0.1-2.7,0.2-4,0.2c-0.4,0-0.9-0.1-1.1-0.3c-1.3-1.9-1.2-4.4,0.9-5.9c0.3-0.2,0.6-0.4,0.9-0.6
		c0.6-0.5,1.1-0.6,2-0.4c1.4,0.3,3.1,1,4.3-0.6c0.1-0.1,0.3-0.2,0.4-0.2c3.3-0.9,6.1-2.9,8.8-4.9c0.5-0.3,0.6-1.1,1-1.6
		c0.3-0.4,0.6-0.9,1-1.2c1.5-1.2,3.3-2.2,4.6-3.5c1.4-1.4,3-1.2,4.7-1c1.3,0.2,2.5,0.4,3.7,0.7c0.6,0.1,1.1,0.4,1.6,0.5
		c0.1,0,0.3,0.2,0.3,0.1c1.1-0.6,2.2-0.1,3.3-0.2c2.3-0.1,4.7-0.9,6.9-0.5c3.4,0.5,6.2-0.8,9.1-1.7c0.9-0.3,1.7-1,2.4-1.7
		c0.9-0.7,0.1-2.2-1-3c-0.9-0.7-1.1-1.2-0.7-2.3c0.3-0.8,0.3-1.7,0.5-2.6c0.4-2.1,1.6-3.8,3.1-5.2c0.9-0.8,2.3-1.2,3.6-1.5
		c1-0.3,2.1-0.4,3.2-0.4c0.8,0,1.5,0.3,2.3,0.5c2.4,0.6,4.3,2,5.9,3.9c1.3,1.7,2.4,3.5,2.5,5.8c0.1,1.1-0.4,1.7-1.2,2.2
		c-0.9,0.6-1.3,1.3-1.5,2.3c0,0.3-0.3,0.5-0.4,0.8c-0.2,0.6-0.5,1.2-0.4,1.7c0.3,1.4-0.2,2.6-1.6,3.4c-0.4,0.2-0.7,0.7-1,1
		c0.3,0.3,0.6,0.6,1,0.9c0.3,0.2,0.6,0.4,0.8,0.7c1.1,1.9,2,3.7,1.4,6.1c-0.4,1.4-0.9,2.6-1.6,3.8c-0.1,0.2-0.3,0.5-0.5,0.5
		c-1.5,0.5-1.4,1.7-1.5,2.9c-0.2,2.2-0.6,4.3-3,5.3c-0.5,0.2-0.9,0.5-1.4,0.5c-1.9,0.2-3.1,1.3-4.1,2.7c-0.4,0.5-0.5,1.3-0.4,1.9
		c0.1,1,0,1.7-0.7,2.4c-1.7,1.7-2.2,3.7-1.3,6c0.1,0.3,0.2,0.8,0,1c-0.8,1.5-0.5,2.9-0.1,4.4c0,0.1,0.1,0.2,0,0.2
		c-1.3,2.5,1.2,2.8,2.3,4c0.8,0.8,1.5,1.6,2.2,2.4c0.7,0.9,1.4,1.8,2.2,2.7c1,1.2,1.2,3.6,0.5,5.1c-0.1,0.3,0,0.7,0,1.1
		c0,0.5,0.1,1.1,0,1.6c-0.3,1-1,2-1.2,3.1c-0.3,1.5-1.3,2.2-2.6,2.6c-0.4,0.1-0.8,0.6-0.8,0.9c-0.3,1.3-0.7,1.6-2.1,1.1
		c-0.8-0.3-1.6-0.6-2.5-0.9c-0.4-0.1-0.8,0.1-1.2,0.1c0.1,0.6,0.1,1.3,0.2,1.8c0.1,0.2,0.6,0.4,0.9,0.4c0.5,0.1,1.1-0.1,1.5,0
		c2,0.6,2.6,1.6,2.3,3.8c-0.2,1.5-0.5,2.9-0.7,4.3c-0.2,1.5-0.6,3-0.7,4.5c0,1.4-0.1,3,0.5,4.2c0.6,1.1,2,1.8,3,2.7
		c0.6,0.5,1.3,1,1.5,1.6c0.3,0.9,0.8,1.2,1.6,1.4c0.4,0.1,0.8,0.1,1.2,0.2c1.8,0.1,3,1.2,3.7,2.8c0.2,0.5-0.1,1.5-0.5,2
		c-1.1,1.4-1.1,1.4,0.2,2.5c0.4,0.3,0.6,1.1,0.5,1.6c-0.7,2.1-3.3,3.6-5.2,3.5c-1.6-0.1-3-0.8-4.2-1.9c-0.8-0.7-1.3-1.5-0.7-2.7
		c0.2-0.4,0-1.1-0.3-1.5c-0.2-0.3-0.9-0.3-1.4-0.3c-0.4,0-0.8,0.2-1.2,0.3c-1.9,0.4-2.2,0.9-1.5,2.7c0.8,2.2-0.2,3.6-2.6,3.6
		c-1.8,0-3.3-0.7-4.4-2c-0.7-0.8-0.9-1.6,0-2.4c0.4-0.3,0.7-0.8,0.9-1.2c0.2-0.4,0.3-1.1,0.1-1.3c-1-1-0.7-2.1-0.5-3.2
		c0.2-1.3,0.4-2.7,0.8-4c0.3-1.1,1-2.1,1.4-3.2c0.3-0.7,0.5-1.6,0.4-2.3c-0.2-4.1-0.5-8.3-0.8-12.4c0-0.2-0.1-0.4-0.2-0.7
		c-0.4-1.2-1-2.3-1-3.5c0-1.7-0.3-3.5,0.5-5.2c0.1-0.2,0.1-0.6,0-0.8c-0.6-1.4-0.3-2.2,1.1-2.9c1.3-0.6,1.2-0.6,0.1-1.5
		c-0.5-0.4-0.9-1-1.4-1.3c-1.1-0.7-2.3-1.2-3.4-1.9c-1.5-0.8-2.9-1.7-4.4-2.5c-0.6-0.3-1.3-0.6-1.9-1c-0.9-0.7-1.7-1.5-2.5-2.3
		c-0.4-0.3-0.8-0.6-1.1-0.9c-0.3-0.2-0.6-0.3-0.8-0.5c-1.1-1.1-2.1-2.2-3.2-3.2c-0.4-0.3-1.2-0.6-1.6-0.4c-0.5,0.2-1,0.9-1,1.4
		c-0.3,3.4-1.7,6.4-3.7,9.1c-0.4,0.6-0.7,1.3-1.2,1.9c-0.5,0.6-0.9,1.3-1.5,1.8c-0.7,0.6-1,1.2-1.3,2.1c-0.3,1.2,0.2,2.9-1.5,3.7
		c-0.8,0.4-1.5,1.4-0.6,2.5c0.2,0.3,0.1,0.8-0.1,1.2c-0.3,0.7-0.6,1.4-1,2.2C297.7,422.5,297.6,422.5,297.6,422.4z M331.5,387
		c-0.3-1.2-0.6-2.5-1-3.8c-0.3-0.9-1.5-1.2-2.1-0.8c-1,0.8-1.2,2.6-0.3,3.6c0.5,0.5,0.9,1.1,1.4,1.6c0.5,0.5,1,0.9,1.6,1.3
		C331.2,388.3,331.3,387.8,331.5,387z"/>
	<path class="st0" d="M272.2,405.1c-0.3,1.3-11.7,4.6-12.7,4.4c0-0.1-0.1-0.2-0.1-0.3c2.1-0.8,4.1-1.7,6.2-2.5
		c1.2-0.5,2.4-1,3.6-1.4C270.2,405,271.2,405.1,272.2,405.1z"/>
	<path class="st0" d="M273.4,404.5c2.4-1.4,5.2-1.4,7.7-2.3c0.1,0.1,0.1,0.2,0.2,0.4c-0.1,0.2-0.2,0.4-0.4,0.5
		c-1.9,0.7-3.9,1.4-5.9,2c-0.5,0.2-1.1,0-1.6,0C273.4,404.8,273.4,404.7,273.4,404.5z"/>
	<path class="st0" d="M276.8,446.8c-0.4,0.5-0.7,0.8-1,1.1c-0.3-0.3-0.8-0.6-0.7-0.9c0-0.4,0.5-0.7,0.7-1
		C276.1,446.2,276.3,446.4,276.8,446.8z"/>
	<path class="st0" d="M275.8,445.2c-0.5-0.7-1.3-1-0.7-1.9c0.1-0.2,0.7-0.3,0.9-0.1C276.7,443.9,276.2,444.5,275.8,445.2z"/>
	<path class="st0" d="M304,433.1c-0.3-0.4-0.8-0.6-0.8-0.8c0-0.3,0.5-0.8,0.7-0.7c0.4,0.1,0.7,0.5,1,0.7
		C304.6,432.5,304.3,432.7,304,433.1z"/>
	<path class="st0" d="M284.2,401.9c-0.6,0.2-1.2,0.4-1.8,0.5c-0.2,0-0.4-0.2-0.6-0.3c0.1-0.2,0.3-0.5,0.4-0.6
		c0.6-0.1,1.2-0.1,1.8-0.2C284.1,401.6,284.2,401.8,284.2,401.9z"/>
	<path class="st0" d="M295.8,432.8c-0.5,1-1,1.2-1.7,0.1C294.7,432.9,295.3,432.8,295.8,432.8z"/>
	<path class="st0" d="M294.5,448.1c-0.3-0.4-0.7-0.6-0.6-0.8c0.1-0.3,0.4-0.5,0.7-0.6c0.1,0,0.5,0.3,0.6,0.6
		C295.1,447.5,294.7,447.7,294.5,448.1z"/>
	<path d="M331.5,387c-0.2,0.8-0.3,1.3-0.5,1.9c-0.5-0.4-1.1-0.8-1.6-1.3c-0.5-0.5-0.9-1.1-1.4-1.6c-0.8-1-0.7-2.8,0.3-3.6
		c0.6-0.5,1.7-0.1,2.1,0.8C330.9,384.5,331.2,385.8,331.5,387z"/>
</g>
</svg>
