<?xml version="1.0" encoding="utf-8"?>
<!-- Generator: Adobe Illustrator 22.1.0, SVG Export Plug-In . SVG Version: 6.00 Build 0)  -->
<svg version="1.1" id="Layer_1" xmlns="http://www.w3.org/2000/svg" xmlns:xlink="http://www.w3.org/1999/xlink" x="0px" y="0px"
	 viewBox="0 0 612 792" style="enable-background:new 0 0 612 792;" xml:space="preserve">
<style type="text/css">
	.st0{fill:#FFFFFF;}
</style>
<g>
	<path d="M256.2,402.7c0-4.5,0-9,0-13.4c33.6,0,67.2,0,100.8,0c0,4.5,0,9,0,13.4C323.4,402.7,289.8,402.7,256.2,402.7z M349.3,394.1
		c1.2,2.3,2.4,4.5,3.7,6.7c0.2,0.3,0.6,0.6,1,0.6c0.6,0.1,1.2,0,1.9,0c0-3.6,0-7,0-10.5c-0.7,0-1.4,0-2.1,0c0,2.3,0,4.6,0,6.9
		c-0.9-1.8-2-3.6-2.9-5.4c-0.6-1.1-1.3-1.7-2.6-1.5c-0.3,0.1-0.7,0.1-1.1,0.1c0,3.5,0,7,0,10.5c0.8,0,1.4,0,2.1,0
		C349.3,399,349.3,396.6,349.3,394.1z M345.7,396.3c0-1.7-0.8-3.6-1.7-4.3c-2.3-1.7-5.4-1.6-7.2,0.5c-1.7,2.1-1.8,5.7,0.1,7.7
		c1.3,1.4,3.7,1.9,5.3,1.3C344.5,400.5,345.7,398.8,345.7,396.3z M258.1,401.4c2,0.2,4,0.3,5.9-0.4c2.1-0.7,3.1-2.4,3.2-5.1
		c0-1.9-1-3.7-2.7-4.4c-2.1-0.8-4.3-0.6-6.3-0.3C258.1,394.6,258.1,397.9,258.1,401.4z M307.4,397.1c0.2,0,0.3,0,0.5,0.1
		c0.5,0.8,1.1,1.6,1.4,2.5c0.6,1.8,1.9,2.1,3.5,1.8c0.1,0,0.1-0.1,0.3-0.2c-1-1.6-2-3.3-3.1-4.9c-0.4-0.7-0.5-1.1,0.1-1.7
		c1-1.1,1.9-2.4,2.9-3.7c-0.7,0-1.3,0-1.8,0c-0.7-0.1-1.2,0.1-1.6,0.8c-0.7,1.2-1.6,2.4-2.6,3.8c0-1.7,0-3.1,0-4.6
		c-0.8,0-1.6,0.1-2.2,0.1c0,3.5,0,6.9,0,10.3c0.8,0,1.5,0,2.3,0c0-0.8-0.1-1.5,0-2.2C307,398.5,307.3,397.8,307.4,397.1z
		 M313.6,401.4c2.3,0.3,2.3,0.3,2.9-1.7c0.2-0.6,0.4-1,1.2-0.8c0.4,0.1,0.9,0.1,1.3,0c0.7-0.1,0.9,0.2,1,0.8c0.5,2.1,0.8,2.3,3,1.7
		c0-0.3,0-0.6-0.1-0.9c-0.8-2.6-1.8-5.2-2.4-7.8c-0.4-1.7-1.3-1.8-2.6-1.7c-0.8,0-1.2,0.3-1.4,1.1c-0.2,0.8-0.4,1.6-0.7,2.4
		C315,396.7,314.3,399,313.6,401.4z M285.4,401.4c2.3,0.3,2.3,0.3,3-1.7c0.1-0.3,0.5-0.8,0.8-0.9c2.1-0.4,2.4-0.3,3,1.8
		c0.2,0.6,0.4,0.9,1,0.9c0.6-0.1,1.1,0,1.7,0c-1-3.2-1.9-6.3-2.8-9.4c-0.1-0.4-0.5-0.9-0.8-1c-0.6-0.2-1.3-0.1-2,0
		c-0.3,0-0.6,0.3-0.7,0.6C287.4,394.8,286.4,398,285.4,401.4z M268.8,391.1c0,3.5,0,6.9,0,10.3c2.2,0,4.4,0,6.5,0c0-0.6,0-1.2,0-1.9
		c-1.5,0-2.8,0-4.2,0c0-0.9,0-1.6,0-2.5c1.3,0,2.4,0,3.7,0c0-0.7,0-1.2,0-2c-1.3,0-2.5,0-3.7,0c0-0.8,0-1.5,0-2.2c1.3,0,2.6,0,3.9,0
		c0-0.7,0-1.2,0-1.7C273,391.1,270.9,391.1,268.8,391.1z M276.3,391.1c1,3.2,2,6.4,3,9.5c0.2,0.6,0.4,0.9,1.1,0.8
		c0.7-0.2,1.8,0.6,2.2-0.7c0.4-1.3,0.9-2.6,1.3-3.9c0.6-1.9,1.2-3.8,1.9-5.8c-0.4,0-0.7,0.2-0.9,0.1c-1.4-0.4-1.7,0.5-2,1.6
		c-0.5,2.1-1.2,4.1-1.8,6.3c-0.5-1.9-1-3.8-1.6-5.6C278.8,390.9,278.8,390.9,276.3,391.1z M295.8,400.9c1.7,0.8,3.3,0.9,4.9,0.4
		c1.3-0.4,2.2-1.2,2.3-2.6c0.1-1.2-0.4-2.3-1.5-2.9c-0.7-0.4-1.5-0.6-2.1-1.1c-0.4-0.3-0.6-0.8-0.9-1.2c0.5-0.3,1-0.7,1.5-0.8
		c0.7-0.1,1.4,0.2,2.1,0.3c0.2-0.6,0.3-1.2,0.5-1.7c-1.4-0.6-2.8-0.8-4.3-0.3c-1.3,0.5-2.2,1.4-2.2,2.7c-0.1,1.4,0.6,2.4,1.9,3
		c0.6,0.3,1.3,0.4,1.9,0.8c0.4,0.2,0.8,0.8,0.7,1.2c-0.1,0.4-0.6,0.9-1,0.9c-1,0-2-0.2-3.2-0.3C296.2,399.7,296,400.3,295.8,400.9z
		 M330.4,391c-2.7,0-5.4,0-8.2,0c0,0.8,0.1,1.4,0.1,2c1,0,1.8,0.1,2.8,0.1c0,2.2,0,4.2,0,6.3c0,2.2-0.1,2.2,2.1,2
		c0.1,0,0.2-0.1,0.5-0.2c0-2.7,0-5.5,0-8.3c1,0,1.8,0,2.7,0C330.4,392.3,330.4,391.7,330.4,391z M331.6,401.5c0.9,0,1.6,0,2.4,0
		c0-3.5,0-7,0-10.5c-0.9,0-1.6,0-2.4,0C331.6,394.5,331.6,397.9,331.6,401.5z"/>
	<path class="st0" d="M349.3,394.1c0,2.5,0,4.9,0,7.4c-0.7,0-1.3,0-2.1,0c0-3.5,0-7,0-10.5c0.4,0,0.7,0,1.1-0.1
		c1.3-0.2,2,0.4,2.6,1.5c0.9,1.8,1.9,3.6,2.9,5.4c0-2.3,0-4.5,0-6.9c0.7,0,1.4,0,2.1,0c0,3.5,0,6.9,0,10.5c-0.6,0-1.3,0.1-1.9,0
		c-0.3-0.1-0.8-0.3-1-0.6C351.7,398.6,350.5,396.4,349.3,394.1z"/>
	<path class="st0" d="M345.7,396.3c0,2.5-1.1,4.3-3.4,5.2c-1.6,0.7-4,0.1-5.3-1.3c-2-2.1-1.8-5.7-0.1-7.7c1.7-2.1,4.9-2.2,7.2-0.5
		C344.9,392.6,345.7,394.5,345.7,396.3z M343.2,396.3c-0.1-0.4-0.1-1-0.2-1.5c-0.3-1.3-1.2-2.1-2.3-2.1c-1.2,0-1.9,0.6-2.3,2
		c-0.1,0.5-0.2,0.9-0.2,1.4c-0.1,2,0.9,3.5,2.3,3.6c1.5,0.1,2.5-1.1,2.7-3.3C343.1,396.4,343.1,396.4,343.2,396.3z"/>
	<path class="st0" d="M258.1,401.4c0-3.5,0-6.7,0-10.2c2-0.3,4.2-0.5,6.3,0.3c1.7,0.7,2.8,2.5,2.7,4.4c-0.1,2.7-1.1,4.4-3.2,5.1
		C262.1,401.7,260.1,401.6,258.1,401.4z M260.3,392.9c0,2.1,0,4.1,0,6.2c0,0.3,0.5,0.7,0.8,0.7c1.4,0.1,2.6-0.4,3.2-1.7
		c0.6-1.3,0.7-2.8-0.2-4.1C263.3,392.7,261.9,392.6,260.3,392.9z"/>
	<path class="st0" d="M307.4,397.1c-0.2,0.7-0.4,1.4-0.5,2.1c-0.1,0.7,0,1.4,0,2.2c-0.8,0-1.4,0-2.3,0c0-3.4,0-6.8,0-10.3
		c0.7,0,1.4-0.1,2.2-0.1c0,1.5,0,2.9,0,4.6c1-1.4,1.9-2.5,2.6-3.8c0.4-0.7,0.9-0.9,1.6-0.8c0.5,0.1,1.1,0,1.8,0
		c-1,1.3-1.9,2.6-2.9,3.7c-0.6,0.7-0.5,1.1-0.1,1.7c1.1,1.6,2.1,3.3,3.1,4.9c-0.1,0.1-0.2,0.2-0.3,0.2c-1.6,0.2-2.9,0-3.5-1.8
		c-0.3-0.9-0.9-1.7-1.4-2.5C307.7,397.2,307.6,397.1,307.4,397.1z"/>
	<path class="st0" d="M313.6,401.4c0.7-2.4,1.5-4.7,2.2-7c0.2-0.8,0.5-1.6,0.7-2.4c0.2-0.8,0.6-1,1.4-1.1c1.3,0,2.2,0,2.6,1.7
		c0.6,2.7,1.6,5.2,2.4,7.8c0.1,0.3,0.1,0.6,0.1,0.9c-2.1,0.5-2.5,0.3-3-1.7c-0.1-0.6-0.3-0.9-1-0.8c-0.4,0.1-0.9,0.1-1.3,0
		c-0.7-0.2-1,0.2-1.2,0.8C315.9,401.7,315.9,401.7,313.6,401.4z M319.3,396.9c-0.4-1.3-0.7-2.5-1.1-4c-0.4,1.5-0.7,2.7-1,4
		C318,396.9,318.6,396.9,319.3,396.9z"/>
	<path class="st0" d="M285.4,401.4c1-3.3,2-6.6,3.1-9.8c0.1-0.2,0.4-0.5,0.7-0.6c0.7-0.1,1.4-0.1,2,0c0.3,0.1,0.7,0.6,0.8,1
		c1,3.1,1.9,6.2,2.8,9.4c-0.6,0-1.2,0-1.7,0c-0.7,0.1-0.9-0.3-1-0.9c-0.6-2.1-0.8-2.3-3-1.8c-0.3,0.1-0.6,0.5-0.8,0.9
		C287.7,401.7,287.7,401.7,285.4,401.4z M290,392.8c-0.4,1.5-0.7,2.8-1.1,4.1c0.8,0,1.5,0,2.3,0C290.8,395.6,290.4,394.3,290,392.8z
		"/>
	<path class="st0" d="M268.8,391.1c2.1,0,4.1,0,6.3,0c0,0.6,0,1.1,0,1.7c-1.3,0-2.6,0-3.9,0c0,0.8,0,1.4,0,2.2c1.2,0,2.4,0,3.7,0
		c0,0.7,0,1.3,0,2c-1.3,0-2.4,0-3.7,0c0,0.8,0,1.6,0,2.5c1.4,0,2.7,0,4.2,0c0,0.7,0,1.3,0,1.9c-2.2,0-4.3,0-6.5,0
		C268.8,398,268.8,394.6,268.8,391.1z"/>
	<path class="st0" d="M276.3,391.1c2.4-0.2,2.5-0.2,3.2,2.3c0.5,1.8,1,3.7,1.6,5.6c0.6-2.2,1.2-4.2,1.8-6.3c0.3-1.1,0.6-2,2-1.6
		c0.2,0.1,0.5,0,0.9-0.1c-0.7,2-1.3,3.9-1.9,5.8c-0.4,1.3-0.9,2.6-1.3,3.9c-0.4,1.3-1.5,0.5-2.2,0.7c-0.6,0.2-0.9-0.2-1.1-0.8
		C278.4,397.5,277.4,394.4,276.3,391.1z"/>
	<path class="st0" d="M295.8,400.9c0.2-0.7,0.4-1.2,0.6-1.6c1.1,0.1,2.1,0.3,3.2,0.3c0.4,0,1-0.5,1-0.9c0.1-0.4-0.4-0.9-0.7-1.2
		c-0.5-0.4-1.2-0.5-1.9-0.8c-1.3-0.6-2-1.6-1.9-3c0.1-1.2,0.9-2.2,2.2-2.7c1.4-0.5,2.8-0.2,4.3,0.3c-0.1,0.6-0.3,1.1-0.5,1.7
		c-0.7-0.1-1.4-0.4-2.1-0.3c-0.5,0-1,0.5-1.5,0.8c0.3,0.4,0.5,0.9,0.9,1.2c0.6,0.4,1.4,0.7,2.1,1.1c1.1,0.6,1.6,1.6,1.5,2.9
		c-0.1,1.4-1.1,2.2-2.3,2.6C299.1,401.9,297.5,401.7,295.8,400.9z"/>
	<path class="st0" d="M330.4,391c0,0.7,0,1.3,0,2c-0.8,0-1.7,0-2.7,0c0,2.8,0,5.6,0,8.3c-0.2,0.1-0.3,0.2-0.5,0.2
		c-2.2,0.2-2.2,0.2-2.1-2c0-2.1,0-4.1,0-6.3c-1,0-1.8-0.1-2.8-0.1c0-0.7-0.1-1.3-0.1-2C325,391,327.7,391,330.4,391z"/>
	<path class="st0" d="M331.6,401.5c0-3.5,0-7,0-10.5c0.8,0,1.6,0,2.4,0c0,3.4,0,6.9,0,10.5C333.2,401.5,332.5,401.5,331.6,401.5z"/>
	<path d="M343.2,396.3c0,0.1,0,0.2,0,0.2c-0.1,2.1-1.2,3.4-2.7,3.3c-1.5-0.1-2.4-1.6-2.3-3.6c0-0.5,0.1-1,0.2-1.4
		c0.4-1.4,1.1-2,2.3-2c1.1,0,1.9,0.8,2.3,2.1C343,395.3,343.1,395.9,343.2,396.3z"/>
	<path d="M260.3,392.9c1.6-0.3,3-0.2,3.8,1.1c0.9,1.3,0.8,2.8,0.2,4.1c-0.6,1.3-1.8,1.8-3.2,1.7c-0.3,0-0.8-0.4-0.8-0.7
		C260.3,397,260.3,395,260.3,392.9z"/>
	<path d="M319.3,396.9c-0.7,0-1.4,0-2.1,0c0.3-1.3,0.6-2.5,1-4C318.6,394.4,319,395.6,319.3,396.9z"/>
	<path d="M290,392.8c0.4,1.5,0.8,2.8,1.2,4.1c-0.8,0-1.5,0-2.3,0C289.3,395.6,289.6,394.3,290,392.8z"/>
</g>
</svg>
