<?xml version="1.0" encoding="utf-8"?>
<!-- Generator: Adobe Illustrator 22.1.0, SVG Export Plug-In . SVG Version: 6.00 Build 0)  -->
<svg version="1.1" id="Layer_1" xmlns="http://www.w3.org/2000/svg" xmlns:xlink="http://www.w3.org/1999/xlink" x="0px" y="0px"
	 viewBox="0 0 100.8 9.9" style="enable-background:new 0 0 100.8 9.9;" xml:space="preserve">
<style type="text/css">
	.st0{fill:#FFFFFF;}
</style>
<g>
	<path d="M0,11.7c0-4.5,0-9,0-13.4c33.6,0,67.2,0,100.8,0c0,4.5,0,9,0,13.4C67.2,11.7,33.6,11.7,0,11.7z M93.1,3.1
		c1.2,2.3,2.4,4.5,3.7,6.7c0.2,0.3,0.6,0.6,1,0.6c0.6,0.1,1.2,0,1.9,0c0-3.6,0-7,0-10.5c-0.7,0-1.4,0-2.1,0c0,2.3,0,4.6,0,6.9
		c-0.9-1.8-2-3.6-2.9-5.4c-0.6-1.1-1.3-1.7-2.6-1.5C91.8,0,91.4,0,91,0c0,3.5,0,7,0,10.5c0.8,0,1.4,0,2.1,0
		C93.1,8,93.1,5.6,93.1,3.1z M89.5,5.3c0-1.7-0.8-3.6-1.7-4.3c-2.3-1.7-5.4-1.6-7.2,0.5c-1.7,2.1-1.8,5.7,0.1,7.7
		c1.3,1.4,3.7,1.9,5.3,1.3C88.3,9.5,89.5,7.8,89.5,5.3z M1.9,10.4c2,0.2,4,0.3,5.9-0.4c2.1-0.7,3.1-2.4,3.2-5.1c0-1.9-1-3.7-2.7-4.4
		C6.2-0.3,4-0.1,2,0.2C1.9,3.6,1.9,6.9,1.9,10.4z M51.2,6.1c0.2,0,0.3,0,0.5,0.1c0.5,0.8,1.1,1.6,1.4,2.5c0.6,1.8,1.9,2.1,3.5,1.8
		c0.1,0,0.1-0.1,0.3-0.2c-1-1.6-2-3.3-3.1-4.9c-0.4-0.7-0.5-1.1,0.1-1.7c1-1.1,1.9-2.4,2.9-3.7c-0.7,0-1.3,0-1.8,0
		c-0.7-0.1-1.2,0.1-1.6,0.8c-0.7,1.2-1.6,2.4-2.6,3.8c0-1.7,0-3.1,0-4.6c-0.8,0-1.6,0.1-2.2,0.1c0,3.5,0,6.9,0,10.3
		c0.8,0,1.5,0,2.3,0c0-0.8-0.1-1.5,0-2.2C50.8,7.5,51.1,6.8,51.2,6.1z M57.4,10.4c2.3,0.3,2.3,0.3,2.9-1.7c0.2-0.6,0.4-1,1.2-0.8
		c0.4,0.1,0.9,0.1,1.3,0c0.7-0.1,0.9,0.2,1,0.8c0.5,2.1,0.8,2.3,3,1.7c0-0.3,0-0.6-0.1-0.9c-0.8-2.6-1.8-5.2-2.4-7.8
		C63.9,0,63-0.1,61.7,0c-0.8,0-1.2,0.3-1.4,1.1c-0.2,0.8-0.4,1.6-0.7,2.4C58.8,5.7,58.1,8,57.4,10.4z M29.2,10.4
		c2.3,0.3,2.3,0.3,3-1.7c0.1-0.3,0.5-0.8,0.8-0.9c2.1-0.4,2.4-0.3,3,1.8c0.2,0.6,0.4,0.9,1,0.9c0.6-0.1,1.1,0,1.7,0
		c-1-3.2-1.9-6.3-2.8-9.4c-0.1-0.4-0.5-0.9-0.8-1c-0.6-0.2-1.3-0.1-2,0c-0.3,0-0.6,0.3-0.7,0.6C31.2,3.8,30.2,7,29.2,10.4z
		 M12.6,0.1c0,3.5,0,6.9,0,10.3c2.2,0,4.4,0,6.5,0c0-0.6,0-1.2,0-1.9c-1.5,0-2.8,0-4.2,0c0-0.9,0-1.6,0-2.5c1.3,0,2.4,0,3.7,0
		c0-0.7,0-1.2,0-2c-1.3,0-2.5,0-3.7,0c0-0.8,0-1.5,0-2.2c1.3,0,2.6,0,3.9,0c0-0.7,0-1.2,0-1.7C16.8,0.1,14.7,0.1,12.6,0.1z
		 M20.1,0.1c1,3.2,2,6.4,3,9.5c0.2,0.6,0.4,0.9,1.1,0.8c0.7-0.2,1.8,0.6,2.2-0.7c0.4-1.3,0.9-2.6,1.3-3.9C28.3,3.9,28.9,2,29.6,0
		c-0.4,0-0.7,0.2-0.9,0.1c-1.4-0.4-1.7,0.5-2,1.6c-0.5,2.1-1.2,4.1-1.8,6.3c-0.5-1.9-1-3.8-1.6-5.6C22.6-0.1,22.6-0.1,20.1,0.1z
		 M39.6,9.9c1.7,0.8,3.3,0.9,4.9,0.4c1.3-0.4,2.2-1.2,2.3-2.6c0.1-1.2-0.4-2.3-1.5-2.9c-0.7-0.4-1.5-0.6-2.1-1.1
		c-0.4-0.3-0.6-0.8-0.9-1.2c0.5-0.3,1-0.7,1.5-0.8c0.7-0.1,1.4,0.2,2.1,0.3c0.2-0.6,0.3-1.2,0.5-1.7C45-0.3,43.6-0.5,42.1,0
		c-1.3,0.5-2.2,1.4-2.2,2.7c-0.1,1.4,0.6,2.4,1.9,3c0.6,0.3,1.3,0.4,1.9,0.8c0.4,0.2,0.8,0.8,0.7,1.2c-0.1,0.4-0.6,0.9-1,0.9
		c-1,0-2-0.2-3.2-0.3C40,8.7,39.8,9.3,39.6,9.9z M74.2,0c-2.7,0-5.4,0-8.2,0c0,0.8,0.1,1.4,0.1,2c1,0,1.8,0.1,2.8,0.1
		c0,2.2,0,4.2,0,6.3c0,2.2-0.1,2.2,2.1,2c0.1,0,0.2-0.1,0.5-0.2c0-2.7,0-5.5,0-8.3c1,0,1.8,0,2.7,0C74.2,1.3,74.2,0.7,74.2,0z
		 M75.4,10.5c0.9,0,1.6,0,2.4,0c0-3.5,0-7,0-10.5c-0.9,0-1.6,0-2.4,0C75.4,3.5,75.4,6.9,75.4,10.5z"/>
	<path class="st0" d="M93.1,3.1c0,2.5,0,4.9,0,7.4c-0.7,0-1.3,0-2.1,0c0-3.5,0-7,0-10.5c0.4,0,0.7,0,1.1-0.1c1.3-0.2,2,0.4,2.6,1.5
		c0.9,1.8,1.9,3.6,2.9,5.4c0-2.3,0-4.5,0-6.9c0.7,0,1.4,0,2.1,0c0,3.5,0,6.9,0,10.5c-0.6,0-1.3,0.1-1.9,0c-0.3-0.1-0.8-0.3-1-0.6
		C95.5,7.6,94.3,5.4,93.1,3.1z"/>
	<path class="st0" d="M89.5,5.3c0,2.5-1.1,4.3-3.4,5.2c-1.6,0.7-4,0.1-5.3-1.3c-2-2.1-1.8-5.7-0.1-7.7c1.7-2.1,4.9-2.2,7.2-0.5
		C88.7,1.6,89.5,3.5,89.5,5.3z M87,5.3c-0.1-0.4-0.1-1-0.2-1.5c-0.3-1.3-1.2-2.1-2.3-2.1c-1.2,0-1.9,0.6-2.3,2
		C82.1,4.2,82,4.6,82,5.1c-0.1,2,0.9,3.5,2.3,3.6c1.5,0.1,2.5-1.1,2.7-3.3C86.9,5.4,86.9,5.4,87,5.3z"/>
	<path class="st0" d="M1.9,10.4c0-3.5,0-6.7,0-10.2c2-0.3,4.2-0.5,6.3,0.3C9.9,1.2,11,3,10.9,4.9C10.8,7.6,9.8,9.3,7.7,10
		C5.9,10.7,3.9,10.6,1.9,10.4z M4.1,1.9c0,2.1,0,4.1,0,6.2c0,0.3,0.5,0.7,0.8,0.7c1.4,0.1,2.6-0.4,3.2-1.7C8.7,5.8,8.8,4.3,7.9,3
		C7.1,1.7,5.7,1.6,4.1,1.9z"/>
	<path class="st0" d="M51.2,6.1c-0.2,0.7-0.4,1.4-0.5,2.1s0,1.4,0,2.2c-0.8,0-1.4,0-2.3,0c0-3.4,0-6.8,0-10.3c0.7,0,1.4-0.1,2.2-0.1
		c0,1.5,0,2.9,0,4.6c1-1.4,1.9-2.5,2.6-3.8c0.4-0.7,0.9-0.9,1.6-0.8c0.5,0.1,1.1,0,1.8,0c-1,1.3-1.9,2.6-2.9,3.7
		c-0.6,0.7-0.5,1.1-0.1,1.7c1.1,1.6,2.1,3.3,3.1,4.9c-0.1,0.1-0.2,0.2-0.3,0.2c-1.6,0.2-2.9,0-3.5-1.8C52.6,7.8,52,7,51.5,6.2
		C51.5,6.2,51.4,6.1,51.2,6.1z"/>
	<path class="st0" d="M57.4,10.4c0.7-2.4,1.5-4.7,2.2-7c0.2-0.8,0.5-1.6,0.7-2.4s0.6-1,1.4-1.1c1.3,0,2.2,0,2.6,1.7
		c0.6,2.7,1.6,5.2,2.4,7.8c0.1,0.3,0.1,0.6,0.1,0.9c-2.1,0.5-2.5,0.3-3-1.7c-0.1-0.6-0.3-0.9-1-0.8c-0.4,0.1-0.9,0.1-1.3,0
		c-0.7-0.2-1,0.2-1.2,0.8C59.7,10.7,59.7,10.7,57.4,10.4z M63.1,5.9c-0.4-1.3-0.7-2.5-1.1-4c-0.4,1.5-0.7,2.7-1,4
		C61.8,5.9,62.4,5.9,63.1,5.9z"/>
	<path class="st0" d="M29.2,10.4c1-3.3,2-6.6,3.1-9.8C32.4,0.4,32.7,0.1,33,0c0.7-0.1,1.4-0.1,2,0c0.3,0.1,0.7,0.6,0.8,1
		c1,3.1,1.9,6.2,2.8,9.4c-0.6,0-1.2,0-1.7,0c-0.7,0.1-0.9-0.3-1-0.9c-0.6-2.1-0.8-2.3-3-1.8c-0.3,0.1-0.6,0.5-0.8,0.9
		C31.5,10.7,31.5,10.7,29.2,10.4z M33.8,1.8c-0.4,1.5-0.7,2.8-1.1,4.1c0.8,0,1.5,0,2.3,0C34.6,4.6,34.2,3.3,33.8,1.8z"/>
	<path class="st0" d="M12.6,0.1c2.1,0,4.1,0,6.3,0c0,0.6,0,1.1,0,1.7c-1.3,0-2.6,0-3.9,0c0,0.8,0,1.4,0,2.2c1.2,0,2.4,0,3.7,0
		c0,0.7,0,1.3,0,2c-1.3,0-2.4,0-3.7,0c0,0.8,0,1.6,0,2.5c1.4,0,2.7,0,4.2,0c0,0.7,0,1.3,0,1.9c-2.2,0-4.3,0-6.5,0
		C12.6,7,12.6,3.6,12.6,0.1z"/>
	<path class="st0" d="M20.1,0.1c2.4-0.2,2.5-0.2,3.2,2.3c0.5,1.8,1,3.7,1.6,5.6c0.6-2.2,1.2-4.2,1.8-6.3c0.3-1.1,0.6-2,2-1.6
		c0.2,0.1,0.5,0,0.9-0.1c-0.7,2-1.3,3.9-1.9,5.8c-0.4,1.3-0.9,2.6-1.3,3.9s-1.5,0.5-2.2,0.7c-0.6,0.2-0.9-0.2-1.1-0.8
		C22.2,6.5,21.2,3.4,20.1,0.1z"/>
	<path class="st0" d="M39.6,9.9c0.2-0.7,0.4-1.2,0.6-1.6c1.1,0.1,2.1,0.3,3.2,0.3c0.4,0,1-0.5,1-0.9c0.1-0.4-0.4-0.9-0.7-1.2
		c-0.5-0.4-1.2-0.5-1.9-0.8c-1.3-0.6-2-1.6-1.9-3C40,1.5,40.8,0.5,42.1,0c1.4-0.5,2.8-0.2,4.3,0.3c-0.1,0.6-0.3,1.1-0.5,1.7
		c-0.7-0.1-1.4-0.4-2.1-0.3c-0.5,0-1,0.5-1.5,0.8c0.3,0.4,0.5,0.9,0.9,1.2c0.6,0.4,1.4,0.7,2.1,1.1c1.1,0.6,1.6,1.6,1.5,2.9
		c-0.1,1.4-1.1,2.2-2.3,2.6C42.9,10.9,41.3,10.7,39.6,9.9z"/>
	<path class="st0" d="M74.2,0c0,0.7,0,1.3,0,2c-0.8,0-1.7,0-2.7,0c0,2.8,0,5.6,0,8.3c-0.2,0.1-0.3,0.2-0.5,0.2
		c-2.2,0.2-2.2,0.2-2.1-2c0-2.1,0-4.1,0-6.3c-1,0-1.8-0.1-2.8-0.1c0-0.7-0.1-1.3-0.1-2C68.8,0,71.5,0,74.2,0z"/>
	<path class="st0" d="M75.4,10.5c0-3.5,0-7,0-10.5c0.8,0,1.6,0,2.4,0c0,3.4,0,6.9,0,10.5C77,10.5,76.3,10.5,75.4,10.5z"/>
	<path d="M87,5.3c0,0.1,0,0.2,0,0.2c-0.1,2.1-1.2,3.4-2.7,3.3S81.9,7.2,82,5.2c0-0.5,0.1-1,0.2-1.4c0.4-1.4,1.1-2,2.3-2
		c1.1,0,1.9,0.8,2.3,2.1C86.8,4.3,86.9,4.9,87,5.3z"/>
	<path d="M4.1,1.9c1.6-0.3,3-0.2,3.8,1.1c0.9,1.3,0.8,2.8,0.2,4.1C7.5,8.4,6.3,8.9,4.9,8.8c-0.3,0-0.8-0.4-0.8-0.7
		C4.1,6,4.1,4,4.1,1.9z"/>
	<path d="M63.1,5.9c-0.7,0-1.4,0-2.1,0c0.3-1.3,0.6-2.5,1-4C62.4,3.4,62.8,4.6,63.1,5.9z"/>
	<path d="M33.8,1.8c0.4,1.5,0.8,2.8,1.2,4.1c-0.8,0-1.5,0-2.3,0C33.1,4.6,33.4,3.3,33.8,1.8z"/>
</g>
</svg>
