<?xml version="1.0" encoding="utf-8"?>
<!-- Generator: Adobe Illustrator 22.1.0, SVG Export Plug-In . SVG Version: 6.00 Build 0)  -->
<svg version="1.1" id="Layer_1" xmlns="http://www.w3.org/2000/svg" xmlns:xlink="http://www.w3.org/1999/xlink" x="0px" y="0px"
	 viewBox="0 0 100.8 115.2" style="enable-background:new 0 0 100.8 115.2;" xml:space="preserve">
<style type="text/css">
	.st0{fill:#FFFFFF;}
</style>
<g>
	<path d="M0,115.2C0,76.8,0,38.4,0,0c33.6,0,67.1,0,100.8,0c0,38.4,0,76.8,0,115.2C67.2,115.2,33.6,115.2,0,115.2z M41.6,96.1
		c-0.9-1-0.9-1.1-0.2-2.7c0.7-1.4,1-2.8,1-4.4c-0.1-1.9,0.2-3.9,0.3-5.8c0-0.7,0.1-1.4,0.3-2c0.1-0.4,0.4-0.8,0.6-1.1
		c0.4,0.2,0.8,0.4,1.1,0.7c1.1,1.4,2,2.8,3.1,4.2c0.3,0.4,0.6,0.7,0.9,1.1c0.8,1.1,1.6,2.2,2.5,3.3c0.8,0.9,1.7,1.7,2.4,2.7
		c0.6,0.8,1.1,1.6,1.6,2.4c0.3,0.4,0.7,0.7,1.1,1.1c1.8,2.3,3.6,4.7,5.4,7c0.1,0.2,0.4,0.3,0.5,0.5c1.4,1.4,2.9,2.6,4.1,4.2
		c1.1,1.5,2.6,2.5,4.2,2.8c2.6,0.6,5.3,0.6,8,0.7c2.1,0.1,4.1-0.1,6.2,0.1c2,0.2,3.3-0.4,4.3-2.1c0.7-1.2-0.1-3.5-1.3-3.6
		c-1-0.1-2.1,0-3.1,0.2c-1.8,0.4-3.5,0.7-5.3,0.4c-1.6-0.2-3.3,0.1-4.9,0s-3.2-0.5-4.8-0.7c-0.1,0-0.1-0.1-0.2-0.1
		c-1-0.6-2.1-1.2-3.1-1.7c-0.6-0.3-1-0.6-0.8-1.4c0-0.2-0.3-0.7-0.5-0.7c-1.3-0.4-2.2-1.3-2.8-2.4c-0.5-0.8-1-1.6-1.6-2.4
		c-1.7-2.1-3.3-4.3-5-6.4c-1.7-2-3.4-4-5-6c-1.3-1.6-2.4-3.2-3.7-4.8c-0.3-0.4-0.6-0.9-1-1.3c-1.3-1.1-2.4-2.3-2.1-4.3
		c0.1-0.4,0.1-0.8,0-1.2c-0.3-2-0.5-4-2.3-5.4c-0.2-0.2-0.3-0.9-0.1-1.1c0.5-0.7,1-1.4,1.7-1.9c1-0.9,2.1-1.7,3.1-2.5
		c0.5-0.4,1-1,1.5-1.3c1.4-0.9,2.8-1.6,4.2-2.5c1.6-1.1,2.5-0.9,3.6,0.6c0.8,1.2,1.7,2.3,2.6,3.4c0.6,0.8,1.1,1.6,1.5,2.5
		c0.7,1.4,1.3,2.9,2.1,4.2c1,1.6,2.2,3.1,3.3,4.7c0.3,0.4,0.8,0.9,0.8,1.3c0,1.6,0.9,2.6,2.1,3.3c1.1,0.7,2.2,1.5,3.4,1.9
		c1.2,0.3,2.5,0.1,3.8,0.2c0.6,0,1.2,0.2,1.9,0.2c2.1,0.1,4.2,1.2,6.4,0.3c1.1-0.4,1.8,0.2,1.8,1.4c0,1.1,0.8,1.8,2.1,1.6
		c0.4-0.1,0.7-0.2,1-0.3c1.1-0.3,1.7,0.3,1.3,1.4c-0.2,0.6-0.7,1.1-1.2,1.8c0.5,0,0.9-0.1,1.3,0c0.3,0,0.7,0.1,0.8,0.3
		c0.4,1.1,0.9,2.1,1.1,3.3c0.2,1.2,0.9,1.7,2,1.8c0.5,0.1,1,0.1,1.6,0.1c1,0.1,1.6-0.3,1.7-1.3c0.1-1.5,0.1-3,0.4-4.5
		c0.2-1.6-0.6-3.3,0.7-4.7c0.1-0.1,0.1-0.4,0-0.6c-0.9-1.4-1.1-3-1.2-4.6c0-0.3-0.5-0.6-0.8-0.7c-1.5-0.5-2.7-1.7-4.4-1.4
		c-0.1,0-0.2-0.1-0.3-0.1c-1.4-0.5-2.9-1.1-4.4-1.6c-0.2-0.1-0.4-0.1-0.5-0.2c-1.5-0.7-3-1.4-4.5-2c-0.8-0.3-1.7-0.6-2.4-1
		c-0.3-0.2-0.5-0.7-0.6-1.1c-0.4-1-0.7-2.1-1-3.1c-0.2-0.5-0.4-0.9-0.5-1.4s-0.1-1-0.3-1.5c-0.9-2.4-1.8-4.8-2.8-7.2
		c-0.8-2-1.4-4.2-2.5-6c-0.9-1.5-0.8-2.9-0.7-4.5c0-0.7-0.1-1.5-0.2-2.2c0-0.7-0.2-1.4-0.1-2.1c0.2-1.1-0.3-2.7-1-3.2
		c-1.2-0.8-1.7-2.1-2.3-3.3c-0.6-1.3-1.1-2.7-2.8-2.9c-0.3,0-0.6-0.5-0.9-0.8c-0.2-0.2-0.2-0.8-0.4-0.8c-1.2-0.4-1.4-1.4-1.9-2.3
		c-1.6-2.5-3.7-4.6-6.1-6.3c-1.2-0.8-1.3-1.2-0.1-2c1.1-0.8,1.3-1.7,1.1-2.9c-0.1-0.7,0-1.5-0.3-2.1c-0.9-1.6-1.7-3.2-2.9-4.5
		c-1.3-1.3-2.9-2.3-4.5-3.4c-1.4-1-2.5-0.9-3.6,0.1c-1.4,1.2-3,1.5-4.8,1.3c-0.4-0.1-1.1,0.1-1.2,0.4c-0.8,1.6-1.5,3.2-1.4,5.1
		c0.1,2.1-0.7,2.4-2.6,1.3c-0.6-0.4-1.4-0.7-2.1-0.8c-1.9-0.2-3.9-0.3-5.9-0.5c-0.4,0-0.7-0.3-1.1-0.4c-0.5-0.1-1.1-0.4-1.6-0.3
		c-0.9,0.3-1.5,0-2.2-0.4c-0.5-0.2-1.3-0.3-1.9-0.1c-0.9,0.3-1.7,0.9-2.5,1.4c-0.9,0.6-1.9,1.2-2.5,2c-1,1.4-1.8,2.9-2.7,4.4
		c-1.1,1.8-2.2,3.6-3.4,5.5C8.7,25.2,8,26,7.5,26.8c-0.3,0.5-0.4,1.2-0.8,1.7c-0.5,0.8-0.6,1.3,0.3,1.9c0.8,0.5,1,1.2,0.3,2.1
		c-0.5,0.6-0.9,1.3-1.3,2c-0.1,0.3-0.2,0.7,0,1c0.5,0.7,1.1,1.4,1.6,2.1c0.2,0.3,0.6,0.6,0.7,0.9c0.1,0.9,0.7,1.2,1.5,1.3
		c1.1,0.2,1.4,0.7,1,1.7c-0.1,0.2-0.1,0.8,0.1,0.9c0.2,0.2,0.7,0.2,1,0.1c1.6-0.5,2.7-0.1,3.7,1.3c1.2,1.7,2.5,3.4,3.7,5.1
		c1.4,1.9,2.8,3.8,4.2,5.6c0.8,1,1.7,1.9,2.6,2.7c0.7,0.6,0.8,1.4,0.1,2.1c-1.5,1.4-1.6,2.3-0.5,4.1c0.4,0.6,0.9,1.3,1.1,2
		c0.5,1.4,1.5,2.4,2.8,3.1s1.9,1.6,2,3c0,0.7,0.2,1.4,0.4,2.1c0.2,0.9,0.5,1.9,0.8,2.8c0.6,1.7,0.4,3.6,1.6,5.2
		c0.5,0.7-0.1,1.4-1,1.5c-0.5,0.1-1.1,0.3-1.4,0.6c-0.2,0.2,0.2,1,0.5,1.3c0.4,0.4,1,0.6,1.4,1c0.3,0.3,0.7,1,0.6,1.2
		c-1.3,1.5-2.5,3-4.5,3.6c-1.5,0.4-2.6,1.4-3.3,2.5c-0.4,0.5-0.5,1.8-0.1,2.2c0.8,0.9,0.6,1.4-0.1,2.1c-0.6,0.6-0.5,1.2,0.4,1.4
		c0.4,0.1,0.9,0.2,1.3,0.2c1.2,0,2.3-0.2,3.5-0.1c2.2,0.3,4.3,0.1,6.3-0.6C38.9,97.7,40.8,98,41.6,96.1z"/>
	<path class="st0" d="M41.6,96.1c-0.9,1.9-2.7,1.7-4.2,2.2c-2.1,0.7-4.2,0.9-6.3,0.6C30,98.7,28.8,99,27.6,99
		c-0.4,0-0.9-0.1-1.3-0.2c-0.9-0.2-1-0.7-0.4-1.4c0.7-0.7,0.9-1.2,0.1-2.1c-0.4-0.4-0.2-1.6,0.1-2.2c0.8-1.2,1.8-2.2,3.3-2.5
		c2-0.5,3.2-2.1,4.5-3.6c0.1-0.1-0.3-0.9-0.6-1.2c-0.4-0.4-1.1-0.6-1.4-1c-0.3-0.3-0.6-1.1-0.5-1.3c0.3-0.4,0.9-0.6,1.4-0.6
		c0.9-0.1,1.5-0.8,1-1.5c-1.2-1.5-1.1-3.5-1.6-5.2c-0.3-0.9-0.5-1.8-0.8-2.8C31.2,72.7,31,72,31,71.3c0-1.4-0.7-2.4-2-3
		c-1.3-0.7-2.2-1.7-2.8-3.1c-0.3-0.7-0.7-1.3-1.1-2c-1.1-1.8-1-2.7,0.5-4.1c0.7-0.7,0.6-1.5-0.1-2.1c-0.9-0.8-1.8-1.8-2.6-2.7
		c-1.5-1.8-2.8-3.8-4.2-5.6c-1.3-1.7-2.6-3.4-3.7-5.1c-1-1.4-2.1-1.8-3.7-1.3c-0.3,0.1-0.7,0.1-1-0.1c-0.2-0.1-0.2-0.6-0.1-0.9
		c0.4-1.1,0.1-1.6-1-1.7c-0.7-0.1-1.3-0.4-1.5-1.3c0-0.3-0.4-0.6-0.7-0.9c-0.5-0.7-1.1-1.3-1.6-2.1c-0.1-0.2-0.1-0.7,0-1
		c0.4-0.7,0.8-1.4,1.3-2c0.7-0.9,0.5-1.6-0.3-2.1c-0.9-0.6-0.7-1.2-0.3-1.9c0.3-0.5,0.4-1.2,0.8-1.7c0.5-0.8,1.2-1.6,1.7-2.4
		c1.1-1.8,2.3-3.6,3.4-5.5c0.9-1.5,1.6-3,2.7-4.4c0.6-0.8,1.6-1.4,2.5-2c0.8-0.5,1.6-1.1,2.5-1.4c0.5-0.2,1.3-0.2,1.9,0.1
		c0.7,0.4,1.4,0.7,2.2,0.4c0.5-0.2,1.1,0.1,1.6,0.3c0.4,0.1,0.7,0.3,1.1,0.4c2,0.2,3.9,0.2,5.9,0.5c0.7,0.1,1.4,0.5,2.1,0.8
		c1.9,1.1,2.7,0.8,2.6-1.3C37,10.2,37.8,8.6,38.5,7c0.1-0.3,0.8-0.4,1.2-0.4c1.8,0.3,3.4,0,4.8-1.3c1.1-1,2.2-1,3.6-0.1
		c1.5,1.1,3.2,2.1,4.5,3.4c1.2,1.3,2,2.9,2.9,4.5c0.3,0.6,0.2,1.4,0.3,2.1c0.2,1.2,0,2.1-1.1,2.9c-1.2,0.8-1.1,1.2,0.1,2
		c2.5,1.7,4.6,3.8,6.1,6.3c0.6,0.9,0.8,1.9,1.9,2.3c0.2,0.1,0.2,0.6,0.4,0.8c0.3,0.3,0.6,0.8,0.9,0.8c1.8,0.2,2.2,1.6,2.8,2.9
		c0.6,1.2,1.1,2.5,2.3,3.3c0.8,0.5,1.2,2.1,1,3.2c-0.1,0.7,0,1.4,0.1,2.1c0,0.7,0.2,1.5,0.2,2.2c-0.1,1.5-0.2,3,0.7,4.5
		c1.1,1.9,1.7,4,2.5,6c0.9,2.4,1.9,4.8,2.8,7.2c0.2,0.5,0.2,1,0.3,1.5c0.1,0.5,0.3,0.9,0.5,1.4c0.3,1,0.7,2.1,1,3.1
		c0.1,0.4,0.3,0.9,0.6,1.1c0.8,0.4,1.6,0.6,2.4,1c1.5,0.7,3,1.3,4.5,2c0.2,0.1,0.4,0.2,0.5,0.2c1.4,0.5,2.9,1.1,4.4,1.6
		c0.1,0,0.2,0.2,0.3,0.1c1.7-0.3,3,0.9,4.4,1.4c0.3,0.1,0.8,0.4,0.8,0.7c0.1,1.6,0.3,3.2,1.2,4.6c0.1,0.1,0.1,0.5,0,0.6
		c-1.3,1.4-0.4,3.1-0.7,4.7c-0.2,1.5-0.2,3-0.4,4.5c-0.1,1.1-0.7,1.4-1.7,1.3c-0.5-0.1-1-0.1-1.6-0.1c-1.1-0.1-1.8-0.6-2-1.8
		c-0.2-1.1-0.7-2.2-1.1-3.3c-0.1-0.2-0.5-0.3-0.8-0.3c-0.4,0-0.7,0-1.3,0c0.5-0.7,1-1.2,1.2-1.8c0.4-1.1-0.1-1.6-1.3-1.4
		c-0.4,0.1-0.7,0.2-1,0.3c-1.3,0.2-2.1-0.4-2.1-1.6s-0.6-1.8-1.8-1.4c-2.2,0.8-4.2-0.2-6.4-0.3c-0.6,0-1.2-0.2-1.9-0.2
		c-1.3-0.1-2.6,0.2-3.8-0.2c-1.2-0.3-2.3-1.2-3.4-1.9c-1.2-0.8-2.2-1.7-2.1-3.3c0-0.4-0.5-0.9-0.8-1.3c-1.1-1.6-2.3-3.1-3.3-4.7
		c-0.8-1.3-1.4-2.8-2.1-4.2c-0.5-0.8-1-1.7-1.5-2.5c-0.8-1.2-1.7-2.3-2.6-3.4c-1.1-1.6-2-1.7-3.6-0.6c-1.4,0.9-2.8,1.6-4.2,2.5
		c-0.6,0.4-1,0.9-1.5,1.3c-1,0.8-2.1,1.6-3.1,2.5c-0.6,0.6-1.2,1.2-1.7,1.9c-0.2,0.3-0.1,1,0.1,1.1c1.8,1.4,1.9,3.5,2.3,5.4
		c0.1,0.4,0.1,0.8,0,1.2c-0.3,1.9,0.9,3.1,2.1,4.3c0.4,0.4,0.7,0.8,1,1.3c1.2,1.6,2.4,3.3,3.7,4.8c1.6,2,3.4,4,5,6
		c1.7,2.1,3.4,4.2,5,6.4c0.6,0.8,1.1,1.6,1.6,2.4c0.7,1.1,1.5,2,2.8,2.4c0.2,0.1,0.6,0.5,0.5,0.7c-0.1,0.8,0.2,1.1,0.8,1.4
		c1.1,0.5,2.1,1.2,3.1,1.7c0.1,0,0.1,0.1,0.2,0.1c1.6,0.3,3.2,0.6,4.8,0.7c1.6,0.1,3.3-0.2,4.9,0c1.8,0.3,3.6,0,5.3-0.4
		c1-0.2,2-0.2,3.1-0.2c1.2,0.1,2,2.4,1.3,3.6c-1,1.7-2.3,2.2-4.3,2.1c-2.1-0.2-4.1,0-6.2-0.1c-2.7-0.1-5.4-0.1-8-0.7
		c-1.5-0.4-3.1-1.3-4.2-2.8c-1.2-1.5-2.7-2.8-4.1-4.2c-0.2-0.2-0.4-0.3-0.5-0.5c-1.8-2.3-3.6-4.7-5.4-7c-0.3-0.4-0.8-0.7-1.1-1.1
		c-0.6-0.8-1-1.7-1.6-2.4c-0.8-0.9-1.7-1.7-2.4-2.7c-0.9-1.1-1.6-2.2-2.5-3.3c-0.3-0.4-0.6-0.7-0.9-1.1c-1-1.4-2-2.8-3.1-4.2
		c-0.3-0.3-0.7-0.5-1.1-0.7c-0.2,0.4-0.5,0.7-0.6,1.1c-0.2,0.7-0.2,1.3-0.3,2c-0.1,1.9-0.4,3.9-0.3,5.8c0.1,1.6-0.3,3-1,4.4
		C40.7,94.9,40.7,95.1,41.6,96.1z M36.5,37.7c-0.3-0.6-0.5-1.3-1-1.7c-1.6-1.3-2.7-3-3.6-4.9c-0.1-0.3-0.4-0.6-0.6-0.9
		c-1.4-1.2-2.8-2.5-4.2-3.7c-1.5-1.3-2.9-2.6-4.4-3.8c-1.4-1.2-1.6-1.2-2.9,0.1c-0.1,0.1-0.2,0.2-0.4,0.3c-1.4,0.8-1.8,1.6-1.3,3.1
		c0.7,2.2,0.1,4-1.3,5.6c-0.5,0.7-0.6,1.2-0.2,2c0.2,0.5,0.3,1.3,0.1,1.8c-0.3,0.8-0.9,1.5-1.5,2.3c-1.1,1.5-1.1,1.7,0.1,3.1
		c1.8,2.1,3.6,4.1,5.4,6.3c1.3,1.6,2.4,3.3,3.6,4.9c1.1,1.4,2.3,2.7,3.5,4.1c0.2,0.2,0.6,0.4,0.9,0.4c0.2,0,0.4-0.4,0.4-0.7
		c0.3-2.5,1.5-4.5,3.3-6.3c0.2-0.2,0.4-0.4,0.5-0.7c0.9-2,2.8-3.5,2.4-5.9C36.8,41.4,35.6,39.5,36.5,37.7z M33.5,97.2
		c0.9-0.5,1.8-0.9,2.6-1.3c0.7-0.3,1.3-0.7,0.8-1.5c-0.5-0.9-1.1-0.1-1.6,0.1c-0.7,0.3-1.4,0.7-2,1.1c-0.4,0.2-0.7,0.5-1.1,0.7
		C32.6,96.5,33,96.8,33.5,97.2z M56.5,48.9c0.6-0.7,1.1-1.4,1.7-2.1C56.7,46.7,56.1,47.5,56.5,48.9z"/>
	<path d="M36.5,37.7c-0.9,1.8,0.4,3.7-1,5.2c0.4,2.5-1.6,4-2.4,5.9c-0.1,0.2-0.3,0.5-0.5,0.7c-1.7,1.8-2.9,3.8-3.3,6.3
		c0,0.3-0.3,0.7-0.4,0.7c-0.3,0-0.7-0.1-0.9-0.4c-1.2-1.3-2.4-2.7-3.5-4.1c-1.3-1.6-2.4-3.3-3.6-4.9c-1.7-2.1-3.6-4.2-5.4-6.3
		c-1.2-1.4-1.2-1.7-0.1-3.1c0.5-0.7,1.1-1.5,1.5-2.3c0.2-0.5,0.1-1.2-0.1-1.8c-0.3-0.8-0.3-1.3,0.2-2c1.3-1.6,2-3.5,1.3-5.6
		c-0.5-1.5-0.1-2.3,1.3-3.1c0.1-0.1,0.3-0.2,0.4-0.3c1.3-1.3,1.4-1.3,2.9-0.1c1.5,1.3,2.9,2.6,4.4,3.8c1.4,1.2,2.8,2.4,4.2,3.7
		c0.3,0.2,0.5,0.5,0.6,0.9c0.8,1.9,1.9,3.5,3.6,4.9C36,36.4,36.2,37.2,36.5,37.7z"/>
	<path d="M33.5,97.2c-0.5-0.3-0.9-0.6-1.2-0.9c0.4-0.2,0.7-0.5,1.1-0.7c0.7-0.4,1.3-0.8,2-1.1c0.5-0.2,1.1-1,1.6-0.1
		c0.4,0.8-0.1,1.2-0.8,1.5C35.3,96.2,34.4,96.7,33.5,97.2z"/>
	<path d="M56.5,48.9c-0.4-1.4,0.2-2.1,1.7-2.1C57.6,47.5,57.1,48.1,56.5,48.9z"/>
</g>
</svg>
