0
SECTION
2
ENTITIES
0
LINE
8
0
10
-123.0
20
-54.399994
30
-665.10754
11
-119.70001
21
-51.600006
31
-665.10754
0
LINE
8
0
10
-119.70001
20
-51.600006
30
-665.10754
11
-115.79999
21
-51.100006
31
-665.10754
0
LINE
8
0
10
-115.79999
20
-51.100006
30
-665.10754
11
-119.5
21
-42.600006
31
-665.10754
0
LINE
8
0
10
-119.5
20
-42.600006
30
-665.10754
11
-123.79999
21
-32.399994
31
-665.10754
0
LINE
8
0
10
-123.79999
20
-32.399994
30
-665.10754
11
-131.20001
21
-25.899994
31
-665.10754
0
LINE
8
0
10
-131.20001
20
-25.899994
30
-665.10754
11
-137.1
21
-17.800018
31
-665.10754
0
LINE
8
0
10
-137.1
20
-17.800018
30
-665.10754
11
-145.9
21
-5.600006
31
-665.10754
0
LINE
8
0
10
-145.9
20
-5.600006
30
-665.10754
11
-159.1
21
-5.700012
31
-665.10754
0
LINE
8
0
10
-159.1
20
-5.700012
30
-665.10754
11
-172.0
21
-9.100006
31
-665.10754
0
LINE
8
0
10
-172.0
20
-9.100006
30
-665.10754
11
-185.0
21
-12.600006
31
-665.10754
0
LINE
8
0
10
-185.0
20
-12.600006
30
-665.10754
11
-191.70001
21
-22.300018
31
-665.10754
0
LINE
8
0
10
-191.70001
20
-22.300018
30
-665.10754
11
-193.79999
21
-35.399994
31
-665.10754
0
LINE
8
0
10
-193.79999
20
-35.399994
30
-665.10754
11
-194.09998
21
-37.5
31
-665.10754
0
LINE
8
0
10
-194.09998
20
-37.5
30
-665.10754
11
-194.69998
21
-39.5
31
-665.10754
0
LINE
8
0
10
-194.69998
20
-39.5
30
-665.10754
11
-195.4
21
-42.299988
31
-665.10754
0
LINE
8
0
10
-195.4
20
-42.299988
30
-665.10754
11
-206.1
21
-28.399994
31
-665.10754
0
LINE
8
0
10
-206.1
20
-28.399994
30
-665.10754
11
-188.4
21
-8.199982
31
-665.10754
0
LINE
8
0
10
-188.4
20
-8.199982
30
-665.10754
11
-161.5
21
-0.6999817
31
-665.10754
0
LINE
8
0
10
-161.5
20
-0.6999817
30
-665.10754
11
-165.4
21
0.4000244
31
-665.10754
0
LINE
8
0
10
-165.4
20
0.4000244
30
-665.10754
11
-169.4
21
1.3000183
31
-665.10754
0
LINE
8
0
10
-169.4
20
1.3000183
30
-665.10754
11
-173.29999
21
2.7000122
31
-665.10754
0
LINE
8
0
10
-173.29999
20
2.7000122
30
-665.10754
11
-175.09998
21
3.4000244
31
-665.10754
0
LINE
8
0
10
-175.09998
20
3.4000244
30
-665.10754
11
-177.9
21
4.700012
31
-665.10754
0
LINE
8
0
10
-177.9
20
4.700012
30
-665.10754
11
-178.09998
21
5.9000244
31
-665.10754
0
LINE
8
0
10
-178.09998
20
5.9000244
30
-665.10754
11
-178.29999
21
7.6000366
31
-665.10754
0
LINE
8
0
10
-178.29999
20
7.6000366
30
-665.10754
11
-176.29999
21
9.5000305
31
-665.10754
0
LINE
8
0
10
-176.29999
20
9.5000305
30
-665.10754
11
-175.09998
21
11.200012
31
-665.10754
0
LINE
8
0
10
-175.09998
20
11.200012
30
-665.10754
11
-174.49997
21
12.0
31
-665.10754
0
LINE
8
0
10
-174.49997
20
12.0
30
-665.10754
11
-173.19998
21
12.300018
31
-665.10754
0
LINE
8
0
10
-173.19998
20
12.300018
30
-665.10754
11
-172.79999
21
13.100006
31
-665.10754
0
LINE
8
0
10
-172.79999
20
13.100006
30
-665.10754
11
-171.9
21
15.100006
31
-665.10754
0
LINE
8
0
10
-171.9
20
15.100006
30
-665.10754
11
-171.29999
21
17.300018
31
-665.10754
0
LINE
8
0
10
-171.29999
20
17.300018
30
-665.10754
11
-170.59998
21
19.5
31
-665.10754
0
LINE
8
0
10
-170.59998
20
19.5
30
-665.10754
11
-172.69998
21
19.200012
31
-665.10754
0
LINE
8
0
10
-172.69998
20
19.200012
30
-665.10754
11
-175.29999
21
19.600006
31
-665.10754
0
LINE
8
0
10
-175.29999
20
19.600006
30
-665.10754
11
-176.79999
21
18.5
31
-665.10754
0
LINE
8
0
10
-176.79999
20
18.5
30
-665.10754
11
-182.19998
21
14.5
31
-665.10754
0
LINE
8
0
10
-182.19998
20
14.5
30
-665.10754
11
-187.19998
21
14.399994
31
-665.10754
0
LINE
8
0
10
-187.19998
20
14.399994
30
-665.10754
11
-192.69998
21
18.299988
31
-665.10754
0
LINE
8
0
10
-192.69998
20
18.299988
30
-665.10754
11
-194.29999
21
19.5
31
-665.10754
0
LINE
8
0
10
-194.29999
20
19.5
30
-665.10754
11
-196.9
21
19.299988
31
-665.10754
0
LINE
8
0
10
-196.9
20
19.299988
30
-665.10754
11
-198.99997
21
19.699982
31
-665.10754
0
LINE
8
0
10
-198.99997
20
19.699982
30
-665.10754
11
-198.19998
21
17.399994
31
-665.10754
0
LINE
8
0
10
-198.19998
20
17.399994
30
-665.10754
11
-197.99997
21
14.4999695
31
-665.10754
0
LINE
8
0
10
-197.99997
20
14.4999695
30
-665.10754
11
-196.39996
21
12.9999695
31
-665.10754
0
LINE
8
0
10
-196.39996
20
12.9999695
30
-665.10754
11
-194.39996
21
10.9999695
31
-665.10754
0
LINE
8
0
10
-194.39996
20
10.9999695
30
-665.10754
11
-191.19995
21
10.099976
31
-665.10754
0
LINE
8
0
10
-191.19995
20
10.099976
30
-665.10754
11
-188.59998
21
8.599976
31
-665.10754
0
LINE
8
0
10
-188.59998
20
8.599976
30
-665.10754
11
-187.29999
21
7.8999634
31
-665.10754
0
LINE
8
0
10
-187.29999
20
7.8999634
30
-665.10754
11
-186.09998
21
6.9999695
31
-665.10754
0
LINE
8
0
10
-186.09998
20
6.9999695
30
-665.10754
11
-182.89996
21
4.8999634
31
-665.10754
0
LINE
8
0
10
-182.89996
20
4.8999634
30
-665.10754
11
-187.29996
21
3.7999573
31
-665.10754
0
LINE
8
0
10
-187.29996
20
3.7999573
30
-665.10754
11
-189.49997
21
3.1999512
31
-665.10754
0
LINE
8
0
10
-189.49997
20
3.1999512
30
-665.10754
11
-191.69995
21
2.5999756
31
-665.10754
0
LINE
8
0
10
-191.69995
20
2.5999756
30
-665.10754
11
-196.69995
21
1.0999756
31
-665.10754
0
LINE
8
0
10
-196.69995
20
1.0999756
30
-665.10754
11
-201.99994
21
-3.0517578E-5
31
-665.10754
0
LINE
8
0
10
-201.99994
20
-3.0517578E-5
30
-665.10754
11
-206.69995
21
-2.1000366
31
-665.10754
0
LINE
8
0
10
-206.69995
20
-2.1000366
30
-665.10754
11
-227.39996
21
-11.200043
31
-665.10754
0
LINE
8
0
10
-227.39996
20
-11.200043
30
-665.10754
11
-235.59995
21
-27.600037
31
-665.10754
0
LINE
8
0
10
-235.59995
20
-27.600037
30
-665.10754
11
-231.19995
21
-49.80005
31
-665.10754
0
LINE
8
0
10
-231.19995
20
-49.80005
30
-665.10754
11
-229.89996
21
-56.200043
31
-665.10754
0
LINE
8
0
10
-229.89996
20
-56.200043
30
-665.10754
11
-228.49994
21
-62.600037
31
-665.10754
0
LINE
8
0
10
-228.49994
20
-62.600037
30
-665.10754
11
-228.29996
21
-69.10004
31
-665.10754
0
LINE
8
0
10
-228.29996
20
-69.10004
30
-665.10754
11
-228.19995
21
-74.400024
31
-665.10754
0
LINE
8
0
10
-228.19995
20
-74.400024
30
-665.10754
11
-231.09995
21
-77.900024
31
-665.10754
0
LINE
8
0
10
-231.09995
20
-77.900024
30
-665.10754
11
-237.09995
21
-74.60004
31
-665.10754
0
LINE
8
0
10
-237.09995
20
-74.60004
30
-665.10754
11
-243.49994
21
-71.20004
31
-665.10754
0
LINE
8
0
10
-243.49994
20
-71.20004
30
-665.10754
11
-244.69995
21
-75.400024
31
-665.10754
0
LINE
8
0
10
-244.69995
20
-75.400024
30
-665.10754
11
-243.49994
21
-79.80005
31
-665.10754
0
LINE
8
0
10
-243.49994
20
-79.80005
30
-665.10754
11
-241.99994
21
-85.50006
31
-665.10754
0
LINE
8
0
10
-241.99994
20
-85.50006
30
-665.10754
11
-238.69995
21
-90.60004
31
-665.10754
0
LINE
8
0
10
-238.69995
20
-90.60004
30
-665.10754
11
-236.59995
21
-96.20004
31
-665.10754
0
LINE
8
0
10
-236.59995
20
-96.20004
30
-665.10754
11
-235.69995
21
-98.50003
31
-665.10754
0
LINE
8
0
10
-235.69995
20
-98.50003
30
-665.10754
11
-235.99994
21
-101.20004
31
-665.10754
0
LINE
8
0
10
-235.99994
20
-101.20004
30
-665.10754
11
-235.89993
21
-103.70004
31
-665.10754
0
LINE
8
0
10
-235.89993
20
-103.70004
30
-665.10754
11
-235.79993
21
-105.70004
31
-665.10754
0
LINE
8
0
10
-235.79993
20
-105.70004
30
-665.10754
11
-236.39993
21
-107.80005
31
-665.10754
0
LINE
8
0
10
-236.39993
20
-107.80005
30
-665.10754
11
-235.79993
21
-109.60004
31
-665.10754
0
LINE
8
0
10
-235.79993
20
-109.60004
30
-665.10754
11
-233.49994
21
-116.80005
31
-665.10754
0
LINE
8
0
10
-233.49994
20
-116.80005
30
-665.10754
11
-218.49994
21
-122.30005
31
-665.10754
0
LINE
8
0
10
-218.49994
20
-122.30005
30
-665.10754
11
-211.99994
21
-118.50003
31
-665.10754
0
LINE
8
0
10
-211.99994
20
-118.50003
30
-665.10754
11
-210.09995
21
-117.400024
31
-665.10754
0
LINE
8
0
10
-210.09995
20
-117.400024
30
-665.10754
11
-207.19995
21
-117.20004
31
-665.10754
0
LINE
8
0
10
-207.19995
20
-117.20004
30
-665.10754
11
-206.09995
21
-115.60004
31
-665.10754
0
LINE
8
0
10
-206.09995
20
-115.60004
30
-665.10754
11
-203.59995
21
-112.30005
31
-665.10754
0
LINE
8
0
10
-203.59995
20
-112.30005
30
-665.10754
11
-199.69995
21
-107.50003
31
-665.10754
0
LINE
8
0
10
-199.69995
20
-107.50003
30
-665.10754
11
-200.59995
21
-104.80005
31
-665.10754
0
LINE
8
0
10
-200.59995
20
-104.80005
30
-665.10754
11
-202.29996
21
-100.00006
31
-665.10754
0
LINE
8
0
10
-202.29996
20
-100.00006
30
-665.10754
11
-200.89993
21
-97.10004
31
-665.10754
0
LINE
8
0
10
-200.89993
20
-97.10004
30
-665.10754
11
-199.09995
21
-93.30005
31
-665.10754
0
LINE
8
0
10
-199.09995
20
-93.30005
30
-665.10754
11
-195.89993
21
-86.50006
31
-665.10754
0
LINE
8
0
10
-195.89993
20
-86.50006
30
-665.10754
11
-193.49994
21
-79.30005
31
-665.10754
0
LINE
8
0
10
-193.49994
20
-79.30005
30
-665.10754
11
-190.69995
21
-72.30005
31
-665.10754
0
LINE
8
0
10
-190.69995
20
-72.30005
30
-665.10754
11
-187.39996
21
-64.20004
31
-665.10754
0
LINE
8
0
10
-187.39996
20
-64.20004
30
-665.10754
11
-181.49994
21
-60.30005
31
-665.10754
0
LINE
8
0
10
-181.49994
20
-60.30005
30
-665.10754
11
-172.49994
21
-60.700043
31
-665.10754
0
LINE
8
0
10
-172.49994
20
-60.700043
30
-665.10754
11
-153.69995
21
-61.600037
31
-665.10754
0
LINE
8
0
10
-153.69995
20
-61.600037
30
-665.10754
11
-136.19995
21
-65.60004
31
-665.10754
0
LINE
8
0
10
-136.19995
20
-65.60004
30
-665.10754
11
-122.599945
21
-80.00003
31
-665.10754
0
LINE
8
0
10
-122.599945
20
-80.00003
30
-665.10754
11
-121.29996
21
-81.400024
31
-665.10754
0
LINE
8
0
10
-121.29996
20
-81.400024
30
-665.10754
11
-118.79996
21
-81.70004
31
-665.10754
0
LINE
8
0
10
-118.79996
20
-81.70004
30
-665.10754
11
-116.89993
21
-82.50003
31
-665.10754
0
LINE
8
0
10
-116.89993
20
-82.50003
30
-665.10754
11
-115.89993
21
-79.900024
31
-665.10754
0
LINE
8
0
10
-115.89993
20
-79.900024
30
-665.10754
11
-113.29993
21
-76.70004
31
-665.10754
0
LINE
8
0
10
-113.29993
20
-76.70004
30
-665.10754
11
-113.99994
21
-74.70004
31
-665.10754
0
LINE
8
0
10
-113.99994
20
-74.70004
30
-665.10754
11
-116.20001
21
-67.899994
31
-665.10754
0
LINE
8
0
10
-116.20001
20
-67.899994
30
-665.10754
11
-119.70001
21
-61.5
31
-665.10754
0
LINE
8
0
10
-119.70001
20
-61.5
30
-665.10754
11
-123.0
21
-54.399994
31
-665.10754
0
LINE
8
0
10
-123.0
20
-54.399994
30
-665.10754
11
-123.0
21
-54.399994
31
-665.10754
0
LINE
8
0
10
-28.02002
20
-117.399994
30
-665.10754
11
-28.02002
21
-120.79999
31
-665.10754
0
LINE
8
0
10
-28.02002
20
-120.79999
30
-665.10754
11
-28.619995
21
-124.399994
31
-665.10754
0
LINE
8
0
10
-28.619995
20
-124.399994
30
-665.10754
11
-27.820007
21
-127.69998
31
-665.10754
0
LINE
8
0
10
-27.820007
20
-127.69998
30
-665.10754
11
-27.21997
21
-130.69998
31
-665.10754
0
LINE
8
0
10
-27.21997
20
-130.69998
30
-665.10754
11
-25.119995
21
-133.29999
31
-665.10754
0
LINE
8
0
10
-25.119995
20
-133.29999
30
-665.10754
11
-23.71997
21
-136.09998
31
-665.10754
0
LINE
8
0
10
-23.71997
20
-136.09998
30
-665.10754
11
-22.21997
21
-133.39998
31
-665.10754
0
LINE
8
0
10
-22.21997
20
-133.39998
30
-665.10754
11
-19.919983
21
-130.89998
31
-665.10754
0
LINE
8
0
10
-19.919983
20
-130.89998
30
-665.10754
11
-19.320007
21
-128.09998
31
-665.10754
0
LINE
8
0
10
-19.320007
20
-128.09998
30
-665.10754
11
-18.52002
21
-124.19998
31
-665.10754
0
LINE
8
0
10
-18.52002
20
-124.19998
30
-665.10754
11
-19.52002
21
-119.99997
31
-665.10754
0
LINE
8
0
10
-19.52002
20
-119.99997
30
-665.10754
11
-19.02002
21
-116.099976
31
-665.10754
0
LINE
8
0
10
-19.02002
20
-116.099976
30
-665.10754
11
-18.720032
21
-114.099976
31
-665.10754
0
LINE
8
0
10
-18.720032
20
-114.099976
30
-665.10754
11
-16.919983
21
-112.29999
31
-665.10754
0
LINE
8
0
10
-16.919983
20
-112.29999
30
-665.10754
11
-15.820007
21
-110.39996
31
-665.10754
0
LINE
8
0
10
-15.820007
20
-110.39996
30
-665.10754
11
-14.820007
21
-112.39996
31
-665.10754
0
LINE
8
0
10
-14.820007
20
-112.39996
30
-665.10754
11
-13.119995
21
-114.29996
31
-665.10754
0
LINE
8
0
10
-13.119995
20
-114.29996
30
-665.10754
11
-12.820007
21
-116.39996
31
-665.10754
0
LINE
8
0
10
-12.820007
20
-116.39996
30
-665.10754
11
-12.320007
21
-120.89996
31
-665.10754
0
LINE
8
0
10
-12.320007
20
-120.89996
30
-665.10754
11
-13.119995
21
-125.49997
31
-665.10754
0
LINE
8
0
10
-13.119995
20
-125.49997
30
-665.10754
11
-12.52002
21
-129.89996
31
-665.10754
0
LINE
8
0
10
-12.52002
20
-129.89996
30
-665.10754
11
-12.220032
21
-132.09996
31
-665.10754
0
LINE
8
0
10
-12.220032
20
-132.09996
30
-665.10754
11
-9.820007
21
-133.99997
31
-665.10754
0
LINE
8
0
10
-9.820007
20
-133.99997
30
-665.10754
11
-8.419983
21
-136.09996
31
-665.10754
0
LINE
8
0
10
-8.419983
20
-136.09996
30
-665.10754
11
-6.919983
21
-133.89996
31
-665.10754
0
LINE
8
0
10
-6.919983
20
-133.89996
30
-665.10754
11
-4.5200195
21
-131.99995
31
-665.10754
0
LINE
8
0
10
-4.5200195
20
-131.99995
30
-665.10754
11
-4.0200195
21
-129.59996
31
-665.10754
0
LINE
8
0
10
-4.0200195
20
-129.59996
30
-665.10754
11
-3.3200073
21
-125.79996
31
-665.10754
0
LINE
8
0
10
-3.3200073
20
-125.79996
30
-665.10754
11
-3.8200073
21
-121.69995
31
-665.10754
0
LINE
8
0
10
-3.8200073
20
-121.69995
30
-665.10754
11
-3.8200073
21
-117.69995
31
-665.10754
0
LINE
8
0
10
-3.8200073
20
-117.69995
30
-665.10754
11
-3.119995
21
-117.39996
31
-665.10754
0
LINE
8
0
10
-3.119995
20
-117.39996
30
-665.10754
11
-2.3200073
21
-117.099945
31
-665.10754
0
LINE
8
0
10
-2.3200073
20
-117.099945
30
-665.10754
11
-1.6199951
21
-116.69995
31
-665.10754
0
LINE
8
0
10
-1.6199951
20
-116.69995
30
-665.10754
11
-0.2199707
21
-118.99994
31
-665.10754
0
LINE
8
0
10
-0.2199707
20
-118.99994
30
-665.10754
11
1.9800415
21
-121.19995
31
-665.10754
0
LINE
8
0
10
1.9800415
20
-121.19995
30
-665.10754
11
2.2800293
21
-123.69995
31
-665.10754
0
LINE
8
0
10
2.2800293
20
-123.69995
30
-665.10754
11
2.880005
21
-128.09995
31
-665.10754
0
LINE
8
0
10
2.880005
20
-128.09995
30
-665.10754
11
1.8800049
21
-132.79996
31
-665.10754
0
LINE
8
0
10
1.8800049
20
-132.79996
30
-665.10754
11
2.6799927
21
-137.19995
31
-665.10754
0
LINE
8
0
10
2.6799927
20
-137.19995
30
-665.10754
11
3.080017
21
-139.59995
31
-665.10754
0
LINE
8
0
10
3.080017
20
-139.59995
30
-665.10754
11
5.6799927
21
-141.69995
31
-665.10754
0
LINE
8
0
10
5.6799927
20
-141.69995
30
-665.10754
11
7.1799927
21
-143.89995
31
-665.10754
0
LINE
8
0
10
7.1799927
20
-143.89995
30
-665.10754
11
8.580017
21
-141.79994
31
-665.10754
0
LINE
8
0
10
8.580017
20
-141.79994
30
-665.10754
11
11.080017
21
-139.69995
31
-665.10754
0
LINE
8
0
10
11.080017
20
-139.69995
30
-665.10754
11
11.179993
21
-137.59995
31
-665.10754
0
LINE
8
0
10
11.179993
20
-137.59995
30
-665.10754
11
11.380005
21
-102.599945
31
-665.10754
0
LINE
8
0
10
11.380005
20
-102.599945
30
-665.10754
11
11.380005
21
-67.69995
31
-665.10754
0
LINE
8
0
10
11.380005
20
-67.69995
30
-665.10754
11
11.280029
21
-32.69995
31
-665.10754
0
LINE
8
0
10
11.280029
20
-32.69995
30
-665.10754
11
11.280029
21
-25.699951
31
-665.10754
0
LINE
8
0
10
11.280029
20
-25.699951
30
-665.10754
11
6.880005
21
-21.299957
31
-665.10754
0
LINE
8
0
10
6.880005
20
-21.299957
30
-665.10754
11
0.7800293
21
-19.399963
31
-665.10754
0
LINE
8
0
10
0.7800293
20
-19.399963
30
-665.10754
11
-9.5199585
21
-16.199951
31
-665.10754
0
LINE
8
0
10
-9.5199585
20
-16.199951
30
-665.10754
11
-12.820007
21
-9.899963
31
-665.10754
0
LINE
8
0
10
-12.820007
20
-9.899963
30
-665.10754
11
-11.719971
21
0.7000427
31
-665.10754
0
LINE
8
0
10
-11.719971
20
0.7000427
30
-665.10754
11
-10.619995
21
11.900055
31
-665.10754
0
LINE
8
0
10
-10.619995
20
11.900055
30
-665.10754
11
-11.320007
21
23.300049
31
-665.10754
0
LINE
8
0
10
-11.320007
20
23.300049
30
-665.10754
11
-11.619995
21
34.600037
31
-665.10754
0
LINE
8
0
10
-11.619995
20
34.600037
30
-665.10754
11
-11.719971
21
36.50003
31
-665.10754
0
LINE
8
0
10
-11.719971
20
36.50003
30
-665.10754
11
-13.820007
21
39.600037
31
-665.10754
0
LINE
8
0
10
-13.820007
20
39.600037
30
-665.10754
11
-15.5199585
21
40.00003
31
-665.10754
0
LINE
8
0
10
-15.5199585
20
40.00003
30
-665.10754
11
-19.619995
21
41.100037
31
-665.10754
0
LINE
8
0
10
-19.619995
20
41.100037
30
-665.10754
11
-20.319946
21
38.00003
31
-665.10754
0
LINE
8
0
10
-20.319946
20
38.00003
30
-665.10754
11
-20.319946
21
34.600037
31
-665.10754
0
LINE
8
0
10
-20.319946
20
34.600037
30
-665.10754
11
-20.21997
21
21.300049
31
-665.10754
0
LINE
8
0
10
-20.21997
20
21.300049
30
-665.10754
11
-20.619934
21
7.9000244
31
-665.10754
0
LINE
8
0
10
-20.619934
20
7.9000244
30
-665.10754
11
-20.119934
21
-5.3999634
31
-665.10754
0
LINE
8
0
10
-20.119934
20
-5.3999634
30
-665.10754
11
-19.919922
21
-11.4999695
31
-665.10754
0
LINE
8
0
10
-19.919922
20
-11.4999695
30
-665.10754
11
-21.819946
21
-14.799957
31
-665.10754
0
LINE
8
0
10
-21.819946
20
-14.799957
30
-665.10754
11
-27.419922
21
-16.599976
31
-665.10754
0
LINE
8
0
10
-27.419922
20
-16.599976
30
-665.10754
11
-30.019958
21
-17.49997
31
-665.10754
0
LINE
8
0
10
-30.019958
20
-17.49997
30
-665.10754
11
-32.319946
21
-18.99997
31
-665.10754
0
LINE
8
0
10
-32.319946
20
-18.99997
30
-665.10754
11
-34.819946
21
-20.299988
31
-665.10754
0
LINE
8
0
10
-34.819946
20
-20.299988
30
-665.10754
11
-40.51996
21
-23.299988
31
-665.10754
0
LINE
8
0
10
-40.51996
20
-23.299988
30
-665.10754
11
-43.21991
21
-27.899994
31
-665.10754
0
LINE
8
0
10
-43.21991
20
-27.899994
30
-665.10754
11
-43.21991
21
-34.299988
31
-665.10754
0
LINE
8
0
10
-43.21991
20
-34.299988
30
-665.10754
11
-43.21991
21
-68.29999
31
-665.10754
0
LINE
8
0
10
-43.21991
20
-68.29999
30
-665.10754
11
-43.319946
21
-102.19998
31
-665.10754
0
LINE
8
0
10
-43.319946
20
-102.19998
30
-665.10754
11
-43.019897
21
-136.19998
31
-665.10754
0
LINE
8
0
10
-43.019897
20
-136.19998
30
-665.10754
11
-43.019897
21
-138.79999
31
-665.10754
0
LINE
8
0
10
-43.019897
20
-138.79999
30
-665.10754
11
-40.319885
21
-141.29999
31
-665.10754
0
LINE
8
0
10
-40.319885
20
-141.29999
30
-665.10754
11
-38.91992
21
-143.79999
31
-665.10754
0
LINE
8
0
10
-38.91992
20
-143.79999
30
-665.10754
11
-37.41992
21
-141.29999
31
-665.10754
0
LINE
8
0
10
-37.41992
20
-141.29999
30
-665.10754
11
-35.119934
21
-138.99998
31
-665.10754
0
LINE
8
0
10
-35.119934
20
-138.99998
30
-665.10754
11
-34.619934
21
-136.29999
31
-665.10754
0
LINE
8
0
10
-34.619934
20
-136.29999
30
-665.10754
11
-33.91992
21
-132.4
31
-665.10754
0
LINE
8
0
10
-33.91992
20
-132.4
30
-665.10754
11
-34.91992
21
-128.19998
31
-665.10754
0
LINE
8
0
10
-34.91992
20
-128.19998
30
-665.10754
11
-34.319946
21
-124.29999
31
-665.10754
0
LINE
8
0
10
-34.319946
20
-124.29999
30
-665.10754
11
-33.819946
21
-121.5
31
-665.10754
0
LINE
8
0
10
-33.819946
20
-121.5
30
-665.10754
11
-31.919922
21
-119.0
31
-665.10754
0
LINE
8
0
10
-31.919922
20
-119.0
30
-665.10754
11
-30.619934
21
-116.399994
31
-665.10754
0
LINE
8
0
10
-30.619934
20
-116.399994
30
-665.10754
11
-29.720032
21
-116.79999
31
-665.10754
0
LINE
8
0
10
-29.720032
20
-116.79999
30
-665.10754
11
-28.919983
21
-117.100006
31
-665.10754
0
LINE
8
0
10
-28.919983
20
-117.100006
30
-665.10754
11
-28.02002
21
-117.399994
31
-665.10754
0
LINE
8
0
10
-28.02002
20
-117.399994
30
-665.10754
11
-11.02002
21
-23.600006
31
-665.10754
0
LINE
8
0
10
-11.02002
20
-23.600006
30
-665.10754
11
3.7799683
21
-29.200012
31
-665.10754
0
LINE
8
0
10
3.7799683
20
-29.200012
30
-665.10754
11
5.1799927
21
-32.200012
31
-665.10754
0
LINE
8
0
10
5.1799927
20
-32.200012
30
-665.10754
11
1.4799805
21
-49.5
31
-665.10754
0
LINE
8
0
10
1.4799805
20
-49.5
30
-665.10754
11
-14.119995
21
-42.700012
31
-665.10754
0
LINE
8
0
10
-14.119995
20
-42.700012
30
-665.10754
11
-11.820007
21
-47.600006
31
-665.10754
0
LINE
8
0
10
-11.820007
20
-47.600006
30
-665.10754
11
-11.02002
21
-23.600006
31
-665.10754
0
LINE
8
0
10
-11.02002
20
-23.600006
30
-665.10754
11
-33.919983
21
-49.799988
31
-665.10754
0
LINE
8
0
10
-33.919983
20
-49.799988
30
-665.10754
11
-36.02002
21
-30.099976
31
-665.10754
0
LINE
8
0
10
-36.02002
20
-30.099976
30
-665.10754
11
-34.820007
21
-27.699982
31
-665.10754
0
LINE
8
0
10
-34.820007
20
-27.699982
30
-665.10754
11
-21.21997
21
-24.0
31
-665.10754
0
LINE
8
0
10
-21.21997
20
-24.0
30
-665.10754
11
-17.820007
21
-41.899994
31
-665.10754
0
LINE
8
0
10
-17.820007
20
-41.899994
30
-665.10754
11
-18.619995
21
-43.5
31
-665.10754
0
LINE
8
0
10
-18.619995
20
-43.5
30
-665.10754
11
-33.919983
21
-49.799988
31
-665.10754
0
LINE
8
0
10
-33.919983
20
-49.799988
30
-665.10754
11
-34.02002
21
-79.5
31
-665.10754
0
LINE
8
0
10
-34.02002
20
-79.5
30
-665.10754
11
-35.820007
21
-60.200012
31
-665.10754
0
LINE
8
0
10
-35.820007
20
-60.200012
30
-665.10754
11
-34.820007
21
-58.5
31
-665.10754
0
LINE
8
0
10
-34.820007
20
-58.5
30
-665.10754
11
-21.02002
21
-54.5
31
-665.10754
0
LINE
8
0
10
-21.02002
20
-54.5
30
-665.10754
11
-18.419983
21
-72.79999
31
-665.10754
0
LINE
8
0
10
-18.419983
20
-72.79999
30
-665.10754
11
-18.52002
21
-73.100006
31
-665.10754
0
LINE
8
0
10
-18.52002
20
-73.100006
30
-665.10754
11
-34.02002
21
-79.5
31
-665.10754
0
LINE
8
0
10
-34.02002
20
-79.5
30
-665.10754
11
-20.820007
21
-83.79999
31
-665.10754
0
LINE
8
0
10
-20.820007
20
-83.79999
30
-665.10754
11
-19.320007
21
-103.099976
31
-665.10754
0
LINE
8
0
10
-19.320007
20
-103.099976
30
-665.10754
11
-20.820007
21
-105.79999
31
-665.10754
0
LINE
8
0
10
-20.820007
20
-105.79999
30
-665.10754
11
-34.119995
21
-108.399994
31
-665.10754
0
LINE
8
0
10
-34.119995
20
-108.399994
30
-665.10754
11
-35.619995
21
-89.29999
31
-665.10754
0
LINE
8
0
10
-35.619995
20
-89.29999
30
-665.10754
11
-35.320007
21
-88.79999
31
-665.10754
0
LINE
8
0
10
-35.320007
20
-88.79999
30
-665.10754
11
-20.820007
21
-83.79999
31
-665.10754
0
LINE
8
0
10
-20.820007
20
-83.79999
30
-665.10754
11
1.6799927
21
-79.20001
31
-665.10754
0
LINE
8
0
10
1.6799927
20
-79.20001
30
-665.10754
11
-13.420044
21
-73.600006
31
-665.10754
0
LINE
8
0
10
-13.420044
20
-73.600006
30
-665.10754
11
-14.220032
21
-71.900024
31
-665.10754
0
LINE
8
0
10
-14.220032
20
-71.900024
30
-665.10754
11
-10.619995
21
-54.400024
31
-665.10754
0
LINE
8
0
10
-10.619995
20
-54.400024
30
-665.10754
11
3.880005
21
-59.899994
31
-665.10754
0
LINE
8
0
10
3.880005
20
-59.899994
30
-665.10754
11
4.580017
21
-61.200012
31
-665.10754
0
LINE
8
0
10
4.580017
20
-61.200012
30
-665.10754
11
1.6799927
21
-79.20001
31
-665.10754
0
LINE
8
0
10
1.6799927
20
-79.20001
30
-665.10754
11
-11.119995
21
-84.0
31
-665.10754
0
LINE
8
0
10
-11.119995
20
-84.0
30
-665.10754
11
4.080017
21
-89.5
31
-665.10754
0
LINE
8
0
10
4.080017
20
-89.5
30
-665.10754
11
3.4799805
21
-88.20001
31
-665.10754
0
LINE
8
0
10
3.4799805
20
-88.20001
30
-665.10754
11
1.5800171
21
-108.79999
31
-665.10754
0
LINE
8
0
10
1.5800171
20
-108.79999
30
-665.10754
11
-12.419983
21
-103.79999
31
-665.10754
0
LINE
8
0
10
-12.419983
20
-103.79999
30
-665.10754
11
-12.52002
21
-103.5
31
-665.10754
0
LINE
8
0
10
-12.52002
20
-103.5
30
-665.10754
11
-11.119995
21
-84.0
31
-665.10754
0
LINE
8
0
10
-11.119995
20
-84.0
30
-665.10754
11
-28.02002
21
-117.399994
31
-665.10754
0
LINE
8
0
10
90.974976
20
-3.2000122
30
-665.10754
11
97.375
21
-15.0
31
-665.10754
0
LINE
8
0
10
97.375
20
-15.0
30
-665.10754
11
103.07501
21
-27.200012
31
-665.10754
0
LINE
8
0
10
103.07501
20
-27.200012
30
-665.10754
11
110.375
21
-38.400024
31
-665.10754
0
LINE
8
0
10
110.375
20
-38.400024
30
-665.10754
11
115.974976
21
-47.00003
31
-665.10754
0
LINE
8
0
10
115.974976
20
-47.00003
30
-665.10754
11
116.17499
21
-54.100037
31
-665.10754
0
LINE
8
0
10
116.17499
20
-54.100037
30
-665.10754
11
110.875
21
-62.700012
31
-665.10754
0
LINE
8
0
10
110.875
20
-62.700012
30
-665.10754
11
104.57501
21
-73.100006
31
-665.10754
0
LINE
8
0
10
104.57501
20
-73.100006
30
-665.10754
11
99.375
21
-84.20001
31
-665.10754
0
LINE
8
0
10
99.375
20
-84.20001
30
-665.10754
11
95.775024
21
-97.20001
31
-665.10754
0
LINE
8
0
10
95.775024
20
-97.20001
30
-665.10754
11
109.875
21
-89.100006
31
-665.10754
0
LINE
8
0
10
109.875
20
-89.100006
30
-665.10754
11
124.375
21
-81.600006
31
-665.10754
0
LINE
8
0
10
124.375
20
-81.600006
30
-665.10754
11
137.97498
21
-72.80002
31
-665.10754
0
LINE
8
0
10
137.97498
20
-72.80002
30
-665.10754
11
146.07501
21
-67.600006
31
-665.10754
0
LINE
8
0
10
146.07501
20
-67.600006
30
-665.10754
11
150.77502
21
-68.80002
31
-665.10754
0
LINE
8
0
10
150.77502
20
-68.80002
30
-665.10754
11
158.07501
21
-74.80002
31
-665.10754
0
LINE
8
0
10
158.07501
20
-74.80002
30
-665.10754
11
199.875
21
-109.100006
31
-665.10754
0
LINE
8
0
10
199.875
20
-109.100006
30
-665.10754
11
246.375
21
-129.80002
31
-665.10754
0
LINE
8
0
10
246.375
20
-129.80002
30
-665.10754
11
302.175
21
-119.50003
31
-665.10754
0
LINE
8
0
10
302.175
20
-119.50003
30
-665.10754
11
334.175
21
-113.60004
31
-665.10754
0
LINE
8
0
10
334.175
20
-113.60004
30
-665.10754
11
361.675
21
-98.60004
31
-665.10754
0
LINE
8
0
10
361.675
20
-98.60004
30
-665.10754
11
386.675
21
-78.10004
31
-665.10754
0
LINE
8
0
10
386.675
20
-78.10004
30
-665.10754
11
394.97498
21
-71.30005
31
-665.10754
0
LINE
8
0
10
394.97498
20
-71.30005
30
-665.10754
11
396.375
21
-65.70004
31
-665.10754
0
LINE
8
0
10
396.375
20
-65.70004
30
-665.10754
11
388.47498
21
-58.100037
31
-665.10754
0
LINE
8
0
10
388.47498
20
-58.100037
30
-665.10754
11
380.57495
21
-50.600037
31
-665.10754
0
LINE
8
0
10
380.57495
20
-50.600037
30
-665.10754
11
379.875
21
-43.50003
31
-665.10754
0
LINE
8
0
10
379.875
20
-43.50003
30
-665.10754
11
389.675
21
-36.80005
31
-665.10754
0
LINE
8
0
10
389.675
20
-36.80005
30
-665.10754
11
399.57495
21
-30.000061
31
-665.10754
0
LINE
8
0
10
399.57495
20
-30.000061
30
-665.10754
11
393.375
21
-25.500061
31
-665.10754
0
LINE
8
0
10
393.375
20
-25.500061
30
-665.10754
11
387.27502
21
-20.500061
31
-665.10754
0
LINE
8
0
10
387.27502
20
-20.500061
30
-665.10754
11
328.47498
21
27.899933
31
-665.10754
0
LINE
8
0
10
328.47498
20
27.899933
30
-665.10754
11
248.375
21
34.599945
31
-665.10754
0
LINE
8
0
10
248.375
20
34.599945
30
-665.10754
11
179.17499
21
-8.600067
31
-665.10754
0
LINE
8
0
10
179.17499
20
-8.600067
30
-665.10754
11
154.375
21
-24.100067
31
-665.10754
0
LINE
8
0
10
154.375
20
-24.100067
30
-665.10754
11
135.47498
21
-25.700073
31
-665.10754
0
LINE
8
0
10
135.47498
20
-25.700073
30
-665.10754
11
112.775024
21
-9.900055
31
-665.10754
0
LINE
8
0
10
112.775024
20
-9.900055
30
-665.10754
11
107.07501
21
-5.900055
31
-665.10754
0
LINE
8
0
10
107.07501
20
-5.900055
30
-665.10754
11
99.974976
21
-3.8000488
31
-665.10754
0
LINE
8
0
10
99.974976
20
-3.8000488
30
-665.10754
11
93.474976
21
-0.8000488
31
-665.10754
0
LINE
8
0
10
93.474976
20
-0.8000488
30
-665.10754
11
92.57501
21
-1.6000061
31
-665.10754
0
LINE
8
0
10
92.57501
20
-1.6000061
30
-665.10754
11
91.775024
21
-2.399994
31
-665.10754
0
LINE
8
0
10
91.775024
20
-2.399994
30
-665.10754
11
90.974976
21
-3.2000122
31
-665.10754
0
LINE
8
0
10
90.974976
20
-3.2000122
30
-665.10754
11
90.974976
21
-3.2000122
31
-665.10754
0
LINE
8
0
10
-123.0
20
-54.399994
30
-665.10754
11
-119.70001
21
-51.600006
31
-665.10754
0
LINE
8
0
10
-119.70001
20
-51.600006
30
-665.10754
11
-115.79999
21
-51.100006
31
-665.10754
0
LINE
8
0
10
-115.79999
20
-51.100006
30
-665.10754
11
-119.5
21
-42.600006
31
-665.10754
0
LINE
8
0
10
-119.5
20
-42.600006
30
-665.10754
11
-123.79999
21
-32.399994
31
-665.10754
0
LINE
8
0
10
-123.79999
20
-32.399994
30
-665.10754
11
-131.20001
21
-25.899994
31
-665.10754
0
LINE
8
0
10
-131.20001
20
-25.899994
30
-665.10754
11
-137.1
21
-17.800018
31
-665.10754
0
LINE
8
0
10
-137.1
20
-17.800018
30
-665.10754
11
-145.9
21
-5.600006
31
-665.10754
0
LINE
8
0
10
-145.9
20
-5.600006
30
-665.10754
11
-159.1
21
-5.700012
31
-665.10754
0
LINE
8
0
10
-159.1
20
-5.700012
30
-665.10754
11
-172.0
21
-9.100006
31
-665.10754
0
LINE
8
0
10
-172.0
20
-9.100006
30
-665.10754
11
-185.0
21
-12.600006
31
-665.10754
0
LINE
8
0
10
-185.0
20
-12.600006
30
-665.10754
11
-191.70001
21
-22.300018
31
-665.10754
0
LINE
8
0
10
-191.70001
20
-22.300018
30
-665.10754
11
-193.79999
21
-35.399994
31
-665.10754
0
LINE
8
0
10
-193.79999
20
-35.399994
30
-665.10754
11
-194.09998
21
-37.5
31
-665.10754
0
LINE
8
0
10
-194.09998
20
-37.5
30
-665.10754
11
-194.69998
21
-39.5
31
-665.10754
0
LINE
8
0
10
-194.69998
20
-39.5
30
-665.10754
11
-195.4
21
-42.299988
31
-665.10754
0
LINE
8
0
10
-195.4
20
-42.299988
30
-665.10754
11
-206.1
21
-28.399994
31
-665.10754
0
LINE
8
0
10
-206.1
20
-28.399994
30
-665.10754
11
-188.4
21
-8.199982
31
-665.10754
0
LINE
8
0
10
-188.4
20
-8.199982
30
-665.10754
11
-161.5
21
-0.6999817
31
-665.10754
0
LINE
8
0
10
-161.5
20
-0.6999817
30
-665.10754
11
-165.4
21
0.4000244
31
-665.10754
0
LINE
8
0
10
-165.4
20
0.4000244
30
-665.10754
11
-169.4
21
1.3000183
31
-665.10754
0
LINE
8
0
10
-169.4
20
1.3000183
30
-665.10754
11
-173.29999
21
2.7000122
31
-665.10754
0
LINE
8
0
10
-173.29999
20
2.7000122
30
-665.10754
11
-175.09998
21
3.4000244
31
-665.10754
0
LINE
8
0
10
-175.09998
20
3.4000244
30
-665.10754
11
-177.9
21
4.700012
31
-665.10754
0
LINE
8
0
10
-177.9
20
4.700012
30
-665.10754
11
-178.09998
21
5.9000244
31
-665.10754
0
LINE
8
0
10
-178.09998
20
5.9000244
30
-665.10754
11
-178.29999
21
7.6000366
31
-665.10754
0
LINE
8
0
10
-178.29999
20
7.6000366
30
-665.10754
11
-176.29999
21
9.5000305
31
-665.10754
0
LINE
8
0
10
-176.29999
20
9.5000305
30
-665.10754
11
-175.09998
21
11.200012
31
-665.10754
0
LINE
8
0
10
-175.09998
20
11.200012
30
-665.10754
11
-174.49997
21
12.0
31
-665.10754
0
LINE
8
0
10
-174.49997
20
12.0
30
-665.10754
11
-173.19998
21
12.300018
31
-665.10754
0
LINE
8
0
10
-173.19998
20
12.300018
30
-665.10754
11
-172.79999
21
13.100006
31
-665.10754
0
LINE
8
0
10
-172.79999
20
13.100006
30
-665.10754
11
-171.9
21
15.100006
31
-665.10754
0
LINE
8
0
10
-171.9
20
15.100006
30
-665.10754
11
-171.29999
21
17.300018
31
-665.10754
0
LINE
8
0
10
-171.29999
20
17.300018
30
-665.10754
11
-170.59998
21
19.5
31
-665.10754
0
LINE
8
0
10
-170.59998
20
19.5
30
-665.10754
11
-172.69998
21
19.200012
31
-665.10754
0
LINE
8
0
10
-172.69998
20
19.200012
30
-665.10754
11
-175.29999
21
19.600006
31
-665.10754
0
LINE
8
0
10
-175.29999
20
19.600006
30
-665.10754
11
-176.79999
21
18.5
31
-665.10754
0
LINE
8
0
10
-176.79999
20
18.5
30
-665.10754
11
-182.19998
21
14.5
31
-665.10754
0
LINE
8
0
10
-182.19998
20
14.5
30
-665.10754
11
-187.19998
21
14.399994
31
-665.10754
0
LINE
8
0
10
-187.19998
20
14.399994
30
-665.10754
11
-192.69998
21
18.299988
31
-665.10754
0
LINE
8
0
10
-192.69998
20
18.299988
30
-665.10754
11
-194.29999
21
19.5
31
-665.10754
0
LINE
8
0
10
-194.29999
20
19.5
30
-665.10754
11
-196.9
21
19.299988
31
-665.10754
0
LINE
8
0
10
-196.9
20
19.299988
30
-665.10754
11
-198.99997
21
19.699982
31
-665.10754
0
LINE
8
0
10
-198.99997
20
19.699982
30
-665.10754
11
-198.19998
21
17.399994
31
-665.10754
0
LINE
8
0
10
-198.19998
20
17.399994
30
-665.10754
11
-197.99997
21
14.4999695
31
-665.10754
0
LINE
8
0
10
-197.99997
20
14.4999695
30
-665.10754
11
-196.39996
21
12.9999695
31
-665.10754
0
LINE
8
0
10
-196.39996
20
12.9999695
30
-665.10754
11
-194.39996
21
10.9999695
31
-665.10754
0
LINE
8
0
10
-194.39996
20
10.9999695
30
-665.10754
11
-191.19995
21
10.099976
31
-665.10754
0
LINE
8
0
10
-191.19995
20
10.099976
30
-665.10754
11
-188.59998
21
8.599976
31
-665.10754
0
LINE
8
0
10
-188.59998
20
8.599976
30
-665.10754
11
-187.29999
21
7.8999634
31
-665.10754
0
LINE
8
0
10
-187.29999
20
7.8999634
30
-665.10754
11
-186.09998
21
6.9999695
31
-665.10754
0
LINE
8
0
10
-186.09998
20
6.9999695
30
-665.10754
11
-182.89996
21
4.8999634
31
-665.10754
0
LINE
8
0
10
-182.89996
20
4.8999634
30
-665.10754
11
-187.29996
21
3.7999573
31
-665.10754
0
LINE
8
0
10
-187.29996
20
3.7999573
30
-665.10754
11
-189.49997
21
3.1999512
31
-665.10754
0
LINE
8
0
10
-189.49997
20
3.1999512
30
-665.10754
11
-191.69995
21
2.5999756
31
-665.10754
0
LINE
8
0
10
-191.69995
20
2.5999756
30
-665.10754
11
-196.69995
21
1.0999756
31
-665.10754
0
LINE
8
0
10
-196.69995
20
1.0999756
30
-665.10754
11
-201.99994
21
-3.0517578E-5
31
-665.10754
0
LINE
8
0
10
-201.99994
20
-3.0517578E-5
30
-665.10754
11
-206.69995
21
-2.1000366
31
-665.10754
0
LINE
8
0
10
-206.69995
20
-2.1000366
30
-665.10754
11
-227.39996
21
-11.200043
31
-665.10754
0
LINE
8
0
10
-227.39996
20
-11.200043
30
-665.10754
11
-235.59995
21
-27.600037
31
-665.10754
0
LINE
8
0
10
-235.59995
20
-27.600037
30
-665.10754
11
-231.19995
21
-49.80005
31
-665.10754
0
LINE
8
0
10
-231.19995
20
-49.80005
30
-665.10754
11
-229.89996
21
-56.200043
31
-665.10754
0
LINE
8
0
10
-229.89996
20
-56.200043
30
-665.10754
11
-228.49994
21
-62.600037
31
-665.10754
0
LINE
8
0
10
-228.49994
20
-62.600037
30
-665.10754
11
-228.29996
21
-69.10004
31
-665.10754
0
LINE
8
0
10
-228.29996
20
-69.10004
30
-665.10754
11
-228.19995
21
-74.400024
31
-665.10754
0
LINE
8
0
10
-228.19995
20
-74.400024
30
-665.10754
11
-231.09995
21
-77.900024
31
-665.10754
0
LINE
8
0
10
-231.09995
20
-77.900024
30
-665.10754
11
-237.09995
21
-74.60004
31
-665.10754
0
LINE
8
0
10
-237.09995
20
-74.60004
30
-665.10754
11
-243.49994
21
-71.20004
31
-665.10754
0
LINE
8
0
10
-243.49994
20
-71.20004
30
-665.10754
11
-244.69995
21
-75.400024
31
-665.10754
0
LINE
8
0
10
-244.69995
20
-75.400024
30
-665.10754
11
-243.49994
21
-79.80005
31
-665.10754
0
LINE
8
0
10
-243.49994
20
-79.80005
30
-665.10754
11
-241.99994
21
-85.50006
31
-665.10754
0
LINE
8
0
10
-241.99994
20
-85.50006
30
-665.10754
11
-238.69995
21
-90.60004
31
-665.10754
0
LINE
8
0
10
-238.69995
20
-90.60004
30
-665.10754
11
-236.59995
21
-96.20004
31
-665.10754
0
LINE
8
0
10
-236.59995
20
-96.20004
30
-665.10754
11
-235.69995
21
-98.50003
31
-665.10754
0
LINE
8
0
10
-235.69995
20
-98.50003
30
-665.10754
11
-235.99994
21
-101.20004
31
-665.10754
0
LINE
8
0
10
-235.99994
20
-101.20004
30
-665.10754
11
-235.89993
21
-103.70004
31
-665.10754
0
LINE
8
0
10
-235.89993
20
-103.70004
30
-665.10754
11
-235.79993
21
-105.70004
31
-665.10754
0
LINE
8
0
10
-235.79993
20
-105.70004
30
-665.10754
11
-236.39993
21
-107.80005
31
-665.10754
0
LINE
8
0
10
-236.39993
20
-107.80005
30
-665.10754
11
-235.79993
21
-109.60004
31
-665.10754
0
LINE
8
0
10
-235.79993
20
-109.60004
30
-665.10754
11
-233.49994
21
-116.80005
31
-665.10754
0
LINE
8
0
10
-233.49994
20
-116.80005
30
-665.10754
11
-218.49994
21
-122.30005
31
-665.10754
0
LINE
8
0
10
-218.49994
20
-122.30005
30
-665.10754
11
-211.99994
21
-118.50003
31
-665.10754
0
LINE
8
0
10
-211.99994
20
-118.50003
30
-665.10754
11
-210.09995
21
-117.400024
31
-665.10754
0
LINE
8
0
10
-210.09995
20
-117.400024
30
-665.10754
11
-207.19995
21
-117.20004
31
-665.10754
0
LINE
8
0
10
-207.19995
20
-117.20004
30
-665.10754
11
-206.09995
21
-115.60004
31
-665.10754
0
LINE
8
0
10
-206.09995
20
-115.60004
30
-665.10754
11
-203.59995
21
-112.30005
31
-665.10754
0
LINE
8
0
10
-203.59995
20
-112.30005
30
-665.10754
11
-199.69995
21
-107.50003
31
-665.10754
0
LINE
8
0
10
-199.69995
20
-107.50003
30
-665.10754
11
-200.59995
21
-104.80005
31
-665.10754
0
LINE
8
0
10
-200.59995
20
-104.80005
30
-665.10754
11
-202.29996
21
-100.00006
31
-665.10754
0
LINE
8
0
10
-202.29996
20
-100.00006
30
-665.10754
11
-200.89993
21
-97.10004
31
-665.10754
0
LINE
8
0
10
-200.89993
20
-97.10004
30
-665.10754
11
-199.09995
21
-93.30005
31
-665.10754
0
LINE
8
0
10
-199.09995
20
-93.30005
30
-665.10754
11
-195.89993
21
-86.50006
31
-665.10754
0
LINE
8
0
10
-195.89993
20
-86.50006
30
-665.10754
11
-193.49994
21
-79.30005
31
-665.10754
0
LINE
8
0
10
-193.49994
20
-79.30005
30
-665.10754
11
-190.69995
21
-72.30005
31
-665.10754
0
LINE
8
0
10
-190.69995
20
-72.30005
30
-665.10754
11
-187.39996
21
-64.20004
31
-665.10754
0
LINE
8
0
10
-187.39996
20
-64.20004
30
-665.10754
11
-181.49994
21
-60.30005
31
-665.10754
0
LINE
8
0
10
-181.49994
20
-60.30005
30
-665.10754
11
-172.49994
21
-60.700043
31
-665.10754
0
LINE
8
0
10
-172.49994
20
-60.700043
30
-665.10754
11
-153.69995
21
-61.600037
31
-665.10754
0
LINE
8
0
10
-153.69995
20
-61.600037
30
-665.10754
11
-136.19995
21
-65.60004
31
-665.10754
0
LINE
8
0
10
-136.19995
20
-65.60004
30
-665.10754
11
-122.599945
21
-80.00003
31
-665.10754
0
LINE
8
0
10
-122.599945
20
-80.00003
30
-665.10754
11
-121.29996
21
-81.400024
31
-665.10754
0
LINE
8
0
10
-121.29996
20
-81.400024
30
-665.10754
11
-118.79996
21
-81.70004
31
-665.10754
0
LINE
8
0
10
-118.79996
20
-81.70004
30
-665.10754
11
-116.89993
21
-82.50003
31
-665.10754
0
LINE
8
0
10
-116.89993
20
-82.50003
30
-665.10754
11
-115.89993
21
-79.900024
31
-665.10754
0
LINE
8
0
10
-115.89993
20
-79.900024
30
-665.10754
11
-113.29993
21
-76.70004
31
-665.10754
0
LINE
8
0
10
-113.29993
20
-76.70004
30
-665.10754
11
-113.99994
21
-74.70004
31
-665.10754
0
LINE
8
0
10
-113.99994
20
-74.70004
30
-665.10754
11
-116.20001
21
-67.899994
31
-665.10754
0
LINE
8
0
10
-116.20001
20
-67.899994
30
-665.10754
11
-119.70001
21
-61.5
31
-665.10754
0
LINE
8
0
10
-119.70001
20
-61.5
30
-665.10754
11
-123.0
21
-54.399994
31
-665.10754
0
LINE
8
0
10
-123.0
20
-54.399994
30
-665.10754
11
-123.0
21
-54.399994
31
-665.10754
0
LINE
8
0
10
-28.02002
20
-117.399994
30
-665.10754
11
-28.02002
21
-120.79999
31
-665.10754
0
LINE
8
0
10
-28.02002
20
-120.79999
30
-665.10754
11
-28.619995
21
-124.399994
31
-665.10754
0
LINE
8
0
10
-28.619995
20
-124.399994
30
-665.10754
11
-27.820007
21
-127.69998
31
-665.10754
0
LINE
8
0
10
-27.820007
20
-127.69998
30
-665.10754
11
-27.21997
21
-130.69998
31
-665.10754
0
LINE
8
0
10
-27.21997
20
-130.69998
30
-665.10754
11
-25.119995
21
-133.29999
31
-665.10754
0
LINE
8
0
10
-25.119995
20
-133.29999
30
-665.10754
11
-23.71997
21
-136.09998
31
-665.10754
0
LINE
8
0
10
-23.71997
20
-136.09998
30
-665.10754
11
-22.21997
21
-133.39998
31
-665.10754
0
LINE
8
0
10
-22.21997
20
-133.39998
30
-665.10754
11
-19.919983
21
-130.89998
31
-665.10754
0
LINE
8
0
10
-19.919983
20
-130.89998
30
-665.10754
11
-19.320007
21
-128.09998
31
-665.10754
0
LINE
8
0
10
-19.320007
20
-128.09998
30
-665.10754
11
-18.52002
21
-124.19998
31
-665.10754
0
LINE
8
0
10
-18.52002
20
-124.19998
30
-665.10754
11
-19.52002
21
-119.99997
31
-665.10754
0
LINE
8
0
10
-19.52002
20
-119.99997
30
-665.10754
11
-19.02002
21
-116.099976
31
-665.10754
0
LINE
8
0
10
-19.02002
20
-116.099976
30
-665.10754
11
-18.720032
21
-114.099976
31
-665.10754
0
LINE
8
0
10
-18.720032
20
-114.099976
30
-665.10754
11
-16.919983
21
-112.29999
31
-665.10754
0
LINE
8
0
10
-16.919983
20
-112.29999
30
-665.10754
11
-15.820007
21
-110.39996
31
-665.10754
0
LINE
8
0
10
-15.820007
20
-110.39996
30
-665.10754
11
-14.820007
21
-112.39996
31
-665.10754
0
LINE
8
0
10
-14.820007
20
-112.39996
30
-665.10754
11
-13.119995
21
-114.29996
31
-665.10754
0
LINE
8
0
10
-13.119995
20
-114.29996
30
-665.10754
11
-12.820007
21
-116.39996
31
-665.10754
0
LINE
8
0
10
-12.820007
20
-116.39996
30
-665.10754
11
-12.320007
21
-120.89996
31
-665.10754
0
LINE
8
0
10
-12.320007
20
-120.89996
30
-665.10754
11
-13.119995
21
-125.49997
31
-665.10754
0
LINE
8
0
10
-13.119995
20
-125.49997
30
-665.10754
11
-12.52002
21
-129.89996
31
-665.10754
0
LINE
8
0
10
-12.52002
20
-129.89996
30
-665.10754
11
-12.220032
21
-132.09996
31
-665.10754
0
LINE
8
0
10
-12.220032
20
-132.09996
30
-665.10754
11
-9.820007
21
-133.99997
31
-665.10754
0
LINE
8
0
10
-9.820007
20
-133.99997
30
-665.10754
11
-8.419983
21
-136.09996
31
-665.10754
0
LINE
8
0
10
-8.419983
20
-136.09996
30
-665.10754
11
-6.919983
21
-133.89996
31
-665.10754
0
LINE
8
0
10
-6.919983
20
-133.89996
30
-665.10754
11
-4.5200195
21
-131.99995
31
-665.10754
0
LINE
8
0
10
-4.5200195
20
-131.99995
30
-665.10754
11
-4.0200195
21
-129.59996
31
-665.10754
0
LINE
8
0
10
-4.0200195
20
-129.59996
30
-665.10754
11
-3.3200073
21
-125.79996
31
-665.10754
0
LINE
8
0
10
-3.3200073
20
-125.79996
30
-665.10754
11
-3.8200073
21
-121.69995
31
-665.10754
0
LINE
8
0
10
-3.8200073
20
-121.69995
30
-665.10754
11
-3.8200073
21
-117.69995
31
-665.10754
0
LINE
8
0
10
-3.8200073
20
-117.69995
30
-665.10754
11
-3.119995
21
-117.39996
31
-665.10754
0
LINE
8
0
10
-3.119995
20
-117.39996
30
-665.10754
11
-2.3200073
21
-117.099945
31
-665.10754
0
LINE
8
0
10
-2.3200073
20
-117.099945
30
-665.10754
11
-1.6199951
21
-116.69995
31
-665.10754
0
LINE
8
0
10
-1.6199951
20
-116.69995
30
-665.10754
11
-0.2199707
21
-118.99994
31
-665.10754
0
LINE
8
0
10
-0.2199707
20
-118.99994
30
-665.10754
11
1.9800415
21
-121.19995
31
-665.10754
0
LINE
8
0
10
1.9800415
20
-121.19995
30
-665.10754
11
2.2800293
21
-123.69995
31
-665.10754
0
LINE
8
0
10
2.2800293
20
-123.69995
30
-665.10754
11
2.880005
21
-128.09995
31
-665.10754
0
LINE
8
0
10
2.880005
20
-128.09995
30
-665.10754
11
1.8800049
21
-132.79996
31
-665.10754
0
LINE
8
0
10
1.8800049
20
-132.79996
30
-665.10754
11
2.6799927
21
-137.19995
31
-665.10754
0
LINE
8
0
10
2.6799927
20
-137.19995
30
-665.10754
11
3.080017
21
-139.59995
31
-665.10754
0
LINE
8
0
10
3.080017
20
-139.59995
30
-665.10754
11
5.6799927
21
-141.69995
31
-665.10754
0
LINE
8
0
10
5.6799927
20
-141.69995
30
-665.10754
11
7.1799927
21
-143.89995
31
-665.10754
0
LINE
8
0
10
7.1799927
20
-143.89995
30
-665.10754
11
8.580017
21
-141.79994
31
-665.10754
0
LINE
8
0
10
8.580017
20
-141.79994
30
-665.10754
11
11.080017
21
-139.69995
31
-665.10754
0
LINE
8
0
10
11.080017
20
-139.69995
30
-665.10754
11
11.179993
21
-137.59995
31
-665.10754
0
LINE
8
0
10
11.179993
20
-137.59995
30
-665.10754
11
11.380005
21
-102.599945
31
-665.10754
0
LINE
8
0
10
11.380005
20
-102.599945
30
-665.10754
11
11.380005
21
-67.69995
31
-665.10754
0
LINE
8
0
10
11.380005
20
-67.69995
30
-665.10754
11
11.280029
21
-32.69995
31
-665.10754
0
LINE
8
0
10
11.280029
20
-32.69995
30
-665.10754
11
11.280029
21
-25.699951
31
-665.10754
0
LINE
8
0
10
11.280029
20
-25.699951
30
-665.10754
11
6.880005
21
-21.299957
31
-665.10754
0
LINE
8
0
10
6.880005
20
-21.299957
30
-665.10754
11
0.7800293
21
-19.399963
31
-665.10754
0
LINE
8
0
10
0.7800293
20
-19.399963
30
-665.10754
11
-9.5199585
21
-16.199951
31
-665.10754
0
LINE
8
0
10
-9.5199585
20
-16.199951
30
-665.10754
11
-12.820007
21
-9.899963
31
-665.10754
0
LINE
8
0
10
-12.820007
20
-9.899963
30
-665.10754
11
-11.719971
21
0.7000427
31
-665.10754
0
LINE
8
0
10
-11.719971
20
0.7000427
30
-665.10754
11
-10.619995
21
11.900055
31
-665.10754
0
LINE
8
0
10
-10.619995
20
11.900055
30
-665.10754
11
-11.320007
21
23.300049
31
-665.10754
0
LINE
8
0
10
-11.320007
20
23.300049
30
-665.10754
11
-11.619995
21
34.600037
31
-665.10754
0
LINE
8
0
10
-11.619995
20
34.600037
30
-665.10754
11
-11.719971
21
36.50003
31
-665.10754
0
LINE
8
0
10
-11.719971
20
36.50003
30
-665.10754
11
-13.820007
21
39.600037
31
-665.10754
0
LINE
8
0
10
-13.820007
20
39.600037
30
-665.10754
11
-15.5199585
21
40.00003
31
-665.10754
0
LINE
8
0
10
-15.5199585
20
40.00003
30
-665.10754
11
-19.619995
21
41.100037
31
-665.10754
0
LINE
8
0
10
-19.619995
20
41.100037
30
-665.10754
11
-20.319946
21
38.00003
31
-665.10754
0
LINE
8
0
10
-20.319946
20
38.00003
30
-665.10754
11
-20.319946
21
34.600037
31
-665.10754
0
LINE
8
0
10
-20.319946
20
34.600037
30
-665.10754
11
-20.21997
21
21.300049
31
-665.10754
0
LINE
8
0
10
-20.21997
20
21.300049
30
-665.10754
11
-20.619934
21
7.9000244
31
-665.10754
0
LINE
8
0
10
-20.619934
20
7.9000244
30
-665.10754
11
-20.119934
21
-5.3999634
31
-665.10754
0
LINE
8
0
10
-20.119934
20
-5.3999634
30
-665.10754
11
-19.919922
21
-11.4999695
31
-665.10754
0
LINE
8
0
10
-19.919922
20
-11.4999695
30
-665.10754
11
-21.819946
21
-14.799957
31
-665.10754
0
LINE
8
0
10
-21.819946
20
-14.799957
30
-665.10754
11
-27.419922
21
-16.599976
31
-665.10754
0
LINE
8
0
10
-27.419922
20
-16.599976
30
-665.10754
11
-30.019958
21
-17.49997
31
-665.10754
0
LINE
8
0
10
-30.019958
20
-17.49997
30
-665.10754
11
-32.319946
21
-18.99997
31
-665.10754
0
LINE
8
0
10
-32.319946
20
-18.99997
30
-665.10754
11
-34.819946
21
-20.299988
31
-665.10754
0
LINE
8
0
10
-34.819946
20
-20.299988
30
-665.10754
11
-40.51996
21
-23.299988
31
-665.10754
0
LINE
8
0
10
-40.51996
20
-23.299988
30
-665.10754
11
-43.21991
21
-27.899994
31
-665.10754
0
LINE
8
0
10
-43.21991
20
-27.899994
30
-665.10754
11
-43.21991
21
-34.299988
31
-665.10754
0
LINE
8
0
10
-43.21991
20
-34.299988
30
-665.10754
11
-43.21991
21
-68.29999
31
-665.10754
0
LINE
8
0
10
-43.21991
20
-68.29999
30
-665.10754
11
-43.319946
21
-102.19998
31
-665.10754
0
LINE
8
0
10
-43.319946
20
-102.19998
30
-665.10754
11
-43.019897
21
-136.19998
31
-665.10754
0
LINE
8
0
10
-43.019897
20
-136.19998
30
-665.10754
11
-43.019897
21
-138.79999
31
-665.10754
0
LINE
8
0
10
-43.019897
20
-138.79999
30
-665.10754
11
-40.319885
21
-141.29999
31
-665.10754
0
LINE
8
0
10
-40.319885
20
-141.29999
30
-665.10754
11
-38.91992
21
-143.79999
31
-665.10754
0
LINE
8
0
10
-38.91992
20
-143.79999
30
-665.10754
11
-37.41992
21
-141.29999
31
-665.10754
0
LINE
8
0
10
-37.41992
20
-141.29999
30
-665.10754
11
-35.119934
21
-138.99998
31
-665.10754
0
LINE
8
0
10
-35.119934
20
-138.99998
30
-665.10754
11
-34.619934
21
-136.29999
31
-665.10754
0
LINE
8
0
10
-34.619934
20
-136.29999
30
-665.10754
11
-33.91992
21
-132.4
31
-665.10754
0
LINE
8
0
10
-33.91992
20
-132.4
30
-665.10754
11
-34.91992
21
-128.19998
31
-665.10754
0
LINE
8
0
10
-34.91992
20
-128.19998
30
-665.10754
11
-34.319946
21
-124.29999
31
-665.10754
0
LINE
8
0
10
-34.319946
20
-124.29999
30
-665.10754
11
-33.819946
21
-121.5
31
-665.10754
0
LINE
8
0
10
-33.819946
20
-121.5
30
-665.10754
11
-31.919922
21
-119.0
31
-665.10754
0
LINE
8
0
10
-31.919922
20
-119.0
30
-665.10754
11
-30.619934
21
-116.399994
31
-665.10754
0
LINE
8
0
10
-30.619934
20
-116.399994
30
-665.10754
11
-29.720032
21
-116.79999
31
-665.10754
0
LINE
8
0
10
-29.720032
20
-116.79999
30
-665.10754
11
-28.919983
21
-117.100006
31
-665.10754
0
LINE
8
0
10
-28.919983
20
-117.100006
30
-665.10754
11
-28.02002
21
-117.399994
31
-665.10754
0
LINE
8
0
10
-28.02002
20
-117.399994
30
-665.10754
11
-11.02002
21
-23.600006
31
-665.10754
0
LINE
8
0
10
-11.02002
20
-23.600006
30
-665.10754
11
3.7799683
21
-29.200012
31
-665.10754
0
LINE
8
0
10
3.7799683
20
-29.200012
30
-665.10754
11
5.1799927
21
-32.200012
31
-665.10754
0
LINE
8
0
10
5.1799927
20
-32.200012
30
-665.10754
11
1.4799805
21
-49.5
31
-665.10754
0
LINE
8
0
10
1.4799805
20
-49.5
30
-665.10754
11
-14.119995
21
-42.700012
31
-665.10754
0
LINE
8
0
10
-14.119995
20
-42.700012
30
-665.10754
11
-11.820007
21
-47.600006
31
-665.10754
0
LINE
8
0
10
-11.820007
20
-47.600006
30
-665.10754
11
-11.02002
21
-23.600006
31
-665.10754
0
LINE
8
0
10
-11.02002
20
-23.600006
30
-665.10754
11
-33.919983
21
-49.799988
31
-665.10754
0
LINE
8
0
10
-33.919983
20
-49.799988
30
-665.10754
11
-36.02002
21
-30.099976
31
-665.10754
0
LINE
8
0
10
-36.02002
20
-30.099976
30
-665.10754
11
-34.820007
21
-27.699982
31
-665.10754
0
LINE
8
0
10
-34.820007
20
-27.699982
30
-665.10754
11
-21.21997
21
-24.0
31
-665.10754
0
LINE
8
0
10
-21.21997
20
-24.0
30
-665.10754
11
-17.820007
21
-41.899994
31
-665.10754
0
LINE
8
0
10
-17.820007
20
-41.899994
30
-665.10754
11
-18.619995
21
-43.5
31
-665.10754
0
LINE
8
0
10
-18.619995
20
-43.5
30
-665.10754
11
-33.919983
21
-49.799988
31
-665.10754
0
LINE
8
0
10
-33.919983
20
-49.799988
30
-665.10754
11
-34.02002
21
-79.5
31
-665.10754
0
LINE
8
0
10
-34.02002
20
-79.5
30
-665.10754
11
-35.820007
21
-60.200012
31
-665.10754
0
LINE
8
0
10
-35.820007
20
-60.200012
30
-665.10754
11
-34.820007
21
-58.5
31
-665.10754
0
LINE
8
0
10
-34.820007
20
-58.5
30
-665.10754
11
-21.02002
21
-54.5
31
-665.10754
0
LINE
8
0
10
-21.02002
20
-54.5
30
-665.10754
11
-18.419983
21
-72.79999
31
-665.10754
0
LINE
8
0
10
-18.419983
20
-72.79999
30
-665.10754
11
-18.52002
21
-73.100006
31
-665.10754
0
LINE
8
0
10
-18.52002
20
-73.100006
30
-665.10754
11
-34.02002
21
-79.5
31
-665.10754
0
LINE
8
0
10
-34.02002
20
-79.5
30
-665.10754
11
-20.820007
21
-83.79999
31
-665.10754
0
LINE
8
0
10
-20.820007
20
-83.79999
30
-665.10754
11
-19.320007
21
-103.099976
31
-665.10754
0
LINE
8
0
10
-19.320007
20
-103.099976
30
-665.10754
11
-20.820007
21
-105.79999
31
-665.10754
0
LINE
8
0
10
-20.820007
20
-105.79999
30
-665.10754
11
-34.119995
21
-108.399994
31
-665.10754
0
LINE
8
0
10
-34.119995
20
-108.399994
30
-665.10754
11
-35.619995
21
-89.29999
31
-665.10754
0
LINE
8
0
10
-35.619995
20
-89.29999
30
-665.10754
11
-35.320007
21
-88.79999
31
-665.10754
0
LINE
8
0
10
-35.320007
20
-88.79999
30
-665.10754
11
-20.820007
21
-83.79999
31
-665.10754
0
LINE
8
0
10
-20.820007
20
-83.79999
30
-665.10754
11
1.6799927
21
-79.20001
31
-665.10754
0
LINE
8
0
10
1.6799927
20
-79.20001
30
-665.10754
11
-13.420044
21
-73.600006
31
-665.10754
0
LINE
8
0
10
-13.420044
20
-73.600006
30
-665.10754
11
-14.220032
21
-71.900024
31
-665.10754
0
LINE
8
0
10
-14.220032
20
-71.900024
30
-665.10754
11
-10.619995
21
-54.400024
31
-665.10754
0
LINE
8
0
10
-10.619995
20
-54.400024
30
-665.10754
11
3.880005
21
-59.899994
31
-665.10754
0
LINE
8
0
10
3.880005
20
-59.899994
30
-665.10754
11
4.580017
21
-61.200012
31
-665.10754
0
LINE
8
0
10
4.580017
20
-61.200012
30
-665.10754
11
1.6799927
21
-79.20001
31
-665.10754
0
LINE
8
0
10
1.6799927
20
-79.20001
30
-665.10754
11
-11.119995
21
-84.0
31
-665.10754
0
LINE
8
0
10
-11.119995
20
-84.0
30
-665.10754
11
4.080017
21
-89.5
31
-665.10754
0
LINE
8
0
10
4.080017
20
-89.5
30
-665.10754
11
3.4799805
21
-88.20001
31
-665.10754
0
LINE
8
0
10
3.4799805
20
-88.20001
30
-665.10754
11
1.5800171
21
-108.79999
31
-665.10754
0
LINE
8
0
10
1.5800171
20
-108.79999
30
-665.10754
11
-12.419983
21
-103.79999
31
-665.10754
0
LINE
8
0
10
-12.419983
20
-103.79999
30
-665.10754
11
-12.52002
21
-103.5
31
-665.10754
0
LINE
8
0
10
-12.52002
20
-103.5
30
-665.10754
11
-11.119995
21
-84.0
31
-665.10754
0
LINE
8
0
10
-11.119995
20
-84.0
30
-665.10754
11
-28.02002
21
-117.399994
31
-665.10754
0
LINE
8
0
10
90.974976
20
-3.2000122
30
-665.10754
11
97.375
21
-15.0
31
-665.10754
0
LINE
8
0
10
97.375
20
-15.0
30
-665.10754
11
103.07501
21
-27.200012
31
-665.10754
0
LINE
8
0
10
103.07501
20
-27.200012
30
-665.10754
11
110.375
21
-38.400024
31
-665.10754
0
LINE
8
0
10
110.375
20
-38.400024
30
-665.10754
11
115.974976
21
-47.00003
31
-665.10754
0
LINE
8
0
10
115.974976
20
-47.00003
30
-665.10754
11
116.17499
21
-54.100037
31
-665.10754
0
LINE
8
0
10
116.17499
20
-54.100037
30
-665.10754
11
110.875
21
-62.700012
31
-665.10754
0
LINE
8
0
10
110.875
20
-62.700012
30
-665.10754
11
104.57501
21
-73.100006
31
-665.10754
0
LINE
8
0
10
104.57501
20
-73.100006
30
-665.10754
11
99.375
21
-84.20001
31
-665.10754
0
LINE
8
0
10
99.375
20
-84.20001
30
-665.10754
11
95.775024
21
-97.20001
31
-665.10754
0
LINE
8
0
10
95.775024
20
-97.20001
30
-665.10754
11
109.875
21
-89.100006
31
-665.10754
0
LINE
8
0
10
109.875
20
-89.100006
30
-665.10754
11
124.375
21
-81.600006
31
-665.10754
0
LINE
8
0
10
124.375
20
-81.600006
30
-665.10754
11
137.97498
21
-72.80002
31
-665.10754
0
LINE
8
0
10
137.97498
20
-72.80002
30
-665.10754
11
146.07501
21
-67.600006
31
-665.10754
0
LINE
8
0
10
146.07501
20
-67.600006
30
-665.10754
11
150.77502
21
-68.80002
31
-665.10754
0
LINE
8
0
10
150.77502
20
-68.80002
30
-665.10754
11
158.07501
21
-74.80002
31
-665.10754
0
LINE
8
0
10
158.07501
20
-74.80002
30
-665.10754
11
199.875
21
-109.100006
31
-665.10754
0
LINE
8
0
10
199.875
20
-109.100006
30
-665.10754
11
246.375
21
-129.80002
31
-665.10754
0
LINE
8
0
10
246.375
20
-129.80002
30
-665.10754
11
302.175
21
-119.50003
31
-665.10754
0
LINE
8
0
10
302.175
20
-119.50003
30
-665.10754
11
334.175
21
-113.60004
31
-665.10754
0
LINE
8
0
10
334.175
20
-113.60004
30
-665.10754
11
361.675
21
-98.60004
31
-665.10754
0
LINE
8
0
10
361.675
20
-98.60004
30
-665.10754
11
386.675
21
-78.10004
31
-665.10754
0
LINE
8
0
10
386.675
20
-78.10004
30
-665.10754
11
394.97498
21
-71.30005
31
-665.10754
0
LINE
8
0
10
394.97498
20
-71.30005
30
-665.10754
11
396.375
21
-65.70004
31
-665.10754
0
LINE
8
0
10
396.375
20
-65.70004
30
-665.10754
11
388.47498
21
-58.100037
31
-665.10754
0
LINE
8
0
10
388.47498
20
-58.100037
30
-665.10754
11
380.57495
21
-50.600037
31
-665.10754
0
LINE
8
0
10
380.57495
20
-50.600037
30
-665.10754
11
379.875
21
-43.50003
31
-665.10754
0
LINE
8
0
10
379.875
20
-43.50003
30
-665.10754
11
389.675
21
-36.80005
31
-665.10754
0
LINE
8
0
10
389.675
20
-36.80005
30
-665.10754
11
399.57495
21
-30.000061
31
-665.10754
0
LINE
8
0
10
399.57495
20
-30.000061
30
-665.10754
11
393.375
21
-25.500061
31
-665.10754
0
LINE
8
0
10
393.375
20
-25.500061
30
-665.10754
11
387.27502
21
-20.500061
31
-665.10754
0
LINE
8
0
10
387.27502
20
-20.500061
30
-665.10754
11
328.47498
21
27.899933
31
-665.10754
0
LINE
8
0
10
328.47498
20
27.899933
30
-665.10754
11
248.375
21
34.599945
31
-665.10754
0
LINE
8
0
10
248.375
20
34.599945
30
-665.10754
11
179.17499
21
-8.600067
31
-665.10754
0
LINE
8
0
10
179.17499
20
-8.600067
30
-665.10754
11
154.375
21
-24.100067
31
-665.10754
0
LINE
8
0
10
154.375
20
-24.100067
30
-665.10754
11
135.47498
21
-25.700073
31
-665.10754
0
LINE
8
0
10
135.47498
20
-25.700073
30
-665.10754
11
112.775024
21
-9.900055
31
-665.10754
0
LINE
8
0
10
112.775024
20
-9.900055
30
-665.10754
11
107.07501
21
-5.900055
31
-665.10754
0
LINE
8
0
10
107.07501
20
-5.900055
30
-665.10754
11
99.974976
21
-3.8000488
31
-665.10754
0
LINE
8
0
10
99.974976
20
-3.8000488
30
-665.10754
11
93.474976
21
-0.8000488
31
-665.10754
0
LINE
8
0
10
93.474976
20
-0.8000488
30
-665.10754
11
92.57501
21
-1.6000061
31
-665.10754
0
LINE
8
0
10
92.57501
20
-1.6000061
30
-665.10754
11
91.775024
21
-2.399994
31
-665.10754
0
LINE
8
0
10
91.775024
20
-2.399994
30
-665.10754
11
90.974976
21
-3.2000122
31
-665.10754
0
LINE
8
0
10
90.974976
20
-3.2000122
30
-665.10754
11
90.974976
21
-3.2000122
31
-665.10754
0
ENDSEC
0
EOF
